<svg version="1.1" xmlns="http://www.w3.org/2000/svg" viewBox="0 0 539.152903423769 465.25690519004354" width="539.152903423769" height="465.25690519004354" class="excalidraw-svg">
  <!-- svg-source:excalidraw -->
  
  <defs>
    <style class="style-fonts">
      @font-face {
        font-family: "Virgil";
        src: url("https://excalidraw.com/Virgil.woff2");
      }
      @font-face {
        font-family: "Cascadia";
        src: url("https://excalidraw.com/Cascadia.woff2");
      }
      @font-face {
        font-family: "Assistant";
        src: url("https://excalidraw.com/Assistant-Regular.woff2");
      }
    </style>
    
  </defs>
  <rect x="0" y="0" width="539.152903423769" height="465.25690519004354" fill="#ffffff"/><g stroke-linecap="round"><g transform="translate(20.60052331820296 90.7141464796058) rotate(0 233 164)"><path d="M0.42 -2.66 C26.75 -4.33, 49.11 -13.02, 65.72 -20.43 M-1.32 -1.92 C20.37 -7.6, 42.36 -12.84, 67.45 -21.98 M65.13 -26.79 C75.11 -3.73, 86.35 12.67, 95.84 43.81 M66.63 -24.3 C78.44 1, 89.4 21.96, 97.11 39.68 M94.3 38.68 C121.3 22.21, 134.78 11.89, 180.26 -19.65 M95.35 42.1 C120.26 22.12, 140.42 7.26, 177.05 -18.46 M179.95 -19.39 C195.81 42.48, 217.25 110.56, 251.53 197.62 M175.37 -20.21 C199.96 50.48, 222.19 119.71, 251.55 200.73 M247.5 203.14 C256.03 194.26, 265 194.82, 285.06 179.99 M251.1 199.49 C263.92 192.49, 277.69 185.76, 282.73 182.92 M283.65 181.41 C299.61 190.25, 318.51 196.31, 357.45 205.74 M283.14 179.18 C304.03 189.25, 325.03 199.56, 354.94 206.59 M353.02 208.34 C364.32 217.22, 373.08 224.83, 384.69 240.57 M354.75 209.31 C360.98 215.87, 369 219.3, 387.07 238.02 M388.7 235.86 C408.96 255.44, 427.9 264.25, 453.94 283.47 M384.65 238.61 C402.28 252.47, 421.46 265.6, 450.52 286.23 M453.03 282.78 C452.28 301.69, 456.4 322.6, 468.87 352.04 M449.11 285.7 C454.9 303.11, 457.68 323.45, 464.57 352.75" stroke="#e03131" stroke-width="2" fill="none"/></g></g><mask/><g stroke-linecap="round"><g transform="translate(24.60052331820296 299.7141464796058) rotate(0 233 -84)"><path d="M1.3 3.2 C19.55 -5.8, 41.36 -16.83, 101.86 -50.35 M-1.33 -1.02 C23.97 -8.66, 49.52 -20.53, 100.86 -47.24 M99.2 -48.65 C117.58 -34.73, 132.2 -14.85, 164.19 6.29 M102.03 -47.7 C120.52 -31.77, 137.67 -15.78, 160.96 6.14 M165.93 4.77 C207.68 -29.13, 260.08 -71.46, 281.42 -94.94 M162.75 6.17 C202.53 -27.59, 245.26 -62.76, 281.9 -96.64 M279.83 -99.97 C293.15 -94.85, 310.03 -95.89, 343.7 -91.15 M283.75 -96.31 C296 -95.28, 310.28 -91.79, 341.86 -87.81 M340.24 -90.18 C353.25 -97.55, 367.47 -114.48, 385.43 -130.63 M343.12 -88.76 C358.3 -102.86, 370.04 -116.68, 380.59 -128.72 M380.74 -126.32 C394.77 -122.4, 406.79 -124.08, 415.54 -120 M381.53 -130.95 C388.52 -125.39, 394.55 -125.95, 415.77 -117.22 M415.43 -117.22 C433.22 -137.56, 449.23 -153.92, 462.68 -175.54 M414.55 -116.13 C436.02 -141.81, 456.28 -162.53, 466.4 -175.04" stroke="#1971c2" stroke-width="2" fill="none"/></g></g><mask/><g stroke-linecap="round"><g transform="translate(49.02066676936218 453.6474220709432) rotate(0 0 -11.047163441444752)"><path d="M-0.86 1.61 C-0.71 -3.87, 0.36 -10.99, -1.21 -23.42 M-0.44 0.57 C0.37 -4, 0.07 -8.13, -0.3 -22.56" stroke="#1e1e1e" stroke-width="2" fill="none"/></g></g><mask/><g stroke-linecap="round"><g transform="translate(19.964931568626838 441.48313165398156) rotate(0 1.4210854715202004e-14 -215.05483978623568)"><path d="M-0.66 1.33 C2.35 -164.11, 0.66 -328.18, -1.98 -431.48 M0.23 0.53 C1.89 -106.28, 1.65 -214.87, -0.98 -430.58" stroke="#1e1e1e" stroke-width="2" fill="none"/></g></g><mask/><g stroke-linecap="round"><g transform="translate(21.030033299355665 442.54823338471044) rotate(0 254.02676277882546 0)"><path d="M0.34 -0.54 C192.34 -3.67, 385.07 -3.67, 507.24 -0.71 M-0.06 0.7 C181.31 -2.45, 362.36 -2.44, 508.12 0.13" stroke="#1e1e1e" stroke-width="2" fill="none"/></g></g><mask/><g stroke-linecap="round"><g transform="translate(21.24374479919328 175.01161703489674) rotate(0 228.13085349383897 81.81908247669327)"><path d="M-2.41 -2.64 C47 -1.01, 99.63 0.57, 141.87 2.82 M138.36 0.06 C147.88 17.09, 164.18 37.13, 172.25 50.82 M174.28 51.25 C197.32 43.23, 228.54 32.82, 243.62 22.36 M248.07 19.44 C258.94 59.83, 277.26 86.56, 325.04 166.9 M324.05 160.35 C345.57 153.49, 362.5 136.84, 393.28 127.15 M386.79 130.55 C405.07 124.05, 414.9 122.51, 428.15 124.8 M425.45 120.32 C434.32 131.95, 440.63 132.94, 454.21 142.79" stroke="#2f9e44" stroke-width="2.5" fill="none" stroke-dasharray="8 10"/></g></g><mask/><g stroke-linecap="round"><g transform="translate(125.13678094726869 454.05849184551107) rotate(0 0 -11.047163441444752)"><path d="M-1.92 -1.33 C-0.88 -6.77, 1.28 -11.31, 1.02 -22.24 M-0.95 -0.45 C0.15 -8.41, -0.43 -17.43, 0.7 -21.55" stroke="#1e1e1e" stroke-width="2" fill="none"/></g></g><mask/><g stroke-linecap="round"><g transform="translate(198.35501028295002 454.20965863629334) rotate(0 0 -11.047163441444752)"><path d="M-1.02 -0.89 C1.36 -4.72, 1.24 -10.48, 1.76 -22.7 M0.09 0.16 C-0.29 -5.89, 0.91 -10.64, -0.18 -22.08" stroke="#1e1e1e" stroke-width="2" fill="none"/></g></g><mask/><g stroke-linecap="round"><g transform="translate(259.0268204250424 453.5123702545136) rotate(0 0 -11.047163441444752)"><path d="M1.15 0.45 C1.14 -5.3, 1.87 -10.93, -0.93 -23.99 M-0.5 -0.29 C0.68 -5.09, -0.2 -11.25, -0.18 -22.74" stroke="#1e1e1e" stroke-width="2" fill="none"/></g></g><mask/><g stroke-linecap="round"><g transform="translate(324.67307843670767 452.92344002908146) rotate(0 0 -11.047163441444752)"><path d="M1.02 -0.14 C1.63 -6.26, -1.06 -13.19, -0.9 -21.92 M0.7 0.55 C-0.07 -6.98, -0.07 -14.63, 0.51 -21.44" stroke="#1e1e1e" stroke-width="2" fill="none"/></g></g><mask/><g stroke-linecap="round"><g transform="translate(397.8913077723889 454.0746068198638) rotate(0 0 -11.047163441444752)"><path d="M1.76 -0.61 C-1.05 -9.02, -1.01 -14.07, 0.33 -23.08 M-0.18 0.01 C-0.34 -6.63, 0.36 -11.32, 0.67 -22.31" stroke="#1e1e1e" stroke-width="2" fill="none"/></g></g><mask/><g stroke-linecap="round"><g transform="translate(469.2475398349401 452.67398814757615) rotate(0 0 -11.047163441444752)"><path d="M-0.93 -1.89 C-1.1 -6.29, 0.13 -13.93, -0.58 -20.69 M-0.18 -0.65 C0.55 -7.19, 0.71 -15.89, 0.05 -22.76" stroke="#1e1e1e" stroke-width="2" fill="none"/></g></g><mask/><g stroke-linecap="round"><g transform="translate(21.673885623889333 432.0824490329272) rotate(270 0 -11.047163441444752)"><path d="M-0.9 0.17 C0.43 -6.95, -0.48 -10.51, 1.09 -22.45 M0.51 0.65 C0.71 -6.88, 0.1 -13.98, -0.52 -22.52" stroke="#1e1e1e" stroke-width="2" fill="none"/></g></g><mask/><g stroke-linecap="round"><g transform="translate(21.968388803724253 355.8497682602878) rotate(270 0 -11.047163441444752)"><path d="M0.33 -0.99 C-0.48 -3.13, 1.19 -9.43, 0.03 -22.46 M0.67 -0.22 C-0.06 -5.86, -0.63 -10.82, 0.89 -22.77" stroke="#1e1e1e" stroke-width="2" fill="none"/></g></g><mask/><g stroke-linecap="round"><g transform="translate(22.21875467746341 282.73073800756345) rotate(270 0 -11.047163441444752)"><path d="M-0.58 1.4 C1.06 -7.18, -0.01 -14.01, -1.3 -21.07 M0.05 -0.66 C-0.67 -8.5, 0.74 -16.81, -0.58 -21.11" stroke="#1e1e1e" stroke-width="2" fill="none"/></g></g><mask/><g stroke-linecap="round"><g transform="translate(21.711641664823873 222.24910323461128) rotate(270 0 -11.047163441444752)"><path d="M1.09 -0.36 C0.09 -5.9, -1.23 -10.04, 1.3 -20.75 M-0.52 -0.43 C0.88 -6.82, -0.59 -11.31, -0.56 -22.7" stroke="#1e1e1e" stroke-width="2" fill="none"/></g></g><mask/><g stroke-linecap="round"><g transform="translate(20.938139874155638 156.41827365771) rotate(270 0 -11.047163441444752)"><path d="M0.03 -0.37 C-1.42 -7.15, 1.18 -15.02, -0.44 -21.99 M0.89 -0.67 C-0.46 -4.18, -0.44 -10.94, 0.64 -21.28" stroke="#1e1e1e" stroke-width="2" fill="none"/></g></g><mask/><g stroke-linecap="round"><g transform="translate(22.105279655398306 83.21601731248916) rotate(270 0 -11.047163441444752)"><path d="M-1.3 1.03 C1.3 -4.89, -0.44 -12.36, -1.32 -23.13 M-0.58 0.98 C-0.75 -6.29, 0.45 -10.54, 0.09 -22.24" stroke="#1e1e1e" stroke-width="2" fill="none"/></g></g><mask/></svg>