<svg version="1.1" xmlns="http://www.w3.org/2000/svg" viewBox="0 0 1120.5467541607734 400.38075349474906" width="1120.5467541607734" height="400.38075349474906">
  <!-- svg-source:excalidraw -->
  
  <defs>
    <style class="style-fonts">
      @font-face {
        font-family: "Virgil";
        src: url("https://excalidraw.com/Virgil.woff2");
      }
      @font-face {
        font-family: "Cascadia";
        src: url("https://excalidraw.com/Cascadia.woff2");
      }
      @font-face {
        font-family: "Assistant";
        src: url("https://excalidraw.com/Assistant-Regular.woff2");
      }
    </style>
    
  </defs>
  <rect x="0" y="0" width="1120.5467541607734" height="400.38075349474906" fill="#ffffff"></rect><g stroke-linecap="round"><g transform="translate(255.81399375783667 63.020670327226355) rotate(0 145.77086759091588 145.3926291326299)"><path d="M0.81 0.2 C49.47 48.81, 242.64 243.08, 290.91 291.52 M-0.22 -0.74 C48.93 47.55, 244.46 240.97, 293.28 289.78" stroke="#1971c2" stroke-width="4" fill="none"></path></g></g><mask></mask><g stroke-linecap="round"><g transform="translate(290.42749110132195 101.52427232707538) rotate(0 110.44091253044701 127.90219129800965)" fill-rule="evenodd"><path d="M0 0 C0 0, 0 0, 0 0 M0 0 C0 0, 0 0, 0 0 M-10.23 36.16 C-0.91 27.69, 6.43 15.67, 11.42 11.25 M-10.23 36.16 C-3.62 28.47, 2.8 22.18, 11.42 11.25 M1.19 47.41 C9.85 39.85, 15.12 28.49, 22.84 22.5 M1.19 47.41 C9.52 37.74, 17.59 29.68, 22.84 22.5 M12.61 58.66 C19.55 47.98, 29.07 39.98, 34.26 33.75 M12.61 58.66 C21.7 49.55, 28.32 38.88, 34.26 33.75 M24.68 69.16 C31.35 62, 37.46 54.12, 46.33 44.25 M24.68 69.16 C29.83 62.78, 35.84 55.62, 46.33 44.25 M36.1 80.41 C42.44 71.61, 51.69 59.9, 57.75 55.5 M36.1 80.41 C43.36 72.01, 51.43 64.48, 57.75 55.5 M47.52 91.66 C53.87 83.39, 60.79 78.6, 69.17 66.76 M47.52 91.66 C53.84 85.03, 58.9 79.76, 69.17 66.76 M58.94 102.91 C66.27 94.19, 74.81 84.94, 80.59 78.01 M58.94 102.91 C66.09 94.32, 74.74 85.09, 80.59 78.01 M71.02 113.41 C80.03 102.77, 86.07 94.14, 92.01 89.26 M71.02 113.41 C78.01 106.48, 84.02 99.55, 92.01 89.26 M82.44 124.66 C91.28 116.11, 97.05 108.85, 103.43 100.51 M82.44 124.66 C89.72 115.99, 96.83 107.76, 103.43 100.51 M93.86 135.91 C99.91 127.79, 105.63 122.37, 114.85 111.76 M93.86 135.91 C100.38 127.88, 109.09 118.1, 114.85 111.76 M105.93 146.41 C113.95 139.56, 120.36 132, 126.92 122.26 M105.93 146.41 C114.71 136.92, 121.2 127.42, 126.92 122.26 M117.35 157.66 C122.29 152.42, 127.73 145.14, 138.34 133.51 M117.35 157.66 C124.99 150.23, 129.98 143.15, 138.34 133.51 M128.77 168.91 C137.33 158.71, 145.14 150.8, 149.76 144.76 M128.77 168.91 C137.34 160.58, 144 151.97, 149.76 144.76 M140.19 180.16 C145.53 175.61, 149.68 170.29, 161.18 156.01 M140.19 180.16 C145.35 174.75, 148.92 171.12, 161.18 156.01 M152.26 190.66 C157.21 183.45, 166.77 175.83, 172.6 167.27 M152.26 190.66 C158.33 183.53, 165.4 176.66, 172.6 167.27 M163.68 201.91 C167.38 195.47, 173.56 187.06, 184.02 178.52 M163.68 201.91 C168 196.87, 173.61 189.88, 184.02 178.52 M175.1 213.16 C180.54 206.58, 185.17 198.22, 195.44 189.77 M175.1 213.16 C183.98 204.62, 191.41 196.2, 195.44 189.77 M186.52 224.42 C193.09 215.69, 201.02 210.7, 207.52 200.27 M186.52 224.42 C194.44 215.89, 201.71 206.74, 207.52 200.27 M198.6 234.91 C204.46 226.44, 212.2 217.13, 218.93 211.52 M198.6 234.91 C205.86 225.32, 214.03 216.4, 218.93 211.52 M210.02 246.16 C218.8 234.82, 224.81 226.88, 230.35 222.77 M210.02 246.16 C213.95 241.2, 217.81 237.05, 230.35 222.77" stroke="#ffec99" stroke-width="2" fill="none"></path><path d="M0 0 C-7 6.37, -12.38 14.18, -19 28.21 M0 0 C-3.49 5.7, -8.31 13.55, -19 28.21 M-19 28.21 C35.43 78.96, 88.17 129.51, 220.09 255.8 M-19 28.21 C46.67 88.19, 110.38 148.68, 220.09 255.8 M220.09 255.8 C225.96 249.81, 232.34 242.99, 239.88 232.11 M220.09 255.8 C225.61 247.36, 232.95 240.61, 239.88 232.11 M239.88 232.11 C145.03 142.42, 53.51 54.05, 0 0 M239.88 232.11 C151.23 147.25, 62.66 60.82, 0 0 M0 0 C0 0, 0 0, 0 0 M0 0 C0 0, 0 0, 0 0" stroke="#f08c00" stroke-width="4" fill="none"></path></g></g><mask></mask><g stroke-linecap="round" transform="translate(220.7551013847352 33.248925912182415) rotate(0 22.278408483822034 20.250829516074447)"><path d="M5.76 6.33 C5.76 6.33, 5.76 6.33, 5.76 6.33 M5.76 6.33 C5.76 6.33, 5.76 6.33, 5.76 6.33 M4.06 32.68 C11.22 24.09, 19.39 15.49, 29.64 3.24 M4.06 32.68 C10.17 25.23, 16.63 17.91, 29.64 3.24 M18.76 40.15 C25.06 31.48, 33.75 24.38, 42.37 12.98 M18.76 40.15 C24.11 33.79, 29.7 27.82, 42.37 12.98" stroke="#1e1e1e" stroke-width="2" fill="none"></path><path d="M19.35 0.63 C23.85 -0.06, 30.23 1.37, 34.2 3.73 C38.18 6.1, 41.8 10.74, 43.2 14.82 C44.59 18.91, 44.35 24.29, 42.56 28.26 C40.77 32.23, 36.71 36.71, 32.46 38.63 C28.22 40.55, 21.81 40.81, 17.1 39.79 C12.38 38.77, 7.04 36, 4.17 32.52 C1.3 29.05, -0.4 23.31, -0.13 18.94 C0.14 14.56, 2.4 9.44, 5.82 6.26 C9.23 3.09, 17.69 0.83, 20.36 -0.12 C23.03 -1.07, 21.71 0.16, 21.83 0.56 M16.41 0.09 C20.93 -1.29, 28.33 -0.5, 32.58 1.37 C36.83 3.24, 39.97 7.2, 41.93 11.31 C43.89 15.42, 45.64 21.65, 44.36 26.01 C43.07 30.38, 38.39 35.14, 34.2 37.51 C30.01 39.87, 23.82 40.71, 19.22 40.2 C14.62 39.69, 9.73 37.53, 6.59 34.45 C3.44 31.37, 0.71 25.98, 0.38 21.71 C0.04 17.45, 1.9 12.26, 4.56 8.85 C7.23 5.44, 14.36 2.48, 16.37 1.26 C18.38 0.04, 16.47 1.33, 16.64 1.54" stroke="#1e1e1e" stroke-width="4" fill="none"></path></g><g mask="url(#mask-xHKF_d5fxEHZ23WkaFnaX)" stroke-linecap="round"><g transform="translate(10 41.93558046325546) rotate(0 93.5752563059811 0.27562446141391206)"><path d="M0 0 C43.73 -3.15, 90.33 -0.01, 187.15 0.55 M0 0 C60.43 -0.2, 120.26 0.17, 187.15 0.55" stroke="#1e1e1e" stroke-width="4" fill="none"></path></g><g transform="translate(10 41.93558046325546) rotate(0 93.5752563059811 0.27562446141391206)"><path d="M158.9 10.65 C164.56 6.49, 173.04 7.08, 187.15 0.55 M158.9 10.65 C168.14 7.09, 176.78 4.03, 187.15 0.55" stroke="#1e1e1e" stroke-width="4" fill="none"></path></g><g transform="translate(10 41.93558046325546) rotate(0 93.5752563059811 0.27562446141391206)"><path d="M159.02 -9.87 C164.56 -9.1, 173.01 -3.6, 187.15 0.55 M159.02 -9.87 C168.21 -6.82, 176.81 -3.27, 187.15 0.55" stroke="#1e1e1e" stroke-width="4" fill="none"></path></g></g><mask id="mask-xHKF_d5fxEHZ23WkaFnaX"><rect x="0" y="0" fill="#fff" width="297.1505126119622" height="142.4868293860833"></rect><rect x="71.5752563059811" y="24.711204924669403" fill="#000" width="64" height="35" opacity="1"></rect></mask><g transform="translate(71.5752563059811 24.711204924669403) rotate(0 32 16.80972205252533)"><text x="32" y="0" font-family="Virgil, Segoe UI Emoji" font-size="28px" fill="#1e1e1e" text-anchor="middle" style="white-space: pre;" direction="ltr" dominant-baseline="text-before-edge">Hinge</text></g><g mask="url(#mask-KU7WKqrnuTAY50Bx256U4)" stroke-linecap="round"><g transform="translate(348.4361503181798 384.74605738515066) rotate(0 89.33306563458586 -11.865303890401663)"><path d="M0 0 C43.19 -4.83, 86.51 -13.32, 178.67 -23.73 M0 0 C70.61 -10.94, 138.81 -20.82, 178.67 -23.73" stroke="#1971c2" stroke-width="4" fill="none"></path></g><g transform="translate(348.4361503181798 384.74605738515066) rotate(0 89.33306563458586 -11.865303890401663)"><path d="M151.65 -10.68 C157.57 -12.62, 163.63 -18.48, 178.67 -23.73 M151.65 -10.68 C162.95 -16.09, 171.81 -21.79, 178.67 -23.73" stroke="#1971c2" stroke-width="4" fill="none"></path></g><g transform="translate(348.4361503181798 384.74605738515066) rotate(0 89.33306563458586 -11.865303890401663)"><path d="M149.58 -31.1 C155.97 -28.02, 162.54 -28.87, 178.67 -23.73 M149.58 -31.1 C161.72 -28.54, 171.4 -26.25, 178.67 -23.73" stroke="#1971c2" stroke-width="4" fill="none"></path></g></g><mask id="mask-KU7WKqrnuTAY50Bx256U4"><rect x="0" y="0" fill="#fff" width="627.1022815873515" height="508.476665165954"></rect><rect x="397.9775480145332" y="355.380753494749" fill="#000" width="79.58333587646484" height="35" opacity="1"></rect></mask><g transform="translate(397.9775480145332 355.3807534947491) rotate(0 39.79166793823242 17.499999999999943)"><text x="39.79166793823242" y="0" font-family="Virgil, Segoe UI Emoji" font-size="28px" fill="#1971c2" text-anchor="middle" style="white-space: pre;" direction="ltr" dominant-baseline="text-before-edge">Lexan</text></g><g mask="url(#mask-BS5MlY6eEdj9B80X5AaHu)" stroke-linecap="round"><g transform="translate(122.17791167527616 284.7073893155933) rotate(0 142.60678482553072 -1.0145022610685146)"><path d="M0 0 C84.45 -2.31, 168.97 -3.27, 285.21 -2.03 M0 0 C80.81 -2.31, 162.19 -3.26, 285.21 -2.03" stroke="#f08c00" stroke-width="4" fill="none"></path></g><g transform="translate(122.17791167527616 284.7073893155933) rotate(0 142.60678482553072 -1.0145022610685146)"><path d="M256.97 8.08 C266.1 4.87, 275.38 1.43, 285.21 -2.03 M256.97 8.08 C264.65 4.78, 273.18 1.41, 285.21 -2.03" stroke="#f08c00" stroke-width="4" fill="none"></path></g><g transform="translate(122.17791167527616 284.7073893155933) rotate(0 142.60678482553072 -1.0145022610685146)"><path d="M257.08 -12.44 C266.35 -9.62, 275.59 -7.03, 285.21 -2.03 M257.08 -12.44 C264.91 -9.91, 273.41 -7.45, 285.21 -2.03" stroke="#f08c00" stroke-width="4" fill="none"></path></g></g><mask id="mask-BS5MlY6eEdj9B80X5AaHu"><rect x="0" y="0" fill="#fff" width="507.3914813263376" height="386.7363938377303"></rect><rect x="205.2430285625744" y="266.1928870545247" fill="#000" width="119.08333587646484" height="35" opacity="1"></rect></mask><g transform="translate(205.24302856257447 266.1928870545248) rotate(0 59.54166793823242 17.227870239113997)"><text x="59.54166793823242" y="0" font-family="Virgil, Segoe UI Emoji" font-size="28px" fill="#f08c00" text-anchor="middle" style="white-space: pre;" direction="ltr" dominant-baseline="text-before-edge">Supports</text></g><g stroke-linecap="round"><g transform="translate(459.80211805154784 253.61423373901033) rotate(0 325.3723180546128 -72.28859305133741)" fill-rule="evenodd"><path d="M36.82 -243.6 C36.82 -243.6, 36.82 -243.6, 36.82 -243.6 M36.82 -243.6 C36.82 -243.6, 36.82 -243.6, 36.82 -243.6 M32.49 -214.23 C37.88 -220.07, 44.56 -226.64, 54.8 -239.89 M32.49 -214.23 C37.06 -219.65, 43.26 -227.19, 54.8 -239.89 M28.17 -184.87 C44.74 -202.91, 62.49 -223.65, 73.43 -236.94 M28.17 -184.87 C40.77 -200.05, 55.66 -215.44, 73.43 -236.94 M23.18 -154.75 C46.64 -179.2, 64.18 -205.49, 91.41 -233.24 M23.18 -154.75 C46.49 -180.92, 69.44 -207.57, 91.41 -233.24 M18.86 -125.38 C54.46 -164.51, 88.61 -205.63, 110.05 -230.29 M18.86 -125.38 C54.54 -164.82, 90.83 -206.8, 110.05 -230.29 M14.53 -96.02 C46.46 -130.74, 77.6 -169.17, 128.03 -226.58 M14.53 -96.02 C56.08 -142.35, 96.85 -189.7, 128.03 -226.58 M10.21 -66.65 C54.01 -117.06, 96.99 -163.98, 146.01 -222.88 M10.21 -66.65 C51.67 -113.85, 92.12 -160.36, 146.01 -222.88 M5.88 -37.29 C65.88 -108.5, 129.18 -179.19, 164.65 -219.93 M5.88 -37.29 C67.55 -106.5, 129.14 -176.76, 164.65 -219.93 M0.9 -7.17 C63.31 -78.91, 125.48 -152.53, 182.63 -216.22 M0.9 -7.17 C65.09 -79.19, 127.92 -152.62, 182.63 -216.22 M13.63 2.57 C54.3 -40.62, 91.64 -85.8, 200.61 -212.52 M13.63 2.57 C74.06 -66.44, 134.44 -136.91, 200.61 -212.52 M32.26 5.52 C78.54 -47.6, 122.27 -99.55, 219.24 -209.57 M32.26 5.52 C73.45 -45.23, 117.34 -94.55, 219.24 -209.57 M50.9 8.47 C114.11 -62.42, 178.26 -136.88, 237.22 -205.87 M50.9 8.47 C93.19 -38.77, 135.01 -86.9, 237.22 -205.87 M68.88 12.18 C120.99 -45.35, 174.23 -105.37, 255.86 -202.92 M68.88 12.18 C125.78 -53.44, 182.5 -118.65, 255.86 -202.92 M87.52 15.13 C149.5 -59.05, 214.73 -131.43, 273.84 -199.21 M87.52 15.13 C153.21 -58.49, 217.51 -132.39, 273.84 -199.21 M106.15 18.08 C169.06 -52.04, 227.13 -122.75, 291.82 -195.51 M106.15 18.08 C161.56 -47.55, 217.76 -111.87, 291.82 -195.51 M124.79 21.03 C166.14 -27.87, 204.74 -74.02, 310.45 -192.56 M124.79 21.03 C175.77 -36.52, 225.5 -93.09, 310.45 -192.56 M143.42 23.98 C208.73 -53.26, 277.58 -131.88, 328.43 -188.85 M143.42 23.98 C187.69 -28.58, 231.9 -80.59, 328.43 -188.85 M162.06 26.93 C225.26 -48.51, 289.06 -121.57, 346.41 -185.15 M162.06 26.93 C200.28 -17.39, 239.62 -60.71, 346.41 -185.15 M180.7 29.88 C248.72 -49.88, 314.92 -125.52, 365.05 -182.2 M180.7 29.88 C237.94 -35.42, 294.34 -99.99, 365.05 -182.2 M199.33 32.83 C256.55 -34.32, 317.94 -103.17, 383.03 -178.49 M199.33 32.83 C253.08 -30.46, 308.01 -93.3, 383.03 -178.49 M217.97 35.78 C255.74 -8.8, 293.79 -51.88, 401.66 -175.54 M217.97 35.78 C281.06 -38.07, 344.29 -109.65, 401.66 -175.54 M235.95 39.48 C295.43 -30.3, 355.98 -100.52, 419.64 -171.84 M235.95 39.48 C288.76 -21.85, 341.71 -82.15, 419.64 -171.84 M254.58 42.43 C319.29 -35.58, 387.51 -110.35, 437.62 -168.13 M254.58 42.43 C326.66 -39.65, 399.66 -123.47, 437.62 -168.13 M273.22 45.38 C342.33 -31.82, 408.68 -111.18, 456.26 -165.18 M273.22 45.38 C320.6 -8.78, 367.74 -63.58, 456.26 -165.18 M291.86 48.33 C333.65 2.36, 373.38 -46.32, 474.24 -161.48 M291.86 48.33 C357.11 -25.46, 422.96 -101.28, 474.24 -161.48 M310.49 51.28 C351.9 1.34, 394.73 -46.27, 492.22 -157.78 M310.49 51.28 C369.36 -15.83, 427.81 -82.93, 492.22 -157.78 M329.13 54.23 C396 -20.68, 461.55 -95.84, 510.86 -154.83 M329.13 54.23 C385.7 -10.23, 442.11 -74.66, 510.86 -154.83 M347.76 57.18 C405.39 -5.67, 460.91 -69.88, 528.84 -151.12 M347.76 57.18 C400.62 -3.01, 453.37 -64.56, 528.84 -151.12 M366.4 60.13 C416.89 5.64, 463.59 -50.62, 547.47 -148.17 M366.4 60.13 C402.2 18.02, 439.52 -24.57, 547.47 -148.17 M384.38 63.83 C456.31 -17.82, 526.93 -97.47, 565.45 -144.47 M384.38 63.83 C426.07 17.69, 466.64 -29.37, 565.45 -144.47 M403.02 66.78 C443.86 20.08, 480.93 -24.18, 583.43 -140.76 M403.02 66.78 C467.43 -8.46, 532.7 -84.36, 583.43 -140.76 M421.65 69.73 C476.63 7.3, 528.66 -54.73, 602.07 -137.81 M421.65 69.73 C475.75 8, 529.63 -53.87, 602.07 -137.81 M440.29 72.68 C475.77 29.93, 512.77 -12.04, 620.05 -134.11 M440.29 72.68 C508.42 -4.84, 576.59 -83.15, 620.05 -134.11 M458.92 75.63 C530.53 -5.29, 601.13 -88.24, 638.03 -130.4 M458.92 75.63 C511.4 13.62, 564.76 -47.66, 638.03 -130.4 M477.56 78.58 C515.24 33.7, 552.1 -8.42, 648.79 -118.4 M477.56 78.58 C519.08 33.32, 558.78 -12.34, 648.79 -118.4 M496.2 81.53 C545.46 26.98, 592.2 -30.52, 642.5 -86.77 M496.2 81.53 C548.5 21.36, 600.06 -38.16, 642.5 -86.77 M514.83 84.48 C556.68 37.54, 595.73 -10.14, 636.2 -55.14 M514.83 84.48 C559.41 33.56, 601.8 -17.09, 636.2 -55.14 M533.47 87.43 C559.41 58.55, 584.22 29.46, 629.91 -23.51 M533.47 87.43 C551.28 64.9, 571.38 42.6, 629.91 -23.51 M551.45 91.14 C572.88 68.73, 588.57 46.73, 622.96 8.87 M551.45 91.14 C578.85 59.9, 607.71 27.86, 622.96 8.87 M570.08 94.09 C581.94 83.56, 590 70.91, 616.66 40.5 M570.08 94.09 C583.77 76.83, 599.42 61.95, 616.66 40.5 M588.72 97.04 C596.95 86.52, 605.07 78.73, 610.37 72.13 M588.72 97.04 C597.61 86.56, 605.43 77.27, 610.37 72.13" stroke="#b2f2bb" stroke-width="2" fill="none"></path><path d="M0 0 C148.36 22.46, 294.64 47.66, 604.97 99.04 M0 0 C184.27 29.45, 367.68 59.58, 604.97 99.04 M604.97 99.04 C618.78 33.52, 633.43 -29.47, 650.74 -128.42 M604.97 99.04 C618.04 31.14, 631.57 -36.72, 650.74 -128.42 M650.74 -128.42 C472.24 -164.37, 293.68 -197.14, 36.83 -243.61 M650.74 -128.42 C412.35 -172.34, 174.05 -216.78, 36.83 -243.61 M36.83 -243.61 C28.27 -187.15, 21.7 -130.49, 0 0 M36.83 -243.61 C28.43 -176.71, 18.19 -108.43, 0 0 M0 0 C0 0, 0 0, 0 0 M0 0 C0 0, 0 0, 0 0" stroke="#2f9e44" stroke-width="4" fill="none"></path></g></g><mask></mask><g transform="translate(655.5552034247745 158.2447641440994) rotate(0 51.45833206176758 22.5)"><text x="0" y="0" font-family="Virgil, Segoe UI Emoji" font-size="36px" fill="#2f9e44" text-anchor="start" style="white-space: pre;" direction="ltr" dominant-baseline="text-before-edge">Robot</text></g></svg>