<svg version="1.1" xmlns="http://www.w3.org/2000/svg" viewBox="0 0 670 133.7543937561668" width="670" height="133.7543937561668">
  <!-- svg-source:excalidraw -->
  
  <defs>
    <style class="style-fonts">
      @font-face {
        font-family: "Virgil";
        src: url("https://excalidraw.com/Virgil.woff2");
      }
      @font-face {
        font-family: "Cascadia";
        src: url("https://excalidraw.com/Cascadia.woff2");
      }
      @font-face {
        font-family: "Assistant";
        src: url("https://excalidraw.com/Assistant-Regular.woff2");
      }
    </style>
    
  </defs>
  <rect x="0" y="0" width="670" height="133.7543937561668" fill="#ffffff"></rect><g stroke-linecap="round"><g transform="translate(10 122.75439375616679) rotate(0 325 0)"><path d="M0 0 C135.16 -1.43, 270.09 -2.13, 650 0 M0 0 C136.88 0.99, 273.94 0.38, 650 0" stroke="#1e1e1e" stroke-width="2" fill="none"></path></g></g><mask></mask><g stroke-linecap="round" transform="translate(45 19.75439375616679) rotate(0 86 36.5)"><path d="M-0.64 -0.38 L170.38 0 L170.41 74.66 L1.9 73.44" stroke="none" stroke-width="0" fill="#ffffff"></path><path d="M0 0 C51.3 0.85, 100.73 0.97, 172 0 M0 0 C55.68 0.81, 112.82 -0.56, 172 0 M172 0 C170.99 19.2, 170.34 40.45, 172 73 M172 0 C171.82 28.84, 173.43 57.85, 172 73 M172 73 C110.28 72.47, 47.1 71.52, 0 73 M172 73 C105.27 73.64, 40.35 73.91, 0 73 M0 73 C-0.59 51.97, 0.59 34.21, 0 0 M0 73 C-0.24 45.74, -0.15 20.37, 0 0" stroke="#1e1e1e" stroke-width="2" fill="none"></path></g><g stroke-linecap="round" transform="translate(161 72.75439375616679) rotate(0 21 21)"><path d="M16.02 0.73 C20.24 -0.41, 26.72 0.3, 30.77 2.32 C34.81 4.35, 38.52 8.71, 40.3 12.87 C42.08 17.03, 42.81 23.05, 41.44 27.28 C40.07 31.52, 35.95 35.84, 32.1 38.31 C28.25 40.77, 22.72 42.54, 18.33 42.05 C13.94 41.56, 8.91 38.72, 5.78 35.35 C2.66 31.99, -0.1 26.34, -0.42 21.84 C-0.74 17.34, 0.85 11.96, 3.86 8.35 C6.87 4.73, 15.2 1.51, 17.63 0.15 C20.05 -1.21, 18.47 -0.24, 18.43 0.2 M17.21 1.09 C21.35 -0.02, 26.95 0.29, 30.83 2.28 C34.7 4.28, 38.85 8.88, 40.47 13.04 C42.09 17.21, 42 23.04, 40.54 27.28 C39.08 31.52, 35.51 36.17, 31.71 38.47 C27.91 40.77, 22.1 41.63, 17.76 41.09 C13.42 40.54, 8.75 38.56, 5.68 35.2 C2.61 31.83, -0.51 25.44, -0.64 20.88 C-0.77 16.32, 1.92 11.27, 4.89 7.83 C7.85 4.39, 15.25 1.52, 17.16 0.26 C19.06 -1, 16.25 -0.07, 16.32 0.28" stroke="none" stroke-width="0" fill="#ffffff"></path><path d="M22.53 0.51 C26.75 0.58, 32.11 3.27, 35.33 6.28 C38.55 9.3, 41.32 14.14, 41.85 18.6 C42.37 23.06, 41.1 29.25, 38.47 33.04 C35.85 36.84, 30.48 40.23, 26.1 41.37 C21.72 42.51, 16.27 41.76, 12.2 39.89 C8.12 38.01, 3.59 34.12, 1.62 30.13 C-0.34 26.15, -0.8 20.28, 0.42 15.98 C1.64 11.67, 5.16 6.92, 8.94 4.3 C12.72 1.68, 20.67 0.83, 23.1 0.24 C25.52 -0.36, 23.49 0.43, 23.48 0.73 M25.42 0.89 C29.51 1.77, 34.74 5.17, 37.39 8.72 C40.04 12.26, 41.58 17.55, 41.31 22.14 C41.03 26.74, 38.84 33, 35.74 36.29 C32.64 39.59, 27.13 41.53, 22.71 41.93 C18.29 42.32, 12.93 41.24, 9.23 38.66 C5.52 36.07, 1.58 30.85, 0.47 26.41 C-0.64 21.96, 0.6 15.95, 2.55 11.99 C4.51 8.03, 8.33 4.44, 12.2 2.64 C16.07 0.84, 23.56 1.42, 25.78 1.2 C27.99 0.99, 25.45 1.14, 25.48 1.35" stroke="#1e1e1e" stroke-width="2" fill="none"></path></g><g stroke-linecap="round" transform="translate(107 72.75439375616679) rotate(0 21 21)"><path d="M17.13 0.03 C21.29 -0.97, 27.71 0.53, 31.62 2.85 C35.52 5.17, 38.97 9.64, 40.55 13.94 C42.13 18.23, 42.61 24.46, 41.07 28.61 C39.53 32.76, 35.19 36.65, 31.3 38.84 C27.42 41.03, 22.12 42.57, 17.74 41.77 C13.37 40.96, 7.95 37.54, 5.05 34.01 C2.15 30.47, 0.3 25.04, 0.36 20.58 C0.41 16.11, 2.27 10.71, 5.37 7.22 C8.47 3.74, 16.49 0.85, 18.94 -0.35 C21.4 -1.55, 20.12 -0.41, 20.1 0.01 M21.33 -0.38 C25.5 -0.64, 30.85 1.66, 34.14 4.72 C37.42 7.77, 40.11 13.5, 41.04 17.95 C41.97 22.39, 41.84 27.5, 39.71 31.36 C37.59 35.22, 32.64 39.58, 28.28 41.1 C23.93 42.62, 17.75 42.19, 13.6 40.48 C9.45 38.77, 5.66 34.67, 3.38 30.83 C1.09 26.99, -0.75 21.86, -0.12 17.44 C0.51 13.02, 3.57 7.12, 7.14 4.31 C10.7 1.5, 18.99 1.14, 21.26 0.59 C23.52 0.04, 20.62 0.74, 20.71 1.01" stroke="none" stroke-width="0" fill="#ffffff"></path><path d="M18.08 -0.26 C22.36 -1.02, 28.73 1.03, 32.48 3.43 C36.23 5.84, 39.21 9.92, 40.57 14.16 C41.93 18.4, 42.24 24.67, 40.64 28.89 C39.05 33.11, 35.08 37.43, 31 39.48 C26.92 41.52, 20.55 42.1, 16.15 41.16 C11.75 40.21, 7.28 37.21, 4.6 33.79 C1.91 30.38, -0.13 25.19, 0.05 20.68 C0.22 16.18, 2.5 10.22, 5.63 6.76 C8.76 3.31, 16.62 0.96, 18.84 -0.04 C21.06 -1.05, 18.91 0.28, 18.94 0.74 M26.2 0.73 C30.3 1.45, 34.83 5.5, 37.46 8.97 C40.09 12.45, 42.11 17.28, 41.97 21.55 C41.83 25.82, 39.71 31.24, 36.62 34.6 C33.52 37.96, 27.91 41.01, 23.39 41.71 C18.88 42.42, 13.3 41.28, 9.54 38.84 C5.77 36.39, 2.19 31.46, 0.81 27.04 C-0.56 22.62, -0.58 16.34, 1.28 12.33 C3.15 8.31, 8.05 4.88, 11.98 2.96 C15.92 1.05, 22.65 1.24, 24.91 0.85 C27.17 0.47, 25.54 0.34, 25.55 0.67" stroke="#1e1e1e" stroke-width="2" fill="none"></path></g><g stroke-linecap="round" transform="translate(50 74.75439375616679) rotate(0 21 21)"><path d="M17.58 0.68 C21.78 -0.22, 28.53 0.91, 32.41 3.14 C36.3 5.36, 39.49 9.71, 40.89 14.01 C42.29 18.32, 42.49 24.78, 40.81 28.98 C39.13 33.17, 34.85 37.05, 30.82 39.19 C26.79 41.34, 20.97 42.82, 16.63 41.86 C12.29 40.91, 7.58 37.01, 4.8 33.45 C2.03 29.89, -0.06 24.94, -0.02 20.52 C0.03 16.1, 2 10.33, 5.08 6.95 C8.15 3.58, 16.02 1.37, 18.43 0.26 C20.83 -0.85, 19.37 -0.08, 19.51 0.3 M17.04 0.36 C21.32 -0.48, 28.32 1.25, 32.33 3.48 C36.33 5.71, 39.59 9.73, 41.06 13.75 C42.53 17.76, 42.68 23.23, 41.13 27.58 C39.58 31.92, 35.64 37.51, 31.76 39.82 C27.87 42.14, 22.21 42.47, 17.82 41.45 C13.43 40.44, 8.37 37.26, 5.4 33.74 C2.43 30.22, 0.16 24.79, 0.02 20.32 C-0.13 15.85, 1.55 10.24, 4.51 6.93 C7.48 3.62, 15.56 1.5, 17.81 0.44 C20.06 -0.62, 17.93 0.22, 18.04 0.58" stroke="none" stroke-width="0" fill="#ffffff"></path><path d="M21.9 0.26 C26.16 0.26, 31.66 2.47, 34.96 5.48 C38.25 8.49, 40.98 13.83, 41.66 18.33 C42.34 22.83, 41.47 28.69, 39.04 32.46 C36.61 36.23, 31.52 39.73, 27.08 40.95 C22.63 42.18, 16.47 41.51, 12.36 39.8 C8.25 38.09, 4.32 34.62, 2.4 30.67 C0.49 26.72, -0.08 20.51, 0.89 16.11 C1.86 11.71, 4.49 6.91, 8.22 4.27 C11.96 1.63, 20.76 0.82, 23.31 0.28 C25.87 -0.26, 23.71 0.66, 23.54 1.03 M20.8 0.54 C25.03 0.26, 31.41 2.75, 34.82 5.48 C38.23 8.21, 40.45 12.68, 41.25 16.94 C42.06 21.2, 41.82 27.21, 39.63 31.05 C37.44 34.89, 32.5 38.47, 28.11 39.99 C23.71 41.51, 17.57 41.66, 13.27 40.15 C8.97 38.64, 4.57 34.82, 2.32 30.93 C0.07 27.05, -1.03 21.13, -0.22 16.85 C0.58 12.58, 3.66 8.18, 7.14 5.27 C10.62 2.36, 18.28 0.29, 20.65 -0.62 C23.03 -1.53, 21.43 -0.63, 21.4 -0.18" stroke="#1e1e1e" stroke-width="2" fill="none"></path></g><g stroke-linecap="round"><g transform="translate(220 56.75439375616679) rotate(0 20.11363636363643 28.750000000000057)"><path d="M0 0 C8.18 13.74, 19.01 26.48, 40.23 57.5 M0 0 C12.19 19.1, 25.28 37.01, 40.23 57.5" stroke="#e03131" stroke-width="2" fill="none"></path></g></g><mask></mask><g stroke-linecap="round" transform="translate(340 62.75439375616679) rotate(0 21.5 21.5)"><path d="M4.02 8.79 C4.02 8.79, 4.02 8.79, 4.02 8.79 M4.02 8.79 C4.02 8.79, 4.02 8.79, 4.02 8.79 M0.87 24.61 C6.57 16.65, 12.93 9.71, 20.55 1.97 M0.87 24.61 C5.67 19.46, 10.4 13.98, 20.55 1.97 M4.94 32.12 C12.58 24.05, 20.44 15.29, 30.53 2.69 M4.94 32.12 C12.44 24.13, 18.83 15.46, 30.53 2.69 M10.32 38.13 C16.22 30.44, 24.14 22.98, 36.57 7.94 M10.32 38.13 C16.19 31.3, 21.17 24.78, 36.57 7.94 M17.67 41.86 C27.39 31.78, 36.92 21.48, 41.29 14.69 M17.67 41.86 C25.62 31.7, 34.57 22.77, 41.29 14.69 M28.96 41.07 C31.42 37.75, 36.37 34.08, 42.74 25.23 M28.96 41.07 C33.72 35.58, 38.27 30.12, 42.74 25.23 M5.78 36.03 C5.78 36.03, 5.78 36.03, 5.78 36.03 M5.78 36.03 C5.78 36.03, 5.78 36.03, 5.78 36.03 M24.61 41.8 C15.61 35.14, 7.12 27.95, 1.22 21.47 M24.61 41.8 C16.88 35.75, 9.81 28.95, 1.22 21.47 M33.63 39.05 C23.05 29.47, 11.97 19.82, 3.45 12.8 M33.63 39.05 C24.38 30.78, 14.08 21.77, 3.45 12.8 M38.88 33.01 C29.25 25.02, 20.59 16.64, 7.94 6.11 M38.88 33.01 C28.8 24.32, 18.92 16.51, 7.94 6.11 M42.62 25.66 C34.05 18.81, 25.63 9.51, 14.7 1.38 M42.62 25.66 C32.11 16.31, 21.78 7.37, 14.7 1.38 M41.83 14.37 C37.59 10.75, 32.63 5.56, 27.49 1.91 M41.83 14.37 C38.26 10.9, 34.26 7.82, 27.49 1.91" stroke="#a5d8ff" stroke-width="1" fill="none"></path><path d="M16.39 0.77 C20.53 -0.43, 26.91 0.42, 31 2.47 C35.1 4.52, 39.04 8.84, 40.95 13.08 C42.87 17.32, 43.82 23.47, 42.49 27.92 C41.17 32.36, 36.92 37.25, 33.03 39.75 C29.14 42.24, 23.64 43.49, 19.14 42.9 C14.64 42.32, 9.18 39.59, 6.02 36.24 C2.87 32.89, 0.54 27.39, 0.22 22.8 C-0.1 18.21, 1.29 12.51, 4.1 8.7 C6.91 4.9, 14.85 1.26, 17.08 -0.02 C19.32 -1.31, 17.32 0.56, 17.48 0.98 M18.3 0.16 C22.76 -0.73, 29.86 1.01, 33.89 3.59 C37.91 6.18, 41.25 11.21, 42.47 15.66 C43.7 20.11, 43.04 26.14, 41.25 30.29 C39.46 34.44, 35.75 38.41, 31.74 40.55 C27.74 42.69, 21.71 44.26, 17.24 43.14 C12.78 42.02, 7.76 37.49, 4.95 33.81 C2.14 30.12, 0.21 25.52, 0.38 21.01 C0.55 16.5, 2.83 10.3, 5.97 6.75 C9.11 3.21, 16.97 0.68, 19.23 -0.24 C21.5 -1.16, 19.66 0.69, 19.55 1.23" stroke="#1971c2" stroke-width="2" fill="none"></path></g><g stroke-linecap="round"><g transform="translate(383 121.75439375616668) rotate(0 0 -21)"><path d="M0 0 C-0.76 -14.86, 0.73 -28.5, 0 -42 M0 0 C0.36 -12.57, 0.16 -25.57, 0 -42" stroke="#1971c2" stroke-width="2" fill="none"></path></g></g><mask></mask><g stroke-linecap="round"><g transform="translate(340 81.75439375616679) rotate(0 0 21)"><path d="M0 0 C-0.92 11.71, -0.75 22.98, 0 42 M0 0 C-0.39 13.04, -0.5 27, 0 42" stroke="#1971c2" stroke-width="2" fill="none"></path></g></g><mask></mask><g stroke-linecap="round"><g transform="translate(287.94866743283455 57.83372934259194) rotate(0 9.108786699505742 30.009746961668213)" fill-rule="evenodd"><path d="M-11.35 6.03 C-11.35 6.03, -11.35 6.03, -11.35 6.03 M-11.35 6.03 C-11.35 6.03, -11.35 6.03, -11.35 6.03 M-14.89 16.2 C-11.69 8.59, -7 3.79, -1.77 1.11 M-14.89 16.2 C-10.48 11.92, -6.49 7.63, -1.77 1.11 M-16.47 24.11 C-8.56 14.61, -0.13 7.08, 4.53 -0.04 M-16.47 24.11 C-12.39 18.02, -6.4 13.07, 4.53 -0.04 M-18.7 32.77 C-12.4 21.69, -1.88 14.65, 9.51 0.32 M-18.7 32.77 C-9.74 23.77, -2.54 12.81, 9.51 0.32 M-20.27 40.68 C-7.68 25.22, 4.74 10.77, 13.84 1.43 M-20.27 40.68 C-8.78 27.76, 3.67 12.86, 13.84 1.43 M-21.19 47.83 C-6.67 32.56, 3.42 20.84, 16.86 4.06 M-21.19 47.83 C-12.3 38.92, -3.92 30.02, 16.86 4.06 M-20.14 52.72 C-10.64 43.78, -1.12 32.18, 19.23 7.44 M-20.14 52.72 C-5.5 35.99, 10.57 18.41, 19.23 7.44 M-17.12 55.34 C-6.09 43.32, 6.11 28.79, 21.59 10.82 M-17.12 55.34 C-3.64 39.8, 9.26 24.71, 21.59 10.82 M-13.44 57.21 C2.29 39.75, 14.94 25.4, 23.95 14.19 M-13.44 57.21 C0.68 40.68, 17.47 23.57, 23.95 14.19 M-9.11 58.33 C1.61 45.92, 14.65 29.77, 25.66 18.33 M-9.11 58.33 C0.32 47.29, 8.15 38.72, 25.66 18.33 M-4.13 58.69 C5.09 49.94, 12.75 40.95, 28.02 21.71 M-4.13 58.69 C6.69 46.16, 16.27 35.83, 28.02 21.71 M0.2 59.8 C11.17 50.68, 21.03 37.59, 30.38 25.09 M0.2 59.8 C9.71 46.84, 20.78 35.18, 30.38 25.09 M5.19 60.16 C15.44 49.17, 24.79 39.81, 32.09 29.22 M5.19 60.16 C14.65 47.63, 25.18 36.76, 32.09 29.22 M10.83 59.77 C20.72 51.69, 29.21 40.07, 34.45 32.6 M10.83 59.77 C18.71 51.64, 26.57 41.53, 34.45 32.6 M16.48 59.37 C23.61 51.39, 28.12 43.67, 36.82 35.98 M16.48 59.37 C22.42 51.93, 28.81 45.68, 36.82 35.98 M24.09 56.72 C30.99 52.29, 35.28 41.9, 38.52 40.11 M24.09 56.72 C27.7 51.84, 31.45 47.69, 38.52 40.11 M34.32 51.04 C34.71 49.87, 36.82 49.31, 38.92 45.75 M34.32 51.04 C36.02 49.45, 37.16 48.16, 38.92 45.75" stroke="#b2f2bb" stroke-width="0.5" fill="none"></path><path d="M-0.17 -0.36 C-1.96 0.86, -7.61 2.22, -10.56 6.25 C-13.52 10.29, -16.31 15.98, -17.88 23.84 C-19.46 31.7, -24.97 47.34, -20.04 53.42 C-15.11 59.5, 2.1 61.37, 11.69 60.31 C21.28 59.24, 34.97 53.42, 37.52 47.03 C40.07 40.65, 30.93 29.68, 27 21.99 C23.07 14.29, 18.35 4.4, 13.94 0.88 C9.54 -2.65, 3.09 0.82, 0.59 0.85 M-1.72 -1.6 C-3.6 -0.08, -8.69 3.86, -10.96 7.75 C-13.24 11.64, -13.9 14.5, -15.37 21.74 C-16.83 28.98, -24.11 44.66, -19.76 51.18 C-15.4 57.7, 1.05 61.67, 10.76 60.85 C20.48 60.03, 35.76 52.93, 38.52 46.24 C41.28 39.55, 31.6 28.4, 27.32 20.73 C23.03 13.06, 17.5 3.68, 12.82 0.21 C8.13 -3.26, 1.5 -0.25, -0.77 -0.09" stroke="#2f9e44" stroke-width="1" fill="none"></path></g></g><mask></mask><g stroke-linecap="round"><g transform="translate(320.3593073593073 43.09927110104434) rotate(0 54.09090909090912 -16.81818181818187)"><path d="M0.19 -0.86 C8.81 -6.24, 32.97 -32.72, 51 -33.1 C69.04 -33.47, 98.74 -8.15, 108.37 -3.11" stroke="#2f9e44" stroke-width="2.5" fill="none" stroke-dasharray="8 10"></path></g><g transform="translate(320.3593073593073 43.09927110104434) rotate(0 54.09090909090912 -16.81818181818187)"><path d="M79.21 -10.13 C84.74 -9.84, 94.11 -6.47, 108.37 -3.11" stroke="#2f9e44" stroke-width="2.5" fill="none"></path></g><g transform="translate(320.3593073593073 43.09927110104434) rotate(0 54.09090909090912 -16.81818181818187)"><path d="M90.54 -27.24 C93.23 -22.81, 99.86 -15.32, 108.37 -3.11" stroke="#2f9e44" stroke-width="2.5" fill="none"></path></g></g><mask></mask></svg>