<svg version="1.1" xmlns="http://www.w3.org/2000/svg" viewBox="0 0 850.6580978601306 785.631582550262" width="1701.3161957202612" height="1571.263165100524">
  <!-- svg-source:excalidraw -->
  
  <defs>
    <style class="style-fonts">
      @font-face {
        font-family: "Virgil";
        src: url("https://excalidraw.com/Virgil.woff2");
      }
      @font-face {
        font-family: "Cascadia";
        src: url("https://excalidraw.com/Cascadia.woff2");
      }
    </style>
    
  </defs>
  <rect x="0" y="0" width="850.6580978601306" height="785.631582550262" fill="#ffffff"></rect><g stroke-linecap="round"><g transform="translate(10.775634765625 495.2793485884491) rotate(0 85.7059326171875 92.68556213378908)" fill-rule="evenodd"><path d="M0 0 C0 0, 0 0, 0 0 M0 0 C0 0, 0 0, 0 0 M0.13 12.04 C3.44 8.24, 6.75 4.43, 15.22 -5.32 M0.13 12.04 C3.33 8.36, 6.54 4.68, 15.22 -5.32 M-0.39 24.84 C7.57 15.68, 15.52 6.53, 22.57 -1.58 M-0.39 24.84 C7.27 16.03, 14.93 7.22, 22.57 -1.58 M-0.26 36.88 C7.4 28.07, 15.05 19.26, 22.71 10.46 M-0.26 36.88 C7.11 28.4, 14.47 19.93, 22.71 10.46 M-0.12 48.92 C8.47 39.03, 17.07 29.14, 22.84 22.5 M-0.12 48.92 C5.47 42.48, 11.07 36.05, 22.84 22.5 M-0.65 61.71 C8.06 51.69, 16.78 41.67, 22.97 34.54 M-0.65 61.71 C4.38 55.93, 9.4 50.15, 22.97 34.54 M-0.51 73.75 C4.33 68.19, 9.17 62.62, 23.1 46.59 M-0.51 73.75 C7.63 64.38, 15.78 55.01, 23.1 46.59 M-0.38 85.8 C7.75 76.44, 15.88 67.09, 23.24 58.63 M-0.38 85.8 C5.03 79.57, 10.44 73.35, 23.24 58.63 M-0.25 97.84 C6.98 89.52, 14.21 81.21, 23.37 70.67 M-0.25 97.84 C6.64 89.91, 13.53 81.99, 23.37 70.67 M-0.77 110.63 C5.34 103.6, 11.46 96.57, 23.5 82.71 M-0.77 110.63 C5.59 103.31, 11.96 95.99, 23.5 82.71 M-0.64 122.67 C5.9 115.15, 12.44 107.63, 23.64 94.75 M-0.64 122.67 C7.6 113.2, 15.84 103.72, 23.64 94.75 M-0.5 134.71 C8.17 124.73, 16.85 114.75, 23.77 106.79 M-0.5 134.71 C5.72 127.56, 11.93 120.4, 23.77 106.79 M0.29 146 C7.6 137.58, 14.92 129.17, 23.9 118.83 M0.29 146 C6.09 139.32, 11.89 132.65, 23.9 118.83 M8.95 148.23 C12.69 143.93, 16.43 139.63, 21.41 133.89 M8.95 148.23 C12.77 143.83, 16.59 139.43, 21.41 133.89 M17.61 150.46 C22.17 145.22, 26.72 139.98, 30.07 136.12 M17.61 150.46 C22.21 145.16, 26.82 139.86, 30.07 136.12 M25.62 153.44 C30.76 147.52, 35.91 141.6, 38.74 138.35 M25.62 153.44 C30.35 147.99, 35.09 142.55, 38.74 138.35 M34.28 155.67 C39.51 149.66, 44.74 143.64, 47.4 140.58 M34.28 155.67 C39.15 150.07, 44.02 144.47, 47.4 140.58 M42.28 158.66 C46.48 153.83, 50.68 148.99, 55.4 143.56 M42.28 158.66 C46.45 153.86, 50.62 149.07, 55.4 143.56 M50.94 160.89 C54.8 156.45, 58.66 152.01, 64.07 145.79 M50.94 160.89 C55.05 156.17, 59.15 151.45, 64.07 145.79 M59.61 163.12 C62.8 159.45, 65.99 155.78, 72.73 148.02 M59.61 163.12 C63.9 158.18, 68.19 153.24, 72.73 148.02 M67.61 166.1 C72.58 160.39, 77.55 154.67, 81.39 150.25 M67.61 166.1 C72.54 160.43, 77.47 154.76, 81.39 150.25 M76.27 168.33 C80.33 163.67, 84.38 159.01, 90.05 152.48 M76.27 168.33 C80.29 163.71, 84.3 159.09, 90.05 152.48 M84.28 171.31 C87.45 167.66, 90.63 164.01, 98.06 155.47 M84.28 171.31 C88.02 167.01, 91.76 162.71, 98.06 155.47 M92.94 173.54 C96.79 169.12, 100.64 164.69, 106.72 157.7 M92.94 173.54 C97.95 167.78, 102.96 162.02, 106.72 157.7 M100.95 176.53 C106.13 170.57, 111.31 164.61, 115.38 159.93 M100.95 176.53 C105.58 171.2, 110.21 165.88, 115.38 159.93 M109.61 178.76 C115.08 172.47, 120.54 166.18, 124.04 162.15 M109.61 178.76 C113.21 174.62, 116.8 170.49, 124.04 162.15 M118.27 180.99 C122.75 175.84, 127.23 170.68, 132.05 165.14 M118.27 180.99 C123.42 175.07, 128.57 169.14, 132.05 165.14 M126.28 183.97 C129.82 179.9, 133.36 175.83, 140.71 167.37 M126.28 183.97 C130.67 178.92, 135.06 173.87, 140.71 167.37 M134.94 186.2 C139.73 180.7, 144.51 175.19, 149.37 169.6 M134.94 186.2 C137.83 182.88, 140.72 179.55, 149.37 169.6 M142.95 189.19 C147.56 183.88, 152.17 178.57, 158.04 171.83 M142.95 189.19 C146.52 185.07, 150.1 180.96, 158.04 171.83 M151.61 191.42 C156 186.37, 160.38 181.32, 166.04 174.81 M151.61 191.42 C156.97 185.25, 162.33 179.08, 166.04 174.81" stroke="#a5d8ff" stroke-width="1" fill="none"></path><path d="M0 0 C-0.21 38.64, -0.41 77.28, -0.78 144.55 M0 0 C-0.23 42.98, -0.46 85.97, -0.78 144.55 M-0.78 144.55 C33.44 154.9, 67.65 165.25, 154.17 191.42 M-0.78 144.55 C57.3 162.12, 115.38 179.69, 154.17 191.42 M154.17 191.42 C159.87 186.18, 165.57 180.93, 172.19 174.85 M154.17 191.42 C160.49 185.61, 166.81 179.8, 172.19 174.85 M172.19 174.85 C118.76 159.78, 65.33 144.71, 19.46 131.78 M172.19 174.85 C121.59 160.58, 70.99 146.31, 19.46 131.78 M19.46 131.78 C19 84.1, 18.54 36.43, 18.13 -6.05 M19.46 131.78 C19.01 85.03, 18.56 38.29, 18.13 -6.05 M18.13 -6.05 C13.71 -4.58, 9.29 -3.1, 0 0 M18.13 -6.05 C13.09 -4.37, 8.06 -2.69, 0 0 M0 0 C0 0, 0 0, 0 0 M0 0 C0 0, 0 0, 0 0" stroke="#1971c2" stroke-width="2" fill="none"></path></g></g><mask></mask><g stroke-linecap="round"><g transform="translate(12.933837890625 638.9673368696992) rotate(0 8.720458984375 -6.05389404296875)"><path d="M0 0 C3.51 -2.44, 7.02 -4.87, 17.44 -12.11 M0 0 C6.11 -4.24, 12.23 -8.49, 17.44 -12.11" stroke="#1971c2" stroke-width="2" fill="none"></path></g></g><mask></mask><g stroke-linecap="round"><g transform="translate(516.2325514283305 508.1565193090473) rotate(0 48.979400634765625 66.44097900390626)"><path d="M0 0 C-0.03 37.23, -0.06 74.46, -0.1 132.03 M0 0 C-0.03 42.07, -0.07 84.14, -0.1 132.03 M-0.1 132.03 C25.15 132.25, 50.4 132.47, 98.06 132.88 M-0.1 132.03 C30.86 132.3, 61.83 132.57, 98.06 132.88" stroke="#1971c2" stroke-width="2" fill="none"></path></g></g><mask></mask><g stroke-linecap="round"><g transform="translate(597.2049635377055 634.2847541723286) rotate(0 107.8941650390625 -59.718597412109375)"><path d="M0 0 C13.22 -28.05, 26.43 -56.11, 56.24 -119.38 M0 0 C13.67 -29.02, 27.34 -58.03, 56.24 -119.38 M56.24 -119.38 C91.82 -119.4, 127.4 -119.41, 215.79 -119.44 M56.24 -119.38 C114.05 -119.4, 171.87 -119.42, 215.79 -119.44" stroke="#2f9e44" stroke-width="2" fill="none"></path></g></g><mask></mask><g stroke-linecap="round" transform="translate(37.69085995034288 122.85037240451237) rotate(0 380.1856090873572 72.77261352539062)"><path d="M0 0 C0 0, 0 0, 0 0 M0 0 C0 0, 0 0, 0 0 M0.13 12.04 C3.04 8.69, 5.96 5.34, 10.63 -0.03 M0.13 12.04 C2.4 9.43, 4.67 6.82, 10.63 -0.03 M0.27 24.08 C7.01 16.32, 13.76 8.56, 21.26 -0.07 M0.27 24.08 C7.1 16.22, 13.94 8.35, 21.26 -0.07 M-0.26 36.88 C8.19 27.16, 16.65 17.43, 31.89 -0.1 M-0.26 36.88 C7.99 27.39, 16.23 17.91, 31.89 -0.1 M-0.12 48.92 C15.68 30.74, 31.48 12.56, 42.52 -0.14 M-0.12 48.92 C8.72 38.74, 17.57 28.57, 42.52 -0.14 M0.01 60.96 C19.21 38.87, 38.42 16.78, 53.15 -0.17 M0.01 60.96 C19.91 38.06, 39.82 15.16, 53.15 -0.17 M0.14 73 C18.29 52.13, 36.43 31.25, 63.78 -0.21 M0.14 73 C20.27 49.84, 40.4 26.68, 63.78 -0.21 M0.28 85.04 C23.16 58.71, 46.05 32.38, 74.41 -0.24 M0.28 85.04 C16.54 66.33, 32.81 47.62, 74.41 -0.24 M-0.25 97.84 C16.85 78.17, 33.95 58.5, 85.04 -0.28 M-0.25 97.84 C22.3 71.9, 44.85 45.96, 85.04 -0.28 M-0.11 109.88 C30.01 75.22, 60.14 40.57, 95.67 -0.31 M-0.11 109.88 C27.79 77.78, 55.69 45.69, 95.67 -0.31 M0.02 121.92 C29.27 88.27, 58.52 54.62, 106.3 -0.34 M0.02 121.92 C38.83 77.27, 77.65 32.62, 106.3 -0.34 M0.15 133.96 C42.14 85.66, 84.12 37.37, 116.27 0.38 M0.15 133.96 C28.26 101.63, 56.36 69.3, 116.27 0.38 M0.29 146 C49.85 88.98, 99.41 31.97, 126.91 0.34 M0.29 146 C42.57 97.36, 84.85 48.72, 126.91 0.34 M10.92 145.97 C49.68 101.37, 88.45 56.78, 137.54 0.31 M10.92 145.97 C58.41 91.33, 105.9 36.7, 137.54 0.31 M21.55 145.93 C53.79 108.83, 86.04 71.73, 148.17 0.27 M21.55 145.93 C70.58 89.52, 119.62 33.11, 148.17 0.27 M32.18 145.9 C80.05 90.82, 127.93 35.74, 158.8 0.24 M32.18 145.9 C75.92 95.57, 119.66 45.25, 158.8 0.24 M42.81 145.86 C80.03 103.04, 117.25 60.22, 169.43 0.2 M42.81 145.86 C86.3 95.82, 129.8 45.78, 169.43 0.2 M53.44 145.83 C88.97 104.95, 124.5 64.08, 180.06 0.17 M53.44 145.83 C86.33 107.99, 119.22 70.15, 180.06 0.17 M64.07 145.79 C109.86 93.11, 155.66 40.43, 190.69 0.13 M64.07 145.79 C104.91 98.81, 145.76 51.82, 190.69 0.13 M74.7 145.76 C111.45 103.47, 148.21 61.19, 201.32 0.1 M74.7 145.76 C122.32 90.98, 169.94 36.19, 201.32 0.1 M85.33 145.72 C114.91 111.69, 144.5 77.65, 211.95 0.06 M85.33 145.72 C116.45 109.92, 147.57 74.12, 211.95 0.06 M95.96 145.69 C141.19 93.65, 186.42 41.62, 222.58 0.03 M95.96 145.69 C121.81 115.95, 147.66 86.22, 222.58 0.03 M106.59 145.65 C145.74 100.61, 184.9 55.57, 233.21 0 M106.59 145.65 C149.15 96.69, 191.72 47.72, 233.21 0 M117.22 145.62 C143.17 115.77, 169.12 85.91, 243.84 -0.04 M117.22 145.62 C143.2 115.73, 169.18 85.85, 243.84 -0.04 M127.85 145.59 C167.24 100.27, 206.64 54.95, 254.47 -0.07 M127.85 145.59 C155.48 113.8, 183.12 82, 254.47 -0.07 M138.48 145.55 C167.65 112, 196.81 78.44, 265.1 -0.11 M138.48 145.55 C175.45 103.02, 212.42 60.49, 265.1 -0.11 M149.11 145.52 C197.92 89.37, 246.73 33.22, 275.73 -0.14 M149.11 145.52 C176.72 113.75, 204.34 81.98, 275.73 -0.14 M159.08 146.24 C185.03 116.39, 210.98 86.54, 286.36 -0.18 M159.08 146.24 C200.95 98.07, 242.83 49.9, 286.36 -0.18 M169.71 146.2 C195.41 116.64, 221.11 87.07, 296.99 -0.21 M169.71 146.2 C203.24 107.63, 236.76 69.07, 296.99 -0.21 M180.34 146.17 C227.35 92.1, 274.35 38.02, 307.62 -0.25 M180.34 146.17 C209.88 112.18, 239.42 78.2, 307.62 -0.25 M190.97 146.13 C223.23 109.02, 255.5 71.91, 318.25 -0.28 M190.97 146.13 C239.77 90, 288.57 33.86, 318.25 -0.28 M201.6 146.1 C245.38 95.74, 289.15 45.39, 328.88 -0.31 M201.6 146.1 C235.82 106.74, 270.04 67.37, 328.88 -0.31 M212.23 146.06 C257.62 93.85, 303.02 41.63, 339.51 -0.35 M212.23 146.06 C238.81 115.49, 265.39 84.91, 339.51 -0.35 M222.86 146.03 C250.52 114.21, 278.18 82.4, 349.48 0.37 M222.86 146.03 C268.22 93.85, 313.59 41.66, 349.48 0.37 M233.49 146 C277.98 94.82, 322.46 43.65, 360.11 0.34 M233.49 146 C267.94 106.36, 302.4 66.73, 360.11 0.34 M244.12 145.96 C276.66 108.53, 309.19 71.11, 370.74 0.3 M244.12 145.96 C291.1 91.92, 338.08 37.88, 370.74 0.3 M254.75 145.93 C280.19 116.67, 305.62 87.41, 381.37 0.27 M254.75 145.93 C293.63 101.2, 332.51 56.47, 381.37 0.27 M265.38 145.89 C315.66 88.06, 365.93 30.22, 392 0.23 M265.38 145.89 C294.41 112.5, 323.44 79.1, 392 0.23 M276.01 145.86 C313 103.31, 349.98 60.76, 402.63 0.2 M276.01 145.86 C320.23 94.99, 364.45 44.12, 402.63 0.2 M286.64 145.82 C330.93 94.88, 375.21 43.93, 413.26 0.16 M286.64 145.82 C312.82 115.7, 339.01 85.58, 413.26 0.16 M297.27 145.79 C339.72 96.96, 382.16 48.13, 423.89 0.13 M297.27 145.79 C327.11 111.47, 356.94 77.15, 423.89 0.13 M307.9 145.75 C345.83 102.13, 383.75 58.5, 434.52 0.1 M307.9 145.75 C336.88 112.42, 365.86 79.08, 434.52 0.1 M318.53 145.72 C351.95 107.28, 385.36 68.84, 445.15 0.06 M318.53 145.72 C357.13 101.32, 395.73 56.92, 445.15 0.06 M329.16 145.69 C355.02 115.94, 380.87 86.2, 455.78 0.03 M329.16 145.69 C376.32 91.43, 423.48 37.18, 455.78 0.03 M339.79 145.65 C382.24 96.82, 424.69 47.99, 466.41 -0.01 M339.79 145.65 C377.4 102.38, 415.02 59.12, 466.41 -0.01 M350.42 145.62 C387.79 102.63, 425.17 59.63, 477.04 -0.04 M350.42 145.62 C396.76 92.32, 443.09 39.02, 477.04 -0.04 M361.05 145.58 C390.15 112.11, 419.24 78.64, 487.67 -0.08 M361.05 145.58 C393.21 108.59, 425.37 71.6, 487.67 -0.08 M371.68 145.55 C419.43 90.62, 467.18 35.69, 498.3 -0.11 M371.68 145.55 C408.31 103.41, 444.95 61.27, 498.3 -0.11 M382.31 145.51 C426.82 94.31, 471.33 43.11, 508.93 -0.15 M382.31 145.51 C410.03 113.63, 437.74 81.75, 508.93 -0.15 M392.29 146.23 C434.07 98.17, 475.85 50.1, 519.56 -0.18 M392.29 146.23 C427.18 106.09, 462.08 65.95, 519.56 -0.18 M402.92 146.2 C444.65 98.19, 486.38 50.19, 530.19 -0.22 M402.92 146.2 C445.77 96.91, 488.61 47.61, 530.19 -0.22 M413.55 146.16 C439.04 116.83, 464.54 87.5, 540.82 -0.25 M413.55 146.16 C439.46 116.35, 465.38 86.53, 540.82 -0.25 M424.18 146.13 C463.59 100.79, 503.01 55.45, 551.45 -0.28 M424.18 146.13 C469.19 94.34, 514.21 42.56, 551.45 -0.28 M434.81 146.09 C475.32 99.49, 515.83 52.89, 562.08 -0.32 M434.81 146.09 C461.84 115, 488.87 83.9, 562.08 -0.32 M445.44 146.06 C479.96 106.35, 514.48 66.64, 572.71 -0.35 M445.44 146.06 C485.9 99.51, 526.37 52.96, 572.71 -0.35 M456.07 146.03 C504.27 90.58, 552.47 35.13, 582.69 0.37 M456.07 146.03 C505.03 89.7, 554 33.37, 582.69 0.37 M466.7 145.99 C505.98 100.8, 545.27 55.61, 593.32 0.33 M466.7 145.99 C502.02 105.36, 537.35 64.72, 593.32 0.33 M477.33 145.96 C522.84 93.6, 568.36 41.24, 603.95 0.3 M477.33 145.96 C510.81 107.44, 544.29 68.93, 603.95 0.3 M487.96 145.92 C532.01 95.24, 576.07 44.56, 614.58 0.26 M487.96 145.92 C537.07 89.42, 586.18 32.93, 614.58 0.26 M498.59 145.89 C523.91 116.76, 549.24 87.62, 625.21 0.23 M498.59 145.89 C540.99 97.11, 583.39 48.33, 625.21 0.23 M509.22 145.85 C538.2 112.51, 567.18 79.18, 635.84 0.19 M509.22 145.85 C559.52 87.98, 609.83 30.11, 635.84 0.19 M519.85 145.82 C560.51 99.04, 601.18 52.26, 646.47 0.16 M519.85 145.82 C562.77 96.44, 605.7 47.06, 646.47 0.16 M530.48 145.78 C558.47 113.58, 586.47 81.37, 657.1 0.13 M530.48 145.78 C576.25 93.13, 622.02 40.48, 657.1 0.13 M541.11 145.75 C581.01 99.85, 620.92 53.94, 667.73 0.09 M541.11 145.75 C587.88 91.95, 634.64 38.15, 667.73 0.09 M551.74 145.72 C591.76 99.67, 631.79 53.63, 678.36 0.06 M551.74 145.72 C594.31 96.75, 636.88 47.78, 678.36 0.06 M562.37 145.68 C593.73 109.6, 625.09 73.52, 688.99 0.02 M562.37 145.68 C609.21 91.79, 656.06 37.9, 688.99 0.02 M573 145.65 C614.63 97.75, 656.26 49.86, 699.62 -0.01 M573 145.65 C608.3 105.04, 643.6 64.43, 699.62 -0.01 M583.63 145.61 C628.95 93.48, 674.27 41.34, 710.25 -0.05 M583.63 145.61 C613.57 111.17, 643.51 76.72, 710.25 -0.05 M594.26 145.58 C644.6 87.67, 694.93 29.77, 720.88 -0.08 M594.26 145.58 C638.35 94.86, 682.43 44.14, 720.88 -0.08 M604.89 145.54 C650.27 93.33, 695.66 41.12, 731.51 -0.12 M604.89 145.54 C644.91 99.5, 684.93 53.46, 731.51 -0.12 M615.52 145.51 C651.49 104.12, 687.47 62.74, 742.14 -0.15 M615.52 145.51 C641.46 115.67, 667.4 85.83, 742.14 -0.15 M625.49 146.23 C668.16 97.15, 710.82 48.07, 752.77 -0.19 M625.49 146.23 C664.63 101.2, 703.77 56.18, 752.77 -0.19 M636.12 146.19 C670.61 106.52, 705.09 66.86, 762.09 1.29 M636.12 146.19 C675.28 101.15, 714.43 56.11, 762.09 1.29 M646.75 146.16 C675.35 113.26, 703.95 80.36, 762.22 13.33 M646.75 146.16 C688.45 98.19, 730.15 50.22, 762.22 13.33 M657.38 146.13 C686.08 113.11, 714.78 80.09, 761.7 26.13 M657.38 146.13 C681.35 118.56, 705.31 90.99, 761.7 26.13 M668.01 146.09 C689.48 121.4, 710.94 96.71, 761.83 38.17 M668.01 146.09 C703.55 105.21, 739.08 64.34, 761.83 38.17 M678.64 146.06 C705.33 115.35, 732.03 84.65, 761.96 50.21 M678.64 146.06 C705.86 114.74, 733.08 83.43, 761.96 50.21 M689.27 146.02 C710.01 122.16, 730.76 98.3, 762.1 62.25 M689.27 146.02 C712.13 119.73, 734.99 93.43, 762.1 62.25 M699.9 145.99 C716.42 126.99, 732.93 108, 762.23 74.29 M699.9 145.99 C716.63 126.74, 733.36 107.5, 762.23 74.29 M710.53 145.95 C730.77 122.67, 751.02 99.38, 761.71 87.09 M710.53 145.95 C724.43 129.97, 738.32 113.99, 761.71 87.09 M721.16 145.92 C732.87 132.45, 744.58 118.98, 761.84 99.13 M721.16 145.92 C734.31 130.79, 747.46 115.67, 761.84 99.13 M731.79 145.88 C738.26 138.45, 744.72 131.01, 761.97 111.17 M731.79 145.88 C738.08 138.66, 744.36 131.43, 761.97 111.17 M742.42 145.85 C750.13 136.98, 757.84 128.12, 762.11 123.21 M742.42 145.85 C747.56 139.94, 752.7 134.03, 762.11 123.21 M753.05 145.81 C756.43 141.93, 759.8 138.05, 762.24 135.25 M753.05 145.81 C755.19 143.36, 757.32 140.91, 762.24 135.25" stroke="#ffec99" stroke-width="1" fill="none"></path><path d="M0 0 C202.47 0, 404.93 0, 760.37 0 M0 0 C263.12 0, 526.24 0, 760.37 0 M760.37 0 C760.37 39.03, 760.37 78.06, 760.37 145.55 M760.37 0 C760.37 33.81, 760.37 67.63, 760.37 145.55 M760.37 145.55 C459.33 145.55, 158.29 145.55, 0 145.55 M760.37 145.55 C529.92 145.55, 299.47 145.55, 0 145.55 M0 145.55 C0 110.3, 0 75.06, 0 0 M0 145.55 C0 93.63, 0 41.71, 0 0" stroke="#f08c00" stroke-width="2" fill="none"></path></g><g stroke-linecap="round"><g transform="translate(112.35835221569437 205.59413002391204) rotate(0 -5.1873210653718616 71.80927838687049)" fill-rule="evenodd"><path d="M0 0 C0 0, 0 0, 0 0 M0 0 C0 0, 0 0, 0 0 M0.13 12.04 C4.06 7.53, 7.98 3.02, 10.63 -0.03 M0.13 12.04 C2.65 9.15, 5.17 6.25, 10.63 -0.03 M0.27 24.08 C6.58 16.82, 12.89 9.56, 20.6 0.69 M0.27 24.08 C8.37 14.76, 16.47 5.44, 20.6 0.69 M0.4 36.12 C6.88 28.67, 13.35 21.22, 20.74 12.73 M0.4 36.12 C7.81 27.6, 15.21 19.08, 20.74 12.73 M0.53 48.16 C6.73 41.03, 12.93 33.9, 20.21 25.52 M0.53 48.16 C4.76 43.3, 8.98 38.44, 20.21 25.52 M0.01 60.96 C5.84 54.25, 11.67 47.55, 20.35 37.56 M0.01 60.96 C5.14 55.05, 10.28 49.15, 20.35 37.56 M0.14 73 C5.74 66.57, 11.33 60.13, 20.48 49.6 M0.14 73 C5.65 66.67, 11.16 60.33, 20.48 49.6 M0.28 85.04 C5.57 78.95, 10.87 72.85, 20.61 61.64 M0.28 85.04 C6.77 77.57, 13.27 70.09, 20.61 61.64 M3.69 93.31 C9.6 86.5, 15.52 79.7, 20.75 73.69 M3.69 93.31 C10 86.05, 16.32 78.78, 20.75 73.69 M-28.32 142.33 C-16.25 128.44, -4.18 114.56, 20.88 85.73 M-28.32 142.33 C-14.45 126.37, -0.57 110.4, 20.88 85.73 M-19.01 143.8 C-8.78 132.04, 1.45 120.28, 20.36 98.52 M-19.01 143.8 C-8.47 131.68, 2.07 119.56, 20.36 98.52 M-9.03 144.52 C-5.87 140.89, -2.72 137.26, -0.5 134.71 M-9.03 144.52 C-6.83 141.99, -4.62 139.45, -0.5 134.71" stroke="#a5d8ff" stroke-width="1" fill="none"></path><path d="M0 0 C0.08 18.77, 0.17 37.53, 0.4 90.47 M0 0 C0.09 20.81, 0.18 41.63, 0.4 90.47 M0.4 90.47 C-11.29 110.38, -22.99 130.29, -29.7 141.72 M0.4 90.47 C-10.66 109.3, -21.72 128.13, -29.7 141.72 M-29.7 141.72 C-22.72 142.49, -15.73 143.26, -7.22 144.2 M-29.7 141.72 C-22.5 142.51, -15.31 143.31, -7.22 144.2 M-7.22 144.2 C2.51 127.28, 12.23 110.35, 19.33 98.01 M-7.22 144.2 C1.48 129.07, 10.17 113.94, 19.33 98.01 M19.33 98.01 C19.06 64.16, 18.8 30.32, 18.55 -0.58 M19.33 98.01 C19.07 65.58, 18.82 33.15, 18.55 -0.58 M18.55 -0.58 C14.68 -0.46, 10.81 -0.34, 0 0 M18.55 -0.58 C14.3 -0.45, 10.04 -0.31, 0 0 M0 0 C0 0, 0 0, 0 0 M0 0 C0 0, 0 0, 0 0" stroke="#1971c2" stroke-width="2" fill="none"></path></g></g><mask></mask><g stroke-linecap="round"><g transform="translate(252.1679011957258 210.12670287104555) rotate(0 -5.1873210653718616 71.52350296549173)" fill-rule="evenodd"><path d="M0 0 C0 0, 0 0, 0 0 M0 0 C0 0, 0 0, 0 0 M0.13 12.04 C2.66 9.14, 5.18 6.23, 10.63 -0.03 M0.13 12.04 C4.02 7.57, 7.9 3.11, 10.63 -0.03 M0.27 24.08 C8.28 14.86, 16.3 5.64, 20.6 0.69 M0.27 24.08 C8.24 14.9, 16.22 5.73, 20.6 0.69 M0.4 36.12 C7.36 28.12, 14.31 20.12, 20.74 12.73 M0.4 36.12 C8.16 27.19, 15.92 18.27, 20.74 12.73 M0.53 48.16 C7.85 39.74, 15.17 31.32, 20.21 25.52 M0.53 48.16 C6.39 41.42, 12.25 34.68, 20.21 25.52 M0.01 60.96 C5.81 54.29, 11.61 47.62, 20.35 37.56 M0.01 60.96 C7.77 52.03, 15.53 43.11, 20.35 37.56 M0.14 73 C7.9 64.07, 15.66 55.15, 20.48 49.6 M0.14 73 C4.65 67.82, 9.15 62.64, 20.48 49.6 M0.28 85.04 C7.27 77, 14.26 68.95, 20.61 61.64 M0.28 85.04 C6.74 77.61, 13.2 70.17, 20.61 61.64 M3.69 93.31 C7.47 88.96, 11.25 84.61, 20.75 73.69 M3.69 93.31 C9.66 86.45, 15.62 79.58, 20.75 73.69 M-28.32 142.33 C-12.78 124.45, 2.77 106.57, 20.88 85.73 M-28.32 142.33 C-11.6 123.09, 5.13 103.85, 20.88 85.73 M-18.35 143.05 C-4.27 126.85, 9.82 110.64, 20.36 98.52 M-18.35 143.05 C-5.94 128.78, 6.46 114.51, 20.36 98.52 M-8.38 143.77 C-5.02 139.91, -1.66 136.04, 6.71 126.41 M-8.38 143.77 C-3.87 138.58, 0.64 133.39, 6.71 126.41" stroke="#a5d8ff" stroke-width="1" fill="none"></path><path d="M0 0 C0.11 25.56, 0.23 51.11, 0.4 90.47 M0 0 C0.12 27.31, 0.24 54.61, 0.4 90.47 M0.4 90.47 C-5.67 100.81, -11.75 111.15, -29.7 141.72 M0.4 90.47 C-6.64 102.46, -13.69 114.46, -29.7 141.72 M-29.7 141.72 C-19.08 142.47, -8.46 143.22, -2.65 143.63 M-29.7 141.72 C-21.35 142.31, -13 142.9, -2.65 143.63 M-2.65 143.63 C3.25 131.38, 9.15 119.13, 19.33 98.01 M-2.65 143.63 C6.08 125.51, 14.81 107.39, 19.33 98.01 M19.33 98.01 C19.11 70.26, 18.89 42.51, 18.55 -0.58 M19.33 98.01 C19.07 65.72, 18.82 33.42, 18.55 -0.58 M18.55 -0.58 C12.85 -0.4, 7.15 -0.22, 0 0 M18.55 -0.58 C12.07 -0.38, 5.59 -0.17, 0 0 M0 0 C0 0, 0 0, 0 0 M0 0 C0 0, 0 0, 0 0" stroke="#1971c2" stroke-width="2" fill="none"></path></g></g><mask></mask><g stroke-linecap="round"><g transform="translate(396.67373528877613 207.3559983233365) rotate(0 -5.1873210653718616 71.71401991307758)" fill-rule="evenodd"><path d="M0 0 C0 0, 0 0, 0 0 M0 0 C0 0, 0 0, 0 0 M0.13 12.04 C3.45 8.23, 6.76 4.42, 10.63 -0.03 M0.13 12.04 C3.5 8.16, 6.87 4.29, 10.63 -0.03 M0.27 24.08 C4.65 19.04, 9.04 13.99, 20.6 0.69 M0.27 24.08 C4.75 18.92, 9.24 13.76, 20.6 0.69 M0.4 36.12 C5.34 30.44, 10.28 24.76, 20.74 12.73 M0.4 36.12 C6.04 29.64, 11.68 23.15, 20.74 12.73 M0.53 48.16 C7.75 39.87, 14.96 31.57, 20.21 25.52 M0.53 48.16 C4.99 43.04, 9.44 37.91, 20.21 25.52 M0.01 60.96 C6.71 53.25, 13.42 45.54, 20.35 37.56 M0.01 60.96 C5.62 54.51, 11.22 48.06, 20.35 37.56 M0.14 73 C6.91 65.22, 13.67 57.44, 20.48 49.6 M0.14 73 C5.64 66.67, 11.14 60.35, 20.48 49.6 M0.28 85.04 C4.71 79.94, 9.15 74.83, 20.61 61.64 M0.28 85.04 C7.58 76.64, 14.88 68.24, 20.61 61.64 M3.69 93.31 C9.75 86.34, 15.81 79.36, 20.75 73.69 M3.69 93.31 C9.81 86.27, 15.92 79.24, 20.75 73.69 M-28.32 142.33 C-17.3 129.64, -6.27 116.96, 20.88 85.73 M-28.32 142.33 C-17.45 129.82, -6.57 117.3, 20.88 85.73 M-19.01 143.8 C-7.21 130.24, 4.58 116.67, 20.36 98.52 M-19.01 143.8 C-3.33 125.77, 12.35 107.74, 20.36 98.52 M-9.03 144.52 C-6.39 141.49, -3.75 138.45, 2.12 131.69 M-9.03 144.52 C-5.6 140.58, -2.17 136.63, 2.12 131.69" stroke="#a5d8ff" stroke-width="1" fill="none"></path><path d="M0 0 C0.13 29.54, 0.26 59.07, 0.4 90.47 M0 0 C0.11 24.77, 0.22 49.54, 0.4 90.47 M0.4 90.47 C-10.28 108.66, -20.97 126.85, -29.7 141.72 M0.4 90.47 C-6.23 101.76, -12.86 113.05, -29.7 141.72 M-29.7 141.72 C-23.28 142.34, -16.86 142.95, -5.89 144.01 M-29.7 141.72 C-21.26 142.53, -12.81 143.34, -5.89 144.01 M-5.89 144.01 C1.45 130.62, 8.79 117.24, 19.33 98.01 M-5.89 144.01 C4.18 125.64, 14.24 107.28, 19.33 98.01 M19.33 98.01 C19.07 64.73, 18.8 31.44, 18.55 -0.58 M19.33 98.01 C19.15 75.99, 18.98 53.97, 18.55 -0.58 M18.55 -0.58 C12.79 -0.4, 7.02 -0.22, 0 0 M18.55 -0.58 C14.68 -0.46, 10.8 -0.34, 0 0 M0 0 C0 0, 0 0, 0 0 M0 0 C0 0, 0 0, 0 0" stroke="#1971c2" stroke-width="2" fill="none"></path></g></g><mask></mask><g stroke-linecap="round"><g transform="translate(546.5643052135514 210.6513404785623) rotate(0 -5.1873210653718616 71.99981550351708)" fill-rule="evenodd"><path d="M0 0 C0 0, 0 0, 0 0 M0 0 C0 0, 0 0, 0 0 M0.13 12.04 C3.99 7.6, 7.85 3.16, 10.63 -0.03 M0.13 12.04 C3.09 8.64, 6.04 5.24, 10.63 -0.03 M0.27 24.08 C5.57 17.98, 10.88 11.87, 20.6 0.69 M0.27 24.08 C4.81 18.85, 9.36 13.63, 20.6 0.69 M0.4 36.12 C4.81 31.04, 9.23 25.97, 20.74 12.73 M0.4 36.12 C7.67 27.76, 14.93 19.4, 20.74 12.73 M0.53 48.16 C6.94 40.79, 13.34 33.42, 20.21 25.52 M0.53 48.16 C5.64 42.29, 10.74 36.42, 20.21 25.52 M0.01 60.96 C7.59 52.24, 15.17 43.51, 20.35 37.56 M0.01 60.96 C6.9 53.03, 13.79 45.1, 20.35 37.56 M0.14 73 C4.38 68.13, 8.61 63.26, 20.48 49.6 M0.14 73 C4.66 67.81, 9.17 62.61, 20.48 49.6 M0.28 85.04 C4.52 80.16, 8.77 75.27, 20.61 61.64 M0.28 85.04 C5.08 79.51, 9.89 73.98, 20.61 61.64 M3.69 93.31 C7.89 88.48, 12.08 83.65, 20.75 73.69 M3.69 93.31 C10.44 85.54, 17.19 77.78, 20.75 73.69 M-28.32 142.33 C-11.09 122.5, 6.15 102.67, 20.88 85.73 M-28.32 142.33 C-14.37 126.28, -0.42 110.23, 20.88 85.73 M-19.01 143.8 C-8.08 131.24, 2.85 118.67, 20.36 98.52 M-19.01 143.8 C-9.62 133.01, -0.24 122.22, 20.36 98.52 M-9.03 144.52 C-3.88 138.59, 1.28 132.66, 4.74 128.68 M-9.03 144.52 C-5.76 140.76, -2.49 137, 4.74 128.68" stroke="#a5d8ff" stroke-width="1" fill="none"></path><path d="M0 0 C0.15 32.97, 0.29 65.94, 0.4 90.47 M0 0 C0.1 22.71, 0.2 45.42, 0.4 90.47 M0.4 90.47 C-11.58 110.87, -23.57 131.27, -29.7 141.72 M0.4 90.47 C-9.46 107.27, -19.33 124.06, -29.7 141.72 M-29.7 141.72 C-19.79 142.85, -9.87 143.97, -4.55 144.58 M-29.7 141.72 C-23.73 142.4, -17.76 143.08, -4.55 144.58 M-4.55 144.58 C0.92 133.91, 6.39 123.23, 19.33 98.01 M-4.55 144.58 C3.39 129.08, 11.34 113.59, 19.33 98.01 M19.33 98.01 C19.06 63.39, 18.78 28.77, 18.55 -0.58 M19.33 98.01 C19.08 66.15, 18.83 34.28, 18.55 -0.58 M18.55 -0.58 C12.13 -0.38, 5.72 -0.18, 0 0 M18.55 -0.58 C13.71 -0.43, 8.87 -0.28, 0 0 M0 0 C0 0, 0 0, 0 0 M0 0 C0 0, 0 0, 0 0" stroke="#1971c2" stroke-width="2" fill="none"></path></g></g><mask></mask><g stroke-linecap="round"><g transform="translate(693.3231847418043 208.9740813888693) rotate(0 -5.1873210653718616 71.99981550351708)" fill-rule="evenodd"><path d="M0 0 C0 0, 0 0, 0 0 M0 0 C0 0, 0 0, 0 0 M0.13 12.04 C2.32 9.52, 4.51 7.01, 10.63 -0.03 M0.13 12.04 C2.73 9.05, 5.33 6.06, 10.63 -0.03 M0.27 24.08 C4.55 19.16, 8.83 14.23, 20.6 0.69 M0.27 24.08 C8.37 14.76, 16.48 5.44, 20.6 0.69 M0.4 36.12 C5.31 30.47, 10.23 24.82, 20.74 12.73 M0.4 36.12 C7.31 28.17, 14.23 20.22, 20.74 12.73 M0.53 48.16 C6.95 40.79, 13.36 33.41, 20.21 25.52 M0.53 48.16 C7.21 40.49, 13.88 32.81, 20.21 25.52 M0.01 60.96 C4.35 55.96, 8.69 50.97, 20.35 37.56 M0.01 60.96 C6.76 53.19, 13.51 45.42, 20.35 37.56 M0.14 73 C7.58 64.44, 15.02 55.89, 20.48 49.6 M0.14 73 C8.06 63.9, 15.97 54.79, 20.48 49.6 M0.28 85.04 C5.14 79.45, 9.99 73.86, 20.61 61.64 M0.28 85.04 C5.99 78.47, 11.7 71.89, 20.61 61.64 M3.69 93.31 C8.28 88.03, 12.87 82.74, 20.75 73.69 M3.69 93.31 C9.56 86.56, 15.42 79.81, 20.75 73.69 M-28.32 142.33 C-10.79 122.16, 6.75 101.99, 20.88 85.73 M-28.32 142.33 C-16.23 128.42, -4.14 114.5, 20.88 85.73 M-19.01 143.8 C-9.21 132.54, 0.58 121.27, 20.36 98.52 M-19.01 143.8 C-9.12 132.44, 0.76 121.07, 20.36 98.52 M-9.69 145.28 C-6.55 141.67, -3.42 138.07, 4.09 129.43 M-9.69 145.28 C-4.36 139.15, 0.97 133.01, 4.09 129.43" stroke="#a5d8ff" stroke-width="1" fill="none"></path><path d="M0 0 C0.11 25.79, 0.23 51.59, 0.4 90.47 M0 0 C0.15 34.52, 0.31 69.04, 0.4 90.47 M0.4 90.47 C-11.09 110.03, -22.57 129.58, -29.7 141.72 M0.4 90.47 C-6.26 101.82, -12.93 113.16, -29.7 141.72 M-29.7 141.72 C-21.25 142.7, -12.8 143.69, -5.13 144.58 M-29.7 141.72 C-21.89 142.63, -14.08 143.54, -5.13 144.58 M-5.13 144.58 C0.29 134.26, 5.71 123.94, 19.33 98.01 M-5.13 144.58 C3.43 128.29, 11.98 112, 19.33 98.01 M19.33 98.01 C19.08 66.86, 18.84 35.72, 18.55 -0.58 M19.33 98.01 C19.06 64.5, 18.8 30.99, 18.55 -0.58 M18.55 -0.58 C11.8 -0.37, 5.05 -0.16, 0 0 M18.55 -0.58 C12.61 -0.39, 6.66 -0.21, 0 0 M0 0 C0 0, 0 0, 0 0 M0 0 C0 0, 0 0, 0 0" stroke="#1971c2" stroke-width="2" fill="none"></path></g></g><mask></mask><g stroke-linecap="round"><g transform="translate(287.24403603664393 40.26391438432074) rotate(0 -31.199944589443703 36.66365734805308)"><path d="M0 0 C-17.88 21.01, -35.77 42.03, -62.4 73.33 M0 0 C-23.13 27.18, -46.26 54.36, -62.4 73.33" stroke="#f08c00" stroke-width="2" fill="none"></path></g><g transform="translate(287.24403603664393 40.26391438432074) rotate(0 -31.199944589443703 36.66365734805308)"><path d="M-51.94 45.21 C-54.94 53.27, -57.94 61.33, -62.4 73.33 M-51.94 45.21 C-55.82 55.63, -59.7 66.05, -62.4 73.33" stroke="#f08c00" stroke-width="2" fill="none"></path></g><g transform="translate(287.24403603664393 40.26391438432074) rotate(0 -31.199944589443703 36.66365734805308)"><path d="M-36.32 58.51 C-43.79 62.75, -51.27 67, -62.4 73.33 M-36.32 58.51 C-45.98 64, -55.65 69.49, -62.4 73.33" stroke="#f08c00" stroke-width="2" fill="none"></path></g></g><mask></mask><g stroke-linecap="round"><g transform="translate(157.48053452621673 531.3542302278397) rotate(0 -25.498008932385346 45.334542350870834)"><path d="M0 0 C-15.88 28.23, -31.76 56.46, -51 90.67 M0 0 C-15.11 26.86, -30.21 53.72, -51 90.67" stroke="#1971c2" stroke-width="2" fill="none"></path></g><g transform="translate(157.48053452621673 531.3542302278397) rotate(0 -25.498008932385346 45.334542350870834)"><path d="M-46.12 61.07 C-47.64 70.28, -49.16 79.5, -51 90.67 M-46.12 61.07 C-47.56 69.84, -49.01 78.61, -51 90.67" stroke="#1971c2" stroke-width="2" fill="none"></path></g><g transform="translate(157.48053452621673 531.3542302278397) rotate(0 -25.498008932385346 45.334542350870834)"><path d="M-28.23 71.13 C-35.32 77.21, -42.41 83.3, -51 90.67 M-28.23 71.13 C-34.98 76.92, -41.72 82.71, -51 90.67" stroke="#1971c2" stroke-width="2" fill="none"></path></g></g><mask></mask><g stroke-linecap="round"><g transform="translate(586.306632605044 730.3385932243925) rotate(0 -12.204500333864189 -33.41956888367986)"><path d="M0 0 C-5.66 -15.49, -11.31 -30.98, -24.41 -66.84 M0 0 C-6.02 -16.47, -12.03 -32.94, -24.41 -66.84" stroke="#1971c2" stroke-width="2" fill="none"></path></g><g transform="translate(586.306632605044 730.3385932243925) rotate(0 -12.204500333864189 -33.41956888367986)"><path d="M-5.1 -43.88 C-9.58 -49.2, -14.05 -54.52, -24.41 -66.84 M-5.1 -43.88 C-9.86 -49.54, -14.62 -55.19, -24.41 -66.84" stroke="#1971c2" stroke-width="2" fill="none"></path></g><g transform="translate(586.306632605044 730.3385932243925) rotate(0 -12.204500333864189 -33.41956888367986)"><path d="M-24.38 -36.84 C-24.38 -43.79, -24.39 -50.74, -24.41 -66.84 M-24.38 -36.84 C-24.38 -44.23, -24.39 -51.63, -24.41 -66.84" stroke="#1971c2" stroke-width="2" fill="none"></path></g></g><mask></mask><g stroke-linecap="round"><g transform="translate(752.4670215057089 441.1135736886583) rotate(0 -15.813592397691082 29.435876855051703)"><path d="M0 0 C-10.61 19.74, -21.21 39.48, -31.63 58.87 M0 0 C-8.19 15.25, -16.38 30.49, -31.63 58.87" stroke="#2f9e44" stroke-width="2" fill="none"></path></g><g transform="translate(752.4670215057089 441.1135736886583) rotate(0 -15.813592397691082 29.435876855051703)"><path d="M-27.32 29.18 C-28.77 39.14, -30.21 49.09, -31.63 58.87 M-27.32 29.18 C-28.44 36.87, -29.55 44.56, -31.63 58.87" stroke="#2f9e44" stroke-width="2" fill="none"></path></g><g transform="translate(752.4670215057089 441.1135736886583) rotate(0 -15.813592397691082 29.435876855051703)"><path d="M-9.25 38.89 C-16.75 45.59, -24.26 52.29, -31.63 58.87 M-9.25 38.89 C-15.04 44.07, -20.84 49.24, -31.63 58.87" stroke="#2f9e44" stroke-width="2" fill="none"></path></g></g><mask></mask><g stroke-linecap="round"><g transform="translate(323.39437736025513 410.7602761799937) rotate(0 -33.29730935944286 -29.171895176686775)"><path d="M0 0 C-22.91 -20.07, -45.81 -40.14, -66.59 -58.34 M0 0 C-13.44 -11.77, -26.88 -23.55, -66.59 -58.34" stroke="#1971c2" stroke-width="2" fill="none"></path></g><g transform="translate(323.39437736025513 410.7602761799937) rotate(0 -33.29730935944286 -29.171895176686775)"><path d="M-38.63 -47.48 C-48.25 -51.22, -57.87 -54.96, -66.59 -58.34 M-38.63 -47.48 C-44.27 -49.68, -49.92 -51.87, -66.59 -58.34" stroke="#1971c2" stroke-width="2" fill="none"></path></g><g transform="translate(323.39437736025513 410.7602761799937) rotate(0 -33.29730935944286 -29.171895176686775)"><path d="M-52.15 -32.05 C-57.12 -41.09, -62.09 -50.14, -66.59 -58.34 M-52.15 -32.05 C-55.07 -37.36, -57.98 -42.66, -66.59 -58.34" stroke="#1971c2" stroke-width="2" fill="none"></path></g></g><mask></mask><g stroke-linecap="round"><g transform="translate(381.2325533003675 403.90491986659964) rotate(0 0.46780703124483125 -25.59008075282628)"><path d="M0 0 C0.2 -11.01, 0.4 -22.02, 0.94 -51.18 M0 0 C0.33 -18.24, 0.67 -36.48, 0.94 -51.18" stroke="#1971c2" stroke-width="2" fill="none"></path></g><g transform="translate(381.2325533003675 403.90491986659964) rotate(0 0.46780703124483125 -25.59008075282628)"><path d="M9.25 -26.97 C7.46 -32.18, 5.67 -37.39, 0.94 -51.18 M9.25 -26.97 C6.29 -35.6, 3.32 -44.23, 0.94 -51.18" stroke="#1971c2" stroke-width="2" fill="none"></path></g><g transform="translate(381.2325533003675 403.90491986659964) rotate(0 0.46780703124483125 -25.59008075282628)"><path d="M-8.26 -27.29 C-6.28 -32.43, -4.3 -37.57, 0.94 -51.18 M-8.26 -27.29 C-4.98 -35.81, -1.7 -44.32, 0.94 -51.18" stroke="#1971c2" stroke-width="2" fill="none"></path></g></g><mask></mask><g stroke-linecap="round"><g transform="translate(406.1470643844781 417.48346484621385) rotate(0 50.521577475614436 -29.64351853885691)"><path d="M0 0 C25.84 -15.16, 51.68 -30.32, 101.04 -59.29 M0 0 C31.57 -18.52, 63.14 -37.05, 101.04 -59.29" stroke="#1971c2" stroke-width="2" fill="none"></path></g><g transform="translate(406.1470643844781 417.48346484621385) rotate(0 50.521577475614436 -29.64351853885691)"><path d="M81.92 -36.17 C86.81 -42.08, 91.7 -47.99, 101.04 -59.29 M81.92 -36.17 C87.9 -43.39, 93.87 -50.62, 101.04 -59.29" stroke="#1971c2" stroke-width="2" fill="none"></path></g><g transform="translate(406.1470643844781 417.48346484621385) rotate(0 50.521577475614436 -29.64351853885691)"><path d="M71.54 -53.87 C79.08 -55.26, 86.63 -56.64, 101.04 -59.29 M71.54 -53.87 C80.76 -55.56, 89.98 -57.26, 101.04 -59.29" stroke="#1971c2" stroke-width="2" fill="none"></path></g></g><mask></mask><g stroke-linecap="round"><g transform="translate(427.1776183683638 429.12113860489615) rotate(0 115.2203695427279 -34.94026948337864)"><path d="M0 0 C76.18 -23.1, 152.36 -46.2, 230.44 -69.88 M0 0 C70.2 -21.29, 140.4 -42.58, 230.44 -69.88" stroke="#1971c2" stroke-width="2" fill="none"></path></g><g transform="translate(427.1776183683638 429.12113860489615) rotate(0 115.2203695427279 -34.94026948337864)"><path d="M206.44 -51.88 C214.37 -57.83, 222.31 -63.78, 230.44 -69.88 M206.44 -51.88 C213.75 -57.36, 221.06 -62.85, 230.44 -69.88" stroke="#1971c2" stroke-width="2" fill="none"></path></g><g transform="translate(427.1776183683638 429.12113860489615) rotate(0 115.2203695427279 -34.94026948337864)"><path d="M200.49 -71.52 C210.39 -70.98, 220.29 -70.44, 230.44 -69.88 M200.49 -71.52 C209.61 -71.02, 218.74 -70.52, 230.44 -69.88" stroke="#1971c2" stroke-width="2" fill="none"></path></g></g><mask></mask><g stroke-linecap="round"><g transform="translate(306.62838533488286 427.10433624016594) rotate(0 -89.58455214000435 -32.47584907121038)"><path d="M0 0 C-50.46 -18.29, -100.91 -36.58, -179.17 -64.95 M0 0 C-65.4 -23.71, -130.8 -47.42, -179.17 -64.95" stroke="#1971c2" stroke-width="2" fill="none"></path></g><g transform="translate(306.62838533488286 427.10433624016594) rotate(0 -89.58455214000435 -32.47584907121038)"><path d="M-149.17 -64.99 C-157.62 -64.98, -166.07 -64.97, -179.17 -64.95 M-149.17 -64.99 C-160.12 -64.98, -171.07 -64.96, -179.17 -64.95" stroke="#1971c2" stroke-width="2" fill="none"></path></g><g transform="translate(306.62838533488286 427.10433624016594) rotate(0 -89.58455214000435 -32.47584907121038)"><path d="M-156.16 -45.7 C-162.64 -51.12, -169.12 -56.54, -179.17 -64.95 M-156.16 -45.7 C-164.56 -52.73, -172.96 -59.75, -179.17 -64.95" stroke="#1971c2" stroke-width="2" fill="none"></path></g></g><mask></mask><g transform="translate(331.1337382868385 414.2550070733106) rotate(0 31.668128967285156 17.5)"><text x="0" y="0" font-family="Virgil, Segoe UI Emoji" font-size="28px" fill="#1971c2" text-anchor="start" style="white-space: pre;" direction="ltr" dominant-baseline="text-before-edge">Arms</text></g><g transform="translate(142.73900003533606 492.1677559873941) rotate(0 24.06610107421875 17.5)"><text x="0" y="0" font-family="Virgil, Segoe UI Emoji" font-size="28px" fill="#1971c2" text-anchor="start" style="white-space: pre;" direction="ltr" dominant-baseline="text-before-edge">Arm</text></g><g transform="translate(570.9200983699774 740.631582550262) rotate(0 24.06610107421875 17.5)"><text x="0" y="0" font-family="Virgil, Segoe UI Emoji" font-size="28px" fill="#1971c2" text-anchor="start" style="white-space: pre;" direction="ltr" dominant-baseline="text-before-edge">Arm</text></g><g transform="translate(676.2133804529041 395.07448377009376) rotate(0 82.22235870361328 17.5)"><text x="0" y="0" font-family="Virgil, Segoe UI Emoji" font-size="28px" fill="#2f9e44" text-anchor="start" style="white-space: pre;" direction="ltr" dominant-baseline="text-before-edge">Other robot</text></g><g transform="translate(180.4097850876783 10) rotate(0 92.31640625 17.5)"><text x="0" y="0" font-family="Virgil, Segoe UI Emoji" font-size="28px" fill="#f08c00" text-anchor="start" style="white-space: pre;" direction="ltr" dominant-baseline="text-before-edge">Side of robot</text></g></svg>