<svg version="1.1" xmlns="http://www.w3.org/2000/svg" viewBox="0 0 323.2627329944984 296.4428871106066" width="646.5254659889968" height="592.8857742212132">
  <!-- svg-source:excalidraw -->
  
  <defs>
    <style class="style-fonts">
      @font-face {
        font-family: "Virgil";
        src: url("https://excalidraw.com/Virgil.woff2");
      }
      @font-face {
        font-family: "Cascadia";
        src: url("https://excalidraw.com/Cascadia.woff2");
      }
    </style>
    
  </defs>
  <rect x="0" y="0" width="323.2627329944984" height="296.4428871106066" fill="#ffffff"></rect><g stroke-linecap="round"><g transform="translate(102.2851746628047 281.8039296856957) rotate(0 93.42627541912549 -26.103292426413148)"><path d="M-0.71 -1.61 C11.76 -16.64, 20 -33.02, 30.58 -46.41 M-0.77 0.26 C11.39 -17.05, 22.67 -34.19, 30.37 -46.12 M31.76 -44.34 C82.71 -47.55, 131.91 -46.71, 186.98 -52.46 M30.65 -46.77 C71.54 -48.77, 113.47 -48.81, 187.63 -49.67" stroke="#1971c2" stroke-width="1" fill="none"></path></g></g><mask></mask><g stroke-linecap="round"><g transform="translate(82.73121000556955 240.78829650222698) rotate(0 3.936192007180125 23.26676504957605)"><path d="M1.34 1.21 C-5.55 5.5, -7.66 10.56, -11.44 12.93 M0.01 0.88 C-3.94 3.68, -5.6 5.59, -11.96 13.48 M-11.26 11.8 C-11.83 19.25, -13.34 28.26, -13.11 33.33 M-12.91 12.47 C-12.5 18.06, -13.03 22.92, -15.07 33.15 M-14.84 30.69 C-4.48 37.39, 11 40.06, 23.33 43.82 M-15.45 31.52 C-5.67 34.7, 3.12 38.45, 21.04 45.65" stroke="#e03131" stroke-width="1" fill="none"></path></g></g><mask></mask><g stroke-linecap="round"><g transform="translate(40.04633593672713 217.89585007424444) rotate(0 13.07287354456139 12.811839205843683)"><path d="M-1.04 0.93 C7.75 6.3, 15.89 14.88, 27.18 24.09 M0.22 0.15 C8.91 8.58, 15.91 16.01, 25.57 25.47" stroke="#e03131" stroke-width="1" fill="none"></path></g><g transform="translate(40.04633593672713 217.89585007424444) rotate(0 13.07287354456139 12.811839205843683)"><path d="M8.26 18.73 C13.98 19.11, 19.11 22.34, 26.43 24.84 M9.39 18.03 C14.91 21.03, 18.99 23.18, 24.98 26.08" stroke="#e03131" stroke-width="1" fill="none"></path></g><g transform="translate(40.04633593672713 217.89585007424444) rotate(0 13.07287354456139 12.811839205843683)"><path d="M16.96 9.97 C20.02 13.09, 22.5 18.98, 26.43 24.84 M18.1 9.27 C20.98 14.9, 22.39 19.75, 24.98 26.08" stroke="#e03131" stroke-width="1" fill="none"></path></g></g><mask></mask><g transform="translate(10 196.67264453163557) rotate(0 16.700000762939453 10)"><text x="0" y="0" font-family="Virgil, Segoe UI Emoji" font-size="16px" fill="#e03131" text-anchor="start" style="white-space: pre;" direction="ltr" dominant-baseline="text-before-edge">Plow</text></g><g stroke-linecap="round"><g transform="translate(95.122352078973 200.8833733192505) rotate(0 11.40790983172377 22.942962391162467)"><path d="M-1.99 -1.71 C4.51 10.47, 9.61 23.4, 24.8 47.6 M-0.29 0.7 C5.47 11, 10.7 21.19, 23.95 46.78" stroke="#1971c2" stroke-width="1" fill="none"></path></g><g transform="translate(95.122352078973 200.8833733192505) rotate(0 11.40790983172377 22.942962391162467)"><path d="M2.76 27.4 C8.34 32.56, 12.29 38.47, 24.84 47.99 M4.46 29.8 C9.36 33.75, 13.55 37.61, 23.98 47.17" stroke="#1971c2" stroke-width="1" fill="none"></path></g><g transform="translate(95.122352078973 200.8833733192505) rotate(0 11.40790983172377 22.942962391162467)"><path d="M18.61 19.19 C20.25 26.37, 20.32 34.29, 24.84 47.99 M20.31 21.6 C21.67 27.27, 22.36 32.94, 23.98 47.17" stroke="#1971c2" stroke-width="1" fill="none"></path></g></g><mask></mask><g stroke-linecap="round"><g transform="translate(223.04144465591776 192.8164035171008) rotate(0 0.3123707539477323 15.670725602580376)"><path d="M-1.08 0.89 C1.43 7.39, -0.1 13.55, -0.1 29.21 M-0.44 0.94 C0.4 11.43, -0.18 21.89, 1.7 30.45" stroke="#1971c2" stroke-width="1" fill="none"></path></g><g transform="translate(223.04144465591776 192.8164035171008) rotate(0 0.3123707539477323 15.670725602580376)"><path d="M-6.42 17.39 C-3.14 20.23, -2.99 22.83, 0.72 28.97 M-5.93 17.43 C-3.08 22, -1.34 26.53, 2.13 29.93" stroke="#1971c2" stroke-width="1" fill="none"></path></g><g transform="translate(223.04144465591776 192.8164035171008) rotate(0 0.3123707539477323 15.670725602580376)"><path d="M4.12 15.92 C5.19 19.09, 3.13 22, 0.72 28.97 M4.62 15.96 C3.84 21.03, 1.95 26.07, 2.13 29.93" stroke="#1971c2" stroke-width="1" fill="none"></path></g></g><mask></mask><g transform="translate(53.34697274641212 172.93708507608915) rotate(0 68.93333435058594 10)"><text x="0" y="0" font-family="Virgil, Segoe UI Emoji" font-size="16px" fill="#1971c2" text-anchor="start" style="white-space: pre;" direction="ltr" dominant-baseline="text-before-edge">Other robot skirt</text></g><g transform="translate(219.2960658192054 155.9388272787023) rotate(0 46.983333587646484 10)"><text x="0" y="0" font-family="Virgil, Segoe UI Emoji" font-size="16px" fill="#1971c2" text-anchor="start" style="white-space: pre;" direction="ltr" dominant-baseline="text-before-edge">Other robot</text></g><g stroke-linecap="round"><g transform="translate(62.84257996320315 62.58030669508696) rotate(0 93.99200571930061 6.928198775252)" fill-rule="evenodd"><path d="M0 0 C0 0, 0 0, 0 0 M0 0 C0 0, 0 0, 0 0 M-5.53 9.86 C-0.93 6.09, 1 3.34, 3.78 0.49 M-4.51 10.78 C-0.95 7.41, 2.28 3.82, 5.07 -0.26 M-3.03 14.98 C0.48 11.16, 3.99 5.54, 11.27 -0.29 M-3.07 16.01 C1.87 10.44, 6.53 5.18, 10.12 0.19 M0.81 17.89 C5.46 12.1, 9.87 7.3, 14.64 0.01 M1.83 16.7 C6.52 10.19, 12.87 5.28, 15 -0.47 M6.45 18.25 C9.02 14.31, 12.87 8.78, 21.82 1.09 M6.29 16.57 C10.38 11.04, 14.32 7.84, 21.9 -0.29 M14.41 17.11 C15.3 10.7, 17.73 7.2, 24.57 -0.75 M12.69 16.89 C15.16 12.34, 17.68 9.15, 25.51 0.58 M16.21 16.4 C23.06 12.22, 28.36 6.81, 31.85 -1.27 M19.05 15.3 C22.76 11.48, 25.66 6.58, 30.92 -0.15 M24.95 18.06 C27.03 9.96, 31.06 4.19, 37.19 -0.8 M23.71 15.82 C27.49 9.96, 31.9 4.92, 37.12 -0.5 M29.86 15.11 C33.52 13.39, 34.45 9.33, 40.55 -0.98 M27.98 14.95 C33.68 9.92, 38.24 3.82, 42.89 -0.01 M33.03 13.61 C38.14 8.08, 45.36 4.43, 47.72 -1.29 M34.88 14.47 C40.08 9.71, 45.61 3.64, 48.27 0.67 M40 15.73 C40.81 12.04, 43.84 7.12, 52.17 0.27 M39.82 15.52 C44.45 10.64, 50.28 4.39, 52.48 0.03 M46.34 14.87 C50.49 11.03, 53.95 7.88, 58.44 -1.41 M45.21 14.63 C50.78 9.24, 55.46 3.41, 57.38 0.02 M49.67 14.32 C52.45 9.32, 58.09 4.81, 63.36 1.53 M50.6 15.31 C53.57 12.06, 55.52 8.99, 62.71 1.15 M55.59 14.59 C57.18 9.98, 61.23 7.58, 70.69 1.57 M56.61 14.36 C59.72 9.81, 65.34 4.94, 68.83 1 M61.61 16.03 C62.96 9.06, 68 7.79, 73.8 -0.48 M61.01 15.37 C64.16 10.31, 69.08 6.07, 73.5 0.8 M67.9 14.23 C71.33 10.79, 75.17 8.05, 80.87 0.33 M65.34 14.99 C71.86 9.17, 75.9 5.4, 78.99 0.58 M71.7 14.52 C76.11 9.13, 78.65 6.32, 86.18 0.98 M71.68 14.65 C74.81 12.64, 77.59 9.1, 83.78 1.25 M76.19 14.44 C81.33 7.45, 84.81 4.2, 88.53 1.41 M77.27 13.69 C81.72 9.2, 86.19 5.5, 90.15 -0.67 M80.83 14.66 C88.81 8.46, 91.85 3.23, 93.37 0.23 M83.19 15.16 C85.5 10.94, 89.04 6.41, 94.1 0.58 M88.17 14.06 C90.71 9.24, 94.2 6.69, 99.99 1.5 M87.28 14.27 C91.54 11.62, 93.49 7.44, 100.64 -0.79 M92.12 16.26 C96.76 12.85, 100.28 9.5, 104.44 -0.81 M93.55 15.4 C95.19 11.46, 97.65 8.83, 105.91 1.24 M99.02 13.6 C102.77 9.08, 108.33 3.64, 112.9 -0.86 M99.06 14.96 C102.31 10.4, 106.95 5.38, 110.72 -0.2 M104.63 12.69 C107.69 10.56, 113.81 4.16, 117.99 -0.25 M105.17 14.53 C106.2 11.21, 108.77 9.21, 115.91 0.45 M108.14 14.2 C112.94 10.57, 118.89 4.21, 120.27 -1.46 M108.93 15.26 C113.24 11.72, 114.93 6.7, 122.5 0.25 M114.64 12.61 C118.14 9.07, 122.85 6.64, 126.44 -0.17 M114.84 13.68 C119 10.14, 122.19 7.49, 127.28 -0.2 M120.43 12.52 C124.63 8.87, 125.96 4.92, 132.5 -0.91 M120.51 14.32 C125.73 9.36, 129.91 4.27, 131.74 0.1 M126.88 13.03 C128.12 11.1, 134.35 6.36, 137.71 1.15 M124.83 14.79 C129.95 10.2, 133.65 3.93, 136.82 1.19 M132.01 14.43 C135.26 9.94, 139.51 6.84, 142.38 -0.83 M130.63 14.34 C134.59 10.01, 139.42 4.3, 141.84 1.48 M137.92 12.82 C139.55 11.31, 142.22 7.74, 149.75 1.61 M137.38 13.92 C139.72 8.65, 143.45 4.64, 147.61 -0.15 M142.47 13.24 C147.49 9.51, 151.86 3.8, 154.4 1.59 M142.58 13.66 C145.55 8.57, 149.79 5.47, 153.88 1.48 M148.88 14.67 C152.76 7.37, 154.23 5.37, 158.26 -0.56 M147.44 12.83 C150.03 10.11, 152.77 6.85, 158.12 0.41 M151.47 13.18 C156.23 10.5, 157.84 7.31, 162.51 -0.31 M152.96 13.64 C154.8 9.66, 158.4 7.35, 164.56 1.13 M158.36 14 C162.19 11.07, 164.96 5.96, 169.95 -0.61 M158.9 13.77 C161.45 8.74, 165.22 5.92, 169.54 0.88 M163.67 14.14 C166.5 10.26, 170.5 4.09, 173.54 1.99 M163.27 11.97 C167.41 9.63, 169.92 5.87, 173.96 1.06 M170.35 11.95 C173.59 8.72, 178.77 4.5, 178.89 -0.6 M168.08 12.62 C171.76 9.24, 174.32 5.47, 180.42 -0.17 M175.72 11.89 C178.2 9.57, 180.02 6.03, 186.42 1.91 M173.79 12.3 C177.64 9.41, 179.12 7.73, 185.42 -0.06 M178.72 10.77 C182.55 9.15, 187.62 5.11, 189.62 1.44 M180.43 12.53 C183.59 8.48, 186.29 6.42, 189.55 0.44 M-6.01 14.53 C-6.01 14.53, -6.01 14.53, -6.01 14.53 M-6.01 14.53 C-6.01 14.53, -6.01 14.53, -6.01 14.53 M0.38 14.89 C-1.75 13.74, -3.49 12.18, -4.67 11.28 M0.46 14.71 C-1.41 13.47, -2.79 11.84, -4.39 10.72 M5.76 15.33 C4.67 12.56, 2.3 11.55, -1.17 6.5 M6.28 14.66 C3.33 12.77, 1.26 10.13, -2.23 6.84 M13.69 15.26 C7.59 12.69, 3.61 6.18, -1.95 1.54 M12.79 13.89 C8.76 11.45, 5.05 6.83, -1.97 2.78 M18.62 14.68 C9.92 8.16, 5.4 2.14, 1.53 0.82 M18.77 15.09 C12.55 9.77, 6.76 4.37, 1.27 -1.74 M22.99 14.09 C18.61 10.68, 11.73 5.43, 6.49 0.88 M24.07 13.84 C18.93 8.84, 13.37 4.03, 6.4 0.35 M30.05 15.01 C27.57 12.5, 24.73 7.1, 13.53 0.24 M29.52 14.8 C26.8 11.04, 23.99 7.1, 12.16 -1.01 M37.38 11.77 C30.41 10.25, 27.95 6.43, 20.47 -1.31 M35.41 14.73 C29.7 9.13, 26.14 4.58, 20.07 -1.22 M42.87 13.6 C37.98 9.42, 34.13 5.43, 25.77 -1.3 M41.49 13.3 C38.97 10.52, 34.62 7.04, 26.04 -0.53 M47.35 12.7 C43.93 9.93, 40.17 4.29, 31.5 0.74 M47.6 14.14 C42.1 8.77, 36.56 4.03, 31.29 -1.77 M52.46 14.25 C51.11 9.99, 47.1 6.48, 38.14 -1.41 M53.68 13.77 C49.1 8.89, 44.62 6.51, 37.27 -0.11 M59.04 11.8 C54.34 8.71, 53.7 4.95, 44.01 0.18 M60.13 13.93 C56.03 9.47, 50.57 6.61, 43.14 -1.3 M65.5 14.67 C59.62 7.5, 55.11 5.95, 47.87 -1.84 M66.31 13.92 C59.49 8.69, 54.17 3.74, 50.41 -0.1 M73.68 13.93 C65.77 10.22, 60.82 6, 56.27 -1.26 M72.44 13.49 C67.38 9.28, 63.47 7.02, 56.43 -0.61 M79.48 14.53 C72.08 6.21, 67.17 3.68, 62.47 0.97 M78.3 11.97 C73.11 8.58, 65.78 4.42, 61.26 0.06 M82.78 13.24 C78.75 8.53, 72.09 4.35, 69.31 0.14 M83.18 13.09 C80.9 10.13, 78.12 7.97, 68.69 0.04 M89.73 14.1 C85.63 9.21, 79 4.46, 73.3 1.16 M90.31 13.38 C85.67 8.51, 81.73 7.03, 74.34 -0.9 M95.19 11.79 C92.32 7.25, 85.51 4.01, 79.52 -2.02 M95.26 12.49 C90.78 9.74, 87.44 6.99, 80.66 -1.09 M100.61 13.59 C96.41 9.74, 91.47 1.86, 88.5 0.85 M101.95 12.1 C97.46 10.01, 94.44 5.45, 85.85 -0.68 M108.57 11.57 C103.14 6.91, 97.94 3.3, 91.58 1.16 M107.27 13.01 C101 8.17, 96.24 1.84, 91.29 0.1 M113.55 13.14 C107.32 6.78, 102.06 4.61, 97.54 -1.96 M113.81 12.64 C107.93 8.98, 103.48 3.45, 98.25 -1.5 M120.33 13.17 C114.49 9.2, 111.33 3.68, 104.04 -0.81 M118.57 12.17 C116.17 8.94, 111.7 6.55, 105.28 -1.02 M126.22 12.16 C123.73 8.47, 116.93 8.37, 112.12 0.01 M124.71 11.39 C121.16 8, 116.23 2.51, 111.19 -0.68 M131.16 11.31 C125.69 6.57, 120.8 2.56, 118 -0.54 M130.39 12.96 C126.4 7.5, 122.43 3.32, 116.09 -0.69 M136.02 11.99 C133.96 9.05, 128.36 4.25, 124.01 0.67 M136.67 11.21 C132.14 7.99, 127.65 3.47, 123.15 0.56 M144.42 10.31 C137.75 7.99, 133.87 4.9, 130.32 -0.62 M143.92 12.11 C138.45 6.79, 132.34 2.05, 128.2 -0.46 M150.15 11.95 C144.41 7.72, 141.73 8.07, 133.74 -1.79 M148.44 11.46 C144.79 8.04, 139.06 4.37, 136.01 -1.04 M154.28 11.77 C151.83 6.86, 148.24 5.77, 141.85 -0.43 M153.91 10.95 C150.86 8.26, 147.23 6.22, 140.54 -0.13 M159.27 11.92 C156.27 8.99, 151.88 3.13, 146.48 -2.15 M160.44 10.92 C156.76 8.84, 153.45 3.96, 148.3 -0.08 M167.53 9.98 C162.53 6.4, 158.11 2.09, 155.22 1.11 M166.7 10.5 C163.09 7.65, 158.94 3.82, 153.62 -0.11 M173.04 11.75 C166.84 8.47, 162.95 1.52, 158.63 -1.26 M173.97 10.63 C169.24 8.4, 166.47 5.49, 159.6 -1.26 M177.1 9.91 C174.9 5.19, 171.1 3.15, 164.7 -0.2 M178.93 11.05 C174.37 7.95, 170.89 4.13, 166.59 -0.53 M183.46 10.55 C180.69 8.39, 178.53 7.19, 173.58 -1.06 M184.94 9.73 C179.38 6.14, 175.78 1.8, 172.06 -0.01 M186.23 8.14 C182.52 3.96, 178.9 1.5, 177.93 -0.1 M187.59 7.98 C184.95 5.55, 183.67 4.36, 178.21 -0.75 M189.5 4.06 C187.43 2.69, 185.9 1.33, 184.62 -0.35 M189.59 4.08 C187.36 2.29, 185.38 0.78, 184.06 0.04 M193.36 2.02 C192.22 1.43, 190.91 0.29, 189.77 -0.73 M192.88 1.98 C192.13 1.46, 191.37 0.98, 189.85 -0.65" stroke="#ffc9c9" stroke-width="0.5" fill="none"></path><path d="M-0.87 -1.15 C70.18 -0.99, 143.9 -0.02, 193.46 0.71 M-0.16 0.48 C50.33 -0.68, 99.91 -0.05, 194.6 -0.15 M193.05 1.6 C192.75 1.98, 188.11 6.63, 185.83 10.76 M193.39 0.44 C191.26 3.71, 188.93 6.63, 185.13 10.36 M184.91 11.6 C126.16 13.67, 66.1 12.51, -6.62 13.31 M183.96 11.36 C111.16 12.15, 37.23 13.14, -6.32 15 M-4.38 14.52 C-2.95 9.62, -2.09 2.43, -0.13 -0.2 M-5.01 14.61 C-5.08 11.94, -2.55 8.13, 0.71 0.1 M0 0 C0 0, 0 0, 0 0 M0 0 C0 0, 0 0, 0 0" stroke="#e03131" stroke-width="1" fill="none"></path></g></g><mask></mask><g stroke-linecap="round"><g transform="translate(56.60251052062688 77.37818565891067) rotate(0 95.7398101845829 8.711302678346279)" fill-rule="evenodd"><path d="M0 0 C0 0, 0 0, 0 0 M0 0 C0 0, 0 0, 0 0 M-1.03 6.86 C2.24 4.31, 3.18 1.38, 6.4 0.34 M-0.23 6.41 C1.44 4.93, 3.01 3.23, 5.64 -0.32 M0.38 11.29 C3.19 10.66, 4.61 5.64, 11.04 -0.51 M-1.1 12.1 C1.53 9.58, 3.97 6.68, 10.42 0.69 M0.76 21.19 C4.18 12.18, 11.13 6.8, 17.17 0.52 M-0.59 19.26 C3.05 13.55, 9.29 8.03, 16.97 -0.1 M-1.07 22.44 C4.37 17.69, 9.13 11.61, 22.05 -1.78 M0.22 22.42 C7.66 16.11, 13.78 7.11, 21.54 0.14 M6.3 23.75 C12.84 18.09, 16.83 10.77, 28.3 1.19 M6.66 23.49 C12.08 15.43, 18.67 8.32, 26.54 -0.35 M12.56 21.91 C19.49 16.24, 25.45 9.95, 33.25 -0.92 M11.51 21.83 C20.62 13.1, 26.22 6.05, 32.51 -0.42 M16.45 23.67 C25.33 12.6, 30.16 6.06, 36.34 0.83 M16.34 22.3 C23.52 14.57, 30.82 8.44, 38.35 -1.48 M21.78 23.82 C26.76 17.6, 32.17 13.56, 42.48 1.09 M22.55 23.42 C26.69 16.84, 31.12 12.94, 43.54 -1.09 M26.91 22.33 C33.49 13.74, 41.36 7.98, 46.83 -1.94 M27.72 22.6 C35.23 14.15, 42.78 6.74, 47.94 -0.99 M32.06 22.77 C41.91 15.4, 46.75 7.96, 53.42 0.14 M33.92 22.56 C38.83 14.37, 46.04 7.64, 53.31 -0.41 M38.65 22.63 C45.65 13.04, 54.09 6.23, 59.92 -0.2 M39.95 21.75 C45.95 14.19, 51.39 8.13, 59.05 -2.16 M42.78 22.46 C50.26 16.1, 54.84 11.08, 65.02 -0.04 M45.73 21.58 C51.86 13.02, 58.86 4.09, 64.44 -0.17 M51.19 19.52 C53.9 17.81, 59.26 12.9, 71.73 0.32 M51.28 22.07 C56.66 14.86, 61.17 7.83, 70.98 -1.06 M57.32 21.88 C59.44 14.72, 64.19 11.05, 76.18 -0.69 M55.65 22.05 C59.83 17.15, 64.53 10.96, 76.05 -0.2 M61.34 22.05 C68.97 15.18, 72.95 6.96, 82.26 -3.34 M61.92 20.84 C69.64 12.92, 76.29 3.11, 80.52 -1.04 M67.58 22.1 C73.97 11.32, 77.92 4.23, 86.39 -0.7 M67.51 21.47 C74.43 12.65, 81.65 4.52, 86.44 -1.14 M71.86 20.05 C80.05 12.3, 85.97 5.13, 92.83 -0.29 M72.54 21.08 C77.12 14.56, 83.12 7.71, 91.33 -1.74 M76.82 20.23 C83.6 11.03, 91.65 4.63, 97.09 -1.68 M78.04 21.36 C80.98 16.74, 85.94 12.08, 96.48 -1.36 M81.41 22.42 C90.01 12.58, 95.91 6.89, 102.66 -2.61 M82.37 19.77 C87.83 14.74, 93.32 7.64, 102.63 -1.82 M88.83 19.46 C97.46 13.81, 103.18 6.14, 107.66 -0.41 M88.12 19.17 C94.36 14.61, 99.11 9.26, 107.56 -1.56 M94.64 19.39 C97.28 15.44, 101.71 9.29, 113.59 -2.06 M93.17 20.1 C96.75 15.79, 102.58 11.51, 113.8 -1.71 M98.73 19.04 C104.25 12.11, 109.66 7.08, 116.73 -1.86 M99.56 20.34 C104.75 12.14, 111.8 6.78, 118.92 -1.68 M106.76 21.22 C113.29 11.68, 118.83 1.07, 123.42 -3.05 M103.9 20.23 C112.27 11.57, 119.46 3.08, 123.8 -2.65 M109.52 21.02 C115.22 14.61, 121.08 7.76, 126.89 0.06 M109.65 19.01 C115.36 12.85, 122.23 6.23, 128.34 -1.72 M114.28 20.26 C122.79 13.26, 127.02 6.82, 133.86 -3.24 M115.39 19.31 C121.53 13.66, 126.04 7.18, 135.07 -3.15 M122.18 20.53 C125.75 15.71, 130.93 7.08, 141.31 -2.25 M121.22 18.3 C128.5 9.87, 136.48 3.14, 140.79 -2.45 M128.28 16.91 C129.08 15.22, 136.23 9.08, 143.88 -2.42 M127.64 19.42 C132.12 11.72, 140.04 4.82, 144.94 -1.98 M133.62 20.01 C139.28 9.67, 147.65 4.3, 149.14 -3.06 M132.64 18.55 C137.34 14.07, 140.92 8.8, 149.8 -2.43 M137.17 17.64 C140.65 12.33, 147.1 8.1, 154.42 -3.37 M136.56 19.66 C142.22 13.82, 146.34 8.97, 156.27 -2.97 M141.32 19.94 C150.37 11.84, 154.15 5.98, 161.42 -3.86 M142.48 18.07 C149.14 12.25, 154.08 4.44, 161.39 -2.49 M147.23 17.73 C151.35 13.12, 155.08 10.36, 168.34 -3.75 M148.54 18.81 C152.12 13.58, 157.43 7.11, 165.44 -2.96 M154.1 16.9 C160.33 11.27, 167.12 3.39, 172.49 -2.31 M154.19 19.12 C158.26 11.6, 163.85 7.24, 171.48 -2.74 M160.7 19.52 C162.29 14.81, 167.25 9.05, 179.1 -4.97 M158.54 17.62 C164.06 13.35, 169.55 6.74, 177.05 -2.61 M165.31 17.49 C169.6 11.29, 173.37 8.76, 184.62 -0.99 M165.36 17.96 C169.44 12.06, 174.06 6.39, 182.49 -3.34 M169.8 18.66 C173.79 15.08, 179.41 9, 188.11 -5.07 M170.03 17.07 C175.6 12.76, 178.84 7.48, 189.21 -3.29 M175.63 16.41 C180.76 9.36, 188.19 4.21, 191.35 -2.69 M176.51 16.8 C179.03 12.63, 182.17 8.82, 192.74 -1.7 M181.28 18.6 C183.64 13.31, 187.24 10.15, 193.89 4.24 M181.62 17.11 C185.49 11.93, 189.13 7.43, 192.93 3.88 M185.96 18.22 C188.76 14.18, 191.36 12.34, 192.52 11.02 M185.97 17.06 C187.5 15.14, 189.88 14.01, 192.02 10.95 M-1.25 21.26 C-1.25 21.26, -1.25 21.26, -1.25 21.26 M-1.25 21.26 C-1.25 21.26, -1.25 21.26, -1.25 21.26 M5.28 21.37 C4.09 20.6, 2.53 18.98, -1.49 16.45 M5.48 21.71 C2.89 19.89, 1.37 17.89, -0.55 16.21 M10.16 22.15 C8.31 18.17, 7.1 16.95, 0.12 11.61 M10.57 20.63 C5.79 18.03, 1.78 14.39, -0.3 11.72 M15.05 21.76 C12.73 17.17, 9.64 14.3, 1.48 6.44 M16 19.79 C11.06 15.5, 3.83 10.55, -0.23 6.12 M23.51 22.72 C12.17 14.68, 3.62 8.18, 1.23 0.72 M22.79 21.55 C14 13.5, 4.79 5.42, 0.05 2.27 M28.45 19.99 C16.31 13.08, 7.59 3.28, 2.32 -1.83 M28.02 20.02 C21.77 16.31, 17.05 11.28, 2.16 -2.11 M35.24 19.6 C25.18 12.52, 13 3.75, 6.58 -1.9 M34.5 20.8 C25.93 13.07, 19.51 6.98, 8.57 -3.25 M40.62 21.65 C35.04 17.72, 31.54 11.5, 14.33 -1.07 M40.78 19.58 C33.44 13.93, 26.29 8.89, 15.06 -1.69 M47.81 18.97 C38.31 14.61, 30.17 8.24, 20.49 -3.3 M47.15 20.81 C38.52 13.15, 31.02 8.21, 19.71 -3.76 M52.41 21.65 C42.71 12.07, 31.95 3.01, 25.52 -0.98 M52.54 20.36 C42.56 12.24, 33.49 3.28, 26.81 -3.52 M57.53 19.76 C48.41 11.85, 43.16 6.35, 30.72 -3.55 M58.52 20.19 C47.4 10.95, 37.1 2.41, 31.1 -3.35 M64.88 17.93 C56.98 15.02, 49.84 5.63, 37.66 -3.65 M63.36 19.14 C57.05 12.72, 48.39 7.67, 38.11 -1.99 M68.67 19.97 C62.56 13.03, 57.61 10.34, 43.51 -1.72 M68.9 19.51 C61.28 12.6, 53.95 5.57, 44.45 -3.16 M74.76 19.5 C66.44 13.11, 56.46 1.69, 48.46 -4.12 M76.56 19.75 C67.98 13.27, 60.72 6.13, 50.17 -3.54 M79.7 18.63 C70.17 9.04, 60.49 -0.53, 55.05 -3.8 M81.41 19.27 C72.06 10.17, 60.29 1.79, 54.99 -3.39 M88.72 20.48 C78.66 14.45, 75.03 5.55, 62.82 -3.01 M86.99 18.96 C79.28 11.39, 71.7 5.9, 61.97 -3.26 M94 19.21 C85.98 11.48, 80.72 7.43, 67.44 -2.73 M92.65 17.33 C85.19 10.76, 77.27 4.17, 67.49 -3.27 M97.63 17.96 C89.75 12.45, 82.59 4.33, 71.81 -3.93 M99.3 18.47 C94.22 13.74, 89.48 8.72, 73.32 -4.36 M105.92 18.85 C100.2 11.33, 91.42 7.3, 80.72 -2.4 M104.78 18.13 C97.28 11.6, 89.83 4.74, 80.24 -3.05 M111.29 19.52 C99.95 10.29, 92.58 1.36, 84.2 -5.36 M110.65 18.35 C102.06 11.03, 94.76 2.49, 86.27 -4 M115.46 19.81 C111.61 12.69, 105.43 10.16, 92.9 -5.61 M116.25 18.13 C109.06 11.4, 100.04 3.26, 91.07 -4.03 M124.45 16.41 C113.16 9.86, 104.83 2.33, 97.45 -2.11 M122.76 18.24 C114.98 10.02, 107.42 3.19, 98.16 -4.73 M126.57 15.4 C119.84 8.37, 108.64 1.86, 103.89 -2.13 M128.01 17.74 C122.26 12.37, 114.95 6.28, 103.33 -4.51 M135.51 18.96 C127 9.93, 123.34 7.69, 108.96 -5.89 M134.59 16.79 C126.75 12.07, 119.92 4, 108.86 -5.14 M141.42 15.96 C131.8 9.34, 124.36 1.88, 115.55 -4.64 M139.83 17.31 C132.48 10.86, 126.03 4.4, 115.92 -3.85 M144.84 18.57 C136.2 7.4, 127.97 0.25, 120.05 -5.35 M146.67 17.63 C138.77 9.81, 130.06 2.66, 120.78 -3.85 M151.82 16.91 C145.55 11.7, 135.07 5.22, 126.94 -5.43 M151.72 17.2 C146.21 12.42, 140.97 7.42, 126.5 -5.09 M157 17.68 C150.97 10.05, 141.77 3.05, 131.99 -6.1 M157.29 17.31 C149.67 10.4, 141.67 2.04, 132.86 -3.51 M165.54 16.76 C158.34 12.54, 151.17 3.69, 141.29 -5.75 M164.24 15.72 C156.37 11.34, 151.74 4.94, 138.52 -4.33 M167.46 17.17 C163.43 10.33, 156.65 4.79, 145.98 -2.67 M169.27 14.72 C160.93 8.59, 153 2.38, 146.56 -4.79 M176.54 15.04 C167.62 10.22, 156.15 -0.02, 149.53 -3.75 M174.75 15.14 C170.54 11.71, 164.69 6.93, 150.73 -4.67 M180.66 13.59 C176.55 9.24, 168.84 3.18, 159.18 -6.53 M181.98 16.37 C174.07 9.01, 168.84 4.03, 157.88 -4.39 M187.72 15.71 C177.09 8.57, 169.74 2.61, 165.27 -3.88 M186.1 15.05 C178.66 9.17, 170.87 2.36, 164.14 -5.58 M191.21 13.28 C184.3 5.94, 174.9 -0.03, 168.66 -6.1 M192.55 14.43 C184.46 6.97, 175.17 0.18, 169.35 -5.08 M194.11 10.52 C188.99 5.74, 184.02 1.34, 176.06 -5.52 M191.92 9.76 C186.76 4.88, 181.47 0.35, 175.28 -5.57 M193.31 2.85 C191.17 1.59, 188.72 -0.01, 182.31 -6.94 M191.81 4.65 C187.72 0.48, 184.49 -2.67, 181.24 -6.11 M193.07 -0.47 C192.03 -1.34, 190.95 -3.33, 187.5 -5.96 M192.95 -0.74 C191.35 -1.74, 190.27 -3.31, 187.8 -5.68" stroke="#ffc9c9" stroke-width="0.5" fill="none"></path><path d="M1.29 -1.5 C-1.26 6.2, -0.54 12.59, -0.12 22.07 M0.61 0.91 C0.3 4.07, 0.49 8.75, -0.84 22.14 M-1.88 22.19 C70.34 17.71, 145.36 13.39, 192.06 17.07 M-0.3 21.71 C56 19.09, 111.65 16.73, 190.44 16.27 M189.4 14.32 C192.42 10.42, 189.9 4.48, 190.35 -4.77 M190.9 14.81 C191.48 9.75, 190.51 3.42, 192.63 -3.78 M193.42 -4.58 C129.63 -1.12, 70.9 -1.27, -1.94 -0.9 M191.36 -2.78 C137.81 -4.43, 83.91 -3.15, 0.74 -0.45 M0 0 C0 0, 0 0, 0 0 M0 0 C0 0, 0 0, 0 0" stroke="#e03131" stroke-width="1" fill="none"></path></g></g><mask></mask><g stroke-linecap="round"><g transform="translate(57.13737361570486 100.55558644562251) rotate(0 103.33732631772955 7.294174449820105)" fill-rule="evenodd"><path d="M0 0 C0 0, 0 0, 0 0 M0 0 C0 0, 0 0, 0 0 M1.89 3.1 C3.04 1.69, 4.1 1.19, 6.05 -0.51 M2.42 3.3 C3.62 1.83, 4.55 0.52, 5.59 -0.15 M3.94 6.95 C5.65 5.68, 8.07 4.19, 11.12 -1.7 M4.78 6.84 C6.94 4.29, 9.41 1.54, 11.09 -1.16 M8.91 10.49 C11.09 5.62, 13.56 4.17, 15.92 0.69 M7.4 9.11 C10.69 6.6, 12.37 4.38, 16.39 -0.14 M11.35 12.25 C12.62 6.54, 18.75 2.6, 23.06 -0.27 M9.69 12.14 C14.92 7.81, 18.47 3.12, 21.78 -0.08 M13.35 15.28 C15.12 12.07, 21.41 4.23, 27.82 -1.33 M13.19 16.48 C17.46 10.13, 21.32 5.23, 28.49 -0.69 M14.7 19.44 C20.73 13.98, 25.09 7.64, 33.02 -1.88 M15.71 19.51 C21.63 10.11, 29.74 2.45, 33.24 -1.48 M16.99 21.24 C23.55 12.38, 32.71 6.45, 39.18 -1.05 M17.5 22.71 C24 14.93, 31.39 6.15, 38.56 -1.81 M20.97 23.28 C31.29 12.73, 36.38 6.39, 43.61 0.1 M23.64 22.56 C28.94 16.42, 34.45 11.26, 43.86 -1.53 M28.75 22.64 C34.61 12.53, 42.93 2.96, 50.05 -0.12 M28.97 22.93 C35.98 12.58, 44.88 2.96, 49.82 -1.67 M32.48 23.71 C41.56 14.07, 44.94 6.6, 56.65 -2.5 M33.69 22.02 C39.39 16.94, 43.35 11.29, 55.3 -2.75 M39.7 22.81 C48.76 12.61, 56.64 4.31, 60 -0.73 M39.73 20.99 C43.95 15.62, 47.81 12.1, 60.35 -2.61 M46.06 21.57 C51.26 13.84, 56.48 7.92, 67.16 -3.83 M46.34 21.44 C50.08 14.93, 57.19 8.81, 65.15 -2.73 M52.09 20.33 C54.99 16.26, 60.02 7.66, 73.12 -3 M49.77 20.88 C58.88 11.83, 66.06 3.3, 72.38 -3.02 M55.11 19.73 C64.58 10.76, 72.11 2.4, 76.73 -2 M56.22 20.33 C62.25 13.48, 69.34 5.84, 76.16 -4.14 M62.75 21.86 C67.26 13.85, 71.71 8.5, 80.84 -3.01 M62.21 19.59 C66.07 14.4, 70.44 9.13, 81.05 -3.31 M68.92 19.87 C73.2 15.05, 77.91 5.46, 88.25 -5.03 M67.48 20.88 C74.24 12.5, 80.06 7.28, 86.99 -2.64 M73.84 20.11 C79.97 12.62, 85.29 5.32, 95.16 -2.75 M72.06 21.06 C80.08 12.08, 86.29 4.48, 93.67 -3.92 M76.1 19.74 C83.14 12.91, 91.43 5.01, 99.17 -4.91 M77.16 19.28 C84.24 12.05, 91.95 5.15, 99.45 -4.95 M82.06 19.86 C89.78 13.33, 95.99 7.65, 103.37 -4.17 M83.53 20.21 C89.06 15.01, 93.24 8.24, 104.42 -3.33 M89.84 19.15 C96.63 10.39, 103.45 1.78, 108.27 -3.53 M88.46 19.68 C97.16 10.22, 103.64 2.78, 109.26 -4.81 M93.42 19.96 C100.28 13.72, 104.83 9.88, 113.33 -3.14 M94.7 18.92 C101.6 12.4, 106.39 4.7, 115.67 -4.06 M98.62 17.97 C104.42 15.3, 110.08 9.07, 120.87 -6.74 M99.49 20.2 C104.73 12.65, 111.09 6.64, 121.28 -5 M104.51 19.3 C114.95 9.66, 120.31 0.64, 124.21 -3.48 M104.83 18.05 C109.19 14.08, 114.75 7.79, 126.68 -4.62 M111.48 18.13 C120.22 10.36, 128.22 -0.61, 131.62 -6.33 M110.51 18.92 C116.73 12.38, 119.81 8.35, 132.31 -5.3 M117.22 18.85 C119.43 12.85, 127.14 8.78, 135.76 -6.95 M117.06 19.41 C119.84 13.8, 124.49 9.33, 136.87 -5.59 M120.79 17.64 C127.96 10.32, 132.87 4.8, 141.72 -6.03 M122.69 17.91 C129.1 10.52, 133.83 3.38, 142.26 -6.56 M128.01 19.64 C134.44 13.81, 137.43 6.27, 147.03 -7.22 M127.7 17.8 C134.53 10.32, 142.35 0.73, 148.57 -5.58 M131.48 16.55 C139.27 10.04, 144.93 4.19, 153.7 -7.48 M133.37 17.18 C139.06 11.62, 143.78 4.46, 153 -6.65 M139.29 16.01 C144.71 11.65, 149.04 6.41, 157.62 -7.94 M139.64 18.23 C147.22 8.44, 155.84 -1.27, 158.26 -5.21 M143.77 18.98 C148.39 9.79, 156.14 7.14, 164.62 -8.29 M142.77 16.73 C151.88 9.69, 159.1 1.27, 165.51 -6.46 M149.44 17.37 C155.35 7.02, 164.9 -2.33, 170.47 -4.66 M150.28 17.68 C154.48 10.99, 161.6 3.09, 169.34 -7.15 M154.49 15.13 C160.85 9.64, 171.28 0.68, 176.9 -7.99 M155.29 16.52 C160.86 9.9, 168.26 1.44, 174.7 -5.91 M158.73 17.92 C166.54 10.04, 167.92 7.73, 181.05 -6.89 M161.51 16.83 C167.65 7.46, 174.18 -0.18, 181.33 -6.09 M163.72 15.23 C172.92 6.71, 182.26 -2.65, 187.48 -6.05 M166.21 16.5 C170.4 11.01, 175.65 4.22, 186.64 -7.98 M172.72 17.96 C176.38 12.86, 180.26 5.42, 191.52 -7.32 M171.16 17.37 C177.69 10.27, 182.34 3.15, 190.05 -5.99 M176.15 15.59 C182.79 10.77, 187.3 5.61, 194.69 -3.36 M176.99 16.53 C180.64 11.58, 185.66 6.45, 193.34 -2.12 M183.58 13.8 C186.58 10.5, 187.49 9.37, 195.99 0.72 M182.18 15.92 C186.37 12.31, 189.7 8.68, 194.86 0.41 M187.73 16.47 C190.31 12.41, 193.16 10.72, 196.95 4.97 M187.9 16.41 C190.64 12.91, 192.04 10.04, 197.41 3.29 M192.94 15.73 C194.78 14.53, 195.45 11.09, 200 6.76 M193.33 15.84 C196.15 12.78, 197.68 9.85, 200.08 7 M198.93 15.69 C199.94 13.05, 201.93 12.63, 203.46 9.19 M199.14 14.85 C200.25 14.05, 201.3 12.16, 203.39 9.65 M204.44 14.75 C204.71 14.2, 205.32 13.65, 205.72 13.24 M204.52 14.73 C204.91 14.28, 205.11 13.91, 205.8 13.24 M16.91 21.7 C16.91 21.7, 16.91 21.7, 16.91 21.7 M16.91 21.7 C16.91 21.7, 16.91 21.7, 16.91 21.7 M22.86 21.2 C19.04 15.93, 12.45 14.14, 5 5.32 M22.25 21.09 C15.55 15.43, 7.77 9.07, 3.75 5.99 M28.52 20.66 C20.84 14.19, 12.68 4.46, 2.95 -1.91 M28.68 20.92 C21.39 16.09, 15.45 9.44, 1.71 -2.2 M34.33 19.64 C30.53 17.89, 25.22 11.37, 7.95 -1.25 M34.09 22.05 C23.59 12.02, 13.47 2.6, 7.7 -2.49 M40.67 19.09 C29.48 10.36, 21.51 3.14, 13.18 -2.89 M39.92 20.64 C32.13 13.67, 22.17 6.33, 14.38 -3.16 M46.46 21.13 C38.86 15.82, 33.28 7.44, 18.51 -2.97 M46.15 21.33 C35.51 11.36, 26.77 4.44, 19.49 -2.58 M51.47 19.05 C42.77 13.28, 37.4 6.11, 24.06 -2.2 M50.6 19.27 C44.81 14.13, 38.26 7.91, 24.49 -3.73 M59.22 19.21 C48.35 12.67, 40.48 6.4, 32.55 -3.88 M58.76 20.17 C52.92 14.53, 46 10.29, 29.78 -4.24 M63.35 19.09 C59.16 15.5, 52.83 8.33, 36.23 -3.98 M63.08 20.31 C57.83 13.59, 50.16 7.81, 36.56 -2.31 M69.5 19.83 C61.99 14.95, 54.93 5.44, 43.19 -5.11 M69.8 19.18 C62.94 13.56, 54.65 7.14, 42.1 -2.66 M73.67 20.22 C68.06 12.72, 61.15 9.31, 47.28 -3.96 M74.26 19.58 C64.79 9.38, 53.24 0.16, 48.6 -3.94 M81.13 18.66 C70.15 8.97, 60.26 2.51, 54.47 -5.34 M80.69 19.56 C71.3 9.64, 58.91 0.05, 54.48 -4.63 M88.74 19.12 C79.13 14.1, 73.81 7.39, 61.73 -4.18 M87.55 18.53 C76.93 11.86, 68.8 2.75, 60.19 -3.08 M90.87 19.77 C83.75 12.77, 76.57 5.36, 67.38 -3.58 M92.34 17.85 C84.67 10.84, 76.12 4.24, 65.51 -5.4 M97.78 18.92 C93.06 14.84, 85.92 7.73, 73.02 -6.23 M98.9 18.92 C91.77 13.46, 86.26 9, 72.4 -4.86 M106.44 16.96 C93.11 10.33, 84.43 -1.01, 77.84 -4.4 M105.23 19.18 C97.35 12.06, 88.32 5.12, 78.29 -5.83 M110.97 18.41 C102.85 8.01, 92.16 1.54, 85.56 -6.03 M110.8 18.14 C100.38 8.27, 89.8 0.16, 83.88 -5.79 M116.48 16.44 C107.2 11.67, 99.18 4.68, 90.73 -4.68 M115.36 18.03 C109.6 12.2, 103.21 6.21, 88.46 -5.23 M121.43 18.86 C111.91 9.42, 102.15 1.36, 96.67 -7.03 M122.25 17.88 C116.4 12.08, 110.27 5.54, 94.76 -5.05 M128.56 18.1 C118.74 10.45, 110.37 -0.65, 101.83 -6.84 M128.26 17.47 C122.73 11.99, 115.58 5.77, 100.19 -6.52 M135.21 17.19 C124.53 12.18, 116.33 4.56, 106.64 -7.03 M132.82 17.45 C124.62 10.02, 116.42 2.99, 106.74 -5.23 M139.21 18.3 C129.27 5.94, 119.03 -0.97, 111.89 -5.66 M138.98 15.92 C130.47 9.78, 121.26 2.06, 112.19 -7.07 M145.29 16.77 C134.65 7.42, 125.44 -0.63, 116.64 -7.37 M144.57 16.51 C135.53 8.79, 125.58 -0.33, 119.02 -7.57 M151.89 15.05 C143.25 10.62, 134.25 2.25, 124.57 -5.43 M152.13 16.39 C143.82 10.55, 137.54 5.06, 123.68 -7.87 M157.59 16.67 C151.01 12.39, 143.47 6.67, 130.85 -7.72 M156.12 16.3 C147.68 8.31, 138.28 0.13, 130.38 -6.71 M162.98 14.83 C153.9 6.53, 144.6 0.71, 136.5 -6.79 M161.81 15.23 C155.61 9.6, 148.33 3.59, 136.43 -6.35 M168.99 14.38 C160.29 6.65, 149.77 0.07, 142.32 -7.29 M168.59 14.41 C157.52 5.59, 147.38 -3.16, 141.07 -7.96 M175.82 13.79 C168.63 9.71, 160.68 2.75, 147.22 -7.94 M173.71 15.38 C167.56 9.9, 162.43 5.06, 146.74 -7.56 M181.27 15.09 C176.21 11.49, 169.78 6.65, 155.1 -7.62 M179.66 16.01 C172.33 8.82, 163.6 1.34, 152.92 -8.02 M186.67 16.51 C178.45 7.76, 175.22 3.69, 161.22 -7.37 M184.98 15.14 C181.19 9.38, 173.81 3.65, 159.43 -8.99 M191.18 14.42 C184.26 9.44, 176.17 1.14, 166.12 -9.81 M191.53 14.63 C182.26 6.49, 172.38 -0.89, 165.26 -8.27 M198.75 13.29 C190.15 6.02, 178.16 -1.86, 169.92 -9.15 M198.36 15.39 C190.39 7.53, 182.41 0.87, 169.86 -9.76 M204.4 15.68 C194.44 6.75, 186.55 0.54, 175.28 -9.25 M202.95 13.4 C193.56 7.24, 185.59 -1.69, 176.98 -9.47 M205.92 12.85 C197.98 4.56, 190.13 -2.52, 181.69 -9.65 M207.82 12.39 C199.57 6.12, 191.37 -1.8, 181.93 -9.42" stroke="#ffc9c9" stroke-width="0.5" fill="none"></path><path d="M0.87 1.01 C7.01 6.41, 9.05 14.64, 17.71 20.43 M-0.47 0.69 C5.8 6, 10.99 13, 17.14 22.28 M18.34 20 C56.25 20.84, 98.64 21.06, 204.64 12.79 M15.9 21.75 C84.87 19.76, 152.06 16.96, 205.68 15.05 M207.14 14.86 C200.25 4.63, 193.74 -4.31, 190.2 -7.69 M205.17 14.01 C202.11 8.44, 198.72 3.76, 190.07 -7.41 M189.63 -7.15 C148.41 -6, 111.14 -7.55, 1.18 1.78 M189.48 -7.29 C133.23 -4.29, 77.17 -1.42, 0.25 -0.65 M0 0 C0 0, 0 0, 0 0 M0 0 C0 0, 0 0, 0 0" stroke="#e03131" stroke-width="1" fill="none"></path></g></g><mask></mask><g transform="translate(182.64443701356004 10) rotate(0 16.700000762939453 10)"><text x="0" y="0" font-family="Virgil, Segoe UI Emoji" font-size="16px" fill="#e03131" text-anchor="start" style="white-space: pre;" direction="ltr" dominant-baseline="text-before-edge">Plow</text></g><g stroke-linecap="round"><g transform="translate(191.97028035649686 27.26273129437243) rotate(0 -6.116152079869693 17.080619892934664)"><path d="M0.71 0.64 C-2.11 13.37, -6.91 23.75, -12.95 33.16 M0.63 0.21 C-1.72 6.77, -5.75 15.21, -11.68 33.96" stroke="#e03131" stroke-width="1" fill="none"></path></g><g transform="translate(191.97028035649686 27.26273129437243) rotate(0 -6.116152079869693 17.080619892934664)"><path d="M-11.47 17 C-10.4 24.09, -11.06 29.13, -13.29 33.89 M-11.54 16.62 C-11.31 19.62, -12.52 24.35, -12.18 34.59" stroke="#e03131" stroke-width="1" fill="none"></path></g><g transform="translate(191.97028035649686 27.26273129437243) rotate(0 -6.116152079869693 17.080619892934664)"><path d="M-0.11 20.83 C-3.02 26.59, -7.64 30.29, -13.29 33.89 M-0.19 20.45 C-2.58 22.68, -6.39 26.53, -12.18 34.59" stroke="#e03131" stroke-width="1" fill="none"></path></g></g><mask></mask></svg>