<svg version="1.1" xmlns="http://www.w3.org/2000/svg" viewBox="0 0 258.4170908154954 315.9839881010537" width="516.8341816309908" height="631.9679762021074">
  <!-- svg-source:excalidraw -->
  
  <defs>
    <style class="style-fonts">
      @font-face {
        font-family: "Virgil";
        src: url("https://excalidraw.com/Virgil.woff2");
      }
      @font-face {
        font-family: "Cascadia";
        src: url("https://excalidraw.com/Cascadia.woff2");
      }
    </style>
    
  </defs>
  <rect x="0" y="0" width="258.4170908154954" height="315.9839881010537" fill="#ffffff"></rect><g stroke-linecap="round" transform="translate(154.9645115899517 75.47019854576516) rotate(36.26767410572393 36.00139163650397 14.388900841681227)"><path d="M1.92 1.66 C1.92 1.66, 1.92 1.66, 1.92 1.66 M1.92 1.66 C1.92 1.66, 1.92 1.66, 1.92 1.66 M1.65 8.06 C4.02 6.46, 3.82 4.68, 8.21 0.52 M1.65 8.06 C4.03 5.52, 6.28 2.81, 8.21 0.52 M1.39 14.46 C4.52 10.26, 5.67 8.11, 13.2 0.88 M1.39 14.46 C5.24 9.94, 7.17 6.43, 13.2 0.88 M1.79 20.1 C5.71 13.93, 12.37 7.65, 18.84 0.48 M1.79 20.1 C5.04 15.86, 10.01 10.2, 18.84 0.48 M2.18 25.75 C6.95 20.75, 13.89 15.86, 23.83 0.84 M2.18 25.75 C8.18 19.92, 12.88 13.63, 23.83 0.84 M4.54 29.13 C14.92 21.36, 20.58 9.79, 28.82 1.2 M4.54 29.13 C12.2 20.78, 19.98 11.73, 28.82 1.2 M10.19 28.73 C14.44 22.88, 23.88 12.09, 34.46 0.81 M10.19 28.73 C15.08 21.91, 22.61 15.14, 34.46 0.81 M15.17 29.09 C25.3 16.58, 36.11 6.9, 39.45 1.17 M15.17 29.09 C20.43 22.59, 26.41 15.49, 39.45 1.17 M20.82 28.7 C30.42 17.96, 38.27 5.84, 45.09 0.77 M20.82 28.7 C26.66 20.64, 34.08 12.37, 45.09 0.77 M25.8 29.06 C36.16 19.18, 40.76 11.68, 50.08 1.13 M25.8 29.06 C34.61 20.02, 41.56 9.77, 50.08 1.13 M30.79 29.42 C36.68 21.36, 44.87 15.22, 55.72 0.74 M30.79 29.42 C40.35 19.24, 47.9 9.5, 55.72 0.74 M36.43 29.02 C43.57 19.34, 50.94 13.04, 60.71 1.1 M36.43 29.02 C44.01 20.67, 50.86 11.37, 60.71 1.1 M41.42 29.38 C47.52 22.68, 54.79 15.2, 65.7 1.46 M41.42 29.38 C48.62 21.13, 56.83 12.49, 65.7 1.46 M47.06 28.99 C54.1 21.07, 59.41 12.39, 70.03 2.57 M47.06 28.99 C52.71 23.5, 57.06 16.54, 70.03 2.57 M52.05 29.35 C57.29 21.12, 66.3 16.92, 73.05 5.2 M52.05 29.35 C59.32 21.23, 65.62 13.07, 73.05 5.2 M57.69 28.95 C60.57 25.84, 67.35 18.52, 72.78 11.59 M57.69 28.95 C60.74 24.52, 63.23 22.29, 72.78 11.59 M62.68 29.31 C66.44 27.7, 68.5 23.31, 73.18 17.24 M62.68 29.31 C65.31 26.18, 68.95 22.74, 73.18 17.24 M67.01 30.43 C69.19 27.88, 70.31 26.9, 71.6 25.14 M67.01 30.43 C68.52 28.51, 70.37 26.62, 71.6 25.14 M4.32 28.56 C4.32 28.56, 4.32 28.56, 4.32 28.56 M4.32 28.56 C4.32 28.56, 4.32 28.56, 4.32 28.56 M9.96 28.17 C7.92 26.13, 6.31 24.92, 3.17 22.27 M9.96 28.17 C8.17 26.36, 5.6 24.73, 3.17 22.27 M16.36 28.43 C11.67 24.18, 7.97 20.89, 2.78 16.62 M16.36 28.43 C11.7 24.53, 8.58 20.92, 2.78 16.62 M22.76 28.69 C15.48 25.7, 11.61 20.06, 2.38 10.98 M22.76 28.69 C16.21 23.78, 11.37 18.69, 2.38 10.98 M28.4 28.3 C22.12 25.22, 18.32 19.1, 1.99 5.34 M28.4 28.3 C18.85 19.89, 8.42 11.52, 1.99 5.34 M34.8 28.56 C27.22 20.36, 15.34 13.84, 3.1 1.01 M34.8 28.56 C23.53 19.42, 13.13 10.64, 3.1 1.01 M41.2 28.82 C34.03 20.07, 25.81 16.42, 7.23 -0.7 M41.2 28.82 C30.43 20.75, 20.63 10.53, 7.23 -0.7 M46.84 28.43 C36.06 20.28, 26.76 9.92, 13.63 -0.44 M46.84 28.43 C34.75 18.68, 23.55 7.3, 13.63 -0.44 M53.24 28.69 C43.34 17.84, 32.26 10.95, 20.03 -0.18 M53.24 28.69 C42.39 18.77, 30.57 9.4, 20.03 -0.18 M59.64 28.95 C50.19 19.49, 40.09 9.32, 25.67 -0.57 M59.64 28.95 C48.86 20.36, 39.58 10.35, 25.67 -0.57 M65.28 28.56 C50.63 15.54, 38.1 6.67, 32.07 -0.31 M65.28 28.56 C55.2 19.95, 45.21 10.55, 32.07 -0.31 M69.41 26.85 C56.79 18.74, 45.86 5.7, 38.47 -0.05 M69.41 26.85 C61.37 19.23, 52.19 13.42, 38.47 -0.05 M72.04 23.83 C62.6 15.85, 49.92 4.46, 44.11 -0.44 M72.04 23.83 C65.16 18.39, 59.5 12.49, 44.11 -0.44 M72.4 18.84 C66.28 11.61, 58.65 8.96, 50.51 -0.18 M72.4 18.84 C64.68 10.86, 55.22 4.77, 50.51 -0.18 M72 13.2 C65.79 7.15, 61.1 2.77, 56.91 0.08 M72 13.2 C66.03 7.27, 61.05 3.04, 56.91 0.08 M72.36 8.21 C69.92 4.21, 65.99 2.52, 62.55 -0.32 M72.36 8.21 C68.24 5.14, 65.3 1.93, 62.55 -0.32" stroke="#ffec99" stroke-width="0.5" fill="none"></path><path d="M7.19 0 M7.19 0 C22.97 -0.6, 35.37 1.3, 64.81 0 M7.19 0 C20.16 -1.04, 33.48 -0.24, 64.81 0 M64.81 0 C67.89 -1.29, 72.18 3.07, 72 7.19 M64.81 0 C69.13 -0.77, 71.55 4.6, 72 7.19 M72 7.19 C73.31 12.23, 71.25 14.7, 72 21.58 M72 7.19 C71.69 11.64, 72.57 14.54, 72 21.58 M72 21.58 C70.98 24.99, 69.07 27.88, 64.81 28.78 M72 21.58 C74.03 27.96, 67.96 28.58, 64.81 28.78 M64.81 28.78 C53.92 29.85, 40.19 27.94, 7.19 28.78 M64.81 28.78 C51.48 28.51, 37.22 28.4, 7.19 28.78 M7.19 28.78 C2.63 27.57, 1.61 27.45, 0 21.58 M7.19 28.78 C3.29 30.43, 1.39 24.45, 0 21.58 M0 21.58 C-0.43 17.2, 0.28 11.69, 0 7.19 M0 21.58 C-0.38 18.4, 0.38 14.16, 0 7.19 M0 7.19 C1.09 3.04, 2.78 -0.47, 7.19 0 M0 7.19 C1.75 4.3, 2.29 -1.87, 7.19 0" stroke="#f08c00" stroke-width="1" fill="none"></path></g><g stroke-linecap="round" transform="translate(10.542872594368873 241.7314115448422) rotate(0 81.99843446780886 12.61682679105693)"><path d="M0.67 3.23 C0.67 3.23, 0.67 3.23, 0.67 3.23 M0.67 3.23 C0.67 3.23, 0.67 3.23, 0.67 3.23 M0.41 9.63 C3.67 6.47, 5.09 5.15, 7.62 1.33 M0.41 9.63 C2.47 6.36, 5.06 4.15, 7.62 1.33 M0.15 16.03 C5.17 11.31, 8.46 7.03, 13.27 0.93 M0.15 16.03 C3.99 12.54, 5.57 10.19, 13.27 0.93 M1.85 20.16 C8.05 15.25, 13.28 5.98, 18.25 1.29 M1.85 20.16 C6.95 14.58, 12.05 8, 18.25 1.29 M2.9 25.05 C9.76 16.6, 18.12 9.84, 23.9 0.9 M2.9 25.05 C7.72 19.15, 13.66 13.21, 23.9 0.9 M7.23 26.16 C14.21 20.15, 18.84 11.68, 28.88 1.26 M7.23 26.16 C11.43 19.61, 16.47 15.45, 28.88 1.26 M12.88 25.77 C17.65 20.6, 25.03 10.63, 34.53 0.86 M12.88 25.77 C20.55 15.75, 30.91 6.26, 34.53 0.86 M17.86 26.13 C23 21.84, 28.89 13.41, 39.51 1.22 M17.86 26.13 C23.74 21.06, 29.44 14.46, 39.51 1.22 M23.51 25.74 C27.56 19.98, 36.92 12.72, 44.5 1.58 M23.51 25.74 C28.74 17.84, 35.82 11.17, 44.5 1.58 M28.5 26.1 C35.53 16.74, 42.27 9.53, 50.14 1.19 M28.5 26.1 C34.08 19.8, 39.8 13.18, 50.14 1.19 M33.48 26.46 C42.15 17.85, 50.4 5.64, 55.13 1.55 M33.48 26.46 C37.18 21.94, 42.01 16.69, 55.13 1.55 M39.13 26.06 C44.11 19.71, 50.45 13.32, 60.78 1.16 M39.13 26.06 C44.46 21.36, 48.47 16.22, 60.78 1.16 M44.11 26.42 C51.44 18.71, 57.85 8.8, 65.76 1.52 M44.11 26.42 C50.48 18.55, 55.26 13.41, 65.76 1.52 M49.76 26.03 C56.01 19.16, 60.77 13.04, 71.41 1.12 M49.76 26.03 C55.04 18.39, 60.86 12.2, 71.41 1.12 M54.74 26.39 C63.8 16.98, 73.45 6.61, 76.39 1.48 M54.74 26.39 C59.22 20.32, 63.34 15.45, 76.39 1.48 M60.39 25.99 C66.46 16.37, 72.44 10.27, 82.04 1.09 M60.39 25.99 C64.57 20.24, 68.33 16.19, 82.04 1.09 M65.37 26.35 C71.75 17.15, 80.77 9.64, 87.02 1.45 M65.37 26.35 C72.83 19.4, 79.49 10.01, 87.02 1.45 M71.02 25.96 C75.36 21.66, 80.87 12.99, 92.67 1.05 M71.02 25.96 C78.79 18.39, 85.88 9.32, 92.67 1.05 M76 26.32 C85.39 17.91, 91.7 10.64, 97.65 1.41 M76 26.32 C84.47 17.86, 91.88 8.57, 97.65 1.41 M81.65 25.92 C88.05 19.74, 95.86 9.06, 103.3 1.02 M81.65 25.92 C89.2 18.71, 95.36 9.81, 103.3 1.02 M86.63 26.28 C90.06 19.27, 98.73 15.55, 108.28 1.38 M86.63 26.28 C93.46 18.66, 99.01 10.74, 108.28 1.38 M92.28 25.89 C99.19 16.01, 107.72 9.39, 113.93 0.98 M92.28 25.89 C98.77 17.36, 106.68 8.11, 113.93 0.98 M97.26 26.25 C104.1 19.87, 110.14 12.92, 118.91 1.34 M97.26 26.25 C103.36 19.31, 109.82 12.1, 118.91 1.34 M102.91 25.85 C111.09 16.54, 119 8.04, 124.56 0.95 M102.91 25.85 C106.59 20.17, 111.3 16.08, 124.56 0.95 M107.89 26.21 C114.13 19.68, 119.84 16.48, 129.54 1.31 M107.89 26.21 C115.09 18, 122.43 9.21, 129.54 1.31 M113.54 25.82 C117.67 19.12, 127.44 12.16, 135.19 0.91 M113.54 25.82 C121.53 17.16, 129.43 8.7, 135.19 0.91 M118.52 26.18 C127.29 17.74, 133.02 11.02, 140.17 1.27 M118.52 26.18 C123.61 19.75, 128.55 14.76, 140.17 1.27 M124.17 25.78 C130.84 19.95, 137.65 12.76, 145.82 0.88 M124.17 25.78 C131.11 18.51, 136.27 11.83, 145.82 0.88 M129.15 26.15 C132.62 18.94, 137.85 16.05, 150.8 1.24 M129.15 26.15 C137.25 17.05, 144.08 8.27, 150.8 1.24 M134.8 25.75 C137.19 21.35, 144 17.55, 155.79 1.6 M134.8 25.75 C142.71 18.31, 150.04 9.42, 155.79 1.6 M139.78 26.11 C144.37 20.43, 151.08 13.31, 161.43 1.21 M139.78 26.11 C148.22 17.14, 155.66 7.33, 161.43 1.21 M145.43 25.72 C151.84 16.5, 157.96 10.97, 164.45 3.83 M145.43 25.72 C150.59 18.78, 156.92 12.2, 164.45 3.83 M150.41 26.08 C154.64 18.44, 161.38 11.97, 164.19 10.23 M150.41 26.08 C155.07 20.66, 160.17 16.26, 164.19 10.23 M155.4 26.44 C157.09 22.92, 162.68 18.89, 164.58 15.87 M155.4 26.44 C157.91 23.58, 159.53 22.01, 164.58 15.87 M1.8 23.85 C1.8 23.85, 1.8 23.85, 1.8 23.85 M1.8 23.85 C1.8 23.85, 1.8 23.85, 1.8 23.85 M7.44 23.45 C5.37 22.41, 4.22 20.25, 0.65 17.55 M7.44 23.45 C5.81 22.53, 5 21.23, 0.65 17.55 M13.84 23.71 C12.74 22.44, 7.71 20.34, 1.01 12.56 M13.84 23.71 C9.85 19.19, 4.29 16.07, 1.01 12.56 M20.23 23.97 C12.53 17.27, 7.34 12.06, 1.37 7.57 M20.23 23.97 C14.73 18.34, 8.64 12.47, 1.37 7.57 M25.88 23.58 C17.75 14.43, 4.78 7.64, 1.73 2.59 M25.88 23.58 C19.65 17.31, 13.17 12.3, 1.73 2.59 M32.28 23.84 C24.24 18.95, 17.57 10.79, 4.35 -0.43 M32.28 23.84 C25.71 18.23, 20.47 13.17, 4.35 -0.43 M37.92 23.45 C27.33 13.61, 14.7 6.1, 8.48 -2.14 M37.92 23.45 C29.62 14.71, 20.36 6.93, 8.48 -2.14 M44.32 23.71 C35.11 14.77, 27.39 8.44, 14.13 -2.53 M44.32 23.71 C37.79 17.43, 30.16 9.87, 14.13 -2.53 M50.71 23.97 C39.84 12.98, 28.14 3.98, 20.53 -2.27 M50.71 23.97 C42.04 17.23, 33.46 8.42, 20.53 -2.27 M56.36 23.58 C47.46 13.5, 38.11 4.63, 26.92 -2.01 M56.36 23.58 C45.81 14.69, 36.93 6.04, 26.92 -2.01 M62.75 23.84 C57.57 18.24, 49.67 10.83, 32.57 -2.41 M62.75 23.84 C51.99 14.43, 43.2 6.08, 32.57 -2.41 M68.4 23.44 C63.93 17, 56.71 12.94, 38.96 -2.14 M68.4 23.44 C58.18 13.85, 46.35 2.96, 38.96 -2.14 M74.8 23.7 C63.47 14.77, 49.63 3.17, 44.61 -2.54 M74.8 23.7 C65.12 16.39, 56.13 7.95, 44.61 -2.54 M81.19 23.97 C75.87 17.38, 67.22 11.39, 51 -2.28 M81.19 23.97 C71.26 14.93, 60.31 4.63, 51 -2.28 M86.84 23.57 C76.68 13.09, 67.17 7.28, 57.4 -2.02 M86.84 23.57 C80.23 17.45, 74.91 13.76, 57.4 -2.02 M93.23 23.83 C87.35 15.85, 79.31 10.01, 63.05 -2.41 M93.23 23.83 C84.7 17.32, 78.32 10.79, 63.05 -2.41 M98.88 23.44 C90.62 14.32, 80.68 4.28, 69.44 -2.15 M98.88 23.44 C92.8 17.89, 86.98 11.98, 69.44 -2.15 M105.28 23.7 C98.78 18.62, 93.51 14.83, 75.09 -2.54 M105.28 23.7 C93.83 13.82, 82.23 4.35, 75.09 -2.54 M111.67 23.96 C106.8 16.7, 99.21 13.31, 81.48 -2.28 M111.67 23.96 C104.02 18.56, 98.42 13.5, 81.48 -2.28 M117.32 23.57 C109.61 14.27, 98.63 8.63, 87.88 -2.02 M117.32 23.57 C107.3 15.3, 95.46 4.25, 87.88 -2.02 M123.71 23.83 C116.17 15.72, 107.5 10.6, 93.53 -2.42 M123.71 23.83 C114.24 16.37, 107.36 8.73, 93.53 -2.42 M129.36 23.43 C119.22 17.33, 111.7 6.58, 99.92 -2.15 M129.36 23.43 C122.61 17.04, 116.87 11.6, 99.92 -2.15 M135.75 23.69 C124.88 13.39, 114.76 6.64, 105.57 -2.55 M135.75 23.69 C129.75 17.45, 122.07 12.54, 105.57 -2.55 M142.15 23.96 C135.06 17.47, 127.12 9.39, 111.96 -2.29 M142.15 23.96 C131.26 16.18, 121.83 5.48, 111.96 -2.29 M147.8 23.56 C139.11 17.3, 132.59 7.84, 118.36 -2.03 M147.8 23.56 C138.48 13.51, 127.33 6.35, 118.36 -2.03 M154.19 23.82 C144.76 14.19, 134.87 7.37, 124 -2.42 M154.19 23.82 C144.48 14.14, 133.1 5.91, 124 -2.42 M159.84 23.43 C146.61 13.03, 135.44 1.53, 130.4 -2.16 M159.84 23.43 C149.43 14.3, 136.96 3.15, 130.4 -2.16 M163.97 21.72 C154.5 13.44, 146.41 7.03, 136.05 -2.55 M163.97 21.72 C154.59 13.05, 144.42 3.29, 136.05 -2.55 M165.08 17.39 C155.92 10.1, 149.39 3.13, 142.44 -2.29 M165.08 17.39 C157.49 9.29, 148.47 2.33, 142.44 -2.29 M165.44 12.4 C160.13 5.02, 154.45 3.18, 148.84 -2.03 M165.44 12.4 C160.9 7.8, 155.17 2.64, 148.84 -2.03 M165.05 6.76 C161.84 3.51, 159.4 3.49, 154.48 -2.42 M165.05 6.76 C162.54 4.05, 158.47 1.51, 154.48 -2.42" stroke="#ffec99" stroke-width="0.5" fill="none"></path><path d="M6.31 0 M6.31 0 C38.51 -1.33, 73.24 0.65, 157.69 0 M6.31 0 C60.17 1.36, 115.84 1.11, 157.69 0 M157.69 0 C162.75 0.34, 163.66 2.37, 164 6.31 M157.69 0 C162.69 2.21, 163.83 1.74, 164 6.31 M164 6.31 C164.26 9.9, 162.86 15.91, 164 18.93 M164 6.31 C164.09 11.04, 164.68 16.66, 164 18.93 M164 18.93 C162.39 25.1, 161.73 24.88, 157.69 25.23 M164 18.93 C163.19 22.46, 162.48 22.99, 157.69 25.23 M157.69 25.23 C99.11 25.22, 40.18 26.69, 6.31 25.23 M157.69 25.23 C101.8 25.69, 45.94 26.18, 6.31 25.23 M6.31 25.23 C0.66 25.24, -1.71 23.21, 0 18.93 M6.31 25.23 C4.35 23.6, 2.22 22.9, 0 18.93 M0 18.93 C0.45 15.14, 0.51 12.61, 0 6.31 M0 18.93 C0.05 15.11, 0.01 11.19, 0 6.31 M0 6.31 C1.36 3.39, 0.34 1.89, 6.31 0 M0 6.31 C0.79 3.94, 0.52 1.55, 6.31 0" stroke="#f08c00" stroke-width="1" fill="none"></path></g><g stroke-linecap="round" transform="translate(22.007776941611496 258.37444369623074) rotate(17.760171290438436 2.1427969443509483 15.976692655859395)"><path d="M-0.13 1.22 C-0.13 1.22, -0.13 1.22, -0.13 1.22 M-0.13 1.22 C-0.13 1.22, -0.13 1.22, -0.13 1.22 M0.27 6.86 C1.25 5.59, 3.3 3.86, 4.86 1.58 M0.27 6.86 C2.37 4.95, 3.82 2.92, 4.86 1.58 M0.01 13.26 C1.27 11.91, 2.1 11.38, 4.6 7.97 M0.01 13.26 C1.63 11.04, 3.32 9.55, 4.6 7.97 M-0.25 19.65 C2.52 17.66, 3.22 14.58, 4.99 13.62 M-0.25 19.65 C1.13 17.85, 3.16 15.69, 4.99 13.62 M0.14 25.3 C1.54 24.1, 2.58 22.89, 4.73 20.01 M0.14 25.3 C1.66 23.57, 2.89 22.34, 4.73 20.01 M0.54 30.94 C2.2 29.65, 2.96 29.08, 5.13 25.66 M0.54 30.94 C2.09 28.92, 3.74 27.59, 5.13 25.66 M-0.2 30.71 C-0.2 30.71, -0.2 30.71, -0.2 30.71 M-0.2 30.71 C-0.2 30.71, -0.2 30.71, -0.2 30.71 M4.69 29.66 C3.9 28.51, 2.3 28.51, 0.16 25.72 M4.69 29.66 C3.23 28.38, 2.17 27.17, 0.16 25.72 M5.05 24.67 C3.47 22.96, 1 20.87, -0.23 20.08 M5.05 24.67 C4.07 23.8, 3.16 22.95, -0.23 20.08 M5.41 19.69 C4.44 19.08, 3.02 17.72, 0.13 15.09 M5.41 19.69 C4.14 18.31, 2.43 17.07, 0.13 15.09 M5.02 14.04 C4.06 13.39, 1.95 11.76, -0.27 9.45 M5.02 14.04 C3 12.26, 1.63 10.81, -0.27 9.45 M5.38 9.06 C4.3 7.99, 2.77 6.39, 0.09 4.46 M5.38 9.06 C4.52 7.71, 2.98 6.71, 0.09 4.46 M4.98 3.41 C4.12 2.49, 2.03 0.72, 1.21 0.13 M4.98 3.41 C3.86 2.38, 3.08 1.74, 1.21 0.13" stroke="#a5d8ff" stroke-width="0.5" fill="none"></path><path d="M1.07 0 M1.07 0 C2 -0.08, 2.83 -0.1, 3.21 0 M1.07 0 C1.79 -0.04, 2.6 0.08, 3.21 0 M3.21 0 C3.58 -1.99, 4.31 -1.06, 4.29 1.07 M3.21 0 C6.12 1.97, 2.45 1.17, 4.29 1.07 M4.29 1.07 C2.85 8.86, 5.23 19.02, 4.29 30.88 M4.29 1.07 C4.15 7.27, 3.69 14.7, 4.29 30.88 M4.29 30.88 C2.39 29.89, 3.72 30.08, 3.21 31.95 M4.29 30.88 C4.52 32.6, 3.33 30.76, 3.21 31.95 M3.21 31.95 C2.64 31.87, 2.27 31.82, 1.07 31.95 M3.21 31.95 C2.46 32.05, 1.75 32.04, 1.07 31.95 M1.07 31.95 C2.29 30.08, -1.26 30.46, 0 30.88 M1.07 31.95 C1.87 30.88, 2.01 30.97, 0 30.88 M0 30.88 C0.15 24.76, 0.87 17.61, 0 1.07 M0 30.88 C-0.98 24.65, -0.22 16.99, 0 1.07 M0 1.07 C0.88 1.37, -0.6 0.53, 1.07 0 M0 1.07 C1.73 1.13, 1.68 -0.53, 1.07 0" stroke="#1971c2" stroke-width="1" fill="none"></path></g><g stroke-linecap="round" transform="translate(57.97586721942457 257.65154255445196) rotate(17.760171290438436 2.1427969443509483 15.976692655859395)"><path d="M-0.13 1.22 C-0.13 1.22, -0.13 1.22, -0.13 1.22 M-0.13 1.22 C-0.13 1.22, -0.13 1.22, -0.13 1.22 M0.27 6.86 C1.98 4.9, 2.73 2.84, 4.86 1.58 M0.27 6.86 C1.51 5.59, 2.7 4.56, 4.86 1.58 M0.01 13.26 C2.18 10.93, 2.32 9.61, 4.6 7.97 M0.01 13.26 C0.84 12.22, 1.76 10.82, 4.6 7.97 M-0.25 19.65 C1.24 17.91, 2.98 15.38, 4.99 13.62 M-0.25 19.65 C0.91 18.38, 1.79 17.39, 4.99 13.62 M0.14 25.3 C1.98 24.17, 3.4 22.33, 4.73 20.01 M0.14 25.3 C1.08 24.12, 1.84 22.8, 4.73 20.01 M0.54 30.94 C2.32 29.69, 3.11 28.53, 5.13 25.66 M0.54 30.94 C1.35 29.92, 2.45 28.82, 5.13 25.66 M-0.2 30.71 C-0.2 30.71, -0.2 30.71, -0.2 30.71 M-0.2 30.71 C-0.2 30.71, -0.2 30.71, -0.2 30.71 M4.69 29.66 C4.09 28.39, 2.16 28.27, 0.16 25.72 M4.69 29.66 C3.45 28.98, 2.33 27.85, 0.16 25.72 M5.05 24.67 C2.69 23.83, 1.94 21.95, -0.23 20.08 M5.05 24.67 C4.05 23.77, 2.75 22.37, -0.23 20.08 M5.41 19.69 C4.37 17.68, 2.44 16.34, 0.13 15.09 M5.41 19.69 C3.99 18.76, 2.49 17.25, 0.13 15.09 M5.02 14.04 C3.8 13.12, 1.88 11.53, -0.27 9.45 M5.02 14.04 C4.25 13.21, 2.56 12.44, -0.27 9.45 M5.38 9.06 C3.55 6.71, 0.83 5.49, 0.09 4.46 M5.38 9.06 C3.57 7.75, 1.34 6.04, 0.09 4.46 M4.98 3.41 C3.87 2.13, 3.04 1.94, 1.21 0.13 M4.98 3.41 C3.43 2.47, 2.19 1.29, 1.21 0.13" stroke="#a5d8ff" stroke-width="0.5" fill="none"></path><path d="M1.07 0 M1.07 0 C1.54 -0.01, 1.98 0.05, 3.21 0 M1.07 0 C1.5 -0.02, 2.02 0.02, 3.21 0 M3.21 0 C5.75 1.26, 6.23 0.1, 4.29 1.07 M3.21 0 C3.4 -0.7, 2.31 -0.21, 4.29 1.07 M4.29 1.07 C6.46 6.11, 5.55 15.14, 4.29 30.88 M4.29 1.07 C3.58 7.77, 4.48 14.78, 4.29 30.88 M4.29 30.88 C4.45 33.28, 3.56 33.54, 3.21 31.95 M4.29 30.88 C2.73 31.22, 4.95 33.52, 3.21 31.95 M3.21 31.95 C2.63 31.97, 1.5 31.89, 1.07 31.95 M3.21 31.95 C2.62 31.92, 2.18 31.94, 1.07 31.95 M1.07 31.95 C2.05 32.54, -1.41 31.37, 0 30.88 M1.07 31.95 C2.58 31.22, 0.38 31.65, 0 30.88 M0 30.88 C1.1 20.85, -1.34 11.87, 0 1.07 M0 30.88 C0.86 21.67, 0.25 13.09, 0 1.07 M0 1.07 C0.23 -0.77, -1.56 -1.56, 1.07 0 M0 1.07 C-0.28 -1.68, -0.04 -0.79, 1.07 0" stroke="#1971c2" stroke-width="1" fill="none"></path></g><g stroke-linecap="round" transform="translate(93.8941659790978 258.82279142705) rotate(17.760171290438436 2.1427969443509483 15.976692655859395)"><path d="M-0.13 1.22 C-0.13 1.22, -0.13 1.22, -0.13 1.22 M-0.13 1.22 C-0.13 1.22, -0.13 1.22, -0.13 1.22 M0.27 6.86 C1.96 4.42, 4.18 2.46, 4.86 1.58 M0.27 6.86 C1.62 5.12, 3.36 3.7, 4.86 1.58 M0.01 13.26 C1.67 11.58, 2.98 10.71, 4.6 7.97 M0.01 13.26 C1.57 11.89, 3.11 10.14, 4.6 7.97 M-0.25 19.65 C0.07 17.57, 2.06 16.38, 4.99 13.62 M-0.25 19.65 C0.68 18.45, 2.03 17.51, 4.99 13.62 M0.14 25.3 C0.9 24.02, 2.18 22.32, 4.73 20.01 M0.14 25.3 C1.78 23.69, 2.95 22.07, 4.73 20.01 M0.54 30.94 C1.16 29.13, 3.1 27.86, 5.13 25.66 M0.54 30.94 C1.46 29.61, 2.97 27.99, 5.13 25.66 M-0.2 30.71 C-0.2 30.71, -0.2 30.71, -0.2 30.71 M-0.2 30.71 C-0.2 30.71, -0.2 30.71, -0.2 30.71 M4.69 29.66 C3.16 29.28, 2.63 27.37, 0.16 25.72 M4.69 29.66 C3.24 28.66, 1.68 27.36, 0.16 25.72 M5.05 24.67 C4.31 24.09, 3.09 23.25, -0.23 20.08 M5.05 24.67 C2.83 22.64, 0.6 21.04, -0.23 20.08 M5.41 19.69 C4 19.16, 3.02 16.94, 0.13 15.09 M5.41 19.69 C3.9 18.35, 2.36 16.88, 0.13 15.09 M5.02 14.04 C2.38 12.08, 0.8 10.29, -0.27 9.45 M5.02 14.04 C3.78 12.99, 2.48 11.62, -0.27 9.45 M5.38 9.06 C3.71 7.99, 3.01 7.41, 0.09 4.46 M5.38 9.06 C4.05 7.74, 2.94 7, 0.09 4.46 M4.98 3.41 C3.92 2.51, 2.97 0.98, 1.21 0.13 M4.98 3.41 C3.46 2.18, 2.17 0.79, 1.21 0.13" stroke="#a5d8ff" stroke-width="0.5" fill="none"></path><path d="M1.07 0 M1.07 0 C1.89 -0.01, 2.32 0.21, 3.21 0 M1.07 0 C1.54 -0.02, 1.93 -0.01, 3.21 0 M3.21 0 C2.77 -0.17, 4.63 1.41, 4.29 1.07 M3.21 0 C2.02 0.43, 5.93 -0.75, 4.29 1.07 M4.29 1.07 C4 10.89, 2.89 18.55, 4.29 30.88 M4.29 1.07 C3.18 8.91, 4.87 16.71, 4.29 30.88 M4.29 30.88 C3.92 30.65, 4.05 32.59, 3.21 31.95 M4.29 30.88 C3.86 30.62, 3 31.49, 3.21 31.95 M3.21 31.95 C2.49 32.11, 1.91 32.08, 1.07 31.95 M3.21 31.95 C2.72 31.88, 2.31 31.97, 1.07 31.95 M1.07 31.95 C0.5 33.45, -0.33 30.35, 0 30.88 M1.07 31.95 C2.36 30.62, 0.77 31.23, 0 30.88 M0 30.88 C1.08 17.41, 1.87 9.58, 0 1.07 M0 30.88 C0.38 21.82, -0.37 12.04, 0 1.07 M0 1.07 C-0.98 -0.58, 0.84 -0.86, 1.07 0 M0 1.07 C-1.6 -0.28, 2.51 -0.12, 1.07 0" stroke="#1971c2" stroke-width="1" fill="none"></path></g><g stroke-linecap="round" transform="translate(138.01120684695752 259.79883215421506) rotate(17.760171290438436 2.1427969443509483 15.976692655859395)"><path d="M-0.13 1.22 C-0.13 1.22, -0.13 1.22, -0.13 1.22 M-0.13 1.22 C-0.13 1.22, -0.13 1.22, -0.13 1.22 M0.27 6.86 C1.77 4.88, 2.72 2.96, 4.86 1.58 M0.27 6.86 C1.17 5.44, 2.91 4.19, 4.86 1.58 M0.01 13.26 C1.37 11.2, 3 9.3, 4.6 7.97 M0.01 13.26 C0.9 11.82, 2.44 10.76, 4.6 7.97 M-0.25 19.65 C1.51 18.22, 2.72 16.81, 4.99 13.62 M-0.25 19.65 C1.56 18.12, 3.05 15.76, 4.99 13.62 M0.14 25.3 C1.97 23.04, 2.79 22.1, 4.73 20.01 M0.14 25.3 C1.91 23.12, 4.03 21.44, 4.73 20.01 M0.54 30.94 C1.37 29.54, 2.3 28.8, 5.13 25.66 M0.54 30.94 C1.31 29.81, 2.43 28.58, 5.13 25.66 M-0.2 30.71 C-0.2 30.71, -0.2 30.71, -0.2 30.71 M-0.2 30.71 C-0.2 30.71, -0.2 30.71, -0.2 30.71 M4.69 29.66 C3.34 28.66, 1.36 26.45, 0.16 25.72 M4.69 29.66 C3.07 28.34, 1.54 27.08, 0.16 25.72 M5.05 24.67 C3.88 22.71, 2.51 22.19, -0.23 20.08 M5.05 24.67 C3.38 22.77, 0.95 21.02, -0.23 20.08 M5.41 19.69 C3.94 18.18, 2.55 17.01, 0.13 15.09 M5.41 19.69 C4.06 18.91, 3.16 17.28, 0.13 15.09 M5.02 14.04 C3.64 12.07, 1.63 11.98, -0.27 9.45 M5.02 14.04 C3.31 12.4, 1.4 11.11, -0.27 9.45 M5.38 9.06 C3.22 6.84, 1.24 5.85, 0.09 4.46 M5.38 9.06 C3.15 7.53, 1.28 5.7, 0.09 4.46 M4.98 3.41 C4.7 2.7, 3.77 1.61, 1.21 0.13 M4.98 3.41 C3.72 2.01, 1.87 0.98, 1.21 0.13" stroke="#a5d8ff" stroke-width="0.5" fill="none"></path><path d="M1.07 0 M1.07 0 C1.53 0.21, 2.48 0.19, 3.21 0 M1.07 0 C1.58 -0.03, 2.01 -0.02, 3.21 0 M3.21 0 C4.05 -0.81, 3.29 1.05, 4.29 1.07 M3.21 0 C3.87 -0.9, 4.62 -0.4, 4.29 1.07 M4.29 1.07 C5.06 11.66, 3.48 18.51, 4.29 30.88 M4.29 1.07 C4.21 11.88, 3.44 24.66, 4.29 30.88 M4.29 30.88 C3.1 31.99, 2.09 31.65, 3.21 31.95 M4.29 30.88 C2.19 33.26, 1.93 30.09, 3.21 31.95 M3.21 31.95 C2.61 31.79, 1.93 31.92, 1.07 31.95 M3.21 31.95 C2.41 31.98, 1.67 31.84, 1.07 31.95 M1.07 31.95 C2.17 30.08, -0.12 31.48, 0 30.88 M1.07 31.95 C0.47 32.81, 0.85 30.13, 0 30.88 M0 30.88 C1.8 23.6, 0.59 11.68, 0 1.07 M0 30.88 C-0.32 21.38, 0.67 11.39, 0 1.07 M0 1.07 C-0.99 -1.43, 1.87 0.34, 1.07 0 M0 1.07 C0.11 2.46, 1.33 -1.08, 1.07 0" stroke="#1971c2" stroke-width="1" fill="none"></path></g><g stroke-linecap="round" transform="translate(155.1085311922369 73.91026140003359) rotate(54.904183212973926 2.1212134735735617 14.649309203048503)"><path d="M-0.13 1.21 C-0.13 1.21, -0.13 1.21, -0.13 1.21 M-0.13 1.21 C-0.13 1.21, -0.13 1.21, -0.13 1.21 M0.26 6.85 C1.44 4.98, 3.68 2.88, 4.86 1.57 M0.26 6.85 C2.12 4.82, 3.77 2.38, 4.86 1.57 M0 13.25 C0.83 12.03, 2.31 9.27, 4.59 7.97 M0 13.25 C1.12 11.73, 2.22 10.69, 4.59 7.97 M-0.26 19.65 C1.27 17.31, 2.98 16.4, 4.99 13.61 M-0.26 19.65 C0.78 18.02, 2.62 16.82, 4.99 13.61 M0.14 25.29 C1.42 23.54, 4.07 20.83, 4.73 20.01 M0.14 25.29 C1.6 23.79, 3.66 21.45, 4.73 20.01 M1.84 29.43 C3.01 28.54, 3.69 27.8, 5.12 25.65 M1.84 29.43 C2.62 28.33, 3.49 27.89, 5.12 25.65 M0.36 28.55 C0.36 28.55, 0.36 28.55, 0.36 28.55 M0.36 28.55 C0.36 28.55, 0.36 28.55, 0.36 28.55 M5.25 27.5 C3.14 25.88, 1.92 24.78, -0.04 22.91 M5.25 27.5 C4.33 26.59, 3.14 25.34, -0.04 22.91 M4.85 21.86 C4.03 20.37, 2.18 19.78, 0.32 17.92 M4.85 21.86 C3.82 21.32, 2.97 19.96, 0.32 17.92 M5.21 16.87 C2.91 15.46, 1.21 12.83, -0.07 12.28 M5.21 16.87 C4.1 15.7, 2.75 14.88, -0.07 12.28 M4.82 11.23 C2.82 10.25, 1.02 8.25, 0.29 7.29 M4.82 11.23 C3.58 10.26, 2.55 9.29, 0.29 7.29 M5.18 6.24 C3.54 4.52, 1.26 2.45, -0.11 1.65 M5.18 6.24 C3.87 5.08, 2.89 4.18, -0.11 1.65" stroke="#a5d8ff" stroke-width="0.5" fill="none"></path><path d="M1.06 0 M1.06 0 C1.65 -0.04, 2.44 0.16, 3.18 0 M1.06 0 C1.68 0.02, 2.21 -0.05, 3.18 0 M3.18 0 C2.6 -1.53, 5.23 -1.08, 4.24 1.06 M3.18 0 C5.38 0.58, 3.92 -1.48, 4.24 1.06 M4.24 1.06 C3.09 7.94, 5.89 18.94, 4.24 28.24 M4.24 1.06 C4.4 9.95, 3.77 18.71, 4.24 28.24 M4.24 28.24 C3.76 30.21, 5.83 28.12, 3.18 29.3 M4.24 28.24 C6.34 30.59, 3.08 27.02, 3.18 29.3 M3.18 29.3 C2.21 29.21, 1.69 29.17, 1.06 29.3 M3.18 29.3 C2.75 29.37, 2.14 29.32, 1.06 29.3 M1.06 29.3 C0.66 29.46, -1.29 30.26, 0 28.24 M1.06 29.3 C0.19 31.4, 1.18 27, 0 28.24 M0 28.24 C-0.13 18.3, 0.49 7.64, 0 1.06 M0 28.24 C0.88 19.68, 0.04 11.95, 0 1.06 M0 1.06 C-1.87 1.7, -1.18 -1.59, 1.06 0 M0 1.06 C1.21 2.52, 1.99 1.04, 1.06 0" stroke="#1971c2" stroke-width="1" fill="none"></path></g><g stroke-linecap="round" transform="translate(169.2611217361299 83.67066867168394) rotate(54.904183212973926 2.1212134735735617 14.649309203048503)"><path d="M-0.13 1.21 C-0.13 1.21, -0.13 1.21, -0.13 1.21 M-0.13 1.21 C-0.13 1.21, -0.13 1.21, -0.13 1.21 M0.26 6.85 C1.54 6.35, 2.26 5.09, 4.86 1.57 M0.26 6.85 C1.35 5.55, 2.65 4.21, 4.86 1.57 M0 13.25 C1.22 11.32, 2.92 10.75, 4.59 7.97 M0 13.25 C1.36 11.79, 2.47 10.24, 4.59 7.97 M-0.26 19.65 C1.55 18.88, 1.95 17.02, 4.99 13.61 M-0.26 19.65 C1.72 17.24, 3.2 14.98, 4.99 13.61 M0.14 25.29 C1.23 23.73, 2.36 21.96, 4.73 20.01 M0.14 25.29 C1.81 23.02, 3.88 20.98, 4.73 20.01 M1.84 29.43 C2.76 28.15, 3 27.96, 5.12 25.65 M1.84 29.43 C3 28.48, 3.88 27.13, 5.12 25.65 M0.36 28.55 C0.36 28.55, 0.36 28.55, 0.36 28.55 M0.36 28.55 C0.36 28.55, 0.36 28.55, 0.36 28.55 M5.25 27.5 C3.4 25.31, 0.48 23.73, -0.04 22.91 M5.25 27.5 C3.86 25.9, 2.02 25.12, -0.04 22.91 M4.85 21.86 C3.87 21.25, 2.91 19.64, 0.32 17.92 M4.85 21.86 C3.79 20.96, 2.12 19.52, 0.32 17.92 M5.21 16.87 C4.64 16.24, 2.82 14.53, -0.07 12.28 M5.21 16.87 C2.95 15.01, 1.5 13.65, -0.07 12.28 M4.82 11.23 C4.4 10.85, 2.53 9.91, 0.29 7.29 M4.82 11.23 C3.28 9.43, 1.17 7.91, 0.29 7.29 M5.18 6.24 C3.21 5.02, 1.07 3.27, -0.11 1.65 M5.18 6.24 C3.94 5.07, 2.34 3.97, -0.11 1.65" stroke="#a5d8ff" stroke-width="0.5" fill="none"></path><path d="M1.06 0 M1.06 0 C1.72 -0.1, 2.26 -0.03, 3.18 0 M1.06 0 C1.58 -0.06, 2.03 0.03, 3.18 0 M3.18 0 C3.57 -0.53, 4.5 0.02, 4.24 1.06 M3.18 0 C3.86 -1.84, 4.53 -1.88, 4.24 1.06 M4.24 1.06 C2.53 9.99, 4.66 15.28, 4.24 28.24 M4.24 1.06 C4.79 6.31, 4.8 12.51, 4.24 28.24 M4.24 28.24 C3.66 28.84, 2.15 28.75, 3.18 29.3 M4.24 28.24 C5.74 27.04, 2.27 28.29, 3.18 29.3 M3.18 29.3 C2.29 29.44, 1.69 29.33, 1.06 29.3 M3.18 29.3 C2.42 29.28, 1.86 29.2, 1.06 29.3 M1.06 29.3 C2.34 28.48, -1.03 30.19, 0 28.24 M1.06 29.3 C2.56 31.22, -1.55 29, 0 28.24 M0 28.24 C0.43 19.87, 0.14 7.84, 0 1.06 M0 28.24 C-0.86 18.82, 0.98 8.12, 0 1.06 M0 1.06 C-1.05 -0.99, 0.05 -1.03, 1.06 0 M0 1.06 C1.44 0.94, -1.54 0.91, 1.06 0" stroke="#1971c2" stroke-width="1" fill="none"></path></g><g stroke-linecap="round" transform="translate(181.1031112867746 96.2766918754649) rotate(54.904183212973926 1.991712648909072 15.512648034144988)"><path d="M1.22 -0.26 C1.22 -0.26, 1.22 -0.26, 1.22 -0.26 M1.22 -0.26 C1.22 -0.26, 1.22 -0.26, 1.22 -0.26 M0.96 6.14 C1.35 5.02, 2.85 4.43, 4.9 1.61 M0.96 6.14 C2.01 5.04, 3.01 3.56, 4.9 1.61 M0.7 12.53 C1.84 10.71, 3.45 9.44, 4.64 8.01 M0.7 12.53 C2.21 10.77, 3.6 9.55, 4.64 8.01 M0.44 18.93 C1.54 17.6, 2.49 16.06, 4.38 14.4 M0.44 18.93 C1.78 17.56, 2.9 16.39, 4.38 14.4 M0.18 25.33 C0.73 23.75, 2.22 23.53, 4.11 20.8 M0.18 25.33 C1.35 24.15, 2.17 23.03, 4.11 20.8 M0.57 30.97 C0.81 29.77, 1.6 29.15, 3.85 27.2 M0.57 30.97 C1.1 30.25, 1.88 29.52, 3.85 27.2 M0.23 30.23 C0.23 30.23, 0.23 30.23, 0.23 30.23 M0.23 30.23 C0.23 30.23, 0.23 30.23, 0.23 30.23 M5.11 29.17 C2.73 27.61, 1.52 25.95, -0.17 24.58 M5.11 29.17 C2.79 27.55, 0.84 25.59, -0.17 24.58 M4.72 23.53 C3.62 21.98, 2.11 20.38, 0.19 19.6 M4.72 23.53 C3.23 22.21, 2.18 21.21, 0.19 19.6 M5.08 18.54 C3.15 17, 0.99 15.24, 0.55 14.61 M5.08 18.54 C4.09 17.37, 2.95 16.85, 0.55 14.61 M5.44 13.56 C3.59 12.22, 2.48 11.15, 0.91 9.62 M5.44 13.56 C4.53 12.52, 3.38 11.45, 0.91 9.62 M5.8 8.57 C4.11 7.16, 1.33 4.37, 0.52 3.98 M5.8 8.57 C4.51 7.53, 3.41 6.34, 0.52 3.98 M5.41 2.93 C4.37 2.03, 3.14 0.23, 1.63 -0.35 M5.41 2.93 C4.18 2.03, 2.79 0.93, 1.63 -0.35" stroke="#a5d8ff" stroke-width="0.5" fill="none"></path><path d="M1 0 M1 0 C1.42 -0.06, 2.22 -0.13, 2.99 0 M1 0 C1.66 -0.04, 2.45 0.07, 2.99 0 M2.99 0 C2.03 1.66, 4.63 0.55, 3.98 1 M2.99 0 C2.38 -0.85, 2.37 0.18, 3.98 1 M3.98 1 C2.77 12.16, 3.02 21.22, 3.98 30.03 M3.98 1 C4.33 11.33, 4.82 21.42, 3.98 30.03 M3.98 30.03 C3.79 30.83, 4.33 30.66, 2.99 31.03 M3.98 30.03 C4.69 31.45, 5.04 32.11, 2.99 31.03 M2.99 31.03 C2.44 31.18, 1.83 30.92, 1 31.03 M2.99 31.03 C2.57 31.04, 2.09 31.01, 1 31.03 M1 31.03 C0.52 29.33, -1.77 30.68, 0 30.03 M1 31.03 C2.17 30.95, 1.36 32.37, 0 30.03 M0 30.03 C1.11 22.41, 0.05 18.57, 0 1 M0 30.03 C-1.21 19.19, 0.18 7.83, 0 1 M0 1 C-2 -0.79, 1.32 1.04, 1 0 M0 1 C-0.95 -0.14, 2.45 0.26, 1 0" stroke="#1971c2" stroke-width="1" fill="none"></path></g><g stroke-linecap="round" transform="translate(192.98441893284462 104.14683374265552) rotate(54.904183212973926 2.7989344559843516 20.135827474666833)"><path d="M0.04 1.36 C0.04 1.36, 0.04 1.36, 0.04 1.36 M0.04 1.36 C0.04 1.36, 0.04 1.36, 0.04 1.36 M-0.22 7.75 C0.78 5.87, 3.22 4.29, 4.37 2.47 M-0.22 7.75 C0.96 6.21, 2.36 4.6, 4.37 2.47 M0.17 13.4 C3.39 10.5, 6.29 6.92, 8.7 3.59 M0.17 13.4 C3.34 9.83, 5.25 6.29, 8.7 3.59 M-0.09 19.8 C2.67 16.01, 4.8 13.75, 8.44 9.98 M-0.09 19.8 C2.35 17.76, 3.59 15.14, 8.44 9.98 M0.3 25.44 C3.36 22.56, 5.51 20.27, 8.18 16.38 M0.3 25.44 C3.16 22.36, 5.98 18.9, 8.18 16.38 M0.04 31.84 C1.67 29.6, 5.34 25.68, 8.57 22.03 M0.04 31.84 C2.92 27.83, 6.09 24.27, 8.57 22.03 M-0.22 38.23 C1.8 35.16, 5.01 30.79, 8.31 28.42 M-0.22 38.23 C2.82 35.24, 6.02 32.12, 8.31 28.42 M2.8 40.86 C4.34 39.14, 6.52 37.44, 8.7 34.07 M2.8 40.86 C5.2 38.49, 7.23 35.97, 8.7 34.07 M0.38 39.2 C0.38 39.2, 0.38 39.2, 0.38 39.2 M0.38 39.2 C0.38 39.2, 0.38 39.2, 0.38 39.2 M6.02 38.8 C3.65 36.89, 2.07 34.58, -0.02 33.56 M6.02 38.8 C4.53 37.25, 1.98 36.01, -0.02 33.56 M5.62 33.16 C3.37 31.87, 2.31 29.66, 0.34 28.57 M5.62 33.16 C4.16 31.72, 2.3 30.32, 0.34 28.57 M5.98 28.17 C3.35 27.07, 1.11 23.73, -0.05 22.93 M5.98 28.17 C4.54 26.92, 2.14 25.32, -0.05 22.93 M5.59 22.53 C3.32 21.31, 1.54 18.91, 0.31 17.94 M5.59 22.53 C4.68 21.37, 2.97 20.61, 0.31 17.94 M5.95 17.54 C3.58 16.11, 2.6 13.68, -0.09 12.3 M5.95 17.54 C4.23 15.53, 2.42 13.91, -0.09 12.3 M5.55 11.9 C4.18 10.9, 2.69 10.35, 0.27 7.31 M5.55 11.9 C4.39 10.46, 2.67 9.5, 0.27 7.31 M5.92 6.91 C3.44 5.14, 1.45 2.75, -0.12 1.67 M5.92 6.91 C4.29 5.92, 3.57 4.56, -0.12 1.67" stroke="#a5d8ff" stroke-width="0.5" fill="none"></path><path d="M1.4 0 M1.4 0 C1.93 0.01, 2.82 0.06, 4.2 0 M1.4 0 C1.85 0.1, 2.43 0.1, 4.2 0 M4.2 0 C5.1 1.5, 4.64 -0.42, 5.6 1.4 M4.2 0 C3.35 0.95, 4.76 2.22, 5.6 1.4 M5.6 1.4 C6.98 8.87, 5.24 19.99, 5.6 38.87 M5.6 1.4 C6.85 10.24, 5.74 19.02, 5.6 38.87 M5.6 38.87 C5.73 38.28, 6.56 42.26, 4.2 40.27 M5.6 38.87 C6.55 41.8, 6.21 42.47, 4.2 40.27 M4.2 40.27 C3.28 40.26, 2.47 40.48, 1.4 40.27 M4.2 40.27 C3.09 40.37, 2.22 40.18, 1.4 40.27 M1.4 40.27 C-0.81 39.87, -1.81 38.59, 0 38.87 M1.4 40.27 C0.33 41.36, 1.2 40.3, 0 38.87 M0 38.87 C0.63 25.08, -2.05 10.17, 0 1.4 M0 38.87 C0.52 24.7, 0.55 10.99, 0 1.4 M0 1.4 C1.53 0.07, -0.8 0.93, 1.4 0 M0 1.4 C1.14 0.67, 1.97 -1.42, 1.4 0" stroke="#1971c2" stroke-width="1" fill="none"></path></g><g stroke-linecap="round"><g transform="translate(103.81167531028461 68.01202457070897) rotate(0 -19.711246015804477 38.73740207304603)" fill-rule="evenodd"><path d="M-92.86 0.1 C-92.86 0.1, -92.86 0.1, -92.86 0.1 M-92.86 0.1 C-92.86 0.1, -92.86 0.1, -92.86 0.1 M-93.86 6.66 C-92.11 3.14, -88.12 1.16, -85.24 -0.93 M-93.93 7.72 C-90.67 3.19, -87.51 -0.25, -86.07 -2.28 M-90.67 10.9 C-86 7.63, -85.61 2.63, -78.2 -2.51 M-91.1 10.82 C-86.73 5.76, -83.23 0.68, -79.07 -3.2 M-87.52 14.94 C-82.21 9.61, -78.17 0.98, -74.85 -1.16 M-88.09 13.26 C-83.67 7.56, -78.68 2.37, -76.46 -1.49 M-85.24 15.99 C-81.37 10.64, -75.06 3.43, -69.24 -2.07 M-87.01 18.03 C-80.13 12.06, -74.94 4.07, -70.75 -1.92 M-85.29 22.2 C-79.48 11.65, -72.67 3.86, -63.45 -2.06 M-85.27 22.14 C-79.83 15.36, -73.8 10.22, -64.17 -1.91 M-82.12 25.81 C-75.8 18.2, -69.63 14.17, -59.58 -0.78 M-81.8 23.4 C-75.39 14.84, -67.2 6.15, -58.91 -2.49 M-81.02 28.11 C-71.56 21.88, -65.59 12.21, -55.05 -3.26 M-78.91 28.32 C-69.68 15.16, -58.75 3.7, -54.46 -2.03 M-79 29.19 C-70.84 22.33, -61.49 13.63, -50.6 -1.28 M-77.04 30.85 C-66.39 20.06, -56.55 8.73, -49.49 -0.55 M-74.72 32.45 C-63.74 22.13, -54.51 12.61, -44.4 -2.01 M-74.68 33.74 C-63.21 19.3, -49.94 6.04, -43.92 -1.54 M-69.88 36.11 C-65.22 29.95, -58.46 20.11, -35.37 -2.12 M-71.68 37.08 C-58.16 21.91, -43.55 6.73, -36.19 -3.02 M-68 41.42 C-54.34 26.95, -42.59 10.6, -31.84 -0.89 M-67.95 39.37 C-59.98 30.41, -51.4 19.77, -31.83 -1.82 M-67.01 44 C-51.8 25.6, -39.63 12.74, -27.12 0.11 M-66.03 43.83 C-52.3 25.46, -36.08 9.29, -26.98 -2.25 M-66.09 45.93 C-49.67 28.43, -34.68 10.23, -23.32 0.21 M-63.8 45.45 C-53.44 33.94, -42.84 20.35, -22.15 -2 M-62.94 47.46 C-51.32 37.61, -42.38 28.5, -18.84 0.47 M-61.77 49.6 C-52.76 37.03, -41.98 26.48, -17.65 -0.35 M-59.18 50.55 C-49.94 39.79, -36.94 29.51, -13.05 -1.41 M-58.35 52.52 C-49.95 41.24, -39.51 30.68, -14.2 -0.39 M-55.12 55.04 C-44.9 43.84, -33.02 29.41, -7.03 -0.75 M-56.6 54.45 C-38.77 37.22, -24.61 17.46, -7.62 0.36 M-54.37 58.04 C-39.07 40.71, -25.59 27.15, -2.89 -0.01 M-52.74 57.89 C-41.55 44.1, -28.64 29.65, -4.05 0.7 M-50.63 62 C-33.51 43.3, -17.33 24.94, 3.49 1.63 M-50.93 60.7 C-32.99 41.21, -14.83 19.34, 1.3 1.11 M-49.04 62.38 C-26.6 42.19, -7.79 18.57, 3.79 5.35 M-48.48 64.65 C-35.66 49.55, -22.49 35.51, 3.63 3.78 M-46.85 66.49 C-27.03 45.97, -13.69 28.67, 6.42 8.3 M-44.56 67.21 C-23.26 44.31, -2.95 20.49, 7.7 7.16 M-42.84 68.68 C-25.75 51.09, -10.28 35.26, 10.62 9.03 M-41.45 69.66 C-25.1 52.19, -11.14 32.62, 10.07 10.34 M-37.36 72.38 C-19.52 50.55, -0.36 27.83, 9.68 13.32 M-38.59 72.12 C-18.62 48.6, 0.97 25.76, 12.32 13.79 M-35.03 74.79 C-22.5 59.61, -8.9 43.09, 13.58 17.82 M-35.21 73.09 C-15.76 51.17, 2.26 30.9, 13.77 15.93 M-30.74 75.22 C-17.04 61.15, -1.94 39.85, 15.65 21.68 M-32.22 76.84 C-12.38 53.74, 6.11 33.06, 16.24 19.78 M-27.8 78.47 C-14.94 63.49, -0.97 50.58, 21.11 23.45 M-28.36 77.62 C-13.68 63.12, -0.14 47.52, 18.6 22.63 M-24.49 80.49 C-14.91 68.2, -3.76 53.83, 21.13 25.37 M-24.66 80.32 C-5.58 59.69, 11.39 37.68, 20.9 27.48 M-18.27 81.44 C-7.76 65.46, 3.85 50.98, 26.69 29.34 M-20.55 80.46 C-8.37 65.97, 4.33 53.4, 24.33 29.78 M-14.37 81.12 C1.12 64.73, 12.64 46.52, 26.63 33.25 M-16.44 82.55 C-0.06 62.88, 15.27 45.14, 27.32 32.77 M-10.52 81.33 C0.02 67.11, 14.65 55.36, 28.2 35.86 M-10.42 83.37 C-0.04 70.07, 10.6 59.73, 30.11 35.29 M-5.05 83.97 C1.89 72.65, 9.05 65.59, 31.73 40.42 M-6.17 85.05 C2.95 72.55, 11.71 61.2, 31.53 38.31 M-2.89 82.96 C10.57 70.8, 24.2 53.11, 33.25 42.31 M-1.01 83.87 C6.22 74.97, 15.32 65.7, 35.67 41.56 M4.45 82.84 C17.3 67.09, 29.22 54.25, 37.09 45.9 M4.18 83.85 C13.14 73.75, 23.65 63.38, 36.52 45.27 M10.03 84.62 C20.3 68.33, 33.39 57.12, 38.52 48.18 M10.28 83.53 C22.08 70.28, 33.17 58.06, 40.72 48.8 M14.26 85.97 C21 78.29, 26.98 67.64, 42.39 50.39 M14.64 85.04 C23.56 74.65, 31.76 64.47, 42.22 51.13 M18.71 84.52 C31.2 74.75, 38.94 61.26, 43.75 54.89 M19.05 84.43 C29.87 72.01, 39.72 60.56, 44.96 54.74 M25.53 85.29 C31.93 75.33, 38.72 67.98, 46.42 56.78 M25.19 83.98 C32.28 76.59, 38.84 68.44, 47.57 58.13 M31.31 84.04 C37.77 74.97, 44.75 70.49, 49.06 60.3 M30.52 84.47 C34.65 78.63, 38.87 73.9, 49.39 61.16 M34.47 82.66 C42.87 78.04, 47.65 71.64, 52.35 64.66 M35.77 83.56 C42.1 77.43, 48.27 69.41, 51.8 65.81 M41.77 83.67 C45.7 81.49, 47.91 75.73, 52.48 69.67 M41.55 83.23 C44.62 79.73, 47.78 76.65, 53.63 68.88 M-42.12 69.8 C-42.12 69.8, -42.12 69.8, -42.12 69.8 M-42.12 69.8 C-42.12 69.8, -42.12 69.8, -42.12 69.8 M-32.72 73.67 C-33.87 72.7, -37.27 69.54, -50.55 59.03 M-31.89 74.52 C-34.7 71.2, -38.94 66.76, -47.79 58.76 M-19.6 78.97 C-37.86 61.61, -56.89 50.34, -65.33 38.44 M-20.49 78.12 C-34.42 67.79, -47.61 55.9, -66.56 37.52 M-13.13 80.96 C-30.09 62.16, -50.84 48.43, -85.03 20.03 M-13.94 79.63 C-36.85 60.66, -58.29 40.77, -82.7 17.41 M-7.55 77.6 C-28.08 58.39, -49.51 40.39, -94.66 5.04 M-8.26 78.81 C-38.18 52.41, -68.96 26.24, -93.22 5.11 M-0.28 79.58 C-34.84 51.94, -66.01 24.31, -93.28 -0.13 M-0.79 79.43 C-23.95 58.21, -48.87 37.16, -92.8 0.2 M4.92 80.44 C-21.03 55.21, -43.4 36.77, -88.46 -1.12 M4.72 78.35 C-29.94 48.9, -61.54 20.39, -88.08 -1.14 M9.37 79.85 C-14.88 57.28, -36.37 38.04, -84.06 -3.72 M11.63 79.7 C-11.48 60.4, -33.54 40.81, -83.47 -3.26 M18.08 79.71 C-18.93 43.4, -58.77 11.69, -76.84 -2.55 M17.01 77.95 C-3.61 62.55, -23.22 44.14, -77.65 -4.82 M22.38 78.8 C-4.61 53.24, -32.64 28.57, -71.38 -2.28 M22.37 79.49 C-5.06 55.37, -34.21 30.69, -72.43 -3.04 M30.53 76.9 C-1.49 53.98, -33.29 23.64, -65.7 -6.19 M28.35 77.67 C-2.37 50.84, -33.83 22.8, -66.33 -3.36 M34.36 77.39 C9.07 55.67, -16.49 33.37, -60.61 -5.6 M35.41 78.39 C3.1 50.45, -29.57 22.37, -59.84 -3.88 M41.42 80.73 C18.2 59.38, -4.27 36.49, -54.11 -5.03 M41.99 80.44 C9.72 50.3, -23.94 20.46, -53.78 -3.65 M45.25 75.84 C14.61 49.13, -12.61 25.06, -47.02 -2.91 M46.96 77.88 C16.24 53.96, -11.63 28.1, -48.86 -4.35 M49.43 75.32 C32.49 57.71, 10.75 40.61, -41.07 -5.49 M51.59 76.16 C32.82 61.72, 13.03 44.37, -41.71 -5.4 M54.53 73.02 C20.88 46.48, -15.85 15.42, -37.09 -7.47 M54.69 74.64 C36 57.33, 17.23 41.22, -36.98 -5.49 M53.59 71.32 C34.43 53.02, 17.33 37.52, -29.29 -6.7 M54.06 68.82 C37.72 54.48, 19.2 37.99, -31.6 -4.45 M50.45 60.53 C31.48 46.48, 15.95 29.73, -25.71 -2.68 M48.94 58.67 C25.74 39.12, 2.6 20.91, -23.16 -4.82 M47.46 53.37 C24.76 34.09, 3.01 16.27, -15.86 -3.93 M47.75 52.05 C33.23 40.35, 19.35 27.84, -17.43 -4.2 M31.89 33.67 C18.92 22.02, 2.99 5.57, -9.25 -1.92 M32.58 34.31 C18.54 22.95, 5.95 9.66, -8.93 -2.32 M16.11 17.5 C11.45 11.82, 3.42 5.97, -3.62 -2.4 M17.43 16.42 C11.81 11.65, 6.45 7.17, -3.01 -1.38" stroke="#a5d8ff" stroke-width="0.5" fill="none"></path><path d="M0.32 -0.08 C-8.29 -0.82, -37.02 -5.07, -52.65 -4.75 C-68.28 -4.44, -91.19 -5.99, -93.47 1.81 C-95.75 9.61, -76.56 29.69, -66.35 42.05 C-56.14 54.4, -45.74 69.28, -32.23 75.92 C-18.72 82.55, 0.39 82.75, 14.7 81.86 C29.01 80.97, 55.92 84.05, 53.62 70.57 C51.32 57.09, 9.75 12.57, 0.9 0.96 M-0.97 -1.17 C-9.65 -1.67, -38.11 -3.78, -53.55 -3.13 C-69 -2.48, -91.61 -4.94, -93.66 2.75 C-95.72 10.43, -75.9 30.72, -65.86 42.98 C-55.83 55.23, -46.53 70, -33.44 76.29 C-20.35 82.58, -1.93 81.31, 12.69 80.71 C27.31 80.12, 56.34 85.98, 54.29 72.72 C52.23 59.45, 9.54 13.23, 0.35 1.13" stroke="#1971c2" stroke-width="1" fill="none"></path></g></g><mask></mask><g stroke-linecap="round"><g transform="translate(114.13307818217447 71.26310255747507) rotate(0 38.74174175348753 40.03505841800424)" fill-rule="evenodd"><path d="M0 0 C0 0, 0 0, 0 0 M0 0 C0 0, 0 0, 0 0 M1.97 3.27 C3.25 2.32, 4.87 0.42, 5.43 -0.11 M2.24 3.37 C3.35 2.51, 3.75 1.57, 5.67 -0.17 M4.39 6.01 C6.81 4.94, 8.11 2.85, 11.5 0.65 M4.72 6.74 C6.23 4.88, 8.36 2.43, 10.64 -0.28 M7.3 10.82 C10.35 7.43, 11.86 2.76, 13.81 0.9 M7.18 9.71 C8.87 7.08, 11.75 4.31, 15.1 0.98 M10.38 12.8 C11.54 12.05, 14.5 9.11, 18.1 2.06 M9.3 12.84 C11.36 10.21, 13.81 7.54, 18.26 2.78 M11.06 16.3 C13.45 14.32, 17.75 8.35, 22.19 6.81 M11.8 18.43 C14.96 13.38, 17.9 10.26, 22.17 5.9 M13.87 19.67 C17.53 15.86, 20.31 12.77, 27.11 7.74 M13.38 20.87 C18.31 16.16, 22.82 9.5, 25.01 8.12 M14.52 25.46 C17.21 20.94, 21.3 18.68, 28.1 11.87 M16.83 24.02 C18.63 19.59, 22.3 15.79, 28.32 9.92 M16.28 27.16 C20.51 25.8, 24.57 20.85, 31.4 13.75 M18.69 27.67 C21.24 24.34, 25.41 19.25, 30.8 11.85 M19.63 30.66 C25.49 25.82, 30.83 20.31, 33.58 17.27 M19.82 31.39 C24.4 27.07, 27.3 21.75, 35.22 16.19 M21.88 32.6 C24.27 32.42, 28.67 27.43, 37.08 18.23 M22.78 34.88 C25.39 30.85, 30.36 26.53, 37.41 18.91 M26.27 37.29 C31.73 31.98, 34.32 26.94, 37.13 22.89 M26.26 38.41 C27.27 34.56, 30.07 32.18, 38.91 21.82 M26.44 42.18 C33.97 34.55, 39.94 30.43, 41.01 23.05 M27.83 41.11 C30.94 37.64, 35.11 33.25, 42.28 24.4 M31.11 43.22 C32.12 42.61, 36.83 38.88, 42.72 27.61 M30.63 45.23 C33.06 40.79, 35.78 37.34, 43.89 28.35 M32.72 48.22 C35.65 42.51, 41.15 37.67, 48.23 30.72 M32.02 48.53 C35.98 43.83, 41.86 37.54, 47.17 30.64 M35.32 50.99 C37.49 47.69, 39.77 44.18, 50.79 35.17 M33.66 51.28 C38.87 47.9, 43.56 42.55, 50.03 33.86 M37.91 53.7 C39.95 51.85, 44.75 48.17, 52.87 35.71 M36.8 55.61 C40.84 50.99, 44.39 47.15, 52.83 36.47 M39.07 60.78 C45.64 50.62, 52.09 44.61, 53.49 38.49 M39.04 58.28 C43.84 52.36, 48.87 47.55, 55.79 39.2 M40.89 60.53 C45.22 57.76, 49.98 53.3, 57.47 45.15 M42.27 61.3 C47.67 54.4, 53.14 47.6, 58.31 44.02 M42.95 65.5 C51.42 57.69, 54.86 54.74, 62.05 44.44 M44.76 63.21 C47.96 60.33, 51.73 55.99, 61.63 46.77 M48.3 68.34 C52.39 59.11, 57.21 54.1, 63.57 47.88 M47.17 67.89 C51.49 62.51, 56.32 56.42, 63.61 49.68 M49.34 69.73 C53.64 64.97, 61.05 56.93, 66.72 53.83 M50.5 71.37 C54.7 63.33, 60.97 56.27, 65.96 52.47 M50.53 73.94 C58.49 68.55, 62.66 61.96, 67.85 54.91 M52.89 74.42 C54.97 69.43, 60.08 64.87, 67.72 54.64 M54.92 75.98 C60.86 69.08, 64.04 65.14, 72.87 57.38 M56.17 76.56 C61.92 70.41, 67.28 62.9, 71.17 57.78 M60.93 79.52 C64.27 73.44, 67.84 68.88, 72.65 60.46 M58.72 78.95 C62.63 73.95, 66.74 71.24, 73.26 61.88 M62.16 82.46 C65.63 75.74, 67.28 75.72, 75.57 65.27 M61.35 80.88 C67.08 76.06, 69.97 71.58, 76.29 65.17 M66.83 79.65 C70.73 79.66, 72.65 75.66, 76.46 68.33 M66.8 81.09 C70.68 77.42, 71.79 75.12, 78.38 68.51 M73.25 80.3 C73.49 78.47, 75.71 78.31, 80.24 73.27 M72.06 81.27 C74.2 79.53, 76.53 77, 79.85 72.68 M51.33 73.56 C51.33 73.56, 51.33 73.56, 51.33 73.56 M51.33 73.56 C51.33 73.56, 51.33 73.56, 51.33 73.56 M63.96 75.95 C57.29 71.63, 51.6 69.61, 39.52 59.42 M62.61 77.23 C56.13 71.32, 49.92 67.23, 39.48 58.72 M69.88 77.99 C53.62 65.91, 41.36 52.34, 31.71 47.67 M70.3 80.55 C61.89 72.15, 52.61 63.39, 30.96 45.23 M72.91 76.87 C55.92 62.21, 39.25 47.21, 24.17 34.69 M74.85 77.92 C55.07 61.52, 35.82 45.25, 23.39 32.48 M76.08 73.79 C58.88 58.87, 41.33 42.08, 13.61 21 M76.95 75.57 C58.43 57.91, 38.3 41.5, 15.77 20.78 M77.67 68.75 C60.42 55.94, 45.9 42.06, 6.93 6.87 M78.3 69.94 C61.69 56, 45.89 40.97, 5.62 8.06 M79.7 67.67 C48.24 37.89, 16.85 14.14, 2.87 -2.44 M80.14 65.76 C59.7 48.38, 39.23 29.7, 0.65 -1.98 M72.41 54.78 C52.58 36.15, 30.76 20.27, 8.88 -2.58 M71.8 53.35 C45.95 31.31, 21.08 11.28, 7.73 -2.81 M52.3 31.58 C38.85 19.34, 21.45 5.84, 12.6 -3.1 M52.79 32.51 C43.48 25.75, 36.05 17.53, 10.41 -3.16" stroke="#a5d8ff" stroke-width="0.5" fill="none"></path><path d="M0.33 -0.74 C8.86 11.78, 37.63 62.1, 50.54 74 C63.45 85.9, 82.2 82.12, 77.79 70.66 C73.37 59.21, 36.92 16.97, 24.07 5.28 C11.22 -6.41, 4.76 1.41, 0.67 0.52 M-0.96 1.49 C8.02 13.75, 39.86 60.92, 52.89 72.16 C65.92 83.4, 82.02 79.94, 77.22 68.92 C72.42 57.9, 37.04 17.35, 24.1 6.06 C11.15 -5.23, 3.45 2.38, -0.45 1.19" stroke="#1971c2" stroke-width="1" fill="none"></path></g></g><mask></mask><g transform="translate(110.55042211432351 10) rotate(0 68.93333435058594 10)"><text x="0" y="0" font-family="Virgil, Segoe UI Emoji" font-size="16px" fill="#1971c2" text-anchor="start" style="white-space: pre;" direction="ltr" dominant-baseline="text-before-edge">Other robot skirt</text></g><g stroke-linecap="round"><g transform="translate(138.15735869228445 33.74727550694118) rotate(0 -3.2095341905031205 15.58979294341215)"><path d="M0.01 -0.68 C-0.86 4.53, -4.68 25.43, -5.91 30.91 M-1.45 1.58 C-2.33 6.93, -5.25 26.52, -6.43 31.86" stroke="#1971c2" stroke-width="1" fill="none"></path></g><g transform="translate(138.15735869228445 33.74727550694118) rotate(0 -3.2095341905031205 15.58979294341215)"><path d="M-10.12 16.86 C-10.12 18.7, -7.67 24.08, -7.28 31.18 M-8.64 15.17 C-8.32 21.54, -8.37 25.95, -6.03 31.44" stroke="#1971c2" stroke-width="1" fill="none"></path></g><g transform="translate(138.15735869228445 33.74727550694118) rotate(0 -3.2095341905031205 15.58979294341215)"><path d="M0.89 18.85 C-1.72 20.22, -1.91 25.12, -7.28 31.18 M2.38 17.16 C-0.71 22.96, -4.19 26.76, -6.03 31.44" stroke="#1971c2" stroke-width="1" fill="none"></path></g></g><mask></mask><g transform="translate(116.90779726061078 182.50476059878903) rotate(0 52.75833511352539 10)"><text x="0" y="0" font-family="Virgil, Segoe UI Emoji" font-size="16px" fill="#1971c2" text-anchor="start" style="white-space: pre;" direction="ltr" dominant-baseline="text-before-edge">Side of robot</text></g><g stroke-linecap="round"><g transform="translate(124.49443632020314 203.57875798654553) rotate(0 -11.290782437450673 18.424387274630654)"><path d="M0.29 -0.01 C-3.14 6.4, -17.97 31.52, -21.63 37.9 M-1.02 -1.05 C-4.56 5.05, -19.25 29.84, -22.87 36.1" stroke="#1971c2" stroke-width="1" fill="none"></path></g><g transform="translate(124.49443632020314 203.57875798654553) rotate(0 -11.290782437450673 18.424387274630654)"><path d="M-19.02 14.1 C-18.92 18.51, -19.07 23.69, -23.3 35.12 M-18.95 15.03 C-19.99 20.95, -21.49 28.07, -23.63 36.25" stroke="#1971c2" stroke-width="1" fill="none"></path></g><g transform="translate(124.49443632020314 203.57875798654553) rotate(0 -11.290782437450673 18.424387274630654)"><path d="M-6.38 21.51 C-8.94 24.37, -11.78 27.98, -23.3 35.12 M-6.31 22.44 C-11.48 25.99, -17.07 30.71, -23.63 36.25" stroke="#1971c2" stroke-width="1" fill="none"></path></g></g><mask></mask><g transform="translate(182.50825054978793 285.9839881010537) rotate(0 23.274999618530273 10)"><text x="0" y="0" font-family="Virgil, Segoe UI Emoji" font-size="16px" fill="#1971c2" text-anchor="start" style="white-space: pre;" direction="ltr" dominant-baseline="text-before-edge">Wedge</text></g><g stroke-linecap="round"><g transform="translate(175.7757174791749 288.81873886762753) rotate(0 -16.07095752024901 -3.472798005912928)"><path d="M-0.08 -0.38 C-5.33 -1.59, -25.74 -5.55, -30.95 -6.57 M-1.59 -1.62 C-7.07 -2.78, -27.51 -4.91, -32.06 -5.6" stroke="#1971c2" stroke-width="1" fill="none"></path></g><g transform="translate(175.7757174791749 288.81873886762753) rotate(0 -16.07095752024901 -3.472798005912928)"><path d="M-17.37 -9.46 C-23.49 -8.82, -28.65 -7.03, -30.59 -5.17 M-17.07 -8.33 C-22.46 -8.63, -26.68 -6.3, -31.42 -5.48" stroke="#1971c2" stroke-width="1" fill="none"></path></g><g transform="translate(175.7757174791749 288.81873886762753) rotate(0 -16.07095752024901 -3.472798005912928)"><path d="M-18.69 1.11 C-24.41 -1.89, -29.12 -3.74, -30.59 -5.17 M-18.38 2.24 C-23.31 -1.62, -27.09 -2.84, -31.42 -5.48" stroke="#1971c2" stroke-width="1" fill="none"></path></g></g><mask></mask></svg>