<svg version="1.1" xmlns="http://www.w3.org/2000/svg" viewBox="0 0 420 471.1354281867145" width="420" height="471.1354281867145">
  <!-- svg-source:excalidraw -->
  
  <defs>
    <style class="style-fonts">
      @font-face {
        font-family: "Virgil";
        src: url("https://excalidraw.com/Virgil.woff2");
      }
      @font-face {
        font-family: "Cascadia";
        src: url("https://excalidraw.com/Cascadia.woff2");
      }
    </style>
    
  </defs>
  <rect x="0" y="0" width="420" height="471.1354281867145" fill="#ffffff"/><g stroke-linecap="round"><g transform="translate(30 411.8452808194351) rotate(0 29.40336650001457 0)"><path d="M-0.11 -0.11 C9.68 -0.09, 48.99 1.14, 58.91 1.15 M-1.63 -1.22 C8 -0.98, 47.92 -0.78, 58.01 -0.37" stroke="#1e1e1e" stroke-width="2" fill="none"/></g></g><mask/><g stroke-linecap="round"><g transform="translate(30 71.84528081943512) rotate(0 29.40336650001457 0)"><path d="M0.1 1.15 C10.01 1.16, 49.46 0.15, 59.38 -0.06 M-1.31 0.7 C8.51 0.92, 48.63 1.38, 58.74 1.45" stroke="#1e1e1e" stroke-width="2" fill="none"/></g></g><mask/><g stroke-linecap="round" transform="translate(10 11.845280819435118) rotate(0 10 220)"><path d="M0 0 C0 0, 0 0, 0 0 M0 0 C0 0, 0 0, 0 0 M-0.09 6.62 C1.79 4.22, 4.21 1.67, 4.67 0.31 M-0.47 6.61 C1.25 4.62, 2.49 3.42, 4.89 0.28 M-0.11 13.33 C2.37 8.98, 5.22 3.49, 9.93 -0.78 M-0.13 12.79 C3.7 7.25, 8.12 3.52, 10.83 -0.19 M0.18 19.52 C4.6 13.67, 10.23 9.1, 15.38 0.37 M0.82 19.39 C4.23 13.8, 8.23 9.39, 15.81 0.39 M2.14 23.32 C9.03 17.23, 14.56 7.62, 19.02 -0.53 M-0.57 24.98 C6.96 17.86, 13.2 10.71, 19.78 0.18 M1.76 31.5 C6.98 21.33, 13.74 15.55, 22.81 6.54 M-0.6 30.22 C6.28 22.59, 13.66 14.48, 21.15 5.82 M0.5 35.14 C5.98 31.67, 8.19 28.74, 20.65 13.11 M-1.23 36.77 C5.81 29.96, 11.75 23.83, 21.25 13.53 M1.03 42.5 C9.72 32.18, 14.83 23.86, 20.11 19.92 M1.06 42.67 C5.11 36.37, 12.67 28.31, 19.68 19.55 M-0.97 47.51 C6.69 41.71, 14.46 32.19, 19.49 23.35 M0.42 49.43 C5.07 43.34, 8.45 38.3, 20.81 25.2 M1.49 54.75 C4.85 49.39, 11.86 44.46, 19.55 31.98 M-0.72 53.66 C7.58 47.97, 12.3 40.19, 20.82 32.06 M-0.75 59.72 C9.11 51.17, 18 40.96, 21.91 35.52 M0.33 59.98 C6.13 54.44, 10.88 47.42, 21.49 37.56 M1.34 65.83 C7.26 60.8, 14.89 49.62, 21.51 45.14 M0.16 66.59 C6.33 59.04, 14.76 49.83, 20.07 43.84 M-1.26 72.92 C5.65 68.46, 12.26 59.85, 21 50.37 M0.44 72.41 C7.23 65.98, 12.28 58.83, 20.96 49.42 M0.16 77.73 C3.46 75.66, 11.47 69.92, 22.45 55.68 M-0.91 80.25 C8.31 69.73, 15.48 60.69, 20.92 54.28 M-1.58 86.9 C7.81 77.72, 17.36 68.09, 19.2 60.96 M-0.02 84.37 C4.71 80.74, 7.95 76.2, 20.18 61.02 M-1.1 93.28 C5.71 86.15, 10.6 80.8, 22.16 66.5 M0.81 91.4 C5.47 86.09, 8.86 80.22, 20.18 66.47 M-2.05 96.83 C4.03 92.46, 12.12 83.26, 20.35 73.28 M-1.16 97.94 C8.4 87.91, 15.99 78.63, 21.44 74.56 M-1.42 105.2 C3.74 98.15, 8.61 91.06, 19.18 79.91 M0.03 103.72 C7.87 93.68, 16.86 86.1, 21.29 79.95 M-1.68 110.22 C6.43 100.76, 13.75 92.03, 20.32 87.17 M0.19 110.67 C4.99 105.03, 9.68 98.5, 21.01 85.16 M-0.45 116.85 C9.11 107.03, 14.99 98.55, 21.39 90.54 M0.75 114.58 C5.25 108.49, 12.33 102.46, 20.99 91.69 M1.95 123.49 C6.14 115.92, 8.9 110.43, 21.71 97.87 M0.55 122.01 C6.83 114.9, 12.65 107.09, 19.81 98.38 M0.91 126.94 C7.77 120.23, 11.79 112.49, 22.05 105.93 M-0.35 127.82 C5.75 121.35, 14.07 111.7, 21.36 104.58 M-0.73 134.92 C3.82 126.92, 9.34 124.27, 20.44 108.94 M0.41 134.37 C4.35 129.54, 9.51 123.09, 20.05 111.22 M-0.9 138.57 C8 131.29, 13.77 124.3, 22.49 115.5 M0.69 140.65 C6.06 133.53, 12.08 128.09, 20.46 116.47 M0.08 145.42 C3.43 141.74, 7.82 138.23, 21.87 120.88 M-0.44 145.85 C7.32 136.87, 15.6 128.87, 21.27 122.62 M-0.04 151.71 C6.85 147.88, 11.23 142.15, 18.72 128.02 M-0.84 152.28 C5.48 146.62, 11.04 140.91, 20.97 129.65 M0.92 159.28 C7.35 150.42, 14.76 142.75, 19.37 136.02 M0.45 158.97 C6.21 151.85, 12.27 145.55, 20.99 134.44 M1.36 164.2 C5.8 156.92, 10.28 152.29, 20.13 140.66 M0.33 164.82 C3.45 160.39, 9.26 154.77, 20.89 141.83 M-0.34 169.15 C5.69 163.6, 14.05 156.6, 21.67 147.34 M0.83 171.71 C7.63 162.43, 16.3 153.18, 20.05 146.25 M0.55 176.51 C5.61 171.5, 14.05 163.02, 21.49 151.44 M0.79 176.1 C7.42 167.1, 16.05 158.77, 21.55 152.66 M-0.42 184.56 C4.26 177.53, 8.52 171.88, 20.26 159.19 M-0.23 181.96 C5.89 176.29, 11.28 168.81, 19.92 160.07 M1.49 188.5 C5.38 181.94, 11.04 176.36, 21.62 164.27 M-0.25 188.36 C4.55 183.82, 7.91 179.82, 20.24 164.74 M-0.01 192.93 C5.02 189.68, 8.19 186.38, 19.94 172.28 M0.31 194.58 C7.43 186.05, 15.41 177.6, 21.37 171.3 M1.5 200.38 C9.41 190.1, 17.4 182.45, 22.69 177.7 M-0.25 201.28 C7.9 193.27, 14.58 185.62, 21.58 176.34 M-0.43 208.28 C6.31 202.88, 9.38 198.28, 18.92 184.2 M0.83 206.08 C6.88 197.38, 15.37 189.49, 20.51 183.33 M-0.7 213.24 C3.32 208.55, 8.72 202.69, 21.62 189.62 M0.64 212.49 C7.04 206.08, 13.36 197.87, 20.83 190.2 M-0.26 220.03 C4.79 213.26, 9.77 207.55, 19.46 194.44 M0.33 219.45 C3.65 214.04, 8.46 208.05, 21.43 196.48 M1.63 226.07 C6.24 219.07, 10.14 216.09, 20.64 202.32 M0.25 224.55 C7.48 218.81, 13.8 210.08, 20.54 202.45 M-0.77 229.95 C3.74 225.47, 11.81 216.79, 19.18 209.07 M-0.89 231.08 C4.09 227.21, 7.99 222.21, 21.5 206.74 M-1.39 236.44 C5.76 230.9, 12.72 221.78, 19.43 214.95 M-0.28 237.71 C5.79 231.24, 11.06 225.2, 20.6 213.2 M-1.8 244.71 C4.19 240.23, 10.52 234.05, 18.42 221.59 M0.82 243.32 C7.21 235.07, 15.55 226.89, 20.79 220.55 M-0.91 249.35 C7.39 242.62, 16.56 233.28, 21.65 224.56 M-1.15 250.66 C3.15 246.11, 8.7 240.83, 20.87 225.47 M0.84 256.84 C4.99 247.16, 13.93 240, 18.86 233.83 M1.07 255.45 C8.12 248.62, 14.27 239.68, 20.62 231.78 M1.25 262.12 C3.9 257.98, 10.87 251.14, 22.38 238.79 M0.72 261.52 C5.18 256.85, 9.7 250.37, 20.53 237.99 M-1.29 269.5 C6.86 261.85, 13.85 252.88, 19.6 244.51 M0.77 268.43 C5.13 261.37, 11.69 253.82, 19.66 244.24 M0.69 272.98 C4.6 269.05, 12.96 259.54, 19.38 252.69 M-0.24 274.35 C7.6 266.96, 14.7 257.85, 19.4 251.9 M-1.91 281.22 C3.92 275.23, 10.59 266.13, 19.77 258.23 M-0.49 281.67 C8.55 271.63, 17.07 261.61, 20.56 256.69 M1.02 286.03 C5.42 281.7, 9.23 275.42, 19.79 261.66 M0.34 286.15 C7.35 277.54, 15.23 267.85, 20.59 263.8 M-1.4 290.9 C6.74 285.42, 10.96 278.57, 21.85 270.2 M0.15 292.02 C7.14 284.14, 16.59 274.81, 21.26 269.55 M1.25 299.98 C4.5 291.65, 10.62 282.31, 20.14 273.98 M0.19 297.6 C5.46 292.83, 9.89 286.7, 20.56 274.22 M1.26 306.34 C5.29 299.52, 12.12 291.28, 19.06 283.04 M0.89 304.24 C6.22 296.85, 13.03 289.1, 20.39 281.71 M-0.91 312.94 C5.22 305.23, 12.19 296.18, 20.98 287.81 M-0.35 311.85 C5.99 303.31, 14.14 295.93, 21.73 286.63 M-0.85 317.19 C8.36 307.51, 17.11 296.63, 21.97 291.69 M-0.09 316.07 C7.59 308.06, 13.49 300.71, 19.82 293.47 M1.6 323.38 C6.41 314.11, 14.53 308.02, 22.24 299.94 M0.37 323.43 C6.58 316.14, 11.53 309.26, 21.84 298.19 M0.69 327.73 C7.01 321.92, 13.22 312.51, 22.55 304.02 M0.69 328.91 C4.05 324.51, 8.61 318.56, 20.8 305.09 M1.25 334.63 C2.97 332.1, 9.29 324.05, 18.59 310.53 M-0.66 334.85 C7.91 326.49, 16.78 316.51, 21.27 312.48 M1.05 341.62 C6.29 332.91, 16.91 322.17, 20.78 317.73 M-0.64 342.6 C8.37 333.54, 15.07 324.34, 20.53 317.75 M-1.46 347.92 C5.94 342.39, 11.43 335.69, 22.02 324.09 M-0.49 347.56 C6.77 340.67, 12.09 333.11, 19.71 324.53 M0.71 354.9 C5.01 346.73, 12.11 336.16, 20.05 329.19 M-0.63 354.41 C9.05 343.89, 15.66 335.4, 21.53 330.32 M1.34 359.09 C6.27 350.62, 13.66 344.47, 21.94 334.05 M1.14 358.66 C9.03 350.1, 15.88 340.24, 20.16 335.32 M1.58 364.47 C4.17 358.87, 8.29 354.47, 18.45 342.11 M-0.54 365.57 C8.68 356.04, 15.25 346.96, 20.96 342.12 M0.24 371.38 C5.69 366.88, 10.49 360.86, 19.78 347.69 M-0.84 371.74 C5.28 366.17, 10.75 358.04, 21.61 348.75 M1.6 377.11 C6.44 371.39, 7.54 368.23, 19.4 352.57 M0.38 378.24 C6.82 371.51, 11.55 364.11, 21.29 353.89 M-0.82 384.36 C9.17 377.66, 14.02 368.48, 20.35 358.91 M-0.23 383.77 C5.27 378.39, 11.54 371.43, 20.37 360.41 M2.09 390.24 C9.33 383.06, 16.76 371.6, 19.76 365.56 M0.18 390.25 C7.25 380.59, 15.23 372.97, 20.31 366.32 M-0.5 394.52 C9.7 385.37, 14.9 377.77, 19.19 373.01 M0.53 395.7 C5.82 389.95, 11.77 382.68, 21.38 372.34 M-0.95 400.64 C6.6 394.23, 14.01 386.81, 20.4 379.92 M-0.45 401.89 C4.65 396.76, 11.39 389.1, 21.79 379.04 M-1.43 408.2 C7.31 402.55, 14.14 393.39, 21.15 383.63 M0.94 407.41 C5.02 402.94, 9.93 397.28, 20.88 384 M1.88 413.46 C8.23 405.72, 15.86 400.1, 21.56 389.12 M0.49 414.87 C5.16 409.91, 9.68 403.85, 20.81 391.36 M0.49 419.12 C8.44 410.07, 17.48 401.17, 20.53 397.31 M-0.82 421.21 C6.62 413.31, 13.36 404.31, 20.45 396.78 M1.35 426.75 C8.88 417.98, 14.32 412.01, 22.2 402.02 M0.32 426.85 C8.32 418.55, 14.92 409.28, 21.09 403.02 M-1.32 433.37 C8.54 424.08, 13.56 413.79, 19.64 410.46 M0.71 432.83 C3.8 427.11, 9.45 422.39, 21.63 409.05 M0.27 440.39 C9.15 428.57, 14.55 420.42, 18.66 415.81 M0.34 438.42 C7.1 430.75, 14.73 423.71, 19.67 415.22 M2.63 442.9 C7.59 436.04, 18.11 427.7, 20.15 422.11 M2.94 442.96 C6.77 435.97, 12.43 431.46, 21.29 420.83 M8.05 440.64 C13.44 439.13, 17.31 432.19, 20.62 428.61 M8.38 441.56 C13.26 436.46, 18 430.9, 20.9 427.07 M12.78 442.34 C14.12 438.85, 16.99 438.09, 19.35 434.28 M13.58 442.14 C14.76 439.99, 17.14 437.97, 20.7 434.23" stroke="#868e96" stroke-width="0.5" fill="none"/><path d="M-0.1 1.4 C5.94 -1.15, 11.22 0.05, 19.16 -0.7 M0.07 0.63 C5.44 0.32, 12.85 -0.19, 20.49 0.95 M20.86 0.28 C19.26 111.43, 19.51 223.81, 19.07 439.5 M19.68 0.11 C18.42 91.85, 18.76 183.51, 19.94 439.92 M19.08 440.03 C11.22 438.12, 6.09 440.13, 0.06 439.47 M19.14 440.18 C15.32 439.85, 12 440.48, -0.67 439 M0.67 439.25 C-2.03 325.01, -2.47 211.03, 0.59 0.95 M0.06 440.46 C-0.42 323.24, -0.67 206.67, 0.32 0.03" stroke="#1e1e1e" stroke-width="1" fill="none"/></g><g stroke-linecap="round" transform="translate(90 11.845280819435118) rotate(0 9.700520833333343 220)"><path d="M0 0 C0 0, 0 0, 0 0 M0 0 C0 0, 0 0, 0 0 M-0.14 6.49 C2.36 3.82, 3.47 1.66, 4.64 0.77 M-0.07 6.14 C1.13 4.99, 2.23 3.35, 4.97 0.31 M-0.76 12.63 C3.01 6.04, 7.44 2.02, 11.59 -0.37 M-0.11 11.56 C3.24 9, 5.71 5.64, 10.64 0.6 M0 18.99 C4.19 15.95, 6.28 10.73, 14.87 -0.69 M0 18.69 C5.75 11.92, 12.02 4.4, 15.98 -0.25 M2.05 25.02 C5.74 17.35, 8.92 10.92, 20.56 1.66 M1.01 24.68 C5.97 19.04, 8.81 12.85, 20.73 1.3 M0.58 29.05 C8.48 21.61, 17.42 12.4, 21.03 6.03 M-0.86 30.79 C7.02 22.32, 15.07 13.03, 19.42 7.42 M1.69 36.67 C5.46 32.02, 11.59 23.61, 20.01 12.94 M0.3 36.27 C6.65 29.97, 11.91 24.57, 21.62 13.25 M1.95 41.36 C6.21 33.9, 13.95 26.88, 20.26 19.38 M-0.75 43.34 C8.83 32.69, 15.35 24.25, 20.59 19.1 M0.14 49.05 C5.89 42.13, 7.41 37.5, 18.44 26.48 M0.76 48.34 C4.67 42.42, 9.88 37.52, 19.67 24.76 M-0.33 55.07 C6.88 49.72, 9.77 43.04, 20.92 32.05 M1.27 55.31 C5.55 48.48, 12.22 42.41, 21.41 30.59 M1 60.4 C8.67 51.82, 14.34 44.46, 19.58 39.06 M0.82 60.94 C7.85 51.4, 16.13 43.84, 20.69 36.72 M0.03 68.71 C5.06 60.46, 9.56 58.82, 22.12 44.63 M-1.25 68.11 C7.2 58.92, 14.7 50.06, 20.52 42.61 M-0.13 74.82 C5.69 67.31, 10.22 62.96, 20.59 48.33 M0.87 73.07 C5.16 66.82, 11.63 60.19, 19.82 49.98 M-1.36 81.2 C6.76 75.47, 11.53 68.37, 21.71 57.1 M0.57 78.57 C4.17 73.69, 8.32 68.81, 21.22 56.38 M-0.24 87.01 C6.85 80.27, 9.98 71.62, 18.67 61.83 M0.61 85.43 C5.32 79.41, 10.94 71.87, 20.16 62.33 M0.53 92.32 C6.43 85.76, 13.76 76.13, 18.88 69.8 M0.94 91.47 C4.7 84.95, 9.63 78.39, 20.09 68.49 M-1.6 99.09 C7.54 89.04, 12.71 82.42, 22.36 73.71 M0.42 97.13 C6.83 89.42, 13.86 83.51, 20.14 73.23 M-1.23 103.72 C4.71 95.43, 10.54 89.89, 22.2 79.94 M0.01 102.54 C5.63 98.82, 9.89 93.05, 21.05 79.53 M-1.18 109.51 C6.38 100.68, 14.56 93.97, 18.95 85.52 M-0.09 110.73 C5.71 102.7, 12.2 95.05, 20.84 86.59 M1.8 115.68 C8.51 106.19, 17.35 95.15, 20.32 90.63 M-0.72 115.18 C6.73 108.78, 13.11 100.82, 19.99 92.98 M1.52 121.63 C6.87 112.72, 16.43 103.52, 21.06 99.15 M0.1 122.74 C5.09 115.71, 11.59 107.68, 20.61 97.74 M0.75 127.88 C2.11 123.19, 9.52 120.33, 21.22 103.59 M-1.11 129.23 C7.46 119.44, 14.42 112.7, 20.12 104.03 M-1.03 132.66 C7.85 126.16, 16.37 113.65, 18.72 109.4 M-0.09 134.59 C7.84 124.8, 13.91 118.13, 21.16 109.97 M0.14 140.34 C6.13 133.4, 17.24 121.82, 19.62 115.92 M0.27 139.97 C5.85 134.77, 10.1 128.12, 19.3 116.31 M-0.94 146.45 C4.01 142.39, 11.04 133.43, 21.99 120.91 M-0.37 145.4 C5.8 140.04, 11.53 134.05, 20.17 123.5 M1.87 153.96 C8.25 146.01, 12.74 134.99, 19.59 129.07 M0.17 152.62 C5.61 147.31, 10.83 141.58, 20.67 128.88 M0.38 158.23 C5.05 153.51, 6.9 150.16, 19.65 133.73 M0.18 158.74 C8.26 149.91, 15.84 140.15, 19.97 134.99 M-0.13 163.53 C3.54 159.7, 9.97 152.21, 18.59 141.4 M-0.67 165.34 C8.71 155.5, 16.05 147.27, 20.71 140.73 M-1.14 171.58 C8.59 163.2, 16.89 153.05, 21.82 148.26 M-0.24 171.61 C6.44 164.21, 11.24 155.96, 20.15 146.51 M-0.55 178.46 C9.33 168.29, 15.95 157.78, 22.11 153.13 M-0.19 175.96 C7.91 168.2, 15.47 159.6, 19.88 153.81 M-0.15 182.97 C7.31 173.52, 15.44 164.62, 20.04 157.78 M-0.08 182.94 C5.78 175.17, 12 169.43, 19.69 160.11 M0.65 187.54 C7.2 180.79, 12.34 174.79, 18.38 167.86 M0.3 188.78 C3.37 185.32, 7.64 179.42, 19.29 166.49 M0.71 194.76 C5.21 190.15, 11.16 182.6, 21.86 173.45 M0.17 194.6 C6.13 188.5, 12.01 182.09, 21.5 170.76 M0.84 199.92 C7.94 193.16, 16.91 184.23, 20.96 177.55 M0.8 201.5 C7.71 193.63, 15.11 183.83, 19.34 178.58 M2.2 207.92 C8.46 199.61, 13.42 190.49, 22.22 185.06 M-0.66 206.16 C5.19 201.34, 10.47 194.92, 19.81 183.1 M-1.22 213.63 C5.77 206.05, 13.22 199.39, 20.8 191.06 M0.63 213.78 C8.15 204.2, 16.12 195.63, 19.74 189.82 M-0.22 218.79 C3.92 214.02, 6.75 209.03, 18.77 197.77 M-1.08 219.63 C4.37 212.82, 11.62 207.67, 19.52 196.23 M1.31 224.58 C4.88 221.71, 9.63 214.73, 20.92 203.09 M1.08 226.22 C6.02 219.23, 10.5 214.16, 20.22 202.91 M-1.74 232.08 C7.27 222.59, 11.42 218.28, 18.52 209.1 M-0.32 232.42 C5.89 225.13, 13.9 215.84, 20.8 208.69 M-1.41 239.3 C5.36 230.72, 13 222.68, 19.68 215 M0.77 237.08 C6.66 230.44, 11.61 223.64, 19.79 214.22 M-0.14 245.41 C9.57 235.49, 13.38 227.55, 21.86 221.46 M-0.27 243.92 C7.42 236.38, 14.57 227.6, 21.17 220.93 M-0.46 251.72 C6.25 245.38, 11.6 236.31, 18.17 227.52 M-1.03 251.11 C7.48 242.57, 14.11 233.41, 20.11 226.57 M-1.17 254.22 C8.22 246.36, 11.69 241.89, 21.23 231.14 M1.14 256.44 C6.01 248.81, 11.61 241.99, 20.11 232.37 M-1.59 264.09 C4.2 258.44, 10.1 252.75, 18.84 237.72 M0.22 262.44 C6.23 254.18, 12.34 247.34, 20.15 238.18 M0.79 268.64 C8.14 259.31, 11.61 253.76, 20.44 245.05 M-0.69 267.97 C4.22 262.08, 7.94 257.49, 20.42 244.09 M-1.16 275.6 C7.93 265.3, 11.89 261.36, 21.52 251.59 M0.42 275.17 C4.98 269.04, 8.42 264.6, 20.2 251.27 M-1.91 282.12 C5.8 271.98, 12.51 266.75, 22.02 257.47 M0.28 280.97 C4.78 275.45, 8.05 270.96, 19.56 257.63 M0.53 287.25 C3.82 281.5, 8.44 274.65, 22.08 260.98 M-0.58 286.32 C5.03 279.25, 11.13 274.68, 20.53 262.94 M0.4 292.5 C2.53 288.42, 9.18 285.14, 21.84 271.06 M-0.62 293.29 C6.74 286.45, 12.09 280.19, 20.26 269.96 M-1.47 298.73 C5.01 288.68, 12.87 282.06, 19.78 276.34 M0.4 298.63 C3.81 293.88, 8.57 288.21, 20.72 274.02 M-1.18 306.51 C3.49 300.43, 7.05 296.54, 21.19 281.35 M-0.71 304.75 C4.46 298.77, 10.8 292.62, 20.59 281.97 M-1.38 313.06 C5.86 303.61, 13.9 295.86, 20.57 287.53 M-0.81 311.25 C8.15 302.83, 15.88 293.27, 21 287.75 M0.48 316.75 C9.41 305.76, 17.63 296.79, 21.37 293.75 M0.66 316.1 C5.9 309.72, 12.06 302.63, 20.62 293.52 M-0.07 321.64 C7.93 315.44, 14.23 308.92, 19.78 300.77 M0.89 322.75 C5.47 316.14, 11.8 309.57, 20.88 300.82 M-0.14 330.44 C5.06 322.26, 14.97 312.8, 19.07 304.28 M-0.58 329.77 C6.4 320.94, 14.39 312.36, 19.69 306.13 M-1.01 336.77 C6.27 327.52, 8.6 321.93, 22.12 311.15 M-0.03 335.69 C8.83 325.98, 16.47 318.28, 21.24 311.84 M-1.8 342.17 C6.28 334.18, 11.04 328.78, 21.7 316.38 M0.19 342.65 C4.87 335.72, 11.26 328.33, 19.82 317.78 M0.35 348.59 C5.76 342.14, 12.29 335.45, 20.33 323.65 M0.84 347.52 C7.12 338.98, 12.95 332.45, 20.9 324.39 M-1.96 354.91 C4.4 344.97, 11.83 338.42, 21.99 329.8 M0.87 353.03 C3.7 348.89, 9.08 344.65, 20.32 329.86 M-0.05 357.9 C8.41 350.4, 16.28 340.45, 22.54 337.85 M1.24 359.39 C6.74 351, 13.34 343.09, 20 335.71 M-0.64 364.51 C6.36 356.73, 13.55 347.66, 22.12 341.22 M0.69 365.17 C6.69 356.95, 15.04 349.13, 19.82 341.72 M0.45 372.85 C7.41 364.37, 13.3 355.16, 19.59 348.74 M-0.44 372.92 C7.13 362.62, 16.13 355.32, 19.33 349.49 M2.15 376.69 C6.25 369.94, 14.18 358.46, 20.25 353.16 M0.85 378.27 C6.46 369.73, 14.36 361.72, 20.93 353.64 M1.85 385.97 C6.71 376.87, 13.56 366.82, 19.66 359.65 M-0.53 385.11 C8.21 375.43, 15.6 366.02, 20.98 360.86 M1.78 391.79 C7.86 381.61, 12.03 374.18, 21.95 366.79 M-0.12 389.18 C7.13 382.35, 13.32 374.32, 21.58 365.58 M1.54 394.67 C6.34 387.77, 13.92 379.31, 20.35 374.81 M0 396.94 C6.17 389.39, 13.71 381.14, 20.38 372.86 M0.36 401.54 C8.86 393.17, 13.99 387.6, 19.51 378.63 M-1.07 403.22 C6.01 395.41, 12.66 389.76, 20.34 379.96 M0.96 410.24 C9.51 399.34, 17.08 388.55, 19.29 384.31 M0.12 408.32 C4.29 403.48, 8.92 397.73, 20.9 385.51 M1.31 414.03 C9.5 407.64, 16.04 395.32, 18.54 389.6 M0.48 415.15 C7.27 406.27, 13.46 399.62, 21.08 390.61 M0.28 419.33 C8.08 411.95, 13.16 405.89, 21.46 396.88 M-0.52 421.59 C6.33 412.59, 13.81 404.53, 21.26 396.48 M1.47 426.23 C3.96 423.48, 10.73 415.04, 22.07 401.47 M0.31 427.64 C6.37 418.9, 15.33 409.56, 21.01 403.32 M0.98 432.98 C6.64 422.07, 14.92 416.02, 18.59 408.61 M-1 432.53 C6.33 425.69, 13.55 418.16, 20.82 409.92 M1.73 436.99 C3.94 432.33, 6.9 429.16, 21.17 413.91 M0.19 438.32 C5.3 434.21, 7.83 428.87, 21.28 414.8 M0.6 444.07 C10.78 436.04, 14.87 428.12, 19.73 419.96 M1.57 441.83 C8.36 435.78, 15.29 427.5, 20.21 421.36 M9.53 443.47 C12.59 437.54, 13.63 436.74, 22.27 429.2 M8.41 442.21 C12.15 437.78, 15.87 432.83, 20.39 427.46 M12.16 441.14 C15.56 439.8, 17.08 436.92, 19.83 432.97 M12.91 442.11 C16.22 438.94, 18.98 436.14, 19.87 434.09" stroke="#868e96" stroke-width="0.5" fill="none"/><path d="M-0.21 -1.02 C5.68 0.01, 12.7 -0.82, 19.75 1.21 M-0.89 0.44 C7.24 -0.17, 14.69 0.8, 18.95 -0.01 M18.69 -0.13 C20.83 141.31, 20.35 280.73, 18.48 439.42 M19.1 0.2 C18.04 98.78, 17.95 197.05, 19.68 439.9 M17.78 438.09 C12.97 440.04, 6.03 439.49, -1.91 440.79 M18.77 439.73 C12.49 440.39, 4.81 439.07, -0.38 440.95 M0.13 439.87 C-1.8 346.99, -0.89 253.43, -0.35 0.17 M-0.05 440.02 C-0.55 315.16, 0.07 189.89, -0.42 0" stroke="#1e1e1e" stroke-width="1" fill="none"/></g><g stroke-linecap="round"><g transform="translate(76.72304116400323 353.1415965460442) rotate(263.5528262650925 -19.355637779760983 25.268200039192564)" fill-rule="evenodd"><path d="M-0.25 -0.91 L-15.58 5.28 L-23.44 10.54 L-34.87 24.6 L-43.51 40.32 L-44.82 44.53 L-41.94 49.79 L-37.01 50.23 L-31.31 48.61 L-15.36 38.22 L-9.59 30.79 L-0.42 17.02 L4.93 8.97 L3.24 4 L-3.08 1.27" stroke="none" stroke-width="0" fill="#2f9e44" fill-rule="evenodd"/><path d="M-0.63 -0.67 C-3.58 0.46, -12.48 3.54, -16.89 6.64 C-21.29 9.75, -24.4 14.58, -27.08 17.96 C-29.76 21.34, -30.21 22.5, -32.96 26.92 C-35.7 31.34, -42.7 40.45, -43.52 44.47 C-44.34 48.5, -42.45 51.98, -37.88 51.08 C-33.31 50.18, -21.8 43.2, -16.12 39.07 C-10.43 34.95, -7.2 31.36, -3.79 26.33 C-0.38 21.3, 4.32 13.1, 4.34 8.89 C4.37 4.69, -2.34 2.72, -3.66 1.11 M1.24 1.6 C-1.94 2.9, -12.9 4.95, -17.79 7.92 C-22.67 10.88, -25.64 16.58, -28.06 19.39 C-30.49 22.2, -29.5 20.47, -32.31 24.78 C-35.13 29.09, -44.16 41, -44.95 45.26 C-45.74 49.52, -41.98 51.58, -37.05 50.32 C-32.12 49.06, -20.81 41.65, -15.39 37.69 C-9.96 33.74, -8.08 31.62, -4.51 26.59 C-0.94 21.56, 5.75 11.73, 6.04 7.5 C6.33 3.27, -1.25 2.49, -2.76 1.2" stroke="#099268" stroke-width="0.5" fill="none"/></g></g><mask/><g stroke-linecap="round"><g transform="translate(76.32448808563441 388.69952761064667) rotate(89.89267640571806 -18.444475395054198 27.000254281069367)" fill-rule="evenodd"><path d="M1.39 -1.87 L-16.82 7.63 L-31.33 19.83 L-46.08 44.17 L-44.95 51.67 L-41.43 54.18 L-38.65 53.7 L-26.33 47.69 L-2.06 27.65 L3.79 17.83 L5.95 10.81 L7.11 7.17 L-0.53 -1.97" stroke="none" stroke-width="0" fill="#2f9e44" fill-rule="evenodd"/><path d="M0.09 -0.5 C-2.51 1.22, -11.91 6.51, -16.24 9.68 C-20.57 12.86, -23.01 15.68, -25.91 18.54 C-28.8 21.41, -30.28 22.59, -33.62 26.87 C-36.95 31.16, -45.14 39.74, -45.91 44.25 C-46.68 48.76, -43.4 54.53, -38.26 53.93 C-33.12 53.34, -20.85 44.92, -15.07 40.69 C-9.28 36.46, -7.42 33.41, -3.54 28.55 C0.33 23.69, 7.51 16.44, 8.16 11.54 C8.8 6.64, 1.72 1.16, 0.34 -0.86 M-1.32 -1.81 C-4.07 -0.42, -13.25 4.6, -17.41 7.67 C-21.57 10.74, -23.62 13.78, -26.28 16.62 C-28.93 19.46, -30.32 19.99, -33.32 24.71 C-36.33 29.43, -43.73 40.24, -44.3 44.93 C-44.87 49.62, -41.79 53.69, -36.76 52.86 C-31.73 52.03, -20.04 44.05, -14.12 39.94 C-8.19 35.83, -4.66 33.07, -1.2 28.2 C2.25 23.32, 6.19 15.69, 6.61 10.7 C7.02 5.7, 2.37 0, 1.28 -1.76" stroke="#099268" stroke-width="0.5" fill="none"/></g></g><mask/><g stroke-linecap="round" transform="translate(44.1983557616756 358.5387142726088) rotate(0 13.461121470427628 46.10215544307238)"><path d="M6.88 -0.84 L22.43 0.78 L27.75 5.11 L27.07 86.73 L23.41 91.43 L23.41 91.67 L4.76 93.69 L-0.51 88.39 L0.39 8.44 L2.24 0.25 L6.48 -0.91" stroke="none" stroke-width="0" fill="#868e96"/><path d="M6.73 0 M6.73 0 C10.47 -0.72, 15.66 -0.79, 20.19 0 M6.73 0 C11.13 0.23, 15.34 -0.16, 20.19 0 M20.19 0 C25.78 -0.41, 27.85 1.33, 26.92 6.73 M20.19 0 C24.72 -1.93, 24.65 2.58, 26.92 6.73 M26.92 6.73 C24.97 31.3, 28.13 52.53, 26.92 85.47 M26.92 6.73 C26.47 32.12, 25.74 55.78, 26.92 85.47 M26.92 85.47 C26.14 91.92, 22.94 93.55, 20.19 92.2 M26.92 85.47 C25.21 90.25, 24.37 91.47, 20.19 92.2 M20.19 92.2 C14.68 92.56, 9.89 92.48, 6.73 92.2 M20.19 92.2 C14.52 92.52, 10.08 92.25, 6.73 92.2 M6.73 92.2 C0.54 92.2, -1.23 88.75, 0 85.47 M6.73 92.2 C2.35 91.95, -1.19 90.64, 0 85.47 M0 85.47 C-0.05 68.2, 0.06 54.07, 0 6.73 M0 85.47 C-1 69.79, -1.42 53.04, 0 6.73 M0 6.73 C1.38 2.3, 3.98 0.42, 6.73 0 M0 6.73 C0.65 2.58, 2.52 1.73, 6.73 0" stroke="#1e1e1e" stroke-width="0.5" fill="none"/></g><g stroke-linecap="round"><g transform="translate(77.94872364107948 355.9764846450637) rotate(0 -18.856126146628696 23.02424427589613)" fill-rule="evenodd"><path d="M-1.16 -1.52 L-16.08 7.32 L-31.39 17.73 L-44.29 34.01 L-46.28 36.47 L-42.74 42.85 L-36.44 45.41 L-32.47 43.11 L-9.99 29.91 L-2.45 24.42 L7.81 5.84 L8.36 6.19 L-0.96 0.08" stroke="none" stroke-width="0" fill="#2f9e44" fill-rule="evenodd"/><path d="M0.75 0.8 C-1.63 2.03, -10.05 5.4, -14.72 7.61 C-19.39 9.83, -24.03 11.81, -27.26 14.09 C-30.49 16.37, -31.06 17.34, -34.09 21.31 C-37.13 25.29, -44.82 33.75, -45.46 37.92 C-46.1 42.09, -43.04 46.74, -37.93 46.31 C-32.81 45.88, -20.71 39.13, -14.75 35.33 C-8.79 31.53, -5.97 28.18, -2.15 23.5 C1.67 18.83, 7.56 11.42, 8.18 7.26 C8.8 3.11, 2.92 0.04, 1.58 -1.4 M-0.32 0.17 C-2.81 1.04, -11.52 3.91, -15.62 5.89 C-19.72 7.86, -21.92 9.28, -24.94 12.03 C-27.96 14.78, -30.15 18.51, -33.76 22.38 C-37.37 26.25, -46.11 31.44, -46.62 35.25 C-47.13 39.06, -42.24 45.38, -36.81 45.26 C-31.37 45.14, -19.62 38.28, -13.99 34.53 C-8.35 30.77, -7.01 26.93, -3 22.71 C1.01 18.5, 9.73 12.84, 10.09 9.25 C10.44 5.67, 0.79 2.93, -0.87 1.22" stroke="#099268" stroke-width="0.5" fill="none"/></g></g><mask/><g stroke-linecap="round"><g transform="translate(77.58061196701141 387.977747773895) rotate(0 -18.444475395054198 27.000254281069367)" fill-rule="evenodd"><path d="M-1.27 0.46 L-17.03 10.28 L-30.01 22.2 L-45.04 43.41 L-42.63 50.45 L-40.66 52.42 L-38.39 52.32 L-29.4 48.4 L-2.95 28.62 L3.23 17.54 L8.73 11.7 L5.37 7.46 L-1.3 -0.55" stroke="none" stroke-width="0" fill="#2f9e44" fill-rule="evenodd"/><path d="M0.09 0.75 C-2.86 2.29, -12.49 7.19, -16.92 10.01 C-21.35 12.83, -23.79 14.81, -26.49 17.68 C-29.19 20.56, -29.97 22.93, -33.12 27.27 C-36.27 31.6, -44.52 39.07, -45.37 43.7 C-46.21 48.32, -43.2 55.86, -38.19 55.03 C-33.18 54.19, -21.16 43.19, -15.32 38.69 C-9.47 34.19, -7.15 32.9, -3.14 28.02 C0.87 23.13, 8.33 14.25, 8.76 9.39 C9.18 4.54, 0.97 0.62, -0.6 -1.1 M-1.32 0.1 C-3.98 1.21, -10.48 5.03, -14.79 8.17 C-19.09 11.31, -24.21 16.11, -27.17 18.96 C-30.13 21.82, -29.85 21.12, -32.57 25.31 C-35.28 29.5, -42.79 39.21, -43.47 44.08 C-44.15 48.95, -41.48 55.11, -36.65 54.53 C-31.82 53.94, -19.9 45.08, -14.5 40.55 C-9.09 36.03, -7.92 32.3, -4.25 27.39 C-0.58 22.48, 6.84 15.39, 7.52 11.08 C8.21 6.77, 1.23 3.44, -0.15 1.53" stroke="#099268" stroke-width="0.5" fill="none"/></g></g><mask/><g stroke-linecap="round"><g transform="translate(80.13486560095066 425.3756204838991) rotate(0 -20.742885733935026 16.520839420853555)" fill-rule="evenodd"><path d="M-1.21 0.81 L-16.35 5.88 L-38.65 15.27 L-46.29 23.36 L-46.06 28.08 L-43.08 31.37 L-36.47 33.69 L-16.63 29.83 L-9.77 24 L0.46 20 L4.2 11.38 L4.47 7.19 L0.11 0.72" stroke="none" stroke-width="0" fill="#2f9e44" fill-rule="evenodd"/><path d="M-1.1 0.54 C-3.84 1.25, -11.95 3.23, -16.34 4.97 C-20.72 6.72, -23.65 9.25, -27.42 11.02 C-31.19 12.78, -35.68 13.26, -38.97 15.56 C-42.26 17.86, -46.52 22.03, -47.16 24.8 C-47.79 27.57, -46.53 31.1, -42.78 32.18 C-39.03 33.27, -30.39 32.53, -24.66 31.31 C-18.93 30.09, -13.41 28.41, -8.41 24.85 C-3.42 21.29, 4.02 14.22, 5.31 9.93 C6.59 5.63, 0.31 0.7, -0.7 -0.91 M0.52 -0.22 C-2.37 0.62, -12.47 4.89, -17.2 6.47 C-21.93 8.06, -24.24 7.57, -27.88 9.27 C-31.51 10.97, -35.58 14.52, -39.02 16.66 C-42.46 18.79, -47.53 19.12, -48.51 22.07 C-49.48 25.02, -48.92 32.48, -44.85 34.35 C-40.78 36.23, -30.07 34.46, -24.1 33.33 C-18.12 32.21, -14.18 31.2, -9 27.58 C-3.82 23.96, 5.53 15.92, 6.98 11.62 C8.43 7.33, 1.01 3.52, -0.3 1.82" stroke="#099268" stroke-width="0.5" fill="none"/></g></g><mask/><g stroke-linecap="round"><g transform="translate(77.49754254306379 355.2931707294186) rotate(0 -22.600567531538246 7.270460529428661)" fill-rule="evenodd"><path d="M-0.23 -0.3 L-19.16 -3.82 L-25.68 -3.88 L-42.95 1.54 L-47.17 9.81 L-41.6 15.6 L-33.11 16.7 L-15.33 9.25 L-1.71 0.36" stroke="none" stroke-width="0" fill="#2f9e44" fill-rule="evenodd"/><path d="M0.16 -0.07 C-2.93 -0.53, -14.26 -2.03, -19.68 -2.27 C-25.1 -2.51, -28.51 -2.61, -32.36 -1.52 C-36.2 -0.44, -40.66 2.55, -42.75 4.24 C-44.83 5.94, -45.02 6.86, -44.86 8.65 C-44.7 10.44, -43.82 13.64, -41.78 14.99 C-39.75 16.34, -34.39 16.44, -32.66 16.75 C-30.94 17.06, -34.09 18.45, -31.45 16.85 C-28.81 15.25, -20.66 9.15, -16.84 7.15 C-13.02 5.16, -11.22 6, -8.54 4.89 C-5.85 3.78, -2.17 1.22, -0.73 0.49 M-1.21 -1.15 C-4.32 -1.97, -14.95 -3.95, -20.32 -3.79 C-25.69 -3.64, -29.74 -1.22, -33.42 -0.21 C-37.09 0.79, -40.25 0.76, -42.38 2.23 C-44.5 3.69, -46.48 6.08, -46.16 8.59 C-45.84 11.11, -42.27 15.67, -40.45 17.32 C-38.63 18.97, -37.13 18.1, -35.24 18.48 C-33.36 18.86, -32.47 21.18, -29.13 19.59 C-25.8 18, -18.71 11.45, -15.22 8.95 C-11.73 6.45, -10.57 5.79, -8.17 4.58 C-5.76 3.38, -1.94 2.43, -0.79 1.73" stroke="#099268" stroke-width="0.5" fill="none"/></g></g><mask/><g stroke-linecap="round"><g transform="translate(80.07004665906243 444.4514069262549) rotate(0 -8.035750692067083 7.6691787742844255)" fill-rule="evenodd"><path d="M-1.27 0.46 L3.53 5.04 L5.44 8.89 L2.53 13.91 L-4.89 14.66 L-19.89 11.37 L-9.43 6.04 L-1.97 0.29" stroke="none" stroke-width="0" fill="#2f9e44" fill-rule="evenodd"/><path d="M0.59 1.14 C1.26 1.86, 3.5 2.27, 4.19 4.21 C4.88 6.16, 5.6 11.09, 4.73 12.8 C3.86 14.51, 3.26 14.66, -1.03 14.48 C-5.31 14.3, -19.7 13.05, -20.97 11.74 C-22.24 10.42, -12.02 8.73, -8.63 6.59 C-5.23 4.45, -1.92 0.15, -0.6 -1.1 M-0.57 0.7 C-0.12 1.62, 2.17 4.03, 2.95 5.74 C3.72 7.46, 4.68 9.43, 4.09 11 C3.49 12.56, 3.83 14.99, -0.6 15.13 C-5.04 15.28, -20.88 12.93, -22.52 11.84 C-24.16 10.76, -14.14 10.49, -10.44 8.63 C-6.73 6.76, -2.28 2.36, -0.27 0.64" stroke="#099268" stroke-width="0.5" fill="none"/></g></g><mask/><g stroke-linecap="round"><g transform="translate(76.72304116400323 13.141596546044127) rotate(263.5528262650925 -19.355637779760983 25.26820003919258)" fill-rule="evenodd"><path d="M1.1 -0.41 L-16.05 6.23 L-22.4 10.69 L-35.68 26.42 L-42.21 39.93 L-44.14 41.75 L-41.29 50.13 L-38.49 50.89 L-33.72 48.48 L-16.17 39.86 L-10.97 30.47 L0.78 18.69 L3.16 10.25 L2.28 6.22 L-4.16 -0.56" stroke="none" stroke-width="0" fill="#2f9e44" fill-rule="evenodd"/><path d="M-0.56 -0.02 C-3.44 1.16, -12.44 5.35, -16.74 8.17 C-21.03 10.99, -23.46 13.99, -26.32 16.89 C-29.17 19.79, -31.12 21.29, -33.86 25.58 C-36.6 29.86, -42.19 38.63, -42.78 42.6 C-43.36 46.58, -41.68 50.17, -37.38 49.44 C-33.08 48.71, -22.35 42.22, -16.98 38.22 C-11.6 34.23, -8.66 30.27, -5.14 25.46 C-1.61 20.66, 3.95 13.54, 4.17 9.4 C4.4 5.25, -2.43 2.17, -3.8 0.59 M1.35 -1.07 C-1.73 0.3, -12.85 3.45, -17.56 6.59 C-22.27 9.73, -24.22 14.46, -26.91 17.76 C-29.59 21.06, -30.87 22.29, -33.69 26.39 C-36.51 30.5, -43.38 38.22, -43.81 42.4 C-44.24 46.59, -40.81 51.87, -36.29 51.48 C-31.77 51.09, -22.27 44.43, -16.7 40.06 C-11.14 35.69, -6.65 30.56, -2.9 25.26 C0.85 19.97, 5.79 12.41, 5.78 8.27 C5.77 4.12, -1.39 1.65, -2.98 0.4" stroke="#099268" stroke-width="0.5" fill="none"/></g></g><mask/><g stroke-linecap="round"><g transform="translate(76.32448808563436 48.69952761064667) rotate(89.89267640571806 -18.444475395054198 27.000254281069374)" fill-rule="evenodd"><path d="M0.92 -0.92 L-15.78 7.79 L-32.14 21.65 L-44.78 43.77 L-44.26 48.89 L-40.77 54.52 L-40.13 54.36 L-28.73 47.56 L-2.87 29.29 L2.41 17.51 L7.14 12.47 L5.34 8.45 L-1.49 0.25" stroke="none" stroke-width="0" fill="#2f9e44" fill-rule="evenodd"/><path d="M0.23 1.03 C-2.25 2.46, -10.97 5.91, -15.48 8.61 C-19.99 11.3, -23.91 14.47, -26.81 17.2 C-29.71 19.93, -29.77 20.77, -32.87 25 C-35.97 29.24, -44.37 37.93, -45.41 42.61 C-46.45 47.29, -43.95 53.55, -39.12 53.09 C-34.29 52.62, -22.32 43.83, -16.41 39.82 C-10.51 35.81, -7.79 33.85, -3.71 29.05 C0.36 24.25, 7.42 15.89, 8.01 11.02 C8.61 6.15, 1.09 1.69, -0.14 -0.18 M-1.1 0.52 C-3.67 2.09, -11.83 6.74, -16.25 9.7 C-20.68 12.65, -25 15.59, -27.65 18.23 C-30.31 20.87, -29.54 21.49, -32.18 25.52 C-34.83 29.55, -42.56 37.47, -43.54 42.42 C-44.52 47.38, -42.64 55.86, -38.07 55.23 C-33.51 54.6, -22.27 43, -16.17 38.62 C-10.07 34.24, -5.22 33.75, -1.46 28.96 C2.3 24.18, 6.05 14.85, 6.39 9.9 C6.73 4.95, 1.4 0.82, 0.56 -0.73" stroke="#099268" stroke-width="0.5" fill="none"/></g></g><mask/><g stroke-linecap="round" transform="translate(44.19835576167566 18.538714272608786) rotate(0 13.461121470427628 46.10215544307238)"><path d="M7.12 1.71 L23.7 -1.01 L26.25 2.87 L28.32 83.61 L24.24 88.69 L21.97 90.26 L2.52 92.24 L-0.79 89.23 L0.15 7.57 L1.45 1.38 L7.83 -0.41" stroke="none" stroke-width="0" fill="#868e96"/><path d="M6.73 0 M6.73 0 C10.26 -1.33, 16.25 0.02, 20.19 0 M6.73 0 C11.08 0.53, 14.31 0.25, 20.19 0 M20.19 0 C23.38 -0.55, 27.03 2.97, 26.92 6.73 M20.19 0 C23.13 -2.3, 26.03 4.49, 26.92 6.73 M26.92 6.73 C27.7 23.24, 26.81 41.79, 26.92 85.47 M26.92 6.73 C27.84 34.83, 27.78 64.16, 26.92 85.47 M26.92 85.47 C26.71 90.06, 23.47 93.13, 20.19 92.2 M26.92 85.47 C28.38 90.08, 22.72 92.19, 20.19 92.2 M20.19 92.2 C16.83 91.52, 14.16 90.95, 6.73 92.2 M20.19 92.2 C16.87 91.97, 14.61 91.56, 6.73 92.2 M6.73 92.2 C4.13 91.91, -0.51 91.77, 0 85.47 M6.73 92.2 C0.69 93.91, 1.59 90.03, 0 85.47 M0 85.47 C0.13 55.24, 1.34 23.97, 0 6.73 M0 85.47 C0.56 64.42, -0.48 45.04, 0 6.73 M0 6.73 C0.95 0.97, 2.67 0.43, 6.73 0 M0 6.73 C-0.55 1.78, 2.15 -0.29, 6.73 0" stroke="#1e1e1e" stroke-width="0.5" fill="none"/></g><g stroke-linecap="round"><g transform="translate(77.94872364107948 15.976484645063692) rotate(0 -18.856126146628696 23.024244275896137)" fill-rule="evenodd"><path d="M-1.97 0.29 L-14.77 6.93 L-30.7 14.95 L-43.64 34.35 L-47.76 37.13 L-45.14 42.72 L-37.26 47.05 L-33.85 42.79 L-8.79 31.57 L-4.23 25.71 L6.84 8.06 L7.29 4.36 L2.25 0.9" stroke="none" stroke-width="0" fill="#2f9e44" fill-rule="evenodd"/><path d="M-0.15 -0.55 C-2.54 0.55, -9.54 3.58, -13.97 5.74 C-18.4 7.91, -23.26 9.99, -26.76 12.45 C-30.25 14.9, -31.61 16.37, -34.95 20.47 C-38.3 24.57, -46.28 32.66, -46.81 37.05 C-47.33 41.44, -43.41 47.18, -38.1 46.81 C-32.78 46.44, -20.81 38.58, -14.89 34.81 C-8.98 31.04, -6.61 28.72, -2.63 24.18 C1.35 19.64, 8.34 11.73, 8.99 7.57 C9.65 3.4, 2.67 0.65, 1.3 -0.83 M-1.69 1.78 C-4.19 3.06, -10.12 4.79, -14.48 6.69 C-18.84 8.59, -24.41 10.79, -27.84 13.19 C-31.27 15.59, -32.21 17.03, -35.07 21.09 C-37.94 25.16, -44.68 33.43, -45.02 37.59 C-45.35 41.74, -42.2 46.67, -37.07 46.03 C-31.93 45.38, -19.76 37.45, -14.2 33.73 C-8.65 30.02, -7.37 28.36, -3.73 23.74 C-0.08 19.13, 6.65 10.27, 7.67 6.05 C8.68 1.83, 3.46 -0.42, 2.36 -1.57" stroke="#099268" stroke-width="0.5" fill="none"/></g></g><mask/><g stroke-linecap="round"><g transform="translate(77.58061196701146 47.97774777389503) rotate(0 -18.444475395054198 27.000254281069374)" fill-rule="evenodd"><path d="M0.03 0.06 L-16.34 7.49 L-29.35 22.54 L-46.52 44.07 L-45.04 50.31 L-41.47 54.06 L-39.77 52 L-28.21 50.06 L-4.73 29.91 L2.26 19.76 L7.65 9.87 L8.58 8.29 L1.9 -0.69" stroke="none" stroke-width="0" fill="#2f9e44" fill-rule="evenodd"/><path d="M0.84 -1.12 C-1.88 0.37, -11.72 5.37, -16.42 8.36 C-21.12 11.36, -24.35 13.83, -27.35 16.84 C-30.36 19.84, -31.44 21.84, -34.47 26.4 C-37.5 30.96, -44.89 39.51, -45.54 44.2 C-46.18 48.88, -43.29 55.31, -38.33 54.51 C-33.37 53.7, -21.79 43.73, -15.79 39.36 C-9.79 35, -6.37 33.22, -2.33 28.32 C1.72 23.42, 8.08 14.85, 8.48 9.96 C8.87 5.08, 1.63 0.63, 0.02 -1.01 M-0.18 0.91 C-2.48 2.55, -9.92 6.53, -14.02 9.32 C-18.13 12.12, -21.39 14.62, -24.83 17.67 C-28.26 20.73, -31.47 23.12, -34.62 27.65 C-37.77 32.17, -43.36 40.5, -43.73 44.84 C-44.11 49.19, -41.62 54.89, -36.87 53.73 C-32.12 52.58, -20.87 42.24, -15.22 37.92 C-9.58 33.61, -6.72 32.17, -3 27.85 C0.72 23.52, 6.46 16.31, 7.09 11.95 C7.73 7.59, 2.23 3.46, 0.8 1.67" stroke="#099268" stroke-width="0.5" fill="none"/></g></g><mask/><g stroke-linecap="round"><g transform="translate(80.13486560095066 85.37562048389913) rotate(0 -20.742885733935026 16.520839420853548)" fill-rule="evenodd"><path d="M-0.53 -1.97 L-15.69 6.22 L-40.13 15.93 L-48.7 23.23 L-46.87 29.72 L-44.47 31.04 L-35.28 35.35 L-18.4 31.12 L-10.74 26.22 L-0.61 18.18 L7.41 12.2 L7.68 7.04 L0.34 -0.32" stroke="none" stroke-width="0" fill="#2f9e44" fill-rule="evenodd"/><path d="M-0.6 -1.1 C-3.61 -0.23, -12.51 2.25, -17.2 4.13 C-21.89 6, -25.11 8.16, -28.77 10.15 C-32.42 12.14, -36.05 13.71, -39.14 16.07 C-42.23 18.42, -46.62 21.48, -47.3 24.28 C-47.99 27.08, -47.17 31.64, -43.26 32.86 C-39.35 34.08, -29.61 32.85, -23.85 31.61 C-18.09 30.37, -13.66 29.02, -8.7 25.42 C-3.73 21.82, 4.68 14.23, 5.93 10.02 C7.18 5.81, -0.2 1.84, -1.18 0.18 M1.28 0.94 C-1.4 2.03, -10.26 3.41, -14.85 5.18 C-19.45 6.96, -22.2 10.18, -26.27 11.61 C-30.34 13.04, -35.54 11.54, -39.28 13.76 C-43.02 15.99, -48.28 21.95, -48.72 24.94 C-49.16 27.93, -46.23 30.86, -41.92 31.72 C-37.61 32.59, -28.27 31.29, -22.86 30.13 C-17.44 28.98, -13.95 27.85, -9.43 24.79 C-4.91 21.73, 2.87 15.93, 4.27 11.77 C5.67 7.61, -0.38 1.6, -1.04 -0.18" stroke="#099268" stroke-width="0.5" fill="none"/></g></g><mask/><g stroke-linecap="round"><g transform="translate(77.49754254306379 15.293170729418591) rotate(0 -22.600567531538246 7.270460529428647)" fill-rule="evenodd"><path d="M-1.71 0.36 L-21.57 -3.96 L-26.49 -2.24 L-44.33 1.22 L-45.98 11.47 L-43.37 16.88 L-34.08 18.93 L-16.41 7.42 L1.5 1.18" stroke="none" stroke-width="0" fill="#2f9e44" fill-rule="evenodd"/><path d="M-0.7 -0.91 C-4.1 -1.25, -15.72 -3.12, -21.03 -3.14 C-26.33 -3.15, -28.88 -2.16, -32.53 -1.02 C-36.17 0.12, -40.75 2, -42.89 3.72 C-45.03 5.45, -45.66 7.4, -45.34 9.33 C-45.02 11.26, -43.03 13.96, -40.97 15.29 C-38.9 16.62, -34.64 17.05, -32.95 17.32 C-31.26 17.6, -33.43 18.46, -30.83 16.95 C-28.22 15.43, -21.17 10.29, -17.33 8.24 C-13.48 6.19, -10.59 6.22, -7.75 4.65 C-4.92 3.08, -1.69 -0.53, -0.32 -1.18 M1.14 1.22 C-1.83 0.6, -13.52 -4.39, -18.72 -5.12 C-23.91 -5.84, -26.04 -4.2, -30.02 -3.11 C-34 -2.02, -39.78 -0.69, -42.59 1.43 C-45.41 3.55, -46.84 7.51, -46.88 9.62 C-46.93 11.74, -45.35 12.5, -42.87 14.12 C-40.39 15.74, -33.85 18.41, -32.01 19.35 C-30.17 20.28, -34.52 21.8, -31.84 19.74 C-29.17 17.67, -20.11 9.54, -15.96 6.95 C-11.82 4.37, -9.61 5.52, -6.97 4.22 C-4.34 2.93, -1.21 -0.23, -0.16 -0.82" stroke="#099268" stroke-width="0.5" fill="none"/></g></g><mask/><g stroke-linecap="round"><g transform="translate(80.07004665906243 104.45140692625489) rotate(0 -8.035750692067083 7.669178774284433)" fill-rule="evenodd"><path d="M0.03 0.06 L4.22 2.26 L6.09 9.23 L1.05 14.57 L-7.3 14.53 L-20.7 13.01 L-10.81 5.72 L-0.78 1.96" stroke="none" stroke-width="0" fill="#2f9e44" fill-rule="evenodd"/><path d="M-0.76 0.27 C0.02 1.21, 3.13 2.72, 4.02 4.72 C4.91 6.72, 5.51 10.54, 4.59 12.28 C3.67 14.02, 2.62 15.2, -1.5 15.16 C-5.63 15.12, -18.92 13.37, -20.15 12.04 C-21.39 10.71, -12.27 9.34, -8.91 7.16 C-5.55 4.99, -1.27 0.16, 0.02 -1.01 M1.04 -0.63 C2.27 0.03, 5.88 1.04, 6.35 2.85 C6.82 4.65, 5.15 7.98, 3.87 10.2 C2.59 12.42, 2.86 15.81, -1.33 16.16 C-5.52 16.51, -19.69 13.41, -21.28 12.3 C-22.87 11.19, -14.53 11.41, -10.87 9.49 C-7.21 7.57, -1.27 2.37, 0.67 0.78" stroke="#099268" stroke-width="0.5" fill="none"/></g></g><mask/><g stroke-linecap="round" transform="translate(199.99999999999994 -18.154719180564882) rotate(270 10.000000000000036 200)"><path d="M0 0 C0 0, 0 0, 0 0 M0 0 C0 0, 0 0, 0 0 M-0.75 6.8 C1.21 5, 2.33 3.19, 5.62 -0.35 M-0.15 6.6 C1.65 4.44, 3.02 2.44, 4.78 0.7 M0.54 12.03 C5.15 7.56, 8.41 3.07, 9.71 -0.72 M0.51 12.23 C3.99 6.56, 7.96 2.42, 11.02 -0.63 M1.06 20.29 C3.95 12.75, 5.52 10.71, 16.85 2.1 M-0.84 18.83 C6.05 12.27, 12.1 4.69, 15.09 0.96 M0.89 23.07 C5.75 18.98, 9.03 11.23, 21.27 0.42 M0.16 23.98 C8.28 15.94, 14.4 7.72, 20.71 0.41 M-1.2 32.39 C3.55 26.49, 10.14 22.35, 22.04 7.35 M-0.58 30 C7.04 21.78, 14.88 13.54, 21.13 7.32 M1.39 38.47 C7 26, 17.04 18.33, 20.7 11.06 M-0.19 37.63 C4.39 29.94, 10.01 23.52, 21.22 12.23 M-1.02 42.16 C6.16 33.94, 15.28 24.7, 18.94 18.39 M0.39 43.22 C8.12 33.61, 15.2 25.86, 20.92 18.95 M1.38 47.51 C5.02 44.27, 10.34 40.59, 19.71 25.33 M-0.4 49.87 C4.73 42.94, 10.39 35.77, 21.62 25.63 M0.23 54.69 C5.81 47.59, 15.51 39.54, 18.92 29.56 M0.95 55 C7.3 46.04, 16.86 37.46, 21.32 31.91 M1.52 60.34 C8.26 51.57, 15.79 44.23, 19.82 35.43 M0.92 61.3 C4.69 55.7, 10.04 49.95, 20.37 36.53 M-0.11 66.47 C6.96 60.19, 13.38 49.94, 21.5 42.17 M0.65 68.28 C7.4 60.69, 13.34 53.07, 21.29 42.22 M-1.52 73 C2.82 67.77, 7 64.5, 21.24 48.97 M1.13 73.45 C4.98 67.5, 8 62.39, 20.57 49.32 M0.65 78.31 C6.88 71.92, 10.17 65.34, 22.25 55.37 M0.32 79.43 C5.63 74.02, 9.53 66.8, 21.75 54.86 M0.34 84.15 C7.26 74.3, 14.11 66.54, 21.52 61.9 M0.9 85.54 C3.98 80.07, 8.72 76.17, 20.63 61.79 M-1.4 91.96 C2.77 87.64, 10.51 79.99, 20.1 66.95 M0.13 90.75 C3.83 85.58, 9.02 81.75, 20.94 66.48 M-2.13 99.83 C6.77 92.52, 11.53 85.08, 19.64 75.09 M-0.43 97.23 C4.12 92.31, 9.75 86.59, 20.27 73.7 M1.85 103.01 C6.74 95.99, 12.28 89.22, 20.7 82.05 M0.23 103.5 C5.41 97.55, 9.91 90.85, 19.74 80.17 M-0.8 110.43 C7.98 102.46, 13.8 92.08, 22.58 87.24 M-0.26 109.59 C7.9 100.82, 16.02 90.91, 21.2 85.74 M1.92 113.68 C9.14 106.14, 14.36 99.47, 19.06 90.22 M0.06 114.62 C7.55 107.7, 15.87 98.92, 20.33 92.46 M1.85 123.25 C4.19 116.55, 12.73 107.29, 20.08 100.47 M-0.63 121.68 C5.9 116.03, 9.5 109.19, 19.77 99.03 M1.01 129.56 C4.74 119.61, 14.65 113.98, 19.58 105.86 M-0.25 127.47 C6.38 122.8, 10.56 115.41, 20.23 103.83 M-0.62 135.44 C9.2 124.14, 16.07 114.25, 19.19 109.22 M0.38 133.44 C7 127.93, 11.14 121.21, 19.64 110.13 M-1.31 140.63 C4.72 136.3, 9.49 128.62, 22.68 117.26 M0.67 140.88 C7.1 132.18, 11.94 125.45, 20.92 115.66 M0.74 146.78 C5.93 142.19, 10.31 136.58, 20.38 120.86 M0 146.54 C7.38 136.87, 15.47 128.97, 19.79 123.54 M-0.08 153.72 C8.19 144.16, 14.58 134.78, 19.54 128.07 M-0.43 151.58 C7.96 143.82, 14.5 134.63, 20.54 129.82 M1.57 160.43 C6.49 152.09, 14.58 144.06, 20.14 136.6 M0.13 159.08 C6.77 152.34, 12.39 145.78, 21.17 134.69 M1.71 165.56 C9.32 153.58, 15.09 145.91, 18.64 142.33 M1.15 165.27 C6.69 157.64, 12.05 150.63, 20.52 141.58 M-1.13 171.93 C7.14 164.34, 13.81 152.57, 22.35 148.29 M-0.06 170.58 C5.37 164.1, 11.2 157.29, 20.04 146.72 M0.41 175.51 C4.5 169.2, 12.8 162.35, 21.89 152.94 M-0.58 177.32 C7.38 167.78, 15.66 157.46, 21.62 152.15 M-0.96 181.69 C7.67 174.75, 11.61 167.18, 21.6 159.15 M-0.05 182.51 C7.02 175.73, 12.49 169.88, 21.33 159.19 M-0.86 190.27 C6.17 183.4, 12.63 176.06, 19.23 166.7 M-0.93 189.54 C8.16 180.89, 16.11 171.17, 20.58 165.69 M0.53 195.97 C7.25 189.45, 10.11 179.6, 21.82 172.78 M0.64 195.27 C6.01 187.7, 11.06 183.18, 21.25 171.08 M-1.69 200.94 C7.91 192.74, 14.48 182.81, 19.97 176.99 M0.03 201.18 C5.19 195.71, 10.8 188.94, 21.44 178.04 M1.14 207.71 C7.31 199.33, 15.64 188.72, 20.36 181.63 M-0.19 206.96 C5.85 199.33, 11.81 192.34, 21.34 183.35 M-0.22 211.5 C6.36 206.53, 16.32 195.71, 20.12 188.63 M-0.38 213.43 C8.46 204.58, 15.29 195.99, 20.92 189.5 M1.41 221.18 C5.63 212.19, 13.81 204.12, 22.59 196.07 M-0.08 220.11 C4.67 212.64, 11.88 206.21, 21.11 195.85 M1.42 223.78 C6.39 221.49, 7.5 216.23, 21.08 202.74 M1.1 224.4 C5.2 219.92, 9.51 215, 20.99 201.76 M-0.8 233.03 C3.94 225.78, 8.31 218.31, 21.26 209.06 M0.69 232.68 C4.38 225.81, 9.11 222.5, 21.41 208.16 M0.47 238.27 C9.44 229.48, 16.03 221.39, 21.62 213.38 M1.04 237.92 C6.46 231.69, 10.45 224.06, 20.98 214.49 M1.79 244.8 C5.14 239.35, 7.15 234.29, 19.83 220.95 M-0.79 244.59 C5.81 235.35, 14.17 228.72, 19.71 220.28 M0.9 250.8 C7.03 240.85, 14.83 230.42, 20.54 224.45 M0.69 250.24 C8.13 242.26, 15.55 231.95, 20.19 226.28 M0.5 255.89 C6.55 246.14, 15.58 237.78, 19.12 232.46 M0.53 256.66 C3.74 250.15, 8.94 245.41, 20.77 231.63 M0.02 261.6 C5.63 252.15, 13.78 245.3, 20.04 238.48 M0.55 263.03 C6.19 253.88, 14.91 246.92, 21.24 237.41 M2.01 268.35 C5.98 259.53, 13.29 254.79, 21.34 245.18 M1.01 267.44 C4.18 262.55, 9.84 258.96, 20.72 243.59 M0.56 275.76 C4.93 267.39, 11.17 260.32, 21.01 249.38 M0.49 273.92 C7.21 265.91, 13.36 259.05, 19.39 250.6 M-0.28 279.58 C4.73 273.38, 14.81 265.62, 20.74 254.58 M-0.35 279.9 C5.01 275.48, 10.63 270.15, 21.63 256.48 M1.25 288.25 C7.68 279.6, 15.41 271.33, 21.72 263.44 M0.34 285.47 C6.06 278.16, 13.6 269.86, 21.18 262.01 M0.38 291.37 C6.36 285.61, 10.63 278.98, 18.95 266.77 M0.77 292.43 C7.63 283.51, 15.69 275.86, 20.88 268.3 M0.22 296.67 C8.58 289.55, 16.71 280.97, 21.8 275.81 M1.24 297.93 C5.78 292.41, 11.28 286.33, 20.52 275.72 M0.16 306.36 C6.64 300.12, 10.72 293.27, 20.3 283.21 M0.01 305.38 C4.11 299.68, 9.24 293.57, 20.54 281.47 M-1.69 310 C5.54 303.11, 11.5 298.11, 20.95 287.52 M-1.01 312 C7.73 302.58, 16.33 292.4, 21.25 286.76 M-0.78 317.09 C5.77 310.41, 12.38 301.74, 22.48 293.74 M0.96 316.03 C7.12 310.37, 12.56 301.17, 19.92 293.88 M1.7 321.56 C7.24 315.57, 13.29 305.2, 22.22 298.24 M0.67 323.79 C6.66 313.75, 14.44 306.82, 20.55 299.86 M1.14 330.73 C4 325.31, 10.91 319.9, 20.58 305.09 M0.56 329.35 C7.23 320.55, 15.18 312.85, 19.7 305.34 M2 333.6 C6.92 328.66, 10.75 322.53, 19.4 311 M0.69 335.36 C4.85 330.91, 8.93 324.96, 20.25 312.18 M0.19 341.81 C3.46 334.3, 10.7 331.08, 21.73 317.85 M0.39 340.74 C6.16 333.25, 13.7 326.35, 20.53 316.59 M-1.18 346.19 C5.31 342.62, 11.47 335.8, 19.61 325.2 M-0.54 347.72 C7.13 339.78, 13.55 331.86, 21.47 324.29 M0 353.23 C6.89 343.3, 14.85 333.75, 20.42 331.24 M-0.7 353.05 C7.89 343.73, 15.75 336.47, 20.35 330.07 M-0.84 358.06 C3.99 354.73, 9.66 346.82, 19.38 337.12 M0.67 359.55 C7.23 351.24, 13.37 343.93, 20.65 336.74 M1.59 364.77 C3.39 361.92, 11.27 353.14, 21.87 343.87 M-0.5 365.05 C8.11 356.32, 14.3 348.07, 19.78 342.67 M0.74 371.32 C5.92 365.83, 12.07 357.39, 19.26 348.94 M0.68 371.97 C5.7 365.32, 10.24 358.96, 20.22 348.98 M2.02 378.1 C7.01 370.13, 12.6 366.01, 20.65 354.7 M1.17 378.46 C7.63 368.12, 15.49 360.13, 20.7 354.67 M-1.39 384.42 C6.33 376.69, 11.58 372.33, 19.2 361.42 M-0.85 383.55 C5.84 376.86, 11.64 370.88, 21.91 360.18 M1.74 389.5 C8.3 383.7, 13.55 373.59, 20.71 367.57 M-0.22 390.7 C5.24 383.43, 11.96 377.17, 20.36 366.34 M1.25 396.72 C4.68 391.96, 12.55 383.95, 21.85 374.74 M1.04 396.78 C4.67 391.34, 8.35 385.29, 20.12 371.94 M1.21 401.12 C8.57 393.35, 14.28 384.92, 22.05 380.21 M0.79 402.09 C10.01 392.3, 16.2 382.12, 19.96 378.87 M7.71 401.88 C10.75 394.77, 18.19 391.01, 19.21 385.41 M5.89 401.55 C10.89 395.22, 16.5 390.28, 20.51 385.27 M12.47 400.27 C13.66 398.14, 16.15 396.64, 20.32 389.42 M11.57 400.92 C15.77 397.8, 17.98 393.91, 20.28 390.94 M17.85 400.21 C18.77 399.8, 19.37 398.53, 20.67 397.4 M17.37 400.52 C17.97 399.61, 19.17 398.64, 20.53 396.98" stroke="#868e96" stroke-width="0.5" fill="none"/><path d="M0.81 0.15 C5.57 -0.11, 9.16 1.22, 19.59 0.92 M-0.99 0.15 C5.1 0.2, 9.9 -0.82, 20.4 0.59 M19.69 0.06 C20.81 84.99, 19.27 171.07, 21.11 399.02 M19.92 -0.18 C18.73 147.19, 18.85 293.53, 20.09 399.91 M20.09 398.79 C14.7 401.24, 7.65 398.28, -0.01 398.77 M19.48 400.29 C14.28 399.19, 10.98 399.64, -0.5 399.72 M-0.17 399.71 C3.05 256.93, 2.87 116.18, 0.03 0.99 M0.07 400.43 C-0.8 271.45, -0.68 143.1, 0.29 -0.32" stroke="#1e1e1e" stroke-width="1" fill="none"/></g><g stroke-linecap="round" transform="translate(200.00000000000006 121.84528081943512) rotate(270 9.999999999999957 200)"><path d="M0 0 C0 0, 0 0, 0 0 M0 0 C0 0, 0 0, 0 0 M-0.13 6.6 C1.03 4.75, 3.24 2.41, 5.11 0.79 M0.03 6.35 C1.34 4.37, 2.73 3.01, 5.37 0.74 M1.11 12.34 C3.48 8.86, 5.74 3.81, 12.13 -0.64 M-0.18 11.41 C3.67 7.3, 8.63 2.02, 9.96 0.69 M0.7 16.8 C4.64 11.75, 12.8 6.49, 17.37 1.34 M0.04 19.34 C5.28 12.77, 9.82 7.1, 15.01 0.07 M0.82 24.39 C3.51 17.35, 9.54 13.93, 21.36 -1.05 M1.21 24.04 C8.57 14.44, 16.56 5.23, 19.63 0.58 M-0.73 31.5 C9.22 23.45, 16.12 14.13, 21.89 6.31 M-0.2 30.3 C8.74 21.04, 16.67 12.71, 21.92 6.47 M-1.2 35.29 C4.83 31.83, 8.39 24.83, 19.89 11.32 M-1.19 36.19 C5.6 28.26, 13.37 21.09, 21.28 13.23 M-0.91 42.4 C9.03 32.4, 14.53 23.66, 21.69 19.31 M0.8 41.99 C5.98 36.22, 11.5 29.57, 19.49 18.23 M0.59 49.33 C9.88 41.02, 15.31 30.33, 20.11 23.53 M-0.92 49.37 C6.64 39.9, 15.36 32.71, 21.19 23.79 M-1.18 55.53 C9.52 46.33, 14.07 35.13, 22.2 29.64 M-0.6 54.95 C7.46 47.82, 13.59 40.53, 21.02 30.4 M0.91 59.61 C5.3 55.74, 7.06 49.96, 19.6 36.73 M-0.14 61.22 C6.18 54.03, 11.18 46.78, 21.3 36.22 M-0.11 68.32 C7.18 57.13, 16.13 48.43, 21.02 41.54 M0.61 68.14 C4.74 62.17, 10.06 54.7, 19.95 44.06 M-1.49 73.09 C5.91 66.36, 16.11 55.08, 18.62 51.47 M0.99 72.29 C5.15 65.51, 11.17 59.78, 20.19 48.93 M1.03 78.53 C5.55 70.54, 15.18 63.52, 19.77 57.09 M0.72 79.97 C6.23 70.78, 14.34 63.26, 21.68 55.21 M-0.48 83.38 C6.61 75.42, 17.12 67.04, 18.81 60.64 M-0.4 84.84 C4.65 80.31, 9.59 74.22, 19.7 61.75 M-1.59 92.82 C9.63 81.32, 14.65 73.35, 19.44 69.01 M-0.61 90.79 C4.75 86.86, 9.63 79.6, 20.89 67.53 M0.78 99.44 C5.73 91.84, 10.88 85.21, 19.18 74.03 M-0.5 97.56 C5.7 91.36, 9.68 86.05, 21.05 74.48 M0.2 103.73 C4.97 97.66, 12.48 91.33, 19.75 81.41 M0.21 103.86 C6.98 94.54, 14.67 85.98, 20.95 79.15 M0.47 110.62 C3.29 103.73, 10.07 101.67, 22.81 87.3 M-0.24 110.55 C7.46 101.23, 15.98 91.84, 21.42 85.82 M1.97 114.43 C6.07 109.01, 11.04 99.41, 21.77 90.75 M0.12 116.17 C8.33 107.76, 14.27 99.68, 20.51 91.62 M-1.82 123.14 C4.97 115.53, 8.21 113.74, 19.47 99.49 M0.82 121.89 C4.26 115.44, 9.39 111.2, 20.61 98.93 M-2 127.43 C6.72 122.86, 10.02 116.55, 19.96 102.38 M0.69 129.12 C5.97 120.64, 12.36 113.06, 21.55 104.46 M1.54 133.1 C7.64 124.06, 12.67 116.68, 20.28 109.99 M1.04 134.58 C4.1 129.16, 8.97 122.45, 19.76 110.41 M-0.09 141.65 C4.99 133.76, 11.7 130.04, 20.82 115.51 M0.79 139.54 C7.45 130.39, 16.21 120.76, 20.02 116.09 M1.55 147.22 C7.93 139.18, 12.77 129.47, 21.78 123.09 M0.16 145.3 C7.77 137.92, 12.98 131.34, 21.31 122.78 M0.73 152.87 C6.58 144, 13.12 135.33, 21.56 128.76 M0.61 152.21 C5.75 144.93, 11.93 140.02, 20.54 129.39 M-0.08 159.59 C5.68 153.8, 8.06 150.07, 20.52 132.96 M0.51 159.19 C5.21 153.54, 10.5 146.79, 21.69 135.52 M1.52 162.75 C4.94 157.46, 9.77 152.21, 20.75 141.07 M0.33 164.87 C4.35 158.97, 10.45 152.72, 20.99 140.66 M-0.29 172.68 C4.46 163.14, 12.06 160.15, 20.44 148.37 M-0.25 170.78 C5.84 163.7, 11.24 156.88, 20.63 145.77 M-1.28 175.58 C7.32 168.47, 13.28 162.93, 22.35 152.31 M-0.56 176.91 C7.07 167.39, 15.49 159.26, 20.61 152.17 M1.39 181.84 C6.56 173.1, 15.76 166.12, 20.19 157.49 M0.86 182.6 C7.08 175.98, 14.32 167.35, 20.52 159.14 M-0.53 191.01 C5.7 183.91, 10.93 176.23, 22.37 164.19 M0.07 190.17 C7.48 181.2, 14.31 173.03, 20.61 165.09 M1.45 196.29 C6.41 183.88, 17.3 177.82, 19.78 172.84 M0.8 194.06 C8.4 186.4, 16.86 175.93, 21.03 170.65 M0.29 201.07 C3.93 194.77, 7.75 191.31, 20.16 177.05 M-0.35 201.94 C4.68 195.82, 10.39 190.75, 21.5 176.3 M-0.22 207.88 C7.98 197.22, 14.54 188.14, 20.6 183.84 M-0.18 206.31 C5.93 199.27, 13.32 192.7, 21.19 183.26 M-0.94 214.68 C6.19 207.33, 8.57 202.15, 21.83 190.63 M0.95 213.43 C7.55 205.2, 15.2 196.17, 20.45 189.11 M-1.04 219.83 C8.69 209.59, 17.83 201.17, 20.09 193.76 M-1.14 218.89 C5.02 213.56, 9.22 209.41, 19.97 194.89 M1.74 226.61 C3.86 220.18, 11.89 213.31, 18.82 201.01 M0.7 224.79 C4.77 220.1, 9.16 215.31, 19.92 202.27 M-1.08 231.72 C5.6 221.58, 14.93 216.31, 19.06 208.52 M0.12 230.82 C6.4 225.32, 12.45 218.06, 21.68 207.13 M1.62 238.27 C5.97 232.65, 12.2 224.11, 19.95 213.16 M0.95 237.88 C5.23 229.62, 12.2 224.29, 19.71 214.47 M1.02 244.04 C3.08 238.6, 8.22 233.98, 21.05 221.4 M-0.86 243.01 C5.65 238.59, 9.04 232.62, 21.27 220.01 M-1.26 250.46 C6.56 239.8, 16.07 229.38, 22.11 225.93 M0.41 250.97 C4.61 244.1, 8.42 239.57, 21.58 225.33 M-1.38 255.12 C6.6 247.93, 12.22 240.35, 18.92 234.06 M-0.56 255.36 C6.68 248.02, 13.55 239.68, 20.98 232.99 M-1.53 260.31 C3.53 257.08, 7.43 253.04, 21.55 236.79 M-0.95 261.78 C5.68 256.89, 10.17 249.82, 20.62 238.16 M0.47 265.95 C8.94 259.62, 14.54 252.73, 18.95 245.03 M-0.14 267.41 C5.35 263.93, 8.98 257.01, 20.37 245.48 M-0.4 273.88 C7.34 264.87, 14.83 256.28, 21.23 250.59 M0.21 273.96 C5.75 267.75, 11.86 259.22, 20.55 250.71 M-1.96 280.86 C6.19 275.44, 9.18 268.01, 19.46 254.71 M-0.13 281.18 C7.42 273.85, 14.28 265.14, 21.01 255.82 M0.92 287.06 C6.96 280.4, 11.29 275.1, 21.46 264.55 M-0.81 286.1 C3.92 281.17, 9.38 275.72, 20.39 262.17 M0.13 292.58 C4.79 285.57, 10.87 276.13, 22.12 270.15 M0.25 292.09 C5.54 287.46, 9.7 280.99, 21.75 268.05 M0.63 298.4 C5.52 293.73, 10.61 288.87, 19.95 276.75 M0.59 298.49 C5.39 293.06, 9.79 287.9, 20.51 275.66 M0.97 306.7 C4.1 300.76, 9.71 295.21, 19.36 281.75 M-0.91 305.52 C5.59 297.74, 13.01 290.02, 20.11 280.63 M-0.37 309.79 C7.33 303.12, 14.72 295.02, 22.46 287.18 M-0.31 311.86 C6.72 303.53, 13.06 296.22, 21.23 287.24 M-1.2 318.68 C6.57 308.77, 18.4 298.53, 20.9 292.29 M0.5 317.78 C4.91 309.72, 10.68 304.46, 20.89 293.47 M0.17 323.53 C3.34 316.4, 9.84 312.41, 22.12 298.43 M-0.98 322.33 C4.24 318.02, 9.73 311.98, 20.2 298.66 M-0.75 330.64 C7.34 323.57, 12 314.66, 21.91 305.43 M-0.16 328.88 C4.84 324.41, 8.27 318.33, 20.23 306.4 M1.9 334.76 C7.19 326.87, 12.67 318.65, 18.75 312.48 M0.49 336.02 C6.26 327.95, 12.3 321.14, 19.71 312.12 M-1.35 340.04 C8.64 333.59, 16.01 324.35, 21.57 318.71 M-0.82 341.24 C3.78 337.77, 8.03 331, 20.23 318.22 M0.51 348.53 C9.89 338.3, 15.49 330.23, 21.55 323.66 M-0.05 347.96 C5.13 341.58, 12.76 334.43, 21.34 323.23 M-1.3 352.72 C6.86 342.98, 15.86 336.53, 22.44 328.27 M-0.16 352.74 C5.51 348.31, 10.63 341.57, 20.32 329.38 M-0.94 360.49 C7.37 349.83, 13.96 343.65, 21.11 335.19 M0.58 358.85 C6.85 351.26, 13.77 344.52, 20.02 335.55 M-1.51 367.4 C6.99 357.79, 12.58 354.45, 21.81 341.67 M0.49 365.19 C7.37 356.45, 15.75 347.59, 20.59 342.8 M-0.67 373.68 C6.36 364.19, 13.54 355.48, 20.04 348.17 M0.2 371.87 C7.33 362.33, 15.63 354.05, 20.63 347.58 M1.13 376.69 C5.89 373.25, 10.43 366.17, 22.29 354.8 M-0.22 377.34 C7.11 369.58, 15.31 360.48, 20.38 354.81 M0.43 383.49 C5.22 379.83, 9.09 373.22, 20.36 358.33 M-0.07 383.59 C8.05 375.28, 16.8 366.42, 21.39 359.51 M1.12 391.79 C5.14 382.95, 12.14 377.27, 19.92 364.45 M-0.34 389.64 C7.84 381.67, 13.49 374.22, 20.41 365.7 M-1.09 398.22 C5.38 391.6, 10.05 388.11, 18.78 372.76 M0.21 396.54 C6.09 387.58, 13.32 379.39, 21.14 371.97 M1.01 401.81 C5.09 395.24, 13.87 389.61, 22.74 377.27 M2.05 401.44 C7.74 391.72, 14.86 384.62, 21.35 378.68 M5.88 400.48 C13.23 396.66, 15.12 389.95, 21.35 382.93 M6.04 400.66 C11.64 395.78, 15.97 390.53, 20.04 385.01 M11.37 400.78 C14.08 399.01, 16.24 394.11, 21.83 390.54 M12.43 401.72 C14.71 397.78, 17.93 393.7, 21.11 390.61 M17.7 401.04 C18.27 399.8, 19.48 398.76, 20.39 396.98 M17.17 400.55 C18.75 399.17, 19.6 398.06, 20.89 396.85" stroke="#868e96" stroke-width="0.5" fill="none"/><path d="M0.84 -0.23 C4.48 1.09, 9.16 0.91, 19.08 0.03 M0.02 0.03 C4.06 -1.02, 9.05 0.56, 19.14 0.18 M20.41 -0.76 C18.25 93.49, 20.49 186.87, 20.76 399.16 M20.42 0.33 C20.24 124.82, 19.79 249.95, 20.06 400.52 M20.93 401.26 C14.31 398.18, 8.41 398.65, -1.21 400.09 M19.06 399.21 C14.78 399.72, 7.94 399.78, 0.56 399.11 M1.02 399.23 C1.18 243.07, 0.37 85.56, 0.24 0.32 M-0.16 399.77 C-0.31 273.92, 0.02 148.01, -0.3 0.3" stroke="#1e1e1e" stroke-width="1" fill="none"/></g><g stroke-linecap="round"><g transform="translate(330 411.8452808194351) rotate(0 29.40336650001457 0)"><path d="M-0.14 -0.18 C9.76 -0.31, 49.55 -0.19, 59.47 -0.25 M-1.67 -1.32 C8.12 -1.31, 48.77 0.86, 58.87 1.16" stroke="#1e1e1e" stroke-width="2" fill="none"/></g></g><mask/><g stroke-linecap="round"><g transform="translate(330 71.84528081943512) rotate(0 29.40336650001457 0)"><path d="M0.66 -0.25 C10.58 -0.31, 49.67 -0.42, 59.36 -0.55 M-0.45 -1.42 C9.37 -1.31, 48.95 0.5, 58.7 0.7" stroke="#1e1e1e" stroke-width="2" fill="none"/></g></g><mask/><g stroke-linecap="round" transform="translate(310 11.845280819435118) rotate(0 10 220)"><path d="M0 0 C0 0, 0 0, 0 0 M0 0 C0 0, 0 0, 0 0 M-0.14 6.83 C1.32 4.85, 3.26 3.38, 4.89 0.38 M0.12 6.78 C1.2 4.87, 2.53 3.42, 5.06 0.38 M1.63 11.43 C5.16 8.77, 7.64 3.32, 9.36 -1 M-0.53 12.76 C3.8 9, 7.07 5.26, 9.97 -0.44 M1.63 19.46 C5.25 11.22, 10.37 7.32, 17.43 0.54 M-0.74 18.18 C4.36 12.6, 9.99 6.51, 15.77 -0.19 M1.02 22.34 C6.37 19.03, 8.44 16.26, 20.52 1.07 M-0.71 23.98 C6.16 17.36, 11.93 11.43, 21.11 1.49 M0.9 30.46 C9.83 19.84, 15.2 11.23, 20.64 7.12 M0.93 30.62 C5.16 24.11, 12.92 15.82, 20.21 6.75 M-1.11 35.47 C6.55 29.66, 14.32 20.15, 19.35 11.31 M0.28 37.38 C4.94 31.3, 8.31 26.25, 20.68 13.16 M1.35 42.7 C4.72 37.35, 11.72 32.42, 19.41 19.94 M-0.85 41.62 C7.45 35.92, 12.16 28.14, 20.68 20.02 M-0.88 47.68 C8.98 39.13, 17.87 28.92, 21.77 23.48 M0.2 47.94 C5.99 42.4, 10.75 35.38, 21.36 25.52 M1.86 53.04 C7.55 48.25, 14.97 37.32, 21.38 33.1 M0.68 53.79 C6.61 46.53, 14.81 37.59, 19.93 31.8 M-1.4 60.88 C5.71 56.22, 12.49 47.4, 21.52 37.57 M0.31 60.37 C7.3 53.71, 12.55 46.33, 21.48 36.62 M0.03 65.69 C3.32 63.62, 11.33 57.88, 22.32 43.64 M-1.04 68.21 C8.17 57.68, 15.35 48.65, 20.79 42.24 M-1.72 74.86 C7.68 65.68, 17.22 56.05, 19.06 48.92 M-0.15 72.33 C4.58 68.7, 7.82 64.15, 20.05 48.98 M-1.23 81.24 C5.58 74.11, 10.47 68.76, 22.03 54.46 M0.68 79.36 C5.34 74.05, 8.72 68.18, 20.04 54.43 M-1.53 84.03 C4.37 79.87, 12.29 70.87, 20.21 61.24 M-0.63 85.15 C8.67 75.4, 16.01 66.41, 21.31 62.52 M-1.56 93.16 C3.77 85.93, 8.79 78.66, 19.71 67.11 M-0.11 91.68 C8 81.35, 17.23 73.48, 21.81 67.16 M-1.81 98.18 C6.3 88.72, 13.62 79.99, 20.19 75.13 M0.06 98.63 C4.85 92.99, 9.55 86.46, 20.87 73.12 M-0.59 104.81 C8.98 94.99, 14.85 86.51, 21.25 78.5 M0.62 102.54 C5.12 96.45, 12.19 90.42, 20.86 79.65 M1.82 111.45 C6.16 103.7, 9.07 98.02, 22.23 85.07 M0.42 109.97 C6.92 102.61, 12.95 94.54, 20.33 85.59 M1.43 114.15 C8.07 107.67, 11.88 100.18, 21.92 93.89 M0.17 115.02 C6.06 108.8, 14.17 99.4, 21.23 92.54 M-0.87 122.88 C3.69 114.88, 9.2 112.23, 20.31 96.9 M0.28 122.33 C4.21 117.5, 9.37 111.05, 19.91 99.18 M-1.03 126.53 C7.86 119.24, 13.64 112.26, 22.35 103.46 M0.56 128.61 C5.92 121.49, 11.95 116.05, 20.32 104.43 M-0.05 133.38 C3.29 129.7, 7.69 126.19, 21.74 108.84 M-0.58 133.81 C7.19 124.83, 15.46 116.83, 21.14 110.57 M-0.18 139.67 C6.87 135.65, 11.42 129.72, 19.24 115.23 M-0.97 140.24 C5.51 134.38, 11.25 128.47, 21.49 116.86 M1.44 146.49 C7.66 137.87, 14.85 130.45, 19.23 123.98 M0.97 146.18 C6.54 139.27, 12.43 133.18, 20.86 122.4 M1.22 152.16 C5.66 144.88, 10.14 140.25, 20 128.62 M0.2 152.78 C3.32 148.34, 9.13 142.73, 20.76 129.79 M-0.47 157.11 C5.55 151.56, 13.92 144.56, 21.54 135.3 M0.69 159.67 C7.5 150.39, 16.16 141.14, 19.91 134.21 M0.41 164.47 C5.48 159.46, 13.91 150.98, 21.36 139.4 M0.65 164.06 C7.28 155.06, 15.92 146.73, 21.42 140.62 M-0.56 172.52 C4.27 165.32, 8.68 159.49, 20.78 146.4 M-0.37 169.92 C5.95 164.04, 11.53 156.34, 20.44 147.27 M2.01 175.71 C5.75 169.32, 11.27 163.91, 21.48 152.23 M0.27 175.56 C4.94 171.17, 8.16 167.34, 20.11 152.7 M-0.15 180.89 C4.88 177.63, 8.05 174.33, 19.8 160.24 M0.18 182.54 C7.29 174.01, 15.27 165.56, 21.23 159.26 M1.37 188.34 C9.28 178.06, 17.26 170.41, 22.56 165.65 M-0.38 189.24 C7.76 181.23, 14.44 173.58, 21.45 164.3 M-0.56 196.24 C6.17 190.84, 9.24 186.24, 18.79 172.16 M0.69 194.04 C6.75 185.34, 15.23 177.45, 20.38 171.29 M-0.83 201.2 C3.33 196.35, 8.88 190.32, 22.14 176.82 M0.5 200.45 C7.11 193.79, 13.65 185.34, 21.35 177.4 M0.26 207.24 C5.16 200.64, 9.98 195.11, 19.33 182.39 M0.85 206.66 C4.02 201.42, 8.69 195.61, 21.29 184.44 M1.5 214.03 C6.1 207.03, 10 204.05, 20.51 190.28 M0.11 212.51 C7.34 206.76, 13.66 198.04, 20.41 190.41 M-0.91 217.91 C3.61 213.43, 11.68 204.75, 19.05 197.03 M-1.02 219.04 C3.95 215.17, 7.85 210.17, 21.37 194.7 M-1.52 224.4 C5.63 218.86, 12.58 209.74, 19.29 202.91 M-0.41 225.67 C5.65 219.19, 10.92 213.16, 20.47 201.16 M-1.93 232.67 C4.2 228.02, 10.66 221.68, 18.94 208.8 M0.69 231.28 C7.32 222.74, 15.9 214.28, 21.32 207.75 M-0.39 236.55 C7.67 230.11, 16.58 221.06, 21.52 212.52 M-0.63 237.86 C3.54 233.47, 8.96 228.34, 20.74 213.43 M0.71 244.8 C4.86 235.12, 13.8 227.96, 18.73 221.79 M0.93 243.41 C7.99 236.57, 14.14 227.64, 20.49 219.74 M1.12 250.08 C3.77 245.94, 10.74 239.1, 22.24 226.75 M0.59 249.48 C5.05 244.81, 9.57 238.33, 20.39 225.94 M-1.42 257.46 C6.73 249.8, 13.72 240.83, 19.47 232.47 M0.64 256.39 C5 249.33, 11.56 241.78, 19.53 232.2 M0.56 260.94 C4.65 256.8, 13.19 247.08, 19.91 239.9 M-0.38 262.31 C7.7 254.66, 15.03 245.27, 19.92 239.11 M-1.39 268.42 C4.27 262.65, 10.75 253.76, 19.63 246.19 M0.04 268.88 C8.81 259.12, 17.07 249.41, 20.43 244.64 M0.89 273.99 C5.28 269.66, 9.1 263.38, 19.66 249.62 M0.21 274.11 C7.21 265.5, 15.1 255.8, 20.46 251.76 M-1.54 278.86 C6.6 273.38, 10.83 266.53, 21.71 258.16 M0.02 279.97 C7.01 272.1, 16.46 262.77, 21.13 257.51 M1.12 287.94 C4.36 279.61, 10.48 270.27, 20.01 261.94 M0.05 285.56 C5.33 280.78, 9.76 274.66, 20.43 262.18 M1.13 294.3 C5.37 287.25, 12.39 278.78, 19.59 270.24 M0.76 292.2 C6.31 284.55, 13.35 276.54, 20.91 268.92 M-0.39 300.15 C5.53 292.68, 12.3 283.87, 20.84 275.77 M0.17 299.05 C6.3 290.76, 14.24 283.62, 21.6 274.59 M-0.98 305.14 C8.23 295.47, 16.97 284.59, 21.84 279.65 M-0.22 304.03 C7.46 296.02, 13.36 288.66, 19.69 281.43 M1.47 311.33 C6.28 302.07, 14.39 295.98, 22.11 287.9 M0.24 311.39 C6.44 304.1, 11.4 297.22, 21.7 286.14 M0.56 315.68 C6.88 309.88, 13.09 300.47, 22.42 291.98 M0.55 316.87 C3.92 312.47, 8.48 306.52, 20.67 293.05 M1.12 322.59 C2.97 319.9, 9.42 311.7, 19.12 297.73 M-0.79 322.81 C8.03 314.15, 17.15 303.88, 21.8 299.68 M1.57 328.83 C6.56 320.41, 16.92 309.95, 20.65 305.69 M-0.11 329.8 C8.64 321.03, 15.09 312.12, 20.4 305.71 M-1.59 335.88 C5.8 330.34, 11.29 323.65, 21.89 312.05 M-0.63 335.52 C6.64 328.63, 11.95 321.07, 19.57 312.49 M0.58 342.86 C4.88 334.69, 11.98 324.12, 19.92 317.15 M-0.77 342.37 C8.92 331.85, 15.52 323.36, 21.39 318.28 M1.21 347.05 C6.14 338.58, 13.52 332.43, 21.81 322.01 M1.01 346.62 C8.89 338.06, 15.74 328.2, 20.03 323.28 M1.45 352.43 C4.19 346.64, 8.47 342.07, 18.97 329.31 M-0.67 353.53 C8.8 343.7, 15.62 334.33, 21.48 329.32 M0.77 358.58 C6.05 354.27, 10.69 348.44, 19.65 335.65 M-0.32 358.94 C5.62 353.59, 10.92 345.66, 21.48 336.71 M1.47 365.07 C6.31 359.35, 7.41 356.19, 19.27 340.53 M0.25 366.2 C6.68 359.47, 11.42 352.07, 21.16 341.85 M-0.95 372.32 C9.03 365.62, 13.89 356.44, 20.22 346.87 M-0.36 371.73 C5.14 366.35, 11.41 359.39, 20.24 348.37 M1.95 378.2 C9.2 371.02, 16.63 359.56, 19.63 353.52 M0.04 378.21 C7.12 368.55, 15.1 360.93, 20.18 354.28 M-0.63 382.48 C9.83 373.03, 15.29 365.13, 19.71 360.22 M0.39 383.66 C5.88 377.68, 12.02 370.19, 21.9 359.55 M-0.42 387.85 C6.93 381.67, 14.15 374.47, 20.26 367.88 M0.08 389.09 C4.99 384.16, 11.56 376.71, 21.66 367 M-1.56 396.16 C7.18 390.51, 14.01 381.35, 21.02 371.59 M0.81 395.37 C4.89 390.9, 9.79 385.24, 20.74 371.95 M1.75 401.42 C8.09 393.67, 15.72 388.06, 21.42 377.08 M0.36 402.83 C5.03 397.87, 9.54 391.81, 20.67 379.32 M1.01 406.32 C8.71 397.56, 17.5 388.95, 20.4 385.27 M-0.3 408.41 C6.92 400.77, 13.44 392.03, 20.31 384.74 M1.22 414.7 C8.99 405.67, 14.66 399.43, 22.73 389.22 M0.19 414.81 C8.45 406.21, 15.3 396.66, 21.62 390.23 M-1.45 421.33 C8.4 412.04, 13.42 401.75, 19.51 398.42 M0.57 420.79 C3.67 415.07, 9.31 410.35, 21.5 397.01 M0.14 428.35 C9.02 416.53, 14.41 408.38, 18.52 403.77 M0.21 426.38 C6.97 418.71, 14.6 411.67, 19.54 403.18 M-0.13 433.88 C5.83 425.87, 17.33 416.4, 20.02 410.07 M0.18 433.94 C4.76 426.11, 11.13 420.78, 21.16 408.79 M0.7 436.9 C8.24 433, 14.23 423.62, 20.49 416.57 M1.03 437.82 C8.58 429.56, 16.06 420.84, 20.76 415.03 M1.8 442.57 C5.67 434.57, 12.32 431.55, 19.01 421.88 M3.26 442.21 C6.76 436.77, 12.38 431.59, 21.47 421.79 M7.67 441.21 C8.52 439.29, 11.63 434.75, 21.73 428.34 M7.8 442.8 C9.62 439.6, 13.36 436.38, 20.97 426.6 M12.46 441.4 C14.74 440.81, 17.28 438.23, 20.32 434.4 M13.17 441.98 C15.29 440.21, 17.66 438, 20.88 434.01" stroke="#868e96" stroke-width="0.5" fill="none"/><path d="M-0.92 0.03 C5.43 -2.06, 14.5 -0.06, 20.06 -0.53 M-0.86 0.18 C3.38 -0.39, 8.11 0.24, 19.33 -1 M20.67 -0.75 C22.28 114.72, 21.83 230.46, 20.59 440.95 M20.06 0.46 C20.32 116.81, 20.07 233.8, 20.32 440.03 M18.79 440.09 C15.48 438.84, 11.99 438.01, -1.58 441.11 M20.56 439.11 C15.61 439.8, 9.08 440.85, -0.68 440.74 M0.21 440.28 C0.08 277.73, 0.69 114.94, -0.4 -0.07 M-0.26 440.27 C-0.88 326.8, -1.01 214.34, -0.12 -0.1" stroke="#1e1e1e" stroke-width="1" fill="none"/></g><g stroke-linecap="round" transform="translate(390 11.845280819435118) rotate(0 9.700520833333343 220)"><path d="M0 0 C0 0, 0 0, 0 0 M0 0 C0 0, 0 0, 0 0 M-0.21 6.62 C1.25 5.66, 1.86 3.83, 4.69 -0.05 M-0.21 6.5 C1.7 4.27, 3.8 1.72, 5.13 0.13 M1.56 12.79 C3.09 8.34, 4.15 4.9, 10.6 0.74 M0.73 12.52 C3.34 9.56, 4.31 6.1, 10.73 0.46 M0.44 17.01 C6.61 11.65, 13.76 4.49, 16.3 -0.73 M-0.99 18.75 C5.19 12.18, 11.57 4.81, 14.7 0.66 M2.21 23.87 C5.79 19.43, 11.74 11.24, 19.88 0.9 M0.82 23.48 C6.98 17.37, 12.07 12.18, 21.48 1.21 M1.81 29.32 C6.07 21.86, 13.82 14.84, 20.13 7.34 M-0.88 31.3 C8.7 20.65, 15.22 12.21, 20.46 7.06 M0.01 37.01 C5.9 29.93, 7.57 25.13, 18.96 13.69 M0.62 36.3 C4.7 30.19, 10.08 25.1, 20.2 11.96 M-0.46 43.03 C6.75 37.68, 9.64 31, 20.79 20.01 M1.13 43.27 C5.42 36.44, 12.08 30.37, 21.27 18.55 M0.86 48.36 C8.54 39.78, 14.21 32.41, 19.45 27.02 M0.68 48.9 C7.72 39.36, 16 31.79, 20.56 24.68 M0.55 55.92 C5.44 47.83, 9.8 46.35, 21.99 32.59 M-0.72 55.31 C7.48 46.4, 14.73 37.83, 20.38 30.57 M-0.26 62.78 C5.56 55.26, 10.09 50.92, 20.46 36.29 M0.73 61.03 C5.03 54.78, 11.49 48.15, 19.69 37.94 M-1.5 69.16 C6.78 63.25, 11.72 55.96, 22.24 44.31 M0.44 66.53 C4.18 61.49, 8.46 56.46, 21.74 43.58 M-0.37 74.97 C6.72 68.23, 9.85 59.58, 18.53 49.79 M0.48 73.38 C5.19 67.37, 10.81 59.82, 20.03 50.29 M0.4 80.28 C6.3 73.72, 13.63 64.09, 18.74 57.76 M0.8 79.43 C4.57 72.91, 9.5 66.35, 19.95 56.45 M-1.08 86.29 C7.85 76.47, 12.81 70.1, 22.22 61.67 M0.94 84.33 C7.14 76.86, 13.96 71.19, 20.01 61.19 M-1.36 91.67 C4.58 83.39, 10.41 77.85, 22.07 67.9 M-0.12 90.5 C5.5 86.78, 9.76 81.01, 20.91 67.49 M-1.31 97.47 C6.49 88.36, 14.92 81.37, 19.47 72.72 M-0.22 98.69 C5.77 90.42, 12.45 82.55, 21.36 73.79 M1.66 103.64 C8.38 94.15, 17.21 83.11, 20.19 78.59 M-0.85 103.14 C6.6 96.73, 12.98 88.78, 19.86 80.94 M1.38 109.59 C6.74 100.68, 16.29 91.48, 20.92 87.11 M-0.04 110.7 C4.96 103.67, 11.45 95.64, 20.48 85.7 M1.28 115.09 C2.5 110.54, 9.78 107.84, 21.09 91.55 M-0.58 116.44 C7.76 106.89, 14.5 100.41, 19.99 91.99 M-1.16 120.62 C7.72 114.12, 16.23 101.61, 18.58 97.36 M-0.22 122.54 C7.71 112.76, 13.78 106.09, 21.03 97.93 M0.01 128.29 C6.25 121.08, 17.62 109.2, 20.15 103.12 M0.13 127.93 C5.89 122.53, 10.31 115.67, 19.82 103.52 M-1.07 134.41 C3.88 130.35, 10.9 121.39, 21.85 108.87 M-0.5 133.36 C5.67 128, 11.4 122, 20.04 111.46 M1.74 141.92 C8.11 133.97, 12.6 122.95, 19.46 117.03 M0.03 140.58 C5.48 135.27, 10.69 129.54, 20.53 116.84 M0.9 145.43 C5.57 140.71, 7.42 137.37, 20.17 120.94 M0.71 145.95 C8.78 137.12, 16.36 127.35, 20.49 122.19 M-0.26 151.49 C3.41 147.66, 9.84 140.17, 18.45 129.36 M-0.8 153.3 C8.57 143.46, 15.92 135.23, 20.58 128.69 M-1.27 159.53 C8.46 151.16, 16.76 141.01, 21.69 136.22 M-0.37 159.57 C6.31 152.16, 11.11 143.92, 20.02 134.47 M-0.68 166.42 C9.2 156.25, 15.82 145.74, 21.98 141.09 M-0.32 163.92 C7.78 156.16, 15.34 147.56, 19.75 141.77 M-0.29 170.93 C7.17 161.48, 15.31 152.58, 19.91 145.74 M-0.22 170.9 C5.65 163.13, 11.86 157.39, 19.56 148.07 M1.17 174.75 C7.72 167.99, 12.86 161.99, 18.9 155.07 M0.83 175.99 C3.89 172.52, 8.16 166.63, 19.82 153.7 M0.57 182.72 C5.08 178.11, 11.02 170.56, 21.73 161.41 M0.03 182.56 C6 176.46, 11.88 170.05, 21.36 158.72 M0.7 187.88 C7.81 181.12, 16.77 172.19, 20.82 165.51 M0.67 189.46 C7.58 181.59, 14.98 171.79, 19.2 166.54 M2.06 195.88 C8.33 187.57, 13.29 178.45, 22.09 173.02 M-0.79 194.12 C5.06 189.3, 10.34 182.88, 19.68 171.06 M-1.35 201.58 C5.64 194.01, 13.09 187.35, 20.67 179.01 M0.49 201.74 C8.02 192.16, 15.99 183.59, 19.61 177.78 M0.3 205.99 C4.44 201.22, 7.27 196.24, 19.3 184.97 M-0.55 206.83 C4.9 200.02, 12.15 194.87, 20.04 183.44 M1.17 212.54 C4.75 209.66, 9.49 202.69, 20.79 191.05 M0.95 214.17 C5.88 207.19, 10.37 202.11, 20.09 190.87 M-1.87 220.04 C7.14 210.55, 11.29 206.24, 18.38 197.06 M-0.45 220.38 C5.75 213.09, 13.77 203.8, 20.67 196.65 M-1.54 227.26 C5.23 218.68, 12.86 210.64, 19.55 202.96 M0.64 225.04 C6.53 218.4, 11.48 211.6, 19.65 202.18 M-0.27 233.36 C9.44 223.45, 13.25 215.51, 21.72 209.42 M-0.41 231.88 C7.28 224.34, 14.43 215.56, 21.04 208.89 M0.07 238.92 C6.78 232.59, 12.12 223.51, 18.7 214.72 M-0.51 238.31 C8.01 229.78, 14.64 220.61, 20.64 213.77 M-1.3 242.18 C8.08 234.32, 11.56 229.85, 21.09 219.1 M1.01 244.4 C5.88 236.77, 11.47 229.95, 19.98 220.32 M-1.72 252.05 C4.06 246.4, 9.97 240.71, 18.71 225.68 M0.09 250.4 C6.09 242.13, 12.21 235.3, 20.02 226.14 M0.66 256.6 C8.01 247.26, 11.48 241.72, 20.3 233.01 M-0.83 255.93 C4.09 250.04, 7.81 245.45, 20.29 232.05 M-1.29 263.55 C7.8 253.26, 11.76 249.32, 21.38 239.55 M0.29 263.13 C4.84 257, 8.29 252.56, 20.07 239.23 M-1.39 269.32 C6.32 259.19, 13.03 253.96, 22.54 244.68 M0.8 268.17 C5.3 262.66, 8.57 258.16, 20.08 244.84 M0.39 275.21 C3.68 269.46, 8.3 262.6, 21.95 248.94 M-0.71 274.28 C4.9 267.21, 11 262.64, 20.4 250.9 M0.27 280.46 C2.4 276.38, 9.05 273.1, 21.71 259.02 M-0.75 281.25 C6.61 274.41, 11.95 268.15, 20.12 257.92 M-1.61 286.69 C4.88 276.64, 12.73 270.02, 19.64 264.3 M0.27 286.59 C3.67 281.84, 8.44 276.17, 20.58 261.98 M-1.31 294.47 C3.36 288.39, 6.92 284.5, 21.06 269.31 M-0.84 292.71 C4.33 286.73, 10.67 280.58, 20.46 269.93 M-0.86 300.27 C6.39 290.82, 14.43 283.07, 21.1 274.74 M-0.29 298.45 C8.68 290.03, 16.4 280.47, 21.52 274.96 M0.34 304.71 C9.28 293.72, 17.5 284.75, 21.24 281.7 M0.52 304.05 C5.77 297.68, 11.92 290.59, 20.48 281.48 M-0.2 309.6 C7.8 303.4, 14.09 296.88, 19.65 288.73 M0.76 310.71 C5.34 304.1, 11.67 297.53, 20.75 288.78 M-0.27 318.4 C4.93 310.22, 14.84 300.76, 18.94 292.24 M-0.72 317.73 C6.26 308.89, 14.25 300.32, 19.55 294.09 M-1.15 324.73 C6.14 315.47, 8.46 309.89, 21.98 299.11 M-0.17 323.65 C8.7 313.94, 16.34 306.24, 21.11 299.8 M-1.28 329.37 C6.81 321.38, 11.57 315.98, 22.22 303.58 M0.72 329.85 C5.39 322.92, 11.79 315.54, 20.34 304.99 M0.22 336.55 C5.63 330.1, 12.15 323.41, 20.19 311.6 M0.7 335.47 C6.99 326.94, 12.81 320.4, 20.77 312.35 M-2.09 342.87 C4.27 332.93, 11.7 326.38, 21.86 317.76 M0.74 340.99 C3.57 336.85, 8.94 332.6, 20.18 317.82 M-0.18 345.86 C8.28 338.36, 16.15 328.41, 22.4 325.81 M1.1 347.35 C6.61 338.96, 13.21 331.05, 19.86 323.67 M-0.78 352.47 C6.22 344.69, 13.42 335.62, 21.98 329.18 M0.56 353.13 C6.56 344.91, 14.91 337.08, 19.68 329.68 M0.98 360.05 C7.93 351.57, 13.83 342.36, 20.11 335.95 M0.08 360.12 C7.65 349.82, 16.65 342.53, 19.85 336.7 M2.01 364.64 C6.12 357.9, 14.05 346.42, 20.12 341.12 M0.72 366.22 C6.32 357.69, 14.23 349.68, 20.8 341.59 M1.71 373.93 C6.58 364.83, 13.42 354.78, 19.53 347.61 M-0.66 373.07 C8.08 363.39, 15.47 353.98, 20.85 348.81 M1.65 379.75 C7.73 369.57, 11.89 362.14, 21.82 354.74 M-0.26 377.14 C7 370.31, 13.19 362.28, 21.44 353.54 M1.41 382.63 C6.21 375.73, 13.79 367.27, 20.22 362.77 M-0.14 384.9 C6.04 377.35, 13.58 369.1, 20.24 360.82 M0.88 388.74 C9.39 380.37, 14.51 374.8, 20.03 365.84 M-0.54 390.43 C6.53 382.62, 13.19 376.96, 20.87 367.17 M0.83 398.2 C9.37 387.3, 16.94 376.51, 19.15 372.27 M-0.01 396.28 C4.16 391.44, 8.78 385.69, 20.77 373.47 M1.18 401.99 C9.37 395.59, 15.91 383.28, 18.41 377.56 M0.34 403.11 C7.14 394.23, 13.33 387.58, 20.95 378.57 M0.8 406.54 C8.39 399.4, 13.26 393.58, 21.33 384.84 M0 408.8 C6.62 400.05, 13.88 392.25, 21.13 384.44 M1.34 414.19 C3.83 411.43, 10.6 403, 21.94 389.43 M0.17 415.6 C6.23 406.86, 15.2 397.52, 20.87 391.28 M0.85 420.94 C6.78 409.73, 15.31 403.38, 19.11 395.81 M-1.13 420.49 C6.4 413.41, 13.83 405.64, 21.34 397.12 M1.59 424.95 C3.8 420.28, 6.77 417.11, 21.04 401.87 M0.05 426.28 C5.17 422.17, 7.7 416.83, 21.15 402.76 M-2.16 435.05 C9 425.89, 14.05 416.85, 19.6 407.92 M-1.19 432.81 C6.52 425.67, 14.37 416.33, 20.08 409.32 M2.18 439.73 C6.91 431.92, 9.64 429.17, 22.14 417.16 M1.06 438.47 C7 431.5, 12.98 423.95, 20.26 415.42 M0.68 440.39 C8.45 436.15, 12.77 429.11, 19.23 420.25 M2.05 442.15 C9.8 434.36, 16.58 427.24, 19.3 422.28 M5.95 442.34 C10.38 436.36, 16.55 434.36, 19.04 428.21 M6.81 442.86 C11.12 438.91, 14.75 433.67, 20.01 427.35 M13.05 442.78 C16.39 439.39, 18 437.17, 20.1 433.23 M13.29 442.5 C16.23 439.65, 18.72 436.51, 20.35 433.46" stroke="#868e96" stroke-width="0.5" fill="none"/><path d="M-1.63 -1.91 C7 0.03, 13.49 -0.51, 17.49 0.79 M-0.63 -0.27 C7.02 0.32, 13.28 -1, 19.02 0.95 M19.53 -0.13 C20.56 94.51, 21.47 188.47, 19.06 440.17 M19.35 0.02 C19.35 125.3, 19.97 250.16, 18.98 440 M19.19 439 C15.34 438.2, 8.61 441.09, -0.65 439.02 M20.32 439.86 C13.88 440.7, 8.19 440.55, 0.67 440.03 M0.15 440.12 C0.29 269.45, -0.86 99.4, -0.43 0.51 M0.24 439.68 C1.27 333.11, 1.05 225.9, -0.02 -0.06" stroke="#1e1e1e" stroke-width="1" fill="none"/></g><g stroke-linecap="round"><g transform="translate(376.72304116400323 353.1415965460441) rotate(263.5528262650925 -19.35563777976099 25.268200039192564)" fill-rule="evenodd"><path d="M-0.27 -0.64 L-15.48 8.32 L-20.53 11.68 L-33.37 25.81 L-42.02 41.69 L-43.82 43.82 L-43.31 49.87 L-35.52 50.64 L-34.12 49.02 L-17.51 37.92 L-9.53 32.25 L0.52 17.32 L3.03 7.33 L4.88 5.3 L-4.9 -0.48" stroke="none" stroke-width="0" fill="#2f9e44" fill-rule="evenodd"/><path d="M-1.18 0.18 C-4.01 1.54, -12.66 4.45, -16.95 7.18 C-21.25 9.91, -24.26 13.29, -26.97 16.56 C-29.68 19.84, -30.28 22.27, -33.22 26.83 C-36.16 31.4, -43.91 40.04, -44.64 43.94 C-45.36 47.83, -42.3 50.94, -37.56 50.21 C-32.83 49.48, -21.61 43.94, -16.21 39.57 C-10.81 35.2, -8.62 28.9, -5.18 23.99 C-1.74 19.08, 4.39 13.93, 4.43 10.08 C4.47 6.23, -3.4 2.53, -4.93 0.89 M0.4 -0.78 C-2.59 0.88, -13.17 5.73, -17.89 8.74 C-22.61 11.74, -25.43 14.61, -27.9 17.26 C-30.37 19.91, -30.2 20.12, -32.72 24.65 C-35.23 29.18, -42.35 40.38, -42.99 44.44 C-43.63 48.5, -41.14 49.99, -36.56 49 C-31.99 48, -21.13 42.17, -15.53 38.45 C-9.93 34.73, -6.59 31.54, -2.97 26.68 C0.65 21.82, 6.47 13.62, 6.18 9.32 C5.89 5.01, -2.86 2.2, -4.71 0.86" stroke="#099268" stroke-width="0.5" fill="none"/></g></g><mask/><g stroke-linecap="round"><g transform="translate(376.3244880856344 388.69952761064667) rotate(89.89267640571806 -18.4444753950542 27.000254281069367)" fill-rule="evenodd"><path d="M1.5 1.18 L-13.92 8.77 L-29.83 21.04 L-44.58 45.54 L-43.94 50.95 L-42.79 54.27 L-37.16 54.1 L-29.13 48.09 L-4.21 27.35 L3.85 19.29 L6.89 11.1 L5.21 5.53 L1.11 -0.67" stroke="none" stroke-width="0" fill="#2f9e44" fill-rule="evenodd"/><path d="M0.02 0.04 C-2.47 1.39, -11.77 5.21, -16.13 8.28 C-20.5 11.35, -23.07 15.45, -26.17 18.46 C-29.27 21.47, -31.5 22.18, -34.73 26.34 C-37.97 30.49, -44.99 38.7, -45.59 43.38 C-46.2 48.07, -43.21 55.27, -38.35 54.44 C-33.5 53.6, -22.28 42.46, -16.46 38.35 C-10.64 34.23, -7.34 34.24, -3.45 29.74 C0.44 25.23, 6.45 16.25, 6.88 11.32 C7.3 6.39, 0.28 2.1, -0.89 0.15 M-1.43 -0.99 C-4 0.45, -13.04 6.29, -17.25 9.2 C-21.46 12.11, -23.72 13.43, -26.68 16.49 C-29.64 19.55, -32.17 23.03, -35.03 27.55 C-37.88 32.07, -43.5 39.26, -43.81 43.6 C-44.13 47.95, -41.5 54.22, -36.91 53.62 C-32.31 53.03, -21.61 43.97, -16.24 40.03 C-10.88 36.1, -8.82 34.96, -4.73 30.01 C-0.63 25.07, 7.63 15.4, 8.32 10.36 C9.01 5.32, 0.78 1.44, -0.6 -0.22" stroke="#099268" stroke-width="0.5" fill="none"/></g></g><mask/><g stroke-linecap="round" transform="translate(344.1983557616756 358.53871427260873) rotate(0 13.461121470427628 46.10215544307238)"><path d="M6.76 0.06 L22.61 -1.55 L27.31 4.97 L25.21 85.83 L23.94 89.98 L23.25 92.51 L2.44 89.79 L-0.36 90.38 L-1.74 8.07 L0.19 1.93 L6.46 -0.64" stroke="none" stroke-width="0" fill="#868e96"/><path d="M6.73 0 M6.73 0 C11.31 0.1, 16.61 0.02, 20.19 0 M6.73 0 C11.59 0.31, 17.69 0.03, 20.19 0 M20.19 0 C22.98 -0.01, 25.7 1.03, 26.92 6.73 M20.19 0 C24.79 -0.26, 25.73 2.92, 26.92 6.73 M26.92 6.73 C25.63 21.98, 25.74 40.37, 26.92 85.47 M26.92 6.73 C27.41 24.22, 26.99 40.65, 26.92 85.47 M26.92 85.47 C28.3 90.02, 26.42 92.62, 20.19 92.2 M26.92 85.47 C27.57 90.3, 24.96 93.93, 20.19 92.2 M20.19 92.2 C15.95 92.88, 12.11 91.48, 6.73 92.2 M20.19 92.2 C15.58 92.26, 10.52 91.98, 6.73 92.2 M6.73 92.2 C2.16 91.95, 1.61 89.66, 0 85.47 M6.73 92.2 C4.09 90.93, 0.85 88.33, 0 85.47 M0 85.47 C1.55 67.95, -0.57 50.63, 0 6.73 M0 85.47 C0.74 54.59, 0.49 23.19, 0 6.73 M0 6.73 C0.02 3.83, 0.48 0.3, 6.73 0 M0 6.73 C1.24 2.39, 2.88 1.17, 6.73 0" stroke="#1e1e1e" stroke-width="0.5" fill="none"/></g><g stroke-linecap="round"><g transform="translate(377.9487236410795 355.97648464506364) rotate(0 -18.856126146628682 23.02424427589613)" fill-rule="evenodd"><path d="M0.34 -0.32 L-14.58 8.69 L-30.39 17.01 L-45.66 34.09 L-44.78 36.88 L-45.54 43.26 L-38.59 45.11 L-32.41 44.57 L-9.05 30.21 L-4.36 22.79 L9.45 7.14 L6.54 4.44 L1.86 -2.06" stroke="none" stroke-width="0" fill="#2f9e44" fill-rule="evenodd"/><path d="M0.49 0.71 C-2.1 2.09, -11.26 4.99, -15.83 7.08 C-20.4 9.16, -23.88 10.76, -26.94 13.22 C-30 15.67, -30.87 18.09, -34.19 21.81 C-37.51 25.54, -46.24 31.3, -46.85 35.58 C-47.46 39.86, -42.97 47.58, -37.84 47.5 C-32.7 47.42, -21.77 38.94, -16.03 35.11 C-10.29 31.28, -7.42 29.13, -3.38 24.51 C0.65 19.9, 7.33 11.44, 8.17 7.43 C9.01 3.41, 2.69 1.78, 1.65 0.43 M-0.72 0.04 C-2.91 1.13, -9.71 2.68, -13.66 5.07 C-17.62 7.45, -21.08 11.35, -24.45 14.36 C-27.83 17.38, -30.47 19.65, -33.91 23.15 C-37.34 26.64, -44.63 31.35, -45.09 35.34 C-45.55 39.33, -41.53 47.27, -36.67 47.08 C-31.81 46.88, -21.84 37.99, -15.93 34.19 C-10.03 30.38, -5.55 28.37, -1.22 24.25 C3.12 20.14, 10 13.49, 10.08 9.5 C10.15 5.52, 1.05 1.92, -0.77 0.35" stroke="#099268" stroke-width="0.5" fill="none"/></g></g><mask/><g stroke-linecap="round"><g transform="translate(377.5806119670114 387.97774777389503) rotate(0 -18.4444753950542 27.000254281069367)" fill-rule="evenodd"><path d="M0.23 1.83 L-16.03 9.56 L-31.37 22.28 L-43.55 43.82 L-45.43 50.85 L-42.81 52.13 L-38.33 53.78 L-28.46 48.69 L-4.86 26.99 L4.87 18.84 L6.91 9.95 L8.19 5.32 L1.89 -0.29" stroke="none" stroke-width="0" fill="#2f9e44" fill-rule="evenodd"/><path d="M-1.03 0.21 C-3.88 1.62, -12.34 6.14, -16.6 9.14 C-20.86 12.13, -23.6 15.55, -26.59 18.18 C-29.57 20.81, -31.4 20.48, -34.51 24.93 C-37.63 29.38, -44.45 39.91, -45.28 44.89 C-46.1 49.87, -44.25 55.67, -39.46 54.81 C-34.68 53.94, -22.6 44.14, -16.55 39.7 C-10.49 35.26, -7.37 32.92, -3.15 28.18 C1.08 23.43, 8.11 15.98, 8.82 11.22 C9.53 6.45, 2.58 1.49, 1.14 -0.42 M0.63 -0.72 C-1.87 0.8, -9.64 7.7, -14.3 10.5 C-18.96 13.3, -23.92 13.58, -27.32 16.07 C-30.72 18.55, -32.02 21.04, -34.69 25.4 C-37.36 29.76, -42.68 37.44, -43.33 42.23 C-43.99 47.03, -43.09 54.82, -38.6 54.19 C-34.11 53.56, -22.1 42.86, -16.37 38.43 C-10.65 34, -8.26 32.34, -4.26 27.64 C-0.26 22.93, 7.1 14.99, 7.62 10.21 C8.14 5.42, 0.01 0.5, -1.15 -1.09" stroke="#099268" stroke-width="0.5" fill="none"/></g></g><mask/><g stroke-linecap="round"><g transform="translate(380.13486560095066 425.3756204838991) rotate(0 -20.74288573393501 16.520839420853555)" fill-rule="evenodd"><path d="M-0.21 0.09 L-17.71 5.96 L-37.15 15.68 L-49.09 23.77 L-48.21 27.78 L-43.02 32.82 L-35.53 33.98 L-18.53 28.2 L-8.13 25.3 L-1.36 18.26 L7.02 9.24 L7.66 7.44 L-0.51 1.81" stroke="none" stroke-width="0" fill="#2f9e44" fill-rule="evenodd"/><path d="M-0.78 -0.33 C-3.35 0.55, -11.76 3.97, -16.43 5.47 C-21.11 6.97, -25.07 6.79, -28.81 8.67 C-32.55 10.55, -35.61 14.1, -38.88 16.75 C-42.15 19.4, -47.58 21.84, -48.44 24.58 C-49.29 27.32, -47.97 32.04, -44.01 33.19 C-40.05 34.34, -30.61 32.56, -24.67 31.47 C-18.72 30.38, -13.64 30.15, -8.35 26.68 C-3.06 23.2, 5.62 15.09, 7.05 10.61 C8.47 6.13, 1.35 1.4, 0.2 -0.19 M1.01 -1.55 C-1.62 -1.06, -12.79 1.76, -17.35 3.58 C-21.91 5.4, -22.75 7.49, -26.34 9.36 C-29.93 11.24, -35.47 12.14, -38.88 14.81 C-42.29 17.49, -46.1 22.49, -46.79 25.4 C-47.49 28.3, -46.85 30.87, -43.07 32.23 C-39.29 33.6, -29.8 34.5, -24.11 33.58 C-18.41 32.66, -13.92 30.19, -8.9 26.71 C-3.89 23.22, 4.31 17.24, 5.98 12.67 C7.64 8.09, 1.98 1.54, 1.07 -0.74" stroke="#099268" stroke-width="0.5" fill="none"/></g></g><mask/><g stroke-linecap="round"><g transform="translate(377.4975425430638 355.2931707294186) rotate(0 -22.60056753153825 7.270460529428661)" fill-rule="evenodd"><path d="M1.26 0.1 L-21.97 -3.42 L-27.83 -4.18 L-42.89 2.99 L-46.23 10.1 L-43.5 13.96 L-31.47 18.01 L-17.15 7.51 L1.12 -1.79" stroke="none" stroke-width="0" fill="#2f9e44" fill-rule="evenodd"/><path d="M0.07 0.43 C-3.31 -0.28, -15.69 -4.48, -21.07 -4.61 C-26.46 -4.74, -28.44 -1.77, -32.27 -0.33 C-36.09 1.11, -41.72 2.36, -44.03 4.02 C-46.33 5.69, -46.47 7.81, -46.1 9.66 C-45.72 11.52, -44.04 13.66, -41.79 15.15 C-39.54 16.64, -34.61 18.18, -32.6 18.58 C-30.59 18.98, -32.48 19.32, -29.71 17.54 C-26.93 15.75, -19.62 9.85, -15.94 7.88 C-12.26 5.91, -10.27 7.02, -7.64 5.71 C-5 4.41, -1.28 0.92, -0.13 0.06 M-1.36 -0.38 C-4.29 -0.97, -13.47 -3.42, -18.79 -3.7 C-24.11 -3.98, -29.02 -2.99, -33.28 -2.06 C-37.54 -1.13, -42.48 -0.14, -44.33 1.89 C-46.18 3.92, -45.02 8.13, -44.38 10.13 C-43.73 12.13, -42 12.66, -40.46 13.91 C-38.92 15.15, -36.87 17.09, -35.15 17.6 C-33.42 18.12, -33.07 18.85, -30.13 16.98 C-27.19 15.11, -21.4 8.25, -17.51 6.39 C-13.62 4.54, -9.74 6.72, -6.8 5.84 C-3.86 4.95, -1.19 1.97, 0.13 1.07" stroke="#099268" stroke-width="0.5" fill="none"/></g></g><mask/><g stroke-linecap="round"><g transform="translate(380.0700466590624 444.4514069262549) rotate(0 -8.035750692067083 7.6691787742844255)" fill-rule="evenodd"><path d="M0.23 1.83 L4.54 4.32 L4.07 8.97 L4.03 14.32 L-7.69 15.07 L-22.04 11.07 L-9.37 7.49 L-1.03 0.59" stroke="none" stroke-width="0" fill="#2f9e44" fill-rule="evenodd"/><path d="M-0.81 -1.2 C-0.11 -0.37, 3.57 3.11, 4.28 5.4 C4.99 7.7, 4.54 10.9, 3.45 12.58 C2.36 14.26, 1.81 15.6, -2.26 15.49 C-6.33 15.38, -19.92 13.08, -20.98 11.9 C-22.03 10.72, -12.25 10.47, -8.57 8.42 C-4.88 6.37, -0.32 1.02, 1.14 -0.42 M0.97 0.79 C1.46 1.27, 2.28 2.25, 3.08 3.9 C3.89 5.54, 6.72 8.53, 5.8 10.66 C4.87 12.79, 2.24 16.43, -2.48 16.67 C-7.2 16.91, -21.22 13.58, -22.53 12.09 C-23.84 10.6, -13.88 9.49, -10.34 7.75 C-6.8 6.02, -2.88 3.08, -1.28 1.68" stroke="#099268" stroke-width="0.5" fill="none"/></g></g><mask/><g stroke-linecap="round"><g transform="translate(376.72304116400323 13.141596546044127) rotate(263.5528262650925 -19.35563777976099 25.26820003919258)" fill-rule="evenodd"><path d="M-1.7 -0.01 L-18.2 5.93 L-22.34 12.15 L-34.74 26.71 L-44.12 38.29 L-42.5 43.05 L-43.11 48.38 L-35.67 48.75 L-30.53 48.73 L-16.79 40.94 L-10.98 33.95 L2.94 16.79 L6.64 9.33 L4.33 6.26 L-3.65 1.59" stroke="none" stroke-width="0" fill="#2f9e44" fill-rule="evenodd"/><path d="M-0.47 1.17 C-3.34 2.7, -13.5 5.16, -18.02 7.95 C-22.53 10.74, -24.91 14.93, -27.55 17.9 C-30.19 20.86, -31.34 21.32, -33.87 25.74 C-36.39 30.16, -42.42 40.37, -42.71 44.43 C-43.01 48.49, -40.08 51.03, -35.64 50.12 C-31.2 49.21, -21.31 42.92, -16.08 38.95 C-10.84 34.98, -7.71 31.28, -4.24 26.29 C-0.76 21.29, 4.84 13.24, 4.78 8.97 C4.71 4.69, -3.3 2.11, -4.62 0.64 M1.49 0.75 C-0.95 2.04, -11.42 3.16, -15.85 6.25 C-20.29 9.34, -22.15 15.9, -25.13 19.29 C-28.1 22.69, -30.6 22.32, -33.7 26.64 C-36.8 30.96, -43.11 41.49, -43.71 45.19 C-44.31 48.89, -42.02 50.14, -37.29 48.86 C-32.56 47.58, -20.68 41.23, -15.33 37.5 C-9.98 33.78, -8.86 31.5, -5.19 26.52 C-1.52 21.54, 6.54 11.95, 6.7 7.61 C6.86 3.27, -2.71 1.56, -4.23 0.48" stroke="#099268" stroke-width="0.5" fill="none"/></g></g><mask/><g stroke-linecap="round"><g transform="translate(376.32448808563436 48.699527610646726) rotate(89.89267640571806 -18.4444753950542 27.000254281069374)" fill-rule="evenodd"><path d="M-1.23 -1.21 L-15.72 9.24 L-31.2 21.94 L-46.68 42.14 L-42.62 50.19 L-42.59 52.78 L-37.31 52.21 L-25.54 47.81 L-3.5 30.37 L2.4 21 L9.3 10.57 L8.82 7.52 L0.57 0.29" stroke="none" stroke-width="0" fill="#2f9e44" fill-rule="evenodd"/><path d="M-1.04 0.81 C-3.75 2.21, -12.42 6.86, -16.71 9.62 C-21.01 12.38, -24.13 14.49, -26.82 17.36 C-29.5 20.23, -30 22.51, -32.81 26.83 C-35.62 31.15, -42.77 38.8, -43.67 43.3 C-44.57 47.79, -42.91 54.25, -38.22 53.81 C-33.53 53.37, -21.37 44.84, -15.52 40.64 C-9.67 36.44, -6.9 33.55, -3.11 28.62 C0.67 23.69, 6.55 15.83, 7.19 11.07 C7.84 6.31, 2.13 1.91, 0.76 0.06 M0.61 0.18 C-1.68 2.31, -9.76 8.18, -14.47 11.23 C-19.18 14.28, -24.73 16.24, -27.66 18.48 C-30.6 20.71, -29.28 20.48, -32.09 24.65 C-34.9 28.81, -43.77 38.8, -44.54 43.47 C-45.31 48.14, -41.66 53.27, -36.7 52.67 C-31.75 52.07, -20.22 43.93, -14.8 39.87 C-9.39 35.81, -8.14 33.29, -4.2 28.31 C-0.27 23.33, 8.39 14.76, 8.8 9.98 C9.21 5.2, -0.06 1.14, -1.74 -0.36" stroke="#099268" stroke-width="0.5" fill="none"/></g></g><mask/><g stroke-linecap="round" transform="translate(344.19835576167566 18.53871427260873) rotate(0 13.461121470427628 46.10215544307238)"><path d="M4.99 1.34 L21.65 0.67 L26.24 3.14 L28.42 86.65 L27.14 89.83 L23.47 91.47 L4.01 93.61 L0.21 88.51 L-1.21 7.66 L2.95 1.79 L5.03 -0.01" stroke="none" stroke-width="0" fill="#868e96"/><path d="M6.73 0 M6.73 0 C9.79 -0.7, 13.55 -1.27, 20.19 0 M6.73 0 C9.37 -0.14, 13.06 -0.56, 20.19 0 M20.19 0 C26.56 -0.29, 26.41 4.05, 26.92 6.73 M20.19 0 C23.12 1.71, 28.51 2.31, 26.92 6.73 M26.92 6.73 C27.38 37.44, 28.59 67.11, 26.92 85.47 M26.92 6.73 C27.38 26.65, 26.34 48.23, 26.92 85.47 M26.92 85.47 C27.88 88.68, 25.11 92.63, 20.19 92.2 M26.92 85.47 C26.37 89.5, 24.58 91.91, 20.19 92.2 M20.19 92.2 C14.32 92.81, 9 91.2, 6.73 92.2 M20.19 92.2 C16.6 91.98, 13.07 92.92, 6.73 92.2 M6.73 92.2 C1.63 90.99, 1 90.28, 0 85.47 M6.73 92.2 C2.82 91.75, 0.03 91.79, 0 85.47 M0 85.47 C0.01 69.36, 0.9 53.58, 0 6.73 M0 85.47 C-0.52 63.62, 0.94 41.01, 0 6.73 M0 6.73 C0.25 2.75, 2.23 1.22, 6.73 0 M0 6.73 C0.43 2.38, 3.09 -1.33, 6.73 0" stroke="#1e1e1e" stroke-width="0.5" fill="none"/></g><g stroke-linecap="round"><g transform="translate(377.9487236410795 15.976484645063636) rotate(0 -18.856126146628682 23.024244275896137)" fill-rule="evenodd"><path d="M-1.03 0.59 L-16.68 5.29 L-29.06 16.25 L-45.46 32.6 L-44.93 34.99 L-41.96 42.97 L-37.88 48.13 L-33.86 46.28 L-6.63 29.68 L-0.75 24.78 L8.9 8.1 L7.79 6.51 L0.19 -1.07" stroke="none" stroke-width="0" fill="#2f9e44" fill-rule="evenodd"/><path d="M-0.16 -0.39 C-2.33 0.85, -9.77 5.32, -13.91 7.57 C-18.05 9.82, -21.66 10.86, -25.01 13.13 C-28.37 15.4, -30.57 17.07, -34.05 21.19 C-37.54 25.31, -45.34 33.68, -45.91 37.87 C-46.48 42.07, -42.53 46.88, -37.49 46.38 C-32.46 45.88, -21.67 38.52, -15.71 34.86 C-9.75 31.2, -5.57 28.93, -1.73 24.42 C2.11 19.92, 7.02 12.05, 7.31 7.81 C7.6 3.57, 1.1 0.36, 0.01 -1 M-1.7 -1.63 C-3.87 -0.75, -10.47 3.18, -14.38 5.82 C-18.3 8.46, -21.96 11.5, -25.18 14.23 C-28.4 16.96, -30.01 18.7, -33.7 22.2 C-37.39 25.69, -46.9 31.32, -47.31 35.18 C-47.72 39.04, -41.46 45.6, -36.15 45.37 C-30.84 45.14, -21.08 37.35, -15.45 33.81 C-9.82 30.27, -6.39 28.68, -2.36 24.12 C1.68 19.55, 8.31 10.75, 8.76 6.42 C9.22 2.09, 1.66 -0.85, 0.39 -1.84" stroke="#099268" stroke-width="0.5" fill="none"/></g></g><mask/><g stroke-linecap="round"><g transform="translate(377.58061196701146 47.97774777389503) rotate(0 -18.4444753950542 27.000254281069374)" fill-rule="evenodd"><path d="M-1.87 -1.58 L-14.7 8.8 L-31.17 20.79 L-43.7 41.93 L-41.85 50.57 L-42.09 55.15 L-39.77 55.49 L-26.05 48.16 L-1.25 28.98 L4.32 19.8 L8.16 12.02 L6.52 6.31 L-0.14 -0.87" stroke="none" stroke-width="0" fill="#2f9e44" fill-rule="evenodd"/><path d="M0.9 0.71 C-1.52 2.28, -10.12 6.24, -14.68 9.05 C-19.24 11.86, -23.31 14.53, -26.45 17.56 C-29.6 20.59, -30.49 22.85, -33.57 27.22 C-36.65 31.59, -44.01 39.21, -44.94 43.77 C-45.86 48.33, -44.16 55.25, -39.15 54.56 C-34.14 53.86, -20.75 43.94, -14.89 39.61 C-9.04 35.28, -7.69 33.53, -4.01 28.56 C-0.33 23.59, 6.51 14.57, 7.19 9.78 C7.86 5, 1.36 1.44, 0.06 -0.13 M-0.09 0.03 C-2.55 1.81, -10.52 7.25, -15.03 10.37 C-19.53 13.49, -24.08 16.3, -27.11 18.78 C-30.15 21.25, -30.03 21.01, -33.25 25.24 C-36.48 29.48, -45.66 39.43, -46.47 44.19 C-47.28 48.95, -43.55 54.79, -38.12 53.81 C-32.68 52.83, -19.89 42.56, -13.85 38.3 C-7.82 34.03, -5.68 32.65, -1.91 28.21 C1.87 23.78, 8.33 16.49, 8.79 11.68 C9.25 6.87, 2.42 1.04, 0.85 -0.66" stroke="#099268" stroke-width="0.5" fill="none"/></g></g><mask/><g stroke-linecap="round"><g transform="translate(380.13486560095066 85.37562048389913) rotate(0 -20.74288573393501 16.520839420853548)" fill-rule="evenodd"><path d="M1.11 -0.67 L-17.51 4.48 L-37.3 13.79 L-45.51 23.48 L-47.49 30.8 L-44.47 34.53 L-33.12 33.45 L-14.92 30.19 L-8.68 26.26 L-0.11 20.32 L5.35 10.23 L5.64 6.87 L1.02 -1.14" stroke="none" stroke-width="0" fill="#2f9e44" fill-rule="evenodd"/><path d="M1.14 -0.42 C-1.73 0.28, -11.47 2.95, -16.3 4.85 C-21.14 6.75, -24.16 9.17, -27.87 10.97 C-31.58 12.77, -35.16 13.41, -38.54 15.64 C-41.92 17.86, -47.48 21.42, -48.12 24.33 C-48.76 27.24, -46.13 31.85, -42.36 33.1 C-38.59 34.36, -30.92 33.16, -25.53 31.85 C-20.13 30.54, -15.23 28.74, -9.99 25.24 C-4.74 21.75, 4.4 15.04, 5.96 10.89 C7.53 6.74, 0.56 2.33, -0.62 0.35 M0.28 -1.68 C-2.8 -0.86, -12.34 4.47, -17.14 6.29 C-21.95 8.1, -25.03 7.46, -28.56 9.2 C-32.1 10.95, -35.4 14.13, -38.36 16.77 C-41.32 19.41, -45.34 22.46, -46.31 25.02 C-47.29 27.57, -47.69 31.18, -44.21 32.1 C-40.73 33.01, -31.5 31.76, -25.42 30.5 C-19.34 29.24, -12.69 28.03, -7.74 24.52 C-2.78 21.01, 3.06 13.51, 4.32 9.44 C5.58 5.37, 0.77 1.73, -0.18 0.09" stroke="#099268" stroke-width="0.5" fill="none"/></g></g><mask/><g stroke-linecap="round"><g transform="translate(377.4975425430638 15.293170729418591) rotate(0 -22.60056753153825 7.270460529428647)" fill-rule="evenodd"><path d="M1.12 -1.79 L-18.38 -3.7 L-27.11 -1.16 L-44.33 4.7 L-43.82 9.57 L-39.89 15.95 L-32.02 18.97 L-15.9 9.57 L-0.56 -0.8" stroke="none" stroke-width="0" fill="#2f9e44" fill-rule="evenodd"/><path d="M0.2 -0.19 C-3.34 -0.51, -14.78 -2.1, -20.13 -2.31 C-25.48 -2.52, -28 -2.46, -31.93 -1.45 C-35.86 -0.43, -41.62 1.94, -43.71 3.77 C-45.8 5.61, -44.62 7.61, -44.44 9.57 C-44.27 11.53, -44.35 14.27, -42.65 15.53 C-40.95 16.79, -36.21 16.76, -34.24 17.14 C-32.26 17.53, -33.7 19.27, -30.79 17.82 C-27.88 16.36, -20.41 10.78, -16.76 8.42 C-13.11 6.06, -11.8 5.14, -8.9 3.67 C-5.99 2.2, -0.71 0.27, 0.67 -0.4 M-1.15 -1.33 C-4.94 -1.92, -15.74 -4.07, -21.01 -3.86 C-26.27 -3.65, -28.95 -1, -32.76 -0.1 C-36.56 0.79, -41.72 -0.17, -43.84 1.51 C-45.97 3.19, -45.86 7.83, -45.52 10 C-45.17 12.16, -43.69 12.97, -41.77 14.49 C-39.85 16, -35.64 18.59, -33.98 19.08 C-32.32 19.56, -34.93 19.38, -31.79 17.41 C-28.64 15.43, -18.95 9.06, -15.1 7.22 C-11.26 5.38, -11.46 7.52, -8.72 6.38 C-5.98 5.24, -0.33 1.59, 1.34 0.37" stroke="#099268" stroke-width="0.5" fill="none"/></g></g><mask/><g stroke-linecap="round"><g transform="translate(380.0700466590624 104.45140692625495) rotate(0 -8.035750692067083 7.669178774284433)" fill-rule="evenodd"><path d="M-1.87 -1.58 L5.86 3.56 L4.27 7.48 L3.88 12.43 L-4.11 14.78 L-21.33 14.09 L-10.82 9.2 L1.38 0.06" stroke="none" stroke-width="0" fill="#2f9e44" fill-rule="evenodd"/><path d="M0.14 1.1 C0.87 1.84, 4.01 2.41, 4.62 4.29 C5.22 6.16, 4.64 10.48, 3.77 12.33 C2.9 14.18, 3.66 15.41, -0.61 15.4 C-4.87 15.39, -20.24 13.68, -21.84 12.28 C-23.43 10.88, -13.85 9.05, -10.2 6.99 C-6.55 4.92, -1.54 0.97, 0.06 -0.13 M-1.25 0.63 C-0.7 1.6, 2.35 4.25, 3.61 5.85 C4.86 7.46, 6.87 8.5, 6.28 10.28 C5.68 12.06, 4.45 16.14, 0.04 16.54 C-4.37 16.94, -18.65 13.89, -20.18 12.67 C-21.72 11.45, -12.66 11.59, -9.17 9.22 C-5.69 6.85, -1.08 -0.04, 0.73 -1.55" stroke="#099268" stroke-width="0.5" fill="none"/></g></g><mask/></svg>