<svg version="1.1" xmlns="http://www.w3.org/2000/svg" viewBox="0 0 420 481.5810272703685" width="420" height="481.5810272703685">
  <!-- svg-source:excalidraw -->
  
  <defs>
    <style class="style-fonts">
      @font-face {
        font-family: "Virgil";
        src: url("https://excalidraw.com/Virgil.woff2");
      }
      @font-face {
        font-family: "Cascadia";
        src: url("https://excalidraw.com/Cascadia.woff2");
      }
    </style>
    
  </defs>
  <rect x="0" y="0" width="420" height="481.5810272703685" fill="#ffffff"/><g stroke-linecap="round"><g transform="translate(30 411.600125316026) rotate(0 29.40336650001457 0)"><path d="M0.47 0.2 C10.39 0.36, 50.1 0.27, 59.89 0.13 M-0.75 -0.75 C9.09 -0.29, 49.61 1.55, 59.51 1.73" stroke="#1e1e1e" stroke-width="2" fill="none"/></g></g><mask/><g stroke-linecap="round"><g transform="translate(30 71.60012531602598) rotate(0 29.40336650001457 0)"><path d="M1.09 0.13 C10.88 -0.01, 49.47 -0.49, 59.22 -0.63 M0.2 -0.85 C9.83 -0.86, 48.65 0.4, 58.49 0.57" stroke="#1e1e1e" stroke-width="2" fill="none"/></g></g><mask/><g stroke-linecap="round" transform="translate(10 11.60012531602598) rotate(0 10 220)"><path d="M0 0 C0 0, 0 0, 0 0 M0 0 C0 0, 0 0, 0 0 M0.34 7.09 C1.85 3.55, 4.05 2.23, 5.04 -0.22 M-0.6 6.08 C1.84 3.97, 3.41 2.44, 5.16 0.01 M1.27 13.23 C4.23 6.65, 5.53 5, 10.13 0.68 M-0.34 11.49 C1.93 9.23, 4.83 7.18, 10.9 -0.15 M-1.4 17.88 C5.54 11.35, 11.51 6.77, 14.73 0.47 M0.25 17.92 C5.52 11.4, 10.24 6.84, 16.54 1.18 M1.37 22.12 C6.34 16.78, 17 4.55, 20.61 -0.94 M0.64 23.76 C5.76 17.69, 12.62 10.62, 21.06 1.53 M0.19 29.9 C4.31 23.8, 10.39 20.38, 19.92 7.48 M0.69 30.54 C4.98 25.3, 11.18 18.63, 21.03 7.17 M1.5 36.11 C8.95 28.31, 16.7 19.82, 19.85 11.98 M0.2 37.01 C3.59 31.19, 8.36 27.09, 21.24 12.05 M0.16 42.81 C4.06 36.02, 12.9 27.84, 21 17.52 M-0.32 42.35 C6.65 34.87, 14.26 25.49, 19.79 18.5 M-0.26 47.3 C4.59 43.54, 9.49 35.51, 22.87 25.8 M-0.68 49.62 C7.11 39.79, 15.34 30.25, 20.26 24.52 M-0.69 54.59 C6.25 49.91, 11.22 43.67, 20.14 31.22 M0.38 55.55 C6.4 47.78, 13.88 39.88, 20.63 31.23 M-1.48 61.14 C8.24 50.95, 12.41 43.96, 21.56 37.39 M0.86 61.72 C8.16 53.73, 15.03 44.65, 20.72 36.69 M0.38 67.37 C8.61 58.59, 15.41 51.17, 18.9 44.9 M-1.03 66.41 C5.51 60.69, 10.58 55.24, 19.84 43.05 M-0.43 73.68 C7.15 63.41, 13.05 57.71, 21.81 47.77 M0.01 73.97 C6.95 65.16, 14.15 55.57, 20.24 50.4 M-1.28 80.41 C6.84 73.22, 12.1 66.46, 22.12 53.49 M-0.71 80.25 C4.7 72.19, 10.59 66.89, 20.03 56.18 M-0.77 84.36 C9.69 76.79, 16.57 66.55, 22.09 63.04 M-0.37 84.37 C5.34 78.93, 10.06 73.42, 20.1 62.54 M-1.68 90.57 C6.37 82.24, 14.14 72.59, 21.28 67.31 M0.91 91.97 C7.64 82.38, 16.25 74.7, 21.53 68.18 M-0.18 96.75 C2.72 92.41, 9.31 87.84, 21.52 74.95 M-0.37 96.97 C7.75 89.3, 15.06 80.06, 21.29 73.56 M-1.52 105.35 C6.05 98.49, 10.2 92.64, 21.81 80.79 M-0.26 103.02 C7.38 95.81, 13.22 87.9, 19.67 80.67 M0.24 111.52 C6.2 104.04, 10.11 98.27, 22.52 85.88 M-0.42 110.86 C6.71 100.79, 13.44 93.79, 21.17 86.48 M1.1 115.62 C8.97 109.17, 13.73 101.04, 21.75 93.49 M-0.65 116.16 C4.9 110.5, 8.74 106.43, 21.45 92.3 M0.07 122.98 C8.18 112.98, 13.21 104.68, 21.45 98.33 M0.75 122.72 C7.87 113.74, 15.98 103.76, 20.1 98.38 M-1.94 128.39 C5.45 119.4, 11.94 114.24, 19.78 102.59 M0.39 128.25 C5.83 121.91, 10.77 115.27, 21.59 103.31 M2.13 132.08 C7.19 124.28, 15.27 117.11, 19.3 111.92 M0.77 133.8 C5.2 127.32, 10.61 122.43, 20.12 111.4 M1.82 139.77 C5.81 132.97, 11.22 126.45, 21.88 115.91 M-0.87 141.14 C8.87 130.34, 16.65 120.77, 21.15 116.51 M-0.08 147.12 C7.85 136.73, 17.88 128.06, 21.68 123.89 M0.95 146.63 C7.61 138.22, 16.43 129.41, 20.98 123.24 M1.52 151.52 C5.37 145.47, 6.76 140.61, 19.99 129.39 M-0.44 152.31 C5.56 145.78, 11.16 139.23, 20.23 128.75 M0.86 160.55 C8.62 148.27, 16.2 142.1, 21.51 134.13 M-0.37 157.83 C6.95 150.71, 14.23 141.73, 20.76 134.17 M1.57 164 C6.18 158.48, 8.15 153.34, 18.64 140.07 M0.03 163.77 C8.13 156.33, 15.41 147.02, 20.56 141.96 M0.98 169.91 C6.46 161.68, 14.57 157.6, 22.31 145.87 M0.81 171.07 C5.82 162.64, 11.71 156.38, 21.25 145.77 M0.99 176.97 C2.89 170.22, 8.38 167.89, 19.01 154.65 M0.58 176.85 C6.99 167.44, 14.31 160.43, 19.63 153.62 M0.99 182.39 C3.63 177.91, 10.61 171.06, 21.6 158.5 M0.21 183.59 C5.33 176.56, 12.19 169.97, 21.25 159.69 M0.79 190.3 C5.44 183.21, 7.49 179.52, 21.59 166.45 M0.26 188.94 C6.57 180.42, 13.97 173.35, 21.24 165.78 M0.84 195.81 C5.48 187.92, 12.72 180.77, 21.46 172.5 M-0.11 195.17 C6.95 188.15, 12.25 179.58, 21.25 170.62 M-1.44 200.99 C6.1 195.12, 10.81 191.85, 21.46 176.13 M-0.21 200.5 C7.27 193.81, 12.38 187.28, 20.9 177.79 M-0.86 207.35 C9.44 196.85, 16.04 189.94, 20.65 182.01 M-0.4 206.95 C4.87 201.63, 11.24 195.06, 21.42 182.83 M0.56 211.65 C6.01 208.59, 8.13 201.88, 19.7 188.52 M-0.4 213.53 C4.53 208.01, 7.71 204.59, 21.12 189.1 M0.45 218.33 C4.23 213.66, 10.81 209.25, 21.2 195.77 M0.12 220.08 C2.92 215.18, 7.15 210.76, 20.29 195.16 M0.32 223.54 C4.51 221.28, 11.11 214.04, 21.95 201.55 M0.48 224.63 C6.22 218.84, 11.63 212.94, 20.1 202.17 M-2.08 231.16 C5.94 224.84, 9.64 218.82, 19.77 205.9 M-0.11 230.81 C5.5 223.44, 12.85 216.81, 20.09 207.73 M2 237.28 C7.64 227.68, 13.16 222.11, 22.53 214.79 M0.9 237.68 C7.37 230.38, 12.83 221.91, 19.75 213.05 M1.38 241.93 C5.49 235.92, 11.51 231.55, 18.99 220.65 M-0.94 242.92 C6.75 237.78, 11.45 231.05, 20.05 220.77 M-0.27 249.62 C6.18 243.4, 7.89 238.76, 19.05 226.4 M0.35 250.64 C5.65 243.82, 11.72 236.63, 20.31 226.36 M-0.09 257.31 C6.11 249.9, 11.48 241.45, 22.07 233.4 M0.13 256.78 C7.79 246.63, 16.48 237.17, 21.09 231.53 M0.22 262.43 C7.4 251.65, 16.72 242.7, 19.71 237.97 M-0.01 262.51 C5.57 256.77, 9.57 250.35, 21.72 238.02 M1.24 267.36 C8.56 259.79, 17.05 249.86, 20.9 243.14 M1.28 268.07 C8.69 258.03, 16.25 250.21, 19.84 244.84 M-1.15 275.2 C8.99 265.3, 14.48 257.79, 18.71 251.17 M0.7 273.89 C7.14 266.82, 12.4 260.53, 20.94 250.02 M-0.95 282.27 C2.93 274.62, 8.59 271.21, 22.63 255.5 M-0.25 280.52 C8.41 271.13, 15.14 262.03, 21.24 256.09 M-1.72 286.07 C5.4 281.03, 13.15 274.11, 18.84 264.81 M-0.32 285.92 C4.88 280.3, 11.37 274.22, 20.6 263.4 M-0.36 293.35 C6.41 284.2, 16.94 275.06, 21.05 267.47 M0.39 292.92 C4.74 287.99, 7.99 282.73, 19.98 267.99 M-0.2 296.54 C4.46 293.61, 12.69 284.84, 19.52 275.32 M-0.15 299.04 C7.98 289.82, 14.62 280.78, 21.05 274.77 M1.94 305.54 C9.32 294.7, 16.92 287.63, 19.9 280.18 M-0.2 305.64 C6.05 298.43, 10.03 292.6, 19.72 281.31 M-1.35 312.21 C2.88 305.76, 9.59 300.07, 19.49 285.78 M-0.85 311.77 C7.55 302.32, 15.14 294.44, 20.97 287.3 M0.17 318.39 C4.02 310.22, 9.89 306.74, 19.54 291.87 M0.92 317.59 C8.49 307.71, 16.54 298.55, 19.81 293.87 M-1.32 323.85 C5.64 318.26, 11.7 312.43, 20.08 298.61 M-0.84 323.7 C7.57 314.15, 16.8 305.87, 20.73 299.49 M-0.83 330.84 C5.66 321.74, 10.57 318.07, 20.96 306.42 M0.37 329.03 C6.08 323.21, 10.91 318.26, 21.32 305.07 M0.4 335.82 C5.05 330, 9.63 321.89, 20.62 312.38 M-0.81 335.96 C5.19 328.03, 11.59 321.91, 19.74 311.88 M1.77 341.96 C5.72 334.84, 9.69 331.54, 20.45 318.32 M-0.19 342.24 C7.89 331.08, 16.89 321.92, 21.65 316.86 M-0.42 347.12 C5.21 339.34, 9.67 335.46, 21.01 322.77 M0.91 348.27 C7.37 337.89, 16.69 329.56, 21.07 324.07 M-0.64 351.92 C8.51 344.12, 13.82 337.95, 20.91 329.46 M0.55 354.58 C8.13 344.96, 14.87 337.16, 21.89 330.5 M-1.36 360.13 C8.33 352.17, 15.05 344.98, 21.81 335.09 M-0.34 359.62 C6.38 351.48, 12.13 344.86, 21.48 335.24 M0.02 366.54 C4.99 359.08, 11.56 352.99, 19.23 341.82 M-0.38 364.97 C6.38 359.15, 12.09 352.39, 20.16 343.33 M-2.05 373.35 C8.65 362.83, 16.8 355, 18.87 349.27 M-0.2 373.12 C7.05 363.25, 15.94 354.15, 20.11 347.14 M-0.92 378.25 C6.74 371.73, 8.25 365.47, 20.88 354.53 M0.4 376.91 C7.99 369.52, 16.51 358.86, 20.25 353.74 M-1.52 382.39 C4.48 378.48, 8.49 373.33, 22.67 360.64 M-0.63 384.89 C4.47 379.27, 7.93 374.71, 21.76 360.79 M-1.47 390.86 C6.25 385.44, 8.83 377.07, 19.97 368.34 M-0.07 389.18 C7.44 381.07, 15.01 374.63, 21.66 365.68 M1.87 396.5 C7.64 387.23, 13.75 381.58, 21.63 372.62 M0.13 396.64 C6.32 388.96, 12.32 380.33, 20.29 373.33 M-1.71 404.32 C5.37 397.98, 7.22 392.95, 21.92 378.62 M0.33 402.66 C7.09 393.66, 13.65 385.68, 20.22 377.66 M1.01 407.56 C7.75 400.8, 12.96 392.67, 20.8 385.77 M0.15 408.63 C6.42 400.06, 13.66 393.6, 21.18 384.91 M-1.09 415.68 C5.82 407.26, 12.39 402.11, 22.77 392.13 M-0.67 415.26 C7.86 404.96, 16.89 396.89, 21.48 389.52 M-1.22 419.57 C3.89 413.65, 11.21 410.48, 21.87 398.27 M0.57 421.21 C7.98 412.16, 16.66 402.61, 21.66 397.28 M1.57 427.62 C5.44 419.36, 12.67 411.79, 20.51 403.72 M0.41 426.47 C6.47 420.4, 11.96 412.01, 19.98 403.16 M-1.34 433.65 C6.27 426.03, 16.07 415.65, 21.79 410.95 M0.16 433.75 C4.57 426.7, 10.1 423.13, 21.29 408.72 M-1.26 437.45 C5.06 433.96, 11.46 426.2, 21.74 413.41 M-0.63 438.33 C7.39 430.83, 13.21 423.82, 19.95 415.51 M3.4 441.52 C7.51 435.81, 12 430.55, 20.18 419.98 M2.05 442.19 C6.64 436.9, 11.01 432.99, 21.31 420.86 M8.74 441.57 C12.08 437.07, 18.85 431.05, 21.72 426.8 M6.93 441.91 C10.26 439.52, 12.24 435.16, 21.32 427.1 M13.44 442.34 C14.53 439.96, 16.76 436.63, 19.41 433.74 M12.72 442.05 C16.45 438.7, 19.27 435.57, 20.19 433.56" stroke="#868e96" stroke-width="0.5" fill="none"/><path d="M-1.05 1.26 C6.59 -0.59, 13.89 0.56, 18.99 0.56 M0.33 -0.14 C6.69 -0.68, 13.6 0.08, 19.9 0.94 M20.11 -0.28 C19.45 129.95, 20.98 259.5, 20.96 439.63 M20.26 0.26 C21.99 154.36, 22.22 308.43, 19.76 439.9 M20.26 441.98 C16.21 440.27, 6.96 441.63, 1.59 439.05 M19.98 439.17 C15.16 439.32, 11.3 440.09, 0.75 439.07 M0.48 439.51 C2.1 338.94, 2.44 236.28, -0.18 -0.53 M-0.38 439.82 C-0.65 310.78, -1.1 181.59, 0.35 0.33" stroke="#1e1e1e" stroke-width="1" fill="none"/></g><g stroke-linecap="round" transform="translate(90 11.60012531602598) rotate(0 9.700520833333343 220)"><path d="M0 0 C0 0, 0 0, 0 0 M0 0 C0 0, 0 0, 0 0 M0 5.62 C1.71 4.76, 2.49 2.61, 5.38 0.96 M0.06 6.09 C1.6 4.69, 3.48 2.05, 5.14 0.75 M0.79 10.81 C2.33 8.71, 7.3 3.77, 9.55 0.98 M-0.43 12.01 C3.01 9.49, 6.31 5.29, 10.84 0.27 M0.47 17.26 C6.25 13.09, 8.72 7.55, 16.58 -0.05 M0.01 17.6 C2.86 15.19, 8.1 10.9, 16.4 0.54 M-1.31 25.79 C9.14 13.86, 15.38 5.12, 20.69 -1.25 M-0.66 25.01 C8.05 15.78, 16.89 6.28, 19.9 0.34 M-0.58 29.13 C4.78 26.57, 7.14 22.21, 19.47 5.84 M-0.55 31.4 C5.28 24.95, 10.23 19.39, 20.92 6.69 M1.34 36.79 C6.12 31.56, 8.14 25.28, 19.07 11.09 M-1.16 36.37 C4.69 30.87, 11.61 22.97, 20.54 12.52 M-1.68 42.74 C9.2 32.17, 16.14 23.08, 21.86 20.88 M-0.65 43.38 C4.42 37.08, 9.29 30.73, 19.83 19.04 M-0.36 49.39 C7.47 38.18, 17.59 32.05, 21.82 25.26 M-0.91 49.09 C6.72 40.26, 13.88 31.86, 19.93 26.25 M0.89 56.14 C5.24 50.74, 9.52 43.57, 20.86 30.03 M-0.1 55.23 C8.35 45.99, 14.95 37.53, 20.99 30.37 M0.94 59.09 C3.98 53.59, 12.34 48.19, 21.09 36.69 M0.98 61.75 C5.38 55.11, 9.17 49.59, 21.02 37.24 M0.82 67.54 C6.86 60.9, 11.89 52.87, 19.65 42.93 M0.32 66.67 C7.26 59.49, 12.68 51.69, 21.39 44.09 M-0.07 72 C5.06 67.19, 14.7 55.96, 21.71 50.43 M-0.3 73.48 C4.4 66.61, 9.57 62.51, 20.46 48.79 M0.4 80.22 C3.84 75.61, 9.86 67.65, 19.33 57.32 M-0.51 78.5 C7.62 70.62, 14.12 62.97, 21.02 55.65 M1.87 85.63 C6.63 78.03, 12.85 73.88, 19.76 62.18 M0.17 84.75 C4.03 80.56, 8.33 76.38, 21.24 60.78 M-1.44 91.13 C6.4 81.71, 15.46 74.32, 21.65 68.07 M-0.02 91.09 C5.91 86.15, 10.7 80.29, 19.53 67.55 M-1.97 97.6 C5.52 92.09, 11.5 86.59, 21.96 74.99 M0.33 98.08 C7.03 89.75, 14.21 81.92, 20.05 74.38 M1.53 103.84 C6.82 96.7, 12.95 91.02, 20.96 79.67 M0.75 103.36 C5.93 96.41, 11.09 90.74, 20.3 79.89 M0.24 110.65 C2.36 106.73, 9.81 100.29, 21.02 88.05 M-0.23 109.04 C5.98 102.52, 13.33 95.38, 20.62 86.81 M2.15 117.27 C7.63 108.18, 16.75 99.12, 18.93 91.26 M0.41 115.54 C6.02 109.55, 13.21 101.89, 21.05 91.3 M1.01 121.16 C6.66 112.03, 16.33 104.11, 22.2 97.67 M-0.21 122.76 C4.34 116.53, 8.77 111.06, 20.3 98.38 M-0.77 126.49 C5.69 121.58, 10.9 113.03, 19.85 105.33 M0.62 127.93 C4.92 121.85, 10.2 116.25, 21.18 103.74 M0.12 132.13 C5.34 128.16, 7.43 125.5, 19.45 109.79 M0.06 132.96 C4.73 128.79, 8.54 124.58, 20.21 110.94 M0.19 139.68 C7.16 131.17, 15.63 122.9, 21.96 116.51 M0.69 139.89 C8.67 130.15, 16.59 121.8, 21.13 117.23 M-0.02 145.93 C8.96 138.4, 15.05 131.46, 22 120.96 M-0.08 146.66 C5.35 141.44, 9.02 136.69, 19.77 122.92 M1.09 150.65 C5.66 142.02, 14.91 135.12, 20.12 128.54 M-0.34 152.34 C3.93 147.46, 8.85 141.98, 20.98 128.83 M0.97 157.06 C7.36 151.94, 13.47 143.05, 21.02 135.88 M-0.26 158.93 C4.62 152.96, 9.45 147.42, 19.45 134.82 M1.27 163.84 C3.04 158.77, 7.62 152.6, 21.81 142.79 M0.89 164.77 C5.66 158.53, 10.06 154.21, 20.56 141.2 M0.06 169.14 C8.12 165.06, 14.24 155.11, 20.3 148.34 M-0.44 169.92 C4.39 164.57, 11.09 157.16, 19.37 148.16 M-1.3 175.06 C4.11 172.68, 7.29 168, 21.84 151.27 M-0.55 175.98 C6.61 169.01, 13.7 160.29, 20.02 153.54 M-1.13 183.42 C5.99 176.32, 11.4 170.15, 20.29 157.8 M-0.89 183.32 C4.27 178.49, 9.62 172.88, 19.39 160.06 M1.33 188.25 C6.63 180.59, 15.69 172.99, 20.94 166.1 M-0.58 188.83 C7.25 181.21, 15.57 172.24, 20.55 165.12 M-1.69 195.77 C2.6 191.83, 9.3 186.31, 20.7 170.3 M0.5 195.4 C5.65 187.03, 13.17 179.94, 19.68 172.2 M1.69 200.45 C8.82 194.62, 14.28 184.6, 20.46 176.51 M0.57 201.24 C4.47 196.3, 10.52 189.94, 20.97 178.25 M1.92 205.44 C5.73 201.87, 9.79 194.62, 19.88 183.29 M-0.5 207.75 C6.61 200.53, 13.05 192.65, 20.11 183.56 M0.97 214.37 C3.86 206.87, 11.08 198.54, 18.41 189.4 M0.36 212.69 C5.19 207.45, 12.2 199.45, 19.87 190.85 M-0.8 219.82 C7.7 213.25, 14.64 203.37, 18.14 198.32 M-1.07 220.01 C4.58 213.79, 10.69 206.04, 19.61 197.19 M-0.37 227.31 C9.17 216.86, 17.66 206.66, 20.07 202.25 M0.59 225.23 C5.23 220.29, 9.62 214.3, 20.14 201.35 M0.24 231.38 C6.32 222.95, 14.4 212.41, 20.39 210.08 M-0.75 230.87 C6.29 224.81, 11.37 217.97, 20.71 209.2 M0.77 235.96 C6.75 229.65, 17.43 220.44, 21.35 215.93 M0.77 238.23 C5.38 230.53, 11.49 222.34, 20.38 213.53 M-0.21 242.25 C5.28 238.5, 8.93 232.24, 20.2 218.88 M0.65 244.61 C5.9 237.7, 12.43 229.99, 19.71 221.26 M1.47 249.13 C5.2 242.24, 11.9 234.69, 20.12 227.46 M-0.57 251.11 C5.58 243.58, 12.23 235.42, 20.21 227.22 M-0.1 257.19 C5.56 248.3, 14.88 241.56, 22.41 231.66 M-0.34 256.05 C8.2 246.59, 16.51 236.63, 21.24 231.61 M-0.63 260.75 C7.79 252.76, 12.62 246.07, 18.85 238.95 M0.75 262.35 C6.19 254.19, 13.3 247.63, 20.91 239.31 M1.21 268.31 C7.75 260.55, 11.69 253.67, 22.49 242.73 M0.49 267.34 C7.22 260.18, 14.02 251.23, 21.59 243.79 M0.79 274.38 C2.89 270.84, 7.51 264.13, 20.68 250.14 M0.64 273.99 C3.49 270.39, 8.72 263.99, 19.48 250.24 M-1.65 279.87 C7.55 272.34, 17.43 261.41, 21.88 258.52 M0.41 280.69 C6.82 271.99, 15.92 262.26, 20.12 257.42 M-0.68 288.2 C8.9 279.48, 14.11 270.52, 20 263.41 M-0.64 286.66 C5.85 280.79, 11.33 274.29, 21.26 263.05 M-1.45 293.24 C7.15 286.31, 11.88 277.98, 18.62 270.59 M0.31 293.35 C5.72 285.42, 12.6 276.32, 19.82 269.17 M-0.8 299.79 C10.13 288.18, 14.97 280.82, 21.86 276.51 M0.82 298.27 C6.44 290.39, 13.24 283.75, 21.29 274.05 M1.69 303.41 C9.67 295.58, 15.36 285.07, 19.39 280.13 M0.81 304.15 C4.51 298.53, 8.95 293.6, 19.41 281.27 M-1.4 310.83 C9.04 300.9, 14.33 291.76, 21.26 287.32 M0.01 310.81 C5.19 305.76, 9.97 300.01, 19.62 287.64 M-1.09 316.01 C5.25 311.83, 10.29 302.35, 22.17 294.94 M0.89 316.49 C5.45 310.99, 8.24 306.84, 19.96 292.53 M0.3 324.12 C7.21 317.42, 10.87 309.32, 21.78 298.82 M-0.45 323.32 C7.97 316.07, 13.74 307.64, 19.97 299.27 M0 328.03 C5.02 324.2, 11.72 317, 19.54 306.22 M1.2 329.08 C8.59 321.13, 16.08 311.05, 20.2 305.04 M-0.24 336.1 C6.53 325.37, 15.07 318.66, 19.69 311.65 M-0.23 334.42 C8.96 325.19, 15.54 316.81, 19.78 311.97 M0.72 340.61 C5.48 336.1, 11.33 328.52, 22.09 317.28 M-0.58 340.68 C6.12 334.05, 12.75 326.97, 19.93 319 M-0.31 345.83 C3.98 342.24, 11.66 333.62, 22.51 325.04 M-0.62 347.28 C6.92 340.61, 13.59 332.28, 20.83 323.3 M1.41 351.98 C4.67 348.43, 9.65 342.67, 20.95 328.55 M0.9 353.11 C7.31 345.34, 14.44 338.72, 20.58 329.62 M1.43 359.75 C5.94 355.24, 10.35 348.42, 20.41 337.63 M0.73 358.38 C8.53 349.51, 16.8 340.75, 20.59 336.16 M-0.93 366.03 C6.59 358.77, 12.72 349.24, 19.95 342.09 M0.7 365.77 C8.17 357.26, 14.55 350.07, 21.3 341.71 M0.3 372.42 C8.29 364.91, 13.69 355.36, 21.51 348.17 M-0.76 372.28 C7.7 363.47, 13.76 354.24, 19.55 349.51 M1.99 377.24 C3.23 371.38, 9.71 367.48, 22.19 354.58 M0.23 378.61 C8.38 368.5, 14.81 360.12, 19.59 354.63 M0.21 383.52 C6.82 375.76, 15.33 369.45, 18.53 360.52 M-0.04 384.58 C6.68 376.27, 16.12 367.3, 19.88 361.35 M1.07 391.49 C4.1 382.74, 10.94 378.87, 21.38 366.09 M0.57 388.91 C7.38 383.59, 13.35 375.47, 20.64 367.04 M1.73 394.36 C9.31 386.75, 16.54 378.21, 20.85 372.18 M-0.32 396.45 C4.64 388.91, 11 383.91, 19.44 373.28 M1.2 402.79 C3.98 396.71, 11.18 391.02, 21.21 380.81 M-0.14 401.99 C2.98 397.82, 7.32 392.35, 20.67 379.71 M0.69 408.88 C3.08 403.96, 9.26 399, 21.13 383.27 M-0.47 407.64 C4.83 403.35, 10.36 397.3, 20.45 385.43 M-0.17 414.24 C5.92 409.68, 12.93 403.48, 21.97 392.04 M-0.13 414.23 C6.82 408.59, 12.35 400.07, 19.55 390.4 M-1.09 419.15 C8.01 414.21, 13.88 407.75, 22.64 397.3 M-0.35 421.93 C7.51 413.06, 15.98 403.53, 20.82 397.25 M-0.89 426.61 C4.59 420.76, 9.67 415.9, 20.6 402.72 M0.1 427.6 C4.89 419.97, 10.9 413.56, 20.87 402.48 M-1.2 434.34 C7.02 425.86, 12.06 422.25, 18.65 409.9 M-0.14 432.2 C7.15 426.38, 13.35 417.63, 19.48 410.27 M0.43 439.26 C6.5 432.2, 10.09 427.13, 21.31 414.4 M0.4 438.61 C4.23 434.19, 9.23 428.15, 20.57 415.88 M2.06 442.24 C6.45 437.03, 12.86 428.36, 19 421.79 M2.31 441.83 C7.17 437.46, 12.49 431.11, 21.04 421.06 M7.04 442.63 C11.64 439.07, 14.21 435.4, 18.95 428.03 M7.5 442.79 C11.17 436.67, 17.11 432.13, 20.28 427.84 M12.68 442.19 C15.87 437.73, 17.88 435.46, 21.39 434.66 M13.71 441.93 C16 439.49, 17.46 436.8, 20.07 433.78" stroke="#868e96" stroke-width="0.5" fill="none"/><path d="M-1.18 -0.5 C4.8 0.48, 11.99 0.42, 19.7 -0.99 M0.37 -0.84 C4.98 -0.08, 7.97 0.94, 19.36 0.19 M18.42 -0.11 C20.19 115.5, 20.59 231.84, 19.91 440.8 M19.62 -0.01 C21 170.41, 20.31 341.3, 19.31 440.2 M21.2 440.28 C12.07 441.79, 9.72 439.27, -1.53 440.82 M18.99 439.32 C13.49 439.9, 8.05 438.94, -0.67 439.31 M0.54 440.51 C-0.18 346.51, -1.24 253.64, -0.06 0.43 M0.3 440.05 C1.53 331.9, 2.04 223.88, -0.27 0.2" stroke="#1e1e1e" stroke-width="1" fill="none"/></g><g stroke-linecap="round" transform="translate(199.99999999999994 -18.39987468397402) rotate(270 10.000000000000036 200)"><path d="M0 0 C0 0, 0 0, 0 0 M0 0 C0 0, 0 0, 0 0 M-0.29 6.29 C1.77 5.25, 2.19 3.73, 5.29 0.41 M-0.5 6.69 C1.02 4.78, 2.26 3.72, 4.91 0.1 M-1.2 11.05 C5.19 9.43, 8.66 5.12, 10.97 1.16 M0.81 12.6 C3.32 7.84, 7.05 3.58, 9.85 0.76 M1.74 17.93 C7.22 13.37, 12.25 4.93, 14.93 -1.62 M-0.8 18.78 C5.18 12.34, 10.23 6.85, 14.99 -0.13 M2.11 24.6 C8.63 15.63, 16.93 8.1, 19.82 -0.79 M0.22 25 C8.28 14.4, 15.75 4.94, 19.79 0.42 M-1 29.12 C8.47 23.33, 13.12 13.59, 20.59 7.94 M0.11 31.14 C5.59 23.66, 11.82 16.81, 21.87 5.72 M1.47 35.5 C5.36 29.52, 9.21 23.45, 20.56 14.45 M-0.02 36.74 C5.15 30.82, 12.75 23.55, 20.61 13.29 M0.48 41.46 C4.58 35.74, 9.41 30.68, 21.92 17.85 M0.93 42.55 C6.11 36.33, 10.41 30.8, 19.91 19.74 M1.21 50.43 C6.33 41.53, 12.82 34.75, 19.28 24.47 M-1.06 47.92 C4.25 43.65, 9.62 38.3, 20.43 24.14 M1.84 56.06 C7.64 44.78, 15.52 37.69, 19.95 31.86 M0.36 54.64 C7.83 45.77, 14.6 38.39, 20.47 31.42 M-1.36 61.95 C4.47 53.66, 9.24 51.41, 22.77 37.28 M-0.49 60.09 C6.54 55.09, 10.4 48.49, 21.42 36.18 M0.71 66.18 C4.22 60.05, 13.13 53.57, 19.12 41.43 M0.16 67.12 C5.33 62.09, 8.9 55.19, 21.4 43.88 M-1.64 73.25 C4.83 65.75, 11.62 63.4, 19.77 49 M0.44 73.37 C4.88 67.78, 11 60.82, 20.75 48.67 M-0.69 78.17 C5.43 72.7, 11.7 69.31, 19.15 56.61 M-0.27 78.75 C3.91 74.48, 9.04 69.8, 20.89 54.8 M-0.42 86.89 C9.64 76.96, 17.8 65.16, 19.64 60.87 M0.16 85.18 C6.8 78.51, 13.37 71.63, 21.26 61.95 M0.5 92.06 C5.7 85.46, 12.05 76.03, 22.39 66.84 M0.19 91.86 C4.28 86.72, 9.24 81.07, 20.8 67.15 M-0.49 97.55 C4.39 89.82, 11.9 84.84, 20.36 71.78 M0.14 97.01 C7.13 90.94, 12.98 82.84, 21.53 73.9 M-1.54 102.44 C6.13 97.79, 12.37 91.69, 21.14 81.67 M1.02 103.34 C7.84 95.88, 14.68 86.5, 20.05 80 M-0.08 109.04 C6.07 106.5, 8.78 100.7, 19.23 87.21 M-0.49 109.4 C5.59 103.02, 12.36 96.09, 20.45 84.98 M1.97 115.34 C7.77 106.33, 14.98 98.01, 20.33 91.8 M-0.63 115.41 C4.7 110.06, 8.23 105.07, 21.2 91.45 M-0.75 122.8 C5.69 114.92, 13.1 105.6, 19.51 96.8 M-0.9 122.46 C7.86 111.99, 17.15 102.73, 19.97 97.71 M-2.23 128.86 C7.23 118.87, 16.64 110.31, 21.51 105.53 M-0.58 128.32 C7.84 119.21, 16.33 110, 20.53 105.16 M-0.78 134.89 C3.12 129.1, 9.66 125.13, 21.02 111.28 M0.12 134.86 C5.93 127.93, 12.12 121.5, 19.67 109.66 M1.21 142.26 C8.38 132.3, 16.38 121.04, 21.52 117.79 M-0.98 139.4 C7.07 131, 15.93 122.02, 20.65 115.38 M0.17 144.75 C5.73 139.87, 10.12 135.45, 20.28 123.04 M-0.58 146.59 C7.72 137.95, 14.25 129.74, 20.86 121.98 M0.3 152.4 C5.11 145.7, 10.95 137.7, 19.19 127.67 M-0.28 151.55 C7.48 142.69, 14.66 135.61, 21.24 128.41 M0.43 159.94 C5.14 151.83, 13.84 144.89, 21.07 135.06 M-1.09 159.71 C8.13 150.93, 14.35 141.69, 21.21 134.36 M-1.68 162.79 C8.35 156.07, 14.19 144.48, 21.93 139.32 M-0.55 164.22 C7.53 155.96, 14.51 149.54, 19.59 141.6 M-1.1 169.13 C8.58 161.08, 14.69 153.92, 21.8 145.73 M0.17 171.31 C6.91 163.17, 14.08 154.11, 20.05 145.84 M1.17 176.3 C8.16 171, 13.48 159.83, 21.78 154.56 M-0.22 176.17 C7.39 168.52, 15.11 160.31, 20.74 153.88 M-0.86 182.64 C8.69 175.75, 15.61 167.5, 18.84 157.54 M0.46 182.07 C7.59 175.73, 14 167.54, 19.76 159.48 M0.73 187.93 C3.78 184.12, 9.36 174.38, 22.11 165.84 M-0.66 190.24 C5.26 183.74, 9.08 177.94, 20.06 164.73 M0.01 193.42 C8.04 188.04, 13.35 182.76, 21.17 170.11 M-0.59 195.23 C5.21 189.09, 9.2 183.04, 20.36 171.43 M1.48 201.8 C5.46 197.49, 8.13 189.31, 20.88 176.96 M0.41 200.32 C7.02 193, 13.1 184.47, 20.61 176.95 M-1.04 205.76 C6.75 202.39, 8.97 193.88, 22.41 184.7 M0.33 207.33 C8.1 199.43, 14.12 190.42, 21.61 183.38 M0.54 211.66 C8.17 204.74, 12.69 196.84, 22.04 191.86 M0.99 213.85 C6.77 206.93, 12.55 198.79, 20.49 189.4 M-0.56 220.1 C7.82 210.86, 14.22 202.93, 19.47 197.17 M-0.44 219 C4.03 214.31, 7.41 210.1, 21.61 195.62 M-1.68 225.88 C6.21 216.93, 12.71 212.51, 22.1 203.59 M-0.57 224.86 C8.55 217.29, 16.22 207.68, 21.45 202.01 M1.49 230.01 C7.74 221.23, 12.99 213.8, 19.88 206.77 M-0.89 231.89 C8.07 222.27, 15.65 214.01, 20.12 207.71 M1.84 236.21 C6.34 231.94, 9.39 226.54, 22.28 214.85 M-0.25 236.68 C6.38 229.44, 12.63 223.35, 20.95 214.25 M1.79 242.67 C9.08 234.62, 15.05 227.37, 21.15 220.89 M0.69 243.24 C5.76 237.94, 12 231.39, 19.97 221.31 M0.13 250.53 C5.68 244.37, 10.06 237.52, 19.02 226.94 M-0.99 250.71 C5.64 242.08, 12.92 234.36, 20.81 226.18 M0.31 255.89 C4.8 250.12, 12.45 242.61, 21.37 232 M0.37 256.85 C6.81 247.8, 13.65 240.49, 19.61 233.11 M-1.24 261.82 C9.79 251.01, 17.21 244.91, 19.44 236.55 M-0.06 261.38 C5.74 255.56, 10.01 250.74, 20.51 237.16 M-0.34 266.85 C9.33 260.37, 13.47 248.9, 19.29 246.25 M-0.11 267.83 C5.9 262.82, 10.31 256.61, 21.24 245.37 M-0.01 272.72 C6.62 268.19, 11.2 260.32, 20.59 252.49 M0.97 274.72 C5.22 268.76, 9.34 264.55, 20.61 250.61 M0.38 280.88 C6.42 275.02, 11.28 270.29, 20.95 256.36 M0.02 281.36 C5.92 274.01, 11.16 266.21, 21.39 256.94 M1.36 284.47 C8.4 276.29, 13.04 269.17, 20.14 264.69 M0.87 287.3 C5.29 279.49, 11.71 274.24, 21.27 263.01 M-0.35 292.39 C3.64 287.31, 9.97 281.65, 19 270.48 M-0.78 293.67 C8.14 282.81, 15.78 273.03, 20.27 267.94 M-0.98 297.7 C4.46 290.47, 11.13 283.42, 20.4 276.72 M0.13 299.03 C4.55 292.19, 9.45 287.71, 20.41 274.42 M-0.72 305.45 C5.41 299.61, 10.03 292.7, 20.08 280.85 M-0.37 304.56 C6.72 297.43, 11.25 291.75, 21.14 280.6 M-0.9 313.15 C6.34 300.6, 16.17 291.86, 18.95 286.76 M0.23 311.86 C5.18 304.99, 9.47 300.42, 20.27 287.44 M0.35 318.75 C6.4 311.32, 9.98 305.88, 19.39 292.83 M-0.24 316.38 C5.81 311.34, 10.3 304.95, 20.89 294.16 M0.32 324.69 C8.26 317, 11.91 307.37, 20.04 300.38 M0.33 322.79 C5.86 315.72, 13.43 307.59, 20.8 300 M-1.4 330.35 C2.94 322.63, 8.85 317.7, 20.83 305.43 M-0.22 328.81 C9.1 319.29, 16.9 311.11, 20.16 305.46 M-1.94 335.83 C4.98 330, 10.89 320.81, 21.83 311.25 M-0.69 334.41 C6.16 329.25, 10.48 323.7, 20.95 312.08 M-0.29 342.44 C9.35 333.93, 15.51 324.46, 19.54 316.28 M-1.07 341.6 C5.76 334.95, 11.36 328.74, 19.9 317.89 M-1.02 348.69 C6.72 340.56, 16.62 330.76, 19.13 322.19 M0.38 347.86 C4.97 342.72, 8.45 336.97, 21.36 324.73 M-2.03 354.32 C3.03 349.63, 8.24 342.2, 21.31 330.36 M0.06 353.52 C6.61 346.04, 12.07 339.21, 20.78 330.16 M0.35 360.76 C5.24 352.76, 12.89 349.02, 19.36 337.63 M0.45 359.59 C5.33 353.49, 9.27 350.27, 20.36 336.56 M0.31 366.93 C5.81 357.47, 10.32 350.65, 21.9 340.8 M-0.22 364.95 C4.4 360.02, 10.02 354.96, 20.49 343.03 M1.44 373.68 C4.97 363.85, 12.15 354.78, 21.24 348.64 M-0.54 372.14 C4.37 367.49, 9.87 360.25, 20.65 348.74 M0.96 375.83 C6.94 373.75, 11.48 365.57, 21.64 353.86 M1.02 376.8 C4.04 372.46, 9.57 368.24, 20.36 354.33 M-1.92 386.17 C6.54 379.83, 9.52 371.49, 22.13 361.64 M-1.01 385.06 C7.81 375.21, 16.17 365.39, 20.59 359.76 M0.76 387.95 C4.72 382.52, 13.68 373.65, 21.55 365.39 M0.4 389.32 C4.72 385, 9.33 379.72, 21.45 365.46 M-1.22 394.63 C7.08 386.83, 12.76 380.77, 21.34 371.21 M0.37 395.5 C7.44 388.35, 14.44 380.54, 19.6 372.17 M-0.16 400.86 C8.08 395.86, 12.72 387.71, 21.89 377.91 M0.9 401.29 C6.63 396.42, 11.6 390.71, 21.18 378.36 M5.88 402.5 C11.53 398.04, 11.27 391.69, 18.77 385.02 M5.8 401.62 C10.6 397.33, 14.59 393.67, 20.73 385.58 M12.95 401.49 C16.63 398.37, 19.38 393.07, 21.39 389.65 M11.71 401.04 C15.04 397.21, 18.73 393.27, 20.72 390.37 M17.83 400.31 C18.36 399.22, 19.51 398.4, 20.25 396.79 M17.54 400.88 C18.07 399.92, 19.22 398.69, 20.69 396.98" stroke="#868e96" stroke-width="0.5" fill="none"/><path d="M-0.02 1.81 C5.88 -1.06, 13.68 -0.45, 20.79 -0.21 M0.14 -0.88 C7.08 0.61, 12.04 -0.98, 20.42 0.11 M19.2 0.15 C18.19 120.02, 17.06 237.55, 19.2 398.99 M20.29 0.5 C18.55 139.14, 18.58 278.44, 20.25 399.69 M20.18 399.4 C16.04 401.52, 12.4 399.06, 0.81 400.31 M19.1 400.99 C13.87 399.1, 6.58 400.01, 0.9 400.8 M-0.7 400.56 C-0.95 304.23, -1.54 206.81, -0.73 -0.44 M-0.55 400.46 C-1.96 250.13, -2.36 100.45, 0.42 0.2" stroke="#1e1e1e" stroke-width="1" fill="none"/></g><g stroke-linecap="round" transform="translate(200.00000000000006 121.60012531602598) rotate(270 9.999999999999957 200)"><path d="M0 0 C0 0, 0 0, 0 0 M0 0 C0 0, 0 0, 0 0 M0.47 6.67 C0.83 5.23, 2.46 3.68, 4.48 0.14 M-0.23 6.22 C1.53 4.56, 3.16 2.11, 5.14 0.15 M1.58 13.52 C4.9 9.57, 7.17 5.72, 11.51 -1.61 M-0.53 12.04 C1.7 9.33, 3.9 7.42, 10.93 -0.29 M1.84 19.34 C4.65 13.31, 5.54 9.03, 15.8 -0.25 M0.26 17.9 C4.83 13.05, 7.9 8.12, 16.3 0.39 M1.14 24.14 C6.7 19.46, 9.21 11.11, 22.36 -0.08 M0.3 23.64 C7.63 14.17, 14.91 5.85, 21.06 0.81 M1.26 31.48 C3.18 25.16, 8.52 22.1, 21.02 6.61 M-0.7 30.74 C3.56 25.99, 9.63 19.64, 20.54 6.16 M-0.02 35.5 C2.93 30.37, 8.66 28.04, 20.6 11.11 M-1.2 37.88 C6.25 30.76, 11.65 23.56, 20.18 13.43 M-0.23 41.3 C4.11 36.88, 10.57 30.97, 19.52 19.15 M0.99 42.29 C6.71 34.9, 12.84 27.65, 20.58 20.11 M0.04 48.96 C5.37 43.17, 9.19 35.74, 19.38 24.95 M-0.47 49.2 C7.67 41.13, 14.22 31.75, 21.72 25.53 M-0.02 53.99 C7.91 46.48, 15.56 36.55, 21.24 31.18 M1.09 53.64 C8.29 45.73, 14.49 38.26, 19.83 30.21 M-0.42 59.15 C7.36 53.52, 16.96 44.05, 20.43 37.49 M0.93 61.63 C5.29 54.77, 12.69 46.53, 20.87 37.78 M-1.55 66.87 C6.59 61.26, 8.75 53.36, 19.58 44.22 M0.38 67.98 C5.61 59.1, 13.98 52.35, 20.15 44.06 M0.12 71.32 C7.52 68.48, 10.24 60.18, 19.44 48.92 M-0.24 73.74 C8.5 63.61, 15.79 54.22, 19.83 48.93 M0.33 78.36 C7.82 73.78, 10.39 66.9, 19.18 54.37 M-0.72 79.53 C4.7 74.69, 9.47 68.11, 21.77 55.77 M1.84 86.08 C8.18 76.27, 11.45 70.2, 20.68 60.56 M0.5 85.43 C5.28 80.62, 9.65 75.32, 20.49 60.77 M-0.56 92.53 C7.21 81.34, 16.36 73.64, 19.34 69.15 M-0.04 92.1 C8.07 82.68, 15.26 73.4, 20.6 66.82 M-1.16 96.2 C8.51 88.81, 14.51 78.57, 21.1 75.33 M0.65 98.66 C6.41 90.73, 13.78 82.88, 20.44 74.66 M0.89 104.06 C7.7 97.63, 12.72 91.69, 21.3 80.18 M0.92 104.04 C8.62 93.47, 15.51 85.03, 19.56 80.73 M1.87 111.54 C6.79 103.27, 11.37 96.34, 20.93 86.79 M-0.63 110.43 C7.22 102.46, 14.23 92.35, 21.61 86.53 M0.38 115.01 C5.44 108.94, 11.08 102.23, 18.92 92.2 M0.34 115.03 C5.27 108.69, 12.21 102.06, 21.25 92.05 M-1.71 123.59 C6.25 113.65, 14.97 102.03, 22.34 96.65 M-0.47 121.32 C6.98 114.31, 11.98 107.03, 20.97 98.36 M-0.4 127.58 C7.78 120.66, 12.98 115.55, 22.68 103.58 M-0.56 128.81 C6.3 121.58, 12.84 114.1, 19.99 104.95 M-1.25 134.49 C8.6 126.76, 16.26 116.79, 20.12 111.69 M0.34 134.49 C6.6 127.8, 10.92 119.55, 21.15 111.19 M0.85 141.06 C6.54 132.08, 11.45 129, 22.38 115.33 M-0.9 140.17 C7.71 131.91, 14.7 122.68, 20.42 116.12 M0.55 145.73 C5.16 141.21, 10.67 134.24, 21.72 124.36 M0.71 146.37 C7.56 137.91, 15.39 128.39, 20.49 121.64 M-0.94 152.4 C5.11 144.12, 10.95 137.11, 21.77 128.57 M-0.1 151.47 C6.84 144.91, 15.43 135.34, 20.24 128.33 M-1.06 158.93 C9.35 149.8, 15.66 141.07, 21.85 133.72 M0.58 159.51 C6.03 151.2, 13.35 143.44, 21.67 134.88 M0.45 165.15 C3.96 156.66, 12.63 150.43, 21.19 141.54 M0.78 163.63 C5.6 159.93, 8.39 154.72, 20.78 141.41 M1.76 168.85 C5.61 164.6, 9.98 159.64, 21.85 146.2 M-0.46 171.45 C4.42 164.86, 9.14 158.2, 21.07 147.39 M1.86 178.25 C4.84 169.67, 9.81 168.24, 21.65 154.11 M0.37 176.89 C8.77 168.11, 15.91 159.63, 21.12 152.75 M1.51 183.84 C6.84 177.56, 9.42 168.53, 21.05 160.37 M0.9 183.36 C4.64 178.29, 7.75 173.34, 20.09 159.74 M-1.88 190.78 C4.85 179.71, 15 174.02, 19.42 164.8 M0.33 189.56 C7.53 179.77, 15.53 169.86, 20.65 164.31 M1.98 194.92 C8.91 187.95, 15.78 176.48, 19.35 171.91 M0.33 194.93 C7.32 185.56, 15.71 176.92, 19.81 171.51 M0.62 202.89 C2.88 194.9, 8.95 190.42, 21.42 175.46 M-0.04 200.98 C6.34 192.17, 14.05 184.56, 20.46 177.34 M1.58 208.46 C5.49 198.31, 15.74 192.67, 21.31 182.13 M1.15 207.18 C5.88 199.55, 12.3 194.01, 20.98 183.89 M1.44 212.41 C3.46 207.48, 10.4 205.35, 20.53 188.1 M0.29 214.08 C5.14 206.65, 11.04 199.92, 20.69 189.19 M0.67 218.95 C7.33 210.73, 12.88 204.75, 18.78 194.97 M-0.26 219.19 C5.59 212.34, 13.96 204.64, 20.75 194.61 M-0.09 223.77 C5.32 220.81, 11.5 215.99, 22.21 201.84 M0.7 226.35 C7.3 218.29, 14.45 210.36, 21.11 202.24 M0.24 230.02 C5.02 223.09, 13.27 214.35, 22.24 205.74 M0.14 231.1 C6.24 224.74, 11.4 217.95, 19.92 206.73 M2.02 236.79 C8.12 227.8, 16.43 221.49, 20.59 213.43 M0.25 236.58 C8.41 228.59, 16.38 219.8, 21.21 214.45 M1.91 242.91 C5.79 237.95, 11.39 232, 20.11 221.87 M0.09 244.62 C6.17 238.21, 11.12 231.44, 20.33 221.34 M-0.31 251.4 C3.04 245.66, 8.42 239.06, 21.08 226.23 M-0.96 249.64 C5.61 242.85, 11.45 237.05, 20.85 226.32 M-1.42 257.5 C7.77 248.22, 16.64 237.42, 21.44 231.92 M-0.31 256.01 C6.46 248.53, 13.27 240.15, 21.49 232.63 M1.47 260.66 C7.37 256.52, 11.98 245.34, 19.71 239.01 M0.8 261.44 C7.11 254.47, 13.67 245.21, 21.56 237.7 M1.8 269.03 C5.91 257.8, 13.67 252.9, 19.92 246.08 M0.72 268.84 C4.52 263.47, 10.3 258.09, 20.61 244.32 M0.54 275.25 C6.48 265.99, 15.02 259.07, 18.48 250.64 M1.02 273.48 C5.98 267.96, 10.52 261.88, 19.89 250.48 M1.06 280.89 C5.16 276.94, 9.03 269.98, 20.5 257.16 M-0.02 280.78 C4.02 274.16, 10.08 269.75, 21.25 256.73 M1.37 284.49 C5.71 277.75, 13.46 272.41, 20 261.1 M-0.51 285.79 C5.14 281.06, 10.71 274.79, 20.06 263.6 M-1.54 293.56 C6.85 285.6, 12.78 277.71, 22.8 269.34 M-0.05 292.51 C7.49 282.84, 15.48 273.45, 20.66 269.44 M-0.94 297.06 C7.94 287.72, 15.51 282.58, 19.51 276.02 M-0.27 297.75 C4.61 293.21, 9.89 286.44, 20.01 275.58 M0.74 305.17 C7.22 296.18, 12.94 289.09, 20.37 282.95 M0.81 304.3 C4.16 300.14, 10.51 292.98, 21.12 282.16 M-1.32 309.78 C8.52 300.91, 13.61 292.8, 19.54 287.66 M0.26 310.78 C6.15 304.11, 12.57 296.04, 20.02 287.51 M1.96 316.47 C6.31 309.92, 9.72 303.74, 19.37 295.4 M1.1 316.99 C6.53 309.72, 12.22 304.34, 20.58 293.59 M1.87 324.57 C7.2 312.81, 15.29 305.63, 21.26 299.63 M-0.74 323.35 C6.06 316.08, 11.69 310.46, 20.05 299.77 M-1.25 327.58 C6.04 321.15, 11.75 315.95, 22.63 305.76 M1.02 328.71 C7.89 321.76, 14.04 312.65, 20.68 306.04 M-1.04 337 C4.3 328.67, 12.41 322.3, 19.79 311.69 M0.65 335.52 C5.25 330.01, 11.98 322.78, 21.12 312.83 M1.75 342.76 C4.7 336.93, 7.75 329.77, 20.22 315.73 M-0.16 341.67 C7.81 332.99, 14.83 323.98, 21.41 318.38 M-0.46 349.25 C10.29 338.5, 15.1 326.85, 18.85 324.69 M0.66 347.89 C6.94 338.76, 15.44 331.38, 19.86 324.19 M-1.81 355.36 C5.88 345.29, 14.86 337.98, 20.88 330.34 M0.45 353.13 C4.89 347.48, 10.29 342.23, 20.48 328.78 M-0.17 358.89 C9.68 352.49, 13.83 343.84, 18.81 337.16 M1.25 358.4 C7.54 352.39, 13.23 344.69, 20.66 336.93 M-0.07 364.39 C3.26 358.77, 11.45 352.67, 19.29 342.81 M-0.52 365.93 C8.12 357.62, 16.08 348.34, 20.6 341.47 M-1.97 371.6 C4.65 362.77, 12.8 357.96, 19.35 346.19 M-0.63 373.02 C6.77 363.7, 12.93 357.72, 20.24 348.7 M2.13 379.47 C7.77 370.12, 13.54 363.27, 18.73 355.43 M-0.11 377.45 C7.81 370.46, 13.55 362.14, 20.14 353.75 M0.91 386.19 C5.45 376.09, 15 369.89, 22.73 360.31 M-0.35 384.81 C8.09 374.98, 15.91 365.23, 20.99 360.45 M-1.42 389.61 C6.59 381.97, 11.82 376.72, 19.15 368.13 M0.35 390.4 C7.9 381.82, 16.14 371.66, 21.19 366.47 M-0.09 395.09 C4.79 390.29, 13.6 380.46, 21.21 372.12 M0.43 396.37 C7.03 389.09, 12.39 380.54, 20.35 373.2 M2.35 402.42 C5.91 395.7, 11.53 390.02, 19.77 379.49 M1.84 402.04 C7.77 395.26, 13.15 387.62, 20.19 379.07 M8.32 401.82 C8.87 394.5, 13.15 391.44, 19.64 383.38 M6.96 401.33 C11.19 397.44, 14.32 393, 21.43 385.02 M13.07 402.48 C14.89 398.13, 17.58 393.9, 21.98 391.15 M11.64 401.12 C14.2 398.5, 16.17 395.62, 21.17 390.35 M17.25 400.48 C18.27 399.8, 18.93 398.3, 20.38 397.05 M17.29 400.82 C18.43 399.54, 19.03 398.84, 20.76 397.08" stroke="#868e96" stroke-width="0.5" fill="none"/><path d="M-1.16 -0.97 C6.49 -0.54, 14.58 -0.39, 20.26 1.98 M0.82 0.8 C7.38 -0.61, 16.13 0.29, 19.98 -0.83 M20.08 0.85 C17.35 102.2, 17.6 204.96, 20.55 399.44 M19.67 -0.1 C20.85 141.51, 21.4 282.77, 19.57 399.79 M20.51 401.4 C14.12 398.88, 6.38 400.25, 0.89 399.66 M20.75 399.29 C16.33 400.41, 12.86 401, -0.58 400.28 M-0.31 401.08 C0.5 295.67, 0.68 189.89, 0.85 0.98 M-0.01 400.04 C1.8 267.34, 2.64 134.32, -0.48 -0.45" stroke="#1e1e1e" stroke-width="1" fill="none"/></g><g stroke-linecap="round"><g transform="translate(330 411.600125316026) rotate(0 29.40336650001457 0)"><path d="M-0.58 -0.24 C9 -0.05, 48.71 0.41, 58.59 0.48 M1.32 -1.41 C10.63 -1.52, 48.11 -1.89, 57.53 -1.4" stroke="#1e1e1e" stroke-width="2" fill="none"/></g></g><mask/><g stroke-linecap="round"><g transform="translate(330 71.60012531602598) rotate(0 29.40336650001457 0)"><path d="M-0.22 0.48 C9.66 0.54, 48.64 0.05, 58.68 0.15 M-1.79 -0.32 C7.97 -0.01, 47.39 1.83, 57.66 1.77" stroke="#1e1e1e" stroke-width="2" fill="none"/></g></g><mask/><g stroke-linecap="round" transform="translate(310 11.60012531602598) rotate(0 10 220)"><path d="M0 0 C0 0, 0 0, 0 0 M0 0 C0 0, 0 0, 0 0 M-0.77 6.18 C1.67 3.96, 3.72 2.52, 4.63 0.42 M-0.11 6.19 C1.63 4, 3.15 2.59, 5.36 0.7 M1.01 10.47 C2.82 8.75, 9.17 1.49, 10.63 -1.34 M0.44 11.79 C2.7 9, 6.44 5.37, 10.99 0.64 M0.05 17.86 C2.96 13.09, 7.83 11.06, 14.53 1.48 M0.56 18.5 C3.47 14.78, 8.32 9.66, 15.65 1.16 M2.02 23.31 C9.23 15.78, 16.75 7.56, 19.72 -0.07 M0.72 24.21 C3.96 18.56, 8.6 14.62, 21.1 0.01 M0.03 30.76 C4.11 23.77, 13.13 15.37, 21.52 4.72 M-0.45 30.31 C6.76 22.55, 14.6 12.9, 20.31 5.7 M-0.4 35.26 C4.46 31.5, 9.35 23.47, 22.73 13.76 M-0.81 37.58 C6.98 27.75, 15.21 18.21, 20.13 12.47 M-0.82 42.55 C6.11 37.87, 11.09 31.63, 20.01 19.18 M0.25 43.51 C6.26 35.74, 13.75 27.84, 20.5 19.19 M-1.61 49.1 C8.11 38.9, 12.28 31.92, 21.43 25.35 M0.73 49.68 C8.03 41.69, 14.89 32.61, 20.59 24.65 M0.9 54.58 C8.89 46.07, 15.45 38.94, 18.77 32.86 M-0.51 53.61 C5.87 48.09, 10.78 42.82, 19.7 31 M-0.56 61.64 C7.25 51.09, 13.39 45.11, 22.34 34.97 M-0.13 61.93 C7.05 52.85, 14.49 42.99, 20.76 37.6 M-1.42 68.37 C6.71 61.18, 11.96 54.42, 21.99 41.45 M-0.84 68.21 C4.56 60.15, 10.45 54.85, 19.9 44.14 M-0.9 72.32 C9.55 64.75, 16.43 54.51, 21.96 51 M-0.51 72.33 C5.21 66.88, 9.93 61.38, 19.96 50.5 M-1.81 78.53 C6.24 70.19, 14.01 60.55, 21.14 55.27 M0.78 79.92 C7.5 70.34, 16.11 62.66, 21.4 56.14 M0.34 83.95 C3.1 79.78, 9.54 75.37, 21.39 62.91 M0.15 84.17 C8.04 76.78, 15.11 67.81, 21.16 61.52 M-1.65 93.3 C6.06 86.28, 10.36 80.25, 22.33 68 M-0.4 90.97 C7.46 83.53, 13.51 75.37, 20.19 67.87 M0.11 99.48 C6.07 92, 9.98 86.23, 22.39 73.84 M-0.56 98.82 C6.58 88.74, 13.31 81.75, 21.04 74.44 M0.97 103.58 C8.83 97.13, 13.59 89, 21.61 81.45 M-0.78 104.12 C4.76 98.46, 8.61 94.39, 21.32 80.25 M-0.07 110.94 C8.28 100.67, 13.53 92.12, 21.98 85.54 M0.62 110.68 C8 101.4, 16.37 91.14, 20.63 85.58 M-1.42 115.6 C5.78 106.83, 12.07 101.89, 19.65 90.55 M0.91 115.45 C6.19 109.31, 10.96 102.86, 21.46 91.27 M2 120.04 C7.06 112.24, 15.13 105.07, 19.17 99.88 M0.63 121.75 C5.07 115.28, 10.48 110.39, 19.99 99.36 M1.69 127.73 C5.67 120.93, 11.09 114.41, 21.75 103.87 M-1.01 129.1 C8.73 118.3, 16.52 108.73, 21.02 104.47 M-0.21 135.08 C7.71 124.69, 17.74 116.02, 21.55 111.85 M0.81 134.59 C7.48 126.18, 16.29 117.37, 20.84 111.2 M1.39 139.48 C5.38 133.26, 6.91 128.24, 20.51 116.59 M-0.57 140.27 C5.62 133.52, 11.4 126.76, 20.75 115.96 M1.38 147.75 C8.9 135.74, 16.24 129.86, 21.37 122.09 M0.15 145.03 C7.25 138.17, 14.3 129.46, 20.62 122.13 M1.43 151.96 C6.05 146.44, 8.01 141.29, 18.5 128.03 M-0.1 151.73 C7.99 144.29, 15.27 134.98, 20.43 129.92 M0.85 157.87 C6.33 149.64, 14.44 145.56, 22.18 133.83 M0.67 159.03 C5.69 150.6, 11.58 144.34, 21.11 133.73 M0.85 164.93 C2.76 158.18, 8.25 155.85, 18.88 142.61 M0.45 164.81 C6.86 155.4, 14.18 148.39, 19.5 141.58 M0.86 170.35 C3.65 165.7, 10.79 158.66, 22.12 145.7 M0.08 171.54 C5.4 164.3, 12.45 157.49, 21.78 146.9 M1.31 177.51 C5.83 170.57, 7.76 167.04, 21.46 154.4 M0.78 176.15 C6.87 167.88, 14.04 161.08, 21.11 153.74 M0.71 183.77 C5.35 175.88, 12.59 168.73, 21.33 160.46 M-0.24 183.13 C6.81 176.11, 12.11 167.54, 21.12 158.58 M-1.57 188.95 C5.97 183.08, 10.68 179.81, 21.33 164.09 M-0.35 188.46 C7.14 181.77, 12.25 175.24, 20.76 165.75 M-0.99 195.31 C9.31 184.81, 15.91 177.9, 20.52 169.97 M-0.53 194.91 C4.73 189.59, 11.11 183.02, 21.29 170.79 M0.43 199.61 C6.04 196.36, 8.32 189.47, 20.22 175.73 M-0.53 201.49 C4.53 195.82, 7.85 192.25, 21.64 176.3 M0.97 205.53 C4.6 201.05, 11.01 196.84, 21.07 183.73 M0.65 207.29 C3.32 202.53, 7.42 198.27, 20.16 183.12 M0.19 211.5 C4.38 209.24, 10.98 202, 21.82 189.51 M0.35 212.59 C6.09 206.8, 11.5 200.9, 19.97 190.13 M-2.21 219.12 C5.8 212.79, 9.5 206.77, 19.64 193.86 M-0.24 218.76 C5.36 211.4, 12.72 204.77, 19.95 195.69 M1.87 225.24 C7.51 215.64, 13.03 210.07, 22.4 202.74 M0.77 225.64 C7.24 218.34, 12.7 209.87, 19.62 201.01 M1.24 229.89 C5.55 223.67, 11.74 219.1, 19.51 207.86 M-1.07 230.88 C6.81 225.52, 11.71 218.57, 20.58 207.98 M0.25 236.82 C6.56 230.78, 8.11 226.32, 18.91 214.36 M0.88 237.84 C5.98 231.25, 11.85 224.29, 20.18 214.32 M-0.23 245.26 C5.97 237.85, 11.35 229.41, 21.94 221.36 M-0.01 244.74 C7.65 234.59, 16.35 225.13, 20.96 219.49 M0.08 250.39 C7.27 239.61, 16.59 230.66, 19.58 225.93 M-0.14 250.47 C5.44 244.73, 9.44 238.3, 21.58 225.98 M1.1 255.32 C8.43 247.75, 16.92 237.82, 20.77 231.1 M1.15 256.03 C8.55 245.99, 16.12 238.17, 19.7 232.8 M-1.29 263.16 C9.12 252.97, 14.87 245.15, 19.23 238.37 M0.56 261.85 C7.21 254.55, 12.69 248.02, 21.46 237.23 M-0.42 269.48 C3.31 261.99, 8.84 258.74, 22.5 243.46 M0.27 267.72 C8.69 258.64, 15.16 249.83, 21.11 244.05 M-1.85 274.03 C5.26 268.99, 13.02 262.07, 18.7 252.77 M-0.45 273.87 C4.75 268.26, 11.23 262.18, 20.47 251.36 M-0.49 281.31 C6.27 272.16, 16.81 263.02, 20.91 255.42 M0.25 280.88 C4.61 275.95, 7.86 270.69, 19.84 255.95 M-0.34 284.49 C4.33 281.57, 12.56 272.8, 19.39 263.28 M-0.28 286.99 C7.85 277.77, 14.49 268.74, 20.92 262.73 M1.81 293.5 C9.43 282.37, 17.27 275.03, 20.42 267.38 M-0.33 293.59 C6.09 286.2, 10.23 280.18, 20.24 268.52 M-0.83 299.42 C3.27 293.12, 9.85 287.58, 19.35 273.74 M-0.33 298.98 C7.84 289.79, 15.2 282.18, 20.84 275.26 M0.03 306.35 C3.89 298.18, 9.76 294.7, 19.4 279.83 M0.79 305.55 C8.36 295.67, 16.41 286.51, 19.68 281.83 M-1.45 311.81 C5.51 306.22, 11.57 300.39, 19.95 286.57 M-0.98 311.66 C7.43 302.11, 16.66 293.83, 20.6 287.45 M-0.96 318.8 C5.52 309.7, 10.44 306.03, 20.82 294.38 M0.24 316.99 C5.95 311.17, 10.77 306.22, 21.19 293.03 M0.27 323.78 C5.09 317.76, 9.84 309.46, 21.14 299.59 M-0.94 323.92 C5.23 315.79, 11.81 309.46, 20.27 299.08 M2.29 329.16 C6.09 322.22, 9.9 319.1, 20.31 306.28 M0.34 329.44 C8.15 318.58, 16.89 309.72, 21.52 304.82 M-0.55 335.08 C5.08 327.3, 9.54 323.42, 20.87 310.73 M0.78 336.23 C7.23 325.85, 16.55 317.52, 20.93 312.03 M-0.77 339.88 C8.38 332.08, 13.69 325.91, 20.78 317.42 M0.42 342.53 C8 332.92, 14.73 325.12, 21.75 318.46 M-1.49 348.09 C8.2 340.13, 14.91 332.94, 21.68 323.05 M-0.48 347.58 C6.25 339.44, 12 332.82, 21.35 323.2 M-0.12 354.49 C5.05 346.82, 11.81 340.5, 19.75 329.03 M-0.51 352.93 C6.43 346.89, 12.33 339.93, 20.69 330.54 M-1.53 360.55 C8.91 350.33, 16.81 342.8, 18.74 337.23 M0.32 360.32 C7.33 350.73, 15.98 341.91, 19.98 335.1 M-1.05 366.21 C6.6 359.69, 8.11 353.42, 20.74 342.49 M0.26 364.87 C7.86 357.48, 16.38 346.81, 20.12 341.7 M-1.65 370.35 C4.35 366.44, 8.36 361.28, 22.53 348.6 M-0.76 372.85 C4.34 367.23, 7.8 362.67, 21.63 348.75 M-1.61 378.82 C6.12 373.4, 8.7 365.03, 19.84 356.3 M-0.2 377.14 C7.31 369.03, 14.88 362.59, 21.53 353.64 M1.73 384.46 C7.69 374.96, 14.01 369.08, 22.16 359.82 M-0.01 384.6 C6.4 376.68, 12.61 367.8, 20.81 360.54 M-1.18 391.53 C5.76 385.33, 7.47 380.46, 21.79 366.58 M0.85 389.87 C7.39 381.12, 13.72 373.41, 20.09 365.62 M0.87 395.52 C7.62 388.75, 12.83 380.63, 20.67 373.72 M0.02 396.59 C6.29 388.02, 13.53 381.56, 21.05 372.87 M-1.22 403.64 C5.69 395.22, 12.25 390.07, 22.64 380.08 M-0.8 403.22 C7.72 392.92, 16.75 384.85, 21.34 377.48 M-0.69 406.78 C4.26 401.02, 11.43 398.03, 21.73 386.23 M1.09 408.41 C8.24 399.67, 16.67 390.42, 21.53 385.24 M1.44 415.58 C5.51 407.08, 12.95 399.28, 21.03 390.93 M0.27 414.43 C6.54 408.13, 12.24 399.5, 20.5 390.36 M-1.47 421.61 C6.14 413.99, 15.93 403.61, 21.66 398.91 M0.03 421.71 C4.43 414.66, 9.97 411.09, 21.15 396.68 M-1.39 425.41 C4.92 421.92, 11.32 414.16, 21.61 401.37 M-0.76 426.29 C7.26 418.79, 13.08 411.78, 19.82 403.47 M0.64 432.5 C5.54 425.87, 10.81 419.69, 20.05 407.94 M-0.7 433.17 C4.5 427.18, 9.49 422.55, 21.18 408.82 M1.39 437.83 C7.5 430.27, 16.98 421.13, 21.58 414.76 M-0.42 438.17 C4.43 433.97, 7.95 427.84, 21.19 415.06 M3.02 442.57 C6.33 436.61, 11.76 429, 19.11 420.89 M1.71 442.05 C10.47 433.6, 17.64 425.56, 20.54 420.57 M6.72 440.59 C10.17 439.89, 13.64 434.01, 18.83 428.12 M7.72 442.43 C10.79 438.66, 12.48 435.72, 20.25 426.97 M13.06 442.33 C15.05 438.24, 17.93 436.59, 19.66 433.6 M13.11 441.57 C15.35 438.67, 18.5 436.48, 20.84 433.32" stroke="#868e96" stroke-width="0.5" fill="none"/><path d="M0.26 1.98 C7.49 0.31, 9.51 1.67, 21.59 -0.95 M-0.02 -0.83 C3.99 -0.73, 8.97 0.04, 20.75 -0.93 M20.48 -0.49 C18.98 102.08, 19.32 202.56, 19.82 439.47 M19.62 -0.18 C21.26 129.31, 20.8 258.66, 20.35 440.33 M20.89 439.66 C13.08 438.23, 12.11 441.53, -1.41 440.71 M19.42 440.28 C13.21 439.54, 7.66 439.88, 0.95 439.2 M0.75 440.86 C1.74 287.16, 2.22 136.26, 0.07 -0.72 M-0.42 439.6 C-1.25 286.25, -1.58 133.6, 0.22 -0.44" stroke="#1e1e1e" stroke-width="1" fill="none"/></g><g stroke-linecap="round" transform="translate(390 11.60012531602598) rotate(0 9.700520833333343 220)"><path d="M0 0 C0 0, 0 0, 0 0 M0 0 C0 0, 0 0, 0 0 M-0.02 5.93 C1.96 4.63, 2.63 2.78, 5.37 0.21 M-0.21 6.06 C0.69 5.37, 2.54 3.94, 5.3 0.45 M-1.13 13.4 C5.11 6.29, 7.94 1.79, 10.7 -1.59 M-0.61 12.79 C4.08 8.03, 8.84 3.09, 10.06 -0.31 M-0.71 17.09 C3.72 15.58, 5.15 12.3, 14.75 -0.92 M-0.68 19.36 C4.02 14.26, 7.8 10.04, 16.19 -0.07 M1.87 24 C6.5 18.94, 8.38 12.82, 18.94 -0.95 M-0.64 23.58 C5.04 18.29, 11.78 10.59, 20.4 0.48 M-1.82 30.7 C9.06 20.13, 16 11.04, 21.73 8.84 M-0.78 31.34 C4.29 25.04, 9.15 18.69, 19.69 7 M-0.5 37.35 C7.59 25.85, 17.96 19.44, 22.34 12.47 M-1.04 37.05 C6.82 27.95, 14.22 19.28, 20.46 13.45 M0.75 44.1 C5.11 38.7, 9.39 31.53, 20.73 17.99 M-0.23 43.19 C8.21 33.95, 14.82 25.49, 20.86 18.33 M0.81 47.05 C3.85 41.55, 12.2 36.15, 20.96 24.65 M0.84 49.7 C5.25 43.07, 9.04 37.55, 20.89 25.19 M1.34 54.74 C7.16 48.36, 11.98 40.58, 19.51 30.89 M0.85 53.88 C7.56 46.93, 12.77 39.38, 21.26 32.05 M-0.2 59.96 C4.92 55.15, 14.56 43.92, 21.57 38.39 M-0.43 61.44 C4.27 54.57, 9.44 50.47, 20.32 36.75 M0.26 68.18 C3.85 63.4, 10.01 55.29, 19.86 44.52 M-0.65 66.46 C7.73 58.3, 14.47 50.37, 21.54 42.85 M1.74 73.58 C6.5 65.99, 12.72 61.84, 19.62 50.14 M0.04 72.71 C3.89 68.51, 8.2 64.34, 21.1 48.74 M-1.58 79.09 C6.27 69.67, 15.33 62.28, 21.51 56.02 M-0.15 79.05 C5.78 74.1, 10.56 68.25, 19.4 55.51 M-1.45 84.8 C5.87 79.49, 11.68 74.18, 21.83 62.95 M0.85 85.29 C7.34 77.2, 14.3 69.62, 19.92 62.33 M1.39 91.79 C6.69 84.66, 12.82 78.97, 20.83 67.63 M0.61 91.32 C5.8 84.37, 10.95 78.7, 20.17 67.85 M0.11 98.61 C2.36 94.53, 9.94 87.93, 21.54 75.26 M-0.37 96.99 C6.06 90.23, 13.62 82.85, 21.14 74.02 M2.01 105.22 C7.5 96.14, 16.62 87.08, 18.8 79.22 M0.28 103.5 C5.89 97.51, 13.07 89.85, 20.92 79.26 M0.88 109.12 C6.53 99.98, 16.2 92.07, 22.07 85.63 M-0.34 110.72 C4.21 104.49, 8.63 99.02, 20.17 86.34 M-0.25 113.69 C6.02 109, 11.05 100.66, 19.72 93.29 M1.14 115.13 C5.3 109.23, 10.42 103.81, 21.05 91.7 M-0.01 120.09 C5.21 116.12, 7.29 113.46, 19.32 97.75 M-0.07 120.92 C4.6 116.75, 8.41 112.54, 20.08 98.9 M0.06 127.64 C7.26 118.86, 15.98 110.3, 22.49 103.72 M0.56 127.85 C8.8 117.8, 16.99 109.15, 21.65 104.43 M-0.15 133.89 C8.83 126.36, 14.92 119.42, 21.86 108.92 M-0.21 134.62 C5.21 129.4, 8.88 124.65, 19.63 110.88 M0.95 138.61 C5.52 129.98, 14.78 123.08, 19.98 116.5 M-0.48 140.3 C3.8 135.42, 8.72 129.94, 20.85 116.79 M1.49 144.26 C7.88 139.15, 13.99 130.26, 21.54 123.08 M0.27 146.14 C5.14 140.16, 9.97 134.62, 19.97 122.02 M1.13 151.8 C2.9 146.73, 7.49 140.56, 21.68 130.75 M0.76 152.73 C5.52 146.48, 9.92 142.17, 20.43 129.16 M-0.08 157.1 C7.99 153.02, 14.1 143.07, 20.17 136.3 M-0.58 157.87 C4.25 152.53, 10.96 145.12, 19.24 136.11 M-1.43 163.02 C3.98 160.64, 7.15 155.96, 21.7 139.23 M-0.69 163.94 C6.47 156.97, 13.57 148.25, 19.89 141.5 M-1.27 171.38 C5.86 164.28, 11.27 158.11, 20.16 145.76 M-1.02 171.27 C4.14 166.45, 9.49 160.84, 19.25 148.02 M1.86 175.45 C7.16 167.79, 16.21 160.2, 21.46 153.3 M-0.05 176.04 C7.78 168.41, 16.09 159.45, 21.07 152.32 M-1.82 183.73 C2.47 179.79, 9.17 174.27, 20.57 158.26 M0.36 183.36 C5.52 174.98, 13.04 167.9, 19.54 160.16 M1.56 188.41 C8.69 182.58, 14.15 172.56, 20.33 164.47 M0.44 189.2 C4.34 184.26, 10.38 177.89, 20.84 166.21 M1.79 193.4 C5.59 189.83, 9.65 182.58, 19.75 171.25 M-0.63 195.71 C6.47 188.49, 12.92 180.6, 19.98 171.52 M0.83 202.33 C3.73 194.83, 10.95 186.5, 18.28 177.36 M0.22 200.65 C5.06 195.41, 12.06 187.41, 19.74 178.81 M-0.28 207.02 C8.23 200.46, 15.16 190.57, 18.66 185.53 M-0.55 207.21 C5.1 200.99, 11.21 193.25, 20.13 184.39 M-0.5 215.27 C9.04 204.82, 17.52 194.62, 19.94 190.21 M0.46 213.19 C5.1 208.25, 9.49 202.26, 20.01 189.31 M0.1 219.34 C6.19 210.9, 14.26 200.37, 20.26 198.04 M-0.89 218.83 C6.15 212.77, 11.23 205.93, 20.58 197.16 M0.64 223.92 C6.62 217.6, 17.3 208.4, 21.21 203.89 M0.64 226.19 C5.25 218.49, 11.36 210.3, 20.25 201.49 M-0.34 230.21 C5.15 226.46, 8.79 220.2, 20.07 206.84 M0.51 232.57 C5.76 225.66, 12.3 217.95, 19.58 209.22 M1.99 236.33 C5.72 229.45, 12.42 221.9, 20.64 214.67 M-0.05 238.31 C6.11 230.79, 12.75 222.63, 20.74 214.43 M-0.24 245.15 C5.43 236.26, 14.75 229.52, 22.28 219.62 M-0.48 244.01 C8.07 234.55, 16.38 224.58, 21.1 219.57 M-0.77 248.7 C7.66 240.72, 12.49 234.02, 18.72 226.91 M0.62 250.3 C6.06 242.15, 13.17 235.59, 20.78 227.27 M1.08 256.27 C7.62 248.51, 11.55 241.63, 22.36 230.69 M0.36 255.3 C7.09 248.14, 13.89 239.19, 21.46 231.75 M0.65 262.33 C2.75 258.8, 7.37 252.09, 20.54 238.1 M0.51 261.95 C3.36 258.35, 8.59 251.95, 19.35 238.2 M-1.12 267.08 C8.07 259.55, 17.96 248.62, 22.41 245.72 M0.93 267.89 C7.35 259.2, 16.45 249.47, 20.64 244.63 M-0.81 276.16 C8.77 267.44, 13.98 258.48, 19.87 251.37 M-0.78 274.62 C5.71 268.75, 11.19 262.25, 21.13 251.01 M-1.58 281.2 C7.01 274.26, 11.75 265.94, 18.49 258.55 M0.17 281.31 C5.59 273.38, 12.46 264.28, 19.69 257.13 M-0.94 287.75 C10 276.14, 14.83 268.78, 21.73 264.47 M0.69 286.22 C6.31 278.35, 13.11 271.7, 21.16 262.01 M1.55 291.37 C9.54 283.54, 15.23 273.02, 19.26 268.08 M0.68 292.11 C4.38 286.49, 8.82 281.56, 19.28 269.23 M-0.88 298.03 C9.56 288.1, 14.85 278.97, 21.78 274.52 M0.53 298.01 C5.71 292.97, 10.49 287.22, 20.14 274.85 M-1.23 303.97 C5.11 299.79, 10.15 290.31, 22.03 282.9 M0.76 304.45 C5.32 298.95, 8.1 294.8, 19.82 280.49 M0.17 312.08 C7.08 305.38, 10.73 297.27, 21.65 286.78 M-0.59 311.28 C7.84 304.03, 13.61 295.6, 19.84 287.23 M-0.13 315.99 C4.88 312.16, 11.59 304.95, 19.41 294.18 M1.06 317.04 C8.46 309.09, 15.95 299.01, 20.07 293 M-0.37 324.06 C6.4 313.33, 14.94 306.62, 19.56 299.61 M-0.36 322.38 C8.82 313.15, 15.4 304.77, 19.65 299.92 M1.24 327.82 C6.01 323.3, 11.85 315.72, 22.61 304.49 M-0.06 327.88 C6.64 321.25, 13.28 314.18, 20.45 306.2 M-0.45 333.79 C3.85 330.2, 11.53 321.58, 22.38 313 M-0.76 335.24 C6.78 328.57, 13.46 320.24, 20.7 311.26 M1.28 339.94 C4.54 336.39, 9.52 330.63, 20.82 316.51 M0.77 341.07 C7.18 333.3, 14.31 326.68, 20.44 317.58 M1.3 347.71 C5.81 343.2, 10.22 336.38, 20.28 325.59 M0.59 346.34 C8.4 337.47, 16.67 328.71, 20.46 324.12 M-1.06 353.99 C6.45 346.73, 12.58 337.2, 19.82 330.05 M0.57 353.73 C8.04 345.22, 14.41 338.03, 21.16 329.67 M0.83 359.62 C8.81 352.12, 14.22 342.56, 22.03 335.37 M-0.24 359.48 C8.23 350.67, 14.28 341.45, 20.08 336.71 M1.86 365.2 C3.1 359.34, 9.58 355.44, 22.05 342.54 M0.09 366.57 C8.24 356.46, 14.68 348.08, 19.45 342.58 M0.08 371.48 C6.68 363.72, 15.2 357.41, 18.4 348.48 M-0.17 372.54 C6.55 364.23, 15.98 355.26, 19.74 349.31 M0.94 379.45 C3.97 370.7, 10.81 366.83, 21.24 354.05 M0.44 376.87 C7.24 371.55, 13.22 363.43, 20.51 355 M1.59 382.32 C9.17 374.71, 16.4 366.17, 20.72 360.14 M-0.45 384.41 C4.51 376.87, 10.87 371.87, 19.3 361.24 M1.72 389.99 C4.51 383.92, 11.7 378.22, 21.73 368.02 M0.38 389.19 C3.51 385.03, 7.85 379.56, 21.19 366.91 M0.55 396.84 C2.94 391.92, 9.13 386.96, 20.99 371.23 M-0.61 395.6 C4.69 391.31, 10.23 385.26, 20.32 373.39 M-0.3 402.2 C5.79 397.64, 12.8 391.44, 21.84 380 M-0.26 402.19 C6.69 396.55, 12.21 388.03, 19.41 378.35 M-0.57 406.35 C8.33 401.65, 13.99 395.41, 22.51 385.26 M0.17 409.14 C7.8 400.54, 16.03 391.3, 20.69 385.21 M-1.03 414.57 C4.46 408.72, 9.54 403.86, 20.46 390.68 M-0.03 415.56 C4.76 407.93, 10.77 401.52, 20.73 390.44 M-1.33 422.3 C7.07 413.61, 12.29 409.8, 19.18 397.1 M-0.28 420.16 C7.22 414.09, 13.64 405.1, 20.01 397.48 M0.29 427.21 C6.36 420.16, 9.96 415.09, 21.18 402.36 M0.26 426.57 C4.1 422.15, 9.09 416.11, 20.44 403.84 M-0.7 433.22 C4.51 427.07, 11.74 417.44, 18.87 409.75 M-0.45 432.81 C5.13 427.64, 11.15 420.48, 20.9 409.02 M-0.31 438.9 C5.81 433.56, 9.94 428.08, 18.82 415.99 M0.15 439.06 C6.3 430.19, 14.66 422.86, 20.14 415.8 M1.63 442.29 C9.24 432.09, 14.71 425.87, 22.05 423.32 M3.49 441.82 C9.11 435.79, 13.17 429.27, 19.66 421.72 M7.05 443.43 C10.88 437.32, 12.63 435.45, 18.87 427.88 M8.07 441.85 C11.08 437.36, 15.29 432.65, 21.17 426.86 M12.48 441.11 C14.67 440.26, 16.08 437.73, 21.21 434.77 M12.74 441.75 C15.2 440.42, 17.62 437.11, 20.33 433.38" stroke="#868e96" stroke-width="0.5" fill="none"/><path d="M1.8 0.28 C3.9 1.41, 12.77 -1.11, 17.87 0.82 M-0.41 -0.68 C6.17 0.23, 12.81 -0.74, 18.73 -0.69 M19.94 0.51 C21.34 92.34, 20.28 185.31, 19.34 440.43 M19.7 0.05 C17.57 108.35, 18.07 216.78, 19.14 440.2 M17.48 438.26 C15.21 441.43, 5.79 440.65, 0.4 441.75 M19.03 439.4 C12.51 439.78, 5.58 439.28, 0.44 439.38 M0.32 439.02 C-0.84 324.88, -1.58 209.08, 0.49 0.75 M0.4 439.62 C1.93 293.08, 2.08 145.04, 0.19 0.48" stroke="#1e1e1e" stroke-width="1" fill="none"/></g><g stroke-linecap="round" transform="translate(45.25086860666522 10) rotate(0 14.282437314387465 61.03825212202641)"><path d="M7.53 -0.52 L26.12 -0.77 L25.94 2.56 L26.76 8.01 L28.04 115.29 L25.13 119.85 L20.9 121.24 L3.53 123.09 L3.73 119.84 L-0.24 113.54 L-1.73 8.32 L3.58 2.16 L7.62 1.14" stroke="none" stroke-width="0" fill="#2f9e44"/><path d="M7.14 0 M7.14 0 C13.45 0.78, 15.78 1.16, 21.42 0 M7.14 0 C10.85 -0.58, 14.55 0.53, 21.42 0 M21.42 0 C24.6 1.84, 30 1.59, 28.56 7.14 M21.42 0 C26.45 1.89, 26.39 0.98, 28.56 7.14 M28.56 7.14 C27.24 47.45, 28.96 86.41, 28.56 114.94 M28.56 7.14 C28.42 44.11, 28.81 79.36, 28.56 114.94 M28.56 114.94 C28.16 119.61, 27.79 121.91, 21.42 122.08 M28.56 114.94 C27.28 121.01, 26.96 123.72, 21.42 122.08 M21.42 122.08 C17.31 123.02, 11.33 121.7, 7.14 122.08 M21.42 122.08 C18.07 121.25, 13.72 121.38, 7.14 122.08 M7.14 122.08 C0.79 122.68, -0.84 120.14, 0 114.94 M7.14 122.08 C1.97 123.97, -0.27 120.85, 0 114.94 M0 114.94 C-2.65 88.38, -2.52 63.72, 0 7.14 M0 114.94 C0.42 83.61, -0.59 54.29, 0 7.14 M0 7.14 C1.43 2.29, 3.02 -0.08, 7.14 0 M0 7.14 C1.46 3.15, 0.84 1.6, 7.14 0" stroke="#1e1e1e" stroke-width="1" fill="none"/></g><g stroke-linecap="round" transform="translate(347.9091745277178 10.137746710526358) rotate(0 14.282437314387465 61.03825212202641)"><path d="M9.05 -0.75 L26.11 1.53 L26.05 2.11 L30.49 7.18 L27.35 116.28 L25.47 118.44 L20.72 121.97 L4.39 119.94 L2.78 118.47 L0.86 114.99 L1.46 6.18 L1.18 1.3 L6.76 1.92" stroke="none" stroke-width="0" fill="#2f9e44"/><path d="M7.14 0 M7.14 0 C11.11 -1, 16.13 -0.19, 21.42 0 M7.14 0 C9.97 -0.39, 13.74 -0.15, 21.42 0 M21.42 0 C26.57 0.84, 29.91 1.94, 28.56 7.14 M21.42 0 C25.51 -0.42, 30.52 1.73, 28.56 7.14 M28.56 7.14 C27.23 31.27, 28.47 56.57, 28.56 114.94 M28.56 7.14 C30.22 46.17, 28.86 83.14, 28.56 114.94 M28.56 114.94 C26.95 119.71, 24.74 120.41, 21.42 122.08 M28.56 114.94 C28.54 118.37, 25.31 120.46, 21.42 122.08 M21.42 122.08 C17.96 123.23, 16.76 120.96, 7.14 122.08 M21.42 122.08 C17.41 122, 13.76 121.37, 7.14 122.08 M7.14 122.08 C2.71 123.58, 1.68 118.97, 0 114.94 M7.14 122.08 C3.08 123.58, -1.88 119.77, 0 114.94 M0 114.94 C-0.75 87.04, 0.14 61.03, 0 7.14 M0 114.94 C-0.06 85.29, 0.4 56.73, 0 7.14 M0 7.14 C0.41 1.28, 3.7 -1.28, 7.14 0 M0 7.14 C-0.01 0.46, 4.28 -1.84, 7.14 0" stroke="#1e1e1e" stroke-width="1" fill="none"/></g><g stroke-linecap="round" transform="translate(347.0806383435073 349.5045230263157) rotate(0 14.282437314387465 61.03825212202641)"><path d="M5.55 -0.42 L25.79 -1.11 L26.69 1.87 L29.42 5.47 L28.89 116.44 L28.46 119.57 L22.03 123.38 L2.38 121.69 L0.85 121.85 L-1.1 115.02 L-0.59 8.12 L2.47 1.15 L5.84 -1.1" stroke="none" stroke-width="0" fill="#2f9e44"/><path d="M7.14 0 M7.14 0 C9.83 0.34, 12.76 0.98, 21.42 0 M7.14 0 C11.1 -0.45, 13.91 -0.11, 21.42 0 M21.42 0 C25.17 0.16, 29.58 3.49, 28.56 7.14 M21.42 0 C27.63 -1.75, 28.97 1.66, 28.56 7.14 M28.56 7.14 C27.34 48.4, 30.5 90.83, 28.56 114.94 M28.56 7.14 C30.5 37.74, 28.94 68.14, 28.56 114.94 M28.56 114.94 C27.38 118.54, 27.3 122.13, 21.42 122.08 M28.56 114.94 C27.35 117.52, 27.24 122.4, 21.42 122.08 M21.42 122.08 C16.84 123.35, 13.7 122.55, 7.14 122.08 M21.42 122.08 C15.7 121.62, 9.34 121.41, 7.14 122.08 M7.14 122.08 C1.56 121.58, -1.89 118.38, 0 114.94 M7.14 122.08 C4.17 123.07, 1.51 117.66, 0 114.94 M0 114.94 C-0.26 84.14, -1.97 54.85, 0 7.14 M0 114.94 C-0.24 78.55, 0.57 41.64, 0 7.14 M0 7.14 C1.06 2.05, 2.25 -1.21, 7.14 0 M0 7.14 C-0.48 3.55, 0.57 0.27, 7.14 0" stroke="#1e1e1e" stroke-width="1" fill="none"/></g><g stroke-linecap="round" transform="translate(44.245523211928344 347.2224506578947) rotate(0 14.282437314387465 61.0382521220264)"><path d="M7.43 -1.19 L23.13 -0.44 L27.55 0.48 L29.3 5.25 L28.74 114.67 L26.1 121.35 L21.1 121.95 L2.81 121.22 L2.81 118.72 L0.24 113.65 L-1.38 7.24 L3.15 2.6 L6.63 -1.05" stroke="none" stroke-width="0" fill="#2f9e44"/><path d="M7.14 0 M7.14 0 C10.68 0.51, 15.29 -1.2, 21.42 0 M7.14 0 C11.46 -0.11, 14.41 -0.51, 21.42 0 M21.42 0 C28.17 -0.17, 30.38 2.14, 28.56 7.14 M21.42 0 C24.35 -0.19, 28.49 1.03, 28.56 7.14 M28.56 7.14 C27.74 45.03, 26.71 84.77, 28.56 114.94 M28.56 7.14 C29.43 44.12, 28.35 81.46, 28.56 114.94 M28.56 114.94 C26.63 121.24, 25.9 121.96, 21.42 122.08 M28.56 114.94 C27.7 118.63, 24.74 124.18, 21.42 122.08 M21.42 122.08 C16.93 120.7, 10.14 122.49, 7.14 122.08 M21.42 122.08 C15.55 122.25, 10.19 121.71, 7.14 122.08 M7.14 122.08 C2.61 123.07, 1.32 118.94, 0 114.94 M7.14 122.08 C0.5 120.57, 0.18 121.13, 0 114.94 M0 114.94 C0.73 88.95, 1.71 62.94, 0 7.14 M0 114.94 C-0.26 78.37, -0.35 41.16, 0 7.14 M0 7.14 C-0.34 1.94, 4.16 -1.92, 7.14 0 M0 7.14 C-0.94 4.18, 2.45 -1.89, 7.14 0" stroke="#1e1e1e" stroke-width="1" fill="none"/></g></svg>