<svg version="1.1" xmlns="http://www.w3.org/2000/svg" viewBox="0 0 844.0637459035961 362.1693815559496" width="844.0637459035961" height="362.1693815559496">
  <!-- svg-source:excalidraw -->
  
  <defs>
    <style class="style-fonts">
      @font-face {
        font-family: "Virgil";
        src: url("https://excalidraw.com/Virgil.woff2");
      }
      @font-face {
        font-family: "Cascadia";
        src: url("https://excalidraw.com/Cascadia.woff2");
      }
      @font-face {
        font-family: "Assistant";
        src: url("https://excalidraw.com/Assistant-Regular.woff2");
      }
    </style>
    
  </defs>
  <rect x="0" y="0" width="844.0637459035961" height="362.1693815559496" fill="#ffffff"></rect><g stroke-linecap="round" transform="translate(155.49346923828125 83.3186255517337) rotate(0 124.90087890625 17.01861572265625)"><path d="M8.51 0 C88.5 -2.53, 166.2 -0.9, 241.29 0 M8.51 0 C101.76 -0.91, 192.75 -1.82, 241.29 0 M241.29 0 C246.2 1.29, 247.93 2.26, 249.8 8.51 M241.29 0 C247.27 0.9, 250.08 4.25, 249.8 8.51 M249.8 8.51 C249.53 13.43, 248.39 19.83, 249.8 25.53 M249.8 8.51 C250.04 13.81, 250.07 19.67, 249.8 25.53 M249.8 25.53 C248.54 30.77, 246.16 35.65, 241.29 34.04 M249.8 25.53 C250.08 31.73, 247.77 33.26, 241.29 34.04 M241.29 34.04 C169.7 34.28, 98.88 35.12, 8.51 34.04 M241.29 34.04 C161.06 32.78, 79.43 33.43, 8.51 34.04 M8.51 34.04 C1.07 34.98, -0.36 32.39, 0 25.53 M8.51 34.04 C0.9 34.45, -1.04 31.41, 0 25.53 M0 25.53 C-0.7 22.81, 0.14 17.67, 0 8.51 M0 25.53 C0.26 19.47, -0.43 13.82, 0 8.51 M0 8.51 C0.62 4.39, 3.39 1.39, 8.51 0 M0 8.51 C-0.35 2.68, 3.65 -1.85, 8.51 0" stroke="#1e1e1e" stroke-width="2" fill="none"></path></g><g stroke-linecap="round" transform="translate(347.3717041015625 82.29003058103058) rotate(0 24.2470703125 22.114349365234375)"><path d="M29.07 0.95 C33.85 1.74, 39.71 5.21, 43.03 8.93 C46.34 12.65, 49 18.69, 48.95 23.29 C48.91 27.9, 46.3 33.05, 42.75 36.56 C39.2 40.07, 32.85 43.69, 27.62 44.36 C22.4 45.04, 15.76 43.24, 11.42 40.63 C7.08 38.02, 3.28 33.19, 1.59 28.7 C-0.1 24.21, -0.5 18.06, 1.29 13.71 C3.08 9.36, 7.56 4.7, 12.34 2.59 C17.13 0.48, 26.83 1.23, 30 1.04 C33.16 0.85, 31.36 1.09, 31.34 1.45 M27.15 0.34 C32.07 0.5, 37.98 2.88, 41.48 6.38 C44.98 9.88, 47.76 16.54, 48.17 21.33 C48.57 26.12, 46.83 31.47, 43.93 35.11 C41.03 38.74, 35.7 42.06, 30.76 43.16 C25.81 44.26, 19.01 43.69, 14.27 41.71 C9.52 39.74, 4.56 35.59, 2.29 31.31 C0.02 27.02, -0.76 20.51, 0.64 15.99 C2.04 11.46, 6.29 6.77, 10.7 4.15 C15.1 1.53, 24.45 0.85, 27.07 0.27 C29.69 -0.31, 26.57 0.34, 26.42 0.68" stroke="#1e1e1e" stroke-width="2" fill="none"></path></g><g stroke-linecap="round" transform="translate(257.28900146484375 83.9516821923587) rotate(0 24.2470703125 22.114349365234375)"><path d="M27.21 0.2 C32.06 0.52, 38.5 4.15, 42.08 7.66 C45.65 11.16, 48.39 16.6, 48.68 21.22 C48.97 25.84, 47.06 31.61, 43.8 35.36 C40.55 39.1, 34.3 42.54, 29.16 43.68 C24.02 44.82, 17.48 44.36, 12.97 42.18 C8.45 39.99, 4.07 34.94, 2.07 30.56 C0.07 26.18, -0.61 20.36, 0.98 15.9 C2.58 11.44, 7.08 6.42, 11.64 3.78 C16.21 1.14, 25.63 0.51, 28.38 0.09 C31.13 -0.34, 28.26 0.81, 28.15 1.24 M25.31 -0.24 C30.22 -0.1, 36.97 3.41, 40.75 6.77 C44.53 10.13, 47.38 15.39, 47.98 19.94 C48.59 24.49, 47.11 30.26, 44.4 34.06 C41.68 37.85, 36.69 41.3, 31.68 42.7 C26.68 44.1, 19.15 44.22, 14.36 42.45 C9.56 40.69, 5.21 36.45, 2.93 32.13 C0.65 27.81, -0.52 21.15, 0.67 16.56 C1.86 11.96, 5.88 7.2, 10.08 4.55 C14.28 1.89, 23.15 1.4, 25.88 0.61 C28.6 -0.18, 26.5 -0.37, 26.43 -0.2" stroke="#1e1e1e" stroke-width="2" fill="none"></path></g><g stroke-linecap="round" transform="translate(171.376953125 81.94750128415558) rotate(0 24.2470703125 22.114349365234375)"><path d="M24.53 0.01 C29.54 -0.38, 36.36 1.9, 40.25 4.95 C44.14 8, 47.05 13.51, 47.87 18.31 C48.69 23.1, 47.71 29.6, 45.19 33.71 C42.66 37.82, 37.63 41.35, 32.72 42.96 C27.81 44.57, 20.58 44.95, 15.72 43.37 C10.87 41.79, 6.06 37.68, 3.58 33.46 C1.09 29.24, -0.01 22.68, 0.82 18.04 C1.66 13.39, 4.48 8.58, 8.57 5.61 C12.65 2.64, 22.42 1.1, 25.34 0.24 C28.25 -0.62, 26.1 0.19, 26.04 0.46 M21.59 0.32 C26.52 -0.55, 33.56 1.01, 38 3.56 C42.45 6.1, 46.92 10.95, 48.28 15.59 C49.64 20.23, 48.38 26.96, 46.18 31.42 C43.98 35.87, 39.76 40.36, 35.09 42.33 C30.41 44.3, 23.19 44.41, 18.11 43.22 C13.04 42.03, 7.65 38.92, 4.65 35.2 C1.65 31.48, -0.38 25.79, 0.12 20.91 C0.61 16.02, 3.99 9.47, 7.6 5.9 C11.2 2.33, 19.36 0.29, 21.74 -0.52 C24.13 -1.33, 21.88 0.52, 21.89 1.03" stroke="#1e1e1e" stroke-width="2" fill="none"></path></g><g transform="translate(10 37.90111456540558) rotate(0 81.82440185546875 21.909339534527078)"><text x="0" y="15.354065145796566" font-family="Virgil, Segoe UI Emoji" font-size="17.52747162762165px" fill="#1e1e1e" text-anchor="start" style="white-space: pre;" direction="ltr" dominant-baseline="alphabetic">No towers/shooting</text><text x="0" y="37.26340468032363" font-family="Virgil, Segoe UI Emoji" font-size="17.52747162762165px" fill="#1e1e1e" text-anchor="start" style="white-space: pre;" direction="ltr" dominant-baseline="alphabetic">mech</text></g><g stroke-linecap="round"><g transform="translate(120.64739990234375 22.604025942358703) rotate(0 83.87176513671875 9.9920654296875)"><path d="M-0.95 -1.09 C-0.99 -1.23, -10.43 1.62, 0.85 -0.11 C12.14 -1.84, 38.9 -16.76, 66.76 -11.48 C94.63 -6.19, 151.15 24.26, 168.05 31.59 M0.76 0.96 C0.53 0.89, -10.53 2.92, 0.35 1.06 C11.24 -0.79, 38.05 -15.47, 66.07 -10.18 C94.08 -4.9, 151.66 26.13, 168.46 32.78" stroke="#1e1e1e" stroke-width="2" fill="none"></path></g><g transform="translate(120.64739990234375 22.604025942358703) rotate(0 83.87176513671875 9.9920654296875)"><path d="M143.55 30.67 C151.57 33.12, 162.06 32.75, 168.46 32.78 M143.55 30.67 C151.26 32.12, 157.32 31.71, 168.46 32.78" stroke="#1e1e1e" stroke-width="2" fill="none"></path></g><g transform="translate(120.64739990234375 22.604025942358703) rotate(0 83.87176513671875 9.9920654296875)"><path d="M150.73 15.15 C156.02 23.67, 163.67 29.41, 168.46 32.78 M150.73 15.15 C156.35 21.21, 160.29 25.4, 168.46 32.78" stroke="#1e1e1e" stroke-width="2" fill="none"></path></g></g><mask></mask><g stroke-linecap="round"><g transform="translate(540.5388958930969 55.59555407193636) rotate(0 0.556304931640625 34.710296630859375)"><path d="M0.7 -0.38 C0.73 10.97, 1.19 56.76, 1.3 68.48 M-0.39 -1.62 C-0.6 9.82, 0.26 57.94, 0.45 69.53" stroke="#e03131" stroke-width="2" fill="none"></path></g></g><mask></mask><g stroke-linecap="round"><g transform="translate(540.8758099555969 55.48645373013949) rotate(0 146.75210571289062 -10.167938232421875)"><path d="M-0.88 0.53 C47.93 -2.91, 244.13 -17.25, 293.19 -20.87 M0.86 -0.24 C49.45 -3.5, 243.43 -16.27, 292.07 -19.61" stroke="#e03131" stroke-width="2" fill="none"></path></g></g><mask></mask><g stroke-linecap="round"><g transform="translate(632.3986371040344 67.60094042447543) rotate(0 2.599395751953125 23.812232971191406)" fill-rule="evenodd"><path d="M-2.39 -0.94 C-6.46 6.57, -29.22 38.87, -24.37 46.85 C-19.52 54.83, 20.3 53.83, 26.71 46.96 C33.11 40.09, 18.26 13.64, 14.07 5.64 C9.87 -2.35, 3.7 0.13, 1.55 -1.02" stroke="none" stroke-width="0" fill="#b2f2bb" fill-rule="evenodd"></path><path d="M-0.34 1.15 C-4.18 8.83, -27.32 37.42, -22.48 45.14 C-17.64 52.86, 23.2 54.13, 28.71 47.46 C34.22 40.78, 15.22 13.01, 10.58 5.11 C5.95 -2.79, 2.47 1.08, 0.9 0.05 M1.68 0.7 C-2.32 8.64, -27.58 38.52, -23.15 46.52 C-18.73 54.52, 22.64 55.92, 28.21 48.69 C33.78 41.45, 14.98 11.16, 10.26 3.13 C5.54 -4.91, 1.68 0.83, -0.1 0.46" stroke="#2f9e44" stroke-width="2" fill="none"></path></g></g><mask></mask><g stroke-linecap="round"><g transform="translate(779.5224039456714 65.49978199719408) rotate(0 2.599395751953125 23.812232971191406)" fill-rule="evenodd"><path d="M-0.03 0.65 C-3.89 8.57, -26.63 39.18, -21.55 46.91 C-16.48 54.64, 24.71 54.11, 30.43 47.01 C36.16 39.9, 17.82 11.86, 12.81 4.29 C7.79 -3.28, 2.65 2.69, 0.34 1.58" stroke="none" stroke-width="0" fill="#b2f2bb" fill-rule="evenodd"></path><path d="M-0.28 -0.29 C-4.38 7.06, -28.52 37.04, -23.68 45.03 C-18.84 53.02, 22.83 54.54, 28.78 47.66 C34.72 40.78, 16.77 11.84, 12.01 3.74 C7.24 -4.37, 2.24 -0.2, 0.2 -0.97 M1.77 -1.48 C-2.02 5.95, -25.75 37.93, -21.33 46.35 C-16.9 54.76, 22.69 55.94, 28.31 49 C33.94 42.05, 17.34 13.04, 12.43 4.69 C7.51 -3.65, 0.72 -0.52, -1.16 -1.09" stroke="#2f9e44" stroke-width="2" fill="none"></path></g></g><mask></mask><g stroke-linecap="round"><g transform="translate(700.9202310941089 66.04989186047533) rotate(0 2.599395751953125 23.812232971191406)" fill-rule="evenodd"><path d="M2.24 -0.62 C-1.65 6.76, -26.25 37.41, -21.87 45.71 C-17.48 54.01, 23.12 56.55, 28.54 49.21 C33.96 41.86, 15.61 9.52, 10.65 1.65 C5.7 -6.22, 0.96 2.44, -1.19 1.98" stroke="none" stroke-width="0" fill="#b2f2bb" fill-rule="evenodd"></path><path d="M0.58 0.04 C-3.09 7.63, -27.3 37.39, -22.67 45.16 C-18.03 52.93, 22.71 53.65, 28.4 46.65 C34.09 39.65, 16.08 10.98, 11.48 3.15 C6.88 -4.68, 2.7 0.16, 0.78 -0.31 M-0.58 -0.99 C-4.31 6.82, -28.16 38.47, -23.44 46.54 C-18.72 54.62, 21.9 54.59, 27.74 47.46 C33.58 40.34, 16.3 11.72, 11.63 3.8 C6.96 -4.13, 1.43 0.64, -0.28 -0.08" stroke="#2f9e44" stroke-width="2" fill="none"></path></g></g><mask></mask><g stroke-linecap="round"><g transform="translate(436.83565816879275 102.03794670728178) rotate(0 42.487548828125 0.728302001953125)"><path d="M-0.33 -0.23 C14.17 0.03, 71.6 1.69, 86 1.87 M1.69 -1.4 C16.21 -1.53, 71.56 -0.58, 85.58 -0.04" stroke="#1e1e1e" stroke-width="2" fill="none"></path></g><g transform="translate(436.83565816879275 102.03794670728178) rotate(0 42.487548828125 0.728302001953125)"><path d="M61.88 7.9 C66.56 7.96, 72.72 6.33, 85.58 -0.04 M61.88 7.9 C67.88 5.96, 74.22 4.62, 85.58 -0.04" stroke="#1e1e1e" stroke-width="2" fill="none"></path></g><g transform="translate(436.83565816879275 102.03794670728178) rotate(0 42.487548828125 0.728302001953125)"><path d="M62.32 -9.19 C66.95 -5.46, 73.01 -3.42, 85.58 -0.04 M62.32 -9.19 C68.27 -6.91, 74.51 -4.01, 85.58 -0.04" stroke="#1e1e1e" stroke-width="2" fill="none"></path></g></g><mask></mask><g transform="translate(445.68258199691763 177.4631481232974) rotate(0 59.69993591308594 25)"><text x="0" y="17.52" font-family="Virgil, Segoe UI Emoji" font-size="20px" fill="#1e1e1e" text-anchor="start" style="white-space: pre;" direction="ltr" dominant-baseline="alphabetic">Can descore</text><text x="0" y="42.519999999999996" font-family="Virgil, Segoe UI Emoji" font-size="20px" fill="#1e1e1e" text-anchor="start" style="white-space: pre;" direction="ltr" dominant-baseline="alphabetic">triballs</text></g><g transform="translate(397.98446187973025 56.495222097906776) rotate(0 74.66991424560547 12.5)"><text x="0" y="17.52" font-family="Virgil, Segoe UI Emoji" font-size="20px" fill="#1e1e1e" text-anchor="start" style="white-space: pre;" direction="ltr" dominant-baseline="alphabetic">Fits under goal</text></g><g stroke-linecap="round" transform="translate(272.9200975866785 300.8152404401799) rotate(0 124.90087890625 17.01861572265625)"><path d="M8.51 0 C65.63 0.63, 124.81 1.53, 241.29 0 M8.51 0 C98.15 0.48, 186.13 0.95, 241.29 0 M241.29 0 C245.5 1.87, 249.96 2.87, 249.8 8.51 M241.29 0 C245.38 1.04, 251.9 4.98, 249.8 8.51 M249.8 8.51 C250.31 14.61, 248.41 17.83, 249.8 25.53 M249.8 8.51 C249.81 12.92, 249.03 17.17, 249.8 25.53 M249.8 25.53 C251.22 31.69, 248.48 35.75, 241.29 34.04 M249.8 25.53 C251.51 32.54, 246.67 31.99, 241.29 34.04 M241.29 34.04 C167.61 34.41, 92.66 36.96, 8.51 34.04 M241.29 34.04 C188.62 35.12, 136.08 34, 8.51 34.04 M8.51 34.04 C3.01 35.85, 1.77 30.49, 0 25.53 M8.51 34.04 C4.04 32.41, -1.47 29.24, 0 25.53 M0 25.53 C-1.79 22.5, -1.76 15.89, 0 8.51 M0 25.53 C0.18 19.19, -0.84 12.69, 0 8.51 M0 8.51 C0.82 2.52, 3.8 -1.12, 8.51 0 M0 8.51 C-0.85 1.28, 3.52 -0.04, 8.51 0" stroke="#1e1e1e" stroke-width="2" fill="none"></path></g><g stroke-linecap="round" transform="translate(464.7983324499596 299.78664546947675) rotate(0 24.2470703125 22.114349365234375)"><path d="M29.15 0.98 C33.91 1.59, 39.87 4.96, 43.08 8.57 C46.28 12.18, 48.46 17.9, 48.39 22.65 C48.31 27.4, 46.12 33.54, 42.64 37.05 C39.15 40.55, 32.68 42.99, 27.49 43.69 C22.3 44.39, 15.81 43.73, 11.5 41.25 C7.19 38.77, 3.24 33.41, 1.61 28.81 C-0.02 24.21, -0.21 18, 1.71 13.67 C3.63 9.34, 8.45 5.03, 13.15 2.83 C17.85 0.63, 26.96 0.71, 29.92 0.46 C32.88 0.21, 30.94 0.91, 30.94 1.31 M22.71 0.26 C27.81 -0.19, 34.5 1.9, 38.76 4.67 C43.01 7.43, 47.01 12.51, 48.24 16.87 C49.46 21.23, 48.38 26.67, 46.11 30.83 C43.84 34.99, 39.21 39.64, 34.62 41.84 C30.04 44.05, 23.75 45.15, 18.6 44.08 C13.45 43.01, 6.74 39.52, 3.74 35.44 C0.74 31.35, -0.02 24.39, 0.61 19.58 C1.24 14.77, 4.01 9.68, 7.54 6.55 C11.07 3.42, 19.47 1.86, 21.81 0.81 C24.16 -0.24, 21.5 -0.1, 21.61 0.26" stroke="#1e1e1e" stroke-width="2" fill="none"></path></g><g stroke-linecap="round" transform="translate(374.71562981324087 301.4482970808049) rotate(0 24.2470703125 22.114349365234375)"><path d="M29.23 0.51 C34.15 1.09, 40.18 4.58, 43.46 8.36 C46.75 12.15, 49.17 18.48, 48.93 23.21 C48.7 27.95, 45.63 33.23, 42.06 36.78 C38.49 40.33, 32.61 43.85, 27.53 44.51 C22.46 45.16, 16.02 43.35, 11.6 40.7 C7.17 38.06, 2.57 33.11, 0.98 28.63 C-0.61 24.16, 0.09 18.27, 2.05 13.86 C4.01 9.46, 7.87 4.36, 12.75 2.21 C17.62 0.06, 27.89 0.99, 31.3 0.95 C34.7 0.91, 33.31 1.7, 33.18 1.98 M19.61 1.16 C24.37 -0.04, 31.55 0.98, 36.04 2.95 C40.53 4.93, 44.66 8.77, 46.57 13.02 C48.49 17.28, 48.97 23.74, 47.53 28.47 C46.08 33.2, 42.43 38.7, 37.91 41.4 C33.39 44.11, 25.6 45.53, 20.42 44.71 C15.24 43.88, 10.19 40.05, 6.85 36.46 C3.52 32.86, 0.79 27.66, 0.43 23.14 C0.06 18.62, 1.67 13.16, 4.67 9.35 C7.68 5.53, 16.01 1.54, 18.43 0.25 C20.85 -1.03, 18.91 1.27, 19.21 1.63" stroke="#1e1e1e" stroke-width="2" fill="none"></path></g><g stroke-linecap="round" transform="translate(288.8035814733971 299.44411617260175) rotate(0 24.2470703125 22.114349365234375)"><path d="M29.83 0.25 C34.84 1.04, 41.11 5.19, 44.21 9 C47.32 12.82, 48.82 18.33, 48.46 23.13 C48.1 27.93, 45.56 34.31, 42.06 37.8 C38.56 41.29, 32.67 43.63, 27.45 44.08 C22.23 44.53, 15.13 43.08, 10.75 40.51 C6.37 37.95, 2.68 33.27, 1.16 28.69 C-0.37 24.11, -0.41 17.45, 1.62 13.05 C3.64 8.65, 8.44 4.32, 13.32 2.28 C18.19 0.24, 27.88 1.02, 30.84 0.8 C33.81 0.58, 31.32 0.56, 31.11 0.97 M26.29 0.48 C31.12 0.25, 37.14 2.27, 40.85 5.41 C44.55 8.54, 47.79 14.36, 48.51 19.28 C49.22 24.21, 48.14 30.82, 45.14 34.94 C42.14 39.06, 35.52 42.84, 30.51 43.99 C25.51 45.14, 19.68 43.81, 15.09 41.83 C10.5 39.84, 5.42 36.1, 2.95 32.08 C0.49 28.05, -0.74 22.34, 0.31 17.68 C1.35 13.01, 4.97 6.9, 9.21 4.07 C13.46 1.25, 22.94 1.36, 25.8 0.72 C28.65 0.08, 26.34 0.05, 26.37 0.22" stroke="#1e1e1e" stroke-width="2" fill="none"></path></g><g stroke-linecap="round"><g transform="translate(238.00562433915013 281.6256772611638) rotate(0 0.556304931640625 34.710296630859375)"><path d="M-0.09 -0.21 C-0.24 11.7, 0.02 58.94, 0.23 70.54 M-1.6 -1.36 C-1.47 10.31, 2.13 56.99, 2.48 69.01" stroke="#e03131" stroke-width="2" fill="none"></path></g></g><mask></mask><g stroke-linecap="round"><g transform="translate(238.34253840165013 281.5165769193669) rotate(0 146.75210571289062 -10.167938232421875)"><path d="M-0.88 1.12 C48.07 -2.23, 244.67 -16.83, 293.6 -20.32 M0.86 0.67 C49.66 -2.46, 243.65 -15.02, 292.7 -18.77" stroke="#e03131" stroke-width="2" fill="none"></path></g></g><mask></mask><g stroke-linecap="round"><g transform="translate(572.8941741438375 289.07723060589035) rotate(0 2.599395751953125 23.812232971191406)" fill-rule="evenodd"><path d="M-0.19 0.84 C-3.82 8.37, -27.31 37.16, -22.94 44.61 C-18.57 52.05, 19.96 52.17, 26.02 45.51 C32.08 38.84, 17.44 11.86, 13.41 4.62 C9.38 -2.61, 3.78 2.63, 1.85 2.1" stroke="none" stroke-width="0" fill="#b2f2bb" fill-rule="evenodd"></path><path d="M0.09 0.02 C-3.73 7.5, -28.69 37.87, -23.83 45.99 C-18.96 54.11, 23.38 55.78, 29.29 48.74 C35.21 41.7, 16.55 11.82, 11.65 3.76 C6.75 -4.3, 1.73 1.17, -0.09 0.39 M-1.32 -1.01 C-4.69 6.62, -26.62 36.15, -21.55 44.15 C-16.48 52.15, 23.53 53.56, 29.1 46.99 C34.67 40.42, 17 12.4, 11.89 4.73 C6.77 -2.94, 0.56 1.57, -1.62 0.98" stroke="#2f9e44" stroke-width="2" fill="none"></path></g></g><mask></mask><g stroke-linecap="round"><g transform="translate(675.913082587037 296.4930704696246) rotate(0 2.599395751953125 23.812232971191406)" fill-rule="evenodd"><path d="M0.06 -0.84 C-4.1 6.25, -30.16 35.15, -25.18 43.32 C-20.2 51.5, 23.48 54.42, 29.93 48.22 C36.38 42.02, 18.21 13.92, 13.52 6.12 C8.84 -1.68, 4.12 2.81, 1.82 1.43" stroke="none" stroke-width="0" fill="#b2f2bb" fill-rule="evenodd"></path><path d="M-0.83 0.54 C-4.49 8.3, -26.74 38.76, -21.9 46.56 C-17.07 54.36, 22.59 54.39, 28.17 47.36 C33.75 40.34, 16.15 12.46, 11.58 4.41 C7 -3.64, 2.75 -0.17, 0.72 -0.95 M0.94 -0.22 C-2.8 7.23, -26.69 36.9, -22.28 45.02 C-17.87 53.15, 21.72 55.09, 27.4 48.54 C33.07 41.99, 16.4 13.98, 11.78 5.72 C7.15 -2.55, 1.51 0.13, -0.37 -1.06" stroke="#2f9e44" stroke-width="2" fill="none"></path></g></g><mask></mask><g stroke-linecap="round"><g transform="translate(623.106686102662 275.1109293563434) rotate(323.5390112502708 2.599395751953125 23.812232971191406)" fill-rule="evenodd"><path d="M-2.18 -2.12 C-5.73 5.7, -26.64 37.4, -21.26 46.04 C-15.89 54.68, 24.26 56.49, 30.05 49.72 C35.84 42.96, 18.55 14.1, 13.49 5.45 C8.43 -3.2, 1.85 -1.09, -0.31 -2.18" stroke="none" stroke-width="0" fill="#b2f2bb" fill-rule="evenodd"></path><path d="M1.09 1.12 C-2.6 8.56, -27.52 37.36, -23.02 45.18 C-18.52 52.99, 22.2 55.03, 28.1 48.01 C34.01 40.99, 17.18 11.12, 12.4 3.07 C7.62 -4.98, 1.5 0.16, -0.58 -0.29 M0.21 0.66 C-3.58 8.23, -28.49 39.04, -23.98 46.58 C-19.47 54.11, 21.12 53.02, 27.29 45.87 C33.45 38.72, 17.35 11.33, 13.02 3.67 C8.69 -3.98, 3.26 0.64, 1.3 -0.05" stroke="#2f9e44" stroke-width="2" fill="none"></path></g></g><mask></mask></svg>