<svg version="1.1" xmlns="http://www.w3.org/2000/svg" viewBox="0 0 1926.9201277803693 669.6732052002882" width="1926.9201277803693" height="669.6732052002882">
  <!-- svg-source:excalidraw -->
  
  <defs>
    <style class="style-fonts">
      @font-face {
        font-family: "Virgil";
        src: url("https://excalidraw.com/Virgil.woff2");
      }
      @font-face {
        font-family: "Cascadia";
        src: url("https://excalidraw.com/Cascadia.woff2");
      }
      @font-face {
        font-family: "Assistant";
        src: url("https://excalidraw.com/Assistant-Regular.woff2");
      }
    </style>
    
  </defs>
  <rect x="0" y="0" width="1926.9201277803693" height="669.6732052002882" fill="#ffffff"></rect><g stroke-linecap="round"><g transform="translate(970.9054247257893 303.2129760173567) rotate(0 -128.78732592387428 -116.11491531845041)"><path d="M0 0 C-55.48 -75.13, -108.54 -148.83, -186.39 -258.52 M0 0 C-61.26 -87.46, -124.82 -174.72, -186.39 -258.52 M-186.39 -258.52 C-206.74 -247.25, -223.55 -237.13, -257.57 -217.53 M-186.39 -258.52 C-207.6 -247.3, -225.55 -234.05, -257.57 -217.53 M-257.57 -217.53 C-254.61 -208.79, -249.34 -200.91, -240.69 -187.29 M-257.57 -217.53 C-250.9 -205.65, -244.6 -193.3, -240.69 -187.29 M-240.69 -187.29 C-235.28 -190.58, -226.06 -196.81, -206.4 -207.28 M-240.69 -187.29 C-231.78 -193.48, -222.41 -198.1, -206.4 -207.28 M-206.4 -207.28 C-166.76 -151.33, -124.18 -94.65, -34.38 26.29 M-206.4 -207.28 C-164.64 -153.83, -124.98 -99.11, -34.38 26.29 M-34.38 26.29 C-23 17.94, -7.32 5.82, 0 0 M-34.38 26.29 C-21.28 17.23, -9.29 7.31, 0 0" stroke="#1e1e1e" stroke-width="4" fill="none"></path></g></g><mask></mask><g stroke-linecap="round" transform="translate(933.1399985609012 292.3190390390365) rotate(0 9.188038572876394 10.478676196345901)"><path d="M8.44 0.49 C10.22 0.1, 13 0.55, 14.6 1.73 C16.2 2.9, 17.54 5.29, 18.03 7.56 C18.52 9.83, 18.4 13.35, 17.54 15.37 C16.69 17.39, 14.68 18.86, 12.9 19.7 C11.12 20.54, 8.7 21.06, 6.84 20.42 C4.98 19.79, 2.81 17.69, 1.76 15.88 C0.7 14.08, 0.31 11.68, 0.5 9.6 C0.7 7.53, 1.53 5.1, 2.95 3.43 C4.37 1.76, 7.95 0.06, 9.01 -0.41 C10.06 -0.88, 9.39 0.35, 9.29 0.63 M7.53 0.19 C9.37 -0.06, 13.11 1.16, 14.79 2.24 C16.48 3.33, 17.04 4.75, 17.64 6.69 C18.24 8.64, 19.23 11.63, 18.42 13.93 C17.61 16.23, 14.56 19.33, 12.76 20.5 C10.97 21.66, 9.47 21.44, 7.66 20.91 C5.85 20.39, 3.2 19.24, 1.88 17.35 C0.56 15.46, -0.24 11.77, -0.25 9.58 C-0.26 7.38, 0.52 5.81, 1.84 4.18 C3.16 2.55, 6.65 0.42, 7.67 -0.23 C8.7 -0.88, 7.88 0.01, 7.98 0.26" stroke="none" stroke-width="0" fill="#868e96"></path><path d="M9.3 -0.2 C11.22 -0.2, 14.03 1.09, 15.51 2.58 C17 4.06, 17.89 6.55, 18.21 8.73 C18.52 10.92, 18.39 13.8, 17.4 15.69 C16.42 17.58, 14.17 19.39, 12.28 20.09 C10.4 20.8, 8.02 20.68, 6.1 19.92 C4.17 19.16, 1.67 17.49, 0.74 15.55 C-0.18 13.6, 0.01 10.46, 0.55 8.24 C1.08 6.01, 2.41 3.64, 3.95 2.2 C5.5 0.77, 8.82 0.01, 9.82 -0.38 C10.81 -0.76, 9.86 -0.35, 9.92 -0.12 M9.53 0.47 C11.39 0.48, 13.78 1.37, 15.15 2.89 C16.52 4.4, 17.45 7.23, 17.73 9.55 C18.02 11.87, 17.95 14.91, 16.86 16.81 C15.77 18.7, 13.04 20.41, 11.19 20.92 C9.34 21.42, 7.42 20.8, 5.75 19.84 C4.08 18.88, 2.14 17.19, 1.17 15.16 C0.2 13.14, -0.41 9.9, -0.06 7.69 C0.28 5.47, 1.65 3.16, 3.26 1.88 C4.87 0.6, 8.38 0.23, 9.6 0.03 C10.81 -0.17, 10.57 0.52, 10.56 0.7" stroke="#868e96" stroke-width="4" fill="none"></path></g><g stroke-linecap="round"><g transform="translate(917.3295008349003 306.71611121278966) rotate(0 -57.31796896654009 140.8687589860692)"><path d="M0 0 C-49.75 95.35, -97.05 188.77, -132.58 262.98 M0 0 C-35.12 72.79, -71.61 145.27, -132.58 262.98 M-132.58 262.98 C-124.08 270.98, -116.77 274.75, -108.29 281.74 M-132.58 262.98 C-125.16 268.95, -116.53 276.46, -108.29 281.74 M-108.29 281.74 C-72.04 206.27, -34.23 127.65, 17.94 22.87 M-108.29 281.74 C-74.88 210.97, -41.32 142.52, 17.94 22.87" stroke="#1e1e1e" stroke-width="4" fill="none"></path></g></g><mask></mask><g stroke-linecap="round"><g transform="translate(766.0478062238465 100.67323106679095) rotate(0 139.601985888301 228.68928136258558)"><path d="M0 0 C72.11 120.42, 145.23 238.95, 279.2 457.38 M0 0 C92.37 149.34, 183.78 298.96, 279.2 457.38" stroke="#f08c00" stroke-width="4" fill="none"></path></g><g transform="translate(766.0478062238465 100.67323106679095) rotate(0 139.601985888301 228.68928136258558)"><path d="M259.73 441.7 C265.58 447.31, 271.48 449.62, 279.2 457.38 M259.73 441.7 C266.99 446.92, 273.1 451.31, 279.2 457.38" stroke="#f08c00" stroke-width="4" fill="none"></path></g><g transform="translate(766.0478062238465 100.67323106679095) rotate(0 139.601985888301 228.68928136258558)"><path d="M274.36 432.85 C276.35 440.69, 278.43 445.3, 279.2 457.38 M274.36 432.85 C276.85 441.05, 278.16 448.34, 279.2 457.38" stroke="#f08c00" stroke-width="4" fill="none"></path></g></g><mask></mask><g transform="translate(980.8072812622338 443.2709336213012) rotate(0 141.39993286132812 17.5)"><text x="0" y="24.528" font-family="Virgil, Segoe UI Emoji" font-size="28px" fill="#f08c00" text-anchor="start" style="white-space: pre;" direction="ltr" dominant-baseline="alphabetic">Cable pulled by winch</text></g><g stroke-linecap="round"><g transform="translate(982.8554769838549 249.53643566461255) rotate(0 -13.628157023370932 21.150246621816784)"><path d="M0 0 C-5.15 10.02, -12.81 18.17, -27.26 42.3 M0 0 C-5.25 8.73, -11.08 17.9, -27.26 42.3" stroke="#1e1e1e" stroke-width="4" fill="none"></path></g><g transform="translate(982.8554769838549 249.53643566461255) rotate(0 -13.628157023370932 21.150246621816784)"><path d="M-21.47 17.98 C-21.97 24.1, -24.92 28.31, -27.26 42.3 M-21.47 17.98 C-22.24 22.92, -23.51 28.27, -27.26 42.3" stroke="#1e1e1e" stroke-width="4" fill="none"></path></g><g transform="translate(982.8554769838549 249.53643566461255) rotate(0 -13.628157023370932 21.150246621816784)"><path d="M-7.19 27.39 C-10.84 31.43, -16.92 33.57, -27.26 42.3 M-7.19 27.39 C-11.03 30.31, -15.34 33.66, -27.26 42.3" stroke="#1e1e1e" stroke-width="4" fill="none"></path></g></g><mask></mask><g transform="translate(981.3691618187734 222.92524637763466) rotate(0 35.3079833984375 17.5)"><text x="0" y="24.528" font-family="Virgil, Segoe UI Emoji" font-size="28px" fill="#1e1e1e" text-anchor="start" style="white-space: pre;" direction="ltr" dominant-baseline="alphabetic">Pivot</text></g><g transform="translate(864.9439991124361 111.89560299098628) rotate(0 93.6879653930664 17.5)"><text x="0" y="24.528" font-family="Virgil, Segoe UI Emoji" font-size="28px" fill="#1e1e1e" text-anchor="start" style="white-space: pre;" direction="ltr" dominant-baseline="alphabetic">C-channel arm</text></g><g transform="translate(653.4988487057401 10) rotate(0 47.049957275390625 25)"><text x="0" y="17.52" font-family="Virgil, Segoe UI Emoji" font-size="20px" fill="#1e1e1e" text-anchor="start" style="white-space: pre;" direction="ltr" dominant-baseline="alphabetic">Anchoring</text><text x="0" y="42.519999999999996" font-family="Virgil, Segoe UI Emoji" font-size="20px" fill="#1e1e1e" text-anchor="start" style="white-space: pre;" direction="ltr" dominant-baseline="alphabetic">mechanism</text></g><g stroke-linecap="round" transform="translate(692.6323200340019 120.3693551276171) rotate(0 37.2208060409755 221.98711783102908)"><path d="M0 0 C15.4 0.91, 33.14 2.38, 74.44 0 M0 0 C18.75 1.21, 37.92 0.02, 74.44 0 M74.44 0 C75.89 96.27, 75.13 191.61, 74.44 443.97 M74.44 0 C73.11 176.16, 73.45 351.74, 74.44 443.97 M74.44 443.97 C52.03 442.22, 31.48 443.49, 0 443.97 M74.44 443.97 C45.92 445.09, 16.92 445.07, 0 443.97 M0 443.97 C-0.24 289.36, -0.23 135.77, 0 0 M0 443.97 C-0.48 319.9, 0.1 195.91, 0 0" stroke="#1971c2" stroke-width="4" fill="none"></path></g><g transform="translate(610.3275380949433 318.94750666280424) rotate(270 122.4539566040039 22.5)"><text x="0" y="31.536" font-family="Virgil, Segoe UI Emoji" font-size="36px" fill="#1971c2" text-anchor="start" style="white-space: pre;" direction="ltr" dominant-baseline="alphabetic">Elevation Bar</text></g><g stroke-linecap="round" transform="translate(777.6285347815781 548.9929080669059) rotate(0 236.50473353602047 55.34014856669114)"><path d="M27.67 0 C178.74 -1.42, 327.6 -1.03, 445.34 0 M445.34 0 C462.8 0.6, 473.89 9.03, 473.01 27.67 M473.01 27.67 C474.55 48.75, 471.8 68.87, 473.01 83.01 M473.01 83.01 C472.81 103.29, 464.76 109.84, 445.34 110.68 M445.34 110.68 C319.46 112.2, 194.69 112.51, 27.67 110.68 M27.67 110.68 C9.13 109.22, -1.93 102.21, 0 83.01 M0 83.01 C1 66.71, -0.47 50.34, 0 27.67 M0 27.67 C-1.7 10.3, 9.44 1.01, 27.67 0" stroke="#2f9e44" stroke-width="4.5" fill="none" stroke-dasharray="1.5 10"></path></g><g transform="translate(926.8873118967001 581.833056633597) rotate(0 87.24595642089844 22.5)"><text x="87.24595642089844" y="31.536" font-family="Virgil, Segoe UI Emoji" font-size="36px" fill="#2f9e44" text-anchor="middle" style="white-space: pre;" direction="ltr" dominant-baseline="alphabetic">Drivetrain</text></g><g stroke-linecap="round" transform="translate(796.0895326265297 552.4053824921336) rotate(0 9.188038572876394 10.478676196345901)"><path d="M6.92 0.46 C8.78 -0.07, 12.13 0.73, 13.85 1.68 C15.57 2.64, 16.6 4.27, 17.23 6.21 C17.87 8.15, 18.2 11.19, 17.66 13.33 C17.12 15.47, 15.59 17.82, 14 19.07 C12.4 20.32, 10.08 21.14, 8.08 20.83 C6.09 20.52, 3.45 18.95, 2.03 17.21 C0.61 15.48, -0.42 12.61, -0.41 10.42 C-0.41 8.23, 0.71 5.85, 2.07 4.09 C3.43 2.33, 6.83 0.4, 7.75 -0.15 C8.67 -0.69, 7.54 0.56, 7.59 0.81 M9.98 0.49 C11.9 0.46, 13.93 0.9, 15.23 2.24 C16.53 3.58, 17.46 6.15, 17.78 8.53 C18.1 10.91, 18.23 14.52, 17.14 16.52 C16.04 18.53, 13.09 19.87, 11.22 20.56 C9.36 21.25, 7.7 21.63, 5.93 20.66 C4.16 19.7, 1.67 16.77, 0.62 14.76 C-0.42 12.75, -0.9 10.82, -0.35 8.6 C0.2 6.38, 2.17 2.8, 3.93 1.45 C5.68 0.1, 9.34 0.62, 10.19 0.51 C11.03 0.4, 8.98 0.72, 9 0.81" stroke="none" stroke-width="0" fill="#868e96"></path><path d="M10.71 0.21 C12.54 0.34, 14.58 2.02, 15.85 3.6 C17.12 5.18, 18.21 7.58, 18.32 9.71 C18.43 11.84, 17.67 14.55, 16.53 16.4 C15.39 18.24, 13.4 20.21, 11.49 20.8 C9.57 21.39, 6.8 21.05, 5.04 19.93 C3.28 18.82, 1.76 16.13, 0.92 14.1 C0.08 12.08, -0.6 9.79, 0.02 7.79 C0.64 5.78, 2.92 3.34, 4.64 2.08 C6.36 0.83, 9.35 0.62, 10.34 0.26 C11.33 -0.11, 10.48 -0.24, 10.57 -0.11 M8.09 -0.35 C10.01 -0.95, 12.31 -0.49, 13.9 0.74 C15.49 1.97, 16.97 4.8, 17.62 7.01 C18.27 9.22, 18.4 11.8, 17.78 13.98 C17.17 16.16, 15.65 19.04, 13.95 20.11 C12.25 21.17, 9.45 20.93, 7.58 20.35 C5.71 19.78, 4.06 18.35, 2.73 16.66 C1.4 14.97, -0.35 12.34, -0.39 10.21 C-0.43 8.09, 1.07 5.55, 2.48 3.92 C3.89 2.29, 7.23 1.11, 8.06 0.46 C8.89 -0.19, 7.56 -0.15, 7.45 0.02" stroke="#868e96" stroke-width="4" fill="none"></path></g><g stroke-linecap="round"><g transform="translate(1667.4563035482504 196.02470809443702) rotate(305.64922485603535 -128.78732592387428 -116.11491531845041)"><path d="M0 0 C-47.28 -64.8, -92.6 -130.73, -186.39 -258.52 M0 0 C-56.28 -79.51, -115.12 -161.39, -186.39 -258.52 M-186.39 -258.52 C-199.31 -248.77, -214.96 -241.11, -257.57 -217.53 M-186.39 -258.52 C-207.31 -246.05, -228.48 -233.42, -257.57 -217.53 M-257.57 -217.53 C-253.09 -207.76, -245.17 -196.76, -240.69 -187.29 M-257.57 -217.53 C-251.74 -208.56, -246.54 -197.91, -240.69 -187.29 M-240.69 -187.29 C-229.48 -196.75, -215.14 -201.06, -206.4 -207.28 M-240.69 -187.29 C-231.12 -192.75, -221.23 -198.27, -206.4 -207.28 M-206.4 -207.28 C-141.99 -120.01, -77.87 -36.68, -34.38 26.29 M-206.4 -207.28 C-157.98 -139.04, -108.73 -72.63, -34.38 26.29 M-34.38 26.29 C-22.73 19.38, -13.49 12.53, 0 0 M-34.38 26.29 C-26.21 20.1, -17.37 13.53, 0 0" stroke="#1e1e1e" stroke-width="4" fill="none"></path></g></g><mask></mask><g stroke-linecap="round"><g transform="translate(1603.4287848441397 53.33912058713025) rotate(30.816490386358446 -32.74390523389047 92.35018444314248)"><path d="M0 0 C-37.31 64.82, -75.04 133.7, -111.65 191.41 M0 0 C-43.94 74.15, -87.09 147.94, -111.65 191.41 M-111.65 191.41 C-101.84 200.34, -93.7 207.02, -87.36 210.17 M-111.65 191.41 C-102.2 197.38, -93.86 203.54, -87.36 210.17 M-87.36 210.17 C-56.88 158.12, -26.25 106.08, 46.16 -25.47 M-87.36 210.17 C-56.2 155.89, -25.92 100.35, 46.16 -25.47" stroke="#1e1e1e" stroke-width="4" fill="none"></path></g></g><mask></mask><g stroke-linecap="round"><g transform="translate(1434.5460288337765 91.02289650008515) rotate(0 193.57851265635054 43.5473760151516)"><path d="M0 0 C123.87 30.42, 247.19 57.33, 387.16 87.09 M0 0 C97.03 20.62, 196.22 42.42, 387.16 87.09" stroke="#f08c00" stroke-width="4" fill="none"></path></g><g transform="translate(1434.5460288337765 91.02289650008515) rotate(0 193.57851265635054 43.5473760151516)"><path d="M362.34 90.13 C371.51 90.68, 379.83 88.36, 387.16 87.09 M362.34 90.13 C367.66 89.9, 375.92 88.69, 387.16 87.09" stroke="#f08c00" stroke-width="4" fill="none"></path></g><g transform="translate(1434.5460288337765 91.02289650008515) rotate(0 193.57851265635054 43.5473760151516)"><path d="M366.2 73.47 C374.17 79.28, 381.26 82.26, 387.16 87.09 M366.2 73.47 C370.38 77.49, 377.67 80.5, 387.16 87.09" stroke="#f08c00" stroke-width="4" fill="none"></path></g></g><mask></mask><g stroke-linecap="round" transform="translate(1361.1305426439314 110.36074031984134) rotate(0 37.2208060409755 221.98711783102908)"><path d="M0 0 C29.69 1.19, 57.78 0.41, 74.44 0 M0 0 C26.86 -0.95, 52.78 -1.36, 74.44 0 M74.44 0 C74.47 99.5, 74.9 199.63, 74.44 443.97 M74.44 0 C75.16 102.99, 74.78 205.05, 74.44 443.97 M74.44 443.97 C59.25 444.61, 45.55 443.96, 0 443.97 M74.44 443.97 C49.61 445.09, 23.4 444.44, 0 443.97 M0 443.97 C-1.34 271.36, -1.68 99.97, 0 0 M0 443.97 C0.95 290.83, 1.13 138.38, 0 0" stroke="#1971c2" stroke-width="4" fill="none"></path></g><g transform="translate(1278.8257607048738 308.9388918550285) rotate(270 122.4539566040039 22.5)"><text x="0" y="31.536" font-family="Virgil, Segoe UI Emoji" font-size="36px" fill="#1971c2" text-anchor="start" style="white-space: pre;" direction="ltr" dominant-baseline="alphabetic">Elevation Bar</text></g><g stroke-linecap="round" transform="translate(1443.9106607083284 176.4273311537611) rotate(0 236.50473353602047 55.34014856669114)"><path d="M27.67 0 C186.94 0.05, 345.84 -0.1, 445.34 0 M445.34 0 C462.88 1.17, 471.28 7.71, 473.01 27.67 M473.01 27.67 C472.25 45.09, 473.3 58.5, 473.01 83.01 M473.01 83.01 C473.33 101.85, 465.27 111.81, 445.34 110.68 M445.34 110.68 C321.75 109.07, 198.01 108.55, 27.67 110.68 M27.67 110.68 C10.16 110.23, 0.85 101.14, 0 83.01 M0 83.01 C-0.43 62.89, 1.37 43.9, 0 27.67 M0 27.67 C-1.69 8.99, 7.94 -0.93, 27.67 0" stroke="#2f9e44" stroke-width="4.5" fill="none" stroke-dasharray="1.5 10"></path></g><g transform="translate(1593.1694378234504 209.26747972045223) rotate(0 87.24595642089844 22.5)"><text x="87.24595642089844" y="31.536" font-family="Virgil, Segoe UI Emoji" font-size="36px" fill="#2f9e44" text-anchor="middle" style="white-space: pre;" direction="ltr" dominant-baseline="alphabetic">Drivetrain</text></g><g stroke-linecap="round" transform="translate(1463.9341330751197 184.5323869260992) rotate(30.816490386358446 9.188038572876394 10.478676196345901)"><path d="M7.71 0.07 C9.4 -0.36, 11.99 0.02, 13.67 1.22 C15.35 2.42, 17.09 5.04, 17.79 7.28 C18.49 9.53, 18.6 12.68, 17.85 14.72 C17.11 16.75, 15.13 18.49, 13.3 19.49 C11.47 20.5, 8.78 21.24, 6.87 20.75 C4.95 20.26, 2.92 18.31, 1.83 16.54 C0.73 14.76, 0.23 12.25, 0.3 10.1 C0.37 7.94, 0.98 5.33, 2.26 3.59 C3.54 1.86, 7.01 0.22, 7.98 -0.32 C8.94 -0.85, 8 0.19, 8.03 0.39 M8.89 -0.45 C10.71 -0.52, 13.72 0.41, 15.4 2 C17.08 3.59, 18.75 6.84, 18.97 9.07 C19.19 11.3, 17.78 13.44, 16.69 15.36 C15.61 17.29, 14.31 19.8, 12.48 20.61 C10.64 21.41, 7.65 21.05, 5.68 20.19 C3.71 19.34, 1.56 17.38, 0.66 15.46 C-0.25 13.54, -0.2 10.87, 0.26 8.65 C0.72 6.44, 2 3.7, 3.41 2.18 C4.82 0.67, 7.71 -0.16, 8.72 -0.43 C9.73 -0.71, 9.47 0.32, 9.45 0.54" stroke="none" stroke-width="0" fill="#868e96"></path><path d="M10.49 -0.37 C12.44 -0.13, 14.81 1.67, 16.18 3.47 C17.54 5.26, 18.72 8.13, 18.7 10.39 C18.68 12.66, 17.31 15.28, 16.04 17.07 C14.78 18.86, 12.96 20.68, 11.13 21.11 C9.31 21.55, 6.91 20.89, 5.1 19.68 C3.29 18.46, 1.04 15.87, 0.27 13.84 C-0.5 11.8, -0.2 9.5, 0.47 7.46 C1.15 5.42, 2.54 2.84, 4.31 1.6 C6.07 0.37, 9.91 0.26, 11.08 0.06 C12.25 -0.15, 11.35 0.12, 11.34 0.37 M11.32 0.56 C13.08 0.75, 14.42 1.98, 15.51 3.55 C16.61 5.12, 17.77 7.67, 17.89 9.99 C18.02 12.31, 17.5 15.74, 16.28 17.44 C15.06 19.15, 12.5 19.9, 10.56 20.22 C8.62 20.54, 6.26 20.28, 4.64 19.38 C3.01 18.47, 1.45 16.78, 0.81 14.77 C0.18 12.76, 0.12 9.6, 0.84 7.3 C1.56 5.01, 3.5 2.32, 5.12 1.02 C6.74 -0.27, 9.66 -0.34, 10.56 -0.48 C11.47 -0.61, 10.5 0, 10.55 0.22" stroke="#868e96" stroke-width="4" fill="none"></path></g><g stroke-linecap="round" transform="translate(1665.1054858244613 55.87662106660761) rotate(30.816490386358446 9.188038572876394 10.478676196345901)"><path d="M7.04 0.32 C8.88 -0.33, 11.45 -0.1, 13.28 0.91 C15.1 1.91, 17.23 4.19, 18 6.36 C18.77 8.53, 18.54 11.74, 17.87 13.94 C17.2 16.14, 15.62 18.47, 13.96 19.58 C12.3 20.7, 9.78 20.93, 7.9 20.63 C6.02 20.33, 3.94 19.28, 2.67 17.77 C1.4 16.26, 0.36 13.8, 0.29 11.58 C0.21 9.37, 1.06 6.35, 2.21 4.48 C3.37 2.62, 6.26 1.04, 7.23 0.4 C8.2 -0.24, 7.98 0.54, 8.03 0.63 M7.85 -0.35 C9.77 -0.88, 12.04 0.4, 13.66 1.48 C15.28 2.57, 16.72 4.13, 17.56 6.17 C18.4 8.21, 19.15 11.58, 18.68 13.71 C18.21 15.84, 16.59 17.78, 14.74 18.95 C12.89 20.13, 9.61 20.9, 7.61 20.76 C5.61 20.63, 4.04 19.83, 2.75 18.16 C1.47 16.5, -0.07 13.22, -0.1 10.77 C-0.13 8.32, 1.45 5.16, 2.55 3.46 C3.65 1.76, 5.63 1.14, 6.5 0.56 C7.36 -0.03, 7.59 -0.16, 7.73 -0.04" stroke="none" stroke-width="0" fill="#868e96"></path><path d="M6.86 0.17 C8.66 -0.42, 11.65 0.39, 13.47 1.48 C15.29 2.57, 17.09 4.74, 17.76 6.73 C18.43 8.73, 18.18 11.39, 17.5 13.44 C16.82 15.49, 15.32 17.84, 13.68 19.03 C12.05 20.21, 9.64 20.79, 7.69 20.57 C5.74 20.36, 3.28 19.29, 1.97 17.73 C0.66 16.17, -0.14 13.55, -0.19 11.22 C-0.24 8.89, 0.47 5.68, 1.68 3.76 C2.89 1.83, 6.11 0.21, 7.08 -0.31 C8.05 -0.84, 7.4 0.34, 7.51 0.6 M6.35 -0.43 C8.22 -1.1, 11.86 -0.1, 13.69 1.07 C15.51 2.25, 16.68 4.48, 17.3 6.6 C17.92 8.72, 17.86 11.67, 17.4 13.79 C16.95 15.92, 16.18 18.2, 14.59 19.34 C13 20.48, 9.78 20.87, 7.88 20.64 C5.98 20.41, 4.6 19.66, 3.2 17.95 C1.81 16.24, -0.17 12.53, -0.47 10.36 C-0.77 8.19, 0.1 6.59, 1.42 4.94 C2.75 3.29, 6.42 1.1, 7.49 0.45 C8.56 -0.2, 7.94 0.85, 7.84 1.05" stroke="#868e96" stroke-width="4" fill="none"></path></g><g stroke-linecap="round" transform="translate(10 92.68173798591437) rotate(0 37.2208060409755 221.98711783102908)"><path d="M0 0 C28.81 -1.36, 57.52 2.06, 74.44 0 M0 0 C23.46 0.2, 47.42 -0.26, 74.44 0 M74.44 0 C73.48 95.65, 73.11 191.01, 74.44 443.97 M74.44 0 C72.68 150.74, 72.9 302.4, 74.44 443.97 M74.44 443.97 C53.08 444.14, 29.17 443.05, 0 443.97 M74.44 443.97 C51.67 443.46, 29.7 445.01, 0 443.97 M0 443.97 C2.42 307.53, 1.06 171.67, 0 0 M0 443.97 C1.07 284.53, 1.23 125.34, 0 0" stroke="#1971c2" stroke-width="4" fill="none"></path></g><g transform="translate(-72.30478193905856 291.2598895211015) rotate(270 122.4539566040039 22.5)"><text x="0" y="31.536" font-family="Virgil, Segoe UI Emoji" font-size="36px" fill="#1971c2" text-anchor="start" style="white-space: pre;" direction="ltr" dominant-baseline="alphabetic">Elevation Bar</text></g><g stroke-linecap="round"><g transform="translate(391.16919707323746 565.8060023036712) rotate(305.64922485603535 -128.78732592387428 -116.11491531845041)"><path d="M0 0 C-40.09 -55.97, -79.89 -112.26, -186.39 -258.52 M0 0 C-45.36 -62.96, -90.66 -126.49, -186.39 -258.52 M-186.39 -258.52 C-204.1 -246.16, -223.78 -234.27, -257.57 -217.53 M-186.39 -258.52 C-210.65 -245.92, -233.4 -231.99, -257.57 -217.53 M-257.57 -217.53 C-253.56 -208.49, -247.17 -201.42, -240.69 -187.29 M-257.57 -217.53 C-253.58 -210.39, -248.64 -202.62, -240.69 -187.29 M-240.69 -187.29 C-231.54 -193.62, -224.97 -198.17, -206.4 -207.28 M-240.69 -187.29 C-231.27 -192.75, -220.57 -199.63, -206.4 -207.28 M-206.4 -207.28 C-144.75 -126.93, -84.91 -44.57, -34.38 26.29 M-206.4 -207.28 C-136.85 -115.91, -70.34 -24.74, -34.38 26.29 M-34.38 26.29 C-21.03 15.49, -10.32 6.38, 0 0 M-34.38 26.29 C-25.18 18.98, -16.86 13.32, 0 0" stroke="#1e1e1e" stroke-width="4" fill="none"></path></g></g><mask></mask><g stroke-linecap="round"><g transform="translate(327.1416783691268 423.1204147963645) rotate(30.816490386358446 -32.74390523389047 92.3501844431425)"><path d="M0 0 C-25.43 47.95, -54.23 91.96, -111.65 191.41 M0 0 C-31.57 50.49, -60.87 101.76, -111.65 191.41 M-111.65 191.41 C-100.35 199.83, -92.16 205.08, -87.36 210.17 M-111.65 191.41 C-106.51 195.8, -101.58 200.57, -87.36 210.17 M-87.36 210.17 C-51.16 149.61, -18.84 89.17, 46.16 -25.47 M-87.36 210.17 C-40.96 130.31, 4.1 50.99, 46.16 -25.47" stroke="#1e1e1e" stroke-width="4" fill="none"></path></g></g><mask></mask><g stroke-linecap="round" transform="translate(167.62355423331542 546.2086253629955) rotate(0 236.50473353602047 55.34014856669114)"><path d="M27.67 0 C187.03 -0.31, 347.39 -0.46, 445.34 0 M445.34 0 C461.96 -0.54, 471.75 10.93, 473.01 27.67 M473.01 27.67 C474.42 50.34, 472.43 70.3, 473.01 83.01 M473.01 83.01 C471.54 100.85, 463.58 111, 445.34 110.68 M445.34 110.68 C342.73 110.57, 241.53 110.38, 27.67 110.68 M27.67 110.68 C8.45 112.23, 0.79 100.15, 0 83.01 M0 83.01 C-0.79 70.21, 0.97 57.83, 0 27.67 M0 27.67 C-1.03 7.29, 8.79 0.11, 27.67 0" stroke="#2f9e44" stroke-width="4.5" fill="none" stroke-dasharray="1.5 10"></path></g><g transform="translate(316.88233134843745 579.0487739296866) rotate(0 87.24595642089844 22.5)"><text x="87.24595642089844" y="31.536" font-family="Virgil, Segoe UI Emoji" font-size="36px" fill="#2f9e44" text-anchor="middle" style="white-space: pre;" direction="ltr" dominant-baseline="alphabetic">Drivetrain</text></g><g stroke-linecap="round" transform="translate(187.6470266001063 554.3136811353336) rotate(30.816490386358446 9.188038572876394 10.478676196345901)"><path d="M11.08 -0.01 C12.84 0.28, 14.68 2.07, 15.87 3.92 C17.05 5.78, 18.2 8.86, 18.2 11.13 C18.19 13.4, 17.13 15.98, 15.81 17.56 C14.5 19.14, 12.14 20.34, 10.3 20.61 C8.47 20.88, 6.44 20.37, 4.79 19.17 C3.13 17.97, 1 15.43, 0.36 13.42 C-0.28 11.42, 0.16 9.13, 0.94 7.15 C1.72 5.17, 3.32 2.69, 5.04 1.56 C6.77 0.42, 10.16 0.45, 11.27 0.36 C12.39 0.26, 11.73 0.87, 11.73 0.98 M9.94 0.08 C11.66 0.09, 14.42 1.19, 15.89 2.87 C17.35 4.56, 18.67 7.75, 18.74 10.2 C18.82 12.64, 17.57 15.67, 16.34 17.54 C15.12 19.41, 13.25 21.07, 11.38 21.43 C9.5 21.78, 6.99 20.79, 5.09 19.68 C3.19 18.57, 0.82 16.75, -0.02 14.77 C-0.86 12.78, -0.75 10.02, 0.03 7.79 C0.82 5.56, 2.96 2.7, 4.7 1.37 C6.44 0.04, 9.58 0.09, 10.46 -0.2 C11.35 -0.49, 10 -0.58, 10 -0.36" stroke="none" stroke-width="0" fill="#868e96"></path><path d="M9.07 0.16 C11.05 -0.13, 13.51 1.06, 15.04 2.33 C16.57 3.6, 17.92 5.72, 18.25 7.79 C18.58 9.85, 17.96 12.69, 17.04 14.73 C16.13 16.77, 14.47 19.09, 12.75 20.01 C11.03 20.93, 8.51 20.92, 6.71 20.27 C4.91 19.62, 3.08 17.86, 1.95 16.1 C0.83 14.35, -0.26 11.89, -0.04 9.75 C0.19 7.6, 1.86 4.78, 3.29 3.23 C4.73 1.67, 7.58 0.96, 8.55 0.4 C9.52 -0.16, 9.13 -0.21, 9.11 -0.11 M7.64 0.34 C9.44 -0.34, 11.49 -0.53, 13.14 0.51 C14.79 1.56, 16.67 4.52, 17.55 6.62 C18.44 8.73, 19.15 10.99, 18.45 13.16 C17.75 15.34, 15.2 18.44, 13.35 19.67 C11.5 20.91, 9.13 20.87, 7.35 20.57 C5.58 20.26, 3.84 19.41, 2.7 17.86 C1.56 16.31, 0.64 13.51, 0.52 11.28 C0.4 9.05, 0.75 6.21, 1.98 4.48 C3.21 2.76, 6.92 1.5, 7.9 0.92 C8.88 0.34, 7.81 0.86, 7.86 0.99" stroke="#868e96" stroke-width="4" fill="none"></path></g><g stroke-linecap="round" transform="translate(388.8183793494484 425.65791527584184) rotate(30.816490386358446 9.188038572876394 10.478676196345901)"><path d="M8.45 0 C10.27 -0.09, 13.15 1.26, 14.73 2.69 C16.31 4.11, 17.54 6.46, 17.91 8.55 C18.29 10.64, 17.82 13.35, 16.99 15.25 C16.16 17.16, 14.74 19.17, 12.93 19.97 C11.12 20.76, 8.03 20.59, 6.15 20.01 C4.27 19.42, 2.63 18.24, 1.66 16.43 C0.7 14.63, 0.12 11.49, 0.37 9.2 C0.61 6.92, 1.58 4.19, 3.14 2.73 C4.7 1.27, 8.56 0.91, 9.72 0.45 C10.89 0, 10.14 -0.18, 10.13 0 M10.17 -0.56 C12.2 -0.42, 14.94 1.53, 16.3 3.38 C17.66 5.23, 18.22 8.17, 18.31 10.53 C18.4 12.88, 17.98 15.81, 16.84 17.5 C15.7 19.19, 13.58 20.22, 11.49 20.68 C9.41 21.13, 6.19 21.14, 4.32 20.22 C2.45 19.3, 0.88 17.32, 0.29 15.15 C-0.31 12.98, 0.1 9.49, 0.74 7.19 C1.39 4.9, 2.64 2.66, 4.15 1.36 C5.67 0.06, 8.8 -0.41, 9.84 -0.6 C10.88 -0.79, 10.23 -0.05, 10.37 0.24" stroke="none" stroke-width="0" fill="#868e96"></path><path d="M11.58 0.55 C13.37 0.82, 15.53 2.22, 16.6 3.88 C17.66 5.54, 18.1 8.26, 17.98 10.53 C17.85 12.79, 17.08 15.8, 15.84 17.47 C14.59 19.15, 12.37 20.31, 10.51 20.59 C8.65 20.86, 6.37 20.22, 4.68 19.13 C2.98 18.04, 0.93 16.11, 0.35 14.06 C-0.24 12.01, 0.43 8.89, 1.16 6.81 C1.89 4.73, 2.99 2.73, 4.72 1.59 C6.45 0.45, 10.48 0.15, 11.55 -0.03 C12.63 -0.21, 11.31 0.31, 11.18 0.5 M8.74 -0.73 C10.53 -0.89, 13.21 0.99, 14.88 2.45 C16.55 3.9, 18.49 5.76, 18.76 8.01 C19.03 10.26, 17.64 13.95, 16.49 15.95 C15.34 17.95, 13.53 19.22, 11.86 20.02 C10.19 20.81, 8.14 21.37, 6.46 20.74 C4.78 20.11, 2.83 18.16, 1.78 16.24 C0.73 14.32, -0.2 11.38, 0.14 9.21 C0.49 7.04, 2.25 4.64, 3.83 3.2 C5.41 1.76, 8.64 0.98, 9.64 0.57 C10.64 0.15, 9.98 0.64, 9.81 0.68" stroke="#868e96" stroke-width="4" fill="none"></path></g><g stroke-linecap="round"><g transform="translate(520.7624464154258 618.7545197104807) rotate(344.99186980029066 -80.23980410872332 -58.278101601214104)"><path d="M0 0 C3.72 -8.61, 7.92 -19.15, 15.04 -28.55 M0 0 C5.68 -11.66, 10.34 -21.01, 15.04 -28.55 M15.04 -28.55 C-31.64 -51.76, -73.88 -76.92, -157.46 -116.56 M15.04 -28.55 C-36.06 -55.95, -88.15 -81.49, -157.46 -116.56 M-157.46 -116.56 C-163.04 -108.71, -167.22 -100.16, -175.52 -89.06 M-157.46 -116.56 C-161.96 -110.21, -167.14 -103.33, -175.52 -89.06 M-175.52 -89.06 C-133.89 -67.51, -90.62 -43.23, 0 0 M-175.52 -89.06 C-137.32 -67.45, -97.58 -49, 0 0" stroke="#868e96" stroke-width="4" fill="none"></path></g></g><mask></mask><g stroke-linecap="round" transform="translate(509.9427622282958 568.4772332789893) rotate(15.808360186649109 6.0376865399832695 7.421122622171055)"><path d="M5.03 0.63 C6.17 0.14, 7.7 0.15, 8.76 0.85 C9.83 1.56, 10.86 3.32, 11.4 4.83 C11.94 6.34, 12.27 8.49, 12 9.92 C11.72 11.34, 10.8 12.6, 9.75 13.36 C8.7 14.13, 7.09 14.7, 5.7 14.52 C4.31 14.35, 2.4 13.47, 1.4 12.31 C0.39 11.14, -0.26 9.09, -0.33 7.54 C-0.39 6, 0.1 4.2, 1.01 3.04 C1.92 1.89, 4.4 1.06, 5.15 0.62 C5.9 0.18, 5.62 0.4, 5.53 0.42 M5.78 -0.12 C6.85 -0.23, 8.43 0.98, 9.34 1.94 C10.26 2.91, 10.98 4.13, 11.29 5.66 C11.6 7.19, 11.78 9.6, 11.21 11.11 C10.63 12.63, 8.99 14.18, 7.85 14.74 C6.71 15.29, 5.62 14.87, 4.36 14.42 C3.1 13.98, 0.94 13.29, 0.29 12.07 C-0.35 10.85, 0.12 8.77, 0.51 7.13 C0.9 5.49, 1.85 3.4, 2.62 2.22 C3.38 1.04, 4.64 0.43, 5.11 0.04 C5.58 -0.34, 5.24 -0.3, 5.43 -0.11" stroke="none" stroke-width="0" fill="#868e96"></path><path d="M6.96 0.12 C8.09 0.22, 9.9 1.28, 10.72 2.5 C11.55 3.72, 11.96 5.73, 11.93 7.44 C11.89 9.15, 11.36 11.55, 10.51 12.78 C9.66 14.01, 8.08 14.71, 6.82 14.8 C5.57 14.9, 4.09 14.16, 2.99 13.34 C1.9 12.51, 0.63 11.36, 0.25 9.85 C-0.12 8.34, 0.27 5.79, 0.75 4.28 C1.23 2.76, 2.02 1.37, 3.16 0.76 C4.3 0.14, 6.89 0.66, 7.56 0.59 C8.24 0.52, 7.31 0.3, 7.23 0.32 M5.72 -0.56 C6.94 -0.68, 9.42 0.83, 10.33 2.01 C11.25 3.19, 10.95 5.01, 11.22 6.53 C11.49 8.04, 12.57 9.94, 11.95 11.12 C11.33 12.31, 8.75 13.21, 7.48 13.65 C6.22 14.08, 5.5 14.21, 4.37 13.76 C3.24 13.3, 1.5 12.06, 0.7 10.92 C-0.1 9.79, -0.72 8.34, -0.43 6.93 C-0.13 5.52, 1.5 3.61, 2.5 2.44 C3.5 1.27, 5.13 0.35, 5.59 -0.08 C6.05 -0.51, 5.21 -0.27, 5.25 -0.12" stroke="#868e96" stroke-width="4" fill="none"></path></g><g stroke-linecap="round"><g transform="translate(348.22143436960437 537.4416507370936) rotate(0 -25.457083586205727 -5.379810454561607)"><path d="M0 0 C-19.38 -5.14, -36.27 -5.81, -50.91 -10.76 M0 0 C-18.12 -3.03, -35.22 -7.63, -50.91 -10.76" stroke="#868e96" stroke-width="4" fill="none"></path></g></g><mask></mask><g stroke-linecap="round"><g transform="translate(147.53672103899567 457.69001768393457) rotate(0 172.63161281463908 43.46158635121188)"><path d="M0 0 C121.25 31.84, 241.31 62.11, 345.26 86.92 M0 0 C94.61 23.96, 190.07 48.19, 345.26 86.92" stroke="#f08c00" stroke-width="4" fill="none"></path></g></g><mask></mask><g stroke-linecap="round"><g transform="translate(225.36358895888316 402.0349867944607) rotate(0 -6.5448288426849786 -41.224557325729364)"><path d="M0 0 C-3.5 -18.1, -5.21 -33.76, -13.09 -82.45 M0 0 C-3.72 -30.53, -8.95 -59.79, -13.09 -82.45" stroke="#1e1e1e" stroke-width="4" fill="none"></path></g><g transform="translate(225.36358895888316 402.0349867944607) rotate(0 -6.5448288426849786 -41.224557325729364)"><path d="M-0.53 -60.83 C-4.41 -65.89, -6.01 -68.5, -13.09 -82.45 M-0.53 -60.83 C-4.42 -69.25, -9.47 -76.4, -13.09 -82.45" stroke="#1e1e1e" stroke-width="4" fill="none"></path></g><g transform="translate(225.36358895888316 402.0349867944607) rotate(0 -6.5448288426849786 -41.224557325729364)"><path d="M-17.36 -57.82 C-17.61 -63.47, -15.6 -66.73, -13.09 -82.45 M-17.36 -57.82 C-15.12 -67.21, -14.04 -75.45, -13.09 -82.45" stroke="#1e1e1e" stroke-width="4" fill="none"></path></g></g><mask></mask><g transform="translate(237.13150927885613 321.6692090706732) rotate(0 215.19390869140625 35)"><text x="0" y="24.528" font-family="Virgil, Segoe UI Emoji" font-size="28px" fill="#1e1e1e" text-anchor="start" style="white-space: pre;" direction="ltr" dominant-baseline="alphabetic">C-channel arm extends upwards</text><text x="0" y="59.528" font-family="Virgil, Segoe UI Emoji" font-size="28px" fill="#1e1e1e" text-anchor="start" style="white-space: pre;" direction="ltr" dominant-baseline="alphabetic">due to piston.</text></g><g transform="translate(1087.4923122227822 211.7108966256142) rotate(0 112.05594635009766 70)"><text x="0" y="24.528" font-family="Virgil, Segoe UI Emoji" font-size="28px" fill="#1e1e1e" text-anchor="start" style="white-space: pre;" direction="ltr" dominant-baseline="alphabetic">C-channel arm</text><text x="0" y="59.528" font-family="Virgil, Segoe UI Emoji" font-size="28px" fill="#1e1e1e" text-anchor="start" style="white-space: pre;" direction="ltr" dominant-baseline="alphabetic">laches unto</text><text x="0" y="94.52799999999999" font-family="Virgil, Segoe UI Emoji" font-size="28px" fill="#1e1e1e" text-anchor="start" style="white-space: pre;" direction="ltr" dominant-baseline="alphabetic">top of elevation</text><text x="0" y="129.528" font-family="Virgil, Segoe UI Emoji" font-size="28px" fill="#1e1e1e" text-anchor="start" style="white-space: pre;" direction="ltr" dominant-baseline="alphabetic">bar.</text></g><g stroke-linecap="round"><g transform="translate(1794.4908288135646 250.31169142006408) rotate(345.92301247985984 -80.23980410872332 -58.278101601214104)"><path d="M0 0 C4.6 -8.35, 10.82 -17.89, 15.04 -28.55 M0 0 C4.93 -7.74, 8.68 -15.92, 15.04 -28.55 M15.04 -28.55 C-41.92 -57, -102.7 -89.79, -157.46 -116.56 M15.04 -28.55 C-45.53 -58.72, -106.24 -90.43, -157.46 -116.56 M-157.46 -116.56 C-163.08 -109.22, -166.9 -102.35, -175.52 -89.06 M-157.46 -116.56 C-165.01 -107.23, -170.11 -96.59, -175.52 -89.06 M-175.52 -89.06 C-109.17 -56.25, -43.31 -22.13, 0 0 M-175.52 -89.06 C-127.51 -64.03, -79.56 -40.12, 0 0" stroke="#868e96" stroke-width="4" fill="none"></path></g></g><mask></mask><g stroke-linecap="round" transform="translate(1783.701985540744 200.96707121360348) rotate(16.739502866218363 6.0376865399832695 7.421122622171055)"><path d="M5.14 -0.15 C6.26 -0.52, 7.86 0.04, 8.93 0.78 C10 1.52, 11.09 2.86, 11.55 4.3 C12 5.74, 12.11 7.93, 11.66 9.43 C11.21 10.92, 9.92 12.38, 8.86 13.27 C7.8 14.17, 6.57 15.04, 5.28 14.81 C4 14.59, 1.95 13.18, 1.13 11.94 C0.3 10.7, 0.38 8.81, 0.34 7.36 C0.3 5.92, 0.09 4.51, 0.91 3.28 C1.73 2.04, 4.57 0.43, 5.25 -0.05 C5.94 -0.52, 5.03 0.33, 5.01 0.43 M5.93 0.22 C7.35 0.17, 9.64 0.57, 10.57 1.54 C11.5 2.52, 11.4 4.53, 11.51 6.08 C11.62 7.62, 11.79 9.42, 11.23 10.82 C10.67 12.21, 9.31 13.78, 8.15 14.45 C6.99 15.13, 5.47 15.37, 4.24 14.85 C3.02 14.33, 1.37 12.89, 0.8 11.33 C0.22 9.78, 0.63 7.05, 0.78 5.54 C0.93 4.03, 0.8 3.15, 1.69 2.27 C2.59 1.4, 5.43 0.64, 6.16 0.3 C6.9 -0.03, 6.09 0.2, 6.11 0.28" stroke="none" stroke-width="0" fill="#868e96"></path><path d="M6.71 0.28 C7.99 0.38, 9.7 1.09, 10.64 2.24 C11.57 3.38, 12.25 5.54, 12.32 7.14 C12.38 8.74, 11.76 10.53, 11.03 11.84 C10.3 13.14, 9.21 14.66, 7.91 14.96 C6.61 15.27, 4.43 14.43, 3.24 13.67 C2.05 12.91, 1.24 11.78, 0.77 10.42 C0.31 9.06, 0.11 7.01, 0.45 5.53 C0.78 4.05, 1.73 2.49, 2.79 1.54 C3.86 0.59, 6.15 -0.01, 6.85 -0.15 C7.54 -0.29, 6.96 0.52, 6.94 0.71 M5.14 -0.33 C6.23 -0.58, 7.93 0.24, 9.11 1.35 C10.29 2.47, 11.77 4.76, 12.25 6.35 C12.72 7.95, 12.68 9.63, 11.95 10.94 C11.22 12.25, 9.27 13.7, 7.84 14.22 C6.42 14.75, 4.66 14.61, 3.4 14.09 C2.14 13.57, 0.73 12.4, 0.28 11.11 C-0.18 9.83, 0.45 7.83, 0.67 6.4 C0.89 4.97, 0.8 3.54, 1.61 2.54 C2.42 1.53, 4.84 0.85, 5.54 0.39 C6.24 -0.08, 5.77 -0.25, 5.82 -0.24" stroke="#868e96" stroke-width="4" fill="none"></path></g><g stroke-linecap="round"><g transform="translate(1622.71855042942 166.79736313406863) rotate(360.9311426795693 -25.457083586205727 -5.379810454561607)"><path d="M0 0 C-18.07 -4.54, -35.56 -6.37, -50.91 -10.76 M0 0 C-17.27 -3.22, -35.29 -6.32, -50.91 -10.76" stroke="#868e96" stroke-width="4" fill="none"></path></g></g><mask></mask><g transform="translate(1502.8361564527906 328.8083778154716) rotate(0 188.15994262695312 35)"><text x="0" y="24.528" font-family="Virgil, Segoe UI Emoji" font-size="28px" fill="#1e1e1e" text-anchor="start" style="white-space: pre;" direction="ltr" dominant-baseline="alphabetic">Winch pulls robot to top of</text><text x="0" y="59.528" font-family="Virgil, Segoe UI Emoji" font-size="28px" fill="#1e1e1e" text-anchor="start" style="white-space: pre;" direction="ltr" dominant-baseline="alphabetic">elevation bar.</text></g><g stroke-linecap="round"><g transform="translate(1456.1676091443203 522.762788551405) rotate(0 2.1084844613164933 -109.29732040833737)"><path d="M0 0 C0.66 -45.93, 0.96 -89.96, 4.22 -218.59 M0 0 C0.47 -47.73, 2.67 -96.62, 4.22 -218.59" stroke="#1e1e1e" stroke-width="4" fill="none"></path></g><g transform="translate(1456.1676091443203 522.762788551405) rotate(0 2.1084844613164933 -109.29732040833737)"><path d="M12.38 -194.97 C11.78 -201.47, 9.47 -205.87, 4.22 -218.59 M12.38 -194.97 C9.86 -199.55, 9.51 -205.43, 4.22 -218.59" stroke="#1e1e1e" stroke-width="4" fill="none"></path></g><g transform="translate(1456.1676091443203 522.762788551405) rotate(0 2.1084844613164933 -109.29732040833737)"><path d="M-4.72 -195.25 C-1.85 -201.81, -0.68 -206.15, 4.22 -218.59 M-4.72 -195.25 C-3.46 -199.7, -0.03 -205.52, 4.22 -218.59" stroke="#1e1e1e" stroke-width="4" fill="none"></path></g></g><mask></mask><g stroke-linecap="round"><g transform="translate(1914.3157279791837 486.15387029909124) rotate(0 0.38286073182257496 -84.50134858984171)"><path d="M0 0 C-2.01 -40.15, -1.53 -80.87, 0.77 -169 M0 0 C-0.73 -41.66, -0.94 -84.84, 0.77 -169" stroke="#1e1e1e" stroke-width="4" fill="none"></path></g><g transform="translate(1914.3157279791837 486.15387029909124) rotate(0 0.38286073182257496 -84.50134858984171)"><path d="M8.94 -145.38 C5.43 -150.02, 3.72 -155.27, 0.77 -169 M8.94 -145.38 C6.64 -150.72, 4.2 -157.64, 0.77 -169" stroke="#1e1e1e" stroke-width="4" fill="none"></path></g><g transform="translate(1914.3157279791837 486.15387029909124) rotate(0 0.38286073182257496 -84.50134858984171)"><path d="M-8.16 -145.65 C-7.5 -150.28, -5.03 -155.46, 0.77 -169 M-8.16 -145.65 C-6.19 -151.02, -4.36 -157.87, 0.77 -169" stroke="#1e1e1e" stroke-width="4" fill="none"></path></g></g><mask></mask></svg>