<svg version="1.1" xmlns="http://www.w3.org/2000/svg" viewBox="0 0 1488.1640367907617 997.8055000920347" width="1488.1640367907617" height="997.8055000920347">
  <!-- svg-source:excalidraw -->
  
  <defs>
    <style class="style-fonts">
      @font-face {
        font-family: "Virgil";
        src: url("https://excalidraw.com/Virgil.woff2");
      }
      @font-face {
        font-family: "Cascadia";
        src: url("https://excalidraw.com/Cascadia.woff2");
      }
      @font-face {
        font-family: "Assistant";
        src: url("https://excalidraw.com/Assistant-Regular.woff2");
      }
    </style>
    
  </defs>
  <rect x="0" y="0" width="1488.1640367907617" height="997.8055000920347" fill="#ffffff"></rect><g stroke-linecap="round" transform="translate(446.7268654554406 218.2311809381743) rotate(0 129.1208953857422 50.656463623046875)"><path d="M6.09 6.62 C6.09 6.62, 6.09 6.62, 6.09 6.62 M6.09 6.62 C6.09 6.62, 6.09 6.62, 6.09 6.62 M0.97 24.69 C8.71 17.44, 16.16 9.53, 21.96 0.54 M0.97 24.69 C7.07 17.87, 11.19 11.82, 21.96 0.54 M1.1 36.73 C10.08 25.26, 20.44 16, 32.59 0.51 M1.1 36.73 C14.43 22.67, 26.27 8.86, 32.59 0.51 M1.24 48.78 C10.85 36.53, 20.7 29.8, 43.22 0.47 M1.24 48.78 C16.28 30.49, 33.31 12.25, 43.22 0.47 M1.37 60.82 C17.53 41.23, 33.75 20.95, 53.85 0.44 M1.37 60.82 C19.75 38.04, 39.96 16.8, 53.85 0.44 M0.85 73.61 C14.79 57.03, 31.04 37.56, 64.48 0.41 M0.85 73.61 C24.6 45.5, 49.31 17.08, 64.48 0.41 M1.64 84.9 C23.9 58.97, 49.6 30.3, 75.11 0.37 M1.64 84.9 C19.17 64.31, 35.91 44.6, 75.11 0.37 M5.05 93.17 C35.89 60.04, 65.97 24.81, 85.74 0.34 M5.05 93.17 C31.75 61.71, 59.04 30.08, 85.74 0.34 M11.09 98.41 C34.43 73.52, 54.69 49.74, 96.38 0.3 M11.09 98.41 C39.22 66.88, 66.42 35.32, 96.38 0.3 M19.75 100.64 C42.15 76.95, 60.09 56.1, 107.01 0.27 M19.75 100.64 C52.89 64.29, 83.17 26.67, 107.01 0.27 M29.72 101.36 C54.98 72.09, 79.72 42.01, 117.64 0.23 M29.72 101.36 C50.83 77.7, 72.34 52, 117.64 0.23 M40.35 101.33 C58.49 79.19, 76.26 58.39, 128.27 0.2 M40.35 101.33 C64.9 72.69, 88.92 44.36, 128.27 0.2 M50.98 101.29 C82.58 66.25, 114.32 29.41, 138.9 0.16 M50.98 101.29 C85.33 62.09, 119.6 24.71, 138.9 0.16 M61.61 101.26 C81.32 77.17, 102.98 53.58, 148.87 0.88 M61.61 101.26 C93.68 63.19, 126.09 26.38, 148.87 0.88 M72.24 101.23 C95.47 77.86, 116.23 52.02, 159.5 0.85 M72.24 101.23 C91.71 78.83, 109.51 57.35, 159.5 0.85 M82.87 101.19 C103.03 79.65, 121.43 57.64, 170.13 0.81 M82.87 101.19 C100.85 77.63, 121.34 57.31, 170.13 0.81 M92.85 101.91 C115.76 77.88, 137.79 53.12, 180.76 0.78 M92.85 101.91 C127.1 60.77, 161.8 20.11, 180.76 0.78 M103.48 101.88 C132.07 67.31, 164.99 30.46, 191.39 0.75 M103.48 101.88 C126.65 72.89, 150.55 45.29, 191.39 0.75 M114.11 101.84 C140.5 67.32, 168.79 36.41, 202.02 0.71 M114.11 101.84 C138.51 74.01, 161.85 46.13, 202.02 0.71 M124.74 101.81 C145.01 81.27, 164.48 59.15, 212.65 0.68 M124.74 101.81 C151.26 72.3, 177.51 41.76, 212.65 0.68 M135.37 101.77 C168.64 66.48, 199.52 26.96, 223.28 0.64 M135.37 101.77 C165.94 66.3, 197.14 31.39, 223.28 0.64 M146 101.74 C170.08 72.79, 196.25 43.25, 233.91 0.61 M146 101.74 C172.15 71.21, 196.57 43.81, 233.91 0.61 M156.63 101.7 C184.4 69.59, 211.88 36.92, 243.88 1.33 M156.63 101.7 C177.69 75.73, 198.98 52.87, 243.88 1.33 M167.26 101.67 C187.76 79.29, 207.59 52.64, 250.58 5.82 M167.26 101.67 C199.76 64.13, 231.37 27.88, 250.58 5.82 M177.89 101.64 C199.12 77.34, 216.55 57.6, 255.3 12.58 M177.89 101.64 C204.36 71.13, 231.41 39.91, 255.3 12.58 M188.52 101.6 C206.35 79.01, 223.6 57.53, 258.06 21.6 M188.52 101.6 C213.18 73.95, 237 44.74, 258.06 21.6 M199.15 101.57 C215.64 80.71, 235.15 62.57, 258.19 33.64 M199.15 101.57 C216.83 82.15, 234.68 61.57, 258.19 33.64 M209.78 101.53 C224.69 85.57, 238.05 71.96, 258.33 45.68 M209.78 101.53 C224 86.5, 236.84 69.31, 258.33 45.68 M220.41 101.5 C234.28 86.79, 246.55 72.54, 258.46 57.72 M220.41 101.5 C235.77 83.57, 249.42 66.52, 258.46 57.72 M231.04 101.46 C240.64 90.8, 249.37 77.5, 258.59 69.77 M231.04 101.46 C240 91.75, 247.84 81.77, 258.59 69.77 M243.64 99.16 C246.79 94.61, 249.69 90.14, 257.41 83.32 M243.64 99.16 C249.03 93.69, 252.97 88.07, 257.41 83.32" stroke="#1e1e1e" stroke-width="1" fill="none"></path><path d="M25.33 0 C66.16 -0.08, 107.61 -0.73, 232.91 0 M25.33 0 C75.19 -0.84, 123.86 -1.7, 232.91 0 M232.91 0 C250.15 0.56, 260.21 9.62, 258.24 25.33 M232.91 0 C250.69 1.71, 257.99 7.06, 258.24 25.33 M258.24 25.33 C257.4 41.07, 257.96 57.93, 258.24 75.98 M258.24 25.33 C257.44 36.35, 256.98 49, 258.24 75.98 M258.24 75.98 C257.98 92.43, 249.26 101.48, 232.91 101.31 M258.24 75.98 C260.17 94.95, 251.8 99.5, 232.91 101.31 M232.91 101.31 C184.37 101.27, 132.9 98.72, 25.33 101.31 M232.91 101.31 C185.59 102.09, 137.79 100.98, 25.33 101.31 M25.33 101.31 C8.36 102, -0.05 91.45, 0 75.98 M25.33 101.31 C7.64 102.44, 0.99 90.91, 0 75.98 M0 75.98 C1.8 63.57, -0.55 51.73, 0 25.33 M0 75.98 C-0.72 56.72, 0.07 36.17, 0 25.33 M0 25.33 C0.99 8.98, 8.06 0.16, 25.33 0 M0 25.33 C-1.15 10.54, 6.96 -2.06, 25.33 0" stroke="#1e1e1e" stroke-width="2" fill="none"></path></g><g stroke-linecap="round" transform="translate(159.57056865387324 191.3762600740693) rotate(0 45.626708984375 63.708946228027344)"><path d="M2.96 9.2 C2.96 9.2, 2.96 9.2, 2.96 9.2 M2.96 9.2 C2.96 9.2, 2.96 9.2, 2.96 9.2 M3.75 20.48 C8.25 15.1, 12.24 12.24, 14.25 8.41 M3.75 20.48 C8.31 15.83, 11.72 10.68, 14.25 8.41 M3.88 32.52 C10.74 27.03, 14.41 17.8, 28.16 4.6 M3.88 32.52 C12.47 21.44, 23.09 9.71, 28.16 4.6 M3.36 45.32 C16.72 31.31, 28.79 16.32, 38.79 4.57 M3.36 45.32 C11.01 36.15, 20.58 27.09, 38.79 4.57 M3.49 57.36 C14.04 43.64, 27.31 29.37, 49.42 4.53 M3.49 57.36 C15.22 42.33, 28.68 28.67, 49.42 4.53 M3.63 69.4 C19.28 49.65, 34.72 33.39, 60.05 4.5 M3.63 69.4 C21.61 48.86, 40.94 27.38, 60.05 4.5 M3.76 81.44 C19.13 61.64, 34.29 46.77, 73.96 0.69 M3.76 81.44 C18.21 64.81, 31.59 47.79, 73.96 0.69 M3.24 94.24 C28.9 64.91, 53.86 34.99, 82.62 2.92 M3.24 94.24 C21.7 72.51, 39.26 50.87, 82.62 2.92 M2.71 107.03 C26.48 78.79, 52.81 50.62, 88 8.92 M2.71 107.03 C27.62 79.3, 52.28 51.13, 88 8.92 M3.5 118.32 C41.53 76.34, 77.54 35.23, 94.04 14.17 M3.5 118.32 C28.28 90.25, 52.76 61.33, 94.04 14.17 M8.88 124.32 C41.63 84.33, 79.34 45.27, 94.83 25.46 M8.88 124.32 C39.53 88.48, 71.13 52.24, 94.83 25.46 M16.89 127.31 C47.44 92.71, 77.55 61.21, 94.3 38.25 M16.89 127.31 C39.2 102.43, 59.94 78.26, 94.3 38.25 M23.58 131.8 C43.83 106.2, 67.9 80.6, 94.44 50.29 M23.58 131.8 C47.09 105.86, 68.64 80.47, 94.44 50.29 M33.56 132.52 C51.01 116.98, 62.11 100.14, 94.57 62.33 M33.56 132.52 C49.32 114.51, 65.42 95.66, 94.57 62.33 M44.19 132.49 C61.83 115.87, 73.8 98.52, 94.7 74.37 M44.19 132.49 C62.63 109.87, 81 88.69, 94.7 74.37 M54.82 132.45 C66.58 119.79, 79.98 102.26, 94.84 86.42 M54.82 132.45 C67.27 116.58, 81.15 102.86, 94.84 86.42 M69.38 127.89 C78.79 118.79, 84.27 110.75, 94.31 99.21 M69.38 127.89 C79.86 117.2, 88.28 106.12, 94.31 99.21" stroke="#ffc9c9" stroke-width="1" fill="none"></path><path d="M22.81 0 C40.02 1.62, 55.06 -0.55, 68.44 0 M22.81 0 C31.8 -0.01, 42.15 0.15, 68.44 0 M68.44 0 C82.47 -1.93, 91.23 6.87, 91.25 22.81 M68.44 0 C82.76 -1.61, 90.35 8.15, 91.25 22.81 M91.25 22.81 C89.29 52.61, 92.42 82.6, 91.25 104.6 M91.25 22.81 C90.18 52.44, 90.91 81.4, 91.25 104.6 M91.25 104.6 C93.15 119.43, 83.9 128.45, 68.44 127.42 M91.25 104.6 C92.77 121.87, 83.36 126.01, 68.44 127.42 M68.44 127.42 C55.27 126.27, 40.65 126.08, 22.81 127.42 M68.44 127.42 C50.94 127.37, 31.9 127.42, 22.81 127.42 M22.81 127.42 C8.79 128.56, -0.36 119.69, 0 104.6 M22.81 127.42 C8.38 125.93, -1.41 120.1, 0 104.6 M0 104.6 C0.51 78.95, 0.35 53.41, 0 22.81 M0 104.6 C0.01 76.21, -0.44 48.28, 0 22.81 M0 22.81 C0.67 7.41, 9.22 -0.29, 22.81 0 M0 22.81 C0.24 6.6, 8.25 1.8, 22.81 0" stroke="#f08c00" stroke-width="2" fill="none"></path></g><g stroke-linecap="round" transform="translate(272.22713226967244 192.32847789137583) rotate(0 45.626708984375 63.708946228027344)"><path d="M2.96 9.2 C2.96 9.2, 2.96 9.2, 2.96 9.2 M2.96 9.2 C2.96 9.2, 2.96 9.2, 2.96 9.2 M3.75 20.48 C5.83 17.53, 9.18 13.3, 14.25 8.41 M3.75 20.48 C5.69 17.57, 8.98 15, 14.25 8.41 M3.88 32.52 C11 23.01, 18.41 13.41, 28.16 4.6 M3.88 32.52 C12.36 22.26, 21.96 12.29, 28.16 4.6 M3.36 45.32 C10.16 34.04, 21.74 25.41, 38.79 4.57 M3.36 45.32 C12.11 36.23, 19.43 26.33, 38.79 4.57 M3.49 57.36 C15.59 44.81, 24.01 35.05, 49.42 4.53 M3.49 57.36 C21.06 38.49, 37.05 19.26, 49.42 4.53 M3.63 69.4 C26.11 44.2, 46.89 18.73, 60.05 4.5 M3.63 69.4 C20.62 49.3, 38.07 29.41, 60.05 4.5 M3.76 81.44 C30.32 50.32, 57.53 21.45, 73.96 0.69 M3.76 81.44 C28.22 54.8, 52.32 26.25, 73.96 0.69 M3.24 94.24 C30.18 63.17, 55.94 34.76, 82.62 2.92 M3.24 94.24 C29.75 62.38, 56.43 32.2, 82.62 2.92 M2.71 107.03 C34.16 71.41, 65.42 35.58, 88 8.92 M2.71 107.03 C28.23 79.41, 52.41 50.6, 88 8.92 M3.5 118.32 C26.73 92.63, 46.56 68.17, 94.04 14.17 M3.5 118.32 C38.58 80.9, 72.31 42.34, 94.04 14.17 M8.88 124.32 C31.72 97.49, 51.67 74.26, 94.83 25.46 M8.88 124.32 C30.87 99.24, 53.71 72.83, 94.83 25.46 M16.89 127.31 C30.87 107.61, 47.38 90.58, 94.3 38.25 M16.89 127.31 C45.39 95.14, 72.56 61.69, 94.3 38.25 M23.58 131.8 C48.28 103.32, 72.48 72.48, 94.44 50.29 M23.58 131.8 C40.12 112.87, 55.66 96.8, 94.44 50.29 M33.56 132.52 C58.2 104.22, 83.37 76.91, 94.57 62.33 M33.56 132.52 C49.46 115.55, 64.13 97.03, 94.57 62.33 M44.19 132.49 C56.94 119.81, 66.41 106.68, 94.7 74.37 M44.19 132.49 C62.38 111.18, 81.7 88.79, 94.7 74.37 M54.82 132.45 C63.95 122.25, 76.04 109.01, 94.84 86.42 M54.82 132.45 C62.69 121.2, 72.03 110.69, 94.84 86.42 M69.38 127.89 C73.26 120.24, 78.93 115.21, 94.31 99.21 M69.38 127.89 C77.19 119.78, 84.35 112.04, 94.31 99.21" stroke="#a5d8ff" stroke-width="1" fill="none"></path><path d="M22.81 0 C36.67 1.28, 47.9 1.79, 68.44 0 M22.81 0 C39.14 0.57, 56.55 0.5, 68.44 0 M68.44 0 C84.33 1.79, 92.31 6.28, 91.25 22.81 M68.44 0 C84.2 0.3, 89.56 9.27, 91.25 22.81 M91.25 22.81 C88.78 44.68, 88.78 66.95, 91.25 104.6 M91.25 22.81 C92.61 52.44, 91.79 82.95, 91.25 104.6 M91.25 104.6 C89.73 119.04, 84.63 128.65, 68.44 127.42 M91.25 104.6 C91.57 121.61, 81.74 125.93, 68.44 127.42 M68.44 127.42 C50.6 125.87, 35.79 128.6, 22.81 127.42 M68.44 127.42 C57.91 126.52, 48.55 127.57, 22.81 127.42 M22.81 127.42 C9.25 126.96, 0.71 118.46, 0 104.6 M22.81 127.42 C5.92 125.29, 0.75 122.03, 0 104.6 M0 104.6 C-2.08 89.13, 1.09 70.04, 0 22.81 M0 104.6 C-0.51 76.9, -0.67 46.7, 0 22.81 M0 22.81 C0.62 9.58, 7.94 0.74, 22.81 0 M0 22.81 C0.05 8, 7.67 2.16, 22.81 0" stroke="#1971c2" stroke-width="2" fill="none"></path></g><g stroke-linecap="round" transform="translate(530.7501034171048 215.04558074353542) rotate(0 48.875721243546536 24.44446966177952)"><path d="M12.22 0 C30.9 -0.12, 52.33 -1.82, 85.53 0 C90.08 0.31, 94.23 0.69, 97.75 12.22 C100.38 16.76, 99 26.29, 97.75 36.67 C97.87 47.71, 94.3 49.25, 85.53 48.89 C59.36 48.96, 27.65 47.11, 12.22 48.89 C2.06 51.53, 2.06 45.27, 0 36.67 C-1.87 28.75, -3.16 20.3, 0 12.22 C-0.87 1.35, 4.23 -2.24, 12.22 0" stroke="none" stroke-width="0" fill="#ffffff"></path><path d="M12.22 0 C31.42 0.34, 50.47 0.8, 85.53 0 M12.22 0 C38.2 -0.33, 64.24 -0.55, 85.53 0 M85.53 0 C92.5 0.85, 98.47 4.82, 97.75 12.22 M85.53 0 C95.87 -1.28, 98.31 5.76, 97.75 12.22 M97.75 12.22 C99.6 19.86, 98.02 25.89, 97.75 36.67 M97.75 12.22 C97.25 18.42, 98.1 25.1, 97.75 36.67 M97.75 36.67 C96.56 43.51, 94.57 50.81, 85.53 48.89 M97.75 36.67 C96.45 46.47, 92.16 50.63, 85.53 48.89 M85.53 48.89 C66.89 46.48, 50.59 49.12, 12.22 48.89 M85.53 48.89 C63.21 49.36, 39.67 48.69, 12.22 48.89 M12.22 48.89 C6.04 48.27, 0.29 44.87, 0 36.67 M12.22 48.89 C3.83 47.75, -0.58 45.29, 0 36.67 M0 36.67 C1.01 27.69, 0.89 19.78, 0 12.22 M0 36.67 C-0.17 29.68, -0.08 22.54, 0 12.22 M0 12.22 C-0.08 2.28, 5.76 -0.48, 12.22 0 M0 12.22 C1.94 2.91, 3.18 0.54, 12.22 0" stroke="#1e1e1e" stroke-width="1" fill="none"></path></g><g transform="translate(541.143139384701 233.60563033262568) rotate(0 35.29996610422205 -16.68799120104684)" stroke="none"><path fill="#ffffff" d="M -9.21,0 Q -9.21,0 -9.32,-0.79 -9.42,-1.58 -9.74,-6.44 -10.05,-11.30 -10.30,-15.65 -10.56,-20.00 -10.40,-24.38 -10.25,-28.75 -10.46,-31.02 -10.67,-33.29 -10.48,-34.82 -10.30,-36.35 -9.75,-37.79 -9.21,-39.23 -8.33,-40.50 -7.45,-41.77 -6.30,-42.79 -5.15,-43.81 -3.78,-44.53 -2.42,-45.24 -0.92,-45.61 0.56,-45.98 2.10,-45.98 3.64,-45.98 5.14,-45.61 6.63,-45.24 8.00,-44.53 9.36,-43.81 10.52,-42.79 11.67,-41.77 12.54,-40.50 13.42,-39.23 13.97,-37.79 14.51,-36.35 14.70,-34.82 14.88,-33.29 17.09,-28.66 19.29,-24.03 16.59,-27.62 13.88,-31.21 18.18,-31.42 22.47,-31.63 27.41,-31.19 32.34,-30.76 36.96,-30.90 41.57,-31.04 46.25,-30.52 50.92,-30.01 56.25,-29.35 61.57,-28.69 65.00,-25.89 68.42,-23.09 71.01,-19.71 73.60,-16.33 66.91,-15.91 60.23,-15.48 57.57,-12.15 54.91,-8.81 54.99,-13.13 55.06,-17.45 54.89,-21.70 54.72,-25.95 54.59,-27.00 54.46,-28.06 54.64,-30.58 54.82,-33.10 55.79,-35.43 56.77,-37.76 58.44,-39.66 60.10,-41.55 62.29,-42.82 64.48,-44.08 66.95,-44.58 69.43,-45.08 71.93,-44.77 74.44,-44.45 76.71,-43.35 78.99,-42.25 80.79,-40.48 82.59,-38.71 83.74,-36.46 84.88,-34.21 85.25,-31.71 85.61,-29.21 85.16,-26.73 84.71,-24.24 83.49,-22.03 82.27,-19.82 80.40,-18.12 78.54,-16.41 76.23,-15.39 73.92,-14.37 71.40,-14.14 68.89,-13.91 66.43,-14.50 63.98,-15.08 61.83,-16.42 59.69,-17.76 58.09,-19.72 56.49,-21.67 55.60,-24.03 54.70,-26.39 54.61,-28.92 54.52,-31.44 55.23,-33.86 55.95,-36.28 57.41,-38.35 58.86,-40.41 60.90,-41.91 62.93,-43.40 65.34,-44.17 67.75,-44.93 70.27,-44.89 72.80,-44.84 75.18,-43.99 77.56,-43.15 79.54,-41.58 81.52,-40.02 82.90,-37.90 84.28,-35.79 84.92,-33.34 85.55,-30.90 85.55,-30.90 85.55,-30.90 85.73,-27.29 85.91,-23.67 85.99,-19.16 86.08,-14.64 85.47,-10.17 84.87,-5.69 84.14,-1.48 83.42,2.71 80.63,6.21 77.85,9.70 71.15,11.07 64.46,12.43 59.53,10.04 54.61,7.65 51.50,4.16 48.38,0.67 45.81,-2.89 43.25,-6.47 47.95,-3.39 52.66,-0.31 48.08,-0.79 43.50,-1.28 39.05,-1.46 34.60,-1.65 29.89,-2.08 25.18,-2.52 20.95,-3.04 16.72,-3.56 12.32,-4.73 7.92,-5.89 3.77,-6.97 -0.38,-8.06 -3.59,-12.00 -6.81,-15.95 -8.64,-20.27 -10.47,-24.59 -10.57,-28.94 -10.67,-33.29 -10.48,-34.82 -10.30,-36.35 -9.75,-37.79 -9.21,-39.23 -8.33,-40.50 -7.46,-41.77 -6.30,-42.79 -5.15,-43.81 -3.79,-44.53 -2.42,-45.24 -0.93,-45.61 0.56,-45.98 2.10,-45.98 3.64,-45.98 5.14,-45.61 6.63,-45.24 8.00,-44.53 9.36,-43.81 10.51,-42.79 11.67,-41.77 12.54,-40.50 13.42,-39.23 13.96,-37.79 14.51,-36.35 14.70,-34.82 14.88,-33.29 14.67,-30.66 14.45,-28.03 13.52,-23.59 12.58,-19.16 11.95,-14.78 11.33,-10.40 10.38,-5.99 9.42,-1.58 9.32,-0.79 9.21,0 9.07,1.10 8.94,2.20 8.55,3.24 8.15,4.28 7.52,5.19 6.89,6.10 6.06,6.84 5.23,7.58 4.24,8.09 3.26,8.61 2.18,8.87 1.10,9.14 -0.00,9.14 -1.11,9.14 -2.18,8.87 -3.26,8.61 -4.25,8.09 -5.23,7.58 -6.06,6.84 -6.89,6.10 -7.52,5.19 -8.15,4.28 -8.55,3.24 -8.94,2.20 -9.07,1.10 -9.21,-0.00 -9.21,-0.00 L -9.21,0 Z"></path></g><g transform="translate(614.2851146146293 224.44771208417683) rotate(0 1.7007237678651563 -13.81331313427171)" stroke="none"><path fill="#ffffff" d="M -3.04,-8.51 Q -3.04,-8.51 -2.59,-8.75 -2.14,-8.99 -0.40,-9.45 1.33,-9.91 2.45,-9.85 3.58,-9.79 4.66,-9.46 5.73,-9.13 6.70,-8.55 7.67,-7.97 8.47,-7.18 9.27,-6.39 9.86,-5.43 10.45,-4.46 10.79,-3.39 11.13,-2.32 11.21,-1.19 11.28,-0.07 11.08,1.03 10.89,2.14 10.43,3.18 9.97,4.21 9.28,5.10 8.59,5.99 7.71,6.69 6.82,7.39 5.80,7.86 4.77,8.32 3.66,8.53 2.56,8.74 1.94,-0.58 1.32,-9.90 2.45,-9.84 3.57,-9.78 4.65,-9.45 5.72,-9.12 6.69,-8.54 7.66,-7.97 8.46,-7.18 9.26,-6.38 9.85,-5.42 10.44,-4.46 10.78,-3.39 11.12,-2.31 11.19,-1.19 11.26,-0.07 11.07,1.03 10.87,2.14 10.41,3.17 9.96,4.20 9.27,5.09 8.58,5.98 7.69,6.68 6.81,7.38 5.79,7.85 4.76,8.32 3.66,8.52 2.55,8.73 2.20,-0.59 1.86,-9.93 6.48,-6.81 11.10,-3.69 11.37,1.04 11.63,5.77 11.12,1.43 10.60,-2.90 6.88,-5.02 3.15,-7.14 3.26,-7.16 3.37,-7.17 4.56,-7.02 5.76,-6.88 6.88,-6.45 8.01,-6.02 9.00,-5.33 9.99,-4.65 10.78,-3.74 11.58,-2.84 12.14,-1.77 12.70,-0.71 12.98,0.45 13.27,1.62 13.27,2.83 13.26,4.03 12.97,5.20 12.68,6.37 12.12,7.44 11.56,8.50 10.76,9.40 9.96,10.30 8.97,10.98 7.97,11.67 6.85,12.09 5.72,12.52 4.52,12.66 3.33,12.80 -1.49,8.12 -6.33,3.45 -7.00,-0.75 -7.68,-4.96 -9.04,-9.15 -10.40,-13.33 -10.90,-17.68 -11.40,-22.03 -8.46,-20.41 -5.52,-18.80 -7.22,-20.02 -8.93,-21.24 -10.15,-22.94 -11.38,-24.65 -11.99,-26.65 -12.61,-28.66 -12.55,-30.75 -12.49,-32.85 -11.77,-34.82 -11.05,-36.79 -9.74,-38.42 -8.42,-40.06 -6.66,-41.19 -4.89,-42.32 -2.85,-42.82 -0.82,-43.33 1.26,-43.16 3.35,-42.99 5.28,-42.16 7.21,-41.33 8.77,-39.93 10.33,-38.53 11.36,-36.71 12.39,-34.88 12.79,-32.82 13.18,-30.76 12.90,-28.68 12.62,-26.61 11.69,-24.73 10.75,-22.85 9.27,-21.37 7.79,-19.88 5.91,-18.95 4.03,-18.02 1.95,-17.74 -0.11,-17.45 -2.17,-17.85 -4.23,-18.24 -6.06,-19.27 -7.88,-20.31 -9.29,-21.87 -10.69,-23.43 -11.51,-25.35 -12.34,-27.28 -12.51,-29.37 -12.68,-31.46 -12.18,-33.50 -11.67,-35.53 -10.54,-37.30 -9.41,-39.07 -7.78,-40.38 -6.14,-41.69 -4.17,-42.42 -2.21,-43.14 -0.11,-43.20 1.98,-43.25 3.98,-42.64 5.99,-42.02 5.98,-42.02 5.98,-42.02 9.54,-32.83 13.09,-23.64 12.63,-19.35 12.17,-15.05 13.28,-10.68 14.40,-6.30 13.71,-2.06 13.02,2.17 8.19,-2.49 3.37,-7.17 4.56,-7.02 5.76,-6.88 6.88,-6.45 8.01,-6.02 9.00,-5.33 9.99,-4.65 10.78,-3.74 11.58,-2.84 12.14,-1.77 12.70,-0.71 12.98,0.45 13.27,1.62 13.27,2.83 13.26,4.03 12.97,5.20 12.68,6.37 12.12,7.44 11.56,8.50 10.76,9.40 9.96,10.30 8.97,10.98 7.97,11.67 6.85,12.09 5.72,12.52 4.52,12.66 3.33,12.80 0.29,11.87 -2.74,10.93 -4.66,6.79 -6.57,2.65 -2.24,5.70 2.07,8.76 1.70,-0.57 1.32,-9.90 2.44,-9.84 3.57,-9.78 4.65,-9.45 5.72,-9.12 6.69,-8.55 7.66,-7.97 8.46,-7.18 9.26,-6.38 9.85,-5.42 10.43,-4.46 10.78,-3.39 11.12,-2.32 11.19,-1.19 11.26,-0.07 11.07,1.03 10.87,2.14 10.41,3.17 9.96,4.20 9.27,5.09 8.58,5.98 7.70,6.68 6.81,7.38 5.79,7.85 4.76,8.31 3.66,8.52 2.55,8.73 1.94,-0.58 1.33,-9.91 2.45,-9.85 3.58,-9.79 4.66,-9.46 5.73,-9.13 6.70,-8.55 7.67,-7.97 8.47,-7.18 9.27,-6.39 9.86,-5.43 10.45,-4.47 10.79,-3.39 11.13,-2.32 11.21,-1.19 11.28,-0.07 11.08,1.03 10.89,2.14 10.43,3.17 9.97,4.20 9.28,5.10 8.59,5.99 7.71,6.69 6.82,7.39 5.80,7.86 4.77,8.32 3.66,8.53 2.56,8.74 3.29,8.53 4.03,8.32 3.53,8.41 3.04,8.51 1.97,8.75 0.91,8.99 -0.17,8.97 -1.26,8.95 -2.31,8.67 -3.37,8.39 -4.32,7.86 -5.28,7.34 -6.08,6.60 -6.88,5.86 -7.48,4.95 -8.08,4.04 -8.45,3.01 -8.82,1.99 -8.93,0.90 -9.04,-0.17 -8.89,-1.25 -8.73,-2.33 -8.33,-3.34 -7.92,-4.35 -7.28,-5.24 -6.65,-6.12 -5.82,-6.83 -4.99,-7.54 -4.01,-8.03 -3.04,-8.51 -3.04,-8.51 L -3.04,-8.51 Z"></path></g><g stroke-linecap="round" transform="translate(412.8078098075921 743.0159093916976) rotate(0 129.1208953857422 50.656463623046875)"><path d="M6.09 6.62 C6.09 6.62, 6.09 6.62, 6.09 6.62 M6.09 6.62 C6.09 6.62, 6.09 6.62, 6.09 6.62 M0.97 24.69 C7.62 14.93, 16.74 8.57, 21.96 0.54 M0.97 24.69 C8.09 16.6, 13.98 9.86, 21.96 0.54 M1.1 36.73 C12.72 21.54, 24.17 8.97, 32.59 0.51 M1.1 36.73 C8.71 28.81, 15.4 20.42, 32.59 0.51 M1.24 48.78 C16.11 33.9, 26.16 19.57, 43.22 0.47 M1.24 48.78 C16.09 31.04, 31.65 15.15, 43.22 0.47 M1.37 60.82 C18.15 37.71, 40.16 19.41, 53.85 0.44 M1.37 60.82 C18.03 40.64, 36.42 20.61, 53.85 0.44 M0.85 73.61 C20.02 52.38, 40.59 30.91, 64.48 0.41 M0.85 73.61 C21.75 49.52, 43.64 26.95, 64.48 0.41 M1.64 84.9 C22.55 60.17, 45.15 36.45, 75.11 0.37 M1.64 84.9 C18.31 62.69, 36.78 42.14, 75.11 0.37 M5.05 93.17 C25.21 68.51, 45.28 44.59, 85.74 0.34 M5.05 93.17 C28.37 64.4, 52.93 38.66, 85.74 0.34 M11.09 98.41 C34.98 74.52, 56.49 47.51, 96.38 0.3 M11.09 98.41 C45.77 59.91, 78.83 20.77, 96.38 0.3 M19.75 100.64 C43.31 74.34, 66.24 44.36, 107.01 0.27 M19.75 100.64 C51.96 65.1, 82.17 28.52, 107.01 0.27 M29.72 101.36 C50.52 79.16, 73.11 54.47, 117.64 0.23 M29.72 101.36 C55.4 70.85, 80.76 42.31, 117.64 0.23 M40.35 101.33 C73.27 61.89, 111.18 23.01, 128.27 0.2 M40.35 101.33 C72.55 63.72, 104.82 27.56, 128.27 0.2 M50.98 101.29 C76.45 74.08, 97.1 47.92, 138.9 0.16 M50.98 101.29 C70.36 79.21, 88.45 56.41, 138.9 0.16 M61.61 101.26 C93.98 63.67, 130.64 23.21, 148.87 0.88 M61.61 101.26 C93.4 62.87, 125.37 26.65, 148.87 0.88 M72.24 101.23 C97.94 72.32, 120.1 46.24, 159.5 0.85 M72.24 101.23 C104.63 65.8, 137.13 28.81, 159.5 0.85 M82.87 101.19 C101.37 78.96, 119.72 60.34, 170.13 0.81 M82.87 101.19 C116.48 61.12, 151.19 21.45, 170.13 0.81 M92.85 101.91 C123 67.61, 152.13 35.05, 180.76 0.78 M92.85 101.91 C118.16 73.34, 144.18 43.15, 180.76 0.78 M103.48 101.88 C130.28 75, 153.59 42.25, 191.39 0.75 M103.48 101.88 C128.93 74.44, 151.92 46.18, 191.39 0.75 M114.11 101.84 C143.93 67.96, 171.5 36.46, 202.02 0.71 M114.11 101.84 C134.04 77.92, 153.2 54.55, 202.02 0.71 M124.74 101.81 C146.52 73.9, 170.6 46.17, 212.65 0.68 M124.74 101.81 C158.54 64.44, 192.64 24.95, 212.65 0.68 M135.37 101.77 C162.63 72.04, 190.4 41.05, 223.28 0.64 M135.37 101.77 C153.76 80.17, 172.54 59.04, 223.28 0.64 M146 101.74 C170.36 73.83, 194.06 48.24, 233.91 0.61 M146 101.74 C173.05 71.38, 202.2 38.75, 233.91 0.61 M156.63 101.7 C186.3 67.06, 216.58 33.09, 243.88 1.33 M156.63 101.7 C184.72 68.17, 213.8 35.73, 243.88 1.33 M167.26 101.67 C185.08 78.76, 205.86 57.8, 250.58 5.82 M167.26 101.67 C184.98 81.88, 202.35 61.93, 250.58 5.82 M177.89 101.64 C199.77 78.43, 221.77 52.49, 255.3 12.58 M177.89 101.64 C201.94 75.85, 223.83 49.82, 255.3 12.58 M188.52 101.6 C210.41 75, 235.06 48.27, 258.06 21.6 M188.52 101.6 C205.59 82.71, 222.5 63.73, 258.06 21.6 M199.15 101.57 C223.28 75.26, 242.36 51.81, 258.19 33.64 M199.15 101.57 C215.15 84, 230.42 66.23, 258.19 33.64 M209.78 101.53 C220.91 88.63, 229.53 79.29, 258.33 45.68 M209.78 101.53 C223.53 84.93, 238.28 68.4, 258.33 45.68 M220.41 101.5 C230.35 89.95, 239.54 77.92, 258.46 57.72 M220.41 101.5 C227.29 92.27, 236.88 82.9, 258.46 57.72 M231.04 101.46 C239.16 93.18, 250.11 80.29, 258.59 69.77 M231.04 101.46 C240.34 91.35, 248.5 80.47, 258.59 69.77 M243.64 99.16 C248.34 92.92, 255.34 86.13, 257.41 83.32 M243.64 99.16 C248.75 92.76, 252.38 88.88, 257.41 83.32" stroke="#1e1e1e" stroke-width="1" fill="none"></path><path d="M25.33 0 C93.74 0.75, 160.67 -0.19, 232.91 0 M25.33 0 C73.27 0.19, 119.72 -1.43, 232.91 0 M232.91 0 C251.1 -0.98, 259.93 9.85, 258.24 25.33 M232.91 0 C251.41 2.17, 258.15 7.54, 258.24 25.33 M258.24 25.33 C259.83 43.61, 258.15 61.93, 258.24 75.98 M258.24 25.33 C257.24 40.85, 258.11 55.79, 258.24 75.98 M258.24 75.98 C257.4 94.69, 250.07 100.24, 232.91 101.31 M258.24 75.98 C256.52 92.42, 247.96 99.62, 232.91 101.31 M232.91 101.31 C185.31 98.01, 138.09 98.92, 25.33 101.31 M232.91 101.31 C174.27 100.31, 116.6 100.77, 25.33 101.31 M25.33 101.31 C9.09 102.5, -0.82 91.56, 0 75.98 M25.33 101.31 C8.9 100.33, 1.28 93.93, 0 75.98 M0 75.98 C0.27 59.86, -1.25 46.42, 0 25.33 M0 75.98 C0.1 63.89, 0.51 53.26, 0 25.33 M0 25.33 C-0.97 8.62, 6.96 0.15, 25.33 0 M0 25.33 C-1.03 8.75, 7.34 0.47, 25.33 0" stroke="#1e1e1e" stroke-width="2" fill="none"></path></g><g stroke-linecap="round" transform="translate(496.8310477692562 739.8303091970588) rotate(0 48.875721243546536 24.44446966177952)"><path d="M12.22 0 C37.27 -2.11, 58.3 0.19, 85.53 0 C91.11 0.74, 97.12 2.83, 97.75 12.22 C97.22 15.07, 97.08 18.84, 97.75 36.67 C101.22 44.17, 93.76 50.54, 85.53 48.89 C68.33 46.58, 51.65 51.14, 12.22 48.89 C1.12 47.83, -1.84 41.79, 0 36.67 C1.09 29.19, 2.01 18.86, 0 12.22 C1.5 4.75, 6.08 -1.06, 12.22 0" stroke="none" stroke-width="0" fill="#ffffff"></path><path d="M12.22 0 C29.07 -1.5, 43.92 -1.4, 85.53 0 M12.22 0 C35.79 -1.59, 61.43 -1.12, 85.53 0 M85.53 0 C95.36 1.41, 99.16 5.96, 97.75 12.22 M85.53 0 C93.59 -0.9, 99.1 2.45, 97.75 12.22 M97.75 12.22 C98.25 17.7, 97.88 22.07, 97.75 36.67 M97.75 12.22 C97.54 18.77, 97.12 25.03, 97.75 36.67 M97.75 36.67 C98.02 43.74, 92.18 48.5, 85.53 48.89 M97.75 36.67 C95.91 43.12, 91.99 49.13, 85.53 48.89 M85.53 48.89 C69.26 47.37, 54.27 47.08, 12.22 48.89 M85.53 48.89 C63.87 47.87, 43.59 48.83, 12.22 48.89 M12.22 48.89 C3.25 47.58, 0.4 43.96, 0 36.67 M12.22 48.89 C5.35 49.95, -0.32 46.74, 0 36.67 M0 36.67 C-0.91 27.62, -1.51 19.5, 0 12.22 M0 36.67 C0.43 28.7, -0.49 19.92, 0 12.22 M0 12.22 C-1.48 4.22, 3.18 0.27, 12.22 0 M0 12.22 C-1.1 4.54, 3.77 -0.93, 12.22 0" stroke="#1e1e1e" stroke-width="1" fill="none"></path></g><g transform="translate(507.22408373685266 758.3903587861489) rotate(0 35.29996610422205 -16.687991201046827)" stroke="none"><path fill="#ffffff" d="M -9.21,0 Q -9.21,0 -9.32,-0.79 -9.42,-1.58 -9.74,-6.44 -10.05,-11.30 -10.30,-15.65 -10.56,-20.00 -10.40,-24.38 -10.25,-28.75 -10.46,-31.02 -10.67,-33.29 -10.48,-34.82 -10.30,-36.35 -9.75,-37.79 -9.21,-39.23 -8.33,-40.50 -7.45,-41.77 -6.30,-42.79 -5.15,-43.81 -3.78,-44.53 -2.42,-45.24 -0.92,-45.61 0.56,-45.98 2.10,-45.98 3.64,-45.98 5.14,-45.61 6.63,-45.24 8.00,-44.53 9.36,-43.81 10.52,-42.79 11.67,-41.77 12.54,-40.50 13.42,-39.23 13.97,-37.79 14.51,-36.35 14.70,-34.82 14.88,-33.29 17.09,-28.66 19.29,-24.03 16.59,-27.62 13.88,-31.21 18.18,-31.42 22.47,-31.63 27.41,-31.19 32.34,-30.76 36.96,-30.90 41.57,-31.04 46.25,-30.52 50.92,-30.01 56.25,-29.35 61.57,-28.69 65.00,-25.89 68.42,-23.09 71.01,-19.71 73.60,-16.33 66.91,-15.91 60.23,-15.48 57.57,-12.15 54.91,-8.81 54.99,-13.13 55.06,-17.45 54.89,-21.70 54.72,-25.95 54.59,-27.00 54.46,-28.06 54.64,-30.58 54.82,-33.10 55.79,-35.43 56.77,-37.76 58.44,-39.66 60.10,-41.55 62.29,-42.82 64.48,-44.08 66.95,-44.58 69.43,-45.08 71.93,-44.77 74.44,-44.45 76.71,-43.35 78.99,-42.25 80.79,-40.48 82.59,-38.71 83.74,-36.46 84.88,-34.21 85.25,-31.71 85.61,-29.21 85.16,-26.73 84.71,-24.24 83.49,-22.03 82.27,-19.82 80.40,-18.12 78.54,-16.41 76.23,-15.39 73.92,-14.37 71.40,-14.14 68.89,-13.91 66.43,-14.50 63.98,-15.08 61.83,-16.42 59.69,-17.76 58.09,-19.72 56.49,-21.67 55.60,-24.03 54.70,-26.39 54.61,-28.92 54.52,-31.44 55.23,-33.86 55.95,-36.28 57.41,-38.35 58.86,-40.41 60.90,-41.91 62.93,-43.40 65.34,-44.17 67.75,-44.93 70.27,-44.89 72.80,-44.84 75.18,-43.99 77.56,-43.15 79.54,-41.58 81.52,-40.02 82.90,-37.90 84.28,-35.79 84.92,-33.34 85.55,-30.90 85.55,-30.90 85.55,-30.90 85.73,-27.29 85.91,-23.67 85.99,-19.16 86.08,-14.64 85.47,-10.17 84.87,-5.69 84.14,-1.48 83.42,2.71 80.63,6.21 77.85,9.70 71.15,11.07 64.46,12.43 59.53,10.04 54.61,7.65 51.50,4.16 48.38,0.67 45.81,-2.89 43.25,-6.47 47.95,-3.39 52.66,-0.31 48.08,-0.79 43.50,-1.28 39.05,-1.46 34.60,-1.65 29.89,-2.08 25.18,-2.52 20.95,-3.04 16.72,-3.56 12.32,-4.73 7.92,-5.89 3.77,-6.97 -0.38,-8.06 -3.59,-12.00 -6.81,-15.95 -8.64,-20.27 -10.47,-24.59 -10.57,-28.94 -10.67,-33.29 -10.48,-34.82 -10.30,-36.35 -9.75,-37.79 -9.21,-39.23 -8.33,-40.50 -7.46,-41.77 -6.30,-42.79 -5.15,-43.81 -3.79,-44.53 -2.42,-45.24 -0.93,-45.61 0.56,-45.98 2.10,-45.98 3.64,-45.98 5.14,-45.61 6.63,-45.24 8.00,-44.53 9.36,-43.81 10.51,-42.79 11.67,-41.77 12.54,-40.50 13.42,-39.23 13.96,-37.79 14.51,-36.35 14.70,-34.82 14.88,-33.29 14.67,-30.66 14.45,-28.03 13.52,-23.59 12.58,-19.16 11.95,-14.78 11.33,-10.40 10.38,-5.99 9.42,-1.58 9.32,-0.79 9.21,0 9.07,1.10 8.94,2.20 8.55,3.24 8.15,4.28 7.52,5.19 6.89,6.10 6.06,6.84 5.23,7.58 4.24,8.09 3.26,8.61 2.18,8.87 1.10,9.14 -0.00,9.14 -1.11,9.14 -2.18,8.87 -3.26,8.61 -4.25,8.09 -5.23,7.58 -6.06,6.84 -6.89,6.10 -7.52,5.19 -8.15,4.28 -8.55,3.24 -8.94,2.20 -9.07,1.10 -9.21,-0.00 -9.21,-0.00 L -9.21,0 Z"></path></g><g transform="translate(580.3660589667808 749.2324405377001) rotate(0 1.7007237678652132 -13.813313134271723)" stroke="none"><path fill="#ffffff" d="M -3.04,-8.51 Q -3.04,-8.51 -2.59,-8.75 -2.14,-8.99 -0.40,-9.45 1.33,-9.91 2.45,-9.85 3.58,-9.79 4.66,-9.46 5.73,-9.13 6.70,-8.55 7.67,-7.97 8.47,-7.18 9.27,-6.39 9.86,-5.43 10.45,-4.46 10.79,-3.39 11.13,-2.32 11.21,-1.19 11.28,-0.07 11.08,1.03 10.89,2.14 10.43,3.18 9.97,4.21 9.28,5.10 8.59,5.99 7.71,6.69 6.82,7.39 5.80,7.86 4.77,8.32 3.66,8.53 2.56,8.74 1.94,-0.58 1.32,-9.90 2.45,-9.84 3.57,-9.78 4.65,-9.45 5.72,-9.12 6.69,-8.54 7.66,-7.97 8.46,-7.18 9.26,-6.38 9.85,-5.42 10.44,-4.46 10.78,-3.39 11.12,-2.31 11.19,-1.19 11.26,-0.07 11.07,1.03 10.87,2.14 10.41,3.17 9.96,4.20 9.27,5.09 8.58,5.98 7.69,6.68 6.81,7.38 5.79,7.85 4.76,8.32 3.66,8.52 2.55,8.73 2.20,-0.59 1.86,-9.93 6.48,-6.81 11.10,-3.69 11.37,1.04 11.63,5.77 11.12,1.43 10.60,-2.90 6.88,-5.02 3.15,-7.14 3.26,-7.16 3.37,-7.17 4.56,-7.02 5.76,-6.88 6.88,-6.45 8.01,-6.02 9.00,-5.33 9.99,-4.65 10.78,-3.74 11.58,-2.84 12.14,-1.77 12.70,-0.71 12.98,0.45 13.27,1.62 13.27,2.83 13.26,4.03 12.97,5.20 12.68,6.37 12.12,7.44 11.56,8.50 10.76,9.40 9.96,10.30 8.97,10.98 7.97,11.67 6.85,12.09 5.72,12.52 4.52,12.66 3.33,12.80 -1.49,8.12 -6.33,3.45 -7.00,-0.75 -7.68,-4.96 -9.04,-9.15 -10.40,-13.33 -10.90,-17.68 -11.40,-22.03 -8.46,-20.41 -5.52,-18.80 -7.22,-20.02 -8.93,-21.24 -10.15,-22.94 -11.38,-24.65 -11.99,-26.65 -12.61,-28.66 -12.55,-30.75 -12.49,-32.85 -11.77,-34.82 -11.05,-36.79 -9.74,-38.42 -8.42,-40.06 -6.66,-41.19 -4.89,-42.32 -2.85,-42.82 -0.82,-43.33 1.26,-43.16 3.35,-42.99 5.28,-42.16 7.21,-41.33 8.77,-39.93 10.33,-38.53 11.36,-36.71 12.39,-34.88 12.79,-32.82 13.18,-30.76 12.90,-28.68 12.62,-26.61 11.69,-24.73 10.75,-22.85 9.27,-21.37 7.79,-19.88 5.91,-18.95 4.03,-18.02 1.95,-17.74 -0.11,-17.45 -2.17,-17.85 -4.23,-18.24 -6.06,-19.27 -7.88,-20.31 -9.29,-21.87 -10.69,-23.43 -11.51,-25.35 -12.34,-27.28 -12.51,-29.37 -12.68,-31.46 -12.18,-33.50 -11.67,-35.53 -10.54,-37.30 -9.41,-39.07 -7.78,-40.38 -6.14,-41.69 -4.17,-42.42 -2.21,-43.14 -0.11,-43.20 1.98,-43.25 3.98,-42.64 5.99,-42.02 5.98,-42.02 5.98,-42.02 9.54,-32.83 13.09,-23.64 12.63,-19.35 12.17,-15.05 13.28,-10.68 14.40,-6.30 13.71,-2.06 13.02,2.17 8.19,-2.49 3.37,-7.17 4.56,-7.02 5.76,-6.88 6.88,-6.45 8.01,-6.02 9.00,-5.33 9.99,-4.65 10.78,-3.74 11.58,-2.84 12.14,-1.77 12.70,-0.71 12.98,0.45 13.27,1.62 13.27,2.83 13.26,4.03 12.97,5.20 12.68,6.37 12.12,7.44 11.56,8.50 10.76,9.40 9.96,10.30 8.97,10.98 7.97,11.67 6.85,12.09 5.72,12.52 4.52,12.66 3.33,12.80 0.29,11.87 -2.74,10.93 -4.66,6.79 -6.57,2.65 -2.24,5.70 2.07,8.76 1.70,-0.57 1.32,-9.90 2.44,-9.84 3.57,-9.78 4.65,-9.45 5.72,-9.12 6.69,-8.55 7.66,-7.97 8.46,-7.18 9.26,-6.38 9.85,-5.42 10.43,-4.46 10.78,-3.39 11.12,-2.32 11.19,-1.19 11.26,-0.07 11.07,1.03 10.87,2.14 10.41,3.17 9.96,4.20 9.27,5.09 8.58,5.98 7.70,6.68 6.81,7.38 5.79,7.85 4.76,8.31 3.66,8.52 2.55,8.73 1.94,-0.58 1.33,-9.91 2.45,-9.85 3.58,-9.79 4.66,-9.46 5.73,-9.13 6.70,-8.55 7.67,-7.97 8.47,-7.18 9.27,-6.39 9.86,-5.43 10.45,-4.47 10.79,-3.39 11.13,-2.32 11.21,-1.19 11.28,-0.07 11.08,1.03 10.89,2.14 10.43,3.17 9.97,4.20 9.28,5.10 8.59,5.99 7.71,6.69 6.82,7.39 5.80,7.86 4.77,8.32 3.66,8.53 2.56,8.74 3.29,8.53 4.03,8.32 3.53,8.41 3.04,8.51 1.97,8.75 0.91,8.99 -0.17,8.97 -1.26,8.95 -2.31,8.67 -3.37,8.39 -4.32,7.86 -5.28,7.34 -6.08,6.60 -6.88,5.86 -7.48,4.95 -8.08,4.04 -8.45,3.01 -8.82,1.99 -8.93,0.90 -9.04,-0.17 -8.89,-1.25 -8.73,-2.33 -8.33,-3.34 -7.92,-4.35 -7.28,-5.24 -6.65,-6.12 -5.82,-6.83 -4.99,-7.54 -4.01,-8.03 -3.04,-8.51 -3.04,-8.51 L -3.04,-8.51 Z"></path></g><g stroke-linecap="round" transform="translate(500.81546577894574 659.4154906244988) rotate(0 43.66377411482074 61.52793484796676)"><path d="M3.35 8.21 C3.35 8.21, 3.35 8.21, 3.35 8.21 M3.35 8.21 C3.35 8.21, 3.35 8.21, 3.35 8.21 M0.86 23.27 C7.81 15.32, 12.34 6.62, 20.54 0.63 M0.86 23.27 C7.07 15.8, 12.71 9.32, 20.54 0.63 M0.99 35.31 C10.84 23.98, 21.82 13.93, 31.17 0.59 M0.99 35.31 C11.4 23.23, 21.94 10.74, 31.17 0.59 M0.47 48.11 C10.41 38.63, 19.76 25.62, 41.8 0.56 M0.47 48.11 C15.61 29.23, 32.04 12.05, 41.8 0.56 M0.6 60.15 C14.9 46.18, 23.56 33.17, 52.43 0.52 M0.6 60.15 C12.69 45.5, 25.92 31.68, 52.43 0.52 M0.73 72.19 C22.23 44.07, 45.18 18.82, 63.06 0.49 M0.73 72.19 C15.12 56.2, 29.55 39.23, 63.06 0.49 M0.87 84.23 C26.1 53.65, 53.93 23.53, 73.03 1.21 M0.87 84.23 C25.46 56.24, 51.5 27.38, 73.03 1.21 M0.34 97.02 C23.03 68.98, 50.47 38.08, 80.38 4.95 M0.34 97.02 C26.9 67.84, 52.78 37.2, 80.38 4.95 M1.79 107.56 C18.39 88.15, 40.6 63.25, 85.11 11.71 M1.79 107.56 C31.19 73.65, 61.38 38.87, 85.11 11.71 M4.55 116.58 C28.23 92.68, 45.45 68.82, 87.86 20.73 M4.55 116.58 C25.1 91.89, 47.24 66.55, 87.86 20.73 M11.24 121.07 C27.61 99.47, 45.85 80.98, 88 32.77 M11.24 121.07 C41.16 86.58, 69.8 53.31, 88 32.77 M19.9 123.3 C41.26 101.78, 58.2 76.68, 88.13 44.81 M19.9 123.3 C38.12 100.6, 58.07 78.95, 88.13 44.81 M30.53 123.27 C46.99 104.52, 65.87 84.21, 87.61 57.61 M30.53 123.27 C51.3 97.99, 74.1 73.7, 87.61 57.61 M41.16 123.23 C50.42 110.57, 62.86 101.48, 87.74 69.65 M41.16 123.23 C56.95 103.08, 74.28 85.55, 87.74 69.65 M51.79 123.2 C66.9 107.07, 80.09 94.24, 87.87 81.69 M51.79 123.2 C63.58 110.26, 74.18 97.21, 87.87 81.69 M61.77 123.92 C67.06 116.73, 77.2 108.96, 88.01 93.73 M61.77 123.92 C70.48 113.53, 81.17 102.05, 88.01 93.73 M74.36 121.62 C76.14 120.38, 79.87 115.18, 86.17 108.03 M74.36 121.62 C77.78 118.62, 80.72 114.95, 86.17 108.03" stroke="#ffc9c9" stroke-width="1" fill="none"></path><path d="M21.83 0 C34.04 -0.35, 48.25 1.33, 65.5 0 M21.83 0 C32.69 -0.21, 45.67 -0.29, 65.5 0 M65.5 0 C78.33 1.39, 87.24 7.01, 87.33 21.83 M65.5 0 C82.29 1.55, 86.11 6.58, 87.33 21.83 M87.33 21.83 C86.45 37.16, 87.55 54.78, 87.33 101.22 M87.33 21.83 C86.85 46.12, 87.62 71.87, 87.33 101.22 M87.33 101.22 C86.23 115.59, 79.81 121.53, 65.5 123.06 M87.33 101.22 C87.73 117.8, 79.99 124.98, 65.5 123.06 M65.5 123.06 C50.62 122.73, 39.36 123.77, 21.83 123.06 M65.5 123.06 C50.63 122.53, 33.64 122.14, 21.83 123.06 M21.83 123.06 C8.67 121.54, -1.82 117.46, 0 101.22 M21.83 123.06 C5.98 125.23, 1.43 117.07, 0 101.22 M0 101.22 C-0.44 72.43, 1.89 47.81, 0 21.83 M0 101.22 C0.67 73.62, -0.48 48.16, 0 21.83 M0 21.83 C1.74 7.47, 9.15 -1.27, 21.83 0 M0 21.83 C0.95 5.86, 5.79 1.72, 21.83 0" stroke="#f08c00" stroke-width="2" fill="none"></path></g><g stroke-linecap="round" transform="translate(279.62732203338214 712.1807700772958) rotate(0 45.626708984375 63.708946228027344)"><path d="M2.96 9.2 C2.96 9.2, 2.96 9.2, 2.96 9.2 M2.96 9.2 C2.96 9.2, 2.96 9.2, 2.96 9.2 M0.47 24.26 C5.17 16.24, 13.09 11.53, 20.81 0.86 M0.47 24.26 C6.58 16.94, 11.79 9.97, 20.81 0.86 M0.6 36.3 C12.71 25.07, 22.94 10.87, 32.09 0.07 M0.6 36.3 C8.32 27.71, 15.07 21.3, 32.09 0.07 M0.73 48.34 C12.28 35.61, 25.52 21.52, 42.72 0.04 M0.73 48.34 C13.17 33.32, 27.35 18.43, 42.72 0.04 M0.87 60.38 C10.46 45.4, 22.16 35.91, 53.35 0 M0.87 60.38 C17.73 40.51, 33.73 21.43, 53.35 0 M0.34 73.18 C17.99 52.11, 36.1 34.8, 63.98 -0.03 M0.34 73.18 C26.04 44.03, 51.13 15.77, 63.98 -0.03 M0.48 85.22 C20.45 63.05, 38.67 41.26, 73.96 0.69 M0.48 85.22 C16.95 66.23, 32.22 46.55, 73.96 0.69 M0.61 97.26 C29.06 67.82, 57.25 33.67, 82.62 2.92 M0.61 97.26 C30.66 63.62, 60.1 29.45, 82.62 2.92 M1.4 108.54 C28.48 79.21, 53.2 52.9, 88 8.92 M1.4 108.54 C22.92 84.81, 42.41 61.93, 88 8.92 M3.5 118.32 C35.11 82.01, 66.98 45.34, 90.76 17.94 M3.5 118.32 C33.71 82.75, 65.29 47.51, 90.76 17.94 M8.88 124.32 C36.69 94.81, 64.58 62.36, 91.55 29.23 M8.88 124.32 C33.63 97.81, 55.56 71.37, 91.55 29.23 M16.89 127.31 C43.91 94.6, 70.26 63.94, 91.68 41.27 M16.89 127.31 C32.35 110.34, 47.86 92.01, 91.68 41.27 M27.52 127.27 C44.15 109.95, 55.74 94.35, 91.81 53.31 M27.52 127.27 C50.75 101.11, 75.37 73.65, 91.81 53.31 M37.49 127.99 C54.01 112.18, 66.27 93.63, 91.29 66.11 M37.49 127.99 C48.72 114.58, 60.01 101.05, 91.29 66.11 M48.12 127.96 C62.63 109.44, 81.9 92.58, 91.42 78.15 M48.12 127.96 C58.62 115.31, 69.74 103.79, 91.42 78.15 M58.75 127.92 C66.51 120.21, 73.54 111.72, 91.56 90.19 M58.75 127.92 C70.96 114.39, 80.91 102.47, 91.56 90.19 M70.04 127.14 C76.35 118.94, 85.92 110.26, 91.69 102.23 M70.04 127.14 C75.09 121.56, 79.92 117.39, 91.69 102.23" stroke="#a5d8ff" stroke-width="1" fill="none"></path><path d="M22.81 0 C34.13 -1.88, 48.37 -0.6, 68.44 0 M22.81 0 C38.17 1.09, 55.23 -0.06, 68.44 0 M68.44 0 C83.64 1.74, 91.39 8.3, 91.25 22.81 M68.44 0 C81.61 -1.69, 91.55 5.66, 91.25 22.81 M91.25 22.81 C90.82 49.2, 90.86 70.85, 91.25 104.6 M91.25 22.81 C91.72 53.65, 91.34 83.36, 91.25 104.6 M91.25 104.6 C91.85 120.94, 85.34 128.2, 68.44 127.42 M91.25 104.6 C91.11 120.29, 82.86 127.24, 68.44 127.42 M68.44 127.42 C51.23 125.91, 32.09 128.83, 22.81 127.42 M68.44 127.42 C51.46 127.12, 33.13 127.96, 22.81 127.42 M22.81 127.42 C6.29 128.61, -1.95 118.76, 0 104.6 M22.81 127.42 C9.65 128.87, -0.64 120.45, 0 104.6 M0 104.6 C-0.02 74.1, 1.47 42.04, 0 22.81 M0 104.6 C0.42 74.35, 0.36 42.62, 0 22.81 M0 22.81 C-1.09 6.69, 8.42 -1.43, 22.81 0 M0 22.81 C-0.48 6.06, 6.86 -2.13, 22.81 0" stroke="#1971c2" stroke-width="2" fill="none"></path></g><g stroke-linecap="round"><g transform="translate(224.17809672544536 704.6175858531481) rotate(0 125.2506701872311 -38.52459979040705)"><path d="M0.87 0.81 C18.45 -12.02, 64.17 -69.15, 105.72 -76.72 C147.28 -84.28, 226 -50.09, 250.2 -44.57 M-0.13 0.19 C17.32 -13.04, 63.53 -71.41, 105.1 -78.66 C146.67 -85.92, 224.9 -48.85, 249.28 -43.36" stroke="#f08c00" stroke-width="4" fill="none"></path></g><g transform="translate(224.17809672544536 704.6175858531481) rotate(0 125.2506701872311 -38.52459979040705)"><path d="M224.29 -42.73 C233.61 -42.07, 240.79 -43.81, 249.28 -43.36 M224.29 -42.73 C231.47 -42.09, 238.38 -43.96, 249.28 -43.36" stroke="#f08c00" stroke-width="4" fill="none"></path></g><g transform="translate(224.17809672544536 704.6175858531481) rotate(0 125.2506701872311 -38.52459979040705)"><path d="M229.73 -58.94 C237.35 -53.08, 242.8 -49.64, 249.28 -43.36 M229.73 -58.94 C235.43 -53.69, 240.8 -50.98, 249.28 -43.36" stroke="#f08c00" stroke-width="4" fill="none"></path></g></g><mask></mask><g transform="translate(440.15272566147564 450.8658684199947) rotate(0 89.90918731689453 24.467602368963647)"><text x="0" y="34.29379148033945" font-family="Virgil, Segoe UI Emoji" font-size="39.14816379034183px" fill="#f08c00" text-anchor="start" style="white-space: pre;" direction="ltr" dominant-baseline="alphabetic">Skills Run</text></g><g transform="translate(447.03784099964037 944.5263671269875) rotate(0 93.202880859375 21.63956648252355)"><text x="0" y="30.33001638190502" font-family="Virgil, Segoe UI Emoji" font-size="34.623306372037696px" fill="#1971c2" text-anchor="start" style="white-space: pre;" direction="ltr" dominant-baseline="alphabetic">Matchplay </text></g><g stroke-linecap="round" transform="translate(174.83311353664362 715.3514971702281) rotate(0 43.66377411482074 61.527934847966776)"><path d="M21.83 0 C37.77 0.28, 55.23 -2.19, 65.5 0 M65.5 0 C79.54 0.37, 89.18 6.5, 87.33 21.83 M87.33 21.83 C85.88 49.47, 86.85 79.53, 87.33 101.22 M87.33 101.22 C88.24 115.42, 79.87 123.64, 65.5 123.06 M65.5 123.06 C55.19 124.34, 48.13 121.64, 21.83 123.06 M21.83 123.06 C8.28 122.2, -0.32 117.02, 0 101.22 M0 101.22 C-1.81 74.86, -0.08 53.13, 0 21.83 M0 21.83 C-0.61 6.39, 7.68 1.39, 21.83 0" stroke="#f08c00" stroke-width="2.5" fill="none" stroke-dasharray="8 10"></path></g><g stroke-linecap="round"><g transform="translate(100 150) rotate(0 30 12.14285714285711)"><path d="M0.47 -0.65 C10.51 3.26, 49.97 19.94, 59.89 24.03 M-0.74 1.62 C9.16 5.67, 48.89 21.54, 58.89 25.43" stroke="#f08c00" stroke-width="2" fill="none"></path></g><g transform="translate(100 150) rotate(0 30 12.14285714285711)"><path d="M33.89 24.75 C39.66 24.66, 47.16 25.05, 58.89 25.43 M33.89 24.75 C41.35 25.52, 46.26 25.43, 58.89 25.43" stroke="#f08c00" stroke-width="2" fill="none"></path></g><g transform="translate(100 150) rotate(0 30 12.14285714285711)"><path d="M40.18 8.85 C44.29 13.13, 50.08 17.88, 58.89 25.43 M40.18 8.85 C46.12 13.82, 49.36 17.93, 58.89 25.43" stroke="#f08c00" stroke-width="2" fill="none"></path></g></g><mask></mask><g stroke-linecap="round"><g transform="translate(317.1428571428571 105.71428571428567) rotate(0 0 30.714285714285722)"><path d="M0.78 -0.84 C0.56 9.23, -0.67 50.81, -0.77 61.11 M-0.27 1.33 C-0.15 11.52, 1.58 52.37, 1.53 62.48" stroke="#1971c2" stroke-width="2" fill="none"></path></g><g transform="translate(317.1428571428571 105.71428571428567) rotate(0 0 30.714285714285722)"><path d="M-7.53 39.18 C-5.68 45.86, -1.69 55.43, 1.53 62.48 M-7.53 39.18 C-5.82 44.88, -2.24 50.78, 1.53 62.48" stroke="#1971c2" stroke-width="2" fill="none"></path></g><g transform="translate(317.1428571428571 105.71428571428567) rotate(0 0 30.714285714285722)"><path d="M9.56 38.8 C5.53 45.73, 3.63 55.42, 1.53 62.48 M9.56 38.8 C6.85 44.45, 6.01 50.44, 1.53 62.48" stroke="#1971c2" stroke-width="2" fill="none"></path></g></g><mask></mask><g transform="translate(224.28571428571433 47.14285714285711) rotate(0 110.34004211425781 22.5)"><text x="0" y="31.536" font-family="Virgil, Segoe UI Emoji" font-size="36px" fill="#1971c2" text-anchor="start" style="white-space: pre;" direction="ltr" dominant-baseline="alphabetic">Climbing mech</text></g><g transform="translate(10 97.14285714285705) rotate(0 80.31603240966797 45)"><text x="0" y="31.536" font-family="Virgil, Segoe UI Emoji" font-size="36px" fill="#f08c00" text-anchor="start" style="white-space: pre;" direction="ltr" dominant-baseline="alphabetic">Shooting </text><text x="0" y="76.536" font-family="Virgil, Segoe UI Emoji" font-size="36px" fill="#f08c00" text-anchor="start" style="white-space: pre;" direction="ltr" dominant-baseline="alphabetic">mech</text></g><g stroke-linecap="round"><g transform="translate(632.8571428571428 60) rotate(0 8.571428571428612 62.14285714285711)"><path d="M-0.25 -0.48 C0.67 3.16, 2.11 0.04, 5.21 20.7 C8.3 41.36, 16.19 106.29, 18.34 123.46 M1.83 -1.78 C2.57 1.62, 1.26 -2.08, 3.99 18.95 C6.72 39.97, 15.73 106.74, 18.21 124.35" stroke="#1e1e1e" stroke-width="2" fill="none"></path></g><g transform="translate(632.8571428571428 60) rotate(0 8.571428571428612 62.14285714285711)"><path d="M6.54 102.24 C8.73 107.5, 13.91 116.42, 18.21 124.35 M6.54 102.24 C9.64 106.76, 11.93 112.21, 18.21 124.35" stroke="#1e1e1e" stroke-width="2" fill="none"></path></g><g transform="translate(632.8571428571428 60) rotate(0 8.571428571428612 62.14285714285711)"><path d="M23.48 99.91 C20.99 105.77, 21.51 115.34, 18.21 124.35 M23.48 99.91 C22.67 104.9, 21.04 110.89, 18.21 124.35" stroke="#1e1e1e" stroke-width="2" fill="none"></path></g></g><mask></mask><g transform="translate(552.8571428571427 10) rotate(0 87.24604034423828 22.5)"><text x="0" y="31.536" font-family="Virgil, Segoe UI Emoji" font-size="36px" fill="#1e1e1e" text-anchor="start" style="white-space: pre;" direction="ltr" dominant-baseline="alphabetic">Drivetrain</text></g><g stroke-linecap="round" transform="translate(1124.9435998275749 499.4812248022752) rotate(0 176.6102184815934 69.28738436365494)"><path d="M7.86 8.16 C7.86 8.16, 7.86 8.16, 7.86 8.16 M7.86 8.16 C7.86 8.16, 7.86 8.16, 7.86 8.16 M1.43 27.75 C10.46 19.21, 16.14 8.18, 24.4 1.33 M1.43 27.75 C9.71 18.67, 16.94 9.93, 24.4 1.33 M0.91 40.54 C12.81 26.31, 26.17 10.51, 36.34 -0.21 M0.91 40.54 C7.6 31.9, 16.2 24.28, 36.34 -0.21 M1.04 52.58 C14.52 39.63, 23.54 23.91, 46.97 -0.25 M1.04 52.58 C13.46 39.16, 24.29 25.71, 46.97 -0.25 M1.18 64.62 C11.97 50.63, 24.41 36.31, 57.6 -0.28 M1.18 64.62 C18.35 44.89, 35.25 25.68, 57.6 -0.28 M1.31 76.67 C25.62 47.57, 54.95 18.61, 67.57 0.44 M1.31 76.67 C20.77 54.34, 39.74 32.18, 67.57 0.44 M1.44 88.71 C30.26 54.3, 59.33 20.31, 78.2 0.41 M1.44 88.71 C30.48 55.55, 58.06 21.43, 78.2 0.41 M0.92 101.5 C24.46 75.01, 47.66 50.06, 88.83 0.37 M0.92 101.5 C25.38 72.38, 50.75 45.27, 88.83 0.37 M0.4 114.3 C25.26 87.84, 48.74 61.13, 99.46 0.34 M0.4 114.3 C31.55 78.71, 61.57 43.69, 99.46 0.34 M3.81 122.56 C40.86 83.76, 73.81 43.06, 110.09 0.3 M3.81 122.56 C39.87 82.65, 73.59 42.85, 110.09 0.3 M7.88 130.08 C52.09 83.02, 93.26 32.13, 120.72 0.27 M7.88 130.08 C48.81 85.14, 88.09 40.61, 120.72 0.27 M13.92 135.33 C53.1 89.76, 95.35 43.51, 131.35 0.23 M13.92 135.33 C60.42 82.74, 105.25 30.9, 131.35 0.23 M22.58 137.56 C59.51 95.91, 94.77 53.97, 141.98 0.2 M22.58 137.56 C70.39 84.08, 115.96 31.36, 141.98 0.2 M31.9 139.03 C78.55 81.52, 126.84 27.5, 152.61 0.16 M31.9 139.03 C63.86 102.86, 96.75 64.2, 152.61 0.16 M42.53 139 C84.14 90.8, 125.85 39.8, 163.24 0.13 M42.53 139 C77.08 100.6, 111 59.39, 163.24 0.13 M53.16 138.96 C85.74 100.96, 118.14 65.89, 173.87 0.09 M53.16 138.96 C84.97 102.45, 116.01 66.31, 173.87 0.09 M63.79 138.93 C106.52 92.93, 145.65 41.21, 184.5 0.06 M63.79 138.93 C106.59 88.76, 150.37 38.18, 184.5 0.06 M74.42 138.89 C106.81 100.69, 139.59 65.21, 195.13 0.03 M74.42 138.89 C110.01 99.84, 145.42 57.7, 195.13 0.03 M85.05 138.86 C126.02 92.68, 165.66 45.77, 205.76 -0.01 M85.05 138.86 C120.07 98.41, 156.29 57.1, 205.76 -0.01 M95.68 138.82 C120.15 111.53, 146.94 80.93, 216.39 -0.04 M95.68 138.82 C139.91 85.82, 185.58 33.89, 216.39 -0.04 M106.31 138.79 C141.05 98.83, 174.61 58.85, 227.02 -0.08 M106.31 138.79 C135.7 105.5, 164.63 72.69, 227.02 -0.08 M116.94 138.75 C147.03 107.36, 175.79 71.94, 237.65 -0.11 M116.94 138.75 C157.16 90.23, 199.39 40.17, 237.65 -0.11 M127.57 138.72 C172.91 85.14, 218.99 32.05, 248.28 -0.15 M127.57 138.72 C160.07 99.52, 194.47 60.95, 248.28 -0.15 M138.2 138.69 C184.73 87.16, 230.31 32.22, 258.91 -0.18 M138.2 138.69 C181.84 88.29, 226.36 36.58, 258.91 -0.18 M148.83 138.65 C187.14 97.19, 219.85 55.29, 269.54 -0.22 M148.83 138.65 C171.79 110.51, 197.46 84.01, 269.54 -0.22 M159.46 138.62 C187.62 106.39, 216.17 75.67, 280.17 -0.25 M159.46 138.62 C204.5 87.86, 249.12 36.52, 280.17 -0.25 M170.09 138.58 C214.02 90.76, 254.13 38.41, 290.8 -0.28 M170.09 138.58 C208.27 93.08, 247.3 49.18, 290.8 -0.28 M180.72 138.55 C209.43 108.61, 235.54 79.53, 300.78 0.44 M180.72 138.55 C207.61 105.52, 236.85 73.15, 300.78 0.44 M191.35 138.51 C234.64 88.12, 275.65 40.5, 311.41 0.4 M191.35 138.51 C216.65 108.15, 241.55 79.38, 311.41 0.4 M201.98 138.48 C247.74 87.04, 291.16 33.83, 322.04 0.37 M201.98 138.48 C230.09 105.03, 260.71 69.75, 322.04 0.37 M212.61 138.44 C253.23 89.05, 296.46 39.13, 331.36 1.84 M212.61 138.44 C242.53 106.51, 271.63 72.11, 331.36 1.84 M223.24 138.41 C266.75 91.25, 311.24 40.43, 339.36 4.83 M223.24 138.41 C270.35 84.92, 315.88 31.41, 339.36 4.83 M233.87 138.37 C266.91 101.21, 299.11 63.95, 346.06 9.32 M233.87 138.37 C257.05 110.96, 280.28 85.09, 346.06 9.32 M243.84 139.09 C269.78 107.03, 298.5 79.01, 350.78 16.08 M243.84 139.09 C273.17 104.38, 303.56 70.83, 350.78 16.08 M254.47 139.06 C285.26 103.92, 316.86 70.08, 352.88 25.85 M254.47 139.06 C282.31 105.85, 310.75 75.65, 352.88 25.85 M265.1 139.03 C292.51 108.57, 322.84 75.05, 353.02 37.89 M265.1 139.03 C283.92 117.18, 300.98 97.18, 353.02 37.89 M275.73 138.99 C301.36 111.14, 327.3 83.43, 353.15 49.94 M275.73 138.99 C297.52 113.95, 321.54 87.02, 353.15 49.94 M286.36 138.96 C302.32 119.69, 320.5 102.28, 353.28 61.98 M286.36 138.96 C305.24 116.19, 326.2 93.43, 353.28 61.98 M296.99 138.92 C319.69 115.14, 339.22 88.89, 352.76 74.77 M296.99 138.92 C309.21 124.17, 321.96 109.5, 352.76 74.77 M307.62 138.89 C323.85 117.84, 340.79 100.09, 352.89 86.81 M307.62 138.89 C326.33 118.42, 344.17 96.41, 352.89 86.81 M318.25 138.85 C330.16 127.54, 340.94 111.49, 353.03 98.85 M318.25 138.85 C331.16 124.59, 342.9 110.87, 353.03 98.85 M329.54 138.06 C338.84 127.17, 347.17 116.08, 353.16 110.89 M329.54 138.06 C338.32 127.96, 345.51 120.16, 353.16 110.89" stroke="#1e1e1e" stroke-width="1" fill="none"></path><path d="M32 0 C134.09 -2.2, 235.37 -1.55, 321.22 0 M32 0 C112.31 1.03, 191.94 0.74, 321.22 0 M321.22 0 C342.99 1.77, 351.99 12.14, 353.22 32 M321.22 0 C342.41 -1.8, 352.03 12.38, 353.22 32 M353.22 32 C353.07 51.32, 352.42 67.46, 353.22 106.57 M353.22 32 C351.94 60.51, 352.04 91.31, 353.22 106.57 M353.22 106.57 C351.89 127.01, 344.43 140.56, 321.22 138.57 M353.22 106.57 C355.17 126.67, 343.26 139.88, 321.22 138.57 M321.22 138.57 C237.28 138.85, 150.97 136.52, 32 138.57 M321.22 138.57 C219.88 139.04, 118.42 138.68, 32 138.57 M32 138.57 C10.65 136.8, -1.62 128.97, 0 106.57 M32 138.57 C11.32 139.3, 1.58 126.14, 0 106.57 M0 106.57 C1.83 84.19, 0.91 65.4, 0 32 M0 106.57 C-0.79 89.29, 0.72 71.77, 0 32 M0 32 C-1.07 11.22, 8.69 -0.67, 32 0 M0 32 C-1.01 11.48, 11.18 -1.78, 32 0" stroke="#1e1e1e" stroke-width="2" fill="none"></path></g><g stroke-linecap="round" transform="translate(1239.8697112800126 495.12399397074) rotate(0 66.8517034480027 33.434891500220125)"><path d="M16.72 0 C47.94 -0.05, 76.25 0.67, 116.99 0 C130.96 -3.21, 137.23 5.56, 133.7 16.72 C135.74 23.74, 135.73 34.26, 133.7 50.15 C131.41 59.33, 129.88 68.12, 116.99 66.87 C81.65 69.72, 51.51 66.38, 16.72 66.87 C2.86 64.97, 0.51 60.3, 0 50.15 C1.85 38.54, -0.16 34.7, 0 16.72 C1.71 4.18, 2.9 1.86, 16.72 0" stroke="none" stroke-width="0" fill="#ffffff"></path><path d="M16.72 0 C56.72 0.55, 92.29 -0.91, 116.99 0 M16.72 0 C41.58 -0.38, 64.99 1.27, 116.99 0 M116.99 0 C126.9 1.47, 133.58 4.01, 133.7 16.72 M116.99 0 C126.94 1.71, 132.36 6.54, 133.7 16.72 M133.7 16.72 C132.51 25.16, 135.52 33.24, 133.7 50.15 M133.7 16.72 C132.86 25.06, 132.8 32.1, 133.7 50.15 M133.7 50.15 C135.58 63.28, 129.83 65.8, 116.99 66.87 M133.7 50.15 C134.41 62.6, 128 68.04, 116.99 66.87 M116.99 66.87 C91.54 66.3, 66.97 69.45, 16.72 66.87 M116.99 66.87 C86.21 67.54, 56.5 66.56, 16.72 66.87 M16.72 66.87 C3.95 67.93, 0.57 61.93, 0 50.15 M16.72 66.87 C7.15 65.1, -0.49 60.24, 0 50.15 M0 50.15 C0.32 41.42, -1.72 31.55, 0 16.72 M0 50.15 C0.9 41.86, -0.23 35.85, 0 16.72 M0 16.72 C-1.98 4.9, 4.69 0.7, 16.72 0 M0 16.72 C0.51 3.8, 4.84 1.36, 16.72 0" stroke="#1e1e1e" stroke-width="1" fill="none"></path></g><g transform="translate(1254.08519783965 520.5102368647806) rotate(0 48.282926690019735 -22.82566089114368)" stroke="none"><path fill="#ffffff" d="M -9.27,0 Q -9.27,0 -9.40,-0.93 -9.52,-1.86 -9.94,-6.11 -10.36,-10.35 -10.13,-15.01 -9.91,-19.66 -10.39,-23.97 -10.87,-28.28 -10.68,-32.74 -10.49,-37.21 -10.57,-41.37 -10.64,-45.54 -10.44,-47.16 -10.25,-48.77 -9.67,-50.30 -9.09,-51.82 -8.16,-53.16 -7.24,-54.51 -6.02,-55.59 -4.80,-56.67 -3.35,-57.43 -1.91,-58.18 -0.33,-58.57 1.25,-58.96 2.88,-58.96 4.51,-58.96 6.09,-58.57 7.67,-58.18 9.12,-57.43 10.56,-56.67 11.78,-55.59 13.00,-54.51 13.93,-53.16 14.85,-51.82 15.43,-50.30 16.01,-48.77 16.21,-47.15 16.40,-45.54 14.31,-49.35 12.22,-53.16 14.35,-49.38 16.48,-45.61 18.06,-41.51 19.63,-37.41 21.12,-33.40 22.60,-29.40 19.67,-34.22 16.73,-39.04 21.03,-39.06 25.32,-39.09 29.84,-38.68 34.36,-38.26 38.82,-37.82 43.29,-37.38 48.25,-37.41 53.21,-37.44 57.85,-37.31 62.49,-37.18 66.88,-36.83 71.28,-36.48 76.61,-35.54 81.93,-34.60 85.59,-31.66 89.26,-28.72 91.97,-25.13 94.69,-21.54 97.67,-18.45 100.66,-15.35 96.34,-17.35 92.03,-19.36 88.08,-17.40 84.14,-15.43 81.81,-11.40 79.48,-7.36 79.76,-11.65 80.04,-15.94 80.42,-20.45 80.79,-24.96 80.59,-29.25 80.40,-33.53 80.20,-36.21 80.01,-38.89 80.19,-41.44 80.37,-43.99 81.36,-46.35 82.35,-48.71 84.04,-50.63 85.73,-52.55 87.94,-53.83 90.15,-55.11 92.66,-55.62 95.17,-56.13 97.71,-55.81 100.24,-55.49 102.55,-54.37 104.85,-53.26 106.68,-51.47 108.50,-49.68 109.66,-47.40 110.82,-45.12 111.19,-42.59 111.56,-40.06 111.10,-37.54 110.65,-35.02 109.41,-32.78 108.17,-30.54 106.28,-28.82 104.40,-27.09 102.06,-26.06 99.72,-25.02 97.17,-24.79 94.62,-24.56 92.14,-25.15 89.65,-25.75 87.48,-27.10 85.31,-28.46 83.69,-30.44 82.07,-32.41 81.16,-34.81 80.26,-37.20 80.16,-39.76 80.07,-42.31 80.79,-44.76 81.52,-47.22 82.99,-49.31 84.47,-51.40 86.53,-52.91 88.59,-54.42 91.03,-55.20 93.47,-55.97 96.02,-55.93 98.58,-55.88 100.99,-55.02 103.40,-54.17 105.41,-52.58 107.42,-51.00 108.82,-48.86 110.21,-46.72 110.86,-44.24 111.50,-41.76 111.50,-41.77 111.50,-41.77 111.74,-37.42 111.99,-33.07 112.16,-28.73 112.33,-24.39 112.01,-19.95 111.70,-15.50 111.19,-11.08 110.68,-6.66 109.90,-2.48 109.11,1.69 106.26,5.28 103.40,8.87 96.42,10.31 89.45,11.75 85.14,10.17 80.84,8.60 77.51,5.66 74.19,2.72 71.43,-0.77 68.68,-4.27 66.09,-7.99 63.49,-11.71 68.17,-8.64 72.84,-5.56 68.30,-5.88 63.76,-6.20 59.32,-6.60 54.88,-7.01 50.38,-7.08 45.89,-7.15 41.50,-7.52 37.11,-7.88 32.56,-8.42 28.00,-8.95 23.38,-9.64 18.76,-10.32 14.37,-11.37 9.97,-12.43 5.85,-13.56 1.73,-14.69 -1.25,-18.01 -4.25,-21.32 -6.37,-25.07 -8.50,-28.83 -7.43,-33.35 -6.37,-37.87 -8.50,-41.70 -10.64,-45.54 -10.44,-47.15 -10.25,-48.77 -9.67,-50.30 -9.09,-51.82 -8.16,-53.16 -7.24,-54.51 -6.02,-55.59 -4.80,-56.67 -3.35,-57.43 -1.91,-58.18 -0.33,-58.57 1.25,-58.96 2.88,-58.96 4.51,-58.96 6.09,-58.57 7.67,-58.18 9.12,-57.43 10.56,-56.67 11.78,-55.59 13.00,-54.51 13.93,-53.16 14.85,-51.82 15.43,-50.30 16.01,-48.77 16.21,-47.16 16.40,-45.54 16.40,-45.46 16.39,-45.39 16.07,-41.12 15.74,-36.84 14.76,-32.22 13.78,-27.59 13.31,-23.22 12.84,-18.85 11.89,-14.60 10.95,-10.34 10.23,-6.10 9.52,-1.86 9.40,-0.93 9.27,0 9.14,1.11 9.00,2.22 8.61,3.26 8.21,4.31 7.57,5.23 6.94,6.15 6.10,6.89 5.26,7.63 4.27,8.15 3.28,8.67 2.20,8.94 1.11,9.20 -0.00,9.20 -1.11,9.20 -2.20,8.94 -3.29,8.67 -4.28,8.15 -5.27,7.63 -6.10,6.89 -6.94,6.15 -7.57,5.23 -8.21,4.31 -8.61,3.26 -9.00,2.21 -9.14,1.10 -9.27,-0.00 -9.27,-0.00 L -9.27,0 Z"></path></g><g transform="translate(1354.1280312396364 507.98413148219885) rotate(0 2.3262322904606663 -18.893706114028205)" stroke="none"><path fill="#ffffff" d="M -3.90,-8.19 Q -3.90,-8.19 -3.45,-8.49 -3.00,-8.79 -0.16,-9.55 2.66,-10.30 3.80,-10.16 4.93,-10.02 6.00,-9.62 7.07,-9.21 8.02,-8.56 8.96,-7.91 9.72,-7.06 10.48,-6.20 11.01,-5.18 11.55,-4.17 11.82,-3.06 12.10,-1.95 12.10,-0.80 12.10,0.33 11.82,1.45 11.55,2.56 11.02,3.57 10.48,4.59 9.73,5.45 8.97,6.30 8.02,6.95 7.08,7.60 6.01,8.01 4.94,8.42 3.80,8.56 2.67,8.69 2.66,-0.79 2.65,-10.29 3.78,-10.15 4.92,-10.01 5.99,-9.61 7.06,-9.20 8.00,-8.55 8.94,-7.90 9.70,-7.05 10.46,-6.19 10.99,-5.18 11.52,-4.17 11.80,-3.06 12.07,-1.95 12.07,-0.80 12.07,0.33 11.80,1.44 11.53,2.56 11.00,3.57 10.46,4.58 9.71,5.44 8.95,6.30 8.01,6.95 7.07,7.60 6.00,8.00 4.93,8.41 3.79,8.55 2.65,8.68 2.67,-0.80 2.69,-10.29 7.39,-7.11 12.09,-3.94 12.47,1.35 12.84,6.65 12.31,2.22 11.79,-2.21 8.08,-4.31 4.37,-6.41 4.49,-6.45 4.60,-6.48 5.84,-6.33 7.07,-6.18 8.24,-5.73 9.40,-5.29 10.43,-4.58 11.45,-3.87 12.28,-2.94 13.10,-2.00 13.68,-0.90 14.26,0.20 14.55,1.41 14.85,2.62 14.84,3.87 14.84,5.11 14.54,6.32 14.24,7.53 13.66,8.63 13.08,9.74 12.25,10.67 11.42,11.60 10.39,12.30 9.37,13.01 8.20,13.45 7.03,13.89 5.80,14.04 4.56,14.18 -0.43,9.34 -5.43,4.50 -6.09,0.27 -6.76,-3.94 -7.74,-8.29 -8.72,-12.64 -9.82,-16.85 -10.93,-21.07 -11.32,-25.43 -11.71,-29.78 -12.00,-34.30 -12.30,-38.82 -9.04,-34.05 -5.79,-29.27 -7.59,-30.57 -9.40,-31.87 -10.70,-33.67 -12.00,-35.48 -12.65,-37.61 -13.31,-39.74 -13.25,-41.96 -13.19,-44.18 -12.42,-46.27 -11.65,-48.36 -10.26,-50.10 -8.87,-51.83 -6.99,-53.03 -5.12,-54.23 -2.96,-54.77 -0.80,-55.30 1.41,-55.12 3.63,-54.94 5.67,-54.06 7.72,-53.18 9.37,-51.70 11.03,-50.21 12.12,-48.28 13.22,-46.34 13.64,-44.15 14.06,-41.97 13.76,-39.76 13.46,-37.56 12.47,-35.57 11.48,-33.57 9.91,-32.00 8.34,-30.43 6.34,-29.44 4.35,-28.45 2.14,-28.15 -0.05,-27.85 -2.24,-28.27 -4.42,-28.69 -6.36,-29.78 -8.30,-30.88 -9.78,-32.53 -11.27,-34.19 -12.15,-36.23 -13.03,-38.28 -13.21,-40.49 -13.39,-42.71 -12.85,-44.87 -12.31,-47.03 -11.12,-48.91 -9.92,-50.78 -8.18,-52.17 -6.45,-53.57 -4.36,-54.34 -2.27,-55.10 -0.05,-55.16 2.17,-55.22 4.30,-54.57 6.42,-53.92 6.42,-53.92 6.42,-53.92 10.71,-43.45 15.00,-32.98 14.37,-28.66 13.75,-24.34 14.65,-19.78 15.54,-15.22 15.21,-10.77 14.89,-6.32 14.74,-1.56 14.58,3.19 9.59,-1.64 4.60,-6.48 5.84,-6.33 7.07,-6.18 8.24,-5.74 9.40,-5.29 10.43,-4.58 11.45,-3.87 12.28,-2.94 13.10,-2.00 13.68,-0.90 14.25,0.20 14.55,1.41 14.85,2.62 14.84,3.86 14.84,5.11 14.54,6.32 14.24,7.53 13.66,8.63 13.08,9.73 12.25,10.67 11.42,11.60 10.40,12.30 9.37,13.01 8.20,13.45 7.04,13.89 5.80,14.04 4.56,14.18 1.18,12.64 -2.20,11.10 -4.04,6.81 -5.89,2.52 -1.59,5.60 2.69,8.69 2.67,-0.79 2.65,-10.29 3.78,-10.15 4.92,-10.01 5.99,-9.61 7.06,-9.20 8.00,-8.55 8.94,-7.91 9.70,-7.05 10.46,-6.19 10.99,-5.18 11.52,-4.17 11.80,-3.06 12.07,-1.95 12.07,-0.80 12.07,0.33 11.80,1.44 11.53,2.55 11.00,3.57 10.47,4.58 9.71,5.44 8.95,6.29 8.01,6.94 7.07,7.60 6.00,8.00 4.93,8.41 3.79,8.55 2.66,8.68 2.66,-0.80 2.66,-10.30 3.79,-10.16 4.93,-10.02 6.00,-9.62 7.07,-9.21 8.02,-8.56 8.96,-7.91 9.72,-7.06 10.48,-6.20 11.01,-5.19 11.55,-4.17 11.82,-3.06 12.09,-1.95 12.10,-0.80 12.10,0.33 11.82,1.45 11.55,2.56 11.02,3.57 10.49,4.59 9.73,5.44 8.97,6.30 8.02,6.95 7.08,7.60 6.01,8.01 4.94,8.42 3.80,8.56 2.67,8.69 3.80,8.28 4.93,7.87 4.42,8.03 3.90,8.19 2.86,8.54 1.82,8.89 0.73,8.98 -0.35,9.07 -1.43,8.89 -2.51,8.72 -3.52,8.29 -4.52,7.86 -5.40,7.21 -6.27,6.55 -6.97,5.70 -7.66,4.86 -8.13,3.87 -8.60,2.88 -8.82,1.81 -9.04,0.74 -9.00,-0.35 -8.96,-1.44 -8.65,-2.49 -8.35,-3.54 -7.80,-4.49 -7.26,-5.44 -6.50,-6.23 -5.75,-7.02 -4.82,-7.61 -3.90,-8.19 -3.90,-8.19 L -3.90,-8.19 Z"></path></g><g stroke-linecap="round" transform="translate(1245.4125778498524 387.87722361021036) rotate(0 59.722856344140155 84.15726969486735)"><path d="M4.23 11.63 C4.23 11.63, 4.23 11.63, 4.23 11.63 M4.23 11.63 C4.23 11.63, 4.23 11.63, 4.23 11.63 M1.08 27.44 C9.32 17.45, 18.16 10.43, 24.7 0.27 M1.08 27.44 C7.94 19.81, 13.94 11.64, 24.7 0.27 M0.56 40.24 C8.41 32.06, 18.17 20.41, 35.33 0.24 M0.56 40.24 C8.75 30.07, 15.64 21.59, 35.33 0.24 M0.69 52.28 C19.11 30.98, 37.5 9.5, 45.96 0.2 M0.69 52.28 C14.57 36.32, 28.08 20.96, 45.96 0.2 M0.83 64.32 C14.49 48.36, 28.99 32.52, 56.59 0.17 M0.83 64.32 C16.78 47.83, 32.67 29.4, 56.59 0.17 M0.3 77.12 C15.05 59.36, 29.68 44.01, 67.22 0.13 M0.3 77.12 C15.28 59.19, 30.46 42.55, 67.22 0.13 M0.44 89.16 C27.2 57.34, 51.6 25.83, 77.2 0.86 M0.44 89.16 C24.91 60.94, 50.35 31.37, 77.2 0.86 M0.57 101.2 C25.55 71.03, 55.1 40.81, 87.83 0.82 M0.57 101.2 C20.15 79.12, 39.5 56.49, 87.83 0.82 M0.7 113.24 C32.81 75.09, 66.06 38.77, 97.8 1.54 M0.7 113.24 C25.83 84.25, 49.92 56.51, 97.8 1.54 M0.18 126.03 C24.22 96.95, 48.4 72.03, 106.46 3.77 M0.18 126.03 C27.2 95.1, 52.45 65.28, 106.46 3.77 M0.31 138.07 C28.51 105.94, 58.46 73.51, 112.5 9.02 M0.31 138.07 C33.57 100.72, 66.92 62.2, 112.5 9.02 M1.76 148.61 C35.71 108.13, 71.34 70.08, 117.23 15.78 M1.76 148.61 C47.8 95.46, 93.42 44.05, 117.23 15.78 M5.17 156.87 C33.46 122.69, 63.64 91.14, 118.67 26.31 M5.17 156.87 C45.14 109.03, 87.43 60.48, 118.67 26.31 M10.55 162.88 C50.34 120.01, 85.89 75.64, 119.46 37.59 M10.55 162.88 C49.57 118.09, 87.12 74.18, 119.46 37.59 M17.9 166.62 C52.17 129.12, 81 91.26, 119.59 49.64 M17.9 166.62 C49.58 129.24, 83.07 90.19, 119.59 49.64 M27.22 168.09 C55.72 133.26, 85.68 102.87, 119.73 61.68 M27.22 168.09 C59.35 131.21, 88.48 96.86, 119.73 61.68 M37.85 168.06 C64.35 138.53, 88.97 108.49, 119.2 74.47 M37.85 168.06 C60.86 141.52, 84.98 114.69, 119.2 74.47 M48.48 168.02 C68.07 147.72, 82.41 128.5, 119.34 86.51 M48.48 168.02 C73.91 138.94, 98.82 110.24, 119.34 86.51 M58.46 168.74 C80.37 144.87, 101.51 117.67, 119.47 98.55 M58.46 168.74 C80.07 145.61, 100.04 121.61, 119.47 98.55 M69.09 168.71 C82.62 150.51, 98.2 133.48, 119.6 110.59 M69.09 168.71 C86.02 148.74, 102.96 129.09, 119.6 110.59 M79.72 168.67 C88.64 158.74, 97.84 146.34, 119.74 122.64 M79.72 168.67 C90.04 157.85, 98.39 147.34, 119.74 122.64 M90.35 168.64 C103.07 154.94, 110.93 144.79, 119.21 135.43 M90.35 168.64 C96.31 161.07, 102.36 154.04, 119.21 135.43 M102.94 166.34 C108.76 158.92, 116.13 154.42, 118.69 148.23 M102.94 166.34 C107.77 160.98, 111.26 156.92, 118.69 148.23" stroke="#a5d8ff" stroke-width="1" fill="none"></path><path d="M29.86 0 C43.33 1.15, 56.79 -0.09, 89.58 0 M29.86 0 C53.01 -1.22, 75.78 0.3, 89.58 0 M89.58 0 C108.33 0.84, 118.85 9.49, 119.45 29.86 M89.58 0 C110.98 -1.29, 118.77 12.13, 119.45 29.86 M119.45 29.86 C116.89 52.91, 119.61 77.07, 119.45 138.45 M119.45 29.86 C121.31 57.03, 120.77 85.85, 119.45 138.45 M119.45 138.45 C119.33 159.38, 108.58 169.93, 89.58 168.31 M119.45 138.45 C121.38 158.43, 107.87 169.46, 89.58 168.31 M89.58 168.31 C67.63 167.14, 43.56 168.19, 29.86 168.31 M89.58 168.31 C77.26 168.95, 65.06 167.86, 29.86 168.31 M29.86 168.31 C9.53 167.4, -0.54 159.85, 0 138.45 M29.86 168.31 C8.12 168.97, 0.46 156.67, 0 138.45 M0 138.45 C0.13 108.9, -1.11 75.9, 0 29.86 M0 138.45 C0.63 103.2, 1.3 66.47, 0 29.86 M0 29.86 C-0.63 11.14, 9.9 1.77, 29.86 0 M0 29.86 C-1.71 10.86, 9.06 -0.06, 29.86 0" stroke="#1971c2" stroke-width="2" fill="none"></path></g><g stroke-linecap="round" transform="translate(828.0704209131757 463.3461162861156) rotate(0 62.40773825377573 87.14043438864216)"><path d="M7.65 7.97 C7.65 7.97, 7.65 7.97, 7.65 7.97 M7.65 7.97 C7.65 7.97, 7.65 7.97, 7.65 7.97 M1.22 27.56 C10.24 20.04, 16.1 8.41, 24.18 1.15 M1.22 27.56 C6.5 20.14, 11.95 14.92, 24.18 1.15 M1.36 39.6 C9.98 29.89, 15.13 22.97, 35.47 0.36 M1.36 39.6 C12.82 25.63, 26.23 12.03, 35.47 0.36 M0.83 52.4 C19.65 30.58, 35.88 10.37, 46.1 0.32 M0.83 52.4 C11.19 40.26, 21.99 28.36, 46.1 0.32 M0.97 64.44 C18.52 45.24, 36.88 21.7, 56.73 0.29 M0.97 64.44 C12.86 51.01, 22.53 39, 56.73 0.29 M1.1 76.48 C19.63 56.52, 37.34 33.24, 67.36 0.26 M1.1 76.48 C17.78 57.83, 36.14 38.16, 67.36 0.26 M1.23 88.52 C28.7 53.66, 60.77 21.27, 77.33 0.98 M1.23 88.52 C28.84 56.65, 55.29 24.95, 77.33 0.98 M0.71 101.32 C23.5 77.37, 40.08 55.21, 87.96 0.94 M0.71 101.32 C30.11 67.19, 59.79 33.26, 87.96 0.94 M0.84 113.36 C37.65 72.69, 71.92 30.43, 98.6 0.91 M0.84 113.36 C37.9 70.63, 74.42 27.38, 98.6 0.91 M0.98 125.4 C37.81 85.52, 72.75 42.52, 107.26 3.14 M0.98 125.4 C37.92 81.89, 75.8 36.41, 107.26 3.14 M0.45 138.19 C44.62 89.38, 86.47 40.78, 114.61 6.88 M0.45 138.19 C30.31 103.38, 60.13 67.52, 114.61 6.88 M1.24 149.48 C45.77 100.79, 89.01 50.58, 120.64 12.12 M1.24 149.48 C46.03 98.99, 90 46.37, 120.64 12.12 M3.34 159.26 C50.63 107.67, 98.42 53.98, 124.06 20.39 M3.34 159.26 C39.13 118.49, 74.93 77.89, 124.06 20.39 M8.07 166.02 C43.51 122.64, 84.47 77.81, 124.85 31.68 M8.07 166.02 C40.53 127.91, 74.9 89.28, 124.85 31.68 M14.76 170.51 C49.91 126.17, 89.79 84.55, 124.98 43.72 M14.76 170.51 C55.29 123.38, 94.86 77.51, 124.98 43.72 M22.77 173.49 C54.54 139.79, 85.69 102.75, 125.11 55.76 M22.77 173.49 C58.62 131.26, 97.53 87.87, 125.11 55.76 M32.74 174.21 C55.96 146.4, 79.16 118.15, 125.25 67.8 M32.74 174.21 C60.36 143.42, 86.51 112.27, 125.25 67.8 M43.37 174.18 C62.75 149.92, 87.38 122.52, 125.38 79.84 M43.37 174.18 C72.01 141.16, 101.41 107.63, 125.38 79.84 M53.35 174.9 C74.13 148.65, 96.12 126.52, 124.86 92.64 M53.35 174.9 C73.8 150.75, 94.98 125.73, 124.86 92.64 M63.98 174.87 C75.63 160.31, 90.71 144.66, 124.99 104.68 M63.98 174.87 C83.43 152.04, 102.54 130.59, 124.99 104.68 M74.61 174.83 C89.15 156.64, 102.61 140.7, 125.12 116.72 M74.61 174.83 C89.87 156.81, 107.07 138.73, 125.12 116.72 M85.24 174.8 C92.66 165.94, 101.7 154.97, 125.26 128.76 M85.24 174.8 C94.08 164.16, 104.6 153.55, 125.26 128.76 M96.52 174.01 C104.83 167.71, 110.08 156.25, 125.39 140.8 M96.52 174.01 C104.47 164.81, 113.22 155.26, 125.39 140.8 M107.81 173.22 C110.19 168.29, 115.14 163.87, 124.21 154.35 M107.81 173.22 C113.92 164.83, 121.16 157.82, 124.21 154.35" stroke="#ffc9c9" stroke-width="1" fill="none"></path><path d="M31.2 0 C53.81 -0.09, 81.24 -1.75, 93.61 0 M31.2 0 C54 1.23, 77.25 0.91, 93.61 0 M93.61 0 C113.81 -0.46, 126.11 9.28, 124.82 31.2 M93.61 0 C113.74 2.18, 123.06 8.95, 124.82 31.2 M124.82 31.2 C124.63 55.45, 122.88 84.24, 124.82 143.08 M124.82 31.2 C126.07 76.42, 125.71 121.02, 124.82 143.08 M124.82 143.08 C123.9 165.49, 116.1 174.34, 93.61 174.28 M124.82 143.08 C123.19 165.03, 116.41 174.32, 93.61 174.28 M93.61 174.28 C76.2 173.93, 56.64 172.32, 31.2 174.28 M93.61 174.28 C72.28 173.71, 49.36 174.02, 31.2 174.28 M31.2 174.28 C9.86 175.77, -1.6 164.45, 0 143.08 M31.2 174.28 C10.86 172.59, -0.39 161.99, 0 143.08 M0 143.08 C-1.57 118.75, 0.98 94.59, 0 31.2 M0 143.08 C0.72 112.49, 0.18 84.04, 0 31.2 M0 31.2 C-0.05 12.17, 8.92 0.79, 31.2 0 M0 31.2 C-0.89 10.35, 9.97 1.81, 31.2 0" stroke="#f08c00" stroke-width="2" fill="none"></path></g><g stroke-linecap="round" transform="translate(982.8073694361863 467.7811741589632) rotate(0 59.722856344140155 84.15726969486735)"><path d="M29.86 0 C54.54 -1.36, 77.14 -0.25, 89.58 0 M89.58 0 C107.93 -1.03, 120.93 8.79, 119.45 29.86 M119.45 29.86 C120.42 65.89, 118.53 106.04, 119.45 138.45 M119.45 138.45 C117.92 157.1, 108.07 166.45, 89.58 168.31 M89.58 168.31 C74.41 169.79, 63.01 169.61, 29.86 168.31 M29.86 168.31 C8.88 168.93, 1.14 158.25, 0 138.45 M0 138.45 C2.18 100.43, -0.92 63.28, 0 29.86 M0 29.86 C1.74 9.99, 9.59 1.15, 29.86 0" stroke="#1971c2" stroke-width="2.5" fill="none" stroke-dasharray="8 10"></path></g><g stroke-linecap="round"><g transform="translate(1044.5181366293812 436.19287473411373) rotate(0 100.00880929739913 -41.663408296920565)"><path d="M-0.74 0.88 C16.51 -13.34, 70.42 -72.03, 103.78 -84.26 C137.14 -96.5, 183.48 -74.42, 199.4 -72.52 M1.07 0.3 C18.14 -13.28, 69.92 -70.77, 102.79 -83.22 C135.67 -95.67, 182.24 -75.73, 198.31 -74.4" stroke="#1971c2" stroke-width="4" fill="none"></path></g><g transform="translate(1044.5181366293812 436.19287473411373) rotate(0 100.00880929739913 -41.663408296920565)"><path d="M173.51 -71.22 C182.93 -72.22, 187.87 -74.14, 198.31 -74.4 M173.51 -71.22 C182.51 -72.75, 192.75 -74.26, 198.31 -74.4" stroke="#1971c2" stroke-width="4" fill="none"></path></g><g transform="translate(1044.5181366293812 436.19287473411373) rotate(0 100.00880929739913 -41.663408296920565)"><path d="M177.27 -87.91 C185.63 -83.56, 189.36 -80.12, 198.31 -74.4 M177.27 -87.91 C184.77 -83.17, 193.59 -78.44, 198.31 -74.4" stroke="#1971c2" stroke-width="4" fill="none"></path></g></g><mask></mask></svg>