<svg version="1.1" xmlns="http://www.w3.org/2000/svg" viewBox="0 0 1689.4302912636817 417.80246951080375" width="1689.4302912636817" height="417.80246951080375">
  <!-- svg-source:excalidraw -->
  
  <defs>
    <style class="style-fonts">
      @font-face {
        font-family: "Virgil";
        src: url("https://excalidraw.com/Virgil.woff2");
      }
      @font-face {
        font-family: "Cascadia";
        src: url("https://excalidraw.com/Cascadia.woff2");
      }
      @font-face {
        font-family: "Assistant";
        src: url("https://excalidraw.com/Assistant-Regular.woff2");
      }
    </style>
    
  </defs>
  <rect x="0" y="0" width="1689.4302912636817" height="417.80246951080375" fill="#ffffff"></rect><g stroke-linecap="round" transform="translate(297.15629680156735 303.70481381118657) rotate(0 129.1208953857422 50.656463623046875)"><path d="M6.09 6.62 C6.09 6.62, 6.09 6.62, 6.09 6.62 M6.09 6.62 C6.09 6.62, 6.09 6.62, 6.09 6.62 M0.97 24.69 C8.71 17.44, 16.16 9.53, 21.96 0.54 M0.97 24.69 C7.07 17.87, 11.19 11.82, 21.96 0.54 M1.1 36.73 C10.08 25.26, 20.44 16, 32.59 0.51 M1.1 36.73 C14.43 22.67, 26.27 8.86, 32.59 0.51 M1.24 48.78 C10.85 36.53, 20.7 29.8, 43.22 0.47 M1.24 48.78 C16.28 30.49, 33.31 12.25, 43.22 0.47 M1.37 60.82 C17.53 41.23, 33.75 20.95, 53.85 0.44 M1.37 60.82 C19.75 38.04, 39.96 16.8, 53.85 0.44 M0.85 73.61 C14.79 57.03, 31.04 37.56, 64.48 0.41 M0.85 73.61 C24.6 45.5, 49.31 17.08, 64.48 0.41 M1.64 84.9 C23.9 58.97, 49.6 30.3, 75.11 0.37 M1.64 84.9 C19.17 64.31, 35.91 44.6, 75.11 0.37 M5.05 93.17 C35.89 60.04, 65.97 24.81, 85.74 0.34 M5.05 93.17 C31.75 61.71, 59.04 30.08, 85.74 0.34 M11.09 98.41 C34.43 73.52, 54.69 49.74, 96.38 0.3 M11.09 98.41 C39.22 66.88, 66.42 35.32, 96.38 0.3 M19.75 100.64 C42.15 76.95, 60.09 56.1, 107.01 0.27 M19.75 100.64 C52.89 64.29, 83.17 26.67, 107.01 0.27 M29.72 101.36 C54.98 72.09, 79.72 42.01, 117.64 0.23 M29.72 101.36 C50.83 77.7, 72.34 52, 117.64 0.23 M40.35 101.33 C58.49 79.19, 76.26 58.39, 128.27 0.2 M40.35 101.33 C64.9 72.69, 88.92 44.36, 128.27 0.2 M50.98 101.29 C82.58 66.25, 114.32 29.41, 138.9 0.16 M50.98 101.29 C85.33 62.09, 119.6 24.71, 138.9 0.16 M61.61 101.26 C81.32 77.17, 102.98 53.58, 148.87 0.88 M61.61 101.26 C93.68 63.19, 126.09 26.38, 148.87 0.88 M72.24 101.23 C95.47 77.86, 116.23 52.02, 159.5 0.85 M72.24 101.23 C91.71 78.83, 109.51 57.35, 159.5 0.85 M82.87 101.19 C103.03 79.65, 121.43 57.64, 170.13 0.81 M82.87 101.19 C100.85 77.63, 121.34 57.31, 170.13 0.81 M92.85 101.91 C115.76 77.88, 137.79 53.12, 180.76 0.78 M92.85 101.91 C127.1 60.77, 161.8 20.11, 180.76 0.78 M103.48 101.88 C132.07 67.31, 164.99 30.46, 191.39 0.75 M103.48 101.88 C126.65 72.89, 150.55 45.29, 191.39 0.75 M114.11 101.84 C140.5 67.32, 168.79 36.41, 202.02 0.71 M114.11 101.84 C138.51 74.01, 161.85 46.13, 202.02 0.71 M124.74 101.81 C145.01 81.27, 164.48 59.15, 212.65 0.68 M124.74 101.81 C151.26 72.3, 177.51 41.76, 212.65 0.68 M135.37 101.77 C168.64 66.48, 199.52 26.96, 223.28 0.64 M135.37 101.77 C165.94 66.3, 197.14 31.39, 223.28 0.64 M146 101.74 C170.08 72.79, 196.25 43.25, 233.91 0.61 M146 101.74 C172.15 71.21, 196.57 43.81, 233.91 0.61 M156.63 101.7 C184.4 69.59, 211.88 36.92, 243.88 1.33 M156.63 101.7 C177.69 75.73, 198.98 52.87, 243.88 1.33 M167.26 101.67 C187.76 79.29, 207.59 52.64, 250.58 5.82 M167.26 101.67 C199.76 64.13, 231.37 27.88, 250.58 5.82 M177.89 101.64 C199.12 77.34, 216.55 57.6, 255.3 12.58 M177.89 101.64 C204.36 71.13, 231.41 39.91, 255.3 12.58 M188.52 101.6 C206.35 79.01, 223.6 57.53, 258.06 21.6 M188.52 101.6 C213.18 73.95, 237 44.74, 258.06 21.6 M199.15 101.57 C215.64 80.71, 235.15 62.57, 258.19 33.64 M199.15 101.57 C216.83 82.15, 234.68 61.57, 258.19 33.64 M209.78 101.53 C224.69 85.57, 238.05 71.96, 258.33 45.68 M209.78 101.53 C224 86.5, 236.84 69.31, 258.33 45.68 M220.41 101.5 C234.28 86.79, 246.55 72.54, 258.46 57.72 M220.41 101.5 C235.77 83.57, 249.42 66.52, 258.46 57.72 M231.04 101.46 C240.64 90.8, 249.37 77.5, 258.59 69.77 M231.04 101.46 C240 91.75, 247.84 81.77, 258.59 69.77 M243.64 99.16 C246.79 94.61, 249.69 90.14, 257.41 83.32 M243.64 99.16 C249.03 93.69, 252.97 88.07, 257.41 83.32" stroke="#1e1e1e" stroke-width="1" fill="none"></path><path d="M25.33 0 C66.16 -0.08, 107.61 -0.73, 232.91 0 M25.33 0 C75.19 -0.84, 123.86 -1.7, 232.91 0 M232.91 0 C250.15 0.56, 260.21 9.62, 258.24 25.33 M232.91 0 C250.69 1.71, 257.99 7.06, 258.24 25.33 M258.24 25.33 C257.4 41.07, 257.96 57.93, 258.24 75.98 M258.24 25.33 C257.44 36.35, 256.98 49, 258.24 75.98 M258.24 75.98 C257.98 92.43, 249.26 101.48, 232.91 101.31 M258.24 75.98 C260.17 94.95, 251.8 99.5, 232.91 101.31 M232.91 101.31 C184.37 101.27, 132.9 98.72, 25.33 101.31 M232.91 101.31 C185.59 102.09, 137.79 100.98, 25.33 101.31 M25.33 101.31 C8.36 102, -0.05 91.45, 0 75.98 M25.33 101.31 C7.64 102.44, 0.99 90.91, 0 75.98 M0 75.98 C1.8 63.57, -0.55 51.73, 0 25.33 M0 75.98 C-0.72 56.72, 0.07 36.17, 0 25.33 M0 25.33 C0.99 8.98, 8.06 0.16, 25.33 0 M0 25.33 C-1.15 10.54, 6.96 -2.06, 25.33 0" stroke="#1e1e1e" stroke-width="2" fill="none"></path></g><g stroke-linecap="round" transform="translate(10 276.84989294708157) rotate(0 45.626708984375 63.708946228027344)"><path d="M2.96 9.2 C2.96 9.2, 2.96 9.2, 2.96 9.2 M2.96 9.2 C2.96 9.2, 2.96 9.2, 2.96 9.2 M3.75 20.48 C8.25 15.1, 12.24 12.24, 14.25 8.41 M3.75 20.48 C8.31 15.83, 11.72 10.68, 14.25 8.41 M3.88 32.52 C10.74 27.03, 14.41 17.8, 28.16 4.6 M3.88 32.52 C12.47 21.44, 23.09 9.71, 28.16 4.6 M3.36 45.32 C16.72 31.31, 28.79 16.32, 38.79 4.57 M3.36 45.32 C11.01 36.15, 20.58 27.09, 38.79 4.57 M3.49 57.36 C14.04 43.64, 27.31 29.37, 49.42 4.53 M3.49 57.36 C15.22 42.33, 28.68 28.67, 49.42 4.53 M3.63 69.4 C19.28 49.65, 34.72 33.39, 60.05 4.5 M3.63 69.4 C21.61 48.86, 40.94 27.38, 60.05 4.5 M3.76 81.44 C19.13 61.64, 34.29 46.77, 73.96 0.69 M3.76 81.44 C18.21 64.81, 31.59 47.79, 73.96 0.69 M3.24 94.24 C28.9 64.91, 53.86 34.99, 82.62 2.92 M3.24 94.24 C21.7 72.51, 39.26 50.87, 82.62 2.92 M2.71 107.03 C26.48 78.79, 52.81 50.62, 88 8.92 M2.71 107.03 C27.62 79.3, 52.28 51.13, 88 8.92 M3.5 118.32 C41.53 76.34, 77.54 35.23, 94.04 14.17 M3.5 118.32 C28.28 90.25, 52.76 61.33, 94.04 14.17 M8.88 124.32 C41.63 84.33, 79.34 45.27, 94.83 25.46 M8.88 124.32 C39.53 88.48, 71.13 52.24, 94.83 25.46 M16.89 127.31 C47.44 92.71, 77.55 61.21, 94.3 38.25 M16.89 127.31 C39.2 102.43, 59.94 78.26, 94.3 38.25 M23.58 131.8 C43.83 106.2, 67.9 80.6, 94.44 50.29 M23.58 131.8 C47.09 105.86, 68.64 80.47, 94.44 50.29 M33.56 132.52 C51.01 116.98, 62.11 100.14, 94.57 62.33 M33.56 132.52 C49.32 114.51, 65.42 95.66, 94.57 62.33 M44.19 132.49 C61.83 115.87, 73.8 98.52, 94.7 74.37 M44.19 132.49 C62.63 109.87, 81 88.69, 94.7 74.37 M54.82 132.45 C66.58 119.79, 79.98 102.26, 94.84 86.42 M54.82 132.45 C67.27 116.58, 81.15 102.86, 94.84 86.42 M69.38 127.89 C78.79 118.79, 84.27 110.75, 94.31 99.21 M69.38 127.89 C79.86 117.2, 88.28 106.12, 94.31 99.21" stroke="#ffc9c9" stroke-width="1" fill="none"></path><path d="M22.81 0 C40.02 1.62, 55.06 -0.55, 68.44 0 M22.81 0 C31.8 -0.01, 42.15 0.15, 68.44 0 M68.44 0 C82.47 -1.93, 91.23 6.87, 91.25 22.81 M68.44 0 C82.76 -1.61, 90.35 8.15, 91.25 22.81 M91.25 22.81 C89.29 52.61, 92.42 82.6, 91.25 104.6 M91.25 22.81 C90.18 52.44, 90.91 81.4, 91.25 104.6 M91.25 104.6 C93.15 119.43, 83.9 128.45, 68.44 127.42 M91.25 104.6 C92.77 121.87, 83.36 126.01, 68.44 127.42 M68.44 127.42 C55.27 126.27, 40.65 126.08, 22.81 127.42 M68.44 127.42 C50.94 127.37, 31.9 127.42, 22.81 127.42 M22.81 127.42 C8.79 128.56, -0.36 119.69, 0 104.6 M22.81 127.42 C8.38 125.93, -1.41 120.1, 0 104.6 M0 104.6 C0.51 78.95, 0.35 53.41, 0 22.81 M0 104.6 C0.01 76.21, -0.44 48.28, 0 22.81 M0 22.81 C0.67 7.41, 9.22 -0.29, 22.81 0 M0 22.81 C0.24 6.6, 8.25 1.8, 22.81 0" stroke="#f08c00" stroke-width="2" fill="none"></path></g><g stroke-linecap="round" transform="translate(122.6565636157992 277.8021107643881) rotate(0 45.626708984375 63.708946228027344)"><path d="M2.96 9.2 C2.96 9.2, 2.96 9.2, 2.96 9.2 M2.96 9.2 C2.96 9.2, 2.96 9.2, 2.96 9.2 M3.75 20.48 C5.83 17.53, 9.18 13.3, 14.25 8.41 M3.75 20.48 C5.69 17.57, 8.98 15, 14.25 8.41 M3.88 32.52 C11 23.01, 18.41 13.41, 28.16 4.6 M3.88 32.52 C12.36 22.26, 21.96 12.29, 28.16 4.6 M3.36 45.32 C10.16 34.04, 21.74 25.41, 38.79 4.57 M3.36 45.32 C12.11 36.23, 19.43 26.33, 38.79 4.57 M3.49 57.36 C15.59 44.81, 24.01 35.05, 49.42 4.53 M3.49 57.36 C21.06 38.49, 37.05 19.26, 49.42 4.53 M3.63 69.4 C26.11 44.2, 46.89 18.73, 60.05 4.5 M3.63 69.4 C20.62 49.3, 38.07 29.41, 60.05 4.5 M3.76 81.44 C30.32 50.32, 57.53 21.45, 73.96 0.69 M3.76 81.44 C28.22 54.8, 52.32 26.25, 73.96 0.69 M3.24 94.24 C30.18 63.17, 55.94 34.76, 82.62 2.92 M3.24 94.24 C29.75 62.38, 56.43 32.2, 82.62 2.92 M2.71 107.03 C34.16 71.41, 65.42 35.58, 88 8.92 M2.71 107.03 C28.23 79.41, 52.41 50.6, 88 8.92 M3.5 118.32 C26.73 92.63, 46.56 68.17, 94.04 14.17 M3.5 118.32 C38.58 80.9, 72.31 42.34, 94.04 14.17 M8.88 124.32 C31.72 97.49, 51.67 74.26, 94.83 25.46 M8.88 124.32 C30.87 99.24, 53.71 72.83, 94.83 25.46 M16.89 127.31 C30.87 107.61, 47.38 90.58, 94.3 38.25 M16.89 127.31 C45.39 95.14, 72.56 61.69, 94.3 38.25 M23.58 131.8 C48.28 103.32, 72.48 72.48, 94.44 50.29 M23.58 131.8 C40.12 112.87, 55.66 96.8, 94.44 50.29 M33.56 132.52 C58.2 104.22, 83.37 76.91, 94.57 62.33 M33.56 132.52 C49.46 115.55, 64.13 97.03, 94.57 62.33 M44.19 132.49 C56.94 119.81, 66.41 106.68, 94.7 74.37 M44.19 132.49 C62.38 111.18, 81.7 88.79, 94.7 74.37 M54.82 132.45 C63.95 122.25, 76.04 109.01, 94.84 86.42 M54.82 132.45 C62.69 121.2, 72.03 110.69, 94.84 86.42 M69.38 127.89 C73.26 120.24, 78.93 115.21, 94.31 99.21 M69.38 127.89 C77.19 119.78, 84.35 112.04, 94.31 99.21" stroke="#a5d8ff" stroke-width="1" fill="none"></path><path d="M22.81 0 C36.67 1.28, 47.9 1.79, 68.44 0 M22.81 0 C39.14 0.57, 56.55 0.5, 68.44 0 M68.44 0 C84.33 1.79, 92.31 6.28, 91.25 22.81 M68.44 0 C84.2 0.3, 89.56 9.27, 91.25 22.81 M91.25 22.81 C88.78 44.68, 88.78 66.95, 91.25 104.6 M91.25 22.81 C92.61 52.44, 91.79 82.95, 91.25 104.6 M91.25 104.6 C89.73 119.04, 84.63 128.65, 68.44 127.42 M91.25 104.6 C91.57 121.61, 81.74 125.93, 68.44 127.42 M68.44 127.42 C50.6 125.87, 35.79 128.6, 22.81 127.42 M68.44 127.42 C57.91 126.52, 48.55 127.57, 22.81 127.42 M22.81 127.42 C9.25 126.96, 0.71 118.46, 0 104.6 M22.81 127.42 C5.92 125.29, 0.75 122.03, 0 104.6 M0 104.6 C-2.08 89.13, 1.09 70.04, 0 22.81 M0 104.6 C-0.51 76.9, -0.67 46.7, 0 22.81 M0 22.81 C0.62 9.58, 7.94 0.74, 22.81 0 M0 22.81 C0.05 8, 7.67 2.16, 22.81 0" stroke="#1971c2" stroke-width="2" fill="none"></path></g><g stroke-linecap="round" transform="translate(381.1795347632315 300.51921361654775) rotate(0 48.875721243546536 24.44446966177952)"><path d="M12.22 0 C30.9 -0.12, 52.33 -1.82, 85.53 0 C90.08 0.31, 94.23 0.69, 97.75 12.22 C100.38 16.76, 99 26.29, 97.75 36.67 C97.87 47.71, 94.3 49.25, 85.53 48.89 C59.36 48.96, 27.65 47.11, 12.22 48.89 C2.06 51.53, 2.06 45.27, 0 36.67 C-1.87 28.75, -3.16 20.3, 0 12.22 C-0.87 1.35, 4.23 -2.24, 12.22 0" stroke="none" stroke-width="0" fill="#ffffff"></path><path d="M12.22 0 C31.42 0.34, 50.47 0.8, 85.53 0 M12.22 0 C38.2 -0.33, 64.24 -0.55, 85.53 0 M85.53 0 C92.5 0.85, 98.47 4.82, 97.75 12.22 M85.53 0 C95.87 -1.28, 98.31 5.76, 97.75 12.22 M97.75 12.22 C99.6 19.86, 98.02 25.89, 97.75 36.67 M97.75 12.22 C97.25 18.42, 98.1 25.1, 97.75 36.67 M97.75 36.67 C96.56 43.51, 94.57 50.81, 85.53 48.89 M97.75 36.67 C96.45 46.47, 92.16 50.63, 85.53 48.89 M85.53 48.89 C66.89 46.48, 50.59 49.12, 12.22 48.89 M85.53 48.89 C63.21 49.36, 39.67 48.69, 12.22 48.89 M12.22 48.89 C6.04 48.27, 0.29 44.87, 0 36.67 M12.22 48.89 C3.83 47.75, -0.58 45.29, 0 36.67 M0 36.67 C1.01 27.69, 0.89 19.78, 0 12.22 M0 36.67 C-0.17 29.68, -0.08 22.54, 0 12.22 M0 12.22 C-0.08 2.28, 5.76 -0.48, 12.22 0 M0 12.22 C1.94 2.91, 3.18 0.54, 12.22 0" stroke="#1e1e1e" stroke-width="1" fill="none"></path></g><g transform="translate(391.57257073082786 319.079263205638) rotate(0 35.29996610422205 -16.687991201046835)" stroke="none"><path fill="#ffffff" d="M -9.21,0 Q -9.21,0 -9.32,-0.79 -9.42,-1.58 -9.74,-6.44 -10.05,-11.30 -10.30,-15.65 -10.56,-20.00 -10.40,-24.38 -10.25,-28.75 -10.46,-31.02 -10.67,-33.29 -10.48,-34.82 -10.30,-36.35 -9.75,-37.79 -9.21,-39.23 -8.33,-40.50 -7.45,-41.77 -6.30,-42.79 -5.15,-43.81 -3.78,-44.53 -2.42,-45.24 -0.92,-45.61 0.56,-45.98 2.10,-45.98 3.64,-45.98 5.14,-45.61 6.63,-45.24 8.00,-44.53 9.36,-43.81 10.52,-42.79 11.67,-41.77 12.54,-40.50 13.42,-39.23 13.97,-37.79 14.51,-36.35 14.70,-34.82 14.88,-33.29 17.09,-28.66 19.29,-24.03 16.59,-27.62 13.88,-31.21 18.18,-31.42 22.47,-31.63 27.41,-31.19 32.34,-30.76 36.96,-30.90 41.57,-31.04 46.25,-30.52 50.92,-30.01 56.25,-29.35 61.57,-28.69 65.00,-25.89 68.42,-23.09 71.01,-19.71 73.60,-16.33 66.91,-15.91 60.23,-15.48 57.57,-12.15 54.91,-8.81 54.99,-13.13 55.06,-17.45 54.89,-21.70 54.72,-25.95 54.59,-27.00 54.46,-28.06 54.64,-30.58 54.82,-33.10 55.79,-35.43 56.77,-37.76 58.44,-39.66 60.10,-41.55 62.29,-42.82 64.48,-44.08 66.95,-44.58 69.43,-45.08 71.93,-44.77 74.44,-44.45 76.71,-43.35 78.99,-42.25 80.79,-40.48 82.59,-38.71 83.74,-36.46 84.88,-34.21 85.25,-31.71 85.61,-29.21 85.16,-26.73 84.71,-24.24 83.49,-22.03 82.27,-19.82 80.40,-18.12 78.54,-16.41 76.23,-15.39 73.92,-14.37 71.40,-14.14 68.89,-13.91 66.43,-14.50 63.98,-15.08 61.83,-16.42 59.69,-17.76 58.09,-19.72 56.49,-21.67 55.60,-24.03 54.70,-26.39 54.61,-28.92 54.52,-31.44 55.23,-33.86 55.95,-36.28 57.41,-38.35 58.86,-40.41 60.90,-41.91 62.93,-43.40 65.34,-44.17 67.75,-44.93 70.27,-44.89 72.80,-44.84 75.18,-43.99 77.56,-43.15 79.54,-41.58 81.52,-40.02 82.90,-37.90 84.28,-35.79 84.92,-33.34 85.55,-30.90 85.55,-30.90 85.55,-30.90 85.73,-27.29 85.91,-23.67 85.99,-19.16 86.08,-14.64 85.47,-10.17 84.87,-5.69 84.14,-1.48 83.42,2.71 80.63,6.21 77.85,9.70 71.15,11.07 64.46,12.43 59.53,10.04 54.61,7.65 51.50,4.16 48.38,0.67 45.81,-2.89 43.25,-6.47 47.95,-3.39 52.66,-0.31 48.08,-0.79 43.50,-1.28 39.05,-1.46 34.60,-1.65 29.89,-2.08 25.18,-2.52 20.95,-3.04 16.72,-3.56 12.32,-4.73 7.92,-5.89 3.77,-6.97 -0.38,-8.06 -3.59,-12.00 -6.81,-15.95 -8.64,-20.27 -10.47,-24.59 -10.57,-28.94 -10.67,-33.29 -10.48,-34.82 -10.30,-36.35 -9.75,-37.79 -9.21,-39.23 -8.33,-40.50 -7.46,-41.77 -6.30,-42.79 -5.15,-43.81 -3.79,-44.53 -2.42,-45.24 -0.93,-45.61 0.56,-45.98 2.10,-45.98 3.64,-45.98 5.14,-45.61 6.63,-45.24 8.00,-44.53 9.36,-43.81 10.51,-42.79 11.67,-41.77 12.54,-40.50 13.42,-39.23 13.96,-37.79 14.51,-36.35 14.70,-34.82 14.88,-33.29 14.67,-30.66 14.45,-28.03 13.52,-23.59 12.58,-19.16 11.95,-14.78 11.33,-10.40 10.38,-5.99 9.42,-1.58 9.32,-0.79 9.21,0 9.07,1.10 8.94,2.20 8.55,3.24 8.15,4.28 7.52,5.19 6.89,6.10 6.06,6.84 5.23,7.58 4.24,8.09 3.26,8.61 2.18,8.87 1.10,9.14 -0.00,9.14 -1.11,9.14 -2.18,8.87 -3.26,8.61 -4.25,8.09 -5.23,7.58 -6.06,6.84 -6.89,6.10 -7.52,5.19 -8.15,4.28 -8.55,3.24 -8.94,2.20 -9.07,1.10 -9.21,-0.00 -9.21,-0.00 L -9.21,0 Z"></path></g><g transform="translate(464.714545960756 309.9213449571891) rotate(0 1.7007237678651848 -13.813313134271723)" stroke="none"><path fill="#ffffff" d="M -3.04,-8.51 Q -3.04,-8.51 -2.59,-8.75 -2.14,-8.99 -0.40,-9.45 1.33,-9.91 2.45,-9.85 3.58,-9.79 4.66,-9.46 5.73,-9.13 6.70,-8.55 7.67,-7.97 8.47,-7.18 9.27,-6.39 9.86,-5.43 10.45,-4.46 10.79,-3.39 11.13,-2.32 11.21,-1.19 11.28,-0.07 11.08,1.03 10.89,2.14 10.43,3.18 9.97,4.21 9.28,5.10 8.59,5.99 7.71,6.69 6.82,7.39 5.80,7.86 4.77,8.32 3.66,8.53 2.56,8.74 1.94,-0.58 1.32,-9.90 2.45,-9.84 3.57,-9.78 4.65,-9.45 5.72,-9.12 6.69,-8.54 7.66,-7.97 8.46,-7.18 9.26,-6.38 9.85,-5.42 10.44,-4.46 10.78,-3.39 11.12,-2.31 11.19,-1.19 11.26,-0.07 11.07,1.03 10.87,2.14 10.41,3.17 9.96,4.20 9.27,5.09 8.58,5.98 7.69,6.68 6.81,7.38 5.79,7.85 4.76,8.32 3.66,8.52 2.55,8.73 2.20,-0.59 1.86,-9.93 6.48,-6.81 11.10,-3.69 11.37,1.04 11.63,5.77 11.12,1.43 10.60,-2.90 6.88,-5.02 3.15,-7.14 3.26,-7.16 3.37,-7.17 4.56,-7.02 5.76,-6.88 6.88,-6.45 8.01,-6.02 9.00,-5.33 9.99,-4.65 10.78,-3.74 11.58,-2.84 12.14,-1.77 12.70,-0.71 12.98,0.45 13.27,1.62 13.27,2.83 13.26,4.03 12.97,5.20 12.68,6.37 12.12,7.44 11.56,8.50 10.76,9.40 9.96,10.30 8.97,10.98 7.97,11.67 6.85,12.09 5.72,12.52 4.52,12.66 3.33,12.80 -1.49,8.12 -6.33,3.45 -7.00,-0.75 -7.68,-4.96 -9.04,-9.15 -10.40,-13.33 -10.90,-17.68 -11.40,-22.03 -8.46,-20.41 -5.52,-18.80 -7.22,-20.02 -8.93,-21.24 -10.15,-22.94 -11.38,-24.65 -11.99,-26.65 -12.61,-28.66 -12.55,-30.75 -12.49,-32.85 -11.77,-34.82 -11.05,-36.79 -9.74,-38.42 -8.42,-40.06 -6.66,-41.19 -4.89,-42.32 -2.85,-42.82 -0.82,-43.33 1.26,-43.16 3.35,-42.99 5.28,-42.16 7.21,-41.33 8.77,-39.93 10.33,-38.53 11.36,-36.71 12.39,-34.88 12.79,-32.82 13.18,-30.76 12.90,-28.68 12.62,-26.61 11.69,-24.73 10.75,-22.85 9.27,-21.37 7.79,-19.88 5.91,-18.95 4.03,-18.02 1.95,-17.74 -0.11,-17.45 -2.17,-17.85 -4.23,-18.24 -6.06,-19.27 -7.88,-20.31 -9.29,-21.87 -10.69,-23.43 -11.51,-25.35 -12.34,-27.28 -12.51,-29.37 -12.68,-31.46 -12.18,-33.50 -11.67,-35.53 -10.54,-37.30 -9.41,-39.07 -7.78,-40.38 -6.14,-41.69 -4.17,-42.42 -2.21,-43.14 -0.11,-43.20 1.98,-43.25 3.98,-42.64 5.99,-42.02 5.98,-42.02 5.98,-42.02 9.54,-32.83 13.09,-23.64 12.63,-19.35 12.17,-15.05 13.28,-10.68 14.40,-6.30 13.71,-2.06 13.02,2.17 8.19,-2.49 3.37,-7.17 4.56,-7.02 5.76,-6.88 6.88,-6.45 8.01,-6.02 9.00,-5.33 9.99,-4.65 10.78,-3.74 11.58,-2.84 12.14,-1.77 12.70,-0.71 12.98,0.45 13.27,1.62 13.27,2.83 13.26,4.03 12.97,5.20 12.68,6.37 12.12,7.44 11.56,8.50 10.76,9.40 9.96,10.30 8.97,10.98 7.97,11.67 6.85,12.09 5.72,12.52 4.52,12.66 3.33,12.80 0.29,11.87 -2.74,10.93 -4.66,6.79 -6.57,2.65 -2.24,5.70 2.07,8.76 1.70,-0.57 1.32,-9.90 2.44,-9.84 3.57,-9.78 4.65,-9.45 5.72,-9.12 6.69,-8.55 7.66,-7.97 8.46,-7.18 9.26,-6.38 9.85,-5.42 10.43,-4.46 10.78,-3.39 11.12,-2.32 11.19,-1.19 11.26,-0.07 11.07,1.03 10.87,2.14 10.41,3.17 9.96,4.20 9.27,5.09 8.58,5.98 7.70,6.68 6.81,7.38 5.79,7.85 4.76,8.31 3.66,8.52 2.55,8.73 1.94,-0.58 1.33,-9.91 2.45,-9.85 3.58,-9.79 4.66,-9.46 5.73,-9.13 6.70,-8.55 7.67,-7.97 8.47,-7.18 9.27,-6.39 9.86,-5.43 10.45,-4.47 10.79,-3.39 11.13,-2.32 11.21,-1.19 11.28,-0.07 11.08,1.03 10.89,2.14 10.43,3.17 9.97,4.20 9.28,5.10 8.59,5.99 7.71,6.69 6.82,7.39 5.80,7.86 4.77,8.32 3.66,8.53 2.56,8.74 3.29,8.53 4.03,8.32 3.53,8.41 3.04,8.51 1.97,8.75 0.91,8.99 -0.17,8.97 -1.26,8.95 -2.31,8.67 -3.37,8.39 -4.32,7.86 -5.28,7.34 -6.08,6.60 -6.88,5.86 -7.48,4.95 -8.08,4.04 -8.45,3.01 -8.82,1.99 -8.93,0.90 -9.04,-0.17 -8.89,-1.25 -8.73,-2.33 -8.33,-3.34 -7.92,-4.35 -7.28,-5.24 -6.65,-6.12 -5.82,-6.83 -4.99,-7.54 -4.01,-8.03 -3.04,-8.51 -3.04,-8.51 L -3.04,-8.51 Z"></path></g><g stroke-linecap="round" transform="translate(851.2372411537186 306.48954226471) rotate(0 129.1208953857422 50.65646362304688)"><path d="M6.09 6.62 C6.09 6.62, 6.09 6.62, 6.09 6.62 M6.09 6.62 C6.09 6.62, 6.09 6.62, 6.09 6.62 M0.97 24.69 C7.62 14.93, 16.74 8.57, 21.96 0.54 M0.97 24.69 C8.09 16.6, 13.98 9.86, 21.96 0.54 M1.1 36.73 C12.72 21.54, 24.17 8.97, 32.59 0.51 M1.1 36.73 C8.71 28.81, 15.4 20.42, 32.59 0.51 M1.24 48.78 C16.11 33.9, 26.16 19.57, 43.22 0.47 M1.24 48.78 C16.09 31.04, 31.65 15.15, 43.22 0.47 M1.37 60.82 C18.15 37.71, 40.16 19.41, 53.85 0.44 M1.37 60.82 C18.03 40.64, 36.42 20.61, 53.85 0.44 M0.85 73.61 C20.02 52.38, 40.59 30.91, 64.48 0.41 M0.85 73.61 C21.75 49.52, 43.64 26.95, 64.48 0.41 M1.64 84.9 C22.55 60.17, 45.15 36.45, 75.11 0.37 M1.64 84.9 C18.31 62.69, 36.78 42.14, 75.11 0.37 M5.05 93.17 C25.21 68.51, 45.28 44.59, 85.74 0.34 M5.05 93.17 C28.37 64.4, 52.93 38.66, 85.74 0.34 M11.09 98.41 C34.98 74.52, 56.49 47.51, 96.38 0.3 M11.09 98.41 C45.77 59.91, 78.83 20.77, 96.38 0.3 M19.75 100.64 C43.31 74.34, 66.24 44.36, 107.01 0.27 M19.75 100.64 C51.96 65.1, 82.17 28.52, 107.01 0.27 M29.72 101.36 C50.52 79.16, 73.11 54.47, 117.64 0.23 M29.72 101.36 C55.4 70.85, 80.76 42.31, 117.64 0.23 M40.35 101.33 C73.27 61.89, 111.18 23.01, 128.27 0.2 M40.35 101.33 C72.55 63.72, 104.82 27.56, 128.27 0.2 M50.98 101.29 C76.45 74.08, 97.1 47.92, 138.9 0.16 M50.98 101.29 C70.36 79.21, 88.45 56.41, 138.9 0.16 M61.61 101.26 C93.98 63.67, 130.64 23.21, 148.87 0.88 M61.61 101.26 C93.4 62.87, 125.37 26.65, 148.87 0.88 M72.24 101.23 C97.94 72.32, 120.1 46.24, 159.5 0.85 M72.24 101.23 C104.63 65.8, 137.13 28.81, 159.5 0.85 M82.87 101.19 C101.37 78.96, 119.72 60.34, 170.13 0.81 M82.87 101.19 C116.48 61.12, 151.19 21.45, 170.13 0.81 M92.85 101.91 C123 67.61, 152.13 35.05, 180.76 0.78 M92.85 101.91 C118.16 73.34, 144.18 43.15, 180.76 0.78 M103.48 101.88 C130.28 75, 153.59 42.25, 191.39 0.75 M103.48 101.88 C128.93 74.44, 151.92 46.18, 191.39 0.75 M114.11 101.84 C143.93 67.96, 171.5 36.46, 202.02 0.71 M114.11 101.84 C134.04 77.92, 153.2 54.55, 202.02 0.71 M124.74 101.81 C146.52 73.9, 170.6 46.17, 212.65 0.68 M124.74 101.81 C158.54 64.44, 192.64 24.95, 212.65 0.68 M135.37 101.77 C162.63 72.04, 190.4 41.05, 223.28 0.64 M135.37 101.77 C153.76 80.17, 172.54 59.04, 223.28 0.64 M146 101.74 C170.36 73.83, 194.06 48.24, 233.91 0.61 M146 101.74 C173.05 71.38, 202.2 38.75, 233.91 0.61 M156.63 101.7 C186.3 67.06, 216.58 33.09, 243.88 1.33 M156.63 101.7 C184.72 68.17, 213.8 35.73, 243.88 1.33 M167.26 101.67 C185.08 78.76, 205.86 57.8, 250.58 5.82 M167.26 101.67 C184.98 81.88, 202.35 61.93, 250.58 5.82 M177.89 101.64 C199.77 78.43, 221.77 52.49, 255.3 12.58 M177.89 101.64 C201.94 75.85, 223.83 49.82, 255.3 12.58 M188.52 101.6 C210.41 75, 235.06 48.27, 258.06 21.6 M188.52 101.6 C205.59 82.71, 222.5 63.73, 258.06 21.6 M199.15 101.57 C223.28 75.26, 242.36 51.81, 258.19 33.64 M199.15 101.57 C215.15 84, 230.42 66.23, 258.19 33.64 M209.78 101.53 C220.91 88.63, 229.53 79.29, 258.33 45.68 M209.78 101.53 C223.53 84.93, 238.28 68.4, 258.33 45.68 M220.41 101.5 C230.35 89.95, 239.54 77.92, 258.46 57.72 M220.41 101.5 C227.29 92.27, 236.88 82.9, 258.46 57.72 M231.04 101.46 C239.16 93.18, 250.11 80.29, 258.59 69.77 M231.04 101.46 C240.34 91.35, 248.5 80.47, 258.59 69.77 M243.64 99.16 C248.34 92.92, 255.34 86.13, 257.41 83.32 M243.64 99.16 C248.75 92.76, 252.38 88.88, 257.41 83.32" stroke="#1e1e1e" stroke-width="1" fill="none"></path><path d="M25.33 0 C93.74 0.75, 160.67 -0.19, 232.91 0 M25.33 0 C73.27 0.19, 119.72 -1.43, 232.91 0 M232.91 0 C251.1 -0.98, 259.93 9.85, 258.24 25.33 M232.91 0 C251.41 2.17, 258.15 7.54, 258.24 25.33 M258.24 25.33 C259.83 43.61, 258.15 61.93, 258.24 75.98 M258.24 25.33 C257.24 40.85, 258.11 55.79, 258.24 75.98 M258.24 75.98 C257.4 94.69, 250.07 100.24, 232.91 101.31 M258.24 75.98 C256.52 92.42, 247.96 99.62, 232.91 101.31 M232.91 101.31 C185.31 98.01, 138.09 98.92, 25.33 101.31 M232.91 101.31 C174.27 100.31, 116.6 100.77, 25.33 101.31 M25.33 101.31 C9.09 102.5, -0.82 91.56, 0 75.98 M25.33 101.31 C8.9 100.33, 1.28 93.93, 0 75.98 M0 75.98 C0.27 59.86, -1.25 46.42, 0 25.33 M0 75.98 C0.1 63.89, 0.51 53.26, 0 25.33 M0 25.33 C-0.97 8.62, 6.96 0.15, 25.33 0 M0 25.33 C-1.03 8.75, 7.34 0.47, 25.33 0" stroke="#1e1e1e" stroke-width="2" fill="none"></path></g><g stroke-linecap="round" transform="translate(935.2604791153827 303.3039420700711) rotate(0 48.875721243546536 24.44446966177952)"><path d="M12.22 0 C37.27 -2.11, 58.3 0.19, 85.53 0 C91.11 0.74, 97.12 2.83, 97.75 12.22 C97.22 15.07, 97.08 18.84, 97.75 36.67 C101.22 44.17, 93.76 50.54, 85.53 48.89 C68.33 46.58, 51.65 51.14, 12.22 48.89 C1.12 47.83, -1.84 41.79, 0 36.67 C1.09 29.19, 2.01 18.86, 0 12.22 C1.5 4.75, 6.08 -1.06, 12.22 0" stroke="none" stroke-width="0" fill="#ffffff"></path><path d="M12.22 0 C29.07 -1.5, 43.92 -1.4, 85.53 0 M12.22 0 C35.79 -1.59, 61.43 -1.12, 85.53 0 M85.53 0 C95.36 1.41, 99.16 5.96, 97.75 12.22 M85.53 0 C93.59 -0.9, 99.1 2.45, 97.75 12.22 M97.75 12.22 C98.25 17.7, 97.88 22.07, 97.75 36.67 M97.75 12.22 C97.54 18.77, 97.12 25.03, 97.75 36.67 M97.75 36.67 C98.02 43.74, 92.18 48.5, 85.53 48.89 M97.75 36.67 C95.91 43.12, 91.99 49.13, 85.53 48.89 M85.53 48.89 C69.26 47.37, 54.27 47.08, 12.22 48.89 M85.53 48.89 C63.87 47.87, 43.59 48.83, 12.22 48.89 M12.22 48.89 C3.25 47.58, 0.4 43.96, 0 36.67 M12.22 48.89 C5.35 49.95, -0.32 46.74, 0 36.67 M0 36.67 C-0.91 27.62, -1.51 19.5, 0 12.22 M0 36.67 C0.43 28.7, -0.49 19.92, 0 12.22 M0 12.22 C-1.48 4.22, 3.18 0.27, 12.22 0 M0 12.22 C-1.1 4.54, 3.77 -0.93, 12.22 0" stroke="#1e1e1e" stroke-width="1" fill="none"></path></g><g transform="translate(945.6535150829792 321.86399165916134) rotate(0 35.29996610422205 -16.687991201046835)" stroke="none"><path fill="#ffffff" d="M -9.21,0 Q -9.21,0 -9.32,-0.79 -9.42,-1.58 -9.74,-6.44 -10.05,-11.30 -10.30,-15.65 -10.56,-20.00 -10.40,-24.38 -10.25,-28.75 -10.46,-31.02 -10.67,-33.29 -10.48,-34.82 -10.30,-36.35 -9.75,-37.79 -9.21,-39.23 -8.33,-40.50 -7.45,-41.77 -6.30,-42.79 -5.15,-43.81 -3.78,-44.53 -2.42,-45.24 -0.92,-45.61 0.56,-45.98 2.10,-45.98 3.64,-45.98 5.14,-45.61 6.63,-45.24 8.00,-44.53 9.36,-43.81 10.52,-42.79 11.67,-41.77 12.54,-40.50 13.42,-39.23 13.97,-37.79 14.51,-36.35 14.70,-34.82 14.88,-33.29 17.09,-28.66 19.29,-24.03 16.59,-27.62 13.88,-31.21 18.18,-31.42 22.47,-31.63 27.41,-31.19 32.34,-30.76 36.96,-30.90 41.57,-31.04 46.25,-30.52 50.92,-30.01 56.25,-29.35 61.57,-28.69 65.00,-25.89 68.42,-23.09 71.01,-19.71 73.60,-16.33 66.91,-15.91 60.23,-15.48 57.57,-12.15 54.91,-8.81 54.99,-13.13 55.06,-17.45 54.89,-21.70 54.72,-25.95 54.59,-27.00 54.46,-28.06 54.64,-30.58 54.82,-33.10 55.79,-35.43 56.77,-37.76 58.44,-39.66 60.10,-41.55 62.29,-42.82 64.48,-44.08 66.95,-44.58 69.43,-45.08 71.93,-44.77 74.44,-44.45 76.71,-43.35 78.99,-42.25 80.79,-40.48 82.59,-38.71 83.74,-36.46 84.88,-34.21 85.25,-31.71 85.61,-29.21 85.16,-26.73 84.71,-24.24 83.49,-22.03 82.27,-19.82 80.40,-18.12 78.54,-16.41 76.23,-15.39 73.92,-14.37 71.40,-14.14 68.89,-13.91 66.43,-14.50 63.98,-15.08 61.83,-16.42 59.69,-17.76 58.09,-19.72 56.49,-21.67 55.60,-24.03 54.70,-26.39 54.61,-28.92 54.52,-31.44 55.23,-33.86 55.95,-36.28 57.41,-38.35 58.86,-40.41 60.90,-41.91 62.93,-43.40 65.34,-44.17 67.75,-44.93 70.27,-44.89 72.80,-44.84 75.18,-43.99 77.56,-43.15 79.54,-41.58 81.52,-40.02 82.90,-37.90 84.28,-35.79 84.92,-33.34 85.55,-30.90 85.55,-30.90 85.55,-30.90 85.73,-27.29 85.91,-23.67 85.99,-19.16 86.08,-14.64 85.47,-10.17 84.87,-5.69 84.14,-1.48 83.42,2.71 80.63,6.21 77.85,9.70 71.15,11.07 64.46,12.43 59.53,10.04 54.61,7.65 51.50,4.16 48.38,0.67 45.81,-2.89 43.25,-6.47 47.95,-3.39 52.66,-0.31 48.08,-0.79 43.50,-1.28 39.05,-1.46 34.60,-1.65 29.89,-2.08 25.18,-2.52 20.95,-3.04 16.72,-3.56 12.32,-4.73 7.92,-5.89 3.77,-6.97 -0.38,-8.06 -3.59,-12.00 -6.81,-15.95 -8.64,-20.27 -10.47,-24.59 -10.57,-28.94 -10.67,-33.29 -10.48,-34.82 -10.30,-36.35 -9.75,-37.79 -9.21,-39.23 -8.33,-40.50 -7.46,-41.77 -6.30,-42.79 -5.15,-43.81 -3.79,-44.53 -2.42,-45.24 -0.93,-45.61 0.56,-45.98 2.10,-45.98 3.64,-45.98 5.14,-45.61 6.63,-45.24 8.00,-44.53 9.36,-43.81 10.51,-42.79 11.67,-41.77 12.54,-40.50 13.42,-39.23 13.96,-37.79 14.51,-36.35 14.70,-34.82 14.88,-33.29 14.67,-30.66 14.45,-28.03 13.52,-23.59 12.58,-19.16 11.95,-14.78 11.33,-10.40 10.38,-5.99 9.42,-1.58 9.32,-0.79 9.21,0 9.07,1.10 8.94,2.20 8.55,3.24 8.15,4.28 7.52,5.19 6.89,6.10 6.06,6.84 5.23,7.58 4.24,8.09 3.26,8.61 2.18,8.87 1.10,9.14 -0.00,9.14 -1.11,9.14 -2.18,8.87 -3.26,8.61 -4.25,8.09 -5.23,7.58 -6.06,6.84 -6.89,6.10 -7.52,5.19 -8.15,4.28 -8.55,3.24 -8.94,2.20 -9.07,1.10 -9.21,-0.00 -9.21,-0.00 L -9.21,0 Z"></path></g><g transform="translate(1018.7954903129073 312.7060734107125) rotate(0 1.7007237678652132 -13.813313134271723)" stroke="none"><path fill="#ffffff" d="M -3.04,-8.51 Q -3.04,-8.51 -2.59,-8.75 -2.14,-8.99 -0.40,-9.45 1.33,-9.91 2.45,-9.85 3.58,-9.79 4.66,-9.46 5.73,-9.13 6.70,-8.55 7.67,-7.97 8.47,-7.18 9.27,-6.39 9.86,-5.43 10.45,-4.46 10.79,-3.39 11.13,-2.32 11.21,-1.19 11.28,-0.07 11.08,1.03 10.89,2.14 10.43,3.18 9.97,4.21 9.28,5.10 8.59,5.99 7.71,6.69 6.82,7.39 5.80,7.86 4.77,8.32 3.66,8.53 2.56,8.74 1.94,-0.58 1.32,-9.90 2.45,-9.84 3.57,-9.78 4.65,-9.45 5.72,-9.12 6.69,-8.54 7.66,-7.97 8.46,-7.18 9.26,-6.38 9.85,-5.42 10.44,-4.46 10.78,-3.39 11.12,-2.31 11.19,-1.19 11.26,-0.07 11.07,1.03 10.87,2.14 10.41,3.17 9.96,4.20 9.27,5.09 8.58,5.98 7.69,6.68 6.81,7.38 5.79,7.85 4.76,8.32 3.66,8.52 2.55,8.73 2.20,-0.59 1.86,-9.93 6.48,-6.81 11.10,-3.69 11.37,1.04 11.63,5.77 11.12,1.43 10.60,-2.90 6.88,-5.02 3.15,-7.14 3.26,-7.16 3.37,-7.17 4.56,-7.02 5.76,-6.88 6.88,-6.45 8.01,-6.02 9.00,-5.33 9.99,-4.65 10.78,-3.74 11.58,-2.84 12.14,-1.77 12.70,-0.71 12.98,0.45 13.27,1.62 13.27,2.83 13.26,4.03 12.97,5.20 12.68,6.37 12.12,7.44 11.56,8.50 10.76,9.40 9.96,10.30 8.97,10.98 7.97,11.67 6.85,12.09 5.72,12.52 4.52,12.66 3.33,12.80 -1.49,8.12 -6.33,3.45 -7.00,-0.75 -7.68,-4.96 -9.04,-9.15 -10.40,-13.33 -10.90,-17.68 -11.40,-22.03 -8.46,-20.41 -5.52,-18.80 -7.22,-20.02 -8.93,-21.24 -10.15,-22.94 -11.38,-24.65 -11.99,-26.65 -12.61,-28.66 -12.55,-30.75 -12.49,-32.85 -11.77,-34.82 -11.05,-36.79 -9.74,-38.42 -8.42,-40.06 -6.66,-41.19 -4.89,-42.32 -2.85,-42.82 -0.82,-43.33 1.26,-43.16 3.35,-42.99 5.28,-42.16 7.21,-41.33 8.77,-39.93 10.33,-38.53 11.36,-36.71 12.39,-34.88 12.79,-32.82 13.18,-30.76 12.90,-28.68 12.62,-26.61 11.69,-24.73 10.75,-22.85 9.27,-21.37 7.79,-19.88 5.91,-18.95 4.03,-18.02 1.95,-17.74 -0.11,-17.45 -2.17,-17.85 -4.23,-18.24 -6.06,-19.27 -7.88,-20.31 -9.29,-21.87 -10.69,-23.43 -11.51,-25.35 -12.34,-27.28 -12.51,-29.37 -12.68,-31.46 -12.18,-33.50 -11.67,-35.53 -10.54,-37.30 -9.41,-39.07 -7.78,-40.38 -6.14,-41.69 -4.17,-42.42 -2.21,-43.14 -0.11,-43.20 1.98,-43.25 3.98,-42.64 5.99,-42.02 5.98,-42.02 5.98,-42.02 9.54,-32.83 13.09,-23.64 12.63,-19.35 12.17,-15.05 13.28,-10.68 14.40,-6.30 13.71,-2.06 13.02,2.17 8.19,-2.49 3.37,-7.17 4.56,-7.02 5.76,-6.88 6.88,-6.45 8.01,-6.02 9.00,-5.33 9.99,-4.65 10.78,-3.74 11.58,-2.84 12.14,-1.77 12.70,-0.71 12.98,0.45 13.27,1.62 13.27,2.83 13.26,4.03 12.97,5.20 12.68,6.37 12.12,7.44 11.56,8.50 10.76,9.40 9.96,10.30 8.97,10.98 7.97,11.67 6.85,12.09 5.72,12.52 4.52,12.66 3.33,12.80 0.29,11.87 -2.74,10.93 -4.66,6.79 -6.57,2.65 -2.24,5.70 2.07,8.76 1.70,-0.57 1.32,-9.90 2.44,-9.84 3.57,-9.78 4.65,-9.45 5.72,-9.12 6.69,-8.55 7.66,-7.97 8.46,-7.18 9.26,-6.38 9.85,-5.42 10.43,-4.46 10.78,-3.39 11.12,-2.32 11.19,-1.19 11.26,-0.07 11.07,1.03 10.87,2.14 10.41,3.17 9.96,4.20 9.27,5.09 8.58,5.98 7.70,6.68 6.81,7.38 5.79,7.85 4.76,8.31 3.66,8.52 2.55,8.73 1.94,-0.58 1.33,-9.91 2.45,-9.85 3.58,-9.79 4.66,-9.46 5.73,-9.13 6.70,-8.55 7.67,-7.97 8.47,-7.18 9.27,-6.39 9.86,-5.43 10.45,-4.47 10.79,-3.39 11.13,-2.32 11.21,-1.19 11.28,-0.07 11.08,1.03 10.89,2.14 10.43,3.17 9.97,4.20 9.28,5.10 8.59,5.99 7.71,6.69 6.82,7.39 5.80,7.86 4.77,8.32 3.66,8.53 2.56,8.74 3.29,8.53 4.03,8.32 3.53,8.41 3.04,8.51 1.97,8.75 0.91,8.99 -0.17,8.97 -1.26,8.95 -2.31,8.67 -3.37,8.39 -4.32,7.86 -5.28,7.34 -6.08,6.60 -6.88,5.86 -7.48,4.95 -8.08,4.04 -8.45,3.01 -8.82,1.99 -8.93,0.90 -9.04,-0.17 -8.89,-1.25 -8.73,-2.33 -8.33,-3.34 -7.92,-4.35 -7.28,-5.24 -6.65,-6.12 -5.82,-6.83 -4.99,-7.54 -4.01,-8.03 -3.04,-8.51 -3.04,-8.51 L -3.04,-8.51 Z"></path></g><g stroke-linecap="round" transform="translate(1421.1885004921974 302.5492016797985) rotate(0 129.1208953857422 50.656463623046875)"><path d="M6.09 6.62 C6.09 6.62, 6.09 6.62, 6.09 6.62 M6.09 6.62 C6.09 6.62, 6.09 6.62, 6.09 6.62 M3.59 21.68 C9.58 18.21, 11.86 10.99, 18.03 5.07 M3.59 21.68 C9.45 14.8, 13.17 9.2, 18.03 5.07 M3.07 34.47 C9.51 27.76, 14.43 17.63, 29.97 3.53 M3.07 34.47 C10.62 25.69, 18.98 17.15, 29.97 3.53 M3.2 46.51 C10.36 38.92, 20.13 27.83, 40.6 3.49 M3.2 46.51 C14.87 33.39, 25.78 20.06, 40.6 3.49 M3.34 58.55 C22.39 37.35, 38.04 16.77, 51.23 3.46 M3.34 58.55 C16.74 42.26, 31.09 25.82, 51.23 3.46 M3.47 70.59 C24.77 44.66, 42.64 23.6, 61.2 4.18 M3.47 70.59 C19.43 53.34, 34.09 36.89, 61.2 4.18 M2.29 84.14 C20.47 62.8, 38.86 39.75, 71.83 4.14 M2.29 84.14 C19.32 63.96, 34.24 46.06, 71.83 4.14 M5.05 93.17 C26.76 72.18, 45.06 47.93, 82.46 4.11 M5.05 93.17 C35.27 60.1, 65.46 24.93, 82.46 4.11 M10.43 99.17 C33.71 70.94, 58.53 40.67, 93.09 4.08 M10.43 99.17 C27.29 79.53, 44.54 58.33, 93.09 4.08 M17.78 102.91 C35.82 78.32, 55.13 56.63, 103.72 4.04 M17.78 102.91 C35.71 81.41, 54.01 60.5, 103.72 4.04 M27.76 103.63 C51.23 78.55, 73.31 52.58, 114.35 4.01 M27.76 103.63 C59.97 67.16, 91.88 31.39, 114.35 4.01 M38.39 103.59 C62.68 79.11, 82.45 51.71, 124.98 3.97 M38.39 103.59 C72.81 64.06, 106.51 24.61, 124.98 3.97 M49.02 103.56 C71.53 78.95, 95.6 50.43, 135.62 3.94 M49.02 103.56 C82.99 63.59, 117.98 23.04, 135.62 3.94 M59.65 103.52 C87.72 71.16, 112.08 42.37, 146.25 3.9 M59.65 103.52 C87.28 70.12, 116.73 37.27, 146.25 3.9 M70.28 103.49 C89.96 79.17, 113.36 54.29, 156.88 3.87 M70.28 103.49 C91.03 78.36, 113.37 55.05, 156.88 3.87 M80.91 103.46 C105.27 77.2, 128.09 52.69, 167.51 3.83 M80.91 103.46 C114.68 66.41, 147.71 28.39, 167.51 3.83 M91.54 103.42 C119.01 69.76, 147.01 38.95, 178.14 3.8 M91.54 103.42 C124.31 66.46, 157.77 28.07, 178.14 3.8 M102.17 103.39 C131.78 68.57, 162.68 36.36, 188.77 3.76 M102.17 103.39 C119.32 82.66, 137.29 61.92, 188.77 3.76 M112.8 103.35 C148.68 62.49, 180.98 24.01, 199.4 3.73 M112.8 103.35 C141.63 70.9, 168.02 38.71, 199.4 3.73 M123.43 103.32 C148.31 74.94, 172.89 47.98, 210.03 3.7 M123.43 103.32 C145.57 79.4, 167.52 54.24, 210.03 3.7 M134.06 103.28 C164 71.75, 189.94 37.43, 220.66 3.66 M134.06 103.28 C163.56 69.01, 192.53 34.43, 220.66 3.66 M144.69 103.25 C177.81 65.06, 214.09 24.96, 233.91 0.61 M144.69 103.25 C168.76 74.61, 194.27 45.33, 233.91 0.61 M155.32 103.21 C189.96 63.57, 223.5 26.07, 243.23 2.08 M155.32 103.21 C185.64 69.58, 213.56 35.84, 243.23 2.08 M165.95 103.18 C183.98 81.95, 204.74 58.7, 249.92 6.58 M165.95 103.18 C184.92 80.64, 202.83 60.91, 249.92 6.58 M176.58 103.14 C193.35 83.52, 208.88 65.75, 256.62 11.07 M176.58 103.14 C203.17 72.82, 231.07 39.82, 256.62 11.07 M186.55 103.87 C212.57 70.42, 242.46 40.05, 259.37 20.09 M186.55 103.87 C208.69 78.8, 230.46 54.05, 259.37 20.09 M197.18 103.83 C211.08 84.99, 223.3 68.96, 258.85 32.89 M197.18 103.83 C212.04 85.62, 228.4 66.39, 258.85 32.89 M207.81 103.8 C223.97 82.58, 238.15 66.69, 258.98 44.93 M207.81 103.8 C225.27 84.68, 241.2 63.53, 258.98 44.93 M218.44 103.76 C228.68 92.55, 237.47 82.9, 259.12 56.97 M218.44 103.76 C231.92 88.17, 243.94 73.77, 259.12 56.97 M229.07 103.73 C235.19 92.77, 245.95 85.45, 259.25 69.01 M229.07 103.73 C236.7 95.28, 243.27 85.21, 259.25 69.01 M237.73 105.96 C243.16 97.22, 250.51 93.37, 261.35 78.79 M237.73 105.96 C246.91 94.16, 255.6 84.54, 261.35 78.79" stroke="#1e1e1e" stroke-width="1" fill="none"></path><path d="M25.33 0 C72.73 -1.97, 119.26 -0.39, 232.91 0 M25.33 0 C86.13 -1.29, 146.18 -1.89, 232.91 0 M232.91 0 C249.73 -1.52, 259.84 7.63, 258.24 25.33 M232.91 0 C247.55 0.89, 257.7 6.81, 258.24 25.33 M258.24 25.33 C257.82 38.74, 256.78 51.79, 258.24 75.98 M258.24 25.33 C258.47 43.44, 258.57 60.57, 258.24 75.98 M258.24 75.98 C257.65 91.73, 250.48 103.26, 232.91 101.31 M258.24 75.98 C256.38 93.16, 251.44 102.46, 232.91 101.31 M232.91 101.31 C163.72 102.36, 90.82 102.67, 25.33 101.31 M232.91 101.31 C154.24 102.13, 74.99 103.19, 25.33 101.31 M25.33 101.31 C8.4 100.11, -0.42 92.44, 0 75.98 M25.33 101.31 C10.07 99.71, 0.95 93.08, 0 75.98 M0 75.98 C1.35 58.18, 0.12 42.17, 0 25.33 M0 75.98 C0.32 61.44, -0.61 48.2, 0 25.33 M0 25.33 C0.01 10.12, 10.28 -1.41, 25.33 0 M0 25.33 C-0.3 9.1, 9.99 0.21, 25.33 0" stroke="#1e1e1e" stroke-width="2" fill="none"></path></g><g stroke-linecap="round" transform="translate(1505.2117384538615 299.3636014851597) rotate(0 48.875721243546536 24.44446966177952)"><path d="M12.22 0 C40 -3.79, 63.39 -3.79, 85.53 0 C94.59 -0.88, 96.46 2.17, 97.75 12.22 C96.68 15.29, 100.79 26.8, 97.75 36.67 C96.84 43.4, 95.8 50.5, 85.53 48.89 C55.43 46.24, 28.51 49.01, 12.22 48.89 C2.61 48.82, 1.35 41.75, 0 36.67 C-2.68 30.9, -1.48 29.12, 0 12.22 C-1.58 0.96, 3.93 -1.19, 12.22 0" stroke="none" stroke-width="0" fill="#ffffff"></path><path d="M12.22 0 C37.92 0.73, 59.99 1.23, 85.53 0 M12.22 0 C41.59 -0.55, 69.78 -1.1, 85.53 0 M85.53 0 C95.28 -0.82, 95.8 4.85, 97.75 12.22 M85.53 0 C93.14 -1.63, 96.58 5.03, 97.75 12.22 M97.75 12.22 C96 18.73, 98.48 21.17, 97.75 36.67 M97.75 12.22 C98.64 22.27, 97.61 30.17, 97.75 36.67 M97.75 36.67 C98.43 46.76, 92.06 49.14, 85.53 48.89 M97.75 36.67 C99.39 45.96, 94.61 48.71, 85.53 48.89 M85.53 48.89 C55.43 48.05, 28.58 50.2, 12.22 48.89 M85.53 48.89 C57.7 49.19, 31.39 47.91, 12.22 48.89 M12.22 48.89 C3.65 48.46, 1.41 43.42, 0 36.67 M12.22 48.89 C5.02 49.1, 0.82 43.24, 0 36.67 M0 36.67 C-0.35 27.25, -0.62 18.52, 0 12.22 M0 36.67 C-0.48 27.53, -0.14 19, 0 12.22 M0 12.22 C1.84 2.66, 3.82 0.57, 12.22 0 M0 12.22 C1.54 4.28, 5.51 -0.5, 12.22 0" stroke="#1e1e1e" stroke-width="1" fill="none"></path></g><g transform="translate(1515.604774421458 317.9236510742499) rotate(0 35.29996610422211 -16.687991201046835)" stroke="none"><path fill="#ffffff" d="M -9.21,0 Q -9.21,0 -9.32,-0.79 -9.42,-1.58 -9.74,-6.44 -10.05,-11.30 -10.30,-15.65 -10.56,-20.00 -10.40,-24.38 -10.25,-28.75 -10.46,-31.02 -10.67,-33.29 -10.48,-34.82 -10.30,-36.35 -9.75,-37.79 -9.21,-39.23 -8.33,-40.50 -7.45,-41.77 -6.30,-42.79 -5.15,-43.81 -3.78,-44.53 -2.42,-45.24 -0.92,-45.61 0.56,-45.98 2.10,-45.98 3.64,-45.98 5.14,-45.61 6.63,-45.24 8.00,-44.53 9.36,-43.81 10.52,-42.79 11.67,-41.77 12.54,-40.50 13.42,-39.23 13.97,-37.79 14.51,-36.35 14.70,-34.82 14.88,-33.29 17.09,-28.66 19.29,-24.03 16.59,-27.62 13.88,-31.21 18.18,-31.42 22.47,-31.63 27.41,-31.19 32.34,-30.76 36.96,-30.90 41.57,-31.04 46.25,-30.52 50.92,-30.01 56.25,-29.35 61.57,-28.69 65.00,-25.89 68.42,-23.09 71.01,-19.71 73.60,-16.33 66.91,-15.91 60.23,-15.48 57.57,-12.15 54.91,-8.81 54.99,-13.13 55.06,-17.45 54.89,-21.70 54.72,-25.95 54.59,-27.00 54.46,-28.06 54.64,-30.58 54.82,-33.10 55.79,-35.43 56.77,-37.76 58.44,-39.66 60.10,-41.55 62.29,-42.82 64.48,-44.08 66.95,-44.58 69.43,-45.08 71.93,-44.77 74.44,-44.45 76.71,-43.35 78.99,-42.25 80.79,-40.48 82.59,-38.71 83.74,-36.46 84.88,-34.21 85.25,-31.71 85.61,-29.21 85.16,-26.73 84.71,-24.24 83.49,-22.03 82.27,-19.82 80.40,-18.12 78.54,-16.41 76.23,-15.39 73.92,-14.37 71.40,-14.14 68.89,-13.91 66.43,-14.50 63.98,-15.08 61.83,-16.42 59.69,-17.76 58.09,-19.72 56.49,-21.67 55.60,-24.03 54.70,-26.39 54.61,-28.92 54.52,-31.44 55.23,-33.86 55.95,-36.28 57.41,-38.35 58.86,-40.41 60.90,-41.91 62.93,-43.40 65.34,-44.17 67.75,-44.93 70.27,-44.89 72.80,-44.84 75.18,-43.99 77.56,-43.15 79.54,-41.58 81.52,-40.02 82.90,-37.90 84.28,-35.79 84.92,-33.34 85.55,-30.90 85.55,-30.90 85.55,-30.90 85.73,-27.29 85.91,-23.67 85.99,-19.16 86.08,-14.64 85.47,-10.17 84.87,-5.69 84.14,-1.48 83.42,2.71 80.63,6.21 77.85,9.70 71.15,11.07 64.46,12.43 59.53,10.04 54.61,7.65 51.50,4.16 48.38,0.67 45.81,-2.89 43.25,-6.47 47.95,-3.39 52.66,-0.31 48.08,-0.79 43.50,-1.28 39.05,-1.46 34.60,-1.65 29.89,-2.08 25.18,-2.52 20.95,-3.04 16.72,-3.56 12.32,-4.73 7.92,-5.89 3.77,-6.97 -0.38,-8.06 -3.59,-12.00 -6.81,-15.95 -8.64,-20.27 -10.47,-24.59 -10.57,-28.94 -10.67,-33.29 -10.48,-34.82 -10.30,-36.35 -9.75,-37.79 -9.21,-39.23 -8.33,-40.50 -7.46,-41.77 -6.30,-42.79 -5.15,-43.81 -3.79,-44.53 -2.42,-45.24 -0.93,-45.61 0.56,-45.98 2.10,-45.98 3.64,-45.98 5.14,-45.61 6.63,-45.24 8.00,-44.53 9.36,-43.81 10.51,-42.79 11.67,-41.77 12.54,-40.50 13.42,-39.23 13.96,-37.79 14.51,-36.35 14.70,-34.82 14.88,-33.29 14.67,-30.66 14.45,-28.03 13.52,-23.59 12.58,-19.16 11.95,-14.78 11.33,-10.40 10.38,-5.99 9.42,-1.58 9.32,-0.79 9.21,0 9.07,1.10 8.94,2.20 8.55,3.24 8.15,4.28 7.52,5.19 6.89,6.10 6.06,6.84 5.23,7.58 4.24,8.09 3.26,8.61 2.18,8.87 1.10,9.14 -0.00,9.14 -1.11,9.14 -2.18,8.87 -3.26,8.61 -4.25,8.09 -5.23,7.58 -6.06,6.84 -6.89,6.10 -7.52,5.19 -8.15,4.28 -8.55,3.24 -8.94,2.20 -9.07,1.10 -9.21,-0.00 -9.21,-0.00 L -9.21,0 Z"></path></g><g transform="translate(1588.746749651386 308.7657328258011) rotate(0 1.7007237678651563 -13.813313134271723)" stroke="none"><path fill="#ffffff" d="M -3.04,-8.51 Q -3.04,-8.51 -2.59,-8.75 -2.14,-8.99 -0.40,-9.45 1.33,-9.91 2.45,-9.85 3.58,-9.79 4.66,-9.46 5.73,-9.13 6.70,-8.55 7.67,-7.97 8.47,-7.18 9.27,-6.39 9.86,-5.43 10.45,-4.46 10.79,-3.39 11.13,-2.32 11.21,-1.19 11.28,-0.07 11.08,1.03 10.89,2.14 10.43,3.18 9.97,4.21 9.28,5.10 8.59,5.99 7.71,6.69 6.82,7.39 5.80,7.86 4.77,8.32 3.66,8.53 2.56,8.74 1.94,-0.58 1.32,-9.90 2.45,-9.84 3.57,-9.78 4.65,-9.45 5.72,-9.12 6.69,-8.54 7.66,-7.97 8.46,-7.18 9.26,-6.38 9.85,-5.42 10.44,-4.46 10.78,-3.39 11.12,-2.31 11.19,-1.19 11.26,-0.07 11.07,1.03 10.87,2.14 10.41,3.17 9.96,4.20 9.27,5.09 8.58,5.98 7.69,6.68 6.81,7.38 5.79,7.85 4.76,8.32 3.66,8.52 2.55,8.73 2.20,-0.59 1.86,-9.93 6.48,-6.81 11.10,-3.69 11.37,1.04 11.63,5.77 11.12,1.43 10.60,-2.90 6.88,-5.02 3.15,-7.14 3.26,-7.16 3.37,-7.17 4.56,-7.02 5.76,-6.88 6.88,-6.45 8.01,-6.02 9.00,-5.33 9.99,-4.65 10.78,-3.74 11.58,-2.84 12.14,-1.77 12.70,-0.71 12.98,0.45 13.27,1.62 13.27,2.83 13.26,4.03 12.97,5.20 12.68,6.37 12.12,7.44 11.56,8.50 10.76,9.40 9.96,10.30 8.97,10.98 7.97,11.67 6.85,12.09 5.72,12.52 4.52,12.66 3.33,12.80 -1.49,8.12 -6.33,3.45 -7.00,-0.75 -7.68,-4.96 -9.04,-9.15 -10.40,-13.33 -10.90,-17.68 -11.40,-22.03 -8.46,-20.41 -5.52,-18.80 -7.22,-20.02 -8.93,-21.24 -10.15,-22.94 -11.38,-24.65 -11.99,-26.65 -12.61,-28.66 -12.55,-30.75 -12.49,-32.85 -11.77,-34.82 -11.05,-36.79 -9.74,-38.42 -8.42,-40.06 -6.66,-41.19 -4.89,-42.32 -2.85,-42.82 -0.82,-43.33 1.26,-43.16 3.35,-42.99 5.28,-42.16 7.21,-41.33 8.77,-39.93 10.33,-38.53 11.36,-36.71 12.39,-34.88 12.79,-32.82 13.18,-30.76 12.90,-28.68 12.62,-26.61 11.69,-24.73 10.75,-22.85 9.27,-21.37 7.79,-19.88 5.91,-18.95 4.03,-18.02 1.95,-17.74 -0.11,-17.45 -2.17,-17.85 -4.23,-18.24 -6.06,-19.27 -7.88,-20.31 -9.29,-21.87 -10.69,-23.43 -11.51,-25.35 -12.34,-27.28 -12.51,-29.37 -12.68,-31.46 -12.18,-33.50 -11.67,-35.53 -10.54,-37.30 -9.41,-39.07 -7.78,-40.38 -6.14,-41.69 -4.17,-42.42 -2.21,-43.14 -0.11,-43.20 1.98,-43.25 3.98,-42.64 5.99,-42.02 5.98,-42.02 5.98,-42.02 9.54,-32.83 13.09,-23.64 12.63,-19.35 12.17,-15.05 13.28,-10.68 14.40,-6.30 13.71,-2.06 13.02,2.17 8.19,-2.49 3.37,-7.17 4.56,-7.02 5.76,-6.88 6.88,-6.45 8.01,-6.02 9.00,-5.33 9.99,-4.65 10.78,-3.74 11.58,-2.84 12.14,-1.77 12.70,-0.71 12.98,0.45 13.27,1.62 13.27,2.83 13.26,4.03 12.97,5.20 12.68,6.37 12.12,7.44 11.56,8.50 10.76,9.40 9.96,10.30 8.97,10.98 7.97,11.67 6.85,12.09 5.72,12.52 4.52,12.66 3.33,12.80 0.29,11.87 -2.74,10.93 -4.66,6.79 -6.57,2.65 -2.24,5.70 2.07,8.76 1.70,-0.57 1.32,-9.90 2.44,-9.84 3.57,-9.78 4.65,-9.45 5.72,-9.12 6.69,-8.55 7.66,-7.97 8.46,-7.18 9.26,-6.38 9.85,-5.42 10.43,-4.46 10.78,-3.39 11.12,-2.32 11.19,-1.19 11.26,-0.07 11.07,1.03 10.87,2.14 10.41,3.17 9.96,4.20 9.27,5.09 8.58,5.98 7.70,6.68 6.81,7.38 5.79,7.85 4.76,8.31 3.66,8.52 2.55,8.73 1.94,-0.58 1.33,-9.91 2.45,-9.85 3.58,-9.79 4.66,-9.46 5.73,-9.13 6.70,-8.55 7.67,-7.97 8.47,-7.18 9.27,-6.39 9.86,-5.43 10.45,-4.47 10.79,-3.39 11.13,-2.32 11.21,-1.19 11.28,-0.07 11.08,1.03 10.89,2.14 10.43,3.17 9.97,4.20 9.28,5.10 8.59,5.99 7.71,6.69 6.82,7.39 5.80,7.86 4.77,8.32 3.66,8.53 2.56,8.74 3.29,8.53 4.03,8.32 3.53,8.41 3.04,8.51 1.97,8.75 0.91,8.99 -0.17,8.97 -1.26,8.95 -2.31,8.67 -3.37,8.39 -4.32,7.86 -5.28,7.34 -6.08,6.60 -6.88,5.86 -7.48,4.95 -8.08,4.04 -8.45,3.01 -8.82,1.99 -8.93,0.90 -9.04,-0.17 -8.89,-1.25 -8.73,-2.33 -8.33,-3.34 -7.92,-4.35 -7.28,-5.24 -6.65,-6.12 -5.82,-6.83 -4.99,-7.54 -4.01,-8.03 -3.04,-8.51 -3.04,-8.51 L -3.04,-8.51 Z"></path></g><g stroke-linecap="round" transform="translate(1509.2641647554346 220.95478043710744) rotate(0 43.66377411482074 61.527934847966776)"><path d="M3.35 8.21 C3.35 8.21, 3.35 8.21, 3.35 8.21 M3.35 8.21 C3.35 8.21, 3.35 8.21, 3.35 8.21 M0.86 23.27 C3.67 19.32, 11.28 12.41, 20.54 0.63 M0.86 23.27 C7.12 15.45, 13.85 8.45, 20.54 0.63 M0.99 35.31 C8.62 26.82, 11.83 19.95, 31.17 0.59 M0.99 35.31 C9.85 24.93, 17.73 14.58, 31.17 0.59 M0.47 48.11 C15.4 28.57, 31.61 14.09, 41.8 0.56 M0.47 48.11 C14.42 30.9, 28.48 15.61, 41.8 0.56 M0.6 60.15 C20.98 40.33, 36.82 17.17, 52.43 0.52 M0.6 60.15 C13.35 46.62, 25.43 31.59, 52.43 0.52 M0.73 72.19 C17.04 57.69, 30.43 40.22, 63.06 0.49 M0.73 72.19 C19.35 50.86, 39.28 28.15, 63.06 0.49 M0.87 84.23 C20.81 60.13, 42.56 34.66, 73.03 1.21 M0.87 84.23 C24.12 55.54, 48.32 27.2, 73.03 1.21 M0.34 97.02 C30.53 66.19, 56.36 32.85, 80.38 4.95 M0.34 97.02 C19.41 75.86, 37.8 56.24, 80.38 4.95 M1.79 107.56 C29.07 76.24, 58.97 41.21, 85.11 11.71 M1.79 107.56 C21.31 87.08, 40.86 64.75, 85.11 11.71 M4.55 116.58 C26.84 93.49, 46.89 67.35, 87.86 20.73 M4.55 116.58 C23.45 93.44, 42.33 72.24, 87.86 20.73 M11.24 121.07 C37.22 91.67, 64.11 59.76, 88 32.77 M11.24 121.07 C42.17 86.41, 72.38 51.67, 88 32.77 M19.9 123.3 C45.19 94.42, 73.22 63.27, 88.13 44.81 M19.9 123.3 C37.28 104.02, 53.39 86.26, 88.13 44.81 M30.53 123.27 C50.76 100.05, 71.7 72.44, 87.61 57.61 M30.53 123.27 C43.83 105.58, 58.77 89.17, 87.61 57.61 M41.16 123.23 C55.49 105.03, 69.74 89.4, 87.74 69.65 M41.16 123.23 C52.47 111.67, 64.49 97.29, 87.74 69.65 M51.79 123.2 C65.06 108.2, 76.23 96.5, 87.87 81.69 M51.79 123.2 C61.46 112.49, 70.98 101, 87.87 81.69 M61.77 123.92 C69.42 115.17, 77.94 103.78, 88.01 93.73 M61.77 123.92 C68.51 116.78, 73.31 110.7, 88.01 93.73 M74.36 121.62 C79.94 116.96, 84.52 109.99, 86.17 108.03 M74.36 121.62 C77.4 118.33, 79.54 115.51, 86.17 108.03" stroke="#a5d8ff" stroke-width="1" fill="none"></path><path d="M21.83 0 C32.17 -1.76, 45.17 1.35, 65.5 0 M21.83 0 C34.15 0.71, 46.98 0.18, 65.5 0 M65.5 0 C79.07 1.39, 86.47 8.49, 87.33 21.83 M65.5 0 C82.03 -0.76, 88.33 7.41, 87.33 21.83 M87.33 21.83 C88.44 51.03, 89.2 81.35, 87.33 101.22 M87.33 21.83 C86.11 53.76, 86.08 84.64, 87.33 101.22 M87.33 101.22 C87.55 113.81, 78.37 121.11, 65.5 123.06 M87.33 101.22 C88.28 115.85, 79.18 124.79, 65.5 123.06 M65.5 123.06 C52 123.12, 40.38 124.35, 21.83 123.06 M65.5 123.06 C52.66 122.66, 41.87 122.86, 21.83 123.06 M21.83 123.06 C5.62 125.01, -0.4 116.71, 0 101.22 M21.83 123.06 C9.09 123.06, 1.16 114.6, 0 101.22 M0 101.22 C-0.35 83.83, -1.59 65.51, 0 21.83 M0 101.22 C-0.89 81.84, -0.62 63.55, 0 21.83 M0 21.83 C-1.72 5.98, 9.01 1.77, 21.83 0 M0 21.83 C0.65 7.95, 5.56 0.53, 21.83 0" stroke="#1971c2" stroke-width="2" fill="none"></path></g><g stroke-linecap="round" transform="translate(939.2448971250723 222.88912349751124) rotate(0 43.66377411482074 61.527934847966776)"><path d="M3.35 8.21 C3.35 8.21, 3.35 8.21, 3.35 8.21 M3.35 8.21 C3.35 8.21, 3.35 8.21, 3.35 8.21 M0.86 23.27 C7.81 15.32, 12.34 6.62, 20.54 0.63 M0.86 23.27 C7.07 15.8, 12.71 9.32, 20.54 0.63 M0.99 35.31 C10.84 23.98, 21.82 13.93, 31.17 0.59 M0.99 35.31 C11.4 23.23, 21.94 10.74, 31.17 0.59 M0.47 48.11 C10.41 38.63, 19.76 25.62, 41.8 0.56 M0.47 48.11 C15.61 29.23, 32.04 12.05, 41.8 0.56 M0.6 60.15 C14.9 46.18, 23.56 33.17, 52.43 0.52 M0.6 60.15 C12.69 45.5, 25.92 31.68, 52.43 0.52 M0.73 72.19 C22.23 44.07, 45.18 18.82, 63.06 0.49 M0.73 72.19 C15.12 56.2, 29.55 39.23, 63.06 0.49 M0.87 84.23 C26.1 53.65, 53.93 23.53, 73.03 1.21 M0.87 84.23 C25.46 56.24, 51.5 27.38, 73.03 1.21 M0.34 97.02 C23.03 68.98, 50.47 38.08, 80.38 4.95 M0.34 97.02 C26.9 67.84, 52.78 37.2, 80.38 4.95 M1.79 107.56 C18.39 88.15, 40.6 63.25, 85.11 11.71 M1.79 107.56 C31.19 73.65, 61.38 38.87, 85.11 11.71 M4.55 116.58 C28.23 92.68, 45.45 68.82, 87.86 20.73 M4.55 116.58 C25.1 91.89, 47.24 66.55, 87.86 20.73 M11.24 121.07 C27.61 99.47, 45.85 80.98, 88 32.77 M11.24 121.07 C41.16 86.58, 69.8 53.31, 88 32.77 M19.9 123.3 C41.26 101.78, 58.2 76.68, 88.13 44.81 M19.9 123.3 C38.12 100.6, 58.07 78.95, 88.13 44.81 M30.53 123.27 C46.99 104.52, 65.87 84.21, 87.61 57.61 M30.53 123.27 C51.3 97.99, 74.1 73.7, 87.61 57.61 M41.16 123.23 C50.42 110.57, 62.86 101.48, 87.74 69.65 M41.16 123.23 C56.95 103.08, 74.28 85.55, 87.74 69.65 M51.79 123.2 C66.9 107.07, 80.09 94.24, 87.87 81.69 M51.79 123.2 C63.58 110.26, 74.18 97.21, 87.87 81.69 M61.77 123.92 C67.06 116.73, 77.2 108.96, 88.01 93.73 M61.77 123.92 C70.48 113.53, 81.17 102.05, 88.01 93.73 M74.36 121.62 C76.14 120.38, 79.87 115.18, 86.17 108.03 M74.36 121.62 C77.78 118.62, 80.72 114.95, 86.17 108.03" stroke="#ffc9c9" stroke-width="1" fill="none"></path><path d="M21.83 0 C34.04 -0.35, 48.25 1.33, 65.5 0 M21.83 0 C32.69 -0.21, 45.67 -0.29, 65.5 0 M65.5 0 C78.33 1.39, 87.24 7.01, 87.33 21.83 M65.5 0 C82.29 1.55, 86.11 6.58, 87.33 21.83 M87.33 21.83 C86.45 37.16, 87.55 54.78, 87.33 101.22 M87.33 21.83 C86.85 46.12, 87.62 71.87, 87.33 101.22 M87.33 101.22 C86.23 115.59, 79.81 121.53, 65.5 123.06 M87.33 101.22 C87.73 117.8, 79.99 124.98, 65.5 123.06 M65.5 123.06 C50.62 122.73, 39.36 123.77, 21.83 123.06 M65.5 123.06 C50.63 122.53, 33.64 122.14, 21.83 123.06 M21.83 123.06 C8.67 121.54, -1.82 117.46, 0 101.22 M21.83 123.06 C5.98 125.23, 1.43 117.07, 0 101.22 M0 101.22 C-0.44 72.43, 1.89 47.81, 0 21.83 M0 101.22 C0.67 73.62, -0.48 48.16, 0 21.83 M0 21.83 C1.74 7.47, 9.15 -1.27, 21.83 0 M0 21.83 C0.95 5.86, 5.79 1.72, 21.83 0" stroke="#f08c00" stroke-width="2" fill="none"></path></g><g stroke-linecap="round" transform="translate(718.0567533795087 275.65440295030817) rotate(0 45.626708984375 63.708946228027344)"><path d="M2.96 9.2 C2.96 9.2, 2.96 9.2, 2.96 9.2 M2.96 9.2 C2.96 9.2, 2.96 9.2, 2.96 9.2 M0.47 24.26 C5.17 16.24, 13.09 11.53, 20.81 0.86 M0.47 24.26 C6.58 16.94, 11.79 9.97, 20.81 0.86 M0.6 36.3 C12.71 25.07, 22.94 10.87, 32.09 0.07 M0.6 36.3 C8.32 27.71, 15.07 21.3, 32.09 0.07 M0.73 48.34 C12.28 35.61, 25.52 21.52, 42.72 0.04 M0.73 48.34 C13.17 33.32, 27.35 18.43, 42.72 0.04 M0.87 60.38 C10.46 45.4, 22.16 35.91, 53.35 0 M0.87 60.38 C17.73 40.51, 33.73 21.43, 53.35 0 M0.34 73.18 C17.99 52.11, 36.1 34.8, 63.98 -0.03 M0.34 73.18 C26.04 44.03, 51.13 15.77, 63.98 -0.03 M0.48 85.22 C20.45 63.05, 38.67 41.26, 73.96 0.69 M0.48 85.22 C16.95 66.23, 32.22 46.55, 73.96 0.69 M0.61 97.26 C29.06 67.82, 57.25 33.67, 82.62 2.92 M0.61 97.26 C30.66 63.62, 60.1 29.45, 82.62 2.92 M1.4 108.54 C28.48 79.21, 53.2 52.9, 88 8.92 M1.4 108.54 C22.92 84.81, 42.41 61.93, 88 8.92 M3.5 118.32 C35.11 82.01, 66.98 45.34, 90.76 17.94 M3.5 118.32 C33.71 82.75, 65.29 47.51, 90.76 17.94 M8.88 124.32 C36.69 94.81, 64.58 62.36, 91.55 29.23 M8.88 124.32 C33.63 97.81, 55.56 71.37, 91.55 29.23 M16.89 127.31 C43.91 94.6, 70.26 63.94, 91.68 41.27 M16.89 127.31 C32.35 110.34, 47.86 92.01, 91.68 41.27 M27.52 127.27 C44.15 109.95, 55.74 94.35, 91.81 53.31 M27.52 127.27 C50.75 101.11, 75.37 73.65, 91.81 53.31 M37.49 127.99 C54.01 112.18, 66.27 93.63, 91.29 66.11 M37.49 127.99 C48.72 114.58, 60.01 101.05, 91.29 66.11 M48.12 127.96 C62.63 109.44, 81.9 92.58, 91.42 78.15 M48.12 127.96 C58.62 115.31, 69.74 103.79, 91.42 78.15 M58.75 127.92 C66.51 120.21, 73.54 111.72, 91.56 90.19 M58.75 127.92 C70.96 114.39, 80.91 102.47, 91.56 90.19 M70.04 127.14 C76.35 118.94, 85.92 110.26, 91.69 102.23 M70.04 127.14 C75.09 121.56, 79.92 117.39, 91.69 102.23" stroke="#a5d8ff" stroke-width="1" fill="none"></path><path d="M22.81 0 C34.13 -1.88, 48.37 -0.6, 68.44 0 M22.81 0 C38.17 1.09, 55.23 -0.06, 68.44 0 M68.44 0 C83.64 1.74, 91.39 8.3, 91.25 22.81 M68.44 0 C81.61 -1.69, 91.55 5.66, 91.25 22.81 M91.25 22.81 C90.82 49.2, 90.86 70.85, 91.25 104.6 M91.25 22.81 C91.72 53.65, 91.34 83.36, 91.25 104.6 M91.25 104.6 C91.85 120.94, 85.34 128.2, 68.44 127.42 M91.25 104.6 C91.11 120.29, 82.86 127.24, 68.44 127.42 M68.44 127.42 C51.23 125.91, 32.09 128.83, 22.81 127.42 M68.44 127.42 C51.46 127.12, 33.13 127.96, 22.81 127.42 M22.81 127.42 C6.29 128.61, -1.95 118.76, 0 104.6 M22.81 127.42 C9.65 128.87, -0.64 120.45, 0 104.6 M0 104.6 C-0.02 74.1, 1.47 42.04, 0 22.81 M0 104.6 C0.42 74.35, 0.36 42.62, 0 22.81 M0 22.81 C-1.09 6.69, 8.42 -1.43, 22.81 0 M0 22.81 C-0.48 6.06, 6.86 -2.13, 22.81 0" stroke="#1971c2" stroke-width="2" fill="none"></path></g><g stroke-linecap="round" transform="translate(1204.1425616614615 276.1305855511187) rotate(0 45.626708984375 63.708946228027344)"><path d="M2.96 9.2 C2.96 9.2, 2.96 9.2, 2.96 9.2 M2.96 9.2 C2.96 9.2, 2.96 9.2, 2.96 9.2 M3.75 20.48 C5.33 17.63, 7.62 15.97, 14.25 8.41 M3.75 20.48 C6.77 17.26, 8.99 14.4, 14.25 8.41 M3.88 32.52 C13.81 23.82, 20.08 11.61, 28.16 4.6 M3.88 32.52 C11.82 23.94, 18.47 15.25, 28.16 4.6 M3.36 45.32 C16.95 28.53, 29.59 14.72, 38.79 4.57 M3.36 45.32 C14.76 33.87, 25.37 21.4, 38.79 4.57 M3.49 57.36 C12.09 43.85, 24.93 32.27, 49.42 4.53 M3.49 57.36 C19.58 38.65, 36.1 20.03, 49.42 4.53 M3.63 69.4 C20.43 50.94, 32.47 33.64, 60.05 4.5 M3.63 69.4 C20.08 49.82, 37.07 30.71, 60.05 4.5 M3.76 81.44 C28.54 50.18, 56.6 20.44, 73.96 0.69 M3.76 81.44 C25.56 58.17, 44.38 34.01, 73.96 0.69 M3.24 94.24 C23.17 70.57, 46.73 44.04, 82.62 2.92 M3.24 94.24 C25.52 67, 49.66 39.84, 82.62 2.92 M2.71 107.03 C28.82 77.48, 53.12 49.44, 88 8.92 M2.71 107.03 C25.95 80.79, 47.81 55.33, 88 8.92 M3.5 118.32 C34.83 78.26, 71.29 42.4, 94.04 14.17 M3.5 118.32 C28.08 86.98, 55.26 56.38, 94.04 14.17 M8.88 124.32 C30.93 97.96, 52.76 72.07, 94.83 25.46 M8.88 124.32 C28.93 98.48, 51.38 73.61, 94.83 25.46 M16.89 127.31 C42.9 97.51, 67.72 68.35, 94.3 38.25 M16.89 127.31 C45 92.98, 74.72 59.87, 94.3 38.25 M23.58 131.8 C40.97 109.15, 63.51 86.28, 94.44 50.29 M23.58 131.8 C38.33 113.39, 53.92 97.4, 94.44 50.29 M33.56 132.52 C50.92 112.92, 71.06 90.89, 94.57 62.33 M33.56 132.52 C48.74 113.45, 66.04 94.54, 94.57 62.33 M44.19 132.49 C58.19 114.95, 70.63 101.26, 94.7 74.37 M44.19 132.49 C58.43 114.02, 75.56 96.01, 94.7 74.37 M54.82 132.45 C65.09 120.15, 73.33 106.82, 94.84 86.42 M54.82 132.45 C67.21 118.49, 77.62 106.63, 94.84 86.42 M69.38 127.89 C78.1 119.42, 86.99 109.78, 94.31 99.21 M69.38 127.89 C75.12 121.23, 80.66 114.99, 94.31 99.21" stroke="#ffc9c9" stroke-width="1" fill="none"></path><path d="M22.81 0 C33.85 -0.71, 43.64 1.84, 68.44 0 M22.81 0 C35.82 0, 48.13 -0.91, 68.44 0 M68.44 0 C83.33 0.49, 91.45 8.78, 91.25 22.81 M68.44 0 C85.86 0.81, 93.48 5.6, 91.25 22.81 M91.25 22.81 C91.87 38.31, 92.06 58.04, 91.25 104.6 M91.25 22.81 C91.3 45.94, 92.05 68.53, 91.25 104.6 M91.25 104.6 C91.67 120.54, 82.75 125.69, 68.44 127.42 M91.25 104.6 C91.91 119.47, 85.71 125.45, 68.44 127.42 M68.44 127.42 C52.73 125.88, 42.06 127.55, 22.81 127.42 M68.44 127.42 C52.75 126.48, 37.41 127.15, 22.81 127.42 M22.81 127.42 C8.58 129.06, 0.87 118.98, 0 104.6 M22.81 127.42 C9.72 129.23, 2.21 117.54, 0 104.6 M0 104.6 C-0.52 77.12, -0.82 45.69, 0 22.81 M0 104.6 C0.11 74.75, -1.44 47.16, 0 22.81 M0 22.81 C2 9.14, 8.9 -0.76, 22.81 0 M0 22.81 C-0.3 8.39, 7.17 -1.44, 22.81 0" stroke="#f08c00" stroke-width="2" fill="none"></path></g><g stroke-linecap="round"><g transform="translate(662.6075280715719 268.09121872616043) rotate(0 125.2506701872311 -38.52459979040706)"><path d="M0.87 0.81 C18.45 -12.02, 64.17 -69.15, 105.72 -76.72 C147.28 -84.28, 226 -50.09, 250.2 -44.57 M-0.13 0.19 C17.32 -13.04, 63.53 -71.41, 105.1 -78.66 C146.67 -85.92, 224.9 -48.85, 249.28 -43.36" stroke="#f08c00" stroke-width="4" fill="none"></path></g><g transform="translate(662.6075280715719 268.09121872616043) rotate(0 125.2506701872311 -38.52459979040706)"><path d="M224.29 -42.73 C233.61 -42.07, 240.79 -43.81, 249.28 -43.36 M224.29 -42.73 C231.47 -42.09, 238.38 -43.96, 249.28 -43.36" stroke="#f08c00" stroke-width="4" fill="none"></path></g><g transform="translate(662.6075280715719 268.09121872616043) rotate(0 125.2506701872311 -38.52459979040706)"><path d="M229.73 -58.94 C237.35 -53.08, 242.8 -49.64, 249.28 -43.36 M229.73 -58.94 C235.43 -53.69, 240.8 -50.98, 249.28 -43.36" stroke="#f08c00" stroke-width="4" fill="none"></path></g></g><mask></mask><g transform="translate(878.5821570076022 14.33950129300706) rotate(0 89.90918731689453 24.46760236896364)"><text x="0" y="34.29379148033945" font-family="Virgil, Segoe UI Emoji" font-size="39.14816379034183px" fill="#f08c00" text-anchor="start" style="white-space: pre;" direction="ltr" dominant-baseline="alphabetic">Skills Run</text></g><g transform="translate(1445.467272345767 10) rotate(0 93.202880859375 21.639566482523563)"><text x="0" y="30.33001638190502" font-family="Virgil, Segoe UI Emoji" font-size="34.623306372037696px" fill="#1971c2" text-anchor="start" style="white-space: pre;" direction="ltr" dominant-baseline="alphabetic">Matchplay </text></g><g stroke-linecap="round" transform="translate(613.2625448827702 278.82513004324045) rotate(0 43.66377411482074 61.527934847966776)"><path d="M21.83 0 C37.77 0.28, 55.23 -2.19, 65.5 0 M65.5 0 C79.54 0.37, 89.18 6.5, 87.33 21.83 M87.33 21.83 C85.88 49.47, 86.85 79.53, 87.33 101.22 M87.33 101.22 C88.24 115.42, 79.87 123.64, 65.5 123.06 M65.5 123.06 C55.19 124.34, 48.13 121.64, 21.83 123.06 M21.83 123.06 C8.28 122.2, -0.32 117.02, 0 101.22 M0 101.22 C-1.81 74.86, -0.08 53.13, 0 21.83 M0 21.83 C-0.61 6.39, 7.68 1.39, 21.83 0" stroke="#f08c00" stroke-width="2.5" fill="none" stroke-dasharray="8 10"></path></g><g stroke-linecap="round" transform="translate(1317.271765137482 279.3730856088907) rotate(0 43.66377411482074 61.527934847966776)"><path d="M21.83 0 C38.6 -0.28, 58.02 0.71, 65.5 0 M65.5 0 C81.71 -0.77, 88.45 8.36, 87.33 21.83 M87.33 21.83 C88.47 48.13, 86.71 74.12, 87.33 101.22 M87.33 101.22 C86.75 114.45, 80.56 124.81, 65.5 123.06 M65.5 123.06 C52.22 121.82, 37.09 121.84, 21.83 123.06 M21.83 123.06 C7.72 122.29, -1.55 114.45, 0 101.22 M0 101.22 C1.08 77.93, -0.37 56.15, 0 21.83 M0 21.83 C-0.53 5.89, 8.68 -0.52, 21.83 0" stroke="#1971c2" stroke-width="2.5" fill="none" stroke-dasharray="8 10"></path></g><g stroke-linecap="round"><g transform="translate(1362.3889139832995 256.2786715907426) rotate(0 73.11709998415495 -30.460392554697023)"><path d="M-0.98 0.32 C11.72 -9.84, 50.72 -51.25, 75.45 -60.37 C100.17 -69.48, 135.39 -55.56, 147.37 -54.36 M0.71 -0.56 C13.27 -11.13, 49.83 -53.39, 74.24 -62.2 C98.66 -71, 135.49 -54.53, 147.2 -53.41" stroke="#1971c2" stroke-width="4" fill="none"></path></g><g transform="translate(1362.3889139832995 256.2786715907426) rotate(0 73.11709998415495 -30.460392554697023)"><path d="M122.34 -50.78 C128.81 -52.01, 135.17 -49.94, 147.2 -53.41 M122.34 -50.78 C129.08 -51.55, 134.65 -52.94, 147.2 -53.41" stroke="#1971c2" stroke-width="4" fill="none"></path></g><g transform="translate(1362.3889139832995 256.2786715907426) rotate(0 73.11709998415495 -30.460392554697023)"><path d="M126.47 -67.38 C132.04 -64.67, 137.4 -58.62, 147.2 -53.41 M126.47 -67.38 C132.36 -64.1, 136.93 -61.46, 147.2 -53.41" stroke="#1971c2" stroke-width="4" fill="none"></path></g></g><mask></mask></svg>