<svg version="1.1" xmlns="http://www.w3.org/2000/svg" viewBox="0 0 898.7585432209082 248.76920179579116" width="898.7585432209082" height="248.76920179579116">
  <!-- svg-source:excalidraw -->
  
  <defs>
    <style class="style-fonts">
      @font-face {
        font-family: "Virgil";
        src: url("https://excalidraw.com/Virgil.woff2");
      }
      @font-face {
        font-family: "Cascadia";
        src: url("https://excalidraw.com/Cascadia.woff2");
      }
      @font-face {
        font-family: "Assistant";
        src: url("https://excalidraw.com/Assistant-Regular.woff2");
      }
    </style>
    
  </defs>
  <rect x="0" y="0" width="898.7585432209082" height="248.76920179579116" fill="#ffffff"></rect><g stroke-linecap="round" transform="translate(181.49542581491596 148.93369336621578) rotate(0 94.28776762683242 27.885676655400914)"><path d="M13.94 0 C70.65 -0.69, 128.1 -2.82, 174.63 0 M13.94 0 C52.93 -0.3, 91.5 -0.24, 174.63 0 M174.63 0 C183.3 1.52, 189.16 6.5, 188.58 13.94 M174.63 0 C184.98 -0.24, 186.98 5.16, 188.58 13.94 M188.58 13.94 C187.72 22.88, 190.59 29.78, 188.58 41.83 M188.58 13.94 C188.17 23.86, 188.31 33.08, 188.58 41.83 M188.58 41.83 C187.73 51.19, 185.33 57.15, 174.63 55.77 M188.58 41.83 C188.28 49.47, 184.6 54.73, 174.63 55.77 M174.63 55.77 C119.8 57.25, 64.94 56.86, 13.94 55.77 M174.63 55.77 C128.42 53.92, 82.11 54.92, 13.94 55.77 M13.94 55.77 C2.91 54.72, -0.62 52.31, 0 41.83 M13.94 55.77 C2.61 57.78, 1.29 50.77, 0 41.83 M0 41.83 C-1.62 33.82, 1.61 29.84, 0 13.94 M0 41.83 C0.43 35.31, 0.72 29.35, 0 13.94 M0 13.94 C0.82 5.73, 5.94 1.83, 13.94 0 M0 13.94 C1.93 3.08, 2.43 1.54, 13.94 0" stroke="#1e1e1e" stroke-width="2" fill="none"></path></g><g stroke-linecap="round" transform="translate(266.5158091412043 149.78899144856263) rotate(0 12.784895853955959 13.977268470508164)"><path d="M4.12 3.58 C4.12 3.58, 4.12 3.58, 4.12 3.58 M4.12 3.58 C4.12 3.58, 4.12 3.58, 4.12 3.58 M1.63 18.64 C5.57 12.38, 10.45 7.09, 16.72 1.28 M1.63 18.64 C5.1 15.35, 8.55 11.02, 16.72 1.28 M6.35 25.4 C13.56 18.79, 18.5 11.23, 22.75 6.53 M6.35 25.4 C10.82 20.58, 14.23 16.62, 22.75 6.53 M15.01 27.63 C19 24.29, 21.64 20.28, 25.51 15.55 M15.01 27.63 C17.61 25.29, 19.12 21.96, 25.51 15.55" stroke="#a5d8ff" stroke-width="1" fill="none"></path><path d="M12.88 -0.21 C15.43 -0.44, 18.82 0.89, 20.89 2.87 C22.96 4.85, 24.75 8.74, 25.28 11.66 C25.81 14.58, 25.47 17.79, 24.06 20.4 C22.66 23.02, 19.51 26.17, 16.84 27.36 C14.18 28.55, 10.6 28.56, 8.06 27.55 C5.52 26.53, 2.86 23.89, 1.6 21.27 C0.33 18.64, 0 14.8, 0.48 11.8 C0.95 8.79, 2.25 5.17, 4.44 3.21 C6.62 1.25, 11.99 0.46, 13.57 0.03 C15.15 -0.41, 14.05 0.34, 13.91 0.61 M10.35 -0.06 C12.9 -1.06, 16.86 -0.47, 19.18 0.98 C21.5 2.44, 23.18 5.73, 24.27 8.66 C25.37 11.59, 26.58 15.73, 25.74 18.59 C24.91 21.45, 21.66 24.29, 19.27 25.83 C16.88 27.36, 14.12 28.26, 11.4 27.81 C8.68 27.36, 4.96 25.37, 2.97 23.14 C0.97 20.92, -0.52 17.31, -0.57 14.47 C-0.61 11.63, 1.09 8.51, 2.72 6.1 C4.34 3.68, 7.96 0.92, 9.19 -0.02 C10.42 -0.96, 9.94 0.28, 10.12 0.46" stroke="#1971c2" stroke-width="2" fill="none"></path></g><g stroke-linecap="round" transform="translate(194.78520913320858 180.56442643482154) rotate(0 26.492868223561686 28.333579512913047)"><path d="M20.5 0.63 C25.58 -1.21, 32.35 0.46, 37.21 3.24 C42.07 6.03, 47.07 11.71, 49.67 17.32 C52.27 22.93, 54.34 31.02, 52.82 36.9 C51.29 42.78, 45.49 49.22, 40.53 52.6 C35.57 55.98, 28.66 58.06, 23.06 57.2 C17.47 56.33, 10.75 51.89, 6.94 47.41 C3.13 42.93, 0.52 36.25, 0.2 30.33 C-0.11 24.41, 1.46 16.98, 5.04 11.9 C8.62 6.82, 18.44 1.75, 21.67 -0.15 C24.91 -2.05, 24.36 -0.14, 24.46 0.49 M30.82 0.43 C36.16 1.01, 43.18 4.88, 46.63 9.11 C50.08 13.34, 51.19 19.51, 51.53 25.82 C51.86 32.14, 51.76 42.12, 48.64 46.99 C45.52 51.85, 38.6 53.83, 32.8 55.03 C27.01 56.23, 18.77 56.7, 13.87 54.18 C8.97 51.67, 5.34 45.93, 3.38 39.96 C1.43 33.98, 0.78 24.02, 2.15 18.32 C3.51 12.62, 6.76 8.85, 11.57 5.77 C16.39 2.7, 27.77 0.73, 31.06 -0.14 C34.35 -1, 31.32 0.16, 31.32 0.57" stroke="#1971c2" stroke-width="2" fill="none"></path></g><g stroke-linecap="round" transform="translate(309.37253034379137 178.82219945464868) rotate(0 26.492868223561686 28.333579512913047)"><path d="M23.59 -0.8 C29.06 -1.39, 36.99 2.21, 41.8 6.02 C46.61 9.83, 50.97 16.37, 52.46 22.06 C53.94 27.74, 53.16 34.89, 50.71 40.15 C48.25 45.4, 43.05 51.03, 37.72 53.59 C32.38 56.14, 24.08 57.1, 18.69 55.49 C13.29 53.89, 8.4 48.94, 5.35 43.95 C2.29 38.96, 0.02 31.36, 0.37 25.54 C0.72 19.72, 2.97 13.23, 7.45 9.02 C11.92 4.81, 23.61 1.67, 27.2 0.29 C30.8 -1.1, 28.99 0.16, 29.03 0.72 M19.46 1.23 C24.2 -0.8, 30.78 -0.3, 36.01 2.07 C41.25 4.45, 48.06 10.13, 50.89 15.5 C53.73 20.87, 54.16 28.26, 53.01 34.3 C51.86 40.33, 48.33 47.9, 43.99 51.69 C39.65 55.49, 32.76 57.26, 26.95 57.07 C21.14 56.88, 13.39 54.58, 9.14 50.55 C4.89 46.53, 2.23 39.35, 1.43 32.91 C0.62 26.46, 1.5 17.03, 4.32 11.91 C7.14 6.79, 15.79 3.84, 18.35 2.17 C20.91 0.5, 19.5 1.53, 19.67 1.89" stroke="#1971c2" stroke-width="2" fill="none"></path></g><g stroke-linecap="round" transform="translate(251.50353175343594 179.67388816999681) rotate(0 26.492868223561686 28.333579512913047)"><path d="M15.31 3.76 C20.05 0.74, 27.77 -0.66, 33.24 0.59 C38.71 1.84, 44.97 6.34, 48.11 11.28 C51.25 16.22, 52.41 24.18, 52.08 30.23 C51.74 36.27, 49.89 43.21, 46.11 47.56 C42.33 51.9, 35.24 55.49, 29.43 56.33 C23.61 57.16, 15.88 55.91, 11.21 52.58 C6.53 49.25, 2.89 42.31, 1.36 36.33 C-0.17 30.36, -0.57 22.27, 2.03 16.71 C4.62 11.15, 14.4 5.26, 16.93 2.99 C19.45 0.71, 17.19 2.6, 17.19 3.04 M25.97 0.58 C31.49 -0.1, 38.31 2.02, 42.88 5.73 C47.46 9.45, 51.96 16.9, 53.4 22.85 C54.83 28.8, 54.17 36.01, 51.49 41.44 C48.81 46.87, 42.57 53.02, 37.33 55.45 C32.1 57.89, 25.52 58.21, 20.08 56.04 C14.64 53.87, 8 47.49, 4.7 42.45 C1.41 37.42, -0.52 31.63, 0.29 25.83 C1.1 20.04, 5.4 11.95, 9.56 7.69 C13.71 3.43, 22.62 1.25, 25.2 0.27 C27.78 -0.7, 24.84 1.65, 25.05 1.86" stroke="#1971c2" stroke-width="2" fill="none"></path></g><g stroke-linecap="round" transform="translate(215.8441333685389 161.03479998827305) rotate(0 18.70497813964471 5.845061982385488)"><path d="M2.92 0 C9.09 -0.55, 16.43 -0.82, 34.49 0 M2.92 0 C11.12 -0.25, 18.75 -0.24, 34.49 0 M34.49 0 C36.11 -0.25, 36.9 0.44, 37.41 2.92 M34.49 0 C36.62 -0.52, 38.53 0.62, 37.41 2.92 M37.41 2.92 C37.71 4.34, 37.41 6.25, 37.41 8.77 M37.41 2.92 C37.33 4.73, 37.35 6.31, 37.41 8.77 M37.41 8.77 C38.14 10.46, 37.14 11.38, 34.49 11.69 M37.41 8.77 C36.59 11.3, 35.34 10.67, 34.49 11.69 M34.49 11.69 C26.43 10.88, 17.49 12.62, 2.92 11.69 M34.49 11.69 C26.45 11.9, 18.61 11.53, 2.92 11.69 M2.92 11.69 C0.97 11.04, -0.89 11.33, 0 8.77 M2.92 11.69 C1.78 11.66, 0.27 10.05, 0 8.77 M0 8.77 C0.21 6.84, -0.21 4.97, 0 2.92 M0 8.77 C-0.11 6.77, 0.11 4.65, 0 2.92 M0 2.92 C0.66 0.14, 1.01 0.3, 2.92 0 M0 2.92 C0.52 0.28, 1.93 0.52, 2.92 0" stroke="#1971c2" stroke-width="2" fill="none"></path></g><g stroke-linecap="round" transform="translate(253.5450573485091 166.01147743128155) rotate(0 2.119895091474291 0.7286744920777153)"><path d="M0.36 0 C1.5 0, 2.61 -0.03, 3.88 0 M0.36 0 C1.41 0.01, 2.54 -0.06, 3.88 0 M3.88 0 C4.75 -0.45, 4.41 0.03, 4.24 0.36 M3.88 0 C3.92 0.22, 4.28 0.67, 4.24 0.36 M4.24 0.36 C4.26 0.5, 4.22 0.65, 4.24 1.09 M4.24 0.36 C4.24 0.58, 4.25 0.81, 4.24 1.09 M4.24 1.09 C4.08 1.43, 4.66 0.98, 3.88 1.46 M4.24 1.09 C3.63 0.84, 3.94 0.88, 3.88 1.46 M3.88 1.46 C2.67 1.53, 1.53 1.36, 0.36 1.46 M3.88 1.46 C2.52 1.43, 1.3 1.47, 0.36 1.46 M0.36 1.46 C-0.41 1.47, -0.46 0.79, 0 1.09 M0.36 1.46 C-0.63 1.09, -0.04 1.06, 0 1.09 M0 1.09 C0.02 0.91, -0.02 0.72, 0 0.36 M0 1.09 C0 0.83, 0.01 0.58, 0 0.36 M0 0.36 C0.34 -0.49, 0.66 -0.04, 0.36 0 M0 0.36 C-0.3 0.44, 0.82 0.55, 0.36 0" stroke="#1971c2" stroke-width="2" fill="none"></path></g><g stroke-linecap="round" transform="translate(259.9383234629274 160.74428851100902) rotate(0 2.07710783345442 5.8807753691921505)"><path d="M1.04 0 C1.78 -0.09, 2.4 -0.05, 3.12 0 M1.04 0 C1.51 -0.01, 1.99 -0.03, 3.12 0 M3.12 0 C4.67 -0.69, 3.92 0.48, 4.15 1.04 M3.12 0 C4.75 -0.82, 3.24 -0.39, 4.15 1.04 M4.15 1.04 C4.28 3.72, 3.93 6.71, 4.15 10.72 M4.15 1.04 C4.27 3.54, 3.9 6.48, 4.15 10.72 M4.15 10.72 C4.66 11.87, 3.01 11.78, 3.12 11.76 M4.15 10.72 C3.36 10.48, 2.68 11.21, 3.12 11.76 M3.12 11.76 C2.54 11.77, 1.96 11.74, 1.04 11.76 M3.12 11.76 C2.67 11.74, 2.16 11.77, 1.04 11.76 M1.04 11.76 C1.27 12.15, 0.52 10.5, 0 10.72 M1.04 11.76 C1.28 11.69, -0.45 11.89, 0 10.72 M0 10.72 C-0.07 6.51, -0.4 3.22, 0 1.04 M0 10.72 C0.21 7.91, 0.03 4.72, 0 1.04 M0 1.04 C0.54 -0.05, 0.6 0.8, 1.04 0 M0 1.04 C-0.51 1.46, -0.32 -0.74, 1.04 0" stroke="#1971c2" stroke-width="2" fill="none"></path></g><g stroke-linecap="round" transform="translate(316.64276269329434 139.18385268204878) rotate(0 12.823682760680185 13.65973916273407)"><path d="M4.71 2.77 C4.71 2.77, 4.71 2.77, 4.71 2.77 M4.71 2.77 C4.71 2.77, 4.71 2.77, 4.71 2.77 M1.56 18.58 C4.94 15.29, 8.21 10.44, 15.99 1.98 M1.56 18.58 C6.75 13.5, 10.48 7.69, 15.99 1.98 M6.28 25.34 C13.68 17.87, 18.88 10.56, 22.69 6.47 M6.28 25.34 C12.09 18.78, 18.19 12.02, 22.69 6.47 M15.6 26.81 C18.67 23.43, 20.5 20.61, 24.79 16.25 M15.6 26.81 C17.48 24.15, 20.09 22.07, 24.79 16.25" stroke="#ffc9c9" stroke-width="1" fill="none"></path><path d="M13.76 0.43 C16.38 0.46, 19.23 1.72, 21.13 3.67 C23.02 5.61, 24.72 9.29, 25.15 12.11 C25.59 14.93, 25.21 18.24, 23.75 20.6 C22.29 22.96, 18.95 25.27, 16.39 26.28 C13.84 27.29, 10.87 27.63, 8.41 26.65 C5.94 25.66, 2.99 23.1, 1.59 20.38 C0.19 17.67, -0.52 13.29, -0.01 10.36 C0.49 7.44, 2.39 4.65, 4.63 2.85 C6.88 1.05, 11.91 0.01, 13.45 -0.43 C14.99 -0.87, 13.9 -0.16, 13.87 0.21 M16.08 -0.3 C18.84 0.38, 22.33 3.45, 23.91 5.95 C25.48 8.45, 25.79 11.8, 25.54 14.69 C25.3 17.58, 24.39 21.17, 22.45 23.27 C20.52 25.37, 16.64 27.01, 13.94 27.29 C11.24 27.58, 8.5 26.73, 6.24 25.01 C3.99 23.28, 1.41 19.79, 0.43 16.94 C-0.54 14.09, -0.76 10.55, 0.39 7.92 C1.54 5.29, 4.69 2.44, 7.34 1.17 C9.99 -0.11, 14.82 0.47, 16.31 0.27 C17.8 0.07, 16.48 -0.31, 16.29 -0.01" stroke="#f08c00" stroke-width="2" fill="none"></path></g><g stroke-linecap="round" transform="translate(314.9622096445346 109.41714607771308) rotate(0 14.426679994946426 13.241622427672326)"><path d="M5.62 2.24 C5.62 2.24, 5.62 2.24, 5.62 2.24 M5.62 2.24 C5.62 2.24, 5.62 2.24, 5.62 2.24 M2.48 18.05 C8.75 12.38, 14.39 5.52, 16.91 1.45 M2.48 18.05 C7.82 11.23, 13.08 5.76, 16.91 1.45 M7.86 24.06 C13.03 17.43, 20.11 9.23, 24.92 4.43 M7.86 24.06 C14.19 16.97, 20.17 9.42, 24.92 4.43 M16.52 26.29 C19.27 23.56, 21.74 20.49, 27.67 13.46 M16.52 26.29 C19.03 23.19, 21.88 20.08, 27.67 13.46" stroke="#ffc9c9" stroke-width="1" fill="none"></path><path d="M14.5 0.41 C17.39 0.32, 21.37 1.45, 23.67 3.22 C25.97 4.99, 27.84 8.11, 28.28 11.03 C28.73 13.95, 27.95 18.31, 26.37 20.72 C24.78 23.14, 21.77 24.81, 18.79 25.53 C15.82 26.25, 11.31 26.13, 8.53 25.04 C5.74 23.96, 3.49 21.46, 2.07 19.01 C0.65 16.56, -0.58 13.11, -0.01 10.35 C0.56 7.58, 2.96 4.11, 5.49 2.4 C8.01 0.68, 13.41 0.37, 15.14 0.06 C16.88 -0.26, 15.9 0.3, 15.9 0.49 M13.44 -0.57 C16.39 -0.76, 20.96 1.35, 23.55 3.16 C26.14 4.97, 28.49 7.56, 28.98 10.29 C29.47 13.01, 27.97 16.99, 26.47 19.51 C24.96 22.02, 22.84 24.33, 19.96 25.38 C17.08 26.43, 12.24 26.6, 9.21 25.8 C6.18 24.99, 3.35 23.03, 1.77 20.56 C0.18 18.08, -0.92 13.83, -0.3 10.94 C0.33 8.05, 3.21 5.01, 5.52 3.24 C7.83 1.48, 12.18 0.77, 13.56 0.34 C14.94 -0.1, 13.81 0.37, 13.81 0.63" stroke="#f08c00" stroke-width="2" fill="none"></path></g><g stroke-linecap="round" transform="translate(282.1977386128174 25.09884234652958) rotate(314.32555066523366 14.68511285127829 64.5298328979224)"><path d="M1.95 1.7 C1.95 1.7, 1.95 1.7, 1.95 1.7 M1.95 1.7 C1.95 1.7, 1.95 1.7, 1.95 1.7 M4.06 11.48 C5.25 9.01, 8.5 7.14, 11.27 3.17 M4.06 11.48 C5.55 9.62, 7.57 7.06, 11.27 3.17 M4.19 23.52 C9.04 16.19, 15.17 12.89, 21.25 3.89 M4.19 23.52 C10.59 16.8, 14.29 11.71, 21.25 3.89 M4.32 35.56 C9.48 27.23, 15.37 20.74, 31.22 4.61 M4.32 35.56 C11.32 26.88, 20.74 17.38, 31.22 4.61 M4.46 47.6 C16.49 32.41, 26.94 21.01, 35.29 12.13 M4.46 47.6 C16.65 34.75, 29.12 20.05, 35.29 12.13 M4.59 59.64 C16.42 48.04, 29.28 31.29, 35.42 24.17 M4.59 59.64 C14.45 47.38, 25.94 35.52, 35.42 24.17 M4.07 72.43 C13.47 58.22, 27.74 47.2, 34.9 36.96 M4.07 72.43 C11.12 64.43, 17.7 56.73, 34.9 36.96 M4.2 84.48 C16.71 70.41, 26.7 59.48, 35.03 49 M4.2 84.48 C9.23 76.71, 17.18 71, 35.03 49 M4.33 96.52 C16.16 84.91, 24.88 71.44, 35.17 61.05 M4.33 96.52 C13.5 87.29, 21.68 75.66, 35.17 61.05 M4.46 108.56 C16.05 96.64, 27.9 81.27, 35.3 73.09 M4.46 108.56 C13.23 98.02, 21.66 88.74, 35.3 73.09 M0.66 125.13 C12.06 111.75, 22.96 101.33, 35.43 85.13 M0.66 125.13 C12.51 110.67, 26.19 95.84, 35.43 85.13 M6.7 130.37 C15.51 119.54, 28.98 104.02, 34.91 97.92 M6.7 130.37 C13.83 121.13, 20.18 114.07, 34.91 97.92 M16.67 131.1 C25.3 122.86, 29.32 115.68, 35.04 109.96 M16.67 131.1 C22.29 123.18, 28.69 117.96, 35.04 109.96" stroke="#ffc9c9" stroke-width="1" fill="none"></path><path d="M7.34 0 C10.44 1.2, 16.92 -1.36, 22.03 0 M7.34 0 C11.58 0.25, 15.78 0.32, 22.03 0 M22.03 0 C26.03 -0.45, 27.91 1.27, 29.37 7.34 M22.03 0 C25.25 2.06, 28.68 1.07, 29.37 7.34 M29.37 7.34 C28.75 36.94, 29.82 62.27, 29.37 121.72 M29.37 7.34 C30.87 30.21, 29.28 53.13, 29.37 121.72 M29.37 121.72 C30.26 127.8, 28.83 128.88, 22.03 129.06 M29.37 121.72 C31.27 128.51, 25.42 128.25, 22.03 129.06 M22.03 129.06 C16.59 130.45, 13.38 127.73, 7.34 129.06 M22.03 129.06 C18.37 129.12, 15 128.65, 7.34 129.06 M7.34 129.06 C2.2 130.67, -1.91 125.07, 0 121.72 M7.34 129.06 C3.99 130.04, -2.15 127.58, 0 121.72 M0 121.72 C-1.41 90.55, -1.15 59.54, 0 7.34 M0 121.72 C0.72 79.65, 1.13 38.62, 0 7.34 M0 7.34 C-1.7 2.68, 3.9 0.68, 7.34 0 M0 7.34 C-0.42 1.18, 4.03 1.85, 7.34 0" stroke="#f08c00" stroke-width="2" fill="none"></path></g><g stroke-linecap="round" transform="translate(176.9196474556486 34.12676997838827) rotate(316.86353342955465 41.08566490938858 14.670642905701044)"><path d="M1.95 1.7 C1.95 1.7, 1.95 1.7, 1.95 1.7 M1.95 1.7 C1.95 1.7, 1.95 1.7, 1.95 1.7 M4.05 11.47 C5.62 9.21, 7.49 8.03, 11.27 3.17 M4.05 11.47 C5.78 9.79, 7.67 8.04, 11.27 3.17 M1.56 26.53 C7.49 22.68, 10.76 14.53, 21.9 3.14 M1.56 26.53 C7.87 19.56, 12.42 12.98, 21.9 3.14 M7.6 31.78 C15.25 22.97, 20.18 16.8, 32.53 3.1 M7.6 31.78 C12.13 26.63, 16.98 20.99, 32.53 3.1 M18.23 31.75 C25.07 23.36, 34.47 14.12, 42.5 3.82 M18.23 31.75 C25.84 23.1, 33.51 15.35, 42.5 3.82 M28.86 31.71 C37.23 24.46, 45.95 15.68, 53.13 3.79 M28.86 31.71 C34.89 24.01, 40.1 18.2, 53.13 3.79 M39.49 31.68 C48.85 20.89, 56.38 12.72, 63.76 3.75 M39.49 31.68 C47.27 21.68, 55.65 13.94, 63.76 3.75 M49.46 32.4 C58.53 21.29, 69.01 12.15, 74.39 3.72 M49.46 32.4 C57.58 24.11, 64.89 14.7, 74.39 3.72 M60.09 32.36 C64.3 25.12, 70.26 21.3, 83.06 5.95 M60.09 32.36 C64.99 26.27, 69.6 21.71, 83.06 5.95 M70.72 32.33 C75.16 26.35, 78.4 20.44, 83.19 17.99 M70.72 32.33 C74.42 27.12, 78.13 22.39, 83.19 17.99" stroke="#ffc9c9" stroke-width="1" fill="none"></path><path d="M7.34 0 C33.05 1.38, 58.42 0.37, 74.84 0 M7.34 0 C34.1 0.85, 59.66 0.58, 74.84 0 M74.84 0 C80.02 -0.1, 83.55 2.76, 82.17 7.34 M74.84 0 C80.89 -0.28, 80.99 1.12, 82.17 7.34 M82.17 7.34 C81.42 11.98, 81.81 17.74, 82.17 22.01 M82.17 7.34 C82.63 10.82, 82.55 13.14, 82.17 22.01 M82.17 22.01 C83.45 25.26, 79.64 30.28, 74.84 29.34 M82.17 22.01 C83.43 26.28, 80.14 28.57, 74.84 29.34 M74.84 29.34 C59.55 29.41, 44.09 30.97, 7.34 29.34 M74.84 29.34 C52.97 29.46, 29.21 28.98, 7.34 29.34 M7.34 29.34 C1.55 30.45, 1.64 28.73, 0 22.01 M7.34 29.34 C1.56 31.39, -1.16 27.22, 0 22.01 M0 22.01 C0.08 17.13, 0.22 14.15, 0 7.34 M0 22.01 C-0.48 18.18, -0.58 13.78, 0 7.34 M0 7.34 C0.57 3.04, 1.07 0.5, 7.34 0 M0 7.34 C0.77 2.77, 1.55 0.48, 7.34 0" stroke="#f08c00" stroke-width="2" fill="none"></path></g><g stroke-linecap="round"><g transform="translate(133.77301385881037 155.51417096655354) rotate(0 71.8435624238956 -25.461410498503312)"><path d="M-0.83 0.5 C5.75 -5.94, 22.64 -30.91, 40.51 -39.39 C58.39 -47.87, 89.36 -53.71, 106.42 -50.36 C123.48 -47.01, 136.48 -24.54, 142.87 -19.29 M0.94 -0.28 C7.36 -6.54, 22.76 -29.69, 40.18 -38.38 C57.59 -47.07, 88.33 -55.8, 105.41 -52.41 C122.5 -49.02, 136.28 -23.77, 142.69 -18.04" stroke="#1971c2" stroke-width="2" fill="none"></path></g><g transform="translate(133.77301385881037 155.51417096655354) rotate(0 71.8435624238956 -25.461410498503312)"><path d="M121.88 -30.34 C130.78 -23.45, 136.41 -21.36, 142.69 -18.04 M121.88 -30.34 C129.91 -25.52, 135.41 -21.69, 142.69 -18.04" stroke="#1971c2" stroke-width="2" fill="none"></path></g><g transform="translate(133.77301385881037 155.51417096655354) rotate(0 71.8435624238956 -25.461410498503312)"><path d="M134.66 -40.84 C138.5 -29.93, 139.14 -23.74, 142.69 -18.04 M134.66 -40.84 C138.18 -32.35, 139.26 -24.88, 142.69 -18.04" stroke="#1971c2" stroke-width="2" fill="none"></path></g></g><mask></mask><g stroke-linecap="round" transform="translate(700.1830079672434 150.47130970135942) rotate(0 94.28776762683242 27.885676655400914)"><path d="M13.94 0 C68.41 -1.97, 120.97 -1.18, 174.63 0 M13.94 0 C72.18 -1.07, 127.91 0.24, 174.63 0 M174.63 0 C184.61 1.3, 186.75 5.52, 188.58 13.94 M174.63 0 C182.81 1.64, 189.62 6.24, 188.58 13.94 M188.58 13.94 C190.12 19.44, 189.34 29.44, 188.58 41.83 M188.58 13.94 C189.14 23.39, 189.08 32.47, 188.58 41.83 M188.58 41.83 C186.78 49.87, 183.97 56.64, 174.63 55.77 M188.58 41.83 C190.13 50.35, 183.31 55.12, 174.63 55.77 M174.63 55.77 C122.1 56.84, 64.77 58.14, 13.94 55.77 M174.63 55.77 C139.15 56.12, 101.47 55.55, 13.94 55.77 M13.94 55.77 C6.33 56.96, 0.75 52.62, 0 41.83 M13.94 55.77 C2.98 54.86, -0.16 50.8, 0 41.83 M0 41.83 C0.59 32.03, -0.41 24.35, 0 13.94 M0 41.83 C0.14 36.28, 0.58 30.91, 0 13.94 M0 13.94 C-1.76 3.44, 6.22 -0.93, 13.94 0 M0 13.94 C2.25 3.05, 6.3 -2.24, 13.94 0" stroke="#1e1e1e" stroke-width="2" fill="none"></path></g><g stroke-linecap="round" transform="translate(809.4358515101078 151.91776818754914) rotate(0 12.784895853955959 13.977268470508164)"><path d="M5.57 2.19 C5.57 2.19, 5.57 2.19, 5.57 2.19 M5.57 2.19 C5.57 2.19, 5.57 2.19, 5.57 2.19 M1.76 18.76 C7.73 12.9, 13.86 4.56, 16.85 1.4 M1.76 18.76 C5.8 14.29, 9.29 9.99, 16.85 1.4 M6.49 25.52 C11.86 20.04, 16.03 14.67, 22.89 6.65 M6.49 25.52 C10.47 20.35, 14.87 15.91, 22.89 6.65 M15.15 27.75 C18.49 24.37, 21.49 19.64, 24.99 16.43 M15.15 27.75 C19.15 23.34, 22.61 19.63, 24.99 16.43" stroke="#ffc9c9" stroke-width="1" fill="none"></path><path d="M13.37 0.42 C15.89 0.25, 18.98 1.18, 21.05 3.14 C23.13 5.1, 25.34 9.22, 25.82 12.18 C26.31 15.14, 25.44 18.43, 23.96 20.91 C22.49 23.38, 19.57 25.98, 16.97 27.02 C14.37 28.06, 10.89 28.28, 8.37 27.17 C5.85 26.06, 3.16 22.98, 1.85 20.34 C0.55 17.71, -0.03 14.33, 0.54 11.36 C1.11 8.4, 3.01 4.4, 5.25 2.56 C7.49 0.72, 12.41 0.75, 13.97 0.33 C15.53 -0.08, 14.61 -0.17, 14.61 0.07 M11.47 -0.45 C13.98 -0.62, 18.14 1.31, 20.52 3.16 C22.9 5, 25.18 7.78, 25.76 10.61 C26.33 13.44, 25.25 17.43, 23.96 20.14 C22.67 22.84, 20.46 25.53, 18.04 26.84 C15.62 28.16, 12.1 28.98, 9.45 28.03 C6.79 27.09, 3.57 23.89, 2.1 21.16 C0.64 18.44, 0.37 14.58, 0.64 11.68 C0.92 8.79, 1.71 5.72, 3.73 3.8 C5.75 1.88, 11.42 0.8, 12.75 0.17 C14.08 -0.46, 11.71 -0.26, 11.72 0.03" stroke="#f08c00" stroke-width="2" fill="none"></path></g><g stroke-linecap="round" transform="translate(713.4727912855358 182.10204276996507) rotate(0 26.492868223561686 28.333579512913047)"><path d="M28.13 -0.78 C33.61 -0.74, 41.67 4.28, 45.9 8.55 C50.13 12.81, 53.06 18.91, 53.52 24.82 C53.99 30.73, 51.92 38.78, 48.7 43.99 C45.47 49.21, 39.61 54.51, 34.18 56.12 C28.75 57.73, 21.28 56.16, 16.1 53.64 C10.91 51.11, 5.49 46.52, 3.06 40.96 C0.64 35.4, 0.16 26.15, 1.57 20.29 C2.98 14.43, 6 9.06, 11.51 5.78 C17.01 2.49, 29.93 0.75, 34.61 0.58 C39.3 0.41, 39.85 4.09, 39.62 4.76 M16.58 2.72 C21.84 0.29, 30.35 -0.82, 35.67 0.87 C41 2.57, 45.6 7.65, 48.54 12.87 C51.48 18.1, 53.88 25.91, 53.31 32.23 C52.73 38.54, 49.38 46.83, 45.09 50.77 C40.8 54.71, 33.19 56.05, 27.56 55.85 C21.92 55.65, 15.91 53.14, 11.29 49.56 C6.68 45.99, 1.03 40.08, -0.13 34.38 C-1.29 28.68, 1.67 20.83, 4.3 15.36 C6.94 9.88, 13.39 3.51, 15.67 1.53 C17.96 -0.44, 17.6 2.78, 18.01 3.49" stroke="#1971c2" stroke-width="2" fill="none"></path></g><g stroke-linecap="round" transform="translate(828.0601124961183 180.35981578979232) rotate(0 26.492868223561686 28.333579512913047)"><path d="M37.77 2.67 C43.05 4.62, 48.34 9.44, 50.83 14.72 C53.31 20.01, 54 28.27, 52.7 34.4 C51.4 40.54, 47.52 47.9, 43.01 51.53 C38.5 55.16, 31.32 56.53, 25.62 56.19 C19.92 55.84, 12.95 53.7, 8.83 49.46 C4.7 45.23, 1.57 36.79, 0.88 30.76 C0.19 24.74, 1.6 18.36, 4.68 13.32 C7.76 8.29, 13.17 1.84, 19.38 0.55 C25.58 -0.74, 37.7 4.13, 41.89 5.58 C46.09 7.03, 45 9.13, 44.53 9.25 M19.34 0.87 C24.3 -1.43, 30.84 -0.71, 36.03 1.65 C41.22 4.01, 47.6 9.36, 50.47 15.03 C53.34 20.69, 54.52 29.84, 53.26 35.65 C52 41.45, 47.34 46.56, 42.9 49.88 C38.47 53.19, 32.45 55.6, 26.64 55.54 C20.83 55.47, 12.23 53.34, 8.04 49.51 C3.84 45.68, 2.28 38.68, 1.47 32.55 C0.66 26.43, 0.14 17.81, 3.17 12.76 C6.19 7.71, 16.94 3.89, 19.59 2.27 C22.24 0.65, 19.31 2.84, 19.05 3.04" stroke="#1971c2" stroke-width="2" fill="none"></path></g><g stroke-linecap="round" transform="translate(770.1911139057631 181.21150450514034) rotate(0 26.492868223561686 28.333579512913047)"><path d="M15.9 1.76 C20.58 -1.15, 28.24 -1.32, 33.74 0.47 C39.23 2.25, 45.57 7.51, 48.88 12.49 C52.19 17.47, 54.09 24.26, 53.58 30.32 C53.07 36.38, 49.8 44.63, 45.79 48.87 C41.79 53.1, 35.24 55.17, 29.55 55.72 C23.86 56.27, 16.34 55.59, 11.65 52.15 C6.95 48.71, 2.81 40.92, 1.38 35.09 C-0.06 29.25, 0.35 22.62, 3.05 17.15 C5.74 11.68, 14.77 5.06, 17.54 2.27 C20.31 -0.52, 19.6 0.1, 19.68 0.43 M31.77 0.24 C37.04 1.2, 44.39 5.9, 48.06 11.02 C51.73 16.13, 54.13 24.98, 53.82 30.92 C53.5 36.85, 49.96 42.57, 46.17 46.64 C42.39 50.7, 36.86 54.35, 31.09 55.31 C25.33 56.26, 16.36 55.41, 11.59 52.39 C6.81 49.37, 4.2 43.1, 2.45 37.2 C0.71 31.31, -1.05 22.51, 1.13 17 C3.3 11.48, 10.21 6.66, 15.48 4.12 C20.75 1.58, 30.16 2.36, 32.74 1.78 C35.33 1.2, 31.19 0.38, 30.98 0.62" stroke="#1971c2" stroke-width="2" fill="none"></path></g><g stroke-linecap="round" transform="translate(734.5317155208661 162.57241632341658) rotate(0 18.70497813964471 5.845061982385488)"><path d="M2.92 0 C15.73 0.48, 27.66 -0.77, 34.49 0 M2.92 0 C13.99 0.23, 24.39 0.15, 34.49 0 M34.49 0 C36.97 0.7, 36.57 1.28, 37.41 2.92 M34.49 0 C37.1 0.53, 36.68 1.65, 37.41 2.92 M37.41 2.92 C37.18 4.85, 37.22 7.3, 37.41 8.77 M37.41 2.92 C37.39 4.89, 37.49 6.93, 37.41 8.77 M37.41 8.77 C37.98 11.65, 36.51 11.16, 34.49 11.69 M37.41 8.77 C38.25 9.86, 35.89 11.79, 34.49 11.69 M34.49 11.69 C22.11 12.44, 11.04 11.97, 2.92 11.69 M34.49 11.69 C22.63 11.56, 10.83 11.49, 2.92 11.69 M2.92 11.69 C0.51 11.95, -0.73 10.47, 0 8.77 M2.92 11.69 C0.5 10.6, 0.95 10.57, 0 8.77 M0 8.77 C0.15 6.54, -0.18 5.05, 0 2.92 M0 8.77 C0.08 7.14, -0.03 5.85, 0 2.92 M0 2.92 C0.02 1.43, 1.18 -0.31, 2.92 0 M0 2.92 C0.59 0.54, 1.53 0.58, 2.92 0" stroke="#f08c00" stroke-width="2" fill="none"></path></g><g stroke-linecap="round" transform="translate(772.2326395008365 167.5490937664252) rotate(0 14.580317200459945 0.6054690654945318)"><path d="M0.3 0 C7.01 -0.96, 12.86 -0.53, 28.86 0 M0.3 0 C10.69 0.17, 21.78 0.25, 28.86 0 M28.86 0 C28.22 0.31, 29.74 0.56, 29.16 0.3 M28.86 0 C28.33 0.68, 30.01 -0.13, 29.16 0.3 M29.16 0.3 C29.14 0.53, 29.17 0.77, 29.16 0.91 M29.16 0.3 C29.17 0.46, 29.17 0.64, 29.16 0.91 M29.16 0.91 C29.24 0.58, 29.79 0.47, 28.86 1.21 M29.16 0.91 C28.61 1.21, 29.99 1.44, 28.86 1.21 M28.86 1.21 C22.55 1.71, 15.79 0.61, 0.3 1.21 M28.86 1.21 C21.41 1.05, 13.75 1.32, 0.3 1.21 M0.3 1.21 C-0.63 0.97, -0.41 0.16, 0 0.91 M0.3 1.21 C1.05 1.06, 0.43 1.31, 0 0.91 M0 0.91 C-0.02 0.7, -0.02 0.48, 0 0.3 M0 0.91 C0 0.77, 0 0.64, 0 0.3 M0 0.3 C0.21 -0.21, 0.61 -0.38, 0.3 0 M0 0.3 C0.56 0.68, -0.53 -0.43, 0.3 0" stroke="#f08c00" stroke-width="2" fill="none"></path></g><g stroke-linecap="round" transform="translate(803.3699999304035 162.64302012857212) rotate(0 2.07710783345442 5.8807753691921505)"><path d="M1.04 0 C1.78 -0.04, 2.5 0.06, 3.12 0 M1.04 0 C1.83 0.03, 2.53 0.01, 3.12 0 M3.12 0 C4.39 0.46, 3.52 0.93, 4.15 1.04 M3.12 0 C4.66 -0.23, 4.94 -0.54, 4.15 1.04 M4.15 1.04 C4.33 3.4, 3.96 4.98, 4.15 10.72 M4.15 1.04 C4.31 3.9, 4.19 6.17, 4.15 10.72 M4.15 10.72 C4.88 10.67, 3.33 11.85, 3.12 11.76 M4.15 10.72 C5.08 11.65, 3.14 11.35, 3.12 11.76 M3.12 11.76 C2.4 11.69, 1.48 11.76, 1.04 11.76 M3.12 11.76 C2.5 11.77, 1.89 11.75, 1.04 11.76 M1.04 11.76 C-0.07 10.81, 0.83 11.28, 0 10.72 M1.04 11.76 C0.77 11.96, 0.94 12.02, 0 10.72 M0 10.72 C-0.2 9.14, -0.31 6.96, 0 1.04 M0 10.72 C0 8.87, 0.05 6.73, 0 1.04 M0 1.04 C0.51 -0.03, 0.83 0.5, 1.04 0 M0 1.04 C-0.63 -0.08, -0.04 0.75, 1.04 0" stroke="#f08c00" stroke-width="2" fill="none"></path></g><g stroke-linecap="round" transform="translate(835.3303448456215 140.7214690171923) rotate(0 12.823682760680185 13.65973916273407)"><path d="M6 2.56 C6 2.56, 6 2.56, 6 2.56 M6 2.56 C6 2.56, 6 2.56, 6 2.56 M1.54 19.89 C6.71 14.64, 10.68 9.49, 17.28 1.78 M1.54 19.89 C5.34 14.92, 9.58 10.68, 17.28 1.78 M6.92 25.89 C12.75 19.82, 18.13 11.93, 23.98 6.27 M6.92 25.89 C13.72 18.32, 19.8 11.68, 23.98 6.27 M16.24 27.37 C18.58 25.59, 20.49 22.14, 24.77 17.55 M16.24 27.37 C18.04 25.11, 19.76 22.59, 24.77 17.55" stroke="#ffc9c9" stroke-width="1" fill="none"></path><path d="M14.54 0.36 C17.15 0.46, 20.6 1.71, 22.47 3.83 C24.35 5.96, 25.63 10.17, 25.78 13.11 C25.93 16.05, 24.98 19.1, 23.37 21.46 C21.76 23.83, 18.84 26.52, 16.12 27.31 C13.39 28.1, 9.58 27.67, 7.01 26.23 C4.43 24.79, 1.81 21.4, 0.68 18.66 C-0.45 15.93, -0.67 12.47, 0.21 9.8 C1.09 7.12, 3.55 4.24, 5.96 2.61 C8.37 0.98, 13.12 0.35, 14.66 0.03 C16.2 -0.28, 15.2 0.44, 15.19 0.74 M16.33 -0.19 C18.84 0.36, 21.11 3.11, 22.76 5.57 C24.41 8.04, 26.41 11.74, 26.23 14.61 C26.06 17.48, 23.59 20.59, 21.71 22.77 C19.83 24.94, 17.55 27.2, 14.94 27.67 C12.33 28.15, 8.54 27.36, 6.05 25.63 C3.56 23.9, 0.84 20.19, -0.01 17.28 C-0.85 14.36, -0.18 10.81, 1 8.14 C2.17 5.47, 4.66 2.5, 7.06 1.24 C9.47 -0.02, 14.09 0.69, 15.44 0.56 C16.79 0.43, 15.22 0.38, 15.18 0.45" stroke="#f08c00" stroke-width="2" fill="none"></path></g><g stroke-linecap="round" transform="translate(833.6497917968616 110.95476241285661) rotate(0 14.426679994946426 13.241622427672326)"><path d="M4.14 3.6 C4.14 3.6, 4.14 3.6, 4.14 3.6 M4.14 3.6 C4.14 3.6, 4.14 3.6, 4.14 3.6 M2.31 17.91 C6.32 13.39, 10.6 8.35, 16.74 1.3 M2.31 17.91 C7.24 12.44, 12.71 6.27, 16.74 1.3 M7.69 23.91 C11.28 18.62, 17.01 13.66, 24.75 4.29 M7.69 23.91 C14.25 16.94, 20.31 8.86, 24.75 4.29 M16.35 26.14 C20.08 21.24, 22.91 18.37, 28.82 11.8 M16.35 26.14 C20.5 20.44, 25.39 15.75, 28.82 11.8" stroke="#ffc9c9" stroke-width="1" fill="none"></path><path d="M13.23 -0.34 C16.11 -0.8, 20.07 0.94, 22.62 2.53 C25.17 4.13, 27.63 6.5, 28.51 9.24 C29.4 11.98, 29.22 16.26, 27.91 18.97 C26.61 21.67, 23.57 24.35, 20.68 25.47 C17.8 26.58, 13.62 26.38, 10.59 25.65 C7.55 24.92, 4.19 23.22, 2.46 21.06 C0.74 18.9, 0.02 15.55, 0.25 12.69 C0.48 9.84, 1.62 6.01, 3.86 3.93 C6.09 1.85, 11.85 0.77, 13.67 0.2 C15.48 -0.36, 14.61 0.36, 14.72 0.55 M12.16 0.18 C15.05 -0.22, 20.16 0.75, 22.76 2.21 C25.36 3.67, 26.8 6.21, 27.74 8.96 C28.68 11.72, 29.46 15.97, 28.4 18.73 C27.34 21.49, 24.33 24.34, 21.4 25.53 C18.46 26.73, 13.87 26.6, 10.79 25.88 C7.72 25.16, 4.75 23.45, 2.95 21.22 C1.15 18.99, -0.08 15.27, 0 12.48 C0.08 9.7, 1.43 6.6, 3.42 4.51 C5.42 2.42, 10.49 0.74, 11.96 -0.06 C13.43 -0.87, 12.01 -0.56, 12.24 -0.33" stroke="#f08c00" stroke-width="2" fill="none"></path></g><g stroke-linecap="round" transform="translate(800.8853207651443 26.63645868167316) rotate(314.32555066523366 14.68511285127829 64.5298328979224)"><path d="M1.95 1.7 C1.95 1.7, 1.95 1.7, 1.95 1.7 M1.95 1.7 C1.95 1.7, 1.95 1.7, 1.95 1.7 M0.78 15.25 C3.05 11.75, 4.68 6.51, 13.9 0.16 M0.78 15.25 C4.17 11.5, 8.09 6.21, 13.9 0.16 M0.91 27.29 C4.8 22.67, 12.32 12.23, 24.53 0.12 M0.91 27.29 C8.62 19.04, 15.3 10.76, 24.53 0.12 M0.39 40.09 C6.45 32.04, 16.3 20.62, 29.25 6.88 M0.39 40.09 C6.49 31.18, 13.78 23.16, 29.25 6.88 M0.52 52.13 C9.83 42.3, 14.14 34.25, 30.04 18.16 M0.52 52.13 C12.94 39.61, 23.95 25.68, 30.04 18.16 M0.65 64.17 C12.24 52.98, 21.52 42.1, 29.52 30.96 M0.65 64.17 C12.1 51.95, 22.19 39.52, 29.52 30.96 M0.79 76.21 C9.78 68.62, 17.23 56.97, 29.65 43 M0.79 76.21 C9.22 67.45, 16.34 58.86, 29.65 43 M0.26 89 C7.4 79.55, 13.14 71.82, 29.78 55.04 M0.26 89 C7.97 80.54, 14.74 72.06, 29.78 55.04 M0.4 101.04 C10.05 93.28, 14.68 85.56, 29.92 67.08 M0.4 101.04 C8.39 92.17, 16.54 84.29, 29.92 67.08 M0.53 113.09 C7.23 106.62, 11.13 100.23, 30.05 79.12 M0.53 113.09 C9.24 104.57, 16.66 96.12, 30.05 79.12 M0.66 125.13 C8.7 116.46, 18.49 107.3, 29.53 91.92 M0.66 125.13 C8.62 115.74, 14.91 107.69, 29.53 91.92 M8.01 128.87 C14 121.62, 19.79 118.13, 29.66 103.96 M8.01 128.87 C14.24 122.35, 19.62 116.8, 29.66 103.96 M18.64 128.83 C22.62 125.25, 24.16 121.33, 29.79 116 M18.64 128.83 C20.55 125.74, 22.75 123.99, 29.79 116" stroke="#ffc9c9" stroke-width="1" fill="none"></path><path d="M7.34 0 C13.19 0.85, 18.51 -1.17, 22.03 0 M7.34 0 C11.74 0.36, 17.61 -0.21, 22.03 0 M22.03 0 C28.28 -1.54, 27.58 1.19, 29.37 7.34 M22.03 0 C26.97 1, 30.93 1.67, 29.37 7.34 M29.37 7.34 C29.01 39.7, 30.91 69.93, 29.37 121.72 M29.37 7.34 C29.73 35.66, 31.01 63.99, 29.37 121.72 M29.37 121.72 C28.21 125.89, 28.61 130.25, 22.03 129.06 M29.37 121.72 C30.23 128.33, 25.26 128.15, 22.03 129.06 M22.03 129.06 C17.31 128.38, 13.81 127.98, 7.34 129.06 M22.03 129.06 C18.59 128.82, 14.2 129.05, 7.34 129.06 M7.34 129.06 C4.08 130.11, -1.76 125.41, 0 121.72 M7.34 129.06 C4.25 127.99, 2.25 125.01, 0 121.72 M0 121.72 C1.76 79.24, 2.03 37.1, 0 7.34 M0 121.72 C-0.1 91.41, -1.14 59.72, 0 7.34 M0 7.34 C-0.66 3.74, 3.43 -0.15, 7.34 0 M0 7.34 C-1.11 2.14, 4.15 -1.65, 7.34 0" stroke="#f08c00" stroke-width="2" fill="none"></path></g><g stroke-linecap="round" transform="translate(695.6072296079758 35.66438631353185) rotate(316.86353342955465 41.08566490938858 14.670642905701044)"><path d="M1.95 1.7 C1.95 1.7, 1.95 1.7, 1.95 1.7 M1.95 1.7 C1.95 1.7, 1.95 1.7, 1.95 1.7 M0.77 15.25 C3.7 7.9, 9.85 4.8, 13.89 0.15 M0.77 15.25 C5.18 9.6, 8.45 5.88, 13.89 0.15 M1.56 26.53 C6.88 18.42, 12.29 12.84, 24.52 0.12 M1.56 26.53 C8.76 17.96, 14.42 12.02, 24.52 0.12 M9.57 29.52 C19.43 17.55, 26.08 9.69, 35.15 0.08 M9.57 29.52 C17.22 19.8, 25.63 10.3, 35.15 0.08 M20.2 29.48 C27.3 18.82, 38.58 11.06, 45.78 0.05 M20.2 29.48 C27.62 21.04, 35.2 12.16, 45.78 0.05 M30.83 29.45 C37.88 22.83, 45.54 12.55, 56.42 0.02 M30.83 29.45 C38.31 20.55, 46.75 9.58, 56.42 0.02 M41.46 29.41 C48.5 20.2, 53.76 15.51, 66.39 0.74 M41.46 29.41 C47.86 22.41, 53.62 14.88, 66.39 0.74 M52.09 29.38 C56.73 21.83, 64.04 13.49, 77.02 0.7 M52.09 29.38 C58.69 21.21, 66.55 11.48, 77.02 0.7 M62.72 29.35 C65.32 26.46, 69.97 21.37, 81.74 7.46 M62.72 29.35 C68.72 24.35, 72.1 16.43, 81.74 7.46 M73.35 29.31 C74.52 27.24, 77.71 22.35, 81.88 19.5 M73.35 29.31 C76.07 26.82, 78.09 23.88, 81.88 19.5" stroke="#ffc9c9" stroke-width="1" fill="none"></path><path d="M7.34 0 C26.09 -2.03, 42.66 0.79, 74.84 0 M7.34 0 C31.43 -0.6, 54.73 -1.17, 74.84 0 M74.84 0 C77.94 -1.25, 82.21 3.31, 82.17 7.34 M74.84 0 C81.28 -0.77, 81.55 1.79, 82.17 7.34 M82.17 7.34 C83.54 12.42, 81.39 18.34, 82.17 22.01 M82.17 7.34 C82.69 10.8, 81.67 13.7, 82.17 22.01 M82.17 22.01 C83.85 28.09, 80.48 30.83, 74.84 29.34 M82.17 22.01 C80.51 25.99, 79.56 29.02, 74.84 29.34 M74.84 29.34 C55.19 27.56, 34.03 28.2, 7.34 29.34 M74.84 29.34 C61.36 29.43, 47.95 29.78, 7.34 29.34 M7.34 29.34 C0.69 28.13, 1.57 25.97, 0 22.01 M7.34 29.34 C4.69 27.74, 1.65 24.65, 0 22.01 M0 22.01 C0.62 17.9, -0.5 13.92, 0 7.34 M0 22.01 C-0.48 17.89, -0.31 14.8, 0 7.34 M0 7.34 C0.99 2.29, 1.48 -0.26, 7.34 0 M0 7.34 C1.7 0.8, 1.78 1.66, 7.34 0" stroke="#f08c00" stroke-width="2" fill="none"></path></g><g transform="translate(10 156.51417096655348) rotate(0 87.96989440917969 25.00000000000003)"><text x="0" y="17.52" font-family="Virgil, Segoe UI Emoji" font-size="20px" fill="#1971c2" text-anchor="start" style="white-space: pre;" direction="ltr" dominant-baseline="alphabetic">motor is engaged </text><text x="0" y="42.519999999999996" font-family="Virgil, Segoe UI Emoji" font-size="20px" fill="#1971c2" text-anchor="start" style="white-space: pre;" direction="ltr" dominant-baseline="alphabetic">with drivetrain</text></g><g stroke-linecap="round"><g transform="translate(641.8217045038903 160.30061646606362) rotate(0 86.891165398314 -25.173366498318273)"><path d="M-0.87 -0.01 C8.44 -6.48, 36.68 -30.57, 55.87 -39.02 C75.06 -47.47, 94.42 -54, 114.27 -50.71 C134.12 -47.41, 165.16 -24.62, 174.97 -19.24 M0.87 -1.06 C10.53 -7.89, 38.67 -32.87, 57.98 -40.96 C77.28 -49.04, 97.67 -53.37, 116.71 -49.58 C135.74 -45.79, 162.47 -23.53, 172.19 -18.21" stroke="#f08c00" stroke-width="2" fill="none"></path></g><g transform="translate(641.8217045038903 160.30061646606362) rotate(0 86.891165398314 -25.173366498318273)"><path d="M147.88 -24.07 C155.15 -24.04, 163.06 -21.82, 172.19 -18.21 M147.88 -24.07 C153.99 -21.89, 161.5 -21, 172.19 -18.21" stroke="#f08c00" stroke-width="2" fill="none"></path></g><g transform="translate(641.8217045038903 160.30061646606362) rotate(0 86.891165398314 -25.173366498318273)"><path d="M157.33 -38.32 C161.74 -34.08, 166.81 -27.59, 172.19 -18.21 M157.33 -38.32 C161.03 -32.3, 165.99 -27.57, 172.19 -18.21" stroke="#f08c00" stroke-width="2" fill="none"></path></g></g><mask></mask><g transform="translate(530.42383777756 161.42301572856917) rotate(0 82.96990203857422 25)"><text x="0" y="17.52" font-family="Virgil, Segoe UI Emoji" font-size="20px" fill="#f08c00" text-anchor="start" style="white-space: pre;" direction="ltr" dominant-baseline="alphabetic">motor is engaged</text><text x="0" y="42.519999999999996" font-family="Virgil, Segoe UI Emoji" font-size="20px" fill="#f08c00" text-anchor="start" style="white-space: pre;" direction="ltr" dominant-baseline="alphabetic">with hang</text></g></svg>