<svg version="1.1" xmlns="http://www.w3.org/2000/svg" viewBox="0 0 558.7159522348726 356.61538461538464" width="558.7159522348726" height="356.61538461538464" class="excalidraw-svg">
  <!-- svg-source:excalidraw -->
  
  <defs>
    <style class="style-fonts">
      @font-face {
        font-family: "Virgil";
        src: url("https://excalidraw.com/Virgil.woff2");
      }
      @font-face {
        font-family: "Cascadia";
        src: url("https://excalidraw.com/Cascadia.woff2");
      }
      @font-face {
        font-family: "Assistant";
        src: url("https://excalidraw.com/Assistant-Regular.woff2");
      }
    </style>
    
  </defs>
  <rect x="0" y="0" width="558.7159522348726" height="356.61538461538464" fill="#ffffff"/><g stroke-linecap="round" transform="translate(19.02575946208242 10) rotate(0 20.5 162)"><path d="M2.73 2.37 C2.73 2.37, 2.73 2.37, 2.73 2.37 M2.73 2.37 C2.73 2.37, 2.73 2.37, 2.73 2.37 M3.52 13.66 C6.79 10.46, 10.77 4.61, 13.36 2.34 M3.52 13.66 C7.47 10.39, 10.19 6.27, 13.36 2.34 M3.65 25.7 C8.45 20.24, 14.52 14.43, 23.33 3.06 M3.65 25.7 C9.42 19.79, 15.07 11.85, 23.33 3.06 M3.78 37.74 C15.99 25.7, 24.88 11.78, 35.93 0.76 M3.78 37.74 C13.84 27.36, 23.8 16.33, 35.93 0.76 M3.92 49.78 C13.43 40.27, 22.09 27.5, 41.97 6.01 M3.92 49.78 C15.93 34.09, 30.56 19.82, 41.97 6.01 M3.39 62.58 C14.02 48.45, 27.63 35.13, 45.38 14.27 M3.39 62.58 C12.01 52.16, 21.02 43.07, 45.38 14.27 M3.53 74.62 C14.07 62.05, 20.77 54.51, 45.51 26.32 M3.53 74.62 C16.5 58.86, 29.75 43.94, 45.51 26.32 M3.66 86.66 C16.29 71.99, 28.68 59.96, 45.65 38.36 M3.66 86.66 C11.83 77.04, 20.85 66.18, 45.65 38.36 M3.79 98.7 C11.71 89.95, 24.14 78.56, 45.78 50.4 M3.79 98.7 C13.72 87.61, 22.95 77.85, 45.78 50.4 M3.93 110.74 C17.11 92.05, 32.37 75.18, 45.26 63.19 M3.93 110.74 C17.59 93.86, 32.56 75.94, 45.26 63.19 M3.4 123.54 C19.79 105.85, 33.64 88.33, 45.39 75.23 M3.4 123.54 C13.38 113.84, 22.06 103.88, 45.39 75.23 M3.54 135.58 C18.56 121.17, 30.83 104.15, 45.52 87.27 M3.54 135.58 C18.35 119.33, 33.04 101.26, 45.52 87.27 M3.67 147.62 C17.66 134.26, 31.65 115.14, 45.66 99.32 M3.67 147.62 C15.65 133.2, 29.31 117.52, 45.66 99.32 M3.8 159.66 C17.88 143.4, 29.45 129.93, 45.79 111.36 M3.8 159.66 C19.93 142.04, 35.07 124.65, 45.79 111.36 M3.94 171.7 C14.31 160.48, 19.85 150.6, 45.27 124.15 M3.94 171.7 C17.79 156.03, 30.97 141.46, 45.27 124.15 M3.41 184.49 C10.88 176.18, 19.66 166.65, 45.4 136.19 M3.41 184.49 C16.12 170.78, 27.25 159.24, 45.4 136.19 M3.55 196.53 C14.02 181.49, 29.05 167.21, 45.53 148.23 M3.55 196.53 C17.85 179.66, 33.02 162.59, 45.53 148.23 M3.68 208.58 C21.83 188.01, 37.07 168.68, 45.67 160.27 M3.68 208.58 C11.99 198.87, 21.38 188.73, 45.67 160.27 M3.81 220.62 C16.79 205.34, 28.75 189.08, 45.8 172.32 M3.81 220.62 C14.89 208.5, 26.33 194.6, 45.8 172.32 M3.95 232.66 C17.4 218.34, 28.43 202.95, 45.28 185.11 M3.95 232.66 C18.82 214.33, 34.84 195.98, 45.28 185.11 M3.42 245.45 C15.7 230.6, 27.73 214.43, 45.41 197.15 M3.42 245.45 C20.44 227.96, 35.59 209.7, 45.41 197.15 M3.56 257.49 C10.98 248.17, 20.69 234.61, 45.54 209.19 M3.56 257.49 C14.69 244.95, 27.06 230.55, 45.54 209.19 M3.69 269.53 C10.81 259.69, 22.23 249.78, 45.68 221.23 M3.69 269.53 C12.69 258.36, 21.85 248.52, 45.68 221.23 M3.82 281.58 C15.82 270.61, 26.08 257.07, 45.81 233.27 M3.82 281.58 C15.35 267.28, 26.82 254.01, 45.81 233.27 M3.96 293.62 C13.1 281.63, 24.9 268.62, 45.29 246.07 M3.96 293.62 C18.99 274.22, 36.76 257.7, 45.29 246.07 M3.43 306.41 C13.94 297.28, 20.65 284.87, 45.42 258.11 M3.43 306.41 C13.04 295.57, 21.02 286.87, 45.42 258.11 M4.22 317.7 C19.66 299.74, 35.14 284.25, 45.55 270.15 M4.22 317.7 C13.57 306.49, 22.86 295.89, 45.55 270.15 M8.29 325.21 C17.41 312.5, 28.86 300.64, 45.69 282.19 M8.29 325.21 C23.51 308.69, 38.42 291.55, 45.69 282.19 M18.27 325.93 C30.6 312.61, 38.22 303.6, 45.16 294.99 M18.27 325.93 C23.65 318.05, 31.12 312.11, 45.16 294.99 M28.9 325.9 C33.5 319.67, 41.33 313.57, 45.3 307.03 M28.9 325.9 C32.35 321.92, 36.26 315.59, 45.3 307.03" stroke="#e9ecef" stroke-width="1" fill="none"/><path d="M10.25 0 C16.8 0.25, 22.22 -1.62, 30.75 0 M10.25 0 C16.55 0.71, 23.11 -0.4, 30.75 0 M30.75 0 C38.85 1.18, 40.25 2.22, 41 10.25 M30.75 0 C37.19 0.94, 41.12 1.89, 41 10.25 M41 10.25 C39.94 85.97, 39.75 162.81, 41 313.75 M41 10.25 C40.04 125.22, 39.77 239.61, 41 313.75 M41 313.75 C40.83 320, 36.02 324.11, 30.75 324 M41 313.75 C39.25 321.63, 38.08 325.17, 30.75 324 M30.75 324 C20.64 323.68, 16.12 325.34, 10.25 324 M30.75 324 C24.18 324.62, 18.03 324.84, 10.25 324 M10.25 324 C1.67 322.65, -0.34 322.53, 0 313.75 M10.25 324 C3.64 326.22, 0.74 319.49, 0 313.75 M0 313.75 C0.06 204.1, -0.81 93.27, 0 10.25 M0 313.75 C-0.34 243.52, -0.5 173.68, 0 10.25 M0 10.25 C-1.77 4.57, 2.8 -0.35, 10.25 0 M0 10.25 C2.19 2.71, 1.46 1.94, 10.25 0" stroke="#1e1e1e" stroke-width="2" fill="none"/></g><g stroke-linecap="round" transform="translate(19.525759462082192 202.76923076923077) rotate(0 79.99999999999989 23.076923076923066)"><path d="M4.68 1.42 C4.68 1.42, 4.68 1.42, 4.68 1.42 M4.68 1.42 C4.68 1.42, 4.68 1.42, 4.68 1.42 M0.88 17.99 C3.54 13.9, 8.27 12.58, 15.97 0.63 M0.88 17.99 C4.22 14.33, 7.5 9.08, 15.97 0.63 M0.36 30.79 C9.58 21.33, 16.23 14.52, 26.6 0.6 M0.36 30.79 C6.07 23.4, 13.3 17.14, 26.6 0.6 M1.8 41.32 C7.59 32.62, 16.1 23.48, 37.23 0.56 M1.8 41.32 C14.01 28.38, 24.46 14.47, 37.23 0.56 M8.5 45.81 C19.26 31.85, 33.91 18.54, 47.86 0.53 M8.5 45.81 C21.45 32.57, 32.09 19.62, 47.86 0.53 M19.13 45.78 C35.82 27.95, 47.99 10.61, 58.49 0.49 M19.13 45.78 C27.92 36.4, 35.47 27.27, 58.49 0.49 M29.76 45.74 C36.55 37.77, 47.46 26.84, 69.12 0.46 M29.76 45.74 C39.69 34.21, 50.19 21.95, 69.12 0.46 M39.73 46.46 C54.48 31.56, 64.2 17.49, 79.09 1.18 M39.73 46.46 C49.87 34.31, 59.37 22.28, 79.09 1.18 M50.36 46.43 C59.97 37.96, 65.3 26.56, 89.72 1.14 M50.36 46.43 C62.06 33.82, 74.24 18.93, 89.72 1.14 M60.99 46.39 C74.81 28.39, 92.62 14.07, 100.35 1.11 M60.99 46.39 C71.28 33.46, 83.61 21.76, 100.35 1.11 M71.62 46.36 C83.75 31.91, 94.63 15.57, 110.98 1.08 M71.62 46.36 C84.08 32.78, 95.74 18.67, 110.98 1.08 M82.25 46.32 C92.85 33.59, 106.42 19.43, 121.61 1.04 M82.25 46.32 C93.08 33.14, 103.34 22.94, 121.61 1.04 M92.88 46.29 C103.5 33.42, 111.26 25.21, 132.24 1.01 M92.88 46.29 C101.74 35.67, 110.2 26.79, 132.24 1.01 M103.51 46.25 C110.96 37.11, 121.8 28.69, 142.87 0.97 M103.51 46.25 C115.89 32.87, 126.89 17.28, 142.87 0.97 M114.14 46.22 C124.47 31.23, 139.09 19.17, 153.5 0.94 M114.14 46.22 C124.87 34.72, 134.36 21.25, 153.5 0.94 M124.77 46.19 C135.08 35.05, 146.05 19.52, 159.54 6.19 M124.77 46.19 C134.23 36.73, 142.98 25.83, 159.54 6.19 M134.74 46.91 C143.24 37.97, 152.1 30.53, 159.67 18.23 M134.74 46.91 C143.68 37.29, 153.86 25.6, 159.67 18.23 M145.37 46.87 C149.47 40.49, 151.89 38.46, 159.15 31.02 M145.37 46.87 C149.15 43.18, 152.61 38.89, 159.15 31.02" stroke="#e9ecef" stroke-width="1" fill="none"/><path d="M11.54 0 C53.09 -1.79, 96.06 -1.45, 148.46 0 M11.54 0 C57.29 -1.4, 105.66 -0.49, 148.46 0 M148.46 0 C155.4 -1.19, 159.65 4.67, 160 11.54 M148.46 0 C156.28 -1.53, 158.93 2.41, 160 11.54 M160 11.54 C160.23 17.43, 161.59 26.65, 160 34.62 M160 11.54 C159.09 18.25, 159.81 23.44, 160 34.62 M160 34.62 C158.44 42.41, 154.63 47.07, 148.46 46.15 M160 34.62 C160.5 43.48, 158.38 45.27, 148.46 46.15 M148.46 46.15 C103.97 47.15, 56.33 47.26, 11.54 46.15 M148.46 46.15 C111.18 47.98, 73.3 46.41, 11.54 46.15 M11.54 46.15 C3.5 48.1, 0.19 44.24, 0 34.62 M11.54 46.15 C4.59 45.06, 1.47 42.43, 0 34.62 M0 34.62 C-0.98 29.69, -1.42 24.34, 0 11.54 M0 34.62 C0.24 27.94, -1.02 22.31, 0 11.54 M0 11.54 C-0.61 3.49, 5.75 -0.62, 11.54 0 M0 11.54 C-1.95 5.79, 4.88 -1.28, 11.54 0" stroke="#1e1e1e" stroke-width="2" fill="none"/></g><g stroke-linecap="round" transform="translate(150.2949902313129 215.0769230769231) rotate(0 9.230769230769283 9.230769230769283)"><path d="M10 -0.28 C11.93 -0.26, 14.41 1.47, 15.77 2.93 C17.14 4.4, 18.06 6.55, 18.18 8.51 C18.3 10.46, 17.58 13, 16.48 14.65 C15.38 16.3, 13.46 17.9, 11.57 18.42 C9.69 18.95, 6.99 18.76, 5.19 17.81 C3.39 16.86, 1.54 14.59, 0.77 12.74 C0 10.9, 0.08 8.51, 0.59 6.75 C1.09 4.99, 2.16 3.36, 3.8 2.18 C5.43 1, 9.11 -0.07, 10.4 -0.33 C11.68 -0.59, 11.55 0.35, 11.5 0.6 M7.87 -0.05 C9.68 -0.62, 12.03 -0.15, 13.72 0.91 C15.41 1.97, 17.25 4.53, 18.02 6.3 C18.78 8.07, 19.07 9.61, 18.3 11.52 C17.52 13.43, 15.05 16.74, 13.36 17.77 C11.68 18.79, 10.06 17.98, 8.17 17.68 C6.29 17.37, 3.47 17.33, 2.07 15.94 C0.68 14.56, -0.25 11.32, -0.2 9.37 C-0.15 7.42, 1.19 5.67, 2.38 4.24 C3.56 2.81, 5.99 1.46, 6.93 0.79 C7.88 0.12, 7.86 0.24, 8.05 0.22" stroke="none" stroke-width="0" fill="#e9ecef"/><path d="M8.17 -0.38 C9.95 -0.69, 12.13 0.56, 13.81 1.63 C15.49 2.7, 17.63 4.22, 18.25 6.03 C18.87 7.83, 18.28 10.56, 17.55 12.44 C16.83 14.32, 15.66 16.39, 13.92 17.32 C12.19 18.26, 9.18 18.41, 7.15 18.06 C5.12 17.72, 2.93 16.82, 1.75 15.25 C0.58 13.68, 0.02 10.74, 0.11 8.64 C0.2 6.55, 0.91 4.15, 2.3 2.7 C3.69 1.24, 7.48 0.38, 8.46 -0.07 C9.45 -0.52, 8.2 -0.1, 8.22 0 M10.05 0.15 C11.84 0.41, 14.17 1.94, 15.6 3.49 C17.03 5.03, 18.36 7.54, 18.62 9.41 C18.88 11.28, 18.38 13.36, 17.16 14.72 C15.94 16.07, 13.39 17.01, 11.31 17.54 C9.22 18.08, 6.34 18.76, 4.64 17.94 C2.94 17.12, 1.71 14.61, 1.1 12.63 C0.5 10.65, 0.49 7.84, 1.01 6.05 C1.53 4.25, 2.65 2.73, 4.24 1.85 C5.82 0.97, 9.59 1.13, 10.54 0.78 C11.49 0.44, 9.98 -0.38, 9.95 -0.22" stroke="#1e1e1e" stroke-width="2" fill="none"/></g><g stroke-linecap="round" transform="translate(31.064221000543398 215.8461538461538) rotate(0 9.230769230769283 9.230769230769283)"><path d="M10.76 0.39 C12.59 0.65, 14.75 1.85, 15.97 3.33 C17.2 4.81, 18.06 7.27, 18.11 9.27 C18.16 11.27, 17.51 13.82, 16.28 15.35 C15.06 16.89, 12.72 18.23, 10.78 18.48 C8.83 18.73, 6.26 17.87, 4.62 16.85 C2.97 15.83, 1.59 14.06, 0.89 12.36 C0.19 10.67, -0.15 8.59, 0.42 6.68 C1 4.76, 2.51 1.93, 4.34 0.88 C6.17 -0.17, 10.3 0.44, 11.4 0.39 C12.5 0.34, 11.11 0.45, 10.95 0.59 M10.06 -0.16 C11.9 -0.01, 14.46 1.81, 15.9 3.13 C17.35 4.44, 18.68 5.73, 18.72 7.73 C18.75 9.73, 17.25 13.52, 16.12 15.14 C15 16.75, 13.81 16.92, 11.98 17.43 C10.15 17.95, 7.02 18.93, 5.14 18.2 C3.26 17.48, 1.44 14.83, 0.7 13.08 C-0.04 11.32, 0.23 9.45, 0.68 7.65 C1.14 5.86, 1.79 3.61, 3.44 2.32 C5.1 1.02, 9.44 0.3, 10.61 -0.13 C11.78 -0.55, 10.62 -0.42, 10.46 -0.24" stroke="none" stroke-width="0" fill="#1e1e1e"/><path d="M7.62 0.43 C9.44 0.07, 12.6 0.18, 14.27 1.13 C15.95 2.08, 17.03 4.23, 17.66 6.13 C18.29 8.04, 18.77 10.73, 18.06 12.56 C17.34 14.38, 15.2 16.08, 13.38 17.07 C11.57 18.06, 9.03 18.9, 7.17 18.49 C5.3 18.08, 3.36 16.26, 2.17 14.61 C0.99 12.96, -0.03 10.52, 0.05 8.59 C0.12 6.66, 1.33 4.49, 2.64 3.04 C3.96 1.58, 6.9 0.39, 7.93 -0.15 C8.96 -0.69, 8.72 -0.37, 8.82 -0.19 M7.98 0.37 C9.97 0.17, 12.97 1.08, 14.79 2.13 C16.61 3.18, 18.4 4.95, 18.91 6.68 C19.41 8.41, 18.83 10.58, 17.82 12.51 C16.81 14.44, 14.64 17.33, 12.86 18.27 C11.09 19.21, 8.98 18.84, 7.19 18.17 C5.4 17.49, 3.34 15.76, 2.11 14.2 C0.89 12.64, -0.26 10.63, -0.16 8.81 C-0.06 6.99, 1.36 4.83, 2.7 3.29 C4.04 1.74, 6.95 -0.09, 7.9 -0.48 C8.86 -0.87, 8.31 0.58, 8.44 0.94" stroke="#1e1e1e" stroke-width="2" fill="none"/></g><g stroke-linecap="round" transform="translate(211.7928753117959 43.53846153846155) rotate(0 168.46153846153834 151.53846153846155)"><path d="M32 0 C134.67 0.69, 236.04 -1.39, 304.92 0 C323.82 -0.62, 340.43 11.01, 336.92 32 C340 126.92, 336.21 221.89, 336.92 271.08 C338.87 290.69, 327.26 300.57, 304.92 303.08 C212.47 306.36, 121.49 302.83, 32 303.08 C12.75 301.97, -0.64 295.83, 0 271.08 C4.4 205.06, 4.12 139.93, 0 32 C0.8 11.78, 13.14 -1.17, 32 0" stroke="none" stroke-width="0" fill="#ffec99"/><path d="M32 0 C97.81 -0.2, 160.65 2.33, 304.92 0 M304.92 0 C327.44 -0.75, 335.73 10.32, 336.92 32 M336.92 32 C336.26 112.48, 337.7 195.41, 336.92 271.08 M336.92 271.08 C335.17 292.59, 324.3 304.62, 304.92 303.08 M304.92 303.08 C232.03 300.89, 157.9 302.01, 32 303.08 M32 303.08 C10.08 301.51, 0.11 290.89, 0 271.08 M0 271.08 C1.19 187.78, 0.19 104.13, 0 32 M0 32 C-0.4 12.31, 11.93 0.14, 32 0" stroke="#1e1e1e" stroke-width="2.5" fill="none" stroke-dasharray="8 10"/></g><g stroke-linecap="round" transform="translate(297.1677078319143 160.46153846153845) rotate(0 8.461538461538339 34.61538461538461)"><path d="M4.23 0 C5.78 -1.52, 11.17 0.49, 12.69 0 C12.21 -1.29, 19.66 0.43, 16.92 4.23 C15.47 24.21, 20.67 37.73, 16.92 65 C19.47 65.65, 14.4 69.21, 12.69 69.23 C9.83 69.46, 8.98 68.36, 4.23 69.23 C1.06 72.62, -1.83 67.77, 0 65 C1.19 44.83, -3.22 21.81, 0 4.23 C-0.11 -0.25, 2.4 1.21, 4.23 0" stroke="none" stroke-width="0" fill="#1e1e1e"/><path d="M4.23 0 C5.96 0.62, 8.74 -0.23, 12.69 0 M4.23 0 C6.29 -0.32, 8.1 -0.3, 12.69 0 M12.69 0 C16.31 0.44, 15.17 1.59, 16.92 4.23 M12.69 0 C13.27 1.77, 16.26 0.59, 16.92 4.23 M16.92 4.23 C18.57 19.63, 16.77 33.81, 16.92 65 M16.92 4.23 C16.68 23.29, 17.43 40.95, 16.92 65 M16.92 65 C17.66 65.85, 15.11 70.88, 12.69 69.23 M16.92 65 C18.38 67.98, 17.1 68.57, 12.69 69.23 M12.69 69.23 C11.15 68.48, 7.51 69.07, 4.23 69.23 M12.69 69.23 C9.47 69.11, 6.24 69.33, 4.23 69.23 M4.23 69.23 C0.16 69.47, 1.08 66.86, 0 65 M4.23 69.23 C2.05 67.63, 0.8 67.34, 0 65 M0 65 C-0.24 41.44, 1.39 20.82, 0 4.23 M0 65 C-1.43 48.69, -0.13 30.13, 0 4.23 M0 4.23 C0.72 -0.23, 1.86 0.62, 4.23 0 M0 4.23 C1.58 0.66, 1.77 -0.58, 4.23 0" stroke="#1e1e1e" stroke-width="2" fill="none"/></g><g stroke-linecap="round" transform="translate(283.5907847549905 160.76923076923072) rotate(0 20.5 27.5)"><path d="M2.73 2.37 C2.73 2.37, 2.73 2.37, 2.73 2.37 M2.73 2.37 C2.73 2.37, 2.73 2.37, 2.73 2.37 M0.89 16.68 C4.02 12.32, 8.5 7.86, 14.67 0.83 M0.89 16.68 C6.91 10.19, 10.98 5.93, 14.67 0.83 M1.03 28.72 C8.79 19.76, 14.3 15.38, 25.3 0.79 M1.03 28.72 C6.33 22.39, 12.87 16.2, 25.3 0.79 M1.16 40.76 C14.08 26.13, 26.63 12.82, 35.93 0.76 M1.16 40.76 C9.42 31.72, 15.77 22.13, 35.93 0.76 M2.6 51.29 C18.47 36.16, 31.4 17.04, 40.66 7.52 M2.6 51.29 C16.42 34.95, 30.16 19.15, 40.66 7.52 M9.95 55.03 C21.47 42.15, 31.26 30.35, 40.79 19.56 M9.95 55.03 C16.74 46.96, 22.62 39.3, 40.79 19.56 M20.58 54.99 C25.11 49.84, 31.78 41.98, 40.92 31.6 M20.58 54.99 C29.05 45.72, 35.93 37.46, 40.92 31.6 M31.21 54.96 C32.93 50.35, 35.51 49.8, 41.06 43.64 M31.21 54.96 C34.28 50.96, 38.41 46.69, 41.06 43.64" stroke="#e9ecef" stroke-width="1" fill="none"/><path d="M10.25 0 C15.54 -0.88, 17.28 -0.48, 30.75 0 M10.25 0 C16.78 -0.49, 24.63 0.35, 30.75 0 M30.75 0 C35.83 0.18, 39.05 4.96, 41 10.25 M30.75 0 C36.92 -0.82, 39.99 5.04, 41 10.25 M41 10.25 C40.63 16.24, 41.32 23.84, 41 44.75 M41 10.25 C42.04 21.79, 41.44 33.12, 41 44.75 M41 44.75 C40.6 53.23, 38.85 55.14, 30.75 55 M41 44.75 C42.59 50.92, 36.95 56.56, 30.75 55 M30.75 55 C23.51 54.48, 20.93 55.01, 10.25 55 M30.75 55 C23.26 54.96, 13.88 55.02, 10.25 55 M10.25 55 C4.5 54.04, 0.56 50.19, 0 44.75 M10.25 55 C4.22 54.52, 1.35 50.7, 0 44.75 M0 44.75 C1.24 32.5, -0.27 23.38, 0 10.25 M0 44.75 C0.74 34.91, 0.65 25.36, 0 10.25 M0 10.25 C0.45 4.04, 4.79 -0.65, 10.25 0 M0 10.25 C0.36 2.83, 4.06 1.49, 10.25 0" stroke="#1e1e1e" stroke-width="2" fill="none"/></g><g stroke-linecap="round" transform="translate(284.090784754991 198.92307692307696) rotate(180 79.99999999999989 16.15384615384616)"><path d="M2.15 1.87 C2.15 1.87, 2.15 1.87, 2.15 1.87 M2.15 1.87 C2.15 1.87, 2.15 1.87, 2.15 1.87 M0.31 16.17 C3.68 12.34, 8.34 8.16, 14.09 0.32 M0.31 16.17 C4.32 12.32, 8.16 6.47, 14.09 0.32 M0.45 28.21 C9.95 19.29, 16.07 8.57, 24.72 0.29 M0.45 28.21 C8.12 20.54, 15.75 12.21, 24.72 0.29 M7.8 31.95 C14.6 25.59, 20.53 15.96, 35.35 0.26 M7.8 31.95 C16.3 20.4, 27.33 10.26, 35.35 0.26 M18.43 31.92 C24.97 22.74, 34.4 14.22, 45.33 0.98 M18.43 31.92 C23.92 24.96, 29.81 19.46, 45.33 0.98 M29.06 31.88 C36.26 23.2, 39.49 19.65, 55.96 0.94 M29.06 31.88 C37.28 21.63, 45.69 12.28, 55.96 0.94 M39.03 32.61 C47.64 22.57, 56.04 15.12, 66.59 0.91 M39.03 32.61 C44.27 26.41, 50.27 19.04, 66.59 0.91 M49.66 32.57 C54.22 27.4, 63.42 19.73, 77.22 0.87 M49.66 32.57 C56.27 25.19, 62.28 19.14, 77.22 0.87 M60.29 32.54 C68.42 19.65, 78.73 8.49, 87.85 0.84 M60.29 32.54 C69.1 21.37, 79.08 9.2, 87.85 0.84 M70.92 32.5 C82.11 20.89, 90.71 9.4, 98.48 0.8 M70.92 32.5 C77.75 26.26, 83.43 19.75, 98.48 0.8 M81.55 32.47 C91.75 23.65, 99.16 12.23, 109.11 0.77 M81.55 32.47 C91.4 21.94, 101.07 9.63, 109.11 0.77 M92.18 32.43 C101.72 24.29, 111.09 10.48, 119.74 0.73 M92.18 32.43 C99.8 22.96, 109.05 12.36, 119.74 0.73 M102.81 32.4 C112.32 21.25, 119.33 13.02, 130.37 0.7 M102.81 32.4 C113.72 20.98, 123.49 9.76, 130.37 0.7 M113.44 32.36 C120.84 24.5, 123.48 17.97, 141 0.67 M113.44 32.36 C122.89 21.84, 131.55 12.46, 141 0.67 M124.07 32.33 C128.6 27.35, 134.49 21.15, 151.63 0.63 M124.07 32.33 C132.71 23.09, 139.91 16.08, 151.63 0.63 M134.7 32.29 C139.92 23.49, 149.56 15.41, 158.98 4.37 M134.7 32.29 C142.84 22.84, 151.67 13.07, 158.98 4.37 M144.68 33.01 C152.08 24.7, 156.68 17.61, 159.77 15.66 M144.68 33.01 C147.48 29.73, 151.18 26.13, 159.77 15.66 M156.62 31.47 C157.59 30.29, 158.3 28.85, 159.9 27.7 M156.62 31.47 C157.56 30.61, 158.52 29.32, 159.9 27.7" stroke="#e9ecef" stroke-width="1" fill="none"/><path d="M8.08 0 C59.18 0.2, 113.49 0.65, 151.92 0 M8.08 0 C42.08 1.12, 74.4 0.99, 151.92 0 M151.92 0 C155.35 1.54, 159.42 1.98, 160 8.08 M151.92 0 C156.3 1.62, 158.14 4.1, 160 8.08 M160 8.08 C160.04 11.55, 160.69 17.83, 160 24.23 M160 8.08 C160.45 12.95, 160 20.08, 160 24.23 M160 24.23 C161.27 29.76, 158.69 31.73, 151.92 32.31 M160 24.23 C159.37 31.18, 157.01 34.37, 151.92 32.31 M151.92 32.31 C123.25 32.25, 92.6 32.71, 8.08 32.31 M151.92 32.31 C114.96 32.5, 79.79 31.9, 8.08 32.31 M8.08 32.31 C3.25 30.92, 0.7 29.2, 0 24.23 M8.08 32.31 C4.04 31.43, 0.86 29.07, 0 24.23 M0 24.23 C-0.38 22.35, -0.59 16.03, 0 8.08 M0 24.23 C0.22 17.36, 0.11 12.06, 0 8.08 M0 8.08 C1.37 2.04, 3.01 -0.51, 8.08 0 M0 8.08 C0.64 4.19, 3.61 -1.85, 8.08 0" stroke="#1e1e1e" stroke-width="2" fill="none"/></g><g stroke-linecap="round" transform="translate(417.1677078319143 231.23076923076923) rotate(0 11.153846153846189 37.30769230769229)"><path d="M1.48 1.29 C1.48 1.29, 1.48 1.29, 1.48 1.29 M1.48 1.29 C1.48 1.29, 1.48 1.29, 1.48 1.29 M0.31 14.84 C5.34 10.15, 7.93 7.97, 12.77 0.5 M0.31 14.84 C2.78 11.32, 6.71 8.77, 12.77 0.5 M0.44 26.88 C3.35 21.66, 8.89 15.94, 21.43 2.73 M0.44 26.88 C7.98 19.48, 13.7 11, 21.43 2.73 M0.57 38.92 C5.79 31.47, 14.93 24.5, 22.22 14.02 M0.57 38.92 C8.09 31.64, 13.44 24.76, 22.22 14.02 M0.7 50.96 C10.44 41.01, 15.74 31.59, 22.35 26.06 M0.7 50.96 C5.66 45.85, 9.38 41.12, 22.35 26.06 M0.84 63 C3.81 59.43, 10.76 53.05, 22.49 38.1 M0.84 63 C6.09 56.72, 11.97 49.78, 22.49 38.1 M2.28 73.54 C10.73 65.88, 14.05 59.18, 22.62 50.14 M2.28 73.54 C7.46 67.07, 12.06 60.67, 22.62 50.14 M11.6 75.01 C14.99 73.23, 14.97 68.77, 22.75 62.18 M11.6 75.01 C14.98 71.86, 18.7 66.83, 22.75 62.18" stroke="#e9ecef" stroke-width="1" fill="none"/><path d="M5.58 0 C8.96 0.08, 10.69 -0.5, 16.73 0 M5.58 0 C7.74 0.03, 10.33 0.41, 16.73 0 M16.73 0 C19.87 -0.71, 21.43 3.27, 22.31 5.58 M16.73 0 C18.59 1.41, 22.11 1.19, 22.31 5.58 M22.31 5.58 C23.26 20.08, 23.36 35.67, 22.31 69.04 M22.31 5.58 C22.34 22.99, 23.18 38.83, 22.31 69.04 M22.31 69.04 C23.69 72.18, 19.9 75.98, 16.73 74.62 M22.31 69.04 C22.01 74.82, 18.45 73.06, 16.73 74.62 M16.73 74.62 C14.65 74.99, 9.89 75.34, 5.58 74.62 M16.73 74.62 C13.63 74.36, 10.08 74.24, 5.58 74.62 M5.58 74.62 C2.56 74.2, 1.17 71.99, 0 69.04 M5.58 74.62 C2.72 74.07, -2.04 74.09, 0 69.04 M0 69.04 C-0.51 50.25, 1.8 35.76, 0 5.58 M0 69.04 C0 53.84, 0.46 37.69, 0 5.58 M0 5.58 C0.31 1.35, 2.42 1.3, 5.58 0 M0 5.58 C0.92 0.01, -0.35 2.1, 5.58 0" stroke="#1e1e1e" stroke-width="2" fill="none"/></g><g stroke-linecap="round" transform="translate(-12.80193587095971 153.71108330213104) rotate(297.29957221133293 79.99999999999989 23.076923076923066)"><path d="M11.54 0 C48.92 -1, 87.71 0.72, 148.46 0 M148.46 0 C156.59 -1.75, 160.18 1.89, 160 11.54 M160 11.54 C159.06 21.65, 158.31 30.17, 160 34.62 M160 34.62 C159.83 41.72, 154.59 46.26, 148.46 46.15 M148.46 46.15 C118.83 48.39, 86.39 47.19, 11.54 46.15 M11.54 46.15 C1.87 45.75, 1.65 43.57, 0 34.62 M0 34.62 C-0.71 28.89, -0.42 22.24, 0 11.54 M0 11.54 C-1.74 2.49, 3.5 1.95, 11.54 0" stroke="#1e1e1e" stroke-width="2.5" fill="none" stroke-dasharray="8 10"/></g></svg>