<svg version="1.1" xmlns="http://www.w3.org/2000/svg" viewBox="0 0 371.35282829949506 176.225341654987" width="371.35282829949506" height="176.225341654987">
  <!-- svg-source:excalidraw -->
  
  <defs>
    <style class="style-fonts">
      @font-face {
        font-family: "Virgil";
        src: url("https://excalidraw.com/Virgil.woff2");
      }
      @font-face {
        font-family: "Cascadia";
        src: url("https://excalidraw.com/Cascadia.woff2");
      }
      @font-face {
        font-family: "Assistant";
        src: url("https://excalidraw.com/Assistant-Regular.woff2");
      }
    </style>
    
  </defs>
  <rect x="0" y="0" width="371.35282829949506" height="176.225341654987" fill="#ffffff"></rect><g stroke-linecap="round" transform="translate(266.2042821815594 78.29070703158413) rotate(343.6321543940136 8.927763427557238 7.8246878592062785)"><path d="M0.98 4.82 C0.98 4.82, 0.98 4.82, 0.98 4.82 M0.98 4.82 C0.98 4.82, 0.98 4.82, 0.98 4.82 M0.72 11.22 C3.77 7.78, 7.96 2.44, 9.9 0.66 M0.72 11.22 C2.59 9.24, 4.29 6.82, 9.9 0.66 M3.74 13.85 C6.43 11, 9.32 7.49, 13.58 2.53 M3.74 13.85 C7.23 10, 10.41 6.41, 13.58 2.53 M8.07 14.96 C11.08 12.58, 12.54 8.73, 16.59 5.15 M8.07 14.96 C10.83 11.71, 13.43 8.87, 16.59 5.15 M13.71 14.57 C14.35 14.02, 14.78 13.26, 15.68 12.3 M13.71 14.57 C14.11 14.09, 14.6 13.6, 15.68 12.3" stroke="#a5d8ff" stroke-width="0.5" fill="none"></path><path d="M10.36 0.14 C12.09 0.35, 13.97 1.65, 15.25 2.96 C16.54 4.26, 18.04 6.33, 18.07 7.96 C18.09 9.59, 16.62 11.51, 15.38 12.73 C14.15 13.95, 12.45 15.02, 10.64 15.28 C8.83 15.54, 6.2 15.01, 4.52 14.28 C2.85 13.56, 1.22 12.5, 0.62 10.94 C0.02 9.37, 0.23 6.62, 0.91 4.9 C1.59 3.19, 3 1.37, 4.72 0.66 C6.44 -0.06, 10.08 0.61, 11.21 0.59 C12.34 0.57, 11.57 0.46, 11.5 0.53 M7.1 -0.06 C8.9 -0.51, 12.05 0, 13.69 0.87 C15.32 1.75, 16.4 3.68, 16.89 5.17 C17.38 6.67, 17.29 8.26, 16.63 9.86 C15.98 11.47, 14.43 13.77, 12.97 14.82 C11.51 15.87, 9.77 16.49, 7.89 16.16 C6.01 15.83, 3.09 14.19, 1.69 12.85 C0.3 11.51, -0.43 9.83, -0.49 8.14 C-0.54 6.44, -0.04 3.93, 1.39 2.67 C2.83 1.42, 7.19 1.06, 8.13 0.61 C9.07 0.17, 7.22 0.01, 7.04 -0.02" stroke="#1971c2" stroke-width="1" fill="none"></path></g><g stroke-linecap="round" transform="translate(215.98256593222118 111.46597906103398) rotate(343.6321543940136 72.36175728382136 12.701797821096307)"><path d="M6.35 0 C57.25 -1.08, 107.78 -0.67, 138.37 0 M6.35 0 C35.17 -1.5, 62.92 -0.5, 138.37 0 M138.37 0 C141.68 -0.23, 143.22 2.25, 144.72 6.35 M138.37 0 C144.09 1.91, 143.08 3.83, 144.72 6.35 M144.72 6.35 C144.26 8.96, 144.64 11.75, 144.72 19.05 M144.72 6.35 C144.48 9.14, 144.97 12.07, 144.72 19.05 M144.72 19.05 C143.56 23.29, 140.81 23.64, 138.37 25.4 M144.72 19.05 C143.52 23.92, 144.26 27.34, 138.37 25.4 M138.37 25.4 C106.25 22.64, 72.04 26.46, 6.35 25.4 M138.37 25.4 C89.26 24.27, 41.48 25.15, 6.35 25.4 M6.35 25.4 C2.04 24.79, -1.1 23.27, 0 19.05 M6.35 25.4 C2.89 25.13, 1.85 23.7, 0 19.05 M0 19.05 C-0.7 16.81, 1.25 11.46, 0 6.35 M0 19.05 C-0.69 15.44, 0.07 13.36, 0 6.35 M0 6.35 C0.11 3.17, 1.27 -0.46, 6.35 0 M0 6.35 C0.1 0.16, -0.18 -1.06, 6.35 0" stroke="#1e1e1e" stroke-width="2" fill="none"></path></g><g stroke-linecap="round" transform="translate(236.27738669057794 136.6629164231822) rotate(343.6321543940136 14.781212615902405 14.781212615902405)"><path d="M15.3 0.25 C18.31 0.08, 21.69 1.62, 24.05 3.63 C26.4 5.64, 28.87 9.22, 29.42 12.29 C29.97 15.36, 29.01 19.26, 27.37 22.06 C25.73 24.86, 22.5 28.07, 19.58 29.1 C16.66 30.12, 12.75 29.48, 9.85 28.21 C6.96 26.93, 3.77 24.1, 2.2 21.45 C0.63 18.79, -0.08 15.31, 0.44 12.28 C0.95 9.24, 2.79 5.28, 5.32 3.24 C7.85 1.21, 13.85 0.52, 15.61 0.06 C17.36 -0.41, 15.83 0.23, 15.85 0.44 M13.47 0.03 C16.3 -0.42, 20.37 0.33, 22.92 2.25 C25.47 4.17, 27.83 8.26, 28.77 11.56 C29.7 14.86, 29.95 19.23, 28.54 22.03 C27.12 24.83, 23.36 27.15, 20.28 28.36 C17.2 29.57, 13.17 30.21, 10.07 29.29 C6.98 28.36, 3.27 25.43, 1.72 22.82 C0.18 20.2, 0.4 16.76, 0.81 13.58 C1.23 10.41, 2.13 6.09, 4.22 3.75 C6.32 1.41, 11.77 0.1, 13.38 -0.44 C14.99 -0.98, 13.78 0.23, 13.87 0.51" stroke="#2f9e44" stroke-width="2" fill="none"></path></g><g stroke-linecap="round" transform="translate(284.26523390261946 122.33864986743038) rotate(343.6321543940136 14.781212615902405 14.781212615902405)"><path d="M16.16 0.09 C19.14 0.2, 23.43 2.24, 25.65 4.5 C27.88 6.77, 29.33 10.42, 29.49 13.68 C29.64 16.94, 28.42 21.51, 26.59 24.04 C24.75 26.56, 21.51 28.26, 18.48 28.84 C15.44 29.41, 11.26 28.8, 8.4 27.48 C5.54 26.15, 2.63 23.72, 1.31 20.88 C-0.01 18.03, -0.44 13.48, 0.46 10.4 C1.36 7.31, 4.03 4.08, 6.72 2.39 C9.41 0.7, 14.82 0.58, 16.59 0.23 C18.37 -0.12, 17.38 0.03, 17.39 0.29 M13.18 -0.63 C16.17 -0.98, 20.4 0.99, 23.16 3.09 C25.91 5.18, 28.94 8.89, 29.69 11.93 C30.44 14.98, 29.23 18.58, 27.65 21.37 C26.07 24.15, 23.18 27.42, 20.22 28.67 C17.26 29.91, 12.73 29.73, 9.89 28.86 C7.06 27.99, 4.89 26.13, 3.19 23.47 C1.49 20.8, -0.46 16.15, -0.31 12.85 C-0.17 9.54, 1.71 5.72, 4.06 3.62 C6.41 1.51, 12.17 0.81, 13.8 0.22 C15.43 -0.36, 13.88 -0.12, 13.84 0.1" stroke="#2f9e44" stroke-width="2" fill="none"></path></g><g stroke-linecap="round" transform="translate(327.42803073581626 110.8495165512868) rotate(343.6321543940136 14.781212615902405 14.781212615902405)"><path d="M16.66 -0.11 C19.74 0.02, 23.42 1.95, 25.57 4.36 C27.72 6.78, 29.34 11.21, 29.58 14.38 C29.81 17.55, 28.83 20.97, 26.97 23.36 C25.11 25.75, 21.56 27.92, 18.43 28.74 C15.3 29.56, 11.09 29.67, 8.18 28.29 C5.27 26.92, 2.22 23.47, 0.96 20.49 C-0.31 17.52, -0.3 13.45, 0.61 10.44 C1.52 7.43, 3.59 4.16, 6.43 2.43 C9.28 0.7, 15.73 0.3, 17.68 0.04 C19.62 -0.21, 18.22 0.67, 18.13 0.89 M14.39 0.21 C17.6 0.23, 22.39 2.09, 24.82 4.09 C27.25 6.09, 28.58 9.16, 28.96 12.23 C29.34 15.3, 28.74 19.79, 27.1 22.51 C25.46 25.23, 21.9 27.46, 19.12 28.57 C16.35 29.68, 13.37 30.29, 10.45 29.17 C7.52 28.06, 3.37 24.78, 1.58 21.88 C-0.21 18.98, -0.91 14.79, -0.3 11.75 C0.31 8.72, 2.72 5.65, 5.23 3.65 C7.74 1.66, 13.23 0.33, 14.75 -0.23 C16.27 -0.79, 14.32 0.02, 14.37 0.29" stroke="#2f9e44" stroke-width="2" fill="none"></path></g><g stroke-linecap="round" transform="translate(227.14876649202574 63.41080856921462) rotate(343.6321543940136 9.265834774147606 29.562425231805037)"><path d="M4.63 0 C7.01 -0.1, 11.18 -0.47, 13.9 0 M4.63 0 C7.6 0.38, 9.65 0.34, 13.9 0 M13.9 0 C15.17 0.62, 19.99 0.75, 18.53 4.63 M13.9 0 C16.9 -0.22, 18.67 -0.03, 18.53 4.63 M18.53 4.63 C18.25 21.04, 18.22 34.87, 18.53 54.49 M18.53 4.63 C17.56 19.86, 18.8 35.39, 18.53 54.49 M18.53 54.49 C17.54 57.62, 15.69 60.03, 13.9 59.12 M18.53 54.49 C16.33 57.27, 19.19 60.66, 13.9 59.12 M13.9 59.12 C11.05 59, 9.57 59.02, 4.63 59.12 M13.9 59.12 C11.56 59.07, 9.28 59.21, 4.63 59.12 M4.63 59.12 C0.81 57.93, 1.22 56.36, 0 54.49 M4.63 59.12 C3.54 61.24, -1.63 56.11, 0 54.49 M0 54.49 C-2.07 35.76, 0.83 15.98, 0 4.63 M0 54.49 C0.25 36.06, -0.79 18.88, 0 4.63 M0 4.63 C1.47 0.34, 2.83 0.76, 4.63 0 M0 4.63 C-0.89 3.76, 2.46 0.17, 4.63 0" stroke="#1e1e1e" stroke-width="2" fill="none"></path></g><g stroke-linecap="round" transform="translate(259.3695975989624 33.76097562929817) rotate(268.6321543940136 5.87209949667465 38.723821783611356)"><path d="M2.94 0 C5.01 -0.13, 7.02 -0.22, 8.81 0 M2.94 0 C4.63 0.08, 6.4 0.02, 8.81 0 M8.81 0 C11.49 -0.4, 11.71 0.88, 11.74 2.94 M8.81 0 C10.84 -0.79, 11.92 1.43, 11.74 2.94 M11.74 2.94 C11.41 20.88, 11.66 39.08, 11.74 74.51 M11.74 2.94 C11.92 18.51, 11.31 33.25, 11.74 74.51 M11.74 74.51 C11.1 76.92, 9.81 77.31, 8.81 77.45 M11.74 74.51 C12.84 77.24, 10.15 77, 8.81 77.45 M8.81 77.45 C7.53 77.43, 6.02 77.28, 2.94 77.45 M8.81 77.45 C7.17 77.47, 5.24 77.36, 2.94 77.45 M2.94 77.45 C1.59 76.84, 0.87 77.39, 0 74.51 M2.94 77.45 C0.17 76.71, 1 76.78, 0 74.51 M0 74.51 C0.83 59.6, 0.87 44.16, 0 2.94 M0 74.51 C-0.52 54.45, 0.35 34.55, 0 2.94 M0 2.94 C0.64 1.36, 0.59 0.96, 2.94 0 M0 2.94 C0.46 1.06, 0.96 0.82, 2.94 0" stroke="#1e1e1e" stroke-width="2" fill="none"></path></g><g transform="translate(259.09179538278227 17.056942043087474) rotate(0 36.33333206176758 10)"><text x="0" y="0" font-family="Virgil, Segoe UI Emoji" font-size="16px" fill="#e03131" text-anchor="start" style="white-space: pre;" direction="ltr" dominant-baseline="text-before-edge">Incorrect</text></g><g transform="translate(44.94268170284545 10) rotate(0 29.375 10)"><text x="0" y="0" font-family="Virgil, Segoe UI Emoji" font-size="16px" fill="#2f9e44" text-anchor="start" style="white-space: pre;" direction="ltr" dominant-baseline="text-before-edge">Correct</text></g><g stroke-linecap="round" transform="translate(70.80318134055369 76.57800899302083) rotate(358.6321543940135 8.927763427557238 7.8246878592062785)"><path d="M3.06 2.66 C3.06 2.66, 3.06 2.66, 3.06 2.66 M3.06 2.66 C3.06 2.66, 3.06 2.66, 3.06 2.66 M1.49 10.57 C3.36 7.45, 6.13 4.2, 10.02 0.76 M1.49 10.57 C4.05 8.2, 6.27 5.25, 10.02 0.76 M3.85 13.95 C6.82 10.45, 10.39 6.77, 14.35 1.87 M3.85 13.95 C7.78 9.95, 11.28 5, 14.35 1.87 M7.53 15.82 C9.76 13.34, 13.55 9.5, 17.37 4.5 M7.53 15.82 C11.23 12.03, 14.55 8, 17.37 4.5 M13.17 15.42 C14.75 13.35, 16.13 11.39, 17.76 10.14 M13.17 15.42 C14.57 13.9, 15.77 12.46, 17.76 10.14" stroke="#a5d8ff" stroke-width="0.5" fill="none"></path><path d="M8.13 0.33 C9.97 0.1, 12.71 0.67, 14.37 1.51 C16.02 2.35, 17.67 3.72, 18.06 5.36 C18.46 7, 17.62 9.78, 16.73 11.35 C15.83 12.93, 14.45 14.06, 12.69 14.79 C10.93 15.52, 8.03 16.08, 6.16 15.71 C4.3 15.35, 2.52 14.01, 1.49 12.59 C0.45 11.17, -0.28 8.83, -0.03 7.19 C0.22 5.54, 1.64 4, 3.01 2.73 C4.37 1.46, 7.29 -0.1, 8.17 -0.44 C9.06 -0.79, 8.29 0.38, 8.31 0.66 M7.04 0.75 C8.69 0.27, 10.96 -0.15, 12.73 0.5 C14.49 1.14, 16.72 3.01, 17.61 4.61 C18.49 6.22, 18.74 8.52, 18.01 10.11 C17.29 11.7, 14.86 13.25, 13.27 14.16 C11.67 15.08, 10.19 15.78, 8.45 15.6 C6.71 15.42, 4.19 14.24, 2.81 13.08 C1.44 11.91, 0.41 10.32, 0.21 8.62 C0.01 6.93, 0.42 4.27, 1.6 2.89 C2.77 1.52, 6.45 0.77, 7.25 0.36 C8.05 -0.05, 6.41 0.43, 6.38 0.45" stroke="#1971c2" stroke-width="1" fill="none"></path></g><g stroke-linecap="round" transform="translate(10.282586478044777 111.87626662223693) rotate(358.6321543940135 72.36175728382136 12.701797821096307)"><path d="M6.35 0 C42.29 0.71, 77.36 1.63, 138.37 0 M6.35 0 C52.2 -1.85, 100.37 -1.24, 138.37 0 M138.37 0 C142.02 -1.6, 146.1 1.73, 144.72 6.35 M138.37 0 C144.06 -0.31, 145.15 3.73, 144.72 6.35 M144.72 6.35 C143.49 12.63, 144 17.46, 144.72 19.05 M144.72 6.35 C144.81 9.51, 144.5 11.41, 144.72 19.05 M144.72 19.05 C145.89 22.75, 144.11 25.26, 138.37 25.4 M144.72 19.05 C143.26 22.52, 144.65 25.46, 138.37 25.4 M138.37 25.4 C91.91 25.13, 42.61 26.49, 6.35 25.4 M138.37 25.4 C95.6 24.96, 53.92 25.5, 6.35 25.4 M6.35 25.4 C3.12 25.91, -1.12 22.74, 0 19.05 M6.35 25.4 C0.76 27.53, -1.57 23.37, 0 19.05 M0 19.05 C-1.04 14.25, 1.24 8.31, 0 6.35 M0 19.05 C-0.49 16.28, -0.25 13.88, 0 6.35 M0 6.35 C1.58 3.65, 3.35 -0.51, 6.35 0 M0 6.35 C0.1 1.71, -0.09 -0.69, 6.35 0" stroke="#1e1e1e" stroke-width="2" fill="none"></path></g><g stroke-linecap="round" transform="translate(24.78824805069121 126.49352936455898) rotate(358.6321543940135 14.781212615902405 14.781212615902405)"><path d="M17.49 -0.33 C20.4 -0.04, 23.58 2.75, 25.6 5.18 C27.62 7.61, 29.54 11.08, 29.6 14.27 C29.65 17.46, 27.93 21.79, 25.93 24.34 C23.94 26.9, 20.66 29, 17.61 29.59 C14.56 30.17, 10.35 29.34, 7.64 27.85 C4.93 26.36, 2.57 23.69, 1.37 20.65 C0.17 17.61, -0.41 12.61, 0.46 9.62 C1.34 6.62, 3.82 4.15, 6.62 2.66 C9.43 1.18, 15.46 0.99, 17.28 0.68 C19.11 0.38, 17.6 0.64, 17.58 0.81 M17.95 0.05 C21.09 0.48, 24.92 2.91, 26.78 5.35 C28.63 7.79, 29.1 11.52, 29.09 14.7 C29.07 17.88, 28.57 21.99, 26.66 24.43 C24.75 26.87, 20.84 28.74, 17.64 29.32 C14.44 29.91, 10.29 29.58, 7.45 27.94 C4.61 26.3, 1.64 22.53, 0.6 19.5 C-0.44 16.46, 0.17 12.66, 1.22 9.74 C2.27 6.82, 4.21 3.66, 6.9 2 C9.59 0.34, 15.53 0.04, 17.38 -0.22 C19.24 -0.47, 17.99 0.13, 18.03 0.48" stroke="#2f9e44" stroke-width="2" fill="none"></path></g><g stroke-linecap="round" transform="translate(74.84834201256967 125.07751914765595) rotate(358.6321543940135 14.781212615902405 14.781212615902405)"><path d="M15 0.19 C17.94 0.15, 22.35 1.49, 24.69 3.63 C27.02 5.77, 28.59 9.83, 29.01 13.04 C29.44 16.25, 28.85 20.26, 27.24 22.9 C25.62 25.55, 22.24 27.91, 19.31 28.92 C16.37 29.93, 12.6 30.24, 9.62 28.97 C6.64 27.7, 3.06 24.08, 1.44 21.29 C-0.19 18.5, -0.8 15.19, -0.14 12.23 C0.52 9.28, 2.75 5.58, 5.4 3.58 C8.05 1.57, 13.84 0.73, 15.76 0.22 C17.69 -0.29, 16.84 0.33, 16.95 0.52 M13.49 0.06 C16.29 -0.51, 19.63 0.38, 22.31 2.1 C24.99 3.83, 28.47 7.36, 29.56 10.42 C30.66 13.48, 30.17 17.47, 28.87 20.46 C27.56 23.45, 24.68 26.94, 21.75 28.36 C18.81 29.79, 14.35 29.76, 11.28 29.01 C8.2 28.27, 5.27 26.37, 3.29 23.89 C1.3 21.42, -0.71 17.44, -0.62 14.17 C-0.53 10.9, 1.45 6.62, 3.8 4.27 C6.15 1.92, 11.9 0.66, 13.49 0.05 C15.08 -0.56, 13.47 0.38, 13.33 0.6" stroke="#2f9e44" stroke-width="2" fill="none"></path></g><g stroke-linecap="round" transform="translate(123.38036924242442 124.3600300174121) rotate(358.6321543940135 14.781212615902405 14.781212615902405)"><path d="M11.22 0.3 C14.07 -0.59, 18.01 0.37, 20.84 1.83 C23.67 3.29, 26.83 6.21, 28.18 9.06 C29.53 11.91, 29.72 15.85, 28.93 18.92 C28.13 22, 26.08 25.81, 23.42 27.5 C20.75 29.18, 16.24 29.35, 12.95 29.03 C9.67 28.71, 5.9 27.69, 3.71 25.56 C1.52 23.44, 0.01 19.48, -0.22 16.26 C-0.44 13.04, 0.34 8.93, 2.37 6.26 C4.4 3.6, 10.14 1.29, 11.98 0.28 C13.83 -0.73, 13.44 -0.1, 13.46 0.19 M13.32 -0.22 C16.32 -0.59, 21.46 0.96, 24.17 2.87 C26.88 4.77, 28.91 8.06, 29.59 11.2 C30.27 14.35, 29.76 18.92, 28.25 21.74 C26.74 24.56, 23.4 26.88, 20.52 28.12 C17.63 29.35, 14.05 29.98, 10.94 29.15 C7.83 28.31, 3.7 25.85, 1.87 23.12 C0.04 20.38, -0.58 15.9, -0.04 12.72 C0.5 9.54, 2.74 6.14, 5.11 4.05 C7.48 1.97, 12.79 0.88, 14.17 0.22 C15.55 -0.43, 13.51 -0.21, 13.39 0.12" stroke="#2f9e44" stroke-width="2" fill="none"></path></g><g stroke-linecap="round" transform="translate(31.291991256992105 51.443623362692506) rotate(358.6321543940135 9.265834774147606 29.562425231805037)"><path d="M4.63 0 C7.04 0.42, 10.51 -0.18, 13.9 0 M4.63 0 C6.96 -0.05, 8.8 0.34, 13.9 0 M13.9 0 C18.88 -1.24, 16.72 -0.28, 18.53 4.63 M13.9 0 C19.28 -1.17, 20.49 -0.48, 18.53 4.63 M18.53 4.63 C19.89 20.29, 17.39 38.76, 18.53 54.49 M18.53 4.63 C18.27 17.92, 19.79 31.9, 18.53 54.49 M18.53 54.49 C19.75 57.46, 17.53 60.3, 13.9 59.12 M18.53 54.49 C17.8 57.02, 17.83 59.65, 13.9 59.12 M13.9 59.12 C11.32 59.81, 9.83 59.57, 4.63 59.12 M13.9 59.12 C10.61 59.53, 7.56 59.12, 4.63 59.12 M4.63 59.12 C3.09 57.62, -0.6 55.79, 0 54.49 M4.63 59.12 C1.52 61.19, -2.1 55.33, 0 54.49 M0 54.49 C-0.34 40.35, 0.2 29.64, 0 4.63 M0 54.49 C-0.26 35.53, -1.27 16.63, 0 4.63 M0 4.63 C0.32 1.89, 1.84 1.08, 4.63 0 M0 4.63 C-0.97 3.75, 2.63 1.89, 4.63 0" stroke="#1e1e1e" stroke-width="2" fill="none"></path></g><g stroke-linecap="round" transform="translate(67.83336043466875 29.95291837899049) rotate(283.6321543940135 5.87209949667465 38.723821783611356)"><path d="M2.94 0 C4.14 -0.1, 5.07 0.19, 8.81 0 M2.94 0 C4.61 0.11, 6.37 -0.09, 8.81 0 M8.81 0 C9.86 -0.91, 12.74 0.47, 11.74 2.94 M8.81 0 C11.74 -1.01, 12.09 0.68, 11.74 2.94 M11.74 2.94 C11.51 25.55, 11.74 47.75, 11.74 74.51 M11.74 2.94 C11.96 23.9, 11.82 44.81, 11.74 74.51 M11.74 74.51 C12.01 77.06, 10.45 77.2, 8.81 77.45 M11.74 74.51 C12.16 76.73, 9.79 77.61, 8.81 77.45 M8.81 77.45 C7.12 77.62, 5.56 77.31, 2.94 77.45 M8.81 77.45 C7.11 77.48, 5.72 77.36, 2.94 77.45 M2.94 77.45 C0.68 76.55, -0.01 77.37, 0 74.51 M2.94 77.45 C-0.07 76.32, -0.4 75.74, 0 74.51 M0 74.51 C0.06 59.84, 0.88 44.21, 0 2.94 M0 74.51 C-0.49 54.72, 0.06 35.32, 0 2.94 M0 2.94 C0.15 1.52, 0.56 0.96, 2.94 0 M0 2.94 C0.54 1.92, 0.89 -0.99, 2.94 0" stroke="#1e1e1e" stroke-width="2" fill="none"></path></g></svg>