<svg version="1.1" xmlns="http://www.w3.org/2000/svg" viewBox="0 0 427 344" width="427" height="344" class="excalidraw-svg">
  <!-- svg-source:excalidraw -->
  
  <defs>
    <style class="style-fonts">
      @font-face {
        font-family: "Virgil";
        src: url("https://excalidraw.com/Virgil.woff2");
      }
      @font-face {
        font-family: "Cascadia";
        src: url("https://excalidraw.com/Cascadia.woff2");
      }
      @font-face {
        font-family: "Assistant";
        src: url("https://excalidraw.com/Assistant-Regular.woff2");
      }
    </style>
    
  </defs>
  <rect x="0" y="0" width="427" height="344" fill="#ffffff"/><g stroke-linecap="round" transform="translate(52.333333333333485 281.1666666666667) rotate(0 54.66666666666663 25.00000000000003)"><path d="M3.33 2.89 C3.33 2.89, 3.33 2.89, 3.33 2.89 M3.33 2.89 C3.33 2.89, 3.33 2.89, 3.33 2.89 M0.84 17.95 C2.42 12.58, 5.87 11.12, 15.93 0.59 M0.84 17.95 C4.94 13.23, 10.07 7.2, 15.93 0.59 M0.97 29.99 C8.71 20.27, 14.75 11.1, 26.56 0.56 M0.97 29.99 C10.08 18.96, 19.04 8.34, 26.56 0.56 M1.1 42.03 C9.18 29.77, 20.13 19.47, 37.19 0.52 M1.1 42.03 C7.59 32.75, 15.08 25.07, 37.19 0.52 M5.83 48.79 C17.25 34.32, 29.64 19.06, 47.82 0.49 M5.83 48.79 C15.22 37.69, 24.09 28.23, 47.82 0.49 M15.15 50.27 C30.56 30.02, 45.72 11.14, 58.45 0.46 M15.15 50.27 C28.67 34.09, 44.44 18.4, 58.45 0.46 M25.78 50.23 C41.36 29.34, 58.51 13.09, 69.08 0.42 M25.78 50.23 C38.65 36.15, 48.75 22.13, 69.08 0.42 M36.41 50.2 C49.8 31.18, 66.35 13.05, 79.71 0.39 M36.41 50.2 C47.4 38.63, 56.54 25.54, 79.71 0.39 M47.04 50.16 C57.95 36.16, 68.62 22.96, 90.34 0.35 M47.04 50.16 C60.71 34.02, 76.25 17.2, 90.34 0.35 M57.67 50.13 C72.87 32.19, 84.76 18.56, 100.31 1.07 M57.67 50.13 C70.82 33.21, 85.2 17.58, 100.31 1.07 M68.3 50.09 C78.37 38.71, 91.01 27.16, 107.66 4.81 M68.3 50.09 C76.19 40.56, 85.54 29.85, 107.66 4.81 M78.93 50.06 C86.63 42.39, 94.23 35.53, 109.76 14.59 M78.93 50.06 C90.51 36.58, 100.96 24.4, 109.76 14.59 M89.56 50.03 C95.82 44.02, 100.06 41.34, 109.89 26.63 M89.56 50.03 C96.84 42.1, 104.83 33.55, 109.89 26.63 M100.84 49.24 C103.06 46.8, 106.32 41.39, 109.37 39.42 M100.84 49.24 C104.3 45.6, 106.34 42.29, 109.37 39.42" stroke="#e9ecef" stroke-width="1" fill="none"/><path d="M12.5 0 C35.17 -0.22, 55.35 -0.14, 96.83 0 M12.5 0 C45.64 0.05, 78 0.37, 96.83 0 M96.83 0 C106.15 0.59, 108.66 3.68, 109.33 12.5 M96.83 0 C104.04 1.4, 110.63 2.25, 109.33 12.5 M109.33 12.5 C110.85 18.98, 107.28 25.26, 109.33 37.5 M109.33 12.5 C108.56 17.84, 109.29 23.42, 109.33 37.5 M109.33 37.5 C110.42 44.42, 104.77 49.63, 96.83 50 M109.33 37.5 C107.42 46.75, 103.27 48.38, 96.83 50 M96.83 50 C76.32 52.43, 50.99 50.64, 12.5 50 M96.83 50 C73.72 50.16, 49.35 50.18, 12.5 50 M12.5 50 C5.54 48.74, 1.08 46.69, 0 37.5 M12.5 50 C1.98 47.84, 1.3 46.27, 0 37.5 M0 37.5 C0.41 32.62, -0.09 27.36, 0 12.5 M0 37.5 C0.44 31.21, -1 22.88, 0 12.5 M0 12.5 C1.2 4.49, 6.1 -1.76, 12.5 0 M0 12.5 C0.63 6.34, 2.89 2.11, 12.5 0" stroke="#1e1e1e" stroke-width="2" fill="none"/></g><g stroke-linecap="round" transform="translate(10 10) rotate(0 20.5 162)"><path d="M2.73 2.37 C2.73 2.37, 2.73 2.37, 2.73 2.37 M2.73 2.37 C2.73 2.37, 2.73 2.37, 2.73 2.37 M3.52 13.66 C5.88 10.51, 9.91 7.15, 13.36 2.34 M3.52 13.66 C7.69 8.91, 11.14 5.02, 13.36 2.34 M3.65 25.7 C8.41 17.36, 16.97 10.36, 23.33 3.06 M3.65 25.7 C9.19 18.41, 15.53 10.99, 23.33 3.06 M3.78 37.74 C14.47 25.06, 22.59 13.53, 35.93 0.76 M3.78 37.74 C13.32 26.41, 24.17 15.88, 35.93 0.76 M3.92 49.78 C12.32 38.3, 22.6 26.53, 41.97 6.01 M3.92 49.78 C15.66 36.81, 27.27 23.59, 41.97 6.01 M3.39 62.58 C14.53 46.28, 29.74 33.87, 45.38 14.27 M3.39 62.58 C14.87 51.44, 25.43 39.51, 45.38 14.27 M3.53 74.62 C14.64 63.29, 25.61 48.33, 45.51 26.32 M3.53 74.62 C14.41 59.89, 27.94 47.6, 45.51 26.32 M3.66 86.66 C20.15 66.44, 35.88 49.74, 45.65 38.36 M3.66 86.66 C17.86 68.59, 32.68 52.72, 45.65 38.36 M3.79 98.7 C17.49 81.32, 34.36 65.91, 45.78 50.4 M3.79 98.7 C16.36 85.29, 28.86 69.53, 45.78 50.4 M3.93 110.74 C18.37 93.73, 35.49 75.04, 45.26 63.19 M3.93 110.74 C15.33 97.48, 27.38 84.36, 45.26 63.19 M3.4 123.54 C16.84 111.23, 25.89 94.67, 45.39 75.23 M3.4 123.54 C19.67 104.68, 33.92 88.58, 45.39 75.23 M3.54 135.58 C14.02 126.36, 23.11 114.65, 45.52 87.27 M3.54 135.58 C14.68 122.49, 25.6 108.33, 45.52 87.27 M3.67 147.62 C16.13 136.13, 26.57 121.78, 45.66 99.32 M3.67 147.62 C17.92 132.12, 32.23 114.41, 45.66 99.32 M3.8 159.66 C18.76 140.05, 35.6 124.64, 45.79 111.36 M3.8 159.66 C15.12 145.41, 27 132.28, 45.79 111.36 M3.94 171.7 C18.88 151.73, 36.53 133.92, 45.27 124.15 M3.94 171.7 C15.18 159.75, 25.1 147.4, 45.27 124.15 M3.41 184.49 C12.37 174.86, 20.99 160.7, 45.4 136.19 M3.41 184.49 C15.4 172.28, 24.93 157.81, 45.4 136.19 M3.55 196.53 C11.65 183.74, 20.87 173.26, 45.53 148.23 M3.55 196.53 C17.05 181.42, 29.78 166.25, 45.53 148.23 M3.68 208.58 C17.34 191.52, 31.97 178.48, 45.67 160.27 M3.68 208.58 C13.76 197.4, 25.71 184.78, 45.67 160.27 M3.81 220.62 C13.71 207.35, 23.76 199.47, 45.8 172.32 M3.81 220.62 C19.44 201.06, 35.61 182.33, 45.8 172.32 M3.95 232.66 C14.26 218.01, 29.57 203.89, 45.28 185.11 M3.95 232.66 C16.56 219.94, 26.99 206.67, 45.28 185.11 M3.42 245.45 C17.71 229.72, 28.73 213.7, 45.41 197.15 M3.42 245.45 C13.79 232.38, 25.42 219.01, 45.41 197.15 M3.56 257.49 C14.65 241.87, 27.5 229.48, 45.54 209.19 M3.56 257.49 C16.57 242.96, 28.81 227.42, 45.54 209.19 M3.69 269.53 C15.04 255.24, 27.66 241.18, 45.68 221.23 M3.69 269.53 C12.97 258.79, 23.63 246.45, 45.68 221.23 M3.82 281.58 C13.26 267.95, 25.2 256.23, 45.81 233.27 M3.82 281.58 C14.6 269.41, 25.61 256.72, 45.81 233.27 M3.96 293.62 C14.42 283.06, 24.19 274.13, 45.29 246.07 M3.96 293.62 C14.76 280.86, 26.38 268.75, 45.29 246.07 M3.43 306.41 C14.3 297.32, 20.52 287.77, 45.42 258.11 M3.43 306.41 C21.15 288.52, 36.25 267.75, 45.42 258.11 M4.22 317.7 C17.45 304.55, 25.51 293.4, 45.55 270.15 M4.22 317.7 C12.93 307.3, 21.44 297.38, 45.55 270.15 M8.29 325.21 C19.08 312.94, 27.38 301.79, 45.69 282.19 M8.29 325.21 C21.35 310.67, 32.77 296.4, 45.69 282.19 M18.27 325.93 C23.97 317.35, 30.34 311.79, 45.16 294.99 M18.27 325.93 C25.41 316.63, 34.04 308.85, 45.16 294.99 M28.9 325.9 C33.86 318.35, 40.04 311.76, 45.3 307.03 M28.9 325.9 C33.19 321.79, 35.13 317.76, 45.3 307.03" stroke="#e9ecef" stroke-width="1" fill="none"/><path d="M10.25 0 C17.36 0.28, 26.41 0.39, 30.75 0 M10.25 0 C16.73 0.34, 22.94 0.29, 30.75 0 M30.75 0 C36.91 -0.48, 40.02 4.63, 41 10.25 M30.75 0 C38.88 -1.92, 39.33 2.69, 41 10.25 M41 10.25 C41.32 104.67, 41.52 196.33, 41 313.75 M41 10.25 C39.65 96.5, 39.98 181.97, 41 313.75 M41 313.75 C40.61 320.22, 35.92 324.8, 30.75 324 M41 313.75 C39.1 318.97, 36.79 325.95, 30.75 324 M30.75 324 C22 324.21, 15.03 322.8, 10.25 324 M30.75 324 C25.75 324.91, 21.97 323.52, 10.25 324 M10.25 324 C4.5 324.85, -1.9 318.71, 0 313.75 M10.25 324 C4.71 324.44, -2.19 320.47, 0 313.75 M0 313.75 C-0.51 218.81, -0.63 124.73, 0 10.25 M0 313.75 C-1.95 230.9, -0.92 148.59, 0 10.25 M0 10.25 C1.94 1.66, 3.96 1.89, 10.25 0 M0 10.25 C-1.28 5.52, 4.28 -0.69, 10.25 0" stroke="#1e1e1e" stroke-width="2" fill="none"/></g><g stroke-linecap="round" transform="translate(14 10) rotate(0 201.5 19)"><path d="M0.36 5.61 C0.36 5.61, 0.36 5.61, 0.36 5.61 M0.36 5.61 C0.36 5.61, 0.36 5.61, 0.36 5.61 M0.49 17.65 C3.78 14.84, 8.94 9.54, 15.58 0.3 M0.49 17.65 C5.67 11.86, 11.09 5.65, 15.58 0.3 M0.63 29.69 C8.44 21.03, 13.81 14.44, 26.21 0.26 M0.63 29.69 C7.15 21.28, 14.52 13.47, 26.21 0.26 M5.35 36.45 C10.42 27.63, 19.62 18.42, 36.84 0.23 M5.35 36.45 C12.51 29.49, 18.81 20.31, 36.84 0.23 M14.01 38.68 C23.36 26.34, 35.89 15.01, 47.47 0.19 M14.01 38.68 C21.53 30.45, 27.84 22.21, 47.47 0.19 M24.64 38.65 C32.87 30.92, 38.48 20.82, 58.1 0.16 M24.64 38.65 C35.54 27.43, 44.65 14.31, 58.1 0.16 M35.27 38.61 C41.69 29.64, 48.94 24.24, 68.08 0.88 M35.27 38.61 C44.19 30.37, 52.63 19.61, 68.08 0.88 M45.9 38.58 C53.06 30.17, 63.7 21.51, 78.71 0.84 M45.9 38.58 C57.25 26.05, 69.71 11.98, 78.71 0.84 M56.53 38.54 C66.61 29.46, 74.63 16.25, 89.34 0.81 M56.53 38.54 C69.31 23.1, 82.35 9.94, 89.34 0.81 M67.16 38.51 C75 30.14, 81.06 20.23, 99.97 0.77 M67.16 38.51 C74.41 30.28, 81.79 21.56, 99.97 0.77 M77.79 38.48 C87.16 24.16, 101.72 10.81, 110.6 0.74 M77.79 38.48 C87.55 27.28, 98.12 14.72, 110.6 0.74 M88.42 38.44 C99.6 26.91, 108.08 15.7, 121.23 0.71 M88.42 38.44 C95.13 28.94, 103.23 22.01, 121.23 0.71 M99.05 38.41 C107.86 28.48, 114.88 19.69, 131.86 0.67 M99.05 38.41 C111.95 23.02, 124.66 8.75, 131.86 0.67 M109.68 38.37 C122.92 25.11, 134.29 12.12, 142.49 0.64 M109.68 38.37 C117.35 29.48, 127.04 20.22, 142.49 0.64 M120.31 38.34 C128.31 29.29, 134.47 19.85, 153.12 0.6 M120.31 38.34 C132.3 24.11, 142.54 11.91, 153.12 0.6 M130.94 38.3 C141.49 22.87, 154.86 9.42, 163.75 0.57 M130.94 38.3 C142.71 22.46, 155.57 9.34, 163.75 0.57 M141.57 38.27 C153.04 23.03, 167.48 9.2, 174.38 0.53 M141.57 38.27 C149.78 28.42, 157.67 19.14, 174.38 0.53 M152.2 38.23 C163.19 27.92, 170.2 15.11, 185.01 0.5 M152.2 38.23 C163.94 25.96, 172.98 13.56, 185.01 0.5 M162.83 38.2 C171.07 30.64, 181.2 20.93, 195.64 0.46 M162.83 38.2 C174.56 23.98, 186.3 10.84, 195.64 0.46 M172.81 38.92 C182.92 28.07, 189.04 18.86, 206.27 0.43 M172.81 38.92 C183.9 25.91, 196.54 10.7, 206.27 0.43 M183.44 38.88 C192.82 25.17, 205.6 14.22, 216.9 0.39 M183.44 38.88 C196.06 24.19, 209.91 7.63, 216.9 0.39 M194.07 38.85 C205.49 25.59, 219.46 11.19, 227.53 0.36 M194.07 38.85 C205.33 25, 217.4 11.65, 227.53 0.36 M204.7 38.82 C211.83 29.85, 219.71 21.14, 238.16 0.33 M204.7 38.82 C216.6 25.29, 227.39 13.17, 238.16 0.33 M215.33 38.78 C226.51 26.25, 238.07 10.81, 248.79 0.29 M215.33 38.78 C222.02 30.77, 229.47 22.15, 248.79 0.29 M225.96 38.75 C238.29 28.27, 246.64 14.74, 259.42 0.26 M225.96 38.75 C233.39 31.13, 238.73 22.38, 259.42 0.26 M236.59 38.71 C244.56 29.46, 255.51 16.83, 270.05 0.22 M236.59 38.71 C242.71 29.32, 250.54 21.83, 270.05 0.22 M247.22 38.68 C253.17 31.4, 260.88 22.5, 280.68 0.19 M247.22 38.68 C256.02 28.42, 265.57 18.31, 280.68 0.19 M257.85 38.64 C267.34 26.73, 280.78 14.61, 291.31 0.15 M257.85 38.64 C265.77 28.81, 273.79 20.37, 291.31 0.15 M268.48 38.61 C280.17 25.75, 294.37 8.83, 301.28 0.87 M268.48 38.61 C277.14 30, 285.8 20.01, 301.28 0.87 M279.11 38.57 C285.88 29.73, 291.87 22.88, 311.91 0.84 M279.11 38.57 C290.4 24.43, 303.43 9.59, 311.91 0.84 M289.74 38.54 C299.54 27.83, 310.59 13.74, 322.54 0.8 M289.74 38.54 C299.75 25.88, 310.3 14.47, 322.54 0.8 M300.37 38.51 C311.29 26.01, 320.55 18.87, 333.17 0.77 M300.37 38.51 C309.85 27.15, 320.26 16.19, 333.17 0.77 M311 38.47 C319.95 28.42, 327.44 21.66, 343.8 0.74 M311 38.47 C319.94 29.35, 328.77 18.32, 343.8 0.74 M321.63 38.44 C332.89 25.49, 342.28 11.62, 354.43 0.7 M321.63 38.44 C330.55 28.33, 339.24 17.68, 354.43 0.7 M332.26 38.4 C342.32 23.58, 356.23 13.78, 365.06 0.67 M332.26 38.4 C345.56 24.21, 358.71 8.15, 365.06 0.67 M342.89 38.37 C351.71 28.03, 361.62 14.09, 375.69 0.63 M342.89 38.37 C354.4 25.34, 367.47 9.59, 375.69 0.63 M353.52 38.33 C366.71 25.09, 378.5 10, 386.32 0.6 M353.52 38.33 C366.08 25.07, 376.98 10.61, 386.32 0.6 M364.15 38.3 C375.47 27.82, 386.01 12.24, 396.3 1.32 M364.15 38.3 C373.45 27.33, 382.73 16.98, 396.3 1.32 M374.78 38.26 C381.13 30, 392.46 17.55, 402.99 5.81 M374.78 38.26 C386.27 24.68, 397.8 12.22, 402.99 5.81 M385.41 38.23 C390.64 32.41, 397.94 27.05, 403.12 17.85 M385.41 38.23 C390.45 32.05, 394.68 27.66, 403.12 17.85 M397.35 36.69 C398.05 34.69, 399.76 33.81, 401.95 31.4 M397.35 36.69 C398.49 35.6, 399.6 33.74, 401.95 31.4" stroke="#e9ecef" stroke-width="1" fill="none"/><path d="M9.5 0 C129.87 -0.1, 248.16 0.36, 393.5 0 M9.5 0 C126.17 -0.62, 242.06 -0.94, 393.5 0 M393.5 0 C398.86 1.21, 404.13 1.5, 403 9.5 M393.5 0 C398.17 -0.73, 403.18 5, 403 9.5 M403 9.5 C401.19 14.95, 402.5 21.19, 403 28.5 M403 9.5 C403.53 14.47, 402.83 20.62, 403 28.5 M403 28.5 C401.33 35.63, 398.18 36.59, 393.5 38 M403 28.5 C402.2 36.78, 401.53 40.14, 393.5 38 M393.5 38 C243.3 37.2, 92.75 38.61, 9.5 38 M393.5 38 C250.17 39.36, 106.34 39.98, 9.5 38 M9.5 38 C1.27 36.12, 1.13 35.21, 0 28.5 M9.5 38 C0.98 37.89, 0.3 35.29, 0 28.5 M0 28.5 C-0.25 23.89, -0.52 17.81, 0 9.5 M0 28.5 C0.73 21.3, 1.08 12.95, 0 9.5 M0 9.5 C0.55 5.06, 2.05 1.83, 9.5 0 M0 9.5 C0.86 2.48, 5.39 1.91, 9.5 0" stroke="#1e1e1e" stroke-width="2" fill="none"/></g><g stroke-linecap="round" transform="translate(225 46) rotate(0 6.5 23)"><path d="M0.87 0.75 C0.87 0.75, 0.87 0.75, 0.87 0.75 M0.87 0.75 C0.87 0.75, 0.87 0.75, 0.87 0.75 M0.34 13.55 C3.42 11.23, 5.44 7.86, 11.5 0.72 M0.34 13.55 C4.32 9.16, 8.11 4.49, 11.5 0.72 M-0.18 26.34 C2.23 22.84, 5.71 18.81, 12.94 11.25 M-0.18 26.34 C2.56 22.92, 5.63 18.9, 12.94 11.25 M-0.05 38.38 C3.59 33.89, 7.09 28.29, 13.07 23.29 M-0.05 38.38 C3.25 34.87, 5.44 31.81, 13.07 23.29 M4.02 45.9 C5.89 43.81, 8.1 41.04, 13.21 35.33 M4.02 45.9 C7.21 42.13, 10.4 38.07, 13.21 35.33" stroke="#e9ecef" stroke-width="1" fill="none"/><path d="M3.25 0 C5.29 0.18, 7.35 0.12, 9.75 0 M3.25 0 C5.37 -0.05, 7.52 0.09, 9.75 0 M9.75 0 C12.48 -0.83, 12.28 0.77, 13 3.25 M9.75 0 C12.01 0.92, 13.46 -0.05, 13 3.25 M13 3.25 C12.67 17.18, 12.8 32.48, 13 42.75 M13 3.25 C13.01 15.72, 12.69 28.56, 13 42.75 M13 42.75 C12.18 44.21, 11.57 46.85, 9.75 46 M13 42.75 C13.85 45.99, 12.96 45.37, 9.75 46 M9.75 46 C7.57 46.14, 6.08 45.89, 3.25 46 M9.75 46 C7.39 46.05, 4.71 45.83, 3.25 46 M3.25 46 C1.65 46.19, -0.95 44.87, 0 42.75 M3.25 46 C1.23 46.23, 0.14 44.86, 0 42.75 M0 42.75 C-0.25 31.32, 0.9 17.84, 0 3.25 M0 42.75 C0.37 31.59, 0.02 21.79, 0 3.25 M0 3.25 C-0.56 2, 1.46 -0.3, 3.25 0 M0 3.25 C1.11 2.04, 0.1 -0.96, 3.25 0" stroke="#1e1e1e" stroke-width="2" fill="none"/></g><g stroke-linecap="round" transform="translate(152 45) rotate(0 34 35)"><path d="M4.4 17.07 C4.4 17.07, 4.4 17.07, 4.4 17.07 M4.4 17.07 C4.4 17.07, 4.4 17.07, 4.4 17.07 M0.59 33.64 C12.13 20.59, 23.93 10.64, 27.49 2.7 M0.59 33.64 C6.98 26.33, 11.72 19.96, 27.49 2.7 M2.04 44.17 C11.36 30.23, 25.3 20.46, 39.43 1.15 M2.04 44.17 C11.17 34.58, 19.87 25.76, 39.43 1.15 M5.45 52.44 C15.94 38.85, 28.84 25.77, 47.44 4.14 M5.45 52.44 C18.08 38.22, 31.2 22.61, 47.44 4.14 M9.52 59.95 C20.79 45.88, 31.75 33.59, 54.13 8.63 M9.52 59.95 C19.37 47.4, 29.53 36.93, 54.13 8.63 M16.87 63.69 C25.69 54.27, 36.21 43.35, 60.17 13.88 M16.87 63.69 C27.07 51.49, 37.2 40.64, 60.17 13.88 M24.22 67.43 C38.49 52.35, 52.55 34.65, 64.24 21.39 M24.22 67.43 C33.93 56.25, 45.37 43.56, 64.24 21.39 M32.88 69.66 C42.5 62.04, 50.52 50.56, 67.65 29.66 M32.88 69.66 C43.08 58.81, 51.3 48.36, 67.65 29.66 M45.48 67.36 C51.24 59.87, 62.21 51.9, 65.16 44.72 M45.48 67.36 C49.2 61.83, 54.66 58.04, 65.16 44.72" stroke="#a5d8ff" stroke-width="1" fill="none"/><path d="M40.72 0.29 C46.93 0.9, 53.98 5.44, 58.58 10.6 C63.19 15.75, 67.62 24.47, 68.35 31.23 C69.07 38, 66.31 45.27, 62.93 51.19 C59.56 57.11, 53.87 63.68, 48.11 66.77 C42.35 69.87, 35.03 70.96, 28.37 69.77 C21.72 68.57, 13.01 64.77, 8.19 59.6 C3.36 54.44, 0.1 45.83, -0.59 38.8 C-1.28 31.77, 0.71 23.35, 4.07 17.45 C7.43 11.55, 12.6 5.86, 19.55 3.39 C26.49 0.92, 40.77 2.4, 45.75 2.63 C50.72 2.86, 49.64 4.45, 49.39 4.77 M40.22 1.96 C46.9 3.2, 55.32 8.02, 60.14 12.72 C64.96 17.42, 68.55 23.64, 69.13 30.17 C69.72 36.7, 67.3 45.96, 63.63 51.89 C59.96 57.83, 53.04 62.7, 47.1 65.79 C41.17 68.88, 34.43 71.42, 28.01 70.42 C21.59 69.43, 13.02 65.21, 8.56 59.82 C4.11 54.43, 1.81 44.96, 1.25 38.07 C0.69 31.17, 2.33 24.49, 5.2 18.44 C8.06 12.39, 12.37 4.67, 18.44 1.76 C24.5 -1.15, 38.13 1.05, 41.58 0.98 C45.04 0.9, 39.39 0.73, 39.17 1.31" stroke="#1971c2" stroke-width="2" fill="none"/></g><g stroke-linecap="round" transform="translate(23 22) rotate(0 8 8)"><path d="M8.18 0.35 C9.79 0.35, 11.82 1.32, 13.19 2.34 C14.55 3.35, 16.11 4.74, 16.35 6.44 C16.6 8.13, 15.62 10.9, 14.66 12.51 C13.7 14.12, 12.27 15.57, 10.59 16.08 C8.91 16.59, 6.12 16.33, 4.6 15.57 C3.07 14.81, 2.09 13.01, 1.43 11.51 C0.76 10.01, 0.38 8.11, 0.63 6.56 C0.87 5.01, 1.5 3.36, 2.9 2.2 C4.3 1.04, 8.08 -0.07, 9.02 -0.41 C9.96 -0.75, 8.58 0.02, 8.54 0.16 M5.97 0.51 C7.52 0.06, 9.8 -0.37, 11.52 0.48 C13.24 1.32, 15.72 3.93, 16.29 5.55 C16.86 7.18, 15.74 8.62, 14.93 10.23 C14.12 11.84, 12.86 14.2, 11.45 15.21 C10.03 16.21, 7.96 16.63, 6.46 16.24 C4.96 15.86, 3.47 14.21, 2.46 12.88 C1.45 11.54, 0.52 9.92, 0.39 8.23 C0.25 6.54, 0.54 4.09, 1.63 2.74 C2.71 1.4, 6.03 0.64, 6.9 0.16 C7.77 -0.31, 6.93 -0.14, 6.84 -0.11" stroke="none" stroke-width="0" fill="#1e1e1e"/><path d="M8.86 -0.18 C10.51 -0.01, 13.04 1.59, 14.16 2.83 C15.28 4.06, 15.56 5.55, 15.57 7.22 C15.58 8.9, 15.12 11.4, 14.23 12.86 C13.33 14.32, 11.92 15.56, 10.19 15.99 C8.47 16.43, 5.53 16.33, 3.87 15.47 C2.2 14.61, 0.81 12.55, 0.21 10.86 C-0.39 9.17, -0.3 6.92, 0.27 5.34 C0.84 3.75, 2.1 2.15, 3.63 1.33 C5.17 0.51, 8.53 0.57, 9.49 0.39 C10.46 0.22, 9.49 0.25, 9.43 0.27 M8.54 0.67 C10.36 0.94, 12.93 2.06, 14.28 3.11 C15.63 4.17, 16.62 5.42, 16.66 6.99 C16.69 8.56, 15.7 11.15, 14.5 12.52 C13.3 13.89, 11.06 14.69, 9.46 15.23 C7.86 15.77, 6.39 16.33, 4.9 15.77 C3.41 15.2, 1.19 13.59, 0.51 11.86 C-0.17 10.13, 0.25 7.05, 0.81 5.36 C1.38 3.67, 2.69 2.71, 3.9 1.71 C5.11 0.71, 7.2 -0.44, 8.08 -0.66 C8.97 -0.89, 9.22 0.1, 9.2 0.34" stroke="#1e1e1e" stroke-width="2" fill="none"/></g><g stroke-linecap="round"><g transform="translate(127 48) rotate(0 0 104.5)"><path d="M0.59 0.35 C0.45 35.07, -0.21 173.81, -0.41 208.71 M-0.56 -0.51 C-0.94 34.35, -1.38 175.38, -1.57 210.09" stroke="#e03131" stroke-width="2" fill="none"/></g></g><mask/><g stroke-linecap="round" transform="translate(114.87434554973822 104) rotate(0 11.562827225130889 105.16666666666666)"><path d="M1.54 1.34 C1.54 1.34, 1.54 1.34, 1.54 1.34 M1.54 1.34 C1.54 1.34, 1.54 1.34, 1.54 1.34 M0.36 14.89 C4.25 9.69, 6.49 5, 12.83 0.55 M0.36 14.89 C4.63 9.35, 8.86 4.19, 12.83 0.55 M0.49 26.93 C4.57 19.16, 11.63 13.32, 21.49 2.78 M0.49 26.93 C3.85 21.17, 8.3 17, 21.49 2.78 M-0.03 39.72 C5.83 31.77, 12.5 23.09, 23.59 12.55 M-0.03 39.72 C5.49 33.08, 10.48 28.09, 23.59 12.55 M0.1 51.77 C8.13 39.97, 15.95 29.53, 23.72 24.6 M0.1 51.77 C7.15 42.98, 16.4 34.78, 23.72 24.6 M0.24 63.81 C8.43 51.6, 17.96 44.1, 23.85 36.64 M0.24 63.81 C7.65 55.88, 12.39 48.03, 23.85 36.64 M0.37 75.85 C6.94 65.05, 16.51 54.95, 23.99 48.68 M0.37 75.85 C6.78 69.78, 11.23 62.08, 23.99 48.68 M0.5 87.89 C6.13 80.23, 11.38 73.26, 23.46 61.47 M0.5 87.89 C7.38 79.71, 15.98 70.87, 23.46 61.47 M-0.02 100.68 C8.85 89.99, 14.58 83.46, 23.6 73.51 M-0.02 100.68 C6.82 90.96, 14.92 82.57, 23.6 73.51 M0.11 112.72 C5.89 106.27, 14.23 99.67, 23.73 85.55 M0.11 112.72 C4.61 107.11, 10.66 100.2, 23.73 85.55 M0.25 124.77 C6.35 118.94, 12.31 113.98, 23.86 97.6 M0.25 124.77 C9.23 114.27, 17.07 105.11, 23.86 97.6 M0.38 136.81 C7.35 130.04, 12.27 126.58, 24 109.64 M0.38 136.81 C8.89 127.47, 18.1 117.52, 24 109.64 M0.51 148.85 C7.39 141.13, 15.8 128.92, 23.47 122.43 M0.51 148.85 C9.12 139.43, 15.58 130.52, 23.47 122.43 M-0.01 161.64 C6.4 153.52, 10.08 146.88, 23.61 134.47 M-0.01 161.64 C6.75 153.83, 15.68 144.65, 23.61 134.47 M0.12 173.68 C9.56 165.27, 17.14 155.66, 23.74 146.51 M0.12 173.68 C4.98 169.03, 10.88 163.39, 23.74 146.51 M0.26 185.72 C7.47 181.56, 10 172.3, 23.87 158.55 M0.26 185.72 C5.7 179.06, 11.54 173.06, 23.87 158.55 M0.39 197.77 C7.08 188.47, 16.43 177.73, 24.01 170.6 M0.39 197.77 C8.41 187.98, 17.3 178.48, 24.01 170.6 M2.49 207.54 C10.55 197.28, 18.76 186.8, 23.48 183.39 M2.49 207.54 C9.24 200.85, 14.5 192.42, 23.48 183.39 M10.5 210.53 C13.41 205.02, 16.46 200.54, 23.62 195.43 M10.5 210.53 C14.85 205.34, 21.28 199.89, 23.62 195.43" stroke="#ffc9c9" stroke-width="1" fill="none"/><path d="M5.78 0 C9.54 -0.53, 14.56 0.69, 17.34 0 M5.78 0 C8.33 0.5, 11.02 -0.54, 17.34 0 M17.34 0 C22.58 -1.7, 22.07 1.6, 23.13 5.78 M17.34 0 C19.73 -0.07, 23.32 2.34, 23.13 5.78 M23.13 5.78 C21.35 74.5, 22.52 144.91, 23.13 204.55 M23.13 5.78 C23.17 52.36, 23.34 96.53, 23.13 204.55 M23.13 204.55 C23.15 208, 19.82 208.95, 17.34 210.33 M23.13 204.55 C24.27 210.12, 20.59 212.08, 17.34 210.33 M17.34 210.33 C13.57 209.3, 7.74 211.05, 5.78 210.33 M17.34 210.33 C13.73 210.44, 10.04 210.3, 5.78 210.33 M5.78 210.33 C2.03 210.06, 1.39 207.85, 0 204.55 M5.78 210.33 C3.34 212.34, -1.89 207.75, 0 204.55 M0 204.55 C-2.08 133.52, 1.57 60.28, 0 5.78 M0 204.55 C0.22 127.54, -1.61 48.04, 0 5.78 M0 5.78 C-0.23 2.66, 0.49 -1.29, 5.78 0 M0 5.78 C-1.07 1.45, -0.37 1.24, 5.78 0" stroke="#e03131" stroke-width="2" fill="none"/></g><g stroke-linecap="round"><g transform="translate(116.11111111111109 257.24074074074076) rotate(0 10.740740740740762 0)"><path d="M-0.27 0.33 C3.39 0.28, 18.23 -0.37, 21.79 -0.46 M0.59 0.03 C4.23 0.04, 17.92 -0.05, 21.52 0.01" stroke="#e03131" stroke-width="2" fill="none"/></g></g><mask/><g stroke-linecap="round" transform="translate(117 293.5) rotate(0 8.666666666666686 9.333333333333343)"><path d="M6.98 0.68 C8.64 0.15, 10.63 0.43, 12.33 1.25 C14.03 2.07, 16.35 3.73, 17.19 5.59 C18.03 7.46, 18.04 10.42, 17.36 12.44 C16.67 14.47, 14.67 16.8, 13.08 17.75 C11.49 18.7, 9.72 18.52, 7.84 18.14 C5.96 17.76, 3.06 16.97, 1.79 15.49 C0.51 14.01, 0.23 11.29, 0.19 9.26 C0.15 7.23, 0.33 4.94, 1.54 3.32 C2.74 1.71, 6.27 0.17, 7.42 -0.42 C8.57 -1, 8.47 -0.5, 8.44 -0.18 M8.75 0.24 C10.6 0.41, 13.07 1.65, 14.6 2.96 C16.13 4.27, 17.66 6.13, 17.94 8.11 C18.21 10.09, 17.46 13.14, 16.27 14.83 C15.08 16.52, 12.62 17.73, 10.8 18.25 C8.99 18.77, 7.01 18.8, 5.38 17.94 C3.75 17.09, 1.93 15, 1 13.11 C0.06 11.22, -0.73 8.56, -0.23 6.59 C0.26 4.61, 2.4 2.4, 3.98 1.26 C5.57 0.12, 8.46 0, 9.29 -0.26 C10.11 -0.51, 8.99 -0.43, 8.93 -0.28" stroke="none" stroke-width="0" fill="#1e1e1e"/><path d="M7.51 0.35 C9.16 -0.06, 10.98 0.65, 12.46 1.56 C13.93 2.48, 15.65 4.06, 16.37 5.82 C17.08 7.58, 17.3 10.21, 16.75 12.15 C16.19 14.08, 14.61 16.32, 13.03 17.43 C11.46 18.54, 9.19 19.16, 7.31 18.81 C5.42 18.45, 2.94 16.92, 1.71 15.28 C0.48 13.64, -0.17 11.03, -0.09 8.98 C-0.01 6.93, 1.02 4.47, 2.19 2.97 C3.36 1.46, 5.99 0.33, 6.94 -0.06 C7.9 -0.44, 7.78 0.38, 7.93 0.64 M6.97 -0.43 C8.76 -0.69, 12.03 0.74, 13.65 1.99 C15.28 3.24, 16.13 5.31, 16.72 7.05 C17.31 8.78, 17.81 10.58, 17.21 12.39 C16.61 14.2, 14.96 17.01, 13.12 17.91 C11.27 18.8, 7.94 18.2, 6.13 17.75 C4.31 17.3, 3.38 16.67, 2.24 15.2 C1.1 13.73, -0.72 10.94, -0.71 8.94 C-0.69 6.95, 0.96 4.7, 2.34 3.22 C3.72 1.73, 6.71 0.56, 7.58 0.05 C8.45 -0.46, 7.46 0.05, 7.55 0.17" stroke="#1e1e1e" stroke-width="2" fill="none"/></g></svg>