<svg version="1.1" xmlns="http://www.w3.org/2000/svg" viewBox="0 0 600.2837830323442 435.3846153846153" width="600.2837830323442" height="435.3846153846153" class="excalidraw-svg">
  <!-- svg-source:excalidraw -->
  
  <defs>
    <style class="style-fonts">
      @font-face {
        font-family: "Virgil";
        src: url("https://excalidraw.com/Virgil.woff2");
      }
      @font-face {
        font-family: "Cascadia";
        src: url("https://excalidraw.com/Cascadia.woff2");
      }
      @font-face {
        font-family: "Assistant";
        src: url("https://excalidraw.com/Assistant-Regular.woff2");
      }
    </style>
    
  </defs>
  <rect x="0" y="0" width="600.2837830323442" height="435.3846153846153" fill="#ffffff"/><g stroke-linecap="round" transform="translate(59.23076923076951 197.69230769230768) rotate(0 41.1538461538463 37.69230769230768)"><path d="M10.09 14.07 C10.09 14.07, 10.09 14.07, 10.09 14.07 M10.09 14.07 C10.09 14.07, 10.09 14.07, 10.09 14.07 M2.35 35.17 C10.36 25.01, 18.62 13.3, 29.25 4.23 M2.35 35.17 C8.57 26.92, 15.82 19.34, 29.25 4.23 M4.45 44.95 C17.17 32.59, 28.26 17.09, 40.54 3.44 M4.45 44.95 C16.93 28.92, 30.87 12.61, 40.54 3.44 M5.9 55.48 C22.73 37.1, 35.46 21.32, 52.48 1.89 M5.9 55.48 C23.49 35.31, 40.97 15.66, 52.48 1.89 M11.94 60.73 C24.5 49.03, 32.01 37.41, 59.83 5.63 M11.94 60.73 C25.18 46.28, 37.4 32.23, 59.83 5.63 M17.97 65.97 C32.26 50.26, 44.9 32.67, 66.52 10.13 M17.97 65.97 C36.39 46.55, 53.61 25.15, 66.52 10.13 M23.35 71.98 C37.36 54.43, 53.55 38.26, 73.21 14.62 M23.35 71.98 C38.2 53.79, 54.88 34.51, 73.21 14.62 M32.02 74.21 C44.86 56.68, 59.15 39.79, 77.28 22.13 M32.02 74.21 C43.32 62.13, 54.13 48.79, 77.28 22.13 M41.99 74.93 C54.89 61.91, 66.93 47.28, 81.35 29.64 M41.99 74.93 C52.6 63.09, 63.7 49.67, 81.35 29.64 M55.24 71.87 C64.41 60.01, 72.09 49.21, 86.74 35.65 M55.24 71.87 C62.37 64.34, 69.17 56.89, 86.74 35.65" stroke="#ffc9c9" stroke-width="1" fill="none"/><path d="M27.63 2.81 C34.23 0.22, 44.06 -0.91, 51.41 0.74 C58.75 2.39, 66.62 7.53, 71.7 12.71 C76.78 17.89, 80.5 25.29, 81.88 31.82 C83.26 38.34, 83 45.54, 79.98 51.84 C76.97 58.13, 70.2 65.81, 63.81 69.61 C57.42 73.41, 48.8 74.7, 41.64 74.63 C34.48 74.56, 27.01 72.54, 20.83 69.18 C14.66 65.81, 8.11 60.56, 4.59 54.44 C1.08 48.31, -1.18 39.19, -0.24 32.43 C0.71 25.66, 5 18.96, 10.26 13.88 C15.52 8.79, 27.25 4.05, 31.32 1.92 C35.39 -0.21, 34.55 0.44, 34.68 1.09 M40.83 -1.02 C48.18 -1.77, 58.52 0.89, 64.61 4.66 C70.71 8.42, 74.44 15.05, 77.41 21.55 C80.37 28.05, 83.06 36.65, 82.42 43.65 C81.78 50.65, 78.47 58.38, 73.55 63.54 C68.62 68.7, 60.07 72.78, 52.88 74.61 C45.7 76.44, 37.7 76.39, 30.46 74.53 C23.23 72.66, 14.61 68.76, 9.48 63.41 C4.35 58.05, 0.83 49.38, -0.33 42.41 C-1.49 35.44, -0.87 27.9, 2.53 21.58 C5.94 15.26, 13.44 7.89, 20.09 4.47 C26.73 1.05, 38.65 1.57, 42.4 1.05 C46.15 0.53, 42.97 0.86, 42.59 1.37" stroke="#e03131" stroke-width="2" fill="none"/></g><g stroke-linecap="round" transform="translate(10 10) rotate(0 90 93.84615384615381)"><path d="M30.84 22.83 C30.84 22.83, 30.84 22.83, 30.84 22.83 M30.84 22.83 C30.84 22.83, 30.84 22.83, 30.84 22.83 M6.69 62.8 C22.98 42.59, 38.59 25.31, 51.96 10.72 M6.69 62.8 C17.95 48.58, 30.45 35.8, 51.96 10.72 M2.89 79.36 C16.89 63.13, 31.95 42.47, 67.19 5.4 M2.89 79.36 C16.58 62.41, 30.49 47.1, 67.19 5.4 M1.71 92.91 C18.08 73.77, 35.19 54.28, 79.78 3.1 M1.71 92.91 C31.74 58.22, 60.63 25.1, 79.78 3.1 M3.16 103.45 C25.9 79, 44.74 52.96, 92.38 0.81 M3.16 103.45 C31.09 71.9, 59.49 39.24, 92.38 0.81 M4.6 113.98 C44.04 69.79, 81.25 27.32, 102.36 1.53 M4.6 113.98 C37.14 76.46, 69.55 39.33, 102.36 1.53 M6.05 124.51 C33.39 94.05, 58.38 61.32, 110.36 4.51 M6.05 124.51 C41.76 84.32, 76.37 44.07, 110.36 4.51 M10.12 132.02 C45.89 92.66, 78.51 52.54, 119.02 6.74 M10.12 132.02 C46.43 89.19, 82.87 46.72, 119.02 6.74 M14.19 139.53 C47.38 101.78, 81.24 60.28, 127.03 9.72 M14.19 139.53 C49.98 99.29, 83.12 58.56, 127.03 9.72 M18.26 147.05 C55.85 99.67, 97.4 55.5, 134.38 13.46 M18.26 147.05 C50.41 108.96, 83.99 70.7, 134.38 13.46 M22.33 154.56 C51.97 119.13, 80.57 85.08, 140.42 18.71 M22.33 154.56 C47.03 125.08, 71.41 97.24, 140.42 18.71 M27.71 160.56 C63.72 117.94, 100.55 77.37, 146.45 23.96 M27.71 160.56 C55.54 126.19, 85.05 93.02, 146.45 23.96 M34.4 165.06 C56.91 135.38, 81.9 111.4, 153.15 28.45 M34.4 165.06 C60.33 134.5, 88 104.29, 153.15 28.45 M40.44 170.3 C77.65 126.94, 116.11 82.5, 159.19 33.7 M40.44 170.3 C83.92 120.96, 125.17 70.06, 159.19 33.7 M47.13 174.8 C88.06 124.96, 130.88 78.09, 163.26 41.21 M47.13 174.8 C79.42 135.49, 112.68 98.81, 163.26 41.21 M53.83 179.29 C80.3 150.72, 107.43 117.47, 167.98 47.97 M53.83 179.29 C93.61 132.02, 135.75 84.54, 167.98 47.97 M62.49 181.52 C98.19 140.89, 135.41 98.07, 172.05 55.49 M62.49 181.52 C99.28 140.86, 137.02 98.17, 172.05 55.49 M71.15 183.75 C111.8 137.13, 149.66 92.85, 176.12 63 M71.15 183.75 C96.01 155.66, 121.38 127.39, 176.12 63 M79.81 185.98 C118.21 144.04, 153.63 103.76, 177.57 73.53 M79.81 185.98 C103.63 159.91, 127.59 132.93, 177.57 73.53 M89.79 186.7 C120.73 151.68, 155.58 112.55, 178.35 84.82 M89.79 186.7 C122.47 148.72, 155.91 111.31, 178.35 84.82 M101.73 185.16 C131.11 150.8, 164.13 113.79, 179.8 95.35 M101.73 185.16 C125.95 157.06, 150.04 128.99, 179.8 95.35 M113.02 184.37 C135.9 159.55, 156.68 132.15, 177.31 110.41 M113.02 184.37 C126.57 169.24, 138.56 154.54, 177.31 110.41 M130.86 176.03 C147.59 159.14, 162.74 137.23, 172.85 127.73 M130.86 176.03 C146.58 157.23, 162.24 139.4, 172.85 127.73" stroke="#ffc9c9" stroke-width="1" fill="none"/><path d="M95.55 -0.31 C106.7 -1.11, 119.56 4.65, 129.94 10.11 C140.31 15.56, 150.09 23.59, 157.79 32.41 C165.5 41.23, 172.57 51.66, 176.16 63.04 C179.74 74.42, 180.3 88.77, 179.3 100.69 C178.29 112.61, 174.95 124.07, 170.13 134.56 C165.31 145.05, 158.83 155.56, 150.38 163.61 C141.92 171.66, 130.5 179.04, 119.38 182.87 C108.26 186.7, 95.02 187.38, 83.65 186.59 C72.28 185.8, 61.34 183.14, 51.16 178.13 C40.99 173.13, 30.19 165.6, 22.6 156.54 C15.01 147.48, 9.36 135.09, 5.62 123.79 C1.89 112.49, -0.41 100.73, 0.19 88.75 C0.8 76.77, 4.19 62.87, 9.26 51.92 C14.34 40.96, 22.15 30.73, 30.66 23.03 C39.17 15.34, 49.14 9.64, 60.34 5.74 C71.54 1.84, 91.08 0.08, 97.88 -0.37 C104.68 -0.82, 101.08 1.19, 101.14 3.03 M122.88 6.78 C133.44 9.51, 143.08 18.59, 151.15 26.58 C159.23 34.58, 166.72 44.07, 171.32 54.73 C175.91 65.4, 178.07 78.78, 178.72 90.6 C179.38 102.41, 178.93 114.18, 175.26 125.61 C171.58 137.04, 164.52 150.11, 156.7 159.18 C148.87 168.24, 139.16 175.22, 128.31 180.01 C117.46 184.8, 103.09 187.79, 91.6 187.94 C80.11 188.08, 70.11 185.35, 59.37 180.91 C48.62 176.46, 35.51 169.56, 27.1 161.26 C18.7 152.96, 13.43 141.66, 8.91 131.11 C4.39 120.55, 0.33 109.71, -0.01 97.95 C-0.34 86.18, 2.64 72.01, 6.9 60.52 C11.15 49.03, 17.68 37.8, 25.53 29 C33.38 20.21, 43.89 12.49, 54.01 7.76 C64.13 3.03, 74.86 0.92, 86.27 0.63 C97.68 0.34, 116.76 4.78, 122.46 6.02 C128.16 7.26, 121.35 6.71, 120.49 8.07" stroke="#e03131" stroke-width="2" fill="none"/></g><g stroke-linecap="round" transform="translate(79.57692307692378 86.75279059776884) rotate(0 20.5 162)"><path d="M2.73 2.37 C2.73 2.37, 2.73 2.37, 2.73 2.37 M2.73 2.37 C2.73 2.37, 2.73 2.37, 2.73 2.37 M0.89 16.68 C3.32 12.75, 8.95 8.16, 14.67 0.83 M0.89 16.68 C4.13 11.95, 8.89 6.99, 14.67 0.83 M0.37 29.47 C8.2 19.63, 20.83 8.79, 25.3 0.79 M0.37 29.47 C4.85 23.64, 11.56 16.94, 25.3 0.79 M0.5 41.51 C12.92 28.36, 22.99 16.62, 35.93 0.76 M0.5 41.51 C9.52 31.31, 20.15 20.73, 35.93 0.76 M0.64 53.55 C15.19 36.85, 28.48 20.3, 40.66 7.52 M0.64 53.55 C15.99 36.41, 28.49 20.72, 40.66 7.52 M0.77 65.59 C11.49 53.05, 19.27 41.56, 41.45 18.8 M0.77 65.59 C9.18 56.68, 18.62 46.62, 41.45 18.8 M0.9 77.64 C17.39 59.2, 32.72 43.29, 41.58 30.84 M0.9 77.64 C13.23 63.55, 25.3 49.9, 41.58 30.84 M0.38 90.43 C13.99 75.06, 26.26 59.57, 41.71 42.88 M0.38 90.43 C10.85 79.99, 21.44 67.99, 41.71 42.88 M0.51 102.47 C15.9 84.14, 32.95 68.37, 41.84 54.93 M0.51 102.47 C16.44 86.2, 30.11 67.15, 41.84 54.93 M0.65 114.51 C9.9 103.5, 19.28 91.15, 41.98 66.97 M0.65 114.51 C11.28 101.33, 23.69 89.14, 41.98 66.97 M0.78 126.55 C9.08 114.65, 22.78 103.61, 41.46 79.76 M0.78 126.55 C11.44 114.18, 22.72 102.2, 41.46 79.76 M0.91 138.59 C10.52 127.83, 23.79 113.68, 41.59 91.8 M0.91 138.59 C10.36 126.45, 22.11 113.25, 41.59 91.8 M0.39 151.39 C7.51 141.35, 16.6 130.19, 41.72 103.84 M0.39 151.39 C11.02 140.1, 21.13 126.87, 41.72 103.84 M0.52 163.43 C16.95 146.53, 32.05 130.62, 41.85 115.88 M0.52 163.43 C17.56 145.18, 33.34 126.05, 41.85 115.88 M0.66 175.47 C11.38 163.06, 23.82 149.44, 41.99 127.93 M0.66 175.47 C9.47 164.07, 18.7 153.13, 41.99 127.93 M0.79 187.51 C17.35 171.21, 30.96 151.52, 41.46 140.72 M0.79 187.51 C11.91 174.17, 23.23 161.85, 41.46 140.72 M0.92 199.55 C14.38 182.9, 26.6 168.36, 41.6 152.76 M0.92 199.55 C17.14 181.21, 31.27 163.46, 41.6 152.76 M0.4 212.35 C8.78 200.36, 18.99 189.55, 41.73 164.8 M0.4 212.35 C14.77 195.63, 28 181.53, 41.73 164.8 M0.53 224.39 C11.33 208.25, 23.88 194.47, 41.86 176.84 M0.53 224.39 C16.8 206.65, 30.75 188.11, 41.86 176.84 M0.67 236.43 C17.39 216.68, 31.74 198.96, 42 188.88 M0.67 236.43 C11.47 225.88, 21.15 213.35, 42 188.88 M0.8 248.47 C16.15 231.22, 31.47 212.58, 41.47 201.68 M0.8 248.47 C15.43 232.67, 29.77 216.99, 41.47 201.68 M0.93 260.51 C13.54 243.3, 29.43 227.75, 41.61 213.72 M0.93 260.51 C13.29 247.26, 23.01 235.1, 41.61 213.72 M0.41 273.31 C17.88 255.24, 32.56 236.8, 41.74 225.76 M0.41 273.31 C12.5 260.31, 24.7 246.29, 41.74 225.76 M0.54 285.35 C11.5 273.44, 18.54 264.18, 41.87 237.8 M0.54 285.35 C16.11 266.97, 30.2 249.69, 41.87 237.8 M0.68 297.39 C17.12 280.66, 35.54 258.93, 42.01 249.84 M0.68 297.39 C12.75 282.19, 27.3 267.13, 42.01 249.84 M0.81 309.43 C14.07 295.44, 25.76 282.64, 41.48 262.64 M0.81 309.43 C9.93 299.08, 19.46 288.39, 41.48 262.64 M2.25 319.96 C14.31 304.37, 27.67 289.5, 41.62 274.68 M2.25 319.96 C16.7 302.3, 30.63 285.51, 41.62 274.68 M9.6 323.7 C16.7 318.25, 22.33 310.31, 41.75 286.72 M9.6 323.7 C17.34 314.29, 25.57 303.72, 41.75 286.72 M20.23 323.67 C26.71 314.64, 35.21 303.11, 41.88 298.76 M20.23 323.67 C28.46 315.99, 35.05 308.12, 41.88 298.76 M30.21 324.39 C34 318.93, 37.86 315.49, 42.02 310.8 M30.21 324.39 C32.39 321.24, 35.19 317.31, 42.02 310.8" stroke="#e9ecef" stroke-width="1" fill="none"/><path d="M10.25 0 C13.37 1.95, 19.43 -1.05, 30.75 0 M10.25 0 C17.25 0.92, 22.7 -0.55, 30.75 0 M30.75 0 C39.11 -1.23, 39.52 5.4, 41 10.25 M30.75 0 C35.84 0.93, 41.4 2.23, 41 10.25 M41 10.25 C43.37 75, 44.23 137.1, 41 313.75 M41 10.25 C42.83 101.45, 42.96 192.09, 41 313.75 M41 313.75 C42.48 318.74, 35.94 323.23, 30.75 324 M41 313.75 C41.84 321.33, 39.68 325.66, 30.75 324 M30.75 324 C25.19 323.48, 19.26 323.16, 10.25 324 M30.75 324 C26.06 322.98, 20.68 324.65, 10.25 324 M10.25 324 C5.18 324.82, -1.57 320.97, 0 313.75 M10.25 324 C5.3 322.91, -1.91 319.11, 0 313.75 M0 313.75 C3.1 204.31, 1.83 93.88, 0 10.25 M0 313.75 C-1.93 234.34, -1.18 154.32, 0 10.25 M0 10.25 C-0.98 3.74, 1.57 -0.9, 10.25 0 M0 10.25 C-0.94 2.21, 3.71 -2.11, 10.25 0" stroke="#1e1e1e" stroke-width="2" fill="none"/></g><g stroke-linecap="round" transform="translate(83.57692307692378 86.75279059776884) rotate(0 201.5 19)"><path d="M0.36 5.61 C0.36 5.61, 0.36 5.61, 0.36 5.61 M0.36 5.61 C0.36 5.61, 0.36 5.61, 0.36 5.61 M0.49 17.65 C7.13 10.79, 9.8 6.58, 15.58 0.3 M0.49 17.65 C6.38 10.64, 12.36 4.2, 15.58 0.3 M0.63 29.69 C8.04 23.75, 10.62 17.79, 26.21 0.26 M0.63 29.69 C7.85 22.01, 14.28 14.63, 26.21 0.26 M5.35 36.45 C14.86 26.37, 22.56 14.45, 36.84 0.23 M5.35 36.45 C17.54 24.19, 28.65 9.83, 36.84 0.23 M14.01 38.68 C23.26 26.6, 34.66 15.93, 47.47 0.19 M14.01 38.68 C23.67 26.57, 34.99 13.47, 47.47 0.19 M24.64 38.65 C33.73 25.43, 44.23 12.91, 58.1 0.16 M24.64 38.65 C33.14 29.82, 41.2 19.64, 58.1 0.16 M35.27 38.61 C46.12 27.97, 56.07 15.74, 68.08 0.88 M35.27 38.61 C44.09 28.86, 53.38 17.52, 68.08 0.88 M45.9 38.58 C55.44 26.28, 63.5 15.05, 78.71 0.84 M45.9 38.58 C53.3 30.72, 60.38 22.96, 78.71 0.84 M56.53 38.54 C65.82 31.13, 72.88 19.38, 89.34 0.81 M56.53 38.54 C64.62 26.86, 73.73 16.86, 89.34 0.81 M67.16 38.51 C78.68 23.35, 90.02 11.12, 99.97 0.77 M67.16 38.51 C75.8 29.78, 82.09 20.79, 99.97 0.77 M77.79 38.48 C86.96 30.26, 91.31 22.32, 110.6 0.74 M77.79 38.48 C87.56 28.06, 95.61 18.16, 110.6 0.74 M88.42 38.44 C99.62 27.14, 107.5 17, 121.23 0.71 M88.42 38.44 C97.88 27.26, 105.96 17.27, 121.23 0.71 M99.05 38.41 C111.33 22.26, 124.27 9.44, 131.86 0.67 M99.05 38.41 C108.62 26.56, 119.19 15.04, 131.86 0.67 M109.68 38.37 C123.23 25.91, 136 8.28, 142.49 0.64 M109.68 38.37 C117.66 28.64, 124.76 19.87, 142.49 0.64 M120.31 38.34 C133.18 24.15, 142.01 11.57, 153.12 0.6 M120.31 38.34 C131.05 24.96, 143.93 12.03, 153.12 0.6 M130.94 38.3 C138.87 27.11, 147.26 19.45, 163.75 0.57 M130.94 38.3 C139.43 28.9, 147.37 20.49, 163.75 0.57 M141.57 38.27 C148.16 29.21, 157.24 24.11, 174.38 0.53 M141.57 38.27 C149.95 27.56, 159.59 15.53, 174.38 0.53 M152.2 38.23 C162.29 25.29, 173.32 14.72, 185.01 0.5 M152.2 38.23 C163.92 25.79, 175.18 12.06, 185.01 0.5 M162.83 38.2 C173.93 23.37, 187.75 10.69, 195.64 0.46 M162.83 38.2 C174.63 22.81, 188.96 9.32, 195.64 0.46 M172.81 38.92 C182.16 26.73, 190.58 17.55, 206.27 0.43 M172.81 38.92 C181.12 29.08, 189.26 20.98, 206.27 0.43 M183.44 38.88 C193.62 26.8, 204.11 14.15, 216.9 0.39 M183.44 38.88 C196.68 25.01, 208.74 10.07, 216.9 0.39 M194.07 38.85 C202.37 29.66, 210.86 17.72, 227.53 0.36 M194.07 38.85 C203.5 27.33, 215.06 14.98, 227.53 0.36 M204.7 38.82 C212.3 29.69, 218.47 20.58, 238.16 0.33 M204.7 38.82 C216.87 25.24, 226.86 11.34, 238.16 0.33 M215.33 38.78 C223.43 28.35, 234.22 17.43, 248.79 0.29 M215.33 38.78 C227.66 23.25, 242.24 8.64, 248.79 0.29 M225.96 38.75 C235.6 28.52, 241.55 20.45, 259.42 0.26 M225.96 38.75 C236.85 26.98, 245.36 16.4, 259.42 0.26 M236.59 38.71 C247.77 27.3, 254 18.18, 270.05 0.22 M236.59 38.71 C245.22 29.24, 253.32 18.82, 270.05 0.22 M247.22 38.68 C256.76 26.45, 269.41 14, 280.68 0.19 M247.22 38.68 C258.62 24.09, 270.77 9.91, 280.68 0.19 M257.85 38.64 C266.09 29.52, 274.79 17.1, 291.31 0.15 M257.85 38.64 C266.08 27.59, 276.51 17.66, 291.31 0.15 M268.48 38.61 C279.23 23.18, 293.38 9.29, 301.28 0.87 M268.48 38.61 C275.48 31.13, 281.78 23.01, 301.28 0.87 M279.11 38.57 C288.45 27.92, 294.62 18.58, 311.91 0.84 M279.11 38.57 C290.36 24.41, 302.71 13.1, 311.91 0.84 M289.74 38.54 C301.89 25.04, 313.52 11.3, 322.54 0.8 M289.74 38.54 C297.42 29.95, 304.65 21.3, 322.54 0.8 M300.37 38.51 C312.69 25.38, 322.78 13.56, 333.17 0.77 M300.37 38.51 C308.44 28.96, 316.53 19.55, 333.17 0.77 M311 38.47 C318.95 28.7, 325.88 19.06, 343.8 0.74 M311 38.47 C322.89 25.41, 332.63 13.53, 343.8 0.74 M321.63 38.44 C333.08 24.68, 348.1 6.25, 354.43 0.7 M321.63 38.44 C330.03 29.93, 337.13 21.05, 354.43 0.7 M332.26 38.4 C341.56 24.35, 353.37 12.96, 365.06 0.67 M332.26 38.4 C343.63 24.63, 356.28 10.81, 365.06 0.67 M342.89 38.37 C352.81 28.49, 360.91 21.15, 375.69 0.63 M342.89 38.37 C354.8 25.67, 366.66 11.21, 375.69 0.63 M353.52 38.33 C365.97 25.66, 377.62 10.47, 386.32 0.6 M353.52 38.33 C363.31 26.89, 371.07 17, 386.32 0.6 M364.15 38.3 C371.77 28.17, 381.94 14.35, 396.3 1.32 M364.15 38.3 C373.59 27.99, 383.17 16.61, 396.3 1.32 M374.78 38.26 C383.55 27.75, 389.25 19.61, 402.99 5.81 M374.78 38.26 C386.3 24.97, 396.25 12.84, 402.99 5.81 M385.41 38.23 C391.13 32.91, 395.25 30.1, 403.12 17.85 M385.41 38.23 C388.55 32.38, 394.27 28.67, 403.12 17.85 M397.35 36.69 C398.43 35.68, 399.2 34.55, 401.95 31.4 M397.35 36.69 C398.85 35.49, 399.66 33.57, 401.95 31.4" stroke="#e9ecef" stroke-width="1" fill="none"/><path d="M9.5 0 C129.35 -2.86, 250.07 -1.72, 393.5 0 M9.5 0 C130.6 -2.47, 252.85 -2.53, 393.5 0 M393.5 0 C398.35 1.99, 401.48 3.97, 403 9.5 M393.5 0 C400.23 -1.19, 400.92 5.28, 403 9.5 M403 9.5 C404.62 14.86, 403.05 23.13, 403 28.5 M403 9.5 C402.63 14.56, 403.61 20.04, 403 28.5 M403 28.5 C401.36 34.06, 400.56 38.65, 393.5 38 M403 28.5 C405.1 36.5, 400.21 39.11, 393.5 38 M393.5 38 C253.22 36.67, 110.75 36.27, 9.5 38 M393.5 38 C287.89 36.2, 181.91 36.03, 9.5 38 M9.5 38 C1.6 38.38, 1.64 33.89, 0 28.5 M9.5 38 C1.25 36.52, 1.47 32.83, 0 28.5 M0 28.5 C-0.29 24.26, -0.86 18.49, 0 9.5 M0 28.5 C0.5 23.44, -0.35 18.6, 0 9.5 M0 9.5 C-1.85 2.27, 2.35 -1.05, 9.5 0 M0 9.5 C0.29 1.06, 2.71 -1.45, 9.5 0" stroke="#1e1e1e" stroke-width="2" fill="none"/></g><g stroke-linecap="round" transform="translate(294.5769230769238 122.75279059776884) rotate(0 6.5 23)"><path d="M0.87 0.75 C0.87 0.75, 0.87 0.75, 0.87 0.75 M0.87 0.75 C0.87 0.75, 0.87 0.75, 0.87 0.75 M0.34 13.55 C2.7 9.98, 6.18 7.34, 11.5 0.72 M0.34 13.55 C2.7 10.81, 5.31 7.1, 11.5 0.72 M-0.18 26.34 C2.9 22.31, 5.96 19.49, 12.94 11.25 M-0.18 26.34 C2.61 23.16, 5.53 19.85, 12.94 11.25 M-0.05 38.38 C5.1 32.28, 9.36 27.49, 13.07 23.29 M-0.05 38.38 C3.55 34.94, 6.04 30.99, 13.07 23.29 M4.02 45.9 C6.6 42.99, 9.7 39.44, 13.21 35.33 M4.02 45.9 C7.75 41.61, 11.16 37.75, 13.21 35.33" stroke="#e9ecef" stroke-width="1" fill="none"/><path d="M3.25 0 C5.9 0.16, 8.49 0.17, 9.75 0 M3.25 0 C5.94 -0.08, 8.27 0.18, 9.75 0 M9.75 0 C11.16 0.4, 13.17 0.57, 13 3.25 M9.75 0 C10.88 1.06, 13.11 1.35, 13 3.25 M13 3.25 C13.17 19.14, 13.17 32.6, 13 42.75 M13 3.25 C13.31 14.8, 12.53 27.08, 13 42.75 M13 42.75 C13.37 45.24, 12.83 46.72, 9.75 46 M13 42.75 C13.19 45.47, 12.69 46.53, 9.75 46 M9.75 46 C7.9 45.72, 6.2 46.22, 3.25 46 M9.75 46 C8.57 46.09, 6.98 46.05, 3.25 46 M3.25 46 C1.9 45.53, -0.83 44.28, 0 42.75 M3.25 46 C1.82 45, -0.04 45.84, 0 42.75 M0 42.75 C-0.36 28.76, -0.34 12.8, 0 3.25 M0 42.75 C-0.32 29.44, -0.54 15.74, 0 3.25 M0 3.25 C-0.41 0.56, 1.21 -0.92, 3.25 0 M0 3.25 C-0.23 0.36, 1.37 0.23, 3.25 0" stroke="#1e1e1e" stroke-width="2" fill="none"/></g><g stroke-linecap="round" transform="translate(221.57692307692378 121.75279059776884) rotate(0 34 35)"><path d="M5.03 17.62 C5.03 17.62, 5.03 17.62, 5.03 17.62 M5.03 17.62 C5.03 17.62, 5.03 17.62, 5.03 17.62 M1.88 33.44 C9.13 23.85, 15.34 16.52, 28.78 2.49 M1.88 33.44 C10.9 24.03, 19.82 13.76, 28.78 2.49 M3.33 43.97 C12.77 31.79, 20.3 22.22, 39.41 2.46 M3.33 43.97 C11.87 34.88, 20.15 23.69, 39.41 2.46 M6.09 52.99 C17.76 39.56, 29.1 26.3, 47.42 5.44 M6.09 52.99 C15.85 43.72, 24.84 31.8, 47.42 5.44 M10.81 59.75 C27.66 42.58, 42.78 23.94, 54.77 9.18 M10.81 59.75 C25.23 42.88, 40.32 25.33, 54.77 9.18 M17.5 64.24 C29.27 53.77, 40.17 41.32, 60.8 14.43 M17.5 64.24 C28.45 51.08, 39.44 39.03, 60.8 14.43 M24.85 67.98 C34.94 52.79, 47.85 40.6, 64.87 21.94 M24.85 67.98 C35.36 54.31, 46.44 41.42, 64.87 21.94 M34.83 68.7 C44.44 60.58, 52.03 51.74, 68.29 30.21 M34.83 68.7 C41.7 60.53, 49.87 51.97, 68.29 30.21 M46.77 67.16 C53.61 59.16, 61.47 52, 65.8 45.27 M46.77 67.16 C51.62 61.23, 56.4 54.57, 65.8 45.27" stroke="#a5d8ff" stroke-width="1" fill="none"/><path d="M41.63 1.78 C47.62 2.86, 54.83 6.71, 59.38 11.69 C63.92 16.68, 68.25 24.72, 68.9 31.71 C69.56 38.71, 67.05 47.85, 63.28 53.65 C59.51 59.45, 52.38 63.94, 46.3 66.52 C40.21 69.09, 33.12 70.44, 26.77 69.08 C20.43 67.71, 12.55 63.64, 8.24 58.34 C3.93 53.03, 1.43 44.05, 0.92 37.25 C0.4 30.45, 1.75 23.37, 5.13 17.51 C8.51 11.65, 14.13 4.6, 21.19 2.11 C28.26 -0.38, 42.49 1.77, 47.53 2.58 C52.56 3.38, 51.79 6.49, 51.4 6.93 M28.84 1.74 C34.92 0.06, 42.6 1.16, 48.58 3.99 C54.56 6.82, 61.62 12.64, 64.73 18.7 C67.85 24.75, 68.35 33.74, 67.26 40.34 C66.16 46.94, 62.82 53.52, 58.16 58.3 C53.5 63.08, 45.52 67.83, 39.29 68.99 C33.05 70.16, 26.4 67.94, 20.75 65.28 C15.1 62.62, 8.6 58.7, 5.41 53.05 C2.21 47.4, 1.15 38.32, 1.57 31.38 C1.99 24.45, 3.41 16.68, 7.93 11.44 C12.46 6.2, 25.63 1.79, 28.7 -0.06 C31.78 -1.9, 26.3 -0.1, 26.36 0.38" stroke="#1971c2" stroke-width="2" fill="none"/></g><g stroke-linecap="round" transform="translate(92.57692307692378 98.75279059776884) rotate(0 8 8)"><path d="M7.9 0.37 C9.43 0.25, 11.61 1.18, 12.9 2.16 C14.2 3.14, 15.31 4.56, 15.69 6.23 C16.06 7.89, 15.98 10.64, 15.16 12.14 C14.34 13.64, 12.4 14.76, 10.78 15.25 C9.15 15.74, 7.06 15.64, 5.41 15.08 C3.76 14.51, 1.81 13.24, 0.88 11.85 C-0.04 10.46, -0.4 8.41, -0.15 6.74 C0.09 5.07, 1.03 2.92, 2.35 1.82 C3.67 0.71, 6.78 0.48, 7.79 0.12 C8.79 -0.23, 8.29 -0.44, 8.37 -0.29 M9.65 0.58 C11.32 0.64, 13.25 0.79, 14.3 1.88 C15.36 2.96, 16.02 5.24, 15.96 7.1 C15.9 8.95, 15.01 11.59, 13.92 13.02 C12.83 14.45, 10.93 15.43, 9.44 15.69 C7.95 15.95, 6.46 15.36, 4.96 14.59 C3.46 13.82, 1.14 12.63, 0.46 11.05 C-0.22 9.47, 0.34 6.72, 0.86 5.12 C1.37 3.52, 2.28 2.2, 3.56 1.45 C4.84 0.71, 7.71 0.94, 8.52 0.63 C9.33 0.33, 8.45 -0.45, 8.42 -0.37" stroke="none" stroke-width="0" fill="#1e1e1e"/><path d="M6.51 -0.28 C8.23 -0.75, 11.13 -0.17, 12.68 0.8 C14.23 1.77, 15.37 3.94, 15.79 5.55 C16.21 7.17, 15.77 8.9, 15.18 10.48 C14.6 12.07, 13.72 14.12, 12.27 15.08 C10.83 16.04, 8.21 16.6, 6.52 16.23 C4.83 15.85, 3.24 14.16, 2.15 12.84 C1.06 11.51, 0.03 10.01, 0 8.28 C-0.02 6.55, 0.78 3.86, 2.01 2.46 C3.25 1.06, 6.48 0.2, 7.42 -0.12 C8.35 -0.45, 7.7 0.44, 7.63 0.53 M7.91 0.58 C9.5 0.34, 11.27 0.83, 12.65 1.77 C14.03 2.71, 15.82 4.52, 16.21 6.21 C16.61 7.89, 15.89 10.41, 15.03 11.87 C14.18 13.33, 12.69 14.33, 11.08 14.95 C9.47 15.56, 6.89 16.07, 5.38 15.57 C3.88 15.06, 2.83 13.2, 2.03 11.92 C1.23 10.64, 0.43 9.44, 0.59 7.9 C0.74 6.36, 1.94 3.99, 2.95 2.7 C3.96 1.41, 5.82 0.66, 6.64 0.18 C7.46 -0.3, 7.85 -0.19, 7.86 -0.16" stroke="#1e1e1e" stroke-width="2" fill="none"/></g><g stroke-linecap="round" transform="translate(90.7692307692314 227.69230769230762) rotate(0 8.846153846153811 8.846153846153811)"><path d="M10.22 0.47 C11.99 0.56, 14.19 1.43, 15.46 2.86 C16.74 4.3, 17.87 7.17, 17.89 9.07 C17.91 10.98, 16.83 12.97, 15.58 14.31 C14.34 15.65, 12.34 16.77, 10.43 17.1 C8.53 17.43, 5.87 17.15, 4.18 16.29 C2.48 15.42, 0.94 13.67, 0.26 11.91 C-0.42 10.14, -0.56 7.46, 0.09 5.69 C0.73 3.93, 2.31 2.28, 4.13 1.3 C5.95 0.31, 9.77 -0.12, 10.99 -0.22 C12.22 -0.31, 11.5 0.5, 11.5 0.74 M7.95 -0.63 C9.61 -1.18, 11.97 -0.39, 13.44 0.75 C14.92 1.89, 16.26 4.32, 16.81 6.19 C17.37 8.06, 17.3 10.32, 16.79 11.97 C16.27 13.63, 15.36 15.2, 13.72 16.12 C12.08 17.04, 8.81 17.88, 6.93 17.51 C5.04 17.13, 3.58 15.33, 2.4 13.88 C1.23 12.43, -0.02 10.53, -0.14 8.81 C-0.26 7.09, 0.52 5.09, 1.69 3.54 C2.87 1.99, 6.07 0, 6.93 -0.5 C7.8 -1, 6.7 0.26, 6.91 0.54" stroke="none" stroke-width="0" fill="#1e1e1e"/><path d="M11.02 -0.22 C12.9 0.09, 14.85 1.9, 15.92 3.36 C16.98 4.82, 17.42 6.65, 17.43 8.54 C17.45 10.43, 17.17 13.12, 15.99 14.69 C14.81 16.26, 12.24 17.7, 10.36 17.97 C8.48 18.24, 6.36 17.25, 4.71 16.3 C3.07 15.34, 1.17 14.04, 0.49 12.23 C-0.2 10.42, -0.09 7.33, 0.59 5.45 C1.27 3.57, 2.93 1.78, 4.57 0.97 C6.2 0.16, 9.42 0.73, 10.39 0.57 C11.37 0.42, 10.45 -0.1, 10.44 0.01 M9.69 0.39 C11.46 0.39, 14.28 1.54, 15.57 2.9 C16.86 4.26, 17.37 6.79, 17.41 8.58 C17.44 10.36, 16.9 12.17, 15.76 13.6 C14.62 15.04, 12.25 16.77, 10.57 17.2 C8.9 17.62, 7.23 16.83, 5.7 16.16 C4.17 15.49, 2.21 14.7, 1.42 13.16 C0.62 11.62, 0.66 8.81, 0.95 6.92 C1.23 5.02, 1.6 2.98, 3.14 1.78 C4.68 0.57, 9.21 0.02, 10.18 -0.33 C11.14 -0.67, 8.96 -0.37, 8.92 -0.28" stroke="#1e1e1e" stroke-width="2" fill="none"/></g><g stroke-linecap="round" transform="translate(253.36070610926754 200.76923076923072) rotate(0 168.46153846153834 112.30769230769229)"><path d="M32 0 C135.51 -5.56, 237.26 -1.07, 304.92 0 C324.56 -2.99, 334.61 12.97, 336.92 32 C339.38 65.92, 339.47 99, 336.92 192.62 C339.31 212.67, 323.96 226.02, 304.92 224.62 C212.64 220.14, 118.21 221.59, 32 224.62 C8.78 225.07, -3.3 213.23, 0 192.62 C-4 155.82, 0.72 118.42, 0 32 C0.62 8.54, 13.56 2.44, 32 0" stroke="none" stroke-width="0" fill="#ffec99"/><path d="M32 0 C96.77 -2.78, 165 -2.8, 304.92 0 M304.92 0 C327.06 0.35, 335.89 8.86, 336.92 32 M336.92 32 C338.62 96.6, 336.52 157.91, 336.92 192.62 M336.92 192.62 C338.89 213.96, 325.31 224.7, 304.92 224.62 M304.92 224.62 C229.61 224.91, 156.57 226.76, 32 224.62 M32 224.62 C11.32 226.44, 1.45 214.28, 0 192.62 M0 192.62 C-1.75 138.13, -2.06 79.96, 0 32 M0 32 C-1.64 10.19, 12.11 -1.94, 32 0" stroke="#1e1e1e" stroke-width="2.5" fill="none" stroke-dasharray="8 10"/></g><g stroke-linecap="round" transform="translate(284.899167647729 246.15384615384608) rotate(0 16.538461538461434 70)"><path d="M2.2 1.91 C2.2 1.91, 2.2 1.91, 2.2 1.91 M2.2 1.91 C2.2 1.91, 2.2 1.91, 2.2 1.91 M0.37 16.22 C3.91 11.11, 12.34 5.08, 14.14 0.37 M0.37 16.22 C2.45 13.18, 6.7 9.33, 14.14 0.37 M0.5 28.26 C9.31 19.3, 15.72 11.76, 24.12 1.09 M0.5 28.26 C6.32 21.71, 13.82 14.73, 24.12 1.09 M0.63 40.3 C12.15 27.04, 22.44 13.93, 32.12 4.07 M0.63 40.3 C12.9 26.7, 22.35 14.53, 32.12 4.07 M0.11 53.1 C9.04 42.6, 15.05 33.15, 33.57 14.61 M0.11 53.1 C6.96 45.87, 14.89 37.55, 33.57 14.61 M0.24 65.14 C13.92 49.86, 26.52 37.1, 33.7 26.65 M0.24 65.14 C10.41 53.56, 20.28 42.44, 33.7 26.65 M0.38 77.18 C11.33 64.83, 20.96 52.36, 33.18 39.44 M0.38 77.18 C8.68 69.05, 17.2 59.43, 33.18 39.44 M0.51 89.22 C12.75 74.5, 26.61 62.39, 33.31 51.48 M0.51 89.22 C13.25 76.48, 23.84 60.98, 33.31 51.48 M0.64 101.26 C7.92 92.51, 15.38 82.37, 33.44 63.52 M0.64 101.26 C8.97 90.64, 19.09 81.08, 33.44 63.52 M0.12 114.05 C6.62 104.13, 18.55 95.13, 33.58 75.56 M0.12 114.05 C8.89 103.83, 18.29 94.01, 33.58 75.56 M0.25 126.1 C7.96 117.56, 19.28 105.65, 33.71 87.61 M0.25 126.1 C7.85 116.12, 17.69 105.12, 33.71 87.61 M1.7 136.63 C6.76 129.01, 13.83 120.17, 33.19 100.4 M1.7 136.63 C9.86 128.22, 17.46 117.88, 33.19 100.4 M9.05 140.37 C19.2 130.69, 28.13 121.88, 33.32 112.44 M9.05 140.37 C19.32 129.63, 28.47 118.11, 33.32 112.44 M19.68 140.33 C23.03 136.38, 28.24 131.07, 33.45 124.48 M19.68 140.33 C22.19 136.28, 25.14 132.56, 33.45 124.48" stroke="#e9ecef" stroke-width="1" fill="none"/><path d="M8.27 0 C16.14 -1.13, 21.38 0.41, 24.81 0 M8.27 0 C12.46 0.04, 17.13 0.53, 24.81 0 M24.81 0 C29.77 0.01, 35.05 2.77, 33.08 8.27 M24.81 0 C29.23 0.09, 32.4 1.19, 33.08 8.27 M33.08 8.27 C31.16 55.2, 32.58 102.49, 33.08 131.73 M33.08 8.27 C33.96 54.71, 32.95 100.96, 33.08 131.73 M33.08 131.73 C32.1 136.52, 28.68 139.52, 24.81 140 M33.08 131.73 C34.74 135.01, 32.05 141.61, 24.81 140 M24.81 140 C18.71 141.22, 11.19 138.5, 8.27 140 M24.81 140 C20.88 140.52, 17.59 139.8, 8.27 140 M8.27 140 C4.22 139.25, 1.33 136.53, 0 131.73 M8.27 140 C1.29 140.9, 0.91 137.15, 0 131.73 M0 131.73 C-1.09 99.95, -1.24 70.05, 0 8.27 M0 131.73 C0.49 106.2, -0.67 80.62, 0 8.27 M0 8.27 C0.8 3.81, 3.1 -1.18, 8.27 0 M0 8.27 C1.85 4.32, 4 -2.21, 8.27 0" stroke="#1e1e1e" stroke-width="2" fill="none"/></g><g stroke-linecap="round" transform="translate(436.82224457080565 246.92307692307696) rotate(0 16.538461538461434 70)"><path d="M2.2 1.91 C2.2 1.91, 2.2 1.91, 2.2 1.91 M2.2 1.91 C2.2 1.91, 2.2 1.91, 2.2 1.91 M0.37 16.22 C5.05 13.32, 5.02 10.36, 14.14 0.37 M0.37 16.22 C4.41 12.12, 7.76 8.26, 14.14 0.37 M0.5 28.26 C7.8 20.77, 13.23 11.47, 24.12 1.09 M0.5 28.26 C9.81 19.3, 18.1 8.19, 24.12 1.09 M0.63 40.3 C9.31 28.87, 20.14 18.87, 32.12 4.07 M0.63 40.3 C9.66 28.92, 20.34 16.55, 32.12 4.07 M0.11 53.1 C9.2 39.88, 19.7 27.36, 33.57 14.61 M0.11 53.1 C8.61 44.26, 16.67 34.09, 33.57 14.61 M0.24 65.14 C11.29 54.26, 21.46 41.78, 33.7 26.65 M0.24 65.14 C9.24 55.18, 18.7 43.63, 33.7 26.65 M0.38 77.18 C9.91 64.88, 17.97 53.65, 33.18 39.44 M0.38 77.18 C7.77 69.32, 14.85 61.56, 33.18 39.44 M0.51 89.22 C9.79 81.8, 16.86 70.05, 33.31 51.48 M0.51 89.22 C8.59 77.53, 17.7 67.53, 33.31 51.48 M0.64 101.26 C12.16 86.1, 23.5 73.87, 33.44 63.52 M0.64 101.26 C9.28 92.53, 15.56 83.54, 33.44 63.52 M0.12 114.05 C9.44 105.68, 13.93 97.58, 33.58 75.56 M0.12 114.05 C10.06 103.43, 18.3 93.32, 33.58 75.56 M0.25 126.1 C11.65 114.57, 19.72 104.2, 33.71 87.61 M0.25 126.1 C9.9 114.7, 18.16 104.51, 33.71 87.61 M1.7 136.63 C13.45 121.08, 25.86 108.85, 33.19 100.4 M1.7 136.63 C10.87 125.24, 21.06 114.18, 33.19 100.4 M9.05 140.37 C19.43 131.64, 28.98 117.71, 33.32 112.44 M9.05 140.37 C15.05 132.98, 20.11 126.56, 33.32 112.44 M19.68 140.33 C25.81 133.87, 27.95 128.99, 33.45 124.48 M19.68 140.33 C23.7 134.43, 30.02 129.06, 33.45 124.48" stroke="#e9ecef" stroke-width="1" fill="none"/><path d="M8.27 0 C12.67 0.41, 14.88 -1.37, 24.81 0 M8.27 0 C15.39 0.65, 21 -0.04, 24.81 0 M24.81 0 C32.29 0.01, 32.13 2.84, 33.08 8.27 M24.81 0 C29.65 -1.57, 34.78 0.63, 33.08 8.27 M33.08 8.27 C33.25 37, 34.05 62.42, 33.08 131.73 M33.08 8.27 C33.58 52.03, 33.42 93.95, 33.08 131.73 M33.08 131.73 C31.43 136.77, 31.77 138.06, 24.81 140 M33.08 131.73 C34.8 138.85, 32.34 140.94, 24.81 140 M24.81 140 C20.36 138.76, 16.42 141.19, 8.27 140 M24.81 140 C21.88 140.08, 18.38 139.82, 8.27 140 M8.27 140 C4.08 139.29, -1.27 138.03, 0 131.73 M8.27 140 C3.67 139.91, -1.13 137.61, 0 131.73 M0 131.73 C-0.49 106.36, -1.28 80.08, 0 8.27 M0 131.73 C-1.22 102.84, 0.09 73.77, 0 8.27 M0 8.27 C0.35 1.58, 4.36 1.36, 8.27 0 M0 8.27 C1.24 0.54, 2.66 -1.71, 8.27 0" stroke="#1e1e1e" stroke-width="2" fill="none"/></g><g stroke-linecap="round" transform="translate(317.97609072465207 306.1538461538461) rotate(0 59.23076923076917 8.461538461538481)"><path d="M4.23 0 C30.59 -2.45, 61.75 0.59, 114.23 0 C114.8 -0.69, 119.44 -1.14, 118.46 4.23 C117 7.96, 119.48 11.08, 118.46 12.69 C115.63 17.66, 115.6 13.77, 114.23 16.92 C77 18.27, 38.69 19.92, 4.23 16.92 C0.37 18.16, 0.54 14.22, 0 12.69 C1.08 11.69, 1.38 9.36, 0 4.23 C-1.5 1.12, 1.95 -1.02, 4.23 0" stroke="none" stroke-width="0" fill="#1e1e1e"/><path d="M4.23 0 C27.85 -2, 55.37 0, 114.23 0 M4.23 0 C39.53 -0.91, 76.36 -0.9, 114.23 0 M114.23 0 C116.11 0.08, 117.88 0.05, 118.46 4.23 M114.23 0 C118.76 -2.12, 116.57 0.52, 118.46 4.23 M118.46 4.23 C119.1 7.22, 118.9 10.5, 118.46 12.69 M118.46 4.23 C118.23 7.01, 118.09 9.99, 118.46 12.69 M118.46 12.69 C119.91 13.57, 118.55 18.32, 114.23 16.92 M118.46 12.69 C120.49 16.45, 115.25 17.36, 114.23 16.92 M114.23 16.92 C70.94 17.29, 28.48 15.94, 4.23 16.92 M114.23 16.92 C73.09 16.47, 31.15 16.49, 4.23 16.92 M4.23 16.92 C0.14 17.7, 0.8 15.43, 0 12.69 M4.23 16.92 C0.28 17.29, -2.13 14.48, 0 12.69 M0 12.69 C-0.73 10.33, -0.49 8.52, 0 4.23 M0 12.69 C0.25 10.21, 0.15 7.03, 0 4.23 M0 4.23 C1.61 2.77, 2.49 -1.93, 4.23 0 M0 4.23 C-0.1 -0.3, 0.11 0.44, 4.23 0" stroke="#1e1e1e" stroke-width="2" fill="none"/></g><g stroke-linecap="round" transform="translate(336.4376291861904 271.5384615384615) rotate(0 15.769230769230717 46.53846153846152)"><path d="M7.88 0 C14.34 0.29, 18.26 1.36, 23.65 0 M23.65 0 C30.56 -0.55, 31.55 4.6, 31.54 7.88 M31.54 7.88 C30.59 29.76, 32.66 52.51, 31.54 85.19 M31.54 85.19 C29.9 89.68, 29.64 93.73, 23.65 93.08 M23.65 93.08 C18.25 94.17, 12.05 92.58, 7.88 93.08 M7.88 93.08 C4.11 92.1, -0.72 88.8, 0 85.19 M0 85.19 C0.94 65.24, 1.2 43.3, 0 7.88 M0 7.88 C-1.57 3.01, 4.27 -0.95, 7.88 0" stroke="#e03131" stroke-width="2.5" fill="none" stroke-dasharray="8 10"/></g><g stroke-linecap="round" transform="translate(387.5914753400368 269.6153846153846) rotate(0 15.769230769230717 46.53846153846152)"><path d="M2.1 1.82 C2.1 1.82, 2.1 1.82, 2.1 1.82 M2.1 1.82 C2.1 1.82, 2.1 1.82, 2.1 1.82 M0.26 16.13 C5.88 11.46, 9.91 5.58, 13.38 1.04 M0.26 16.13 C4.37 11.34, 9.18 5.6, 13.38 1.04 M0.4 28.17 C7.51 23.09, 13.64 16.13, 24.01 1 M0.4 28.17 C6.24 20.88, 12.15 14.68, 24.01 1 M0.53 40.21 C8.05 28.08, 18.38 18.86, 31.36 4.74 M0.53 40.21 C8.51 29.5, 17.05 19.54, 31.36 4.74 M0.66 52.25 C9.62 44.85, 16.58 36.75, 31.5 16.78 M0.66 52.25 C6.97 44.75, 14.58 36.83, 31.5 16.78 M0.8 64.29 C11.8 51.53, 23.78 39.62, 31.63 28.82 M0.8 64.29 C8.89 54.62, 16.89 44.24, 31.63 28.82 M0.93 76.33 C8.99 70.18, 14.35 63.39, 31.76 40.86 M0.93 76.33 C11.29 65.06, 22.83 52.68, 31.76 40.86 M0.41 89.13 C8.66 79.95, 11.46 72.61, 31.9 52.9 M0.41 89.13 C7.88 80.17, 14.79 71.11, 31.9 52.9 M7.76 92.87 C13.23 86.84, 21.06 76.38, 32.03 64.94 M7.76 92.87 C13.91 86.77, 20.43 78.22, 32.03 64.94 M18.39 92.83 C21.64 89.88, 25.84 83.5, 31.51 77.74 M18.39 92.83 C23.82 88.31, 27.56 82.15, 31.51 77.74" stroke="#ffc9c9" stroke-width="1" fill="none"/><path d="M7.88 0 C11.56 1.21, 15.8 -0.45, 23.65 0 M7.88 0 C12.25 0.03, 17.13 -0.54, 23.65 0 M23.65 0 C30.39 -1.85, 29.9 1.86, 31.54 7.88 M23.65 0 C29.75 0.75, 33.64 4.29, 31.54 7.88 M31.54 7.88 C32.84 31.69, 33.39 55.84, 31.54 85.19 M31.54 7.88 C31.63 27.31, 31.65 49.37, 31.54 85.19 M31.54 85.19 C33.3 91.26, 27.34 93.46, 23.65 93.08 M31.54 85.19 C33.42 89.36, 27 91.6, 23.65 93.08 M23.65 93.08 C19.19 94.19, 12.06 94.23, 7.88 93.08 M23.65 93.08 C19.01 93.33, 15.69 92.99, 7.88 93.08 M7.88 93.08 C1.64 93.4, -1.85 89.55, 0 85.19 M7.88 93.08 C1.69 91.87, 0.29 88.34, 0 85.19 M0 85.19 C0.89 61.72, 1.18 42.68, 0 7.88 M0 85.19 C0.67 58.61, 0.4 29.72, 0 7.88 M0 7.88 C-0.09 1.14, 1.5 0.39, 7.88 0 M0 7.88 C-0.88 2.25, 4.65 -1.55, 7.88 0" stroke="#e03131" stroke-width="2" fill="none"/></g><g stroke-linecap="round"><g transform="translate(478.67029408733515 154.85319656824055) rotate(270 0 107.57692307692304)"><path d="M0.93 0.99 C0.85 36.81, -0.37 179.46, -0.33 215.16 M-0.04 0.47 C-0.31 36.46, -1.63 180.7, -1.45 216.7" stroke="#e03131" stroke-width="2" fill="none"/></g></g><mask/><g stroke-linecap="round" transform="translate(522.8205939277293 208.04517343366348) rotate(270 11.562827225130803 54.78205128205133)"><path d="M1.54 1.34 C1.54 1.34, 1.54 1.34, 1.54 1.34 M1.54 1.34 C1.54 1.34, 1.54 1.34, 1.54 1.34 M0.36 14.89 C5.12 9.91, 10.14 4.8, 12.83 0.55 M0.36 14.89 C3.96 10.69, 8.12 6.07, 12.83 0.55 M0.49 26.93 C7.17 17.75, 16.05 8.44, 21.49 2.78 M0.49 26.93 C6.23 20.39, 13.14 12.9, 21.49 2.78 M-0.03 39.72 C4.31 34.67, 10.29 27.64, 23.59 12.55 M-0.03 39.72 C4.79 33.22, 10.25 28.45, 23.59 12.55 M0.1 51.77 C6.71 42.3, 17.4 31.71, 23.72 24.6 M0.1 51.77 C8.17 42.61, 15.58 34.02, 23.72 24.6 M0.24 63.81 C6.23 55.82, 14.21 47.6, 23.85 36.64 M0.24 63.81 C6.84 54.56, 15.15 47.74, 23.85 36.64 M0.37 75.85 C9.45 64.71, 17.08 55.68, 23.99 48.68 M0.37 75.85 C8.41 64.94, 19.01 55.51, 23.99 48.68 M0.5 87.89 C4.73 83.37, 10.58 76.33, 23.46 61.47 M0.5 87.89 C7.09 79.71, 13.36 72.07, 23.46 61.47 M-0.02 100.68 C8.2 88.74, 16.11 79.39, 23.6 73.51 M-0.02 100.68 C9.16 89.9, 18.54 79.2, 23.6 73.51 M3.39 108.95 C11.83 100.32, 17.35 93.5, 23.73 85.55 M3.39 108.95 C11.37 100.36, 17.03 92.3, 23.73 85.55 M12.71 110.43 C15.69 108.23, 18.29 102.84, 23.86 97.6 M12.71 110.43 C15.95 107.21, 18.69 104.66, 23.86 97.6" stroke="#ffc9c9" stroke-width="1" fill="none"/><path d="M5.78 0 C10.15 1.17, 14.52 -0.51, 17.34 0 M5.78 0 C9.73 -0.46, 12.34 -0.14, 17.34 0 M17.34 0 C21.93 0.65, 24.95 3.37, 23.13 5.78 M17.34 0 C21.58 1.11, 24.68 3, 23.13 5.78 M23.13 5.78 C23.13 30.3, 23.38 59.56, 23.13 103.78 M23.13 5.78 C24.74 26.07, 23.08 45.74, 23.13 103.78 M23.13 103.78 C24.76 106.69, 19.54 108.28, 17.34 109.56 M23.13 103.78 C24.6 105.63, 21.12 111.42, 17.34 109.56 M17.34 109.56 C12.62 110.42, 8.35 108.91, 5.78 109.56 M17.34 109.56 C13.14 109.65, 8.97 109.3, 5.78 109.56 M5.78 109.56 C1.11 108.52, 0.25 105.8, 0 103.78 M5.78 109.56 C1.47 108.11, 0.57 108.09, 0 103.78 M0 103.78 C0.71 83.66, -1.52 64.45, 0 5.78 M0 103.78 C-0.57 66.99, -1.09 31.88, 0 5.78 M0 5.78 C-0.77 1.6, 3.68 -1.34, 5.78 0 M0 5.78 C-0.45 1.91, 3.42 -1.44, 5.78 0" stroke="#e03131" stroke-width="2" fill="none"/></g><g stroke-linecap="round"><g transform="translate(577.144309781437 262.48285759627305) rotate(270 10.740740740740762 0)"><path d="M0.54 0 C4.1 0.01, 17.76 0.09, 21.22 0.02 M0.16 -0.47 C3.64 -0.37, 17.2 0.65, 20.66 0.73" stroke="#e03131" stroke-width="2" fill="none"/></g></g><mask/><g stroke-linecap="round" transform="translate(372.2792919323997 256.69612371004547) rotate(0 5.384615384615358 15)"><path d="M0.72 0.62 C0.72 0.62, 0.72 0.62, 0.72 0.62 M0.72 0.62 C0.72 0.62, 0.72 0.62, 0.72 0.62 M0.19 13.42 C3.47 9.63, 7.32 5.04, 10.69 1.34 M0.19 13.42 C3.02 10.79, 5.64 7.79, 10.69 1.34 M0.33 25.46 C2.82 22.15, 5.38 19.68, 10.82 13.38 M0.33 25.46 C3.05 21.64, 6.34 18.39, 10.82 13.38 M7.02 29.95 C7.96 28.46, 9.05 27.16, 10.96 25.42 M7.02 29.95 C8.08 28.94, 9 27.88, 10.96 25.42" stroke="#ffc9c9" stroke-width="1" fill="none"/><path d="M2.69 0 C4.85 -0.07, 6.8 0.21, 8.08 0 M2.69 0 C3.86 0.05, 5.05 0.11, 8.08 0 M8.08 0 C10.04 0.48, 11.45 1.36, 10.77 2.69 M8.08 0 C9.49 0.85, 10.21 0.48, 10.77 2.69 M10.77 2.69 C9.77 8.8, 11.44 14.29, 10.77 27.31 M10.77 2.69 C11.08 10.84, 10.26 19.15, 10.77 27.31 M10.77 27.31 C11.41 28.23, 9.84 30.81, 8.08 30 M10.77 27.31 C11.59 29.02, 10.72 29.57, 8.08 30 M8.08 30 C6.21 30.09, 4.12 29.85, 2.69 30 M8.08 30 C6.32 29.92, 4.69 29.86, 2.69 30 M2.69 30 C0.7 29.37, 0.25 29.3, 0 27.31 M2.69 30 C-0.15 30.4, 0.46 29.71, 0 27.31 M0 27.31 C0.75 20.04, -0.89 11.64, 0 2.69 M0 27.31 C-0.12 21.68, 0.51 15.87, 0 2.69 M0 2.69 C-0.2 0.89, 1.54 -0.62, 2.69 0 M0 2.69 C-0.22 1.21, 0.08 0.87, 2.69 0" stroke="#e03131" stroke-width="2" fill="none"/></g><g stroke-linecap="round" transform="translate(423.81775347086113 256.31150832543005) rotate(0 5.384615384615358 15)"><path d="M0.72 0.62 C0.72 0.62, 0.72 0.62, 0.72 0.62 M0.72 0.62 C0.72 0.62, 0.72 0.62, 0.72 0.62 M0.19 13.42 C4.31 8.53, 7.72 4.71, 10.69 1.34 M0.19 13.42 C3.07 10.66, 5.06 7.5, 10.69 1.34 M0.33 25.46 C3.27 22.14, 6.81 18.08, 10.82 13.38 M0.33 25.46 C4.58 20.56, 8.48 16.14, 10.82 13.38 M7.02 29.95 C8.19 28.19, 9.48 26.76, 10.96 25.42 M7.02 29.95 C8.09 28.87, 8.95 27.59, 10.96 25.42" stroke="#ffc9c9" stroke-width="1" fill="none"/><path d="M2.69 0 C3.87 0.21, 5.17 -0.21, 8.08 0 M2.69 0 C4.22 0.09, 5.53 0.06, 8.08 0 M8.08 0 C10.55 0.46, 10.44 1.64, 10.77 2.69 M8.08 0 C9.31 -0.42, 9.82 0.62, 10.77 2.69 M10.77 2.69 C11.35 12.74, 11.06 20.24, 10.77 27.31 M10.77 2.69 C10.45 10.23, 11.19 17.97, 10.77 27.31 M10.77 27.31 C10.74 29.91, 10.58 29.93, 8.08 30 M10.77 27.31 C11.61 28.67, 10.64 29.59, 8.08 30 M8.08 30 C6.79 29.88, 5.58 29.76, 2.69 30 M8.08 30 C6.72 29.86, 5.3 29.9, 2.69 30 M2.69 30 C1.15 30.2, -0.91 29.45, 0 27.31 M2.69 30 C1.35 30.6, 0.2 28.42, 0 27.31 M0 27.31 C-1.05 17.9, -0.83 8.02, 0 2.69 M0 27.31 C0.49 19.11, -0.05 11.58, 0 2.69 M0 2.69 C0.65 0.27, 0.71 0.27, 2.69 0 M0 2.69 C-0.82 1.76, -0.04 -0.91, 2.69 0" stroke="#e03131" stroke-width="2" fill="none"/></g></svg>