<svg version="1.1" xmlns="http://www.w3.org/2000/svg" viewBox="0 0 518 267" width="518" height="267">
  <!-- svg-source:excalidraw -->
  
  <defs>
    <style class="style-fonts">
      @font-face {
        font-family: "Virgil";
        src: url("https://excalidraw.com/Virgil.woff2");
      }
      @font-face {
        font-family: "Cascadia";
        src: url("https://excalidraw.com/Cascadia.woff2");
      }
      @font-face {
        font-family: "Assistant";
        src: url("https://excalidraw.com/Assistant-Regular.woff2");
      }
    </style>
    
  </defs>
  <rect x="0" y="0" width="518" height="267" fill="#ffffff"></rect><g transform="translate(466 117) rotate(0 -54 38.5)" stroke="none"><path fill="#e9ecef" d="M 2.54,-0.42 Q 2.54,-0.42 2.76,1.31 2.98,3.04 3.09,4.75 3.20,6.45 3.37,8.47 3.54,10.48 3.62,12.27 3.69,14.05 3.32,15.18 2.95,16.31 2.51,17.87 2.07,19.42 1.10,21.09 0.13,22.77 -1.11,25.54 -2.35,28.31 -3.54,30.00 -4.74,31.69 -5.26,33.14 -5.78,34.58 -6.69,35.65 -7.60,36.73 -9.01,37.80 -10.41,38.87 -11.20,39.99 -11.99,41.11 -13.31,42.11 -14.62,43.12 -16.03,44.01 -17.43,44.91 -18.39,45.91 -19.35,46.90 -21.33,48.99 -23.30,51.07 -24.23,52.44 -25.16,53.80 -26.96,55.39 -28.76,56.98 -29.71,57.81 -30.66,58.63 -31.78,59.83 -32.90,61.02 -34.14,61.35 -35.38,61.67 -36.59,62.45 -37.80,63.22 -39.22,64.63 -40.64,66.04 -41.51,67.01 -42.37,67.99 -43.58,68.98 -44.78,69.97 -45.97,71.12 -47.16,72.27 -48.46,73.21 -49.77,74.15 -50.49,74.97 -51.21,75.78 -52.10,76.64 -52.99,77.51 -55.41,78.18 -57.84,78.85 -59.33,78.88 -60.83,78.92 -62.02,78.94 -63.21,78.95 -64.93,79.00 -66.64,79.05 -67.89,79.03 -69.15,79.00 -70.25,79.00 -71.36,79.00 -73.42,79.00 -75.49,79.01 -76.81,78.98 -78.13,78.95 -79.42,78.60 -80.72,78.25 -82.63,77.80 -84.55,77.35 -86.10,76.77 -87.65,76.20 -88.75,76.20 -89.84,76.21 -91.01,76.21 -92.17,76.20 -93.77,76.58 -95.36,76.95 -96.85,77.43 -98.33,77.91 -99.82,78.41 -101.31,78.92 -103.21,79.43 -105.11,79.95 -106.89,79.49 -108.67,79.03 -109.81,77.56 -110.95,76.08 -111.32,74.67 -111.68,73.26 -111.86,71.06 -112.04,68.85 -112.05,67.74 -112.06,66.64 -112.04,64.28 -112.01,61.93 -112.05,60.43 -112.09,58.93 -111.74,57.43 -111.39,55.93 -111.29,54.78 -111.19,53.64 -111.15,51.71 -111.10,49.77 -111.00,48.11 -110.90,46.45 -110.57,43.86 -110.23,41.27 -109.75,39.32 -109.27,37.37 -109.17,35.82 -109.07,34.27 -108.69,31.75 -108.30,29.23 -108.12,27.18 -107.94,25.12 -108.08,23.58 -108.22,22.04 -109.15,20.56 -110.08,19.08 -110.58,18.12 -111.07,17.15 -111.33,15.94 -111.59,14.72 -111.74,13.03 -111.89,11.34 -111.96,10.10 -112.03,8.85 -112.09,7.30 -112.16,5.74 -111.79,3.88 -111.41,2.02 -109.32,0.36 -107.22,-1.30 -107.05,0.17 -106.87,1.64 -106.60,1.36 -106.33,1.09 -106.00,0.89 -105.68,0.68 -105.31,0.56 -104.94,0.44 -104.56,0.42 -104.17,0.39 -103.79,0.46 -103.41,0.52 -103.06,0.67 -102.71,0.83 -102.40,1.06 -102.10,1.30 -101.85,1.60 -101.61,1.90 -101.45,2.25 -101.29,2.60 -101.22,2.98 -101.14,3.36 -101.16,3.74 -101.18,4.13 -101.29,4.50 -101.40,4.86 -101.60,5.20 -101.79,5.53 -101.57,3.99 -101.34,2.46 -101.24,2.96 -101.14,3.47 -101.20,3.98 -101.27,4.50 -101.49,4.96 -101.72,5.43 -102.08,5.80 -102.44,6.16 -102.91,6.40 -103.37,6.63 -103.88,6.71 -104.39,6.78 -104.90,6.69 -105.41,6.59 -105.86,6.34 -106.31,6.09 -106.66,5.71 -107.01,5.33 -107.22,4.85 -107.43,4.38 -107.47,3.87 -107.52,3.35 -107.40,2.85 -107.28,2.34 -107.00,1.91 -106.73,1.47 -106.33,1.14 -105.93,0.81 -105.44,0.63 -104.96,0.45 -104.44,0.43 -103.93,0.41 -103.43,0.56 -102.93,0.71 -102.51,1.01 -102.09,1.30 -101.78,1.72 -101.48,2.14 -101.32,2.63 -101.17,3.13 -101.18,3.64 -101.19,4.16 -101.36,4.65 -101.54,5.13 -101.86,5.54 -102.18,5.95 -102.61,6.23 -103.04,6.51 -103.55,6.64 -104.05,6.77 -104.56,6.73 -105.08,6.69 -105.55,6.49 -106.03,6.29 -106.42,5.95 -106.81,5.61 -106.84,3.62 -106.87,1.64 -106.60,1.36 -106.33,1.09 -106.00,0.89 -105.68,0.68 -105.31,0.56 -104.94,0.44 -104.56,0.42 -104.17,0.39 -103.79,0.46 -103.41,0.52 -103.06,0.67 -102.71,0.83 -102.40,1.06 -102.10,1.30 -101.85,1.60 -101.61,1.90 -101.45,2.25 -101.29,2.60 -101.22,2.98 -101.14,3.36 -101.16,3.74 -101.18,4.13 -101.29,4.49 -101.40,4.86 -101.60,5.20 -101.79,5.53 -103.80,5.17 -105.81,4.80 -105.86,6.28 -105.91,7.76 -105.95,8.84 -105.99,9.91 -106.01,11.32 -106.03,12.73 -105.87,14.32 -105.71,15.92 -104.80,17.24 -103.90,18.56 -103.44,19.90 -102.98,21.24 -102.60,23.28 -102.21,25.31 -102.39,27.94 -102.57,30.56 -102.84,32.60 -103.10,34.64 -103.19,35.75 -103.27,36.87 -103.50,38.12 -103.72,39.37 -104.17,40.95 -104.61,42.53 -104.86,44.50 -105.10,46.47 -105.01,48.14 -104.91,49.82 -104.90,51.07 -104.88,52.31 -105.00,53.97 -105.12,55.62 -105.51,57.29 -105.90,58.97 -105.93,60.44 -105.97,61.91 -105.92,64.22 -105.87,66.53 -105.79,68.58 -105.71,70.64 -105.33,72.07 -104.94,73.50 -103.43,73.01 -101.92,72.52 -100.35,72.02 -98.78,71.53 -96.96,71.02 -95.14,70.52 -93.62,70.17 -92.11,69.82 -90.76,69.89 -89.42,69.97 -88.32,70.06 -87.23,70.14 -85.76,70.69 -84.29,71.23 -82.75,71.71 -81.21,72.19 -79.62,72.62 -78.03,73.04 -76.76,73.01 -75.49,72.98 -73.43,72.99 -71.36,72.99 -70.26,72.98 -69.16,72.98 -67.91,72.95 -66.67,72.93 -65.02,72.94 -63.36,72.95 -62.25,72.91 -61.13,72.87 -59.90,72.77 -58.66,72.67 -57.35,72.59 -56.04,72.51 -55.12,71.66 -54.20,70.82 -53.19,69.95 -52.18,69.08 -50.99,68.02 -49.80,66.95 -48.21,65.68 -46.62,64.41 -44.71,62.41 -42.81,60.41 -42.08,59.53 -41.36,58.64 -40.03,57.70 -38.71,56.77 -37.15,56.59 -35.58,56.40 -34.93,55.52 -34.28,54.64 -33.16,53.63 -32.04,52.61 -31.14,51.95 -30.25,51.30 -29.25,50.29 -28.25,49.29 -27.47,48.31 -26.68,47.34 -25.64,46.36 -24.59,45.38 -23.94,44.38 -23.28,43.38 -21.97,41.86 -20.66,40.35 -19.42,39.40 -18.19,38.45 -16.92,37.34 -15.65,36.23 -14.87,35.29 -14.10,34.34 -13.15,33.53 -12.20,32.73 -11.38,31.80 -10.56,30.86 -9.55,28.86 -8.54,26.86 -7.24,25.28 -5.94,23.70 -5.75,22.43 -5.57,21.15 -4.77,19.78 -3.98,18.40 -3.30,17.35 -2.63,16.30 -2.17,15.07 -1.70,13.84 -1.66,12.22 -1.61,10.60 -1.59,8.71 -1.57,6.82 -1.70,5.33 -1.83,3.85 -2.18,2.13 -2.54,0.42 -2.55,0.11 -2.57,-0.19 -2.50,-0.50 -2.44,-0.80 -2.31,-1.08 -2.18,-1.36 -1.98,-1.61 -1.79,-1.85 -1.54,-2.03 -1.29,-2.22 -1.01,-2.34 -0.72,-2.47 -0.42,-2.52 -0.11,-2.57 0.19,-2.55 0.50,-2.52 0.80,-2.43 1.09,-2.33 1.35,-2.16 1.62,-2.00 1.83,-1.77 2.05,-1.55 2.21,-1.28 2.36,-1.01 2.45,-0.72 2.54,-0.42 2.54,-0.42 L 2.54,-0.42 Z"></path></g><g stroke-linecap="round"><g transform="translate(358 115) rotate(0 52 36)"><path d="M0 0 C-2.23 29.3, -0.5 57.36, -3 77 M0 0 C-0.56 28.46, -3.04 57.59, -3 77 M-3 77 C20.99 77.55, 41.4 74.72, 54 75 M-3 77 C12.03 75.6, 26.64 75.61, 54 75 M54 75 C66.75 62.61, 78.66 54.37, 106 28 M54 75 C70.12 59.82, 87.38 46.02, 106 28 M106 28 C107.88 22.09, 105.01 15.6, 107 -5 M106 28 C105.7 16, 107.07 4.09, 107 -5" stroke="#1e1e1e" stroke-width="1" fill="none"></path></g></g><mask></mask><g stroke-linecap="round" transform="translate(17 61) rotate(0 41 41)"><path d="M36.38 0.94 C43.33 -0.32, 51.98 1.05, 58.59 4.16 C65.2 7.27, 72.05 13.24, 76.03 19.61 C80 25.99, 82.49 34.9, 82.45 42.4 C82.4 49.91, 79.95 58.63, 75.77 64.66 C71.59 70.69, 64.48 75.95, 57.36 78.58 C50.23 81.21, 40.26 81.73, 33.02 80.43 C25.78 79.13, 19.09 75.76, 13.93 70.78 C8.76 65.8, 3.91 57.56, 2.03 50.57 C0.15 43.58, 0.48 35.85, 2.66 28.85 C4.83 21.85, 9.04 13.23, 15.06 8.56 C21.09 3.89, 34.77 2.23, 38.8 0.84 C42.83 -0.54, 39.34 -0.34, 39.26 0.26 M44.9 0.95 C51.78 1.16, 59.07 5.44, 64.96 9.67 C70.86 13.89, 77.55 19.66, 80.27 26.31 C83 32.95, 83.31 42.13, 81.31 49.53 C79.31 56.94, 73.84 65.59, 68.27 70.76 C62.69 75.93, 54.68 79.13, 47.86 80.55 C41.04 81.96, 33.8 81.98, 27.36 79.23 C20.91 76.49, 13.95 70, 9.2 64.08 C4.45 58.15, -0.55 51.09, -1.14 43.68 C-1.74 36.27, 1.77 26.09, 5.64 19.61 C9.52 13.14, 15.51 7.85, 22.1 4.82 C28.69 1.79, 41.29 2.2, 45.19 1.43 C49.1 0.66, 45.58 -0.35, 45.52 0.2" stroke="none" stroke-width="0" fill="#ffc9c9"></path><path d="M22.67 4.55 C28.79 1, 38.26 0.45, 45.47 1.05 C52.68 1.65, 60.07 3.59, 65.92 8.16 C71.78 12.74, 78.22 21.26, 80.61 28.49 C83 35.72, 82.06 44.56, 80.27 51.56 C78.48 58.56, 75.18 65.4, 69.87 70.5 C64.56 75.59, 55.65 80.58, 48.43 82.13 C41.22 83.68, 33.29 82.79, 26.58 79.8 C19.88 76.81, 12.5 70.17, 8.21 64.18 C3.91 58.19, 1.28 51.28, 0.84 43.86 C0.4 36.44, 1.1 26.45, 5.56 19.67 C10.03 12.89, 23.15 6.11, 27.64 3.2 C32.12 0.3, 32.5 1.65, 32.46 2.24 M40.89 -0.63 C47.95 -1.06, 57.36 2.21, 63.57 6.28 C69.78 10.35, 75.23 16.81, 78.18 23.79 C81.12 30.77, 82.36 40.52, 81.22 48.17 C80.08 55.83, 76.16 64.57, 71.31 69.73 C66.47 74.89, 59.09 77.24, 52.15 79.13 C45.21 81.02, 36.73 83.16, 29.67 81.09 C22.6 79.02, 14.69 72.55, 9.76 66.71 C4.84 60.86, 0.92 53.17, 0.11 45.99 C-0.7 38.82, 1.74 30.4, 4.91 23.67 C8.08 16.94, 13.19 9.45, 19.12 5.61 C25.05 1.76, 36.81 1.5, 40.49 0.6 C44.17 -0.3, 41.24 -0.32, 41.18 0.22" stroke="#1e1e1e" stroke-width="1" fill="none"></path></g><g stroke-linecap="round" transform="translate(10 71) rotate(0 13 18.5)"><path d="M0 0 C0 0, 0 0, 0 0 M0 0 C0 0, 0 0, 0 0 M-0.26 6.4 C1.12 4.75, 2.63 2.35, 4.99 0.36 M-0.26 6.4 C1.49 4.02, 3.73 1.86, 4.99 0.36 M0.13 12.04 C3.94 8.36, 7.1 2.66, 10.63 -0.03 M0.13 12.04 C3.23 8.37, 6.47 5.27, 10.63 -0.03 M-0.13 18.44 C5.59 13.34, 9.27 6.17, 15.62 0.33 M-0.13 18.44 C4.81 13.12, 10.31 6.66, 15.62 0.33 M0.27 24.08 C6.26 17.62, 11.71 11, 21.26 -0.07 M0.27 24.08 C7.94 16.15, 14.97 7.86, 21.26 -0.07 M0 30.48 C5.53 24.57, 11.06 17.73, 26.25 0.29 M0 30.48 C7.48 21.53, 15.52 12.83, 26.25 0.29 M-0.26 36.88 C6.09 30.68, 11.81 23.9, 25.99 6.69 M-0.26 36.88 C7.29 28.09, 15.4 18.75, 25.99 6.69 M4.73 37.24 C9.58 32.14, 13.41 27.97, 26.38 12.33 M4.73 37.24 C11.73 28.71, 19.16 20.5, 26.38 12.33 M9.72 37.6 C13.72 33.02, 17.62 27.54, 26.12 18.73 M9.72 37.6 C13.48 32.36, 17.62 28.06, 26.12 18.73 M15.36 37.2 C18.34 33.81, 20.09 32.36, 26.51 24.37 M15.36 37.2 C17.64 34.27, 20.67 31.6, 26.51 24.37 M20.35 37.56 C21.67 36, 22.71 35.03, 26.25 30.77 M20.35 37.56 C22.64 35.1, 24.39 32.98, 26.25 30.77 M-0.21 36.82 C-0.21 36.82, -0.21 36.82, -0.21 36.82 M-0.21 36.82 C-0.21 36.82, -0.21 36.82, -0.21 36.82 M6.19 37.08 C4.55 35.45, 2.41 33.85, 0.15 31.83 M6.19 37.08 C4.8 36, 3.2 34.78, 0.15 31.83 M11.83 36.69 C8.34 33.81, 4.97 29.55, -0.24 26.19 M11.83 36.69 C7.75 33.16, 2.95 28.57, -0.24 26.19 M18.23 36.95 C14.43 33.84, 10.39 28.86, 0.12 21.2 M18.23 36.95 C12.15 30.98, 5.6 25.41, 0.12 21.2 M24.63 37.21 C17.67 31.08, 9.24 24.93, -0.28 15.56 M24.63 37.21 C17.69 30.98, 9.71 23.98, -0.28 15.56 M26.5 33.53 C20.61 27.02, 13.89 22.57, 0.08 10.57 M26.5 33.53 C19.2 27.12, 10.98 20.84, 0.08 10.57 M26.86 28.55 C18.63 21.71, 10.8 13.46, -0.31 4.93 M26.86 28.55 C21.29 22.78, 15.11 18.1, -0.31 4.93 M26.46 22.9 C18.41 16, 11.28 10.99, 0.05 -0.06 M26.46 22.9 C16.15 14.08, 5.1 4.54, 0.05 -0.06 M26.82 17.92 C19.39 11.03, 12.77 6.43, 6.45 0.2 M26.82 17.92 C21.15 13.04, 14.64 7.36, 6.45 0.2 M26.43 12.27 C20.73 8.29, 15.92 3.09, 12.09 -0.19 M26.43 12.27 C21.14 7.92, 15.29 3.14, 12.09 -0.19 M26.79 7.29 C24.34 5.11, 22.68 3.55, 18.49 0.07 M26.79 7.29 C24.05 5.07, 21.67 3.03, 18.49 0.07 M26.4 1.64 C25.55 0.93, 24.88 0.37, 24.13 -0.32 M26.4 1.64 C25.69 0.97, 24.92 0.43, 24.13 -0.32" stroke="#ced4da" stroke-width="0.5" fill="none"></path><path d="M0 0 C8.76 0.46, 17.12 0.51, 26 0 M0 0 C7.45 -0.57, 14.07 0.15, 26 0 M26 0 C26.42 13.21, 25.61 25.51, 26 37 M26 0 C26.05 9.62, 26.46 20.05, 26 37 M26 37 C18.52 37.69, 12.32 37.26, 0 37 M26 37 C15.24 37.33, 5.04 37.04, 0 37 M0 37 C1.01 28.97, 0.5 21.34, 0 0 M0 37 C-0.27 25.75, 0.06 14.79, 0 0" stroke="#1e1e1e" stroke-width="1" fill="none"></path></g><g stroke-linecap="round" transform="translate(473 54) rotate(0 9.5 13)"><path d="M4.75 0 C7.68 0, 10.6 0, 14.25 0 C17.42 0, 19 1.58, 19 4.75 C19 9.03, 19 13.31, 19 21.25 C19 24.42, 17.42 26, 14.25 26 C12.29 26, 10.33 26, 4.75 26 C1.58 26, 0 24.42, 0 21.25 C0 17.49, 0 13.73, 0 4.75 C0 1.58, 1.58 0, 4.75 0" stroke="none" stroke-width="0" fill="#ced4da"></path><path d="M4.75 0 C8.38 0, 12.02 0, 14.25 0 M4.75 0 C6.76 0, 8.76 0, 14.25 0 M14.25 0 C17.42 0, 19 1.58, 19 4.75 M14.25 0 C17.42 0, 19 1.58, 19 4.75 M19 4.75 C19 10.65, 19 16.56, 19 21.25 M19 4.75 C19 11.25, 19 17.75, 19 21.25 M19 21.25 C19 24.42, 17.42 26, 14.25 26 M19 21.25 C19 24.42, 17.42 26, 14.25 26 M14.25 26 C12.26 26, 10.28 26, 4.75 26 M14.25 26 C10.6 26, 6.94 26, 4.75 26 M4.75 26 C1.58 26, 0 24.42, 0 21.25 M4.75 26 C1.58 26, 0 24.42, 0 21.25 M0 21.25 C0 16.21, 0 11.16, 0 4.75 M0 21.25 C0 17.01, 0 12.77, 0 4.75 M0 4.75 C0 1.58, 1.58 0, 4.75 0 M0 4.75 C0 1.58, 1.58 0, 4.75 0" stroke="#1e1e1e" stroke-width="1" fill="none"></path></g><g stroke-linecap="round" transform="translate(82 85) rotate(0 213 16.5)"><path d="M0 0 C0 0, 0 0, 0 0 M0 0 C0 0, 0 0, 0 0 M-0.08 7.99 C0.9 6.38, 3.02 2.99, 3.41 0.61 M0.39 7.13 C0.53 4.67, 3.02 2.59, 5.24 0.41 M-2.06 10.99 C5.29 10.86, 6.94 7.73, 7.7 3.1 M0.55 11.86 C3.38 6.74, 7.98 3.48, 9.74 1.44 M0.84 20.31 C6.48 15.08, 10.34 9.99, 17.96 -3.5 M-1.91 16.5 C5.2 13.87, 9.68 8.16, 15.49 2.1 M-2.67 25.05 C3.91 19.49, 13.01 8.46, 19.56 -1.4 M-0.68 22.09 C8.9 13.93, 13.28 5.68, 21.42 -1.83 M-3.37 30.37 C10.11 19.38, 13.55 11.37, 22.91 0.79 M-1.58 28.81 C8.1 20.61, 15.63 12.92, 27.29 0.58 M-0.33 38.01 C11.54 21.88, 17.99 17.76, 35.64 2.86 M2.62 34.62 C13.68 21.05, 23.79 10.8, 32.6 -1.6 M7.56 31.68 C18.82 19.44, 29.4 13.65, 34.21 4.23 M7.92 35.27 C17.95 22.79, 26.99 14.07, 37.36 2.11 M9.35 32.2 C20.73 22.8, 37.38 9.71, 38.82 2.26 M11.37 35.92 C18.6 26.75, 25.49 21.14, 43.49 0.33 M16.06 31.6 C27.96 27.74, 30.5 14.52, 45.75 -1.34 M19.72 35.61 C27.83 20.99, 40.7 11.03, 47.76 -1.32 M21.82 35.25 C36.44 24.64, 44.16 5.2, 54.25 -2.15 M23.08 33.9 C37.06 20.86, 45.35 5.71, 51.25 0.56 M30.08 36.97 C36.8 19.63, 52.37 8.42, 54.95 -2.66 M27.68 36.36 C35.5 28.65, 41.1 18.96, 56.25 2.02 M37.26 37.68 C46.31 25.15, 58 10.99, 64.66 2.1 M32.14 33.69 C38.6 26.15, 46.78 19.65, 63.75 0.49 M36.42 36.01 C47.13 30.18, 51.38 15.96, 66.83 -1.05 M37.61 34.77 C46.18 23.21, 57.43 12.44, 70.33 1.67 M47.45 31.43 C57.39 26.62, 65.99 10.62, 78.34 2.93 M42.65 34.2 C51.3 28.06, 56.64 18.49, 73.61 0.29 M45.46 34.63 C54.75 27.14, 65.04 18.26, 81.95 -0.35 M50.09 33.14 C60.2 20.2, 72.86 8.7, 81.21 -1.04 M55.68 37.88 C65.71 26.74, 69.33 14.71, 85.13 -0.3 M54.47 34.11 C61.36 24.47, 67.43 17.87, 84.14 0.92 M57.8 33.44 C64.56 28.4, 73.28 21.02, 92.45 -3 M61.04 33.81 C66.88 24.69, 76.49 16.97, 89.8 0.96 M64.85 31.87 C73.38 26.7, 83.36 19.72, 92.44 -0.81 M65.13 33.9 C71.35 25.05, 78.76 17.64, 95.37 -1.88 M67.59 32.48 C76.3 19.59, 87.51 14.83, 102.01 2.01 M71.14 33.88 C78.61 27.14, 86.74 15.61, 100.77 -1.43 M73.39 33.65 C82.89 28.83, 86.87 21.87, 105.26 3.64 M75.92 33.83 C84.88 21.69, 94.94 11.84, 106.07 0.4 M82.57 35.23 C91.63 23.14, 98.58 11.44, 113.89 3.13 M79.76 35.26 C93.79 22.31, 105.16 7.36, 112.47 0.44 M87.31 32.91 C94.54 27.53, 104.36 16.07, 113.45 -0.52 M85.81 35.92 C91.55 27.48, 98.73 21.05, 115.04 -0.18 M88.01 36.61 C101.01 26.97, 100.73 20.15, 118.91 2.25 M91.01 34.61 C102.98 25.77, 111.58 11.28, 122.98 -0.99 M100.18 32.81 C109.62 22.55, 116.92 8.52, 130.43 -1.72 M97.52 33.99 C103.38 25.3, 113.51 18.34, 125.79 -1.05 M98.77 34.97 C113.53 21.37, 126.5 8.22, 131.45 2.69 M103.7 33.39 C110.9 25.97, 117.26 15.62, 132.11 0.51 M105.12 37.9 C120.96 18.57, 130.79 8.18, 137.2 -2.64 M107.48 35.63 C113.28 26.31, 117.8 21.59, 136.59 1.4 M115.26 36.11 C117.07 27.65, 123.62 16.67, 145.45 -2.79 M113.36 35.84 C119.23 25.25, 126.54 19.06, 143.38 -1.08 M114.83 34.2 C125.89 20.19, 131.95 16.59, 144.99 -3.32 M119.83 36.23 C127.42 24.58, 139.03 9.76, 149.05 -1.18 M127.45 33.25 C132.89 23.29, 141 10.49, 154.42 -3.99 M122.26 34.97 C132.16 24.47, 141.46 15.98, 154.03 -1.95 M125.57 33.16 C136.39 22.94, 138.98 15.56, 158.58 3.68 M128.43 32.94 C137.72 24.05, 145.32 15.4, 157.53 1.63 M134.88 35.07 C145.64 19.35, 153.3 5.97, 163.42 -1.27 M133.37 34.59 C145.04 19.8, 157.37 9.67, 165.02 1.44 M137.15 35.67 C147.5 18.86, 160.64 8.18, 172.33 -2.81 M138.87 34.71 C149.54 22.65, 159.62 8.66, 171.1 1.04 M142.64 37.65 C152.44 27.91, 157.35 17.03, 177.08 -1.57 M144.38 35.27 C151.07 24.93, 160.64 17, 175.02 -1.54 M148.29 36.79 C159.43 27.81, 165.37 17.81, 182.14 3.52 M149.8 33 C156.26 25.91, 168.01 14.83, 179.54 -0.96 M157.4 36.56 C164.96 26.54, 171.11 15.14, 187.59 1.63 M153.71 36.38 C168.56 19.97, 178.98 6.1, 186.43 -1.78 M163.25 34.79 C167.8 22.41, 177.23 11.77, 189.49 -3.61 M161.55 36.81 C169.6 25.29, 177.83 16.15, 191.36 -1.61 M167.38 30.76 C179.04 20.39, 182.26 7.75, 194.72 0.28 M166.47 34.06 C175.58 24.6, 182.91 13.53, 195.37 -0.36 M167.89 31.62 C179.78 21.7, 188.59 10.84, 197.41 -3.02 M170.2 35.18 C182.82 21.73, 193.26 9.83, 199.78 0.64 M178.37 34.68 C191.01 23.87, 195.55 10.57, 209.77 -0.24 M176.53 35.23 C186.88 24.81, 197.94 12.05, 205.66 1.4 M184.25 33.9 C192.67 24.4, 208.84 10.66, 214.5 -2.13 M180.21 36.18 C193.98 22.48, 204.8 6.5, 212.75 0.12 M185.71 34.17 C194.88 23.91, 202.96 14.3, 219.63 -1.1 M188.44 35.61 C199.47 20.24, 210.97 7.05, 218.87 -0.02 M193.99 33.72 C199.72 21.55, 209.38 18.36, 218.93 -0.87 M193.76 33.64 C199.49 26.72, 205.89 20.09, 222.92 1.95 M194.32 30.51 C210.98 20.89, 221.45 7.22, 230.74 1.95 M199.51 33.67 C206.29 23.53, 216.9 13.56, 228.26 -0.38 M206.28 36.59 C210.68 24.37, 221.25 8.06, 234.41 -3.78 M204.74 33.21 C208.72 25.99, 218.72 14.92, 233.68 0.02 M206.67 36.45 C219.98 21.52, 229.58 8.51, 240.45 -0.63 M209.72 32.68 C219.27 24.96, 226.74 12.69, 240.17 -0.87 M213.88 33.45 C220.03 26.11, 236.21 10.07, 246.23 0.06 M212.78 34.28 C223.4 26.19, 228.42 17.88, 245.13 -1 M218.79 32.14 C228.8 31.55, 233.55 18.54, 251.63 0.79 M219.81 34.7 C231.27 20.85, 243.1 10.53, 250.61 -1.21 M221.12 36.69 C236.51 21.17, 249.43 9.65, 253.25 1.01 M225.19 36.04 C236.87 18.8, 247.44 7.46, 256.08 0.34 M232.29 33.2 C237.91 22.18, 255.68 10.04, 256.77 3.53 M229.22 34.55 C241.29 22.69, 249.38 9.97, 259.36 -1.03 M231.86 36.13 C249.67 20.85, 256.9 5.2, 263.87 -3.14 M235.04 35.48 C248.03 22.83, 256.41 9.89, 266.07 0.29 M242.33 30.66 C250.14 24.72, 254 15.43, 268.55 1.61 M242.11 33.85 C252.04 23.46, 261 10.07, 270.57 -0.96 M245.56 35.04 C252.66 21.91, 259.32 20.23, 276.06 -3.16 M247.1 33.33 C254.34 23.28, 262.24 15.41, 277.36 -0.13 M249.63 35 C264.25 23.88, 271.47 14.28, 283.23 -1.53 M249.36 34.99 C260.39 24.24, 264.77 13.85, 282.09 0.16 M253.21 38.11 C262.9 27.62, 271.8 12.19, 289.37 1.62 M255.85 36.14 C264.6 26.27, 271.87 14.76, 284.92 -1.14 M263.81 32.9 C269.26 24.11, 280.54 14.64, 292.63 3 M261.91 35.89 C270.83 25.13, 281.35 11.16, 291.51 -0.73 M265.39 31.48 C278.59 20.94, 287.21 11.79, 300.89 -0.7 M267.5 34.22 C273.6 24.33, 283.87 15.94, 298.44 -2.14 M270.05 36.19 C277.08 28.56, 285.25 21.02, 304.12 1.52 M271.4 33.02 C278.04 28.55, 286.34 20.49, 302.14 -0.91 M276.23 34.71 C287.49 23.64, 290.11 13.84, 309.28 1.41 M277.99 35.66 C287.5 23.9, 296.86 12.24, 308.34 0.22 M285.09 34.44 C291.39 22.05, 304.74 10.81, 312.65 1.8 M284.2 35.84 C294.33 21.37, 307.7 6.13, 313 -1.87 M291.41 32.83 C299.72 24.23, 300.47 13.67, 318.77 -1.04 M286.95 36.35 C294.27 24.21, 304.91 16.6, 319.74 -1.91 M291.92 35.85 C307.99 19.09, 321.56 6.66, 320.73 -2.98 M294.07 33.89 C302.38 27.57, 308.6 17.51, 324.82 0.66 M300.19 36.28 C305.29 25.08, 316.27 15.7, 327.13 -1.66 M299.76 33.93 C309.47 21.36, 322.43 8.31, 330.5 -1.61 M307.05 32.12 C315.65 23.65, 325.83 12.75, 334.42 1.83 M303.49 35.47 C309.87 27.71, 317.56 19.56, 334.06 -1.25 M311.4 36.94 C316.89 24.92, 331.24 6.45, 337.73 1.41 M309.49 33.86 C317.61 27.05, 324.31 17.96, 341.18 0.83 M312.61 34.33 C321.79 24.89, 337.94 6, 343.34 0.31 M313.64 33.65 C325.85 22.41, 335.57 8.3, 342.9 -1.75 M317.4 36.15 C331.38 21.92, 339.1 14.24, 346.82 2.22 M318.94 35.35 C330.04 22.49, 342.93 10.56, 348.41 0.65 M324.23 37.03 C337.9 23.48, 346.85 11.75, 356.7 -2.05 M326.44 36.29 C332.92 25.85, 339.26 20.8, 353.24 0.78 M330.15 32.65 C340.85 21.26, 346.51 13.7, 358.17 4 M330.65 33.4 C337.17 26.22, 341.98 21.09, 361.51 -0.4 M339.16 38.19 C344.71 24.44, 346.42 15.25, 367.25 1.71 M334.52 36.04 C347.75 22.47, 360.68 6.81, 364.69 1.76 M345.14 34.65 C348.08 23.14, 354.36 17.15, 367.18 3.65 M340.85 32.8 C350.65 21.23, 362.16 8.01, 372.55 0.5 M348.17 35.25 C351.27 27.28, 359.38 11.2, 379.3 -0.02 M347.23 36.33 C356.57 25.66, 363.4 16.33, 376.59 0.38 M353.44 31.78 C359.75 20.79, 372.62 15.65, 383.44 0.8 M353.49 34.12 C361.26 19.33, 375.63 7.17, 380.97 2.17 M355.61 37.04 C369.05 25.71, 378.43 13.99, 388.74 -1.43 M356.63 33.36 C365.05 27.44, 371.78 20.4, 385.98 1.6 M361.69 31.12 C375.24 21.1, 384.07 10.12, 394.1 2.47 M362.25 35.7 C370.38 24.32, 383.57 13.37, 390.94 2.22 M367.4 35.87 C380.42 21.52, 391.78 13.07, 395.01 0.75 M367.51 34.11 C372.44 28.63, 381.84 18.38, 397.64 -1.83 M371.42 37.94 C385.36 25.61, 396.34 11.37, 399.91 3.15 M371.88 36.41 C384.05 20.39, 395.67 5.53, 401.33 -0.95 M379.01 35.46 C380.94 26.71, 392.36 17.56, 405.1 3.22 M379.39 34.35 C388.03 20.86, 400.89 6.6, 410.06 0.64 M385.7 32.66 C390.04 28.93, 403.36 13.63, 411.13 -3.25 M382.8 34.67 C393.17 22.23, 406.6 6.88, 411.74 1.83 M387.47 30.97 C396.59 18.93, 406.2 12.39, 421.6 0.11 M388.47 32.64 C395.27 24.66, 402.41 16.79, 417.45 -0.69 M393.18 35.44 C403.76 24.59, 411.57 18.94, 427.62 -3.36 M393.19 34.91 C405.2 24.26, 413.88 12.69, 424.49 0.51 M395.39 37.03 C411.54 22.56, 422.24 12.36, 428.66 5.26 M397.71 36.3 C411.1 24.04, 418.05 11.36, 425.76 0.56 M406.76 35.09 C409.99 25.72, 410.72 20.9, 428.24 7.14 M403.6 34.61 C410.63 24.34, 420.45 15.68, 428.05 7.39 M406.92 35.65 C413.18 24.94, 422.58 20.08, 425.42 11.23 M410.76 35.45 C415.95 31.71, 419.02 25.64, 428.08 15.79 M418.86 33.87 C414.53 30.54, 417.8 31.1, 430.57 17.47 M414.31 35.02 C417.84 30.52, 420.33 25.54, 426.81 20.96 M422.36 35.46 C424.05 34.59, 425.51 32.75, 426.63 26.4 M421.39 33.61 C422.69 31, 425.35 28.62, 427 25.41 M0.26 33.23 C0.26 33.23, 0.26 33.23, 0.26 33.23 M0.26 33.23 C0.26 33.23, 0.26 33.23, 0.26 33.23 M4.96 33.75 C2.92 31.33, 3.71 31.19, -1.21 28.81 M5.99 32.33 C3.81 30.78, 2.28 29.98, -0.5 27.59 M11 30.32 C7.79 28.68, 5.49 25.5, -1.07 24.68 M11.65 34.44 C8.37 29.81, 4.47 27.57, 0.86 22.25 M18.6 30.11 C14.72 30.37, 7.43 29.44, -3.48 14.75 M18.27 33.35 C10.05 26.99, 6.7 21.89, 1.73 15.78 M26.88 29.69 C16.09 23.8, 10.69 21.98, -1.48 12.81 M25.42 34.87 C15.97 27.53, 8.31 22.19, -0.08 12.43 M29.53 33.72 C19.59 27.23, 11.47 15.71, -2.7 3.09 M30.93 32.69 C20.49 25.32, 10.5 16.25, -2 4.9 M33.64 35.42 C18.33 19.86, 9.07 10.8, -2.97 2.39 M34.89 32.09 C25.76 24.58, 19.08 15.48, -1.14 2.2 M42.05 35.43 C25.32 24.6, 17.58 12.02, 4.23 0.93 M44.6 34.39 C27.55 21.71, 15.57 10.1, 5.09 0.46 M48.4 34.9 C37.73 21.42, 32.6 19.79, 10.11 -1.27 M50.06 32.62 C39.91 26.77, 32.24 18.62, 11.84 -0.16 M55.59 34.29 C44.84 21.45, 30.3 15.07, 18.72 -1.52 M52.83 34.89 C44.43 22.41, 32.2 11, 15.34 0.02 M62.81 34.46 C49.56 19.99, 37.27 12.98, 21.57 1.16 M61.6 32.03 C47.98 20.46, 34.32 10.22, 22.01 0.36 M64.24 32.23 C49.15 18.98, 34.94 5.09, 30.78 -3.67 M65.21 33.71 C53.03 20.74, 39.73 5.86, 30.02 0.72 M75.67 36 C57.04 24.39, 47.69 12.36, 38.18 -0.87 M71.75 34.64 C60.4 20.12, 44.55 7.56, 34.84 -0.93 M77.56 30.76 C67.94 24.56, 51.67 9.68, 37.69 -2.83 M78.09 32.11 C68.17 22.6, 56.44 11.69, 40.03 0.93 M85.5 28.98 C73.18 20.15, 63.58 11.6, 48.44 3.59 M84.74 31.46 C73.28 22.12, 58.46 9.12, 46.85 0.96 M93.27 35.61 C75.41 22.56, 64.41 11.66, 53.39 0.61 M93.37 31.68 C81.87 25.42, 70.01 13.72, 53.27 1.11 M99.5 31.73 C81.14 16.34, 70.76 8.17, 62 -0.86 M97.88 31.55 C86.16 23.44, 71.62 11.87, 59.09 -1.23 M106.29 34.09 C93.49 23.66, 78.88 11.64, 65.27 -0.2 M105.47 33.8 C87.62 18.62, 73.2 5.62, 65.44 -1.6 M106.31 32.17 C97.52 23.51, 85.14 8.23, 70.21 -0.15 M108.21 32.71 C102.99 24.94, 94.23 16.48, 71.64 -1.07 M117.22 35.04 C106.52 23.47, 97.52 18.46, 78.9 2.13 M115.85 33.52 C102.83 22.14, 93.47 10.82, 78.75 1.36 M120.75 32.43 C111.04 25.61, 103.27 13.12, 87.13 2.74 M123.35 32.08 C113.7 26.47, 104.2 19.49, 82.62 0.92 M125.35 30.24 C111.24 22.82, 101.77 10.28, 87.03 -1.43 M127.99 30.95 C112.32 21.64, 97.65 7.46, 88.96 1.25 M136.82 34.22 C124.73 26.92, 116.98 21.08, 98.22 0.37 M132.41 33.59 C121.87 19.83, 106.81 8.81, 94.91 -0.04 M141.41 30.98 C126.7 18.44, 113.22 11.85, 102.13 3.62 M138.17 33.93 C124.44 22.25, 111.45 7.84, 103.85 -1.93 M144.23 30.82 C131.02 23.76, 123.84 12, 105.17 1.53 M144.56 33.83 C137.36 23.36, 126.1 14.57, 106.94 1.62 M152.34 32.81 C138.29 24.49, 126.81 6.87, 117.32 0.69 M154.18 32.66 C145.35 26.25, 133.91 15.9, 114.23 -0.16 M161.37 32.38 C144.03 25.69, 137.95 14.63, 118.81 0.61 M159.98 33.47 C144.71 21.3, 127.41 6.1, 119.67 1.25 M162.21 32.87 C149.8 18.49, 142.63 12.03, 127.18 2.76 M166.35 31.11 C155.84 26.76, 147.46 18.52, 124.7 1.32 M168.05 30.61 C160.31 25.1, 150.16 9.92, 135.7 1.5 M168.65 31.88 C164.37 25.59, 156.33 17.99, 131.08 1.86 M176.83 29.8 C167.81 19.27, 153.66 15.88, 140.47 1.03 M178.05 32.91 C170.76 25.63, 162.85 21.55, 140.4 -1.36 M182.29 35.47 C168.19 25.44, 154.54 12.1, 147.05 3.03 M185.07 33.82 C167.29 20.28, 152.53 8.11, 143.19 1.53 M188.67 33.17 C177.99 22.09, 165.89 13.37, 149.13 -1.73 M188.66 32.79 C180.31 22.6, 170.02 12.1, 149.97 0.68 M197.29 36.49 C179.17 24.14, 169.54 10.72, 159.55 3.58 M195.26 32.79 C187.81 24.9, 178.53 20.46, 156.8 0.08 M197.66 36.13 C187.5 24.37, 181.74 19.9, 160.8 0.8 M200.36 31.16 C187.77 18.93, 171.6 7.21, 164.11 -0.99 M205.93 34.74 C197.07 21.3, 185.86 13.63, 168.05 -2.25 M207.31 33 C196.19 23.28, 184.27 11.56, 170.25 1.67 M215.91 36.01 C205.86 21.71, 200.45 16.5, 175.81 -4.15 M212.87 32.82 C201.57 23.59, 190.31 12.08, 174.54 -0.74 M217.78 36.19 C213.11 24.16, 205.5 16.05, 180.58 1.72 M218.29 32.69 C209.06 21.23, 193.63 12.7, 182.38 -1.77 M228.69 35.75 C216.24 24.25, 209.59 16.78, 183.92 -3.79 M226.4 34.34 C215.95 24.05, 207.81 19.36, 188.76 -0.22 M232.61 33.03 C224.18 25.82, 217.54 17.02, 194.88 -2.77 M233.86 31.49 C221.82 24.01, 215.76 16.74, 195.1 -0.62 M234.98 35.84 C224.42 19.53, 205.85 3.27, 201.08 -3.13 M236.24 33.95 C231.52 25.76, 222.77 19.84, 200.8 -1.71 M241.36 37.06 C228.36 18.14, 212.84 3.13, 207.36 -3.1 M243.14 33.79 C233.55 23.76, 221.9 13, 204.33 -0.21 M248.47 35.65 C242.55 28.01, 228.83 12.49, 214.41 0.44 M251.68 30.94 C237.14 22.71, 225.53 10.22, 210.24 -0.73 M258.67 31.58 C248.72 20.12, 234.42 16.03, 218.63 1.58 M257.35 34.65 C245.44 24.86, 237.76 15.06, 219.52 -1.48 M263 30.78 C254.31 22.16, 246.61 14.75, 222.74 1.05 M263.56 33.01 C249.58 20.85, 233.37 10.61, 224.66 -0.12 M267.86 36.82 C260.99 20.52, 247.2 12.58, 226.47 1.72 M268.69 31.2 C258.05 23.95, 246.33 10.97, 230.67 -1.63 M277.61 30.42 C262.61 25.87, 252.16 14.85, 237.59 1.73 M275.22 31.57 C260.63 18.45, 247.64 6.33, 234.69 1.34 M281.69 34.56 C263.89 22.31, 251.91 11.31, 242.38 1.28 M281.18 33.29 C271.35 27.7, 263.24 19.61, 242.79 -0.17 M289.03 33.3 C270.05 21.34, 264.31 14.1, 248.66 3.74 M285.07 31.75 C280.19 23.97, 270.2 19.76, 249.5 0.25 M291.12 36.82 C284.3 25, 268.57 12.7, 252.51 3.15 M293.35 34.15 C281.45 22.03, 270.82 14.87, 254.92 0.45 M300.68 29.04 C287.94 28.05, 276.2 20.18, 264.82 -0.08 M297.54 31.71 C288.58 25.37, 281.56 18.02, 259.77 -0.04 M306.28 31.19 C289.9 22.12, 280.27 8.05, 270.47 -2.23 M305.26 33.75 C295.83 21.84, 283.47 11.01, 266.91 1.51 M311.42 34.85 C293.86 18.88, 283.74 5.48, 274.65 -1.34 M309.82 33.35 C301.1 24.01, 296.05 18.85, 272.22 0.51 M316.98 36.8 C306.19 23.9, 287.21 7, 278.05 -0.2 M317.01 32.75 C304.48 20.24, 292.26 10.8, 278.11 -1.36 M320.29 36.12 C311.42 25.28, 308.8 20.48, 287.42 1.25 M322.66 32.96 C308.99 19.24, 296.25 7.21, 284.6 -2.01 M325.75 33.69 C318.43 24.45, 309.11 18.49, 290.24 1.5 M327.72 31.88 C314.03 22.01, 301.36 9.93, 290.41 1.24 M335.51 35.86 C319.55 20.22, 309.73 7.14, 297.81 -1.47 M335.31 32.53 C326.9 25.89, 319.03 16.77, 296.46 -0.77 M344.52 31.45 C332.97 28.18, 324.89 22.06, 299.69 -3.35 M342.3 34.58 C328.05 20.16, 310.68 6.19, 302.74 -1.59 M351 30.62 C338.35 26.95, 330.37 17.53, 306.73 -0.44 M348.09 33.79 C339.09 25.13, 331.27 18, 307.85 0.42 M351.45 33.9 C339.81 24.55, 332.53 12.39, 317.77 -2.06 M354.2 33.66 C341.56 21.73, 328.08 12.66, 314.06 -1.73 M363.37 35.82 C343.04 21.96, 333.12 12.4, 322.23 1.02 M361.32 33.51 C348.09 24.04, 337 14.58, 322.38 -1.51 M363.84 32.46 C354.26 23.33, 332.05 8.37, 331.26 1.63 M364.38 34.7 C357.73 28.09, 348.42 18.67, 326.1 -1.29 M368.65 34.49 C357.15 22.71, 350.28 15.47, 336.08 3.08 M370.11 34.18 C361.43 21.63, 348.77 10.48, 333.65 1.09 M374.71 30.06 C372.17 25.35, 364.04 19.7, 339.15 0.19 M379.85 33.95 C363.95 20.06, 351.94 8.91, 342.13 1.95 M383.09 29.84 C368.62 20.68, 357.92 10.74, 348.73 2.86 M383.12 34.65 C372.74 20, 356.99 8.04, 344.35 -2.1 M393.75 34.56 C381.85 25.5, 374.64 18.49, 353.6 -0.31 M388.64 33.72 C379.94 21.2, 367.42 14.25, 353.95 1.99 M396.09 30.68 C380.24 18.96, 369.32 10.67, 358.07 -0.99 M397.49 33.55 C385.45 20.53, 369.77 9.63, 356.9 -0.67 M404.11 31.36 C396.41 25.46, 386.66 20.11, 360.46 3.74 M402.57 33.06 C386.84 19.86, 376.26 10.15, 364.39 -1.49 M410.77 35.37 C390.23 18.84, 379.34 7.92, 372.17 -3.59 M409.46 31.17 C400.59 24.94, 391.98 19.57, 372.29 -0.82 M415.11 36.1 C400.12 25.65, 386.96 13.83, 376.28 -1.18 M415.98 34.38 C402.35 24.64, 392.8 16.93, 378.3 0.24 M420.9 33.17 C407.21 23.28, 399.07 7.32, 386.28 -0.46 M421.25 32.89 C406.62 22.74, 395.91 9.96, 381 1.97 M422.5 31.34 C410.16 21.07, 399.7 5.47, 389.04 -0.98 M428 34.17 C418.61 26.73, 408.94 16.23, 389.35 -0.35 M425.69 27.63 C417.92 16.17, 406.67 11.09, 391.35 -3.6 M425.84 26.53 C415.14 18.05, 401.96 6.54, 393.57 0.94 M423.91 22.66 C415.75 17.21, 408.58 11.67, 402.91 2.61 M427.96 21.11 C420.46 16.07, 412.84 8.77, 402.69 -0.44 M429.8 19.15 C421.7 14.32, 413.33 7.61, 407.03 -0.1 M425.04 14.91 C418.8 13.03, 413.02 6.85, 407.58 1.37 M427.34 11.5 C419.98 7.18, 422.49 6.47, 414.95 1.27 M426.13 11 C423.19 8.59, 418.6 3.51, 413.93 0.49 M424.94 7.58 C422.5 2.35, 421.93 0.91, 420.68 -1.89 M426.99 6.02 C422.83 4.52, 419.97 1.5, 418.66 -0.52 M426 0.75 C426.13 0.63, 425.65 0.34, 425.35 -0.19 M426.17 0.6 C425.98 0.45, 425.64 0.15, 425.3 -0.09" stroke="#ced4da" stroke-width="0.5" fill="none"></path><path d="M1.99 -0.44 C109.64 1.17, 221.33 2.33, 427.93 1.51 M0.24 -0.52 C132.44 2.73, 264.91 3.68, 426.59 -0.53 M428.32 1.53 C421.93 8.32, 427.67 25.99, 426.85 33.1 M424.67 -0.53 C425.75 10.96, 426.41 20.31, 427.98 32.26 M425.52 34.3 C308.96 35.93, 190.55 33.91, 1.78 31.08 M425.11 32.04 C279.82 33.22, 132.23 32.68, 0.29 32.97 M-2.06 32.87 C-1.29 24.44, 3.48 13.75, 2.03 3.04 M-1.78 32.02 C1.82 24.85, 1.31 18.85, 0.2 -1.26" stroke="#1e1e1e" stroke-width="1" fill="none"></path></g><g stroke-linecap="round" transform="translate(30 47) rotate(0 27.5 105)"><path d="M0 0 C0 0, 0 0, 0 0 M0 0 C0 0, 0 0, 0 0 M-0.99 6.49 C1.03 6.06, 4.14 2.07, 4.58 1.59 M-0.25 6.45 C1.16 4.6, 1.61 4.4, 5.63 0.48 M1.31 12.69 C5.88 7.89, 8.3 1.79, 8.34 1.61 M-1.11 10.88 C4.22 8.87, 6.86 6.26, 10.98 1.25 M-0.97 18.34 C6.43 9.83, 5.08 9.91, 16.93 2.36 M0.77 20.05 C5.68 11.26, 9.82 5.69, 17.6 -0.35 M1.93 20.87 C7.28 14.33, 10.39 10.36, 17.42 -3.5 M-0.35 22.66 C5.9 17.84, 8.74 15.9, 19.96 -0.58 M0.49 34.19 C2.81 20.05, 9.66 16.96, 24.33 -0.12 M-0.78 32.38 C7.85 19.16, 19.17 11.26, 24.29 0.89 M1.6 35.11 C9.02 26.17, 19.98 14.76, 28.67 1.64 M0.89 36.89 C9.12 26.07, 18.02 15.03, 30.53 0.37 M0.47 42.2 C11.26 26.4, 31.51 11.64, 33.85 3.01 M1.78 42.66 C9.44 27.17, 21.65 13.95, 37.33 1.27 M-3.64 46.33 C17.69 30.43, 31.34 15.15, 42.48 -0.33 M-1.12 50.03 C15.79 28.8, 31.06 12.31, 43.53 -1.07 M2.7 57.85 C8.84 45.78, 25.56 29.19, 44.77 4.18 M1.84 54.77 C16.1 35.91, 33.18 18.74, 49.07 -0.57 M3.56 56.97 C13.43 48.24, 21.79 37.88, 53.39 -3.73 M1.94 62.87 C13.28 47.98, 25.93 32.05, 52.43 0.4 M-4.2 64.83 C19.99 46.56, 40.25 28.14, 57.25 4.31 M0.83 68.13 C12.47 54.79, 25.8 40.72, 56.97 4.85 M-3.23 74.18 C16.04 48.76, 34.16 28.41, 52.96 10.34 M-1.21 71.21 C16.04 53, 32.95 36.01, 56.9 8.68 M-0.06 79.98 C10.59 63.13, 25.78 47.61, 52.45 16.74 M0.89 80.71 C8.79 67.03, 20.18 53.81, 57.58 15.77 M-2.88 82.52 C14 61.93, 31.64 45.92, 57.42 18.89 M-0.15 84.67 C15.14 66.62, 28.92 50.75, 56.41 21.08 M2.86 89.83 C19.26 69.78, 36.71 43.52, 51.51 29.96 M-1.1 91.48 C15.09 74.8, 31.35 58.44, 55.64 27.91 M-3.35 96.77 C16.09 81.84, 25.52 66.61, 51.96 31.62 M-1.38 97.36 C15.33 79.03, 29.4 61.54, 56.56 32.98 M-1.45 99.63 C20.79 82.71, 39.11 53.37, 53.26 40.63 M-0.89 103.47 C17.65 82.67, 33.79 63.19, 55.71 41.53 M-3.09 106.85 C23.73 85.99, 40.45 60.42, 53.37 43.96 M0.26 110.94 C15.44 92.34, 28.43 75.1, 53.69 44.81 M-1.46 114.04 C20.21 93.49, 37.74 69.63, 58.1 53.16 M-1.5 114.47 C11.97 99.96, 25.94 86.34, 56.08 50.95 M1.09 118.42 C15.58 98.62, 37.16 73.82, 51.33 55.51 M-0.28 121.11 C15.2 104.53, 31.2 86.91, 54.23 58.51 M3.27 125.91 C14.12 111.3, 23.36 101.67, 58.67 64.61 M0.1 127.83 C15.57 108.82, 32.26 88.14, 57.44 63.53 M-3.46 137.79 C19.48 108.32, 45.94 84.72, 55.08 71.06 M-1.71 132.58 C20.94 111.47, 38.27 93.69, 55.26 68.58 M0.72 141.29 C15.06 118.45, 35.12 103.55, 59.15 77.5 M1.64 139.38 C10.28 128.19, 22.99 112.92, 56.18 74.38 M-1.78 144.73 C13.11 127.57, 32.06 104.89, 53.43 85.08 M0.98 145.85 C19.37 124.38, 36.94 106.09, 54.63 84.54 M-1.55 155.9 C8.74 140.1, 22.51 125.79, 54.65 88.53 M1.58 152.04 C12.94 136.52, 26.67 124.67, 53.75 89.17 M-4.02 161.18 C15.66 139.79, 35.22 121.31, 53.41 90.76 M-2.1 159.98 C20.2 136.2, 41.29 111.08, 55.58 93.93 M-1.75 164.16 C10.14 152.74, 24.76 135.98, 53.8 97.57 M-0.21 162.73 C23.55 138.22, 43.24 114.43, 53.31 99.08 M1.19 172.28 C22.91 151.65, 44.13 125.15, 59.63 108.69 M0.79 171.5 C12.09 159.27, 23.5 142.61, 56.05 105.08 M-0.53 179.93 C17.43 155.88, 33.78 141.07, 54.82 116.21 M-1.17 177.14 C20.08 153.69, 37.79 133.91, 53.75 111.34 M-1.17 182.85 C13.88 165.94, 22.46 154.24, 53.59 119.67 M1.2 181.02 C18.47 164.2, 32.75 145.64, 54.03 117.86 M2.36 193.25 C15.07 173.62, 24.83 162.11, 52.15 128.7 M1.33 188.53 C18.77 165.07, 38.29 142.6, 54.34 124.21 M2.09 194.41 C16.9 175.01, 32.81 156.93, 56.32 129.66 M-0.99 196.17 C11.48 179.5, 24.7 167.14, 56.23 130.66 M-1.29 203.34 C17.05 182.35, 32.64 161.77, 55.79 136.74 M-1.4 200.65 C19.99 177.17, 42.8 154.97, 56.07 137.7 M-0.27 209.89 C11.95 188.49, 26.11 167.77, 56.46 146.35 M-0.17 206.37 C14.35 191.51, 31.24 173.99, 56.08 142.9 M6.52 208.11 C20.66 188.77, 36.21 176.32, 54.66 148.23 M3.34 211.28 C18.85 195.45, 31.88 175.77, 55 148.4 M7.93 212.64 C24.42 195.7, 42.47 177.98, 56.85 156.08 M8.88 211.73 C27.12 190.71, 42.03 171.21, 54.4 154.04 M12.64 213.12 C22.36 200.55, 30.76 192.33, 55.21 162.22 M14.25 211.23 C24.37 197.25, 32.1 186.64, 54.85 160.39 M21.33 210.51 C29.18 195.53, 43.22 186.17, 53.91 168.65 M19.96 209.27 C31.64 198.43, 40.71 187.26, 56.73 166.31 M24.37 206.47 C32.53 197.96, 45.54 186.76, 57.46 177.49 M25.6 209.15 C34.02 201.81, 39.89 190.86, 57.13 175.8 M32.74 213.77 C38.97 195.97, 51.22 190.88, 56.94 182.04 M29.21 208.76 C33.64 202.99, 39.69 197.09, 54.67 179.49 M38.41 210.65 C36.56 205.58, 48.56 197.05, 53.67 185.47 M34.28 209.44 C38.71 204.15, 45.58 195.73, 53.7 185.79 M37.17 207.14 C46.17 206.1, 49.66 196.53, 54.81 191.41 M41.13 210.74 C44.95 201.67, 48.67 198.91, 54.51 193.88 M45.09 208.08 C49.99 209.76, 48.56 202.87, 55.66 198.88 M45.75 211.07 C47.47 207.68, 52.57 201.72, 56.04 197.46 M50.25 210.83 C51.71 210, 51.63 206.57, 55.6 204.91 M51.21 210.41 C52.33 208.34, 53.1 207.83, 55.37 204.62 M0.17 210.15 C0.17 210.15, 0.17 210.15, 0.17 210.15 M0.17 210.15 C0.17 210.15, 0.17 210.15, 0.17 210.15 M4.37 209.75 C2.93 207.47, 3.04 205.7, -0.36 204.24 M5.59 209.13 C3.56 207.3, 2.13 206.55, 0.19 204.02 M10.86 210.02 C8.53 206.96, 4.57 200.9, 3.01 201.48 M12.27 209.41 C6.4 206.92, 3.37 201.7, 1.21 199.77 M17.26 211.98 C15.24 209.03, 8.91 198.4, -2.7 195.56 M18.52 210.27 C12.54 203.78, 2.64 198.36, 1.59 194.44 M23.6 207.7 C16.86 205.83, 14.64 200.17, -2.24 186.9 M23.68 210.92 C15.87 204.93, 11.5 198.17, -1.07 188.21 M30.84 206.3 C22.97 205.13, 17.78 197.79, -3.06 185.36 M29.48 209.15 C20.63 198.57, 10.1 190.04, -0.67 181.65 M39.46 207 C29.69 201.23, 19.8 195.95, -0.7 178.29 M37.15 210.78 C24.94 199.43, 13.08 187.2, -0.52 180.01 M39.56 210.02 C33.09 195.96, 15.34 184.89, -3.78 175.41 M42.31 210.89 C25.48 196.48, 11.3 182.54, -0.27 174.32 M49.95 213.54 C27.99 196.04, 17.02 177.88, -3.55 163.64 M48.5 211.5 C29.54 196.24, 11.8 180.51, -1.04 166.74 M56.77 213.36 C32.96 194.65, 14.84 176, 0.43 159.49 M54.23 211.62 C43.94 198.27, 29.03 188.93, -0.71 163.56 M54.84 201.9 C38.11 191.88, 16.37 176.9, -1.29 155.96 M56.81 206.92 C38.35 189.17, 23.21 174.51, 1.01 156.61 M57.89 198.28 C35.06 179.93, 10.05 159.21, 3.04 151.55 M54.93 198.35 C34.97 181.95, 14.37 164.05, 0.03 152.86 M55.34 195.49 C34.93 173.27, 14.36 163.38, 1.02 149.86 M55.97 195.84 C38.5 179.41, 23.28 163.24, -0.97 144.58 M57.69 187.31 C37.3 175.39, 19.68 156.33, 2.71 139.17 M53.75 187.83 C38.01 173.58, 16.99 157.23, 0.49 141.47 M59.66 183.86 C42.1 172.78, 22.85 156.72, 3.77 133.49 M54.19 185.35 C40.56 167.44, 22.77 152.17, -1.78 134.3 M58.56 180 C36.09 167.02, 18.96 146.15, 3.81 131.44 M54.02 177 C34.95 162.32, 16.07 142.68, 2.25 130.3 M56.66 170.19 C45.26 159.8, 33.68 152.13, 0.79 124.6 M57.68 172.34 C35.04 155.6, 13.02 135.7, 1.55 124.15 M55.57 164.85 C43.66 155.72, 25.84 144.04, 1.38 120.38 M56.08 168.87 C36.66 148.98, 14.82 132.68, 0.93 121.36 M58.63 165.24 C37.36 148.56, 18.96 135.32, -0.67 118.45 M55.43 163.43 C40.08 150, 19.97 135.34, -0.23 113.24 M57.24 155.87 C41.13 143.46, 29.47 133.81, 1.89 109.54 M56.05 159.16 C32.76 139.62, 10.73 123.27, 0.91 108.34 M57.3 151.33 C39.11 137.68, 27.55 126.32, 0.1 99.89 M57.2 152.94 C42.94 142.38, 33.76 129.39, 1.4 103.38 M57.52 148.68 C39.95 138.37, 28.22 127.14, 3.26 102.07 M55.86 146.32 C41.21 136.41, 29.64 123.45, 1.37 98.68 M51.84 142.34 C40.17 127.53, 19.92 105.21, 1.23 95.35 M55.55 140.94 C43.53 130.99, 32.89 120.33, -1.22 93.1 M55.78 132.43 C40.64 121.24, 27.86 107.7, -1.15 88.64 M57.18 137.51 C37 119.65, 15.91 99.65, -1.72 87.51 M52.84 131.7 C34.22 118.5, 17.53 102.01, 2.29 80.79 M55.81 131.19 C42.89 119.16, 26.42 106.24, -2.01 83.67 M53.61 126.5 C42.63 113.78, 27.78 105.65, -2.55 75.52 M56.24 127.26 C35.04 107.26, 10.63 89.31, -1.64 75.71 M54.36 120.43 C36.77 105.55, 17.51 85.28, 0.3 73.75 M54.08 121.18 C38.81 104.25, 19.92 88.94, 0.91 73.06 M55.76 117.87 C39.44 99.07, 13.14 78.61, 3.29 64.52 M54.79 116.85 C38.75 103.33, 24.85 89.77, 1.13 67.86 M53.88 113.09 C36.27 89.93, 19.73 78.11, 1.7 65.32 M55.26 108.13 C40.43 97.18, 27.67 86.31, -0.8 61.96 M54.67 101.04 C35.21 91, 12.48 71.71, 4.03 57.02 M54.61 104.28 C41.12 94.32, 28.07 81.45, 0.89 58.27 M56.3 97.81 C42.3 86.07, 26.2 78.46, 2.37 48.18 M55.02 98.95 C39.04 86.99, 23.57 72.66, 0.3 51.77 M55.5 95.42 C41.06 87.04, 28.54 71.43, -1.21 41.97 M56.52 95.56 C43.77 82.4, 28.48 70.58, 0.73 44.94 M53.98 90.28 C45.07 78.51, 27.16 67.35, 0.41 37.19 M53.82 88.29 C34.92 68.48, 11.32 52.54, 2.19 39.3 M56.81 85.99 C42.32 72.07, 26.99 61.96, 2.09 31.86 M55.12 83.47 C41.9 71.4, 28.79 60.3, -1.5 35.63 M54.73 81.76 C34.59 56.16, 12.49 41.23, -2.95 30.83 M54.9 76.53 C42.86 67.31, 31.13 55.86, 0.35 32.07 M54.6 75.28 C33.64 54.39, 15.31 37.65, -0.07 26.78 M56.78 73.46 C35.21 59.16, 19.68 42.14, 0.85 25.78 M53.75 67.07 C33.28 55.97, 21.54 38.64, -2.75 19.11 M54.28 67.73 C45.74 56.48, 33.15 44.67, -1.67 18.31 M54.34 63.39 C37.26 47.28, 18.78 29.34, 1.71 10.34 M57.66 61.74 C37.34 48.13, 21.05 30.93, 1.2 12.59 M53.73 56.58 C44.21 46.24, 33.18 35.93, 2.64 8.94 M54.74 55.71 C38.88 40.15, 17.62 24.82, -1.3 10.31 M58.9 51.98 C34.72 34.46, 14.68 16.41, -3.7 1.74 M57.71 53.21 C43.51 40.22, 30.66 29.64, 1.76 4.93 M52.77 48.24 C44.85 32.05, 27.69 21.05, 1.82 -1.9 M55.89 45.99 C45.85 35.65, 33.63 23.63, 3.3 0.38 M56.61 40.27 C41.59 27.15, 18.76 9.66, 4.29 2.95 M54.63 39.5 C44.4 30.02, 32.74 18.98, 7.81 0.65 M56.4 31.55 C39.67 23.69, 23.78 9.37, 12.34 0.51 M56.06 33.8 C38.94 21.01, 22.51 7.81, 13.32 0.12 M57.23 29.06 C45.73 20.4, 38.8 13.36, 20.87 0.36 M53.94 28.98 C42.42 18.33, 25.78 5.89, 20.6 -1.85 M57.62 23.59 C45.42 15.65, 35.07 2.5, 26.34 3.22 M54.42 26.11 C44.24 17.75, 34.71 7.59, 24.87 -0.56 M55.95 16.68 C52.25 15.92, 45.37 5.06, 33.44 -3.45 M54.92 20.69 C45.92 11.48, 37.83 2.86, 32.9 -1.81 M56.83 16.97 C49.75 11.08, 46.91 8.75, 41.71 2.1 M56.88 15.58 C49.48 7.1, 44.14 1.1, 38.11 0.2 M53.96 10.6 C48.95 3.6, 46.72 0.27, 44.53 0.58 M56.37 10.13 C52.48 6.67, 51.13 3.26, 45.6 0.25 M56.89 2.94 C54.43 3.84, 52.96 -0.32, 51.13 -0.05 M55.58 3.9 C53.63 2.58, 52.41 0.61, 50.18 0.09" stroke="#ced4da" stroke-width="0.5" fill="none"></path><path d="M0.4 -2.14 C15.15 0.12, 35.03 0.76, 51.16 3.26 M1.22 -0.41 C17.35 1.72, 33.2 -1.41, 53.2 0.9 M56.33 0.44 C54.27 71.94, 54.85 147.99, 54.67 210.58 M54.62 1.41 C59.69 41.81, 59.77 85.86, 55.32 211.7 M56.79 207.11 C42.22 205.61, 26.95 211.54, 3.38 209.75 M54.21 208.52 C35.33 208.94, 18.33 209.08, 0.01 211.49 M-2.73 210.87 C-1.81 154.72, -3.62 109.26, -1.41 2.6 M0.83 208.83 C0.66 139.49, -1.67 73.36, -1.58 1.75" stroke="#1e1e1e" stroke-width="1" fill="none"></path></g><g stroke-linecap="round" transform="translate(36 10) rotate(0 21.5 54)"><path d="M10.75 0 C18.03 3.02, 23.8 1.42, 32.25 0 C39.64 0.05, 43.25 5.26, 43 10.75 C45.37 31.34, 45.94 47.52, 43 97.25 C46.52 105.74, 40.15 109.54, 32.25 108 C22.66 109.8, 17.46 105.93, 10.75 108 C6.89 105.2, -2.6 106.73, 0 97.25 C0.05 72.09, -0.91 43.25, 0 10.75 C-3.44 2.83, 3.5 1.92, 10.75 0" stroke="none" stroke-width="0" fill="#343a40"></path><path d="M10.75 0 C16.96 -1.96, 24.49 -0.72, 32.25 0 M10.75 0 C16.51 0.5, 23.54 0.06, 32.25 0 M32.25 0 C41.34 -1.57, 44.7 1.74, 43 10.75 M32.25 0 C40.45 -1.66, 42.66 1.64, 43 10.75 M43 10.75 C43.43 29.41, 44.1 46.7, 43 97.25 M43 10.75 C41.84 33.23, 41.91 55.79, 43 97.25 M43 97.25 C44.49 103.38, 40.43 109.52, 32.25 108 M43 97.25 C41.22 104.98, 39.46 105.95, 32.25 108 M32.25 108 C28.33 108.47, 21.66 106.65, 10.75 108 M32.25 108 C23.85 107.39, 17.93 107.23, 10.75 108 M10.75 108 C5.57 106.45, -1.88 106.34, 0 97.25 M10.75 108 C1.59 109.37, -0.3 102.32, 0 97.25 M0 97.25 C-2.52 70.74, -2.15 43.94, 0 10.75 M0 97.25 C0.8 70.34, 1.53 43.2, 0 10.75 M0 10.75 C1.8 4.67, 2.95 -1.98, 10.75 0 M0 10.75 C0.36 2.54, 3.72 -0.34, 10.75 0" stroke="#1e1e1e" stroke-width="1" fill="none"></path></g><g stroke-linecap="round" transform="translate(49 167) rotate(0 9 8.5)"><path d="M4.25 0 C6.58 0, 8.91 0, 13.75 0 C16.58 0, 18 1.42, 18 4.25 C18 6.82, 18 9.4, 18 12.75 C18 15.58, 16.58 17, 13.75 17 C11.08 17, 8.42 17, 4.25 17 C1.42 17, 0 15.58, 0 12.75 C0 10.07, 0 7.39, 0 4.25 C0 1.42, 1.42 0, 4.25 0" stroke="none" stroke-width="0" fill="#e9ecef"></path><path d="M4.25 0 C6.21 0, 8.17 0, 13.75 0 M4.25 0 C7.41 0, 10.57 0, 13.75 0 M13.75 0 C16.58 0, 18 1.42, 18 4.25 M13.75 0 C16.58 0, 18 1.42, 18 4.25 M18 4.25 C18 6.91, 18 9.58, 18 12.75 M18 4.25 C18 6.79, 18 9.32, 18 12.75 M18 12.75 C18 15.58, 16.58 17, 13.75 17 M18 12.75 C18 15.58, 16.58 17, 13.75 17 M13.75 17 C11.64 17, 9.53 17, 4.25 17 M13.75 17 C11.32 17, 8.89 17, 4.25 17 M4.25 17 C1.42 17, 0 15.58, 0 12.75 M4.25 17 C1.42 17, 0 15.58, 0 12.75 M0 12.75 C0 10.19, 0 7.63, 0 4.25 M0 12.75 C0 9.76, 0 6.78, 0 4.25 M0 4.25 C0 1.42, 1.42 0, 4.25 0 M0 4.25 C0 1.42, 1.42 0, 4.25 0" stroke="#1e1e1e" stroke-width="1" fill="none"></path></g><g stroke-linecap="round" transform="translate(49 93.5) rotate(0 9 8.5)"><path d="M4.25 0 C7.55 0, 10.84 0, 13.75 0 C16.58 0, 18 1.42, 18 4.25 C18 7.29, 18 10.33, 18 12.75 C18 15.58, 16.58 17, 13.75 17 C10.1 17, 6.46 17, 4.25 17 C1.42 17, 0 15.58, 0 12.75 C0 10.94, 0 9.13, 0 4.25 C0 1.42, 1.42 0, 4.25 0" stroke="none" stroke-width="0" fill="#e9ecef"></path><path d="M4.25 0 C6.47 0, 8.7 0, 13.75 0 M4.25 0 C6.21 0, 8.17 0, 13.75 0 M13.75 0 C16.58 0, 18 1.42, 18 4.25 M13.75 0 C16.58 0, 18 1.42, 18 4.25 M18 4.25 C18 7.63, 18 11.01, 18 12.75 M18 4.25 C18 6.71, 18 9.17, 18 12.75 M18 12.75 C18 15.58, 16.58 17, 13.75 17 M18 12.75 C18 15.58, 16.58 17, 13.75 17 M13.75 17 C10.1 17, 6.45 17, 4.25 17 M13.75 17 C11.38 17, 9.02 17, 4.25 17 M4.25 17 C1.42 17, 0 15.58, 0 12.75 M4.25 17 C1.42 17, 0 15.58, 0 12.75 M0 12.75 C0 10.42, 0 8.08, 0 4.25 M0 12.75 C0 9.76, 0 6.76, 0 4.25 M0 4.25 C0 1.42, 1.42 0, 4.25 0 M0 4.25 C0 1.42, 1.42 0, 4.25 0" stroke="#1e1e1e" stroke-width="1" fill="none"></path></g><g stroke-linecap="round" transform="translate(109 58) rotate(0 28.5 13.5)"><path d="M1.92 -1.73 L58.19 -0.26 L55.18 27.06 L1.53 25.52" stroke="none" stroke-width="0" fill="#ced4da"></path><path d="M0 0 C24.35 1.26, 45.04 1.36, 57 0 M0 0 C20.92 0.3, 42.5 -0.1, 57 0 M57 0 C55.12 7.42, 58.65 12.17, 57 27 M57 0 C56.68 8.24, 56.39 17.45, 57 27 M57 27 C41.58 25.97, 24.2 28.52, 0 27 M57 27 C43.41 26.52, 32.59 26.61, 0 27 M0 27 C-1.34 17.84, -1.4 7.99, 0 0 M0 27 C-0.7 22.45, -0.58 14.97, 0 0" stroke="#1e1e1e" stroke-width="1" fill="none"></path></g><g stroke-linecap="round" transform="translate(470 58) rotate(0 12.5 13.5)"><path d="M-0.47 0.18 L25.46 -0.44 L25.25 26.86 L-0.77 27.27" stroke="none" stroke-width="0" fill="#e9ecef"></path><path d="M0 0 C9.12 -0.07, 18.7 0.17, 25 0 M0 0 C7.09 0.12, 13.76 0.5, 25 0 M25 0 C25.85 9.51, 24.17 18.63, 25 27 M25 0 C24.62 10.96, 24.8 20.63, 25 27 M25 27 C19.52 27.72, 14.3 27.18, 0 27 M25 27 C18.02 26.69, 10.75 26.97, 0 27 M0 27 C-0.88 16.81, -0.45 8, 0 0 M0 27 C-0.4 21.38, 0.06 14.92, 0 0" stroke="#1e1e1e" stroke-width="1" fill="none"></path></g></svg>