<svg version="1.1" xmlns="http://www.w3.org/2000/svg" viewBox="0 0 440 567.365234375" width="440" height="567.365234375">
  <!-- svg-source:excalidraw -->
  
  <defs>
    <style class="style-fonts">
      @font-face {
        font-family: "Virgil";
        src: url("https://excalidraw.com/Virgil.woff2");
      }
      @font-face {
        font-family: "Cascadia";
        src: url("https://excalidraw.com/Cascadia.woff2");
      }
      @font-face {
        font-family: "Assistant";
        src: url("https://excalidraw.com/Assistant-Regular.woff2");
      }
    </style>
    
  </defs>
  <rect x="0" y="0" width="440" height="567.365234375" fill="#ffffff"></rect><g stroke-linecap="round" transform="translate(166.5 127.365234375) rotate(0 111.5 3)"><path d="M0 0 C0 0, 0 0, 0 0 M0 0 C0 0, 0 0, 0 0 M-0.26 6.4 C1.2 4.71, 2.67 3.03, 4.99 0.36 M-0.26 6.4 C0.94 5.01, 2.14 3.63, 4.99 0.36 M5.38 6 C6.85 4.31, 8.32 2.62, 10.63 -0.03 M5.38 6 C7.17 3.94, 8.96 1.88, 10.63 -0.03 M10.37 6.36 C12.16 4.3, 13.96 2.24, 15.62 0.33 M10.37 6.36 C12.43 4, 14.49 1.63, 15.62 0.33 M16.01 5.97 C17.6 4.14, 19.18 2.32, 21.26 -0.07 M16.01 5.97 C17.09 4.73, 18.16 3.5, 21.26 -0.07 M21 6.33 C22.85 4.2, 24.7 2.07, 26.25 0.29 M21 6.33 C22.63 4.45, 24.27 2.57, 26.25 0.29 M26.64 5.93 C28.14 4.21, 29.63 2.49, 31.89 -0.1 M26.64 5.93 C28.52 3.77, 30.41 1.6, 31.89 -0.1 M31.63 6.29 C32.88 4.85, 34.14 3.41, 36.88 0.26 M31.63 6.29 C32.73 5.03, 33.83 3.76, 36.88 0.26 M37.27 5.9 C39.1 3.8, 40.93 1.69, 42.52 -0.14 M37.27 5.9 C39.09 3.81, 40.91 1.71, 42.52 -0.14 M42.26 6.26 C43.77 4.52, 45.29 2.77, 47.51 0.22 M42.26 6.26 C44.23 4, 46.19 1.73, 47.51 0.22 M47.9 5.87 C49.6 3.91, 51.29 1.96, 53.15 -0.17 M47.9 5.87 C49.09 4.5, 50.27 3.14, 53.15 -0.17 M52.89 6.23 C54.2 4.71, 55.52 3.2, 58.14 0.19 M52.89 6.23 C54.25 4.66, 55.61 3.1, 58.14 0.19 M58.53 5.83 C59.85 4.32, 61.17 2.8, 63.78 -0.21 M58.53 5.83 C59.93 4.22, 61.33 2.61, 63.78 -0.21 M63.52 6.19 C64.75 4.78, 65.98 3.37, 68.77 0.15 M63.52 6.19 C65.5 3.91, 67.48 1.64, 68.77 0.15 M69.16 5.8 C70.66 4.08, 72.15 2.36, 74.41 -0.24 M69.16 5.8 C70.5 4.26, 71.84 2.71, 74.41 -0.24 M74.15 6.16 C75.25 4.89, 76.35 3.62, 79.4 0.12 M74.15 6.16 C75.25 4.89, 76.34 3.63, 79.4 0.12 M79.79 5.76 C81.83 3.42, 83.86 1.08, 85.04 -0.28 M79.79 5.76 C81.84 3.41, 83.89 1.05, 85.04 -0.28 M84.78 6.12 C86.41 4.25, 88.04 2.38, 90.03 0.08 M84.78 6.12 C86.35 4.32, 87.91 2.52, 90.03 0.08 M90.42 5.73 C91.65 4.31, 92.88 2.89, 95.67 -0.31 M90.42 5.73 C92.44 3.4, 94.46 1.08, 95.67 -0.31 M95.41 6.09 C97.13 4.11, 98.84 2.14, 100.66 0.05 M95.41 6.09 C97.27 3.95, 99.12 1.81, 100.66 0.05 M101.05 5.69 C102.69 3.81, 104.32 1.94, 106.3 -0.34 M101.05 5.69 C102.98 3.48, 104.9 1.26, 106.3 -0.34 M106.04 6.05 C107.16 4.76, 108.29 3.47, 111.29 0.02 M106.04 6.05 C107.86 3.96, 109.68 1.87, 111.29 0.02 M111.03 6.41 C112.15 5.12, 113.27 3.83, 116.27 0.38 M111.03 6.41 C113.01 4.13, 114.99 1.85, 116.27 0.38 M116.67 6.02 C118.69 3.69, 120.72 1.36, 121.92 -0.02 M116.67 6.02 C117.78 4.74, 118.9 3.45, 121.92 -0.02 M121.66 6.38 C123.49 4.27, 125.33 2.15, 126.91 0.34 M121.66 6.38 C123.09 4.73, 124.52 3.09, 126.91 0.34 M127.3 5.98 C128.44 4.67, 129.58 3.36, 132.55 -0.05 M127.3 5.98 C129.15 3.86, 130.99 1.74, 132.55 -0.05 M132.29 6.34 C133.53 4.91, 134.78 3.48, 137.54 0.31 M132.29 6.34 C133.45 5.01, 134.6 3.68, 137.54 0.31 M137.93 5.95 C139.74 3.87, 141.55 1.78, 143.18 -0.09 M137.93 5.95 C139.65 3.97, 141.38 1.98, 143.18 -0.09 M142.92 6.31 C144 5.06, 145.08 3.82, 148.17 0.27 M142.92 6.31 C144 5.06, 145.08 3.82, 148.17 0.27 M148.56 5.91 C150.48 3.7, 152.41 1.49, 153.81 -0.12 M148.56 5.91 C150.51 3.67, 152.46 1.43, 153.81 -0.12 M153.55 6.27 C155.1 4.49, 156.66 2.7, 158.8 0.24 M153.55 6.27 C155.26 4.3, 156.98 2.32, 158.8 0.24 M159.19 5.88 C160.97 3.83, 162.75 1.78, 164.44 -0.16 M159.19 5.88 C160.61 4.24, 162.04 2.6, 164.44 -0.16 M164.18 6.24 C166.06 4.08, 167.94 1.91, 169.43 0.2 M164.18 6.24 C165.72 4.46, 167.27 2.68, 169.43 0.2 M169.82 5.85 C171.31 4.14, 172.79 2.43, 175.07 -0.19 M169.82 5.85 C171.32 4.12, 172.82 2.39, 175.07 -0.19 M174.81 6.21 C176.67 4.06, 178.54 1.91, 180.06 0.17 M174.81 6.21 C176.56 4.19, 178.32 2.16, 180.06 0.17 M180.45 5.81 C181.91 4.13, 183.37 2.46, 185.7 -0.23 M180.45 5.81 C181.68 4.39, 182.92 2.98, 185.7 -0.23 M185.44 6.17 C186.8 4.6, 188.16 3.03, 190.69 0.13 M185.44 6.17 C186.94 4.44, 188.45 2.7, 190.69 0.13 M191.08 5.78 C192.99 3.58, 194.9 1.38, 196.33 -0.26 M191.08 5.78 C192.14 4.55, 193.21 3.33, 196.33 -0.26 M196.07 6.14 C197.93 3.99, 199.8 1.84, 201.32 0.1 M196.07 6.14 C197.67 4.29, 199.28 2.44, 201.32 0.1 M201.71 5.74 C202.99 4.27, 204.28 2.79, 206.96 -0.3 M201.71 5.74 C202.96 4.31, 204.21 2.87, 206.96 -0.3 M206.7 6.1 C208.47 4.06, 210.24 2.03, 211.95 0.06 M206.7 6.1 C208.58 3.94, 210.46 1.77, 211.95 0.06 M212.34 5.71 C214.34 3.4, 216.34 1.1, 217.59 -0.33 M212.34 5.71 C213.67 4.18, 214.99 2.66, 217.59 -0.33 M217.33 6.07 C218.44 4.79, 219.55 3.51, 222.58 0.03 M217.33 6.07 C219.05 4.09, 220.77 2.1, 222.58 0.03 M222.97 5.67 C223.17 5.45, 223.36 5.22, 223.63 4.92 M222.97 5.67 C223.18 5.43, 223.4 5.18, 223.63 4.92" stroke="#1e1e1e" stroke-width="0.5" fill="none"></path><path d="M0 0 C76.16 0, 152.31 0, 223 0 M0 0 C62.1 0, 124.2 0, 223 0 M223 0 C223 1.78, 223 3.56, 223 6 M223 0 C223 2.39, 223 4.77, 223 6 M223 6 C135.56 6, 48.12 6, 0 6 M223 6 C159.19 6, 95.37 6, 0 6 M0 6 C0 4.2, 0 2.41, 0 0 M0 6 C0 3.82, 0 1.65, 0 0" stroke="#1e1e1e" stroke-width="1" fill="none"></path></g><g stroke-linecap="round" transform="translate(236.1982421875 10) rotate(0 39.5 120.5)"><path d="M3.47 -3.19 L80.32 -0.91 L76.97 242.84 L1.03 240.38" stroke="none" stroke-width="0" fill="#e9ecef"></path><path d="M-0.15 -1.2 C24.84 -2.12, 47.91 -0.14, 78.07 -0.66 M1.78 1.6 C19.27 0.28, 36.72 -0.96, 79.72 1.71 M78.52 2.12 C80.58 66.25, 78.15 124.24, 77.22 241.31 M80.21 0.91 C81.13 83.9, 81.86 165.68, 77.41 239.71 M82.57 238.1 C57.11 240.61, 39.08 240.31, 2.53 241 M80.41 240 C60.32 243.65, 44.24 243.51, 0.08 239.23 M0.75 239.8 C0.53 161.97, 2.17 85.67, -1.73 2.17 M0.88 240.75 C-1.67 184.92, -3.37 131.99, -0.38 0.96" stroke="#1e1e1e" stroke-width="2" fill="none"></path></g><g stroke-linecap="round" transform="translate(199.1982421875 113) rotate(0 12.5 16.5)"><path d="M-0.56 0.52 L25.91 0.21 L24.98 33.75 L0.33 32.41" stroke="none" stroke-width="0" fill="#ffc9c9"></path><path d="M0 0 C10.51 -0.3, 19.81 0.65, 25 0 M0 0 C5.43 -0.24, 10.73 0.46, 25 0 M25 0 C25.66 10.61, 24.34 21.14, 25 33 M25 0 C25.13 8.86, 25.24 18.36, 25 33 M25 33 C16.77 33.21, 9.64 33.07, 0 33 M25 33 C15.36 32.91, 6.09 33.05, 0 33 M0 33 C0.13 24.17, -0.28 13.89, 0 0 M0 33 C-0.31 22.52, -0.28 13.2, 0 0" stroke="#1e1e1e" stroke-width="2" fill="none"></path></g><g stroke-linecap="round" transform="translate(126.1982421875 35) rotate(0 20 258)"><path d="M2.66 2.31 C2.66 2.31, 2.66 2.31, 2.66 2.31 M2.66 2.31 C2.66 2.31, 2.66 2.31, 2.66 2.31 M3.45 13.6 C6.76 11.28, 8.39 8.28, 13.29 2.28 M3.45 13.6 C8.63 10.25, 10.51 6.3, 13.29 2.28 M3.58 25.64 C11.06 15.51, 14.1 11.2, 23.27 3 M3.58 25.64 C8.98 19.77, 13.86 11.11, 23.27 3 M3.72 37.68 C15.37 28.66, 23 15.54, 35.21 1.46 M3.72 37.68 C14.83 25.48, 28.64 9.27, 35.21 1.46 M3.85 49.72 C14.68 39.23, 18.04 35.19, 41.9 5.95 M3.85 49.72 C13.92 36.44, 25.49 25.54, 41.9 5.95 M3.98 61.76 C19.13 46.29, 29.49 29.61, 45.32 14.22 M3.98 61.76 C17.11 47.89, 27.82 33.1, 45.32 14.22 M3.46 74.56 C17.88 56.53, 33.63 44.54, 44.79 27.01 M3.46 74.56 C16.71 57.44, 32.78 40.47, 44.79 27.01 M3.59 86.6 C15.75 71.13, 32.09 54.31, 44.93 39.05 M3.59 86.6 C18.68 69.76, 36.55 52.34, 44.93 39.05 M3.73 98.64 C16.66 83.2, 34.55 67.16, 45.06 51.09 M3.73 98.64 C16.64 83.85, 31.15 66.97, 45.06 51.09 M3.86 110.68 C12.9 98.68, 29.07 83.75, 45.19 63.13 M3.86 110.68 C13.69 101.79, 19.3 90.92, 45.19 63.13 M3.99 122.72 C11.12 114.06, 24.05 99.44, 45.32 75.18 M3.99 122.72 C12.54 110.71, 20.49 100.79, 45.32 75.18 M3.47 135.52 C14.91 122.47, 27.25 112.75, 44.8 87.97 M3.47 135.52 C16.87 121.7, 31.86 104.18, 44.8 87.97 M3.6 147.56 C13.95 140.33, 18.34 123.62, 44.94 100.01 M3.6 147.56 C16.05 130.91, 32.61 114.06, 44.94 100.01 M3.74 159.6 C15.67 148.51, 25.56 129.93, 45.07 112.05 M3.74 159.6 C18.22 142.83, 33.66 124.03, 45.07 112.05 M3.87 171.64 C22.53 151.02, 30.42 133.75, 45.2 124.09 M3.87 171.64 C15.51 158.55, 26.28 143.39, 45.2 124.09 M4 183.68 C20.44 166.7, 32.51 151.41, 45.33 136.13 M4 183.68 C14.87 172.35, 21.01 164.76, 45.33 136.13 M3.48 196.48 C9.46 182.87, 16.49 174.27, 44.81 148.93 M3.48 196.48 C15.07 181.95, 28.56 170.05, 44.81 148.93 M3.61 208.52 C9.62 198.17, 26.31 189.86, 44.94 160.97 M3.61 208.52 C18.09 191.91, 30.53 177.46, 44.94 160.97 M3.75 220.56 C14.93 204.75, 30.35 193.22, 45.08 173.01 M3.75 220.56 C17.04 202.32, 31.75 186.92, 45.08 173.01 M3.88 232.6 C20 219.99, 32.81 203.45, 45.21 185.05 M3.88 232.6 C14.47 218.15, 26.4 201.92, 45.21 185.05 M4.01 244.64 C11.92 235.37, 25.76 219.69, 45.34 197.09 M4.01 244.64 C16.57 228.19, 32.17 212.24, 45.34 197.09 M3.49 257.44 C15.59 244.83, 22.61 237.31, 44.82 209.89 M3.49 257.44 C18.42 239.02, 35.03 221.98, 44.82 209.89 M3.62 269.48 C19.98 253.97, 32.45 241.74, 44.95 221.93 M3.62 269.48 C17.32 253.17, 30.5 239.5, 44.95 221.93 M3.76 281.52 C13.93 269.11, 19.34 260.39, 45.09 233.97 M3.76 281.52 C17.24 265.71, 28.45 251.42, 45.09 233.97 M3.89 293.56 C12.13 280.81, 25.68 267.2, 45.22 246.01 M3.89 293.56 C17.83 278.34, 29.5 263.65, 45.22 246.01 M4.02 305.6 C16.98 294.03, 25.1 278.75, 45.35 258.05 M4.02 305.6 C11.88 297.3, 22.26 283.71, 45.35 258.05 M3.5 318.4 C16.89 300.95, 33.33 284.62, 44.83 270.85 M3.5 318.4 C16.19 302.36, 31.03 284.99, 44.83 270.85 M3.63 330.44 C22.67 317.06, 36.68 295.31, 44.96 282.89 M3.63 330.44 C16.26 316.28, 26.56 301.83, 44.96 282.89 M3.77 342.48 C15.44 325.41, 35.95 303.2, 45.1 294.93 M3.77 342.48 C13.81 327.59, 27.48 317.47, 45.1 294.93 M3.9 354.52 C17.58 334.14, 33.82 318.3, 45.23 306.97 M3.9 354.52 C11.11 342.52, 23.07 332.05, 45.23 306.97 M4.03 366.56 C12.12 353.2, 25.9 339.15, 45.36 319.01 M4.03 366.56 C16.75 354.06, 27.76 338.93, 45.36 319.01 M3.51 379.35 C11.74 366.14, 26.44 357.44, 44.84 331.81 M3.51 379.35 C13.74 367.32, 24.21 355.1, 44.84 331.81 M3.64 391.39 C22.22 372.33, 31.51 362.32, 44.97 343.85 M3.64 391.39 C19.99 375.55, 32.85 354.96, 44.97 343.85 M3.78 403.44 C21.27 385.75, 33.66 368.6, 45.11 355.89 M3.78 403.44 C19.29 387.42, 29.29 373.58, 45.11 355.89 M3.91 415.48 C10.01 408.75, 17.97 396.01, 45.24 367.93 M3.91 415.48 C12 406.82, 24.29 394.87, 45.24 367.93 M4.04 427.52 C17.13 405.26, 35.1 385.85, 45.37 379.97 M4.04 427.52 C15.57 417.11, 23.56 407.21, 45.37 379.97 M3.52 440.31 C15.74 427.61, 19.76 421.9, 44.85 392.77 M3.52 440.31 C16.86 423.15, 31.75 406.92, 44.85 392.77 M3.65 452.35 C11.59 441.28, 22.52 427.43, 44.98 404.81 M3.65 452.35 C20.51 434.1, 32.59 417.46, 44.98 404.81 M3.78 464.39 C19.7 452.09, 23.49 437.64, 45.12 416.85 M3.78 464.39 C20.21 445.96, 36.7 428.81, 45.12 416.85 M3.92 476.44 C21.5 461.42, 31.5 444.11, 45.25 428.89 M3.92 476.44 C11.2 468.76, 21.28 456.14, 45.25 428.89 M4.05 488.48 C14.38 472.33, 28.51 455.58, 45.38 440.93 M4.05 488.48 C19.23 474.07, 32.15 457.08, 45.38 440.93 M3.53 501.27 C18.74 483.23, 38.19 463.97, 44.86 453.73 M3.53 501.27 C15.55 487.49, 28.34 472.84, 44.86 453.73 M3.01 514.07 C15.08 496.99, 29.83 485.31, 44.99 465.77 M3.01 514.07 C18.94 497.08, 34.78 478.5, 44.99 465.77 M9.7 518.56 C26.37 503.99, 34.84 487.04, 45.13 477.81 M9.7 518.56 C21.16 506.61, 34.43 491, 45.13 477.81 M19.67 519.28 C25.85 511.35, 31.53 509.53, 45.26 489.85 M19.67 519.28 C26.46 512.64, 33.17 505.23, 45.26 489.85 M31.62 517.74 C36.07 511.29, 38.12 512.1, 40.8 507.17 M31.62 517.74 C33.91 513.36, 37.68 511.02, 40.8 507.17 M2.67 513.65 C2.67 513.65, 2.67 513.65, 2.67 513.65 M2.67 513.65 C2.67 513.65, 2.67 513.65, 2.67 513.65 M16.98 515.48 C9.95 512.67, 5.16 506.2, 0.37 501.05 M16.98 515.48 C11.05 512.12, 6.92 505.03, 0.37 501.05 M29.77 516.01 C24.06 512.33, 14.4 505.53, 0.34 490.42 M29.77 516.01 C21.24 506.31, 12.38 497.82, 0.34 490.42 M38.04 512.59 C22.6 500.56, 10.82 489.79, 0.3 479.79 M38.04 512.59 C27.44 502.55, 19.15 494.04, 0.3 479.79 M40.27 503.93 C35.58 498.8, 27.72 488.21, 0.27 469.16 M40.27 503.93 C26.63 490.88, 9.52 479.87, 0.27 469.16 M40.23 493.3 C24.51 483.91, 10.38 469.63, 0.99 459.19 M40.23 493.3 C26.38 482.83, 15.45 469.12, 0.99 459.19 M40.2 482.67 C29.48 477.18, 21.62 465.83, 0.95 448.56 M40.2 482.67 C28.04 473.28, 15.13 459.78, 0.95 448.56 M40.17 472.04 C26.19 459.33, 15.75 452.72, 0.92 437.93 M40.17 472.04 C32.21 463.9, 24.96 455.77, 0.92 437.93 M40.13 461.41 C27.97 448.06, 16.41 440.39, 0.89 427.3 M40.13 461.41 C28.83 454.17, 18.43 442.43, 0.89 427.3 M40.85 451.44 C31.44 442.76, 24.74 431.72, 0.85 416.67 M40.85 451.44 C30.74 443.24, 16.89 433.63, 0.85 416.67 M40.82 440.81 C34.88 433.91, 20.67 430.28, 0.82 406.04 M40.82 440.81 C28.74 430.42, 15.8 417.88, 0.82 406.04 M40.78 430.18 C26.04 416.87, 15.52 407.36, 0.78 395.41 M40.78 430.18 C26.99 417.23, 12.68 405.08, 0.78 395.41 M40.75 419.55 C31.1 412.02, 12.04 398.61, 0.75 384.78 M40.75 419.55 C28.43 410.61, 15.13 398.74, 0.75 384.78 M40.71 408.92 C26.51 393.02, 14.04 381.63, 0.71 374.15 M40.71 408.92 C28.56 398.31, 20.36 391.22, 0.71 374.15 M40.68 398.29 C27.64 387.16, 9.22 372.09, 0.68 363.52 M40.68 398.29 C28.49 390.09, 18.12 381.23, 0.68 363.52 M40.64 387.66 C27.85 373.86, 6.43 357.63, 0.64 352.89 M40.64 387.66 C33.6 379.33, 23.16 373.31, 0.64 352.89 M40.61 377.03 C32.59 363.73, 19.75 357.7, 0.61 342.26 M40.61 377.03 C29.31 370.51, 20.94 360.82, 0.61 342.26 M40.58 366.4 C32.88 360.45, 20.26 349.96, 0.58 331.63 M40.58 366.4 C27.57 351.58, 11.99 342.05, 0.58 331.63 M40.54 355.77 C33.16 347.6, 25.87 340.8, 0.54 321 M40.54 355.77 C30.68 347.34, 17.58 335.03, 0.54 321 M40.51 345.14 C27.23 331.12, 15.46 323.27, 0.51 310.37 M40.51 345.14 C32.5 338.08, 22.82 330.19, 0.51 310.37 M40.47 334.51 C27.41 324.53, 12.2 313.98, 0.47 299.73 M40.47 334.51 C31.54 327.4, 19.61 316.46, 0.47 299.73 M40.44 323.88 C29.79 312.88, 18.79 299.74, 0.44 289.1 M40.44 323.88 C26.91 313.49, 16.52 306.41, 0.44 289.1 M40.4 313.25 C27.33 299.37, 12.86 286.75, 0.4 278.47 M40.4 313.25 C23.44 300.61, 9.68 287.18, 0.4 278.47 M40.37 302.62 C26.25 290.77, 13.35 280.43, 0.37 267.84 M40.37 302.62 C27.47 289.01, 12.55 278.24, 0.37 267.84 M40.33 291.99 C25.08 283.54, 9.76 271.54, 0.33 257.21 M40.33 291.99 C29.28 281.1, 20.18 274.03, 0.33 257.21 M40.3 281.36 C26.15 274.43, 15.69 262.99, 0.3 246.58 M40.3 281.36 C25.76 267.06, 9.74 255.46, 0.3 246.58 M40.26 270.73 C33.59 266.57, 25.23 250.99, 1.02 236.61 M40.26 270.73 C27.22 259.88, 13.48 250.41, 1.02 236.61 M40.23 260.1 C27.68 250.55, 12.77 233, 0.99 225.98 M40.23 260.1 C26.58 249.62, 12.81 235.22, 0.99 225.98 M40.2 249.47 C31.9 242.51, 22.82 232.14, 0.95 215.35 M40.2 249.47 C28.85 237.1, 15.06 226.84, 0.95 215.35 M40.16 238.84 C29.09 229.58, 16.38 219.18, 0.92 204.72 M40.16 238.84 C24.87 226.63, 12.31 215.91, 0.92 204.72 M40.13 228.21 C29.75 218.49, 24.78 217.36, 0.88 194.09 M40.13 228.21 C25.68 216.71, 9.55 200.65, 0.88 194.09 M40.85 218.23 C30.65 206.01, 14.67 198.61, 0.85 183.46 M40.85 218.23 C32.32 211.89, 24.42 201.69, 0.85 183.46 M40.81 207.6 C23.95 195.34, 15.77 183.97, 0.81 172.83 M40.81 207.6 C31.17 197.83, 21.32 190.45, 0.81 172.83 M40.78 196.97 C23.48 182.64, 12.31 176.88, 0.78 162.2 M40.78 196.97 C31.31 186.33, 17.07 177.46, 0.78 162.2 M40.74 186.34 C26.13 179.06, 15.24 167.53, 0.74 151.57 M40.74 186.34 C27.61 176.26, 18.95 167.76, 0.74 151.57 M40.71 175.71 C27.37 164.07, 23.69 161.5, 0.71 140.94 M40.71 175.71 C27.75 164.84, 17.33 156.78, 0.71 140.94 M40.67 165.08 C29.91 155.49, 23.75 149.54, 0.67 130.31 M40.67 165.08 C29.67 155.79, 16.98 144.95, 0.67 130.31 M40.64 154.45 C30.81 151.17, 25.68 140.65, 0.64 119.68 M40.64 154.45 C27.6 143.81, 17 130.98, 0.64 119.68 M40.61 143.82 C24.9 133.3, 17.51 125.3, 0.61 109.05 M40.61 143.82 C30.94 133.12, 19.57 124.84, 0.61 109.05 M40.57 133.19 C29.11 125.92, 15.48 108.19, 0.57 98.42 M40.57 133.19 C30.59 124.07, 18.13 117.31, 0.57 98.42 M40.54 122.56 C24.7 111.19, 12.36 98.48, 0.54 87.79 M40.54 122.56 C25.55 111.14, 9.86 98.27, 0.54 87.79 M40.5 111.93 C24.03 101.27, 14.36 85.01, 0.5 77.16 M40.5 111.93 C27.93 100.31, 14.64 90.96, 0.5 77.16 M40.47 101.3 C27.67 96.27, 20.41 81.02, 0.47 66.53 M40.47 101.3 C28.25 93.05, 22.08 85.5, 0.47 66.53 M40.43 90.67 C23.09 74.96, 14.89 63.45, 0.43 55.9 M40.43 90.67 C28.6 78.65, 14.69 70.99, 0.43 55.9 M40.4 80.04 C26.96 66.44, 16.13 61.1, 0.4 45.27 M40.4 80.04 C27.73 68.2, 14.77 53.88, 0.4 45.27 M40.36 69.41 C26.73 53.81, 12.1 43.06, 0.36 34.64 M40.36 69.41 C24.87 56.68, 14.15 47.98, 0.36 34.64 M40.33 58.78 C34.87 52.84, 20.73 44.88, 0.33 24.01 M40.33 58.78 C29.12 50, 17.42 38.91, 0.33 24.01 M40.29 48.15 C23.75 36.92, 10.97 24.27, 0.3 13.38 M40.29 48.15 C22.98 34.05, 11.32 24.04, 0.3 13.38 M40.26 37.52 C28.29 25.22, 19.94 23.96, 1.77 4.06 M40.26 37.52 C28.21 26.26, 13.09 14.83, 1.77 4.06 M40.23 26.89 C30.21 14.73, 16.67 7.89, 9.28 -0.01 M40.23 26.89 C32.06 20.47, 22.33 11.54, 9.28 -0.01 M40.19 16.26 C32.99 16.81, 30.6 12.53, 21.32 -0.14 M40.19 16.26 C35.58 10.69, 32.63 9.11, 21.32 -0.14 M38.65 4.32 C37.05 1.54, 34.13 1.44, 34.12 0.38 M38.65 4.32 C37.3 3.12, 36.09 1.79, 34.12 0.38" stroke="#e9ecef" stroke-width="1" fill="none"></path><path d="M10 0 C14.89 0.05, 26.9 2.5, 30 0 M10 0 C18.01 -0.27, 26.56 0.5, 30 0 M30 0 C36.59 1.98, 38.75 6.31, 40 10 M30 0 C40.4 2.87, 36.66 5.03, 40 10 M40 10 C42.22 195.74, 41.63 383.03, 40 506 M40 10 C37.72 199.61, 37.38 388.06, 40 506 M40 506 C40.62 509.15, 39.57 512.25, 30 516 M40 506 C41.67 514.28, 33.37 517.17, 30 516 M30 516 C25.44 519.34, 20.6 514.96, 10 516 M30 516 C24.03 514.1, 17.06 517.33, 10 516 M10 516 C7.25 517.73, 2.77 510.07, 0 506 M10 516 C3.38 513.93, 4.46 514.06, 0 506 M0 506 C1.1 380.64, -0.44 252.95, 0 10 M0 506 C2.12 314.79, 1.56 124.23, 0 10 M0 10 C-3.72 5.26, 0.15 1.44, 10 0 M0 10 C0.98 0.25, 5.61 2.93, 10 0" stroke="#1e1e1e" stroke-width="2" fill="none"></path></g><g stroke-linecap="round" transform="translate(167.1982421875 353) rotate(0 111.5 3)"><path d="M0 0 C0 0, 0 0, 0 0 M0 0 C0 0, 0 0, 0 0 M-0.26 6.4 C1.83 4, 3.91 1.59, 4.99 0.36 M-0.26 6.4 C1.83 3.99, 3.92 1.59, 4.99 0.36 M5.38 6 C7.1 4.03, 8.82 2.05, 10.63 -0.03 M5.38 6 C7.37 3.72, 9.36 1.43, 10.63 -0.03 M10.37 6.36 C11.77 4.75, 13.17 3.14, 15.62 0.33 M10.37 6.36 C12.39 4.04, 14.42 1.71, 15.62 0.33 M16.01 5.97 C17.21 4.59, 18.42 3.2, 21.26 -0.07 M16.01 5.97 C17.22 4.58, 18.42 3.2, 21.26 -0.07 M21 6.33 C22.8 4.26, 24.6 2.19, 26.25 0.29 M21 6.33 C22.41 4.7, 23.82 3.08, 26.25 0.29 M26.64 5.93 C28.49 3.81, 30.33 1.69, 31.89 -0.1 M26.64 5.93 C27.99 4.38, 29.34 2.83, 31.89 -0.1 M31.63 6.29 C32.78 4.97, 33.93 3.65, 36.88 0.26 M31.63 6.29 C33.14 4.56, 34.64 2.83, 36.88 0.26 M37.27 5.9 C38.49 4.5, 39.71 3.1, 42.52 -0.14 M37.27 5.9 C38.54 4.44, 39.81 2.98, 42.52 -0.14 M42.26 6.26 C43.32 5.03, 44.39 3.81, 47.51 0.22 M42.26 6.26 C44.04 4.22, 45.81 2.17, 47.51 0.22 M47.9 5.87 C49.86 3.61, 51.82 1.36, 53.15 -0.17 M47.9 5.87 C49.88 3.6, 51.85 1.32, 53.15 -0.17 M52.89 6.23 C54.02 4.92, 55.15 3.62, 58.14 0.19 M52.89 6.23 C54.37 4.52, 55.86 2.81, 58.14 0.19 M58.53 5.83 C60.31 3.78, 62.09 1.73, 63.78 -0.21 M58.53 5.83 C60.43 3.65, 62.33 1.46, 63.78 -0.21 M63.52 6.19 C65.05 4.43, 66.58 2.67, 68.77 0.15 M63.52 6.19 C64.78 4.74, 66.04 3.29, 68.77 0.15 M69.16 5.8 C70.53 4.22, 71.9 2.65, 74.41 -0.24 M69.16 5.8 C70.81 3.9, 72.45 2.01, 74.41 -0.24 M74.15 6.16 C75.62 4.46, 77.09 2.77, 79.4 0.12 M74.15 6.16 C75.69 4.39, 77.23 2.61, 79.4 0.12 M79.79 5.76 C81.53 3.76, 83.27 1.76, 85.04 -0.28 M79.79 5.76 C81.13 4.22, 82.47 2.68, 85.04 -0.28 M84.78 6.12 C86.59 4.03, 88.41 1.95, 90.03 0.08 M84.78 6.12 C86.79 3.8, 88.81 1.49, 90.03 0.08 M90.42 5.73 C92.04 3.86, 93.67 1.99, 95.67 -0.31 M90.42 5.73 C91.59 4.39, 92.76 3.04, 95.67 -0.31 M95.41 6.09 C96.8 4.49, 98.19 2.89, 100.66 0.05 M95.41 6.09 C96.54 4.78, 97.68 3.48, 100.66 0.05 M101.05 5.69 C102.18 4.39, 103.32 3.09, 106.3 -0.34 M101.05 5.69 C102.95 3.51, 104.85 1.33, 106.3 -0.34 M106.04 6.05 C107.76 4.07, 109.49 2.09, 111.29 0.02 M106.04 6.05 C107.9 3.92, 109.75 1.78, 111.29 0.02 M111.03 6.41 C112.27 4.98, 113.51 3.55, 116.27 0.38 M111.03 6.41 C112.24 5.02, 113.45 3.63, 116.27 0.38 M116.67 6.02 C117.95 4.55, 119.22 3.08, 121.92 -0.02 M116.67 6.02 C118.36 4.07, 120.05 2.13, 121.92 -0.02 M121.66 6.38 C122.83 5.03, 124 3.69, 126.91 0.34 M121.66 6.38 C123.22 4.58, 124.78 2.79, 126.91 0.34 M127.3 5.98 C128.49 4.61, 129.69 3.24, 132.55 -0.05 M127.3 5.98 C128.92 4.12, 130.54 2.26, 132.55 -0.05 M132.29 6.34 C134.32 4, 136.36 1.66, 137.54 0.31 M132.29 6.34 C133.55 4.89, 134.82 3.43, 137.54 0.31 M137.93 5.95 C139.59 4.04, 141.24 2.14, 143.18 -0.09 M137.93 5.95 C139.29 4.39, 140.65 2.82, 143.18 -0.09 M142.92 6.31 C144.02 5.04, 145.12 3.78, 148.17 0.27 M142.92 6.31 C144.24 4.79, 145.56 3.27, 148.17 0.27 M148.56 5.91 C149.9 4.37, 151.24 2.83, 153.81 -0.12 M148.56 5.91 C150.57 3.61, 152.57 1.3, 153.81 -0.12 M153.55 6.27 C155.28 4.28, 157.02 2.28, 158.8 0.24 M153.55 6.27 C155.29 4.27, 157.03 2.27, 158.8 0.24 M159.19 5.88 C160.28 4.62, 161.38 3.37, 164.44 -0.16 M159.19 5.88 C160.49 4.38, 161.79 2.89, 164.44 -0.16 M164.18 6.24 C165.53 4.69, 166.88 3.13, 169.43 0.2 M164.18 6.24 C166.23 3.87, 168.29 1.51, 169.43 0.2 M169.82 5.85 C171.13 4.34, 172.44 2.83, 175.07 -0.19 M169.82 5.85 C171.32 4.12, 172.81 2.4, 175.07 -0.19 M174.81 6.21 C176.17 4.64, 177.54 3.06, 180.06 0.17 M174.81 6.21 C176.67 4.06, 178.54 1.91, 180.06 0.17 M180.45 5.81 C181.87 4.18, 183.29 2.55, 185.7 -0.23 M180.45 5.81 C181.95 4.09, 183.44 2.37, 185.7 -0.23 M185.44 6.17 C186.87 4.52, 188.3 2.87, 190.69 0.13 M185.44 6.17 C186.78 4.62, 188.13 3.07, 190.69 0.13 M191.08 5.78 C192.52 4.12, 193.95 2.47, 196.33 -0.26 M191.08 5.78 C192.66 3.96, 194.23 2.15, 196.33 -0.26 M196.07 6.14 C198.14 3.75, 200.21 1.37, 201.32 0.1 M196.07 6.14 C197.85 4.08, 199.64 2.03, 201.32 0.1 M201.71 5.74 C203.17 4.07, 204.62 2.39, 206.96 -0.3 M201.71 5.74 C203.51 3.67, 205.31 1.6, 206.96 -0.3 M206.7 6.1 C208.73 3.76, 210.76 1.42, 211.95 0.06 M206.7 6.1 C208.6 3.91, 210.5 1.73, 211.95 0.06 M212.34 5.71 C213.47 4.41, 214.59 3.12, 217.59 -0.33 M212.34 5.71 C213.85 3.97, 215.36 2.24, 217.59 -0.33 M217.33 6.07 C219.31 3.79, 221.3 1.5, 222.58 0.03 M217.33 6.07 C218.85 4.32, 220.36 2.57, 222.58 0.03 M222.97 5.67 C223.12 5.5, 223.27 5.33, 223.63 4.92 M222.97 5.67 C223.21 5.4, 223.45 5.12, 223.63 4.92" stroke="#1e1e1e" stroke-width="0.5" fill="none"></path><path d="M0 0 C74.37 0, 148.74 0, 223 0 M0 0 C76.07 0, 152.13 0, 223 0 M223 0 C223 1.68, 223 3.37, 223 6 M223 0 C223 1.6, 223 3.2, 223 6 M223 6 C165.67 6, 108.34 6, 0 6 M223 6 C147.64 6, 72.28 6, 0 6 M0 6 C0 3.86, 0 1.71, 0 0 M0 6 C0 4.62, 0 3.23, 0 0" stroke="#1e1e1e" stroke-width="1" fill="none"></path></g><g stroke-linecap="round" transform="translate(334.5888528024079 273.83145936887615) rotate(359.3074994763154 9.411147197592072 89.53377500612396)"><path d="M-0.99 0.22 L18.54 0.25 L19.47 179.35 L0.92 178.52" stroke="none" stroke-width="0" fill="#b2f2bb"></path><path d="M0 0 C3.78 0.03, 8.87 0.5, 18.82 0 M0 0 C6.39 -0.08, 13.64 -0.04, 18.82 0 M18.82 0 C19.22 70.24, 17.95 139.09, 18.82 179.07 M18.82 0 C19.31 51.87, 18.43 104.9, 18.82 179.07 M18.82 179.07 C14.71 179, 9.12 179.27, 0 179.07 M18.82 179.07 C12.39 178.68, 5.8 179.25, 0 179.07 M0 179.07 C-0.55 142.74, 0.28 106.54, 0 0 M0 179.07 C0.1 114.93, 0.24 50.45, 0 0" stroke="#1e1e1e" stroke-width="1" fill="none"></path></g><g stroke-linecap="round" transform="translate(200.78709498990793 270.96622499387604) rotate(359.3074994763154 9.411147197592072 89.53377500612396)"><path d="M-0.02 -0.92 L18.44 0.8 L18.96 179.68 L0.43 179.13" stroke="none" stroke-width="0" fill="#b2f2bb"></path><path d="M0 0 C6.4 -0.44, 14.1 -0.66, 18.82 0 M0 0 C7.55 0.41, 14.07 -0.3, 18.82 0 M18.82 0 C17.88 37.52, 18.82 77.02, 18.82 179.07 M18.82 0 C18.32 59.81, 19.19 120.78, 18.82 179.07 M18.82 179.07 C14.66 178.5, 9.03 178.33, 0 179.07 M18.82 179.07 C14.04 179.3, 9.75 178.73, 0 179.07 M0 179.07 C1.4 117.34, 1.49 55.1, 0 0 M0 179.07 C0.66 120.21, 0.33 62.64, 0 0" stroke="#1e1e1e" stroke-width="1" fill="none"></path></g><g stroke-linecap="round" transform="translate(390 41.365234375) rotate(0 20 258)"><path d="M2.66 2.31 C2.66 2.31, 2.66 2.31, 2.66 2.31 M2.66 2.31 C2.66 2.31, 2.66 2.31, 2.66 2.31 M0.83 16.62 C3.12 14.06, 8.57 5.04, 14.6 0.77 M0.83 16.62 C3.33 11.52, 6.59 9.85, 14.6 0.77 M0.96 28.66 C7.88 25.83, 14.94 11.43, 25.23 0.74 M0.96 28.66 C5.09 23.11, 11.59 17.2, 25.23 0.74 M0.44 41.46 C14.47 25.65, 23.13 14.34, 35.21 1.46 M0.44 41.46 C11.84 29.27, 21.4 13.76, 35.21 1.46 M0.57 53.5 C10.53 41.03, 21.5 35.8, 39.93 8.21 M0.57 53.5 C13.3 38.9, 28.93 22.63, 39.93 8.21 M0.7 65.54 C14.85 46.06, 29.67 28.05, 40.72 19.5 M0.7 65.54 C11.86 52.47, 21.21 41.39, 40.72 19.5 M0.84 77.58 C18.11 65.52, 26.27 42.98, 40.86 31.54 M0.84 77.58 C16.37 62.34, 30.92 42.41, 40.86 31.54 M0.97 89.62 C9.01 75.66, 23.95 66.7, 40.33 44.34 M0.97 89.62 C14.38 70.44, 31.72 55.05, 40.33 44.34 M0.45 102.41 C12.09 84.79, 31.37 66.44, 40.47 56.38 M0.45 102.41 C9.71 91.8, 19.81 78.28, 40.47 56.38 M0.58 114.46 C6.55 105.2, 16.1 91.18, 40.6 68.42 M0.58 114.46 C12.72 102.93, 23.99 89.57, 40.6 68.42 M0.71 126.5 C9.36 113.84, 23.51 98.89, 40.73 80.46 M0.71 126.5 C10.91 113.09, 20.98 100.58, 40.73 80.46 M0.85 138.54 C7.12 126.97, 17.58 117.03, 40.87 92.5 M0.85 138.54 C8.66 126.64, 19.91 117.94, 40.87 92.5 M0.98 150.58 C13.43 144.38, 20.16 128.67, 40.34 105.3 M0.98 150.58 C10.33 143.35, 15.81 131.1, 40.34 105.3 M0.46 163.37 C12.92 143.47, 29.62 127.22, 40.48 117.34 M0.46 163.37 C14.99 149.86, 26.95 135.72, 40.48 117.34 M0.59 175.41 C6.56 166.64, 18.56 158.36, 40.61 129.38 M0.59 175.41 C19.14 157.53, 34.56 137.85, 40.61 129.38 M0.72 187.46 C16.07 167.06, 33.6 157.51, 40.74 141.42 M0.72 187.46 C12.85 172.47, 30.24 153.94, 40.74 141.42 M0.86 199.5 C14.38 189.7, 22.9 174.22, 40.88 153.46 M0.86 199.5 C10.9 187.46, 20.67 176.72, 40.88 153.46 M0.99 211.54 C11.03 198.54, 15.55 189.15, 40.35 166.25 M0.99 211.54 C15.33 198.59, 28.18 181.85, 40.35 166.25 M0.47 224.33 C12.83 206.94, 28.68 193.34, 40.49 178.3 M0.47 224.33 C14.9 210.98, 25.4 194.41, 40.49 178.3 M0.6 236.37 C17.75 221.93, 33.95 199.86, 40.62 190.34 M0.6 236.37 C8.55 227.65, 18.67 213.37, 40.62 190.34 M0.73 248.41 C12.87 233.47, 22.7 227.66, 40.75 202.38 M0.73 248.41 C12.5 236.51, 23.48 226.45, 40.75 202.38 M0.87 260.45 C18.13 243.6, 30.9 226.78, 40.89 214.42 M0.87 260.45 C15.58 243.64, 28.78 225.02, 40.89 214.42 M1 272.5 C9.38 260.02, 23.96 245.81, 40.36 227.21 M1 272.5 C9.01 262.1, 21.03 251.2, 40.36 227.21 M0.48 285.29 C13.29 269.34, 30.64 254.51, 40.5 239.25 M0.48 285.29 C9.86 274.51, 18.43 263.46, 40.5 239.25 M0.61 297.33 C14.61 282.9, 26.04 267.25, 40.63 251.29 M0.61 297.33 C13.48 283.38, 24.08 269.16, 40.63 251.29 M0.74 309.37 C14.93 295.33, 30.34 273.49, 40.76 263.34 M0.74 309.37 C7.57 299.93, 19.59 288.25, 40.76 263.34 M0.88 321.41 C9.83 303.97, 22.78 292.39, 40.89 275.38 M0.88 321.41 C11.92 309.12, 22.26 296.86, 40.89 275.38 M1.01 333.45 C12.06 315.71, 26.68 305.91, 40.37 288.17 M1.01 333.45 C8.41 323.55, 17.16 313.06, 40.37 288.17 M0.49 346.25 C15.07 329.67, 28 313.09, 40.5 300.21 M0.49 346.25 C12.12 335.06, 23.15 319.99, 40.5 300.21 M0.62 358.29 C14.95 341.64, 32.9 322.84, 40.64 312.25 M0.62 358.29 C15.47 339.26, 33.61 321.66, 40.64 312.25 M0.75 370.33 C10.53 362.43, 15.96 351.02, 40.77 324.29 M0.75 370.33 C13.75 355.32, 25.63 343.41, 40.77 324.29 M0.88 382.37 C14.05 362.62, 31.58 349.89, 40.9 336.34 M0.88 382.37 C10.89 370.83, 23.11 358.72, 40.9 336.34 M1.02 394.41 C13.66 382.47, 18.42 372.83, 40.38 349.13 M1.02 394.41 C12.23 382.34, 27.67 367.82, 40.38 349.13 M0.5 407.21 C15.98 394.58, 24.74 379, 40.51 361.17 M0.5 407.21 C14.75 389.27, 27.95 376.35, 40.51 361.17 M0.63 419.25 C13.88 411.99, 24.25 398.36, 40.65 373.21 M0.63 419.25 C13.6 401.25, 30.26 385.09, 40.65 373.21 M0.76 431.29 C13.58 420.51, 14.87 410.95, 40.78 385.25 M0.76 431.29 C13.77 415.89, 26.44 404.36, 40.78 385.25 M0.89 443.33 C10.75 427.42, 19.84 420.28, 40.91 397.29 M0.89 443.33 C17.53 427.33, 30.36 407.92, 40.91 397.29 M1.03 455.37 C11.8 442.32, 18.85 438.44, 40.39 410.09 M1.03 455.37 C7.33 445.32, 15.02 438.53, 40.39 410.09 M0.5 468.17 C11.38 451.41, 24.25 445.06, 40.52 422.13 M0.5 468.17 C14.5 453.58, 24.09 442.44, 40.52 422.13 M0.64 480.21 C15.4 469.07, 20.4 455.37, 40.66 434.17 M0.64 480.21 C8.69 470.71, 18.07 461.71, 40.66 434.17 M0.77 492.25 C14.8 477.9, 28.78 461.27, 40.79 446.21 M0.77 492.25 C12.52 479.61, 24.48 468.5, 40.79 446.21 M0.9 504.29 C10.41 489.62, 17.88 482.77, 40.27 459.01 M0.9 504.29 C10.88 492.19, 24.34 477.06, 40.27 459.01 M3.01 514.07 C14.66 497.3, 26.94 488.45, 40.4 471.05 M3.01 514.07 C13.02 504.12, 20.94 495.57, 40.4 471.05 M12.32 515.54 C22.96 502.78, 29.35 490.01, 40.53 483.09 M12.32 515.54 C22.26 504.21, 36.03 488.29, 40.53 483.09 M22.3 516.26 C29.33 511.5, 31.92 504.77, 40.67 495.13 M22.3 516.26 C28.56 508.38, 35.9 501.02, 40.67 495.13 M34.24 514.72 C34.58 513.91, 38.33 509.7, 39.49 508.68 M34.24 514.72 C36.86 511.83, 38.77 510.54, 39.49 508.68 M2.67 513.65 C2.67 513.65, 2.67 513.65, 2.67 513.65 M2.67 513.65 C2.67 513.65, 2.67 513.65, 2.67 513.65 M16.98 515.48 C12.83 513.47, 7.3 507.04, 0.37 501.05 M16.98 515.48 C10.21 509.68, 4.07 505.36, 0.37 501.05 M29.77 516.01 C19.25 507.98, 13.54 502.38, 0.34 490.42 M29.77 516.01 C21.02 509.33, 17.19 501.55, 0.34 490.42 M38.04 512.59 C25.96 501.21, 10.57 485.94, 0.3 479.79 M38.04 512.59 C22.78 501.07, 7.33 485.78, 0.3 479.79 M40.27 503.93 C32.63 493.5, 23.42 490.09, 0.27 469.16 M40.27 503.93 C30.6 496.97, 23.49 487.53, 0.27 469.16 M40.23 493.3 C26.37 482.98, 14.98 472.46, 0.99 459.19 M40.23 493.3 C27.57 480.1, 15.74 470.11, 0.99 459.19 M40.2 482.67 C31.33 475.65, 16.22 467.58, 0.95 448.56 M40.2 482.67 C27.39 472.5, 12.87 459.45, 0.95 448.56 M40.17 472.04 C31.42 465.72, 19.85 459.79, 0.92 437.93 M40.17 472.04 C30.5 464.72, 21.86 455.16, 0.92 437.93 M40.13 461.41 C32.09 448.87, 19.92 441.24, 0.89 427.3 M40.13 461.41 C27.51 448.71, 13.94 437.91, 0.89 427.3 M40.85 451.44 C29.82 442.65, 21.22 440.87, 0.85 416.67 M40.85 451.44 C31.54 442.71, 20.27 432.85, 0.85 416.67 M40.82 440.81 C31.36 426.95, 15.24 423.51, 0.82 406.04 M40.82 440.81 C26.28 430.75, 14.02 417.85, 0.82 406.04 M40.78 430.18 C27.35 419.94, 16.54 409.08, 0.78 395.41 M40.78 430.18 C29.13 419, 19.58 408.19, 0.78 395.41 M40.75 419.55 C29.96 407.53, 8.96 394.82, 0.75 384.78 M40.75 419.55 C27.56 409.93, 18.2 399.8, 0.75 384.78 M40.71 408.92 C30.46 396.29, 14.93 388.18, 0.71 374.15 M40.71 408.92 C27 399.48, 15.77 388.41, 0.71 374.15 M40.68 398.29 C28.39 383.83, 16.46 376.3, 0.68 363.52 M40.68 398.29 C30.63 390.28, 18.71 382.67, 0.68 363.52 M40.64 387.66 C29.95 378.59, 17.46 367.05, 0.64 352.89 M40.64 387.66 C27.68 378.15, 14.38 365.09, 0.64 352.89 M40.61 377.03 C35.71 366.54, 27.29 360.7, 0.61 342.26 M40.61 377.03 C29.72 363.8, 15.55 352.44, 0.61 342.26 M40.58 366.4 C32.49 360.83, 20.53 344.95, 0.58 331.63 M40.58 366.4 C29.2 355.33, 19.01 348.75, 0.58 331.63 M40.54 355.77 C27.98 347.17, 23.45 336.15, 0.54 321 M40.54 355.77 C29.19 344.9, 15.44 330.81, 0.54 321 M40.51 345.14 C25.88 336.65, 17.09 324.57, 0.51 310.37 M40.51 345.14 C28.82 334.59, 19.02 326.3, 0.51 310.37 M40.47 334.51 C33.13 327.18, 20.26 315.65, 0.47 299.73 M40.47 334.51 C27.47 320.64, 11.71 308.06, 0.47 299.73 M40.44 323.88 C28.4 316.19, 18.01 299.27, 0.44 289.1 M40.44 323.88 C27.44 311.42, 10.03 297.2, 0.44 289.1 M40.4 313.25 C24.93 299.53, 12.28 295.28, 0.4 278.47 M40.4 313.25 C27.71 300.47, 14.98 290.19, 0.4 278.47 M40.37 302.62 C28.65 291.07, 11.92 280.72, 0.37 267.84 M40.37 302.62 C33.2 295.03, 21.41 288.65, 0.37 267.84 M40.33 291.99 C27.6 282.59, 9.99 264.48, 0.33 257.21 M40.33 291.99 C27.13 280.1, 18.51 273.35, 0.33 257.21 M40.3 281.36 C30.07 274.18, 21.74 268.09, 0.3 246.58 M40.3 281.36 C29.72 273.93, 20.6 263.91, 0.3 246.58 M40.26 270.73 C27.4 265.07, 19.53 252.73, 1.02 236.61 M40.26 270.73 C26.75 259.72, 12.18 244.81, 1.02 236.61 M40.23 260.1 C30.23 256.85, 24.09 243.9, 0.99 225.98 M40.23 260.1 C27.03 250.56, 16.25 238.42, 0.99 225.98 M40.2 249.47 C27.04 242.99, 20.33 235.33, 0.95 215.35 M40.2 249.47 C29.99 241.09, 15.96 229.39, 0.95 215.35 M40.16 238.84 C26.59 225.2, 14.56 216.44, 0.92 204.72 M40.16 238.84 C32.31 231.95, 23.92 223.08, 0.92 204.72 M40.13 228.21 C22.38 217.2, 11.11 205.51, 0.88 194.09 M40.13 228.21 C24.82 214.23, 8 202.62, 0.88 194.09 M40.85 218.23 C23.38 205.14, 10.88 187.36, 0.85 183.46 M40.85 218.23 C23.04 203.25, 8.81 191.85, 0.85 183.46 M40.81 207.6 C31.96 198.06, 17.99 189.36, 0.81 172.83 M40.81 207.6 C33.08 199.67, 23.93 192.41, 0.81 172.83 M40.78 196.97 C28.96 182.29, 15.21 175.1, 0.78 162.2 M40.78 196.97 C27.35 185.54, 17.38 174.08, 0.78 162.2 M40.74 186.34 C35.95 181.55, 23.15 175.03, 0.74 151.57 M40.74 186.34 C28.29 174.41, 16.78 163.71, 0.74 151.57 M40.71 175.71 C32.45 161.83, 17.08 157.76, 0.71 140.94 M40.71 175.71 C27.84 166.56, 16.68 154.72, 0.71 140.94 M40.67 165.08 C23.96 150.74, 6.83 139.08, 0.67 130.31 M40.67 165.08 C32.67 155.77, 23.88 150.65, 0.67 130.31 M40.64 154.45 C25.47 145.78, 20.21 132.68, 0.64 119.68 M40.64 154.45 C24.6 139.38, 10 126.69, 0.64 119.68 M40.61 143.82 C25.5 134.3, 14.87 121.19, 0.61 109.05 M40.61 143.82 C27.36 133.12, 14.34 118.16, 0.61 109.05 M40.57 133.19 C25.62 123, 13.72 111.81, 0.57 98.42 M40.57 133.19 C31.9 125.4, 21.35 114.34, 0.57 98.42 M40.54 122.56 C21.83 110.96, 10.24 93.37, 0.54 87.79 M40.54 122.56 C27.53 112.83, 15.86 102.89, 0.54 87.79 M40.5 111.93 C25.34 103.08, 13.04 87.09, 0.5 77.16 M40.5 111.93 C33.95 104.3, 23.25 100.04, 0.5 77.16 M40.47 101.3 C21.37 88.95, 8.58 75.44, 0.47 66.53 M40.47 101.3 C26.67 87.31, 11.03 74.09, 0.47 66.53 M40.43 90.67 C23.24 79.8, 15.16 69.39, 0.43 55.9 M40.43 90.67 C31.89 84.12, 19.74 73.55, 0.43 55.9 M40.4 80.04 C27.05 68.75, 17.43 57.57, 0.4 45.27 M40.4 80.04 C26.77 70.79, 15.49 57.5, 0.4 45.27 M40.36 69.41 C23.35 55.37, 9.96 39.32, 0.36 34.64 M40.36 69.41 C31.42 62.18, 21.94 53.49, 0.36 34.64 M40.33 58.78 C27.6 43.96, 15.57 30.6, 0.33 24.01 M40.33 58.78 C29.34 50.49, 20.96 41.35, 0.33 24.01 M40.29 48.15 C27.86 44.51, 24.91 30.66, 0.3 13.38 M40.29 48.15 C31.19 37.67, 24.49 30.59, 0.3 13.38 M40.26 37.52 C27.85 25.45, 19.77 16.87, 1.77 4.06 M40.26 37.52 C31.66 30.1, 19.9 20.52, 1.77 4.06 M40.23 26.89 C31.08 17.12, 21.74 14.12, 9.28 -0.01 M40.23 26.89 C32.61 20.42, 25.68 11.7, 9.28 -0.01 M40.19 16.26 C34.55 8.35, 31.34 4.21, 21.32 -0.14 M40.19 16.26 C35.75 12.44, 27.39 4.01, 21.32 -0.14 M38.65 4.32 C38.44 3.13, 36.94 2.56, 34.12 0.38 M38.65 4.32 C37.6 2.91, 35.41 1.76, 34.12 0.38" stroke="#e9ecef" stroke-width="1" fill="none"></path><path d="M10 0 C17.75 2.96, 18.72 -2.84, 30 0 M10 0 C14.81 1.78, 24.44 1.79, 30 0 M30 0 C35.77 -3.99, 43.43 0.91, 40 10 M30 0 C35.9 -0.56, 35.99 -0.21, 40 10 M40 10 C42.27 127.34, 44.65 241.32, 40 506 M40 10 C37.16 112.93, 37.08 215.2, 40 506 M40 506 C42.78 514.56, 38.58 512.35, 30 516 M40 506 C42.37 513.52, 34.74 511.93, 30 516 M30 516 C27.32 516.64, 23.59 517.11, 10 516 M30 516 C26.42 514.38, 22.94 514.61, 10 516 M10 516 C1.33 518.83, 2.26 514.43, 0 506 M10 516 C7.49 516.15, 2.79 512.37, 0 506 M0 506 C1.16 321.76, 1.68 133.65, 0 10 M0 506 C2.74 326.47, 3.07 145.73, 0 10 M0 10 C2.36 0.58, -0.54 0.39, 10 0 M0 10 C0.37 3.08, -0.76 -0.28, 10 0" stroke="#1e1e1e" stroke-width="2" fill="none"></path></g><g stroke-linecap="round" transform="translate(219 349.365234375) rotate(0 7.5 7)"><path d="M0 0 L15 0 L15 14 L0 14" stroke="none" stroke-width="0" fill="#ced4da"></path><path d="M0 0 C5.46 0, 10.91 0, 15 0 M0 0 C5.56 0, 11.12 0, 15 0 M15 0 C15 5.23, 15 10.47, 15 14 M15 0 C15 5.09, 15 10.17, 15 14 M15 14 C9.61 14, 4.23 14, 0 14 M15 14 C10.59 14, 6.18 14, 0 14 M0 14 C0 10.48, 0 6.96, 0 0 M0 14 C0 9.13, 0 4.25, 0 0" stroke="#1e1e1e" stroke-width="1" fill="none"></path></g><g stroke-linecap="round" transform="translate(201.1982421875 111) rotate(0 10.533333778381348 169.49999999999997)"><path d="M0 0 C0 0, 0 0, 0 0 M0 0 C0 0, 0 0, 0 0 M-0.26 6.4 C1.1 4.83, 2.47 3.25, 4.99 0.36 M-0.26 6.4 C0.83 5.14, 1.93 3.88, 4.99 0.36 M0.13 12.04 C2.5 9.32, 4.86 6.6, 10.63 -0.03 M0.13 12.04 C3.44 8.23, 6.76 4.42, 10.63 -0.03 M-0.13 18.44 C5.97 11.42, 12.07 4.41, 15.62 0.33 M-0.13 18.44 C5.71 11.72, 11.55 5, 15.62 0.33 M0.27 24.08 C8.19 14.97, 16.12 5.85, 21.26 -0.07 M0.27 24.08 C6.44 16.98, 12.61 9.88, 21.26 -0.07 M0 30.48 C6.11 23.46, 12.22 16.43, 21 6.33 M0 30.48 C4.22 25.63, 8.44 20.78, 21 6.33 M-0.26 36.88 C8.16 27.2, 16.57 17.52, 21.39 11.97 M-0.26 36.88 C5.2 30.6, 10.65 24.33, 21.39 11.97 M0.14 42.52 C6.47 35.24, 12.8 27.95, 21.13 18.37 M0.14 42.52 C8.51 32.89, 16.89 23.25, 21.13 18.37 M-0.12 48.92 C6.88 40.86, 13.89 32.8, 20.87 24.77 M-0.12 48.92 C4.75 43.31, 9.62 37.71, 20.87 24.77 M0.27 54.56 C5.82 48.18, 11.36 41.8, 21.27 30.41 M0.27 54.56 C7.12 46.68, 13.98 38.79, 21.27 30.41 M0.01 60.96 C5.29 54.88, 10.58 48.8, 21 36.81 M0.01 60.96 C6.08 53.98, 12.14 47, 21 36.81 M-0.25 67.36 C4.88 61.45, 10.01 55.55, 21.4 42.45 M-0.25 67.36 C6.37 59.74, 12.98 52.13, 21.4 42.45 M0.14 73 C5.31 67.06, 10.47 61.12, 21.14 48.85 M0.14 73 C8.29 63.63, 16.43 54.27, 21.14 48.85 M-0.12 79.4 C8.13 69.91, 16.38 60.42, 20.88 55.25 M-0.12 79.4 C6.59 71.68, 13.31 63.95, 20.88 55.25 M0.28 85.04 C8.33 75.78, 16.38 66.51, 21.27 60.89 M0.28 85.04 C6.67 77.68, 13.07 70.32, 21.27 60.89 M0.01 91.44 C6.7 83.74, 13.39 76.05, 21.01 67.29 M0.01 91.44 C6.58 83.88, 13.15 76.33, 21.01 67.29 M-0.25 97.84 C8.33 87.97, 16.9 78.11, 21.4 72.93 M-0.25 97.84 C6.83 89.7, 13.91 81.55, 21.4 72.93 M0.15 103.48 C6.76 95.88, 13.37 88.27, 21.14 79.33 M0.15 103.48 C6.24 96.48, 12.32 89.47, 21.14 79.33 M-0.11 109.88 C7.83 100.74, 15.77 91.6, 20.88 85.73 M-0.11 109.88 C7.28 101.37, 14.67 92.87, 20.88 85.73 M0.28 115.52 C6.51 108.36, 12.73 101.2, 21.27 91.37 M0.28 115.52 C4.84 110.28, 9.4 105.03, 21.27 91.37 M0.02 121.92 C6.11 114.91, 12.2 107.91, 21.01 97.77 M0.02 121.92 C8.2 112.51, 16.38 103.1, 21.01 97.77 M-0.24 128.32 C6.09 121.03, 12.43 113.74, 21.41 103.41 M-0.24 128.32 C6.72 120.31, 13.67 112.31, 21.41 103.41 M0.15 133.96 C5.5 127.81, 10.84 121.66, 21.15 109.81 M0.15 133.96 C5.59 127.7, 11.03 121.45, 21.15 109.81 M-0.11 140.36 C7.16 132, 14.42 123.64, 20.88 116.21 M-0.11 140.36 C8.09 130.93, 16.28 121.5, 20.88 116.21 M0.29 146 C5.74 139.73, 11.19 133.46, 21.28 121.85 M0.29 146 C6.4 138.96, 12.52 131.93, 21.28 121.85 M0.02 152.4 C4.52 147.23, 9.01 142.06, 21.02 128.25 M0.02 152.4 C5.76 145.8, 11.49 139.21, 21.02 128.25 M-0.24 158.8 C5.32 152.4, 10.87 146.01, 21.41 133.89 M-0.24 158.8 C4.71 153.11, 9.65 147.42, 21.41 133.89 M0.16 164.44 C5.77 157.98, 11.38 151.52, 21.15 140.29 M0.16 164.44 C8.12 155.28, 16.07 146.13, 21.15 140.29 M-0.1 170.84 C5.38 164.53, 10.86 158.22, 20.89 146.69 M-0.1 170.84 C6.67 163.04, 13.44 155.25, 20.89 146.69 M0.29 176.48 C8.51 167.02, 16.73 157.57, 21.28 152.33 M0.29 176.48 C8.25 167.32, 16.21 158.16, 21.28 152.33 M0.03 182.88 C5.34 176.76, 10.66 170.65, 21.02 158.73 M0.03 182.88 C5.03 177.13, 10.02 171.38, 21.02 158.73 M-0.23 189.27 C5.95 182.16, 12.13 175.05, 21.42 164.37 M-0.23 189.27 C6.37 181.68, 12.97 174.08, 21.42 164.37 M0.16 194.92 C5.96 188.25, 11.76 181.58, 21.16 170.77 M0.16 194.92 C7.49 186.49, 14.81 178.06, 21.16 170.77 M-0.1 201.32 C7.52 192.55, 15.14 183.78, 20.89 177.16 M-0.1 201.32 C5.13 195.3, 10.35 189.29, 20.89 177.16 M0.3 206.96 C7.4 198.79, 14.49 190.62, 21.29 182.81 M0.3 206.96 C5.35 201.14, 10.41 195.32, 21.29 182.81 M0.03 213.36 C5.3 207.29, 10.57 201.23, 21.03 189.21 M0.03 213.36 C5.59 206.96, 11.15 200.57, 21.03 189.21 M-0.23 219.75 C6.51 212.01, 13.24 204.26, 21.42 194.85 M-0.23 219.75 C4.33 214.51, 8.89 209.26, 21.42 194.85 M0.17 225.4 C6.28 218.37, 12.39 211.34, 21.16 201.25 M0.17 225.4 C5.76 218.96, 11.36 212.52, 21.16 201.25 M-0.09 231.8 C4.75 226.22, 9.59 220.65, 20.9 207.64 M-0.09 231.8 C7.57 222.98, 15.24 214.16, 20.9 207.64 M0.3 237.44 C5.31 231.67, 10.33 225.9, 21.29 213.29 M0.3 237.44 C7.23 229.47, 14.16 221.5, 21.29 213.29 M0.04 243.84 C8.38 234.24, 16.72 224.65, 21.03 219.69 M0.04 243.84 C6.82 236.03, 13.6 228.23, 21.03 219.69 M-0.22 250.23 C7.65 241.18, 15.52 232.12, 21.43 225.33 M-0.22 250.23 C8.25 240.49, 16.72 230.74, 21.43 225.33 M0.17 255.88 C5.94 249.25, 11.7 242.61, 21.17 231.73 M0.17 255.88 C6.75 248.3, 13.34 240.73, 21.17 231.73 M-0.09 262.27 C7.24 253.84, 14.57 245.41, 20.9 238.12 M-0.09 262.27 C7.21 253.88, 14.5 245.49, 20.9 238.12 M0.3 267.92 C8.52 258.47, 16.73 249.03, 21.3 243.77 M0.3 267.92 C6.12 261.23, 11.93 254.55, 21.3 243.77 M0.04 274.32 C8.29 264.82, 16.55 255.33, 21.04 250.16 M0.04 274.32 C7.54 265.69, 15.04 257.07, 21.04 250.16 M-0.22 280.71 C4.95 274.76, 10.12 268.82, 21.43 255.81 M-0.22 280.71 C7.66 271.65, 15.54 262.58, 21.43 255.81 M0.18 286.36 C6.62 278.94, 13.07 271.52, 21.17 262.21 M0.18 286.36 C7.29 278.17, 14.41 269.98, 21.17 262.21 M-0.08 292.75 C7.77 283.72, 15.63 274.68, 20.91 268.6 M-0.08 292.75 C4.89 287.03, 9.87 281.3, 20.91 268.6 M0.31 298.4 C4.87 293.15, 9.43 287.91, 21.3 274.25 M0.31 298.4 C6.05 291.8, 11.79 285.19, 21.3 274.25 M0.05 304.8 C6.71 297.13, 13.38 289.46, 21.04 280.64 M0.05 304.8 C7.8 295.87, 15.56 286.95, 21.04 280.64 M-0.21 311.19 C5.48 304.64, 11.18 298.09, 21.44 286.29 M-0.21 311.19 C6.31 303.69, 12.82 296.19, 21.44 286.29 M0.18 316.84 C5.49 310.73, 10.8 304.62, 21.18 292.69 M0.18 316.84 C7.42 308.51, 14.65 300.19, 21.18 292.69 M-0.08 323.23 C6.19 316.02, 12.47 308.8, 20.91 299.08 M-0.08 323.23 C4.63 317.82, 9.33 312.41, 20.91 299.08 M0.31 328.88 C7.23 320.93, 14.14 312.98, 21.31 304.73 M0.31 328.88 C7.83 320.23, 15.34 311.59, 21.31 304.73 M0.05 335.27 C8.29 325.8, 16.52 316.33, 21.05 311.12 M0.05 335.27 C4.37 330.31, 8.68 325.35, 21.05 311.12 M1.76 339.41 C8.82 331.29, 15.88 323.16, 21.44 316.77 M1.76 339.41 C7.95 332.28, 14.15 325.16, 21.44 316.77 M6.75 339.77 C11.45 334.36, 16.14 328.96, 21.18 323.16 M6.75 339.77 C10.62 335.31, 14.5 330.85, 21.18 323.16 M12.39 339.37 C15.1 336.25, 17.82 333.13, 20.92 329.56 M12.39 339.37 C15.22 336.12, 18.06 332.86, 20.92 329.56 M17.38 339.73 C18.54 338.4, 19.7 337.06, 21.31 335.21 M17.38 339.73 C18.95 337.93, 20.52 336.12, 21.31 335.21" stroke="#1e1e1e" stroke-width="0.5" fill="none"></path><path d="M0 0 C7.01 0, 14.03 0, 21.07 0 M0 0 C6 0, 12 0, 21.07 0 M21.07 0 C21.07 130.45, 21.07 260.9, 21.07 339 M21.07 0 C21.07 132.66, 21.07 265.33, 21.07 339 M21.07 339 C16.48 339, 11.89 339, 0 339 M21.07 339 C13.13 339, 5.19 339, 0 339 M0 339 C0 205.57, 0 72.13, 0 0 M0 339 C0 211.81, 0 84.62, 0 0" stroke="#1e1e1e" stroke-width="1" fill="none"></path></g><g stroke-linecap="round" transform="translate(327.5 110.865234375) rotate(0 12.5 16.5)"><path d="M0.74 0.06 L24.07 -0.68 L25.22 32.19 L-0.45 32.11" stroke="none" stroke-width="0" fill="#b2f2bb"></path><path d="M0 0 C10.26 -0.34, 19.42 0.37, 25 0 M0 0 C8.91 -0.51, 17.86 -0.41, 25 0 M25 0 C24.77 11.71, 25.36 21.87, 25 33 M25 0 C25.46 7.86, 25.18 15.25, 25 33 M25 33 C20.05 33.83, 14.24 33.11, 0 33 M25 33 C18.74 33.24, 12.35 32.99, 0 33 M0 33 C0.5 21.62, 0.53 11.3, 0 0 M0 33 C0.24 24.08, 0.45 14.53, 0 0" stroke="#1e1e1e" stroke-width="2" fill="none"></path></g><g stroke-linecap="round" transform="translate(330.46666622161865 112.865234375) rotate(0 10.533333778381348 169.49999999999997)"><path d="M0 0 C0 0, 0 0, 0 0 M0 0 C0 0, 0 0, 0 0 M-0.26 6.4 C1.2 4.72, 2.66 3.04, 4.99 0.36 M-0.26 6.4 C1.37 4.52, 3 2.65, 4.99 0.36 M0.13 12.04 C3.34 8.35, 6.56 4.65, 10.63 -0.03 M0.13 12.04 C2.84 8.93, 5.54 5.82, 10.63 -0.03 M-0.13 18.44 C3.53 14.23, 7.2 10.01, 15.62 0.33 M-0.13 18.44 C3.26 14.54, 6.65 10.64, 15.62 0.33 M0.27 24.08 C4.61 19.09, 8.95 14.09, 21.26 -0.07 M0.27 24.08 C8.31 14.83, 16.36 5.57, 21.26 -0.07 M0 30.48 C5.65 23.98, 11.3 17.49, 21 6.33 M0 30.48 C5.9 23.7, 11.79 16.92, 21 6.33 M-0.26 36.88 C7.4 28.07, 15.06 19.26, 21.39 11.97 M-0.26 36.88 C6.09 29.58, 12.44 22.27, 21.39 11.97 M0.14 42.52 C8.4 33.01, 16.67 23.51, 21.13 18.37 M0.14 42.52 C6.84 34.81, 13.54 27.11, 21.13 18.37 M-0.12 48.92 C6.64 41.14, 13.41 33.35, 20.87 24.77 M-0.12 48.92 C6.54 41.26, 13.2 33.6, 20.87 24.77 M0.27 54.56 C8.19 45.46, 16.1 36.35, 21.27 30.41 M0.27 54.56 C7.69 46.03, 15.1 37.5, 21.27 30.41 M0.01 60.96 C6.36 53.65, 12.71 46.35, 21 36.81 M0.01 60.96 C7.28 52.59, 14.55 44.23, 21 36.81 M-0.25 67.36 C5.24 61.04, 10.72 54.73, 21.4 42.45 M-0.25 67.36 C6.61 59.46, 13.47 51.57, 21.4 42.45 M0.14 73 C8.5 63.38, 16.86 53.76, 21.14 48.85 M0.14 73 C7.13 64.97, 14.11 56.93, 21.14 48.85 M-0.12 79.4 C4.53 74.05, 9.18 68.7, 20.88 55.25 M-0.12 79.4 C7.34 70.81, 14.81 62.23, 20.88 55.25 M0.28 85.04 C7.15 77.13, 14.03 69.22, 21.27 60.89 M0.28 85.04 C8.44 75.65, 16.6 66.26, 21.27 60.89 M0.01 91.44 C7.23 83.14, 14.44 74.85, 21.01 67.29 M0.01 91.44 C6.82 83.61, 13.63 75.77, 21.01 67.29 M-0.25 97.84 C6.73 89.81, 13.71 81.78, 21.4 72.93 M-0.25 97.84 C6 90.65, 12.25 83.46, 21.4 72.93 M0.15 103.48 C5.32 97.53, 10.49 91.59, 21.14 79.33 M0.15 103.48 C6.25 96.47, 12.34 89.45, 21.14 79.33 M-0.11 109.88 C4.69 104.35, 9.5 98.81, 20.88 85.73 M-0.11 109.88 C7.59 101.01, 15.3 92.15, 20.88 85.73 M0.28 115.52 C4.9 110.2, 9.53 104.88, 21.27 91.37 M0.28 115.52 C5.14 109.93, 10 104.34, 21.27 91.37 M0.02 121.92 C4.38 116.91, 8.73 111.89, 21.01 97.77 M0.02 121.92 C4.63 116.62, 9.24 111.32, 21.01 97.77 M-0.24 128.32 C6.69 120.34, 13.62 112.37, 21.41 103.41 M-0.24 128.32 C7.03 119.94, 14.31 111.57, 21.41 103.41 M0.15 133.96 C5.03 128.35, 9.9 122.74, 21.15 109.81 M0.15 133.96 C4.41 129.06, 8.66 124.17, 21.15 109.81 M-0.11 140.36 C5.45 133.96, 11.02 127.56, 20.88 116.21 M-0.11 140.36 C6.27 133.02, 12.65 125.68, 20.88 116.21 M0.29 146 C8.5 136.55, 16.71 127.1, 21.28 121.85 M0.29 146 C7.3 137.93, 14.32 129.85, 21.28 121.85 M0.02 152.4 C7.11 144.25, 14.19 136.1, 21.02 128.25 M0.02 152.4 C5.18 146.47, 10.33 140.54, 21.02 128.25 M-0.24 158.8 C8.14 149.15, 16.53 139.51, 21.41 133.89 M-0.24 158.8 C8.26 149.02, 16.76 139.24, 21.41 133.89 M0.16 164.44 C6.13 157.57, 12.1 150.7, 21.15 140.29 M0.16 164.44 C8.18 155.21, 16.2 145.99, 21.15 140.29 M-0.1 170.84 C4.86 165.13, 9.82 159.42, 20.89 146.69 M-0.1 170.84 C4.46 165.59, 9.02 160.34, 20.89 146.69 M0.29 176.48 C4.84 171.24, 9.39 166.01, 21.28 152.33 M0.29 176.48 C7.56 168.12, 14.83 159.76, 21.28 152.33 M0.03 182.88 C7.78 173.96, 15.53 165.04, 21.02 158.73 M0.03 182.88 C4.4 177.84, 8.78 172.81, 21.02 158.73 M-0.23 189.27 C6.47 181.56, 13.18 173.85, 21.42 164.37 M-0.23 189.27 C5.86 182.27, 11.95 175.26, 21.42 164.37 M0.16 194.92 C7.1 186.94, 14.03 178.96, 21.16 170.77 M0.16 194.92 C4.94 189.42, 9.71 183.93, 21.16 170.77 M-0.1 201.32 C6.25 194.02, 12.59 186.72, 20.89 177.16 M-0.1 201.32 C7.07 193.07, 14.24 184.82, 20.89 177.16 M0.3 206.96 C6.14 200.23, 11.99 193.51, 21.29 182.81 M0.3 206.96 C6.52 199.79, 12.75 192.63, 21.29 182.81 M0.03 213.36 C8.38 203.76, 16.72 194.16, 21.03 189.21 M0.03 213.36 C8.27 203.89, 16.5 194.42, 21.03 189.21 M-0.23 219.75 C5.97 212.63, 12.16 205.5, 21.42 194.85 M-0.23 219.75 C6.25 212.3, 12.73 204.85, 21.42 194.85 M0.17 225.4 C7.78 216.64, 15.4 207.88, 21.16 201.25 M0.17 225.4 C6.66 217.93, 13.15 210.46, 21.16 201.25 M-0.09 231.8 C4.95 225.99, 9.99 220.19, 20.9 207.64 M-0.09 231.8 C5.77 225.05, 11.63 218.31, 20.9 207.64 M0.3 237.44 C5.11 231.9, 9.92 226.37, 21.29 213.29 M0.3 237.44 C6.18 230.68, 12.05 223.92, 21.29 213.29 M0.04 243.84 C7.2 235.59, 14.37 227.35, 21.03 219.69 M0.04 243.84 C7.21 235.58, 14.39 227.33, 21.03 219.69 M-0.22 250.23 C8.27 240.47, 16.76 230.7, 21.43 225.33 M-0.22 250.23 C6.32 242.71, 12.86 235.18, 21.43 225.33 M0.17 255.88 C4.47 250.94, 8.76 246, 21.17 231.73 M0.17 255.88 C7.58 247.36, 14.98 238.84, 21.17 231.73 M-0.09 262.27 C6.44 254.76, 12.98 247.24, 20.9 238.12 M-0.09 262.27 C5.9 255.39, 11.88 248.5, 20.9 238.12 M0.3 267.92 C7.83 259.26, 15.36 250.6, 21.3 243.77 M0.3 267.92 C5.32 262.14, 10.34 256.37, 21.3 243.77 M0.04 274.32 C4.44 269.25, 8.84 264.19, 21.04 250.16 M0.04 274.32 C7.36 265.9, 14.68 257.48, 21.04 250.16 M-0.22 280.71 C7.29 272.08, 14.79 263.45, 21.43 255.81 M-0.22 280.71 C6.03 273.52, 12.28 266.33, 21.43 255.81 M0.18 286.36 C8.05 277.3, 15.92 268.24, 21.17 262.21 M0.18 286.36 C6.96 278.55, 13.75 270.75, 21.17 262.21 M-0.08 292.75 C4.65 287.3, 9.39 281.85, 20.91 268.6 M-0.08 292.75 C5.17 286.71, 10.43 280.66, 20.91 268.6 M0.31 298.4 C5.74 292.15, 11.18 285.89, 21.3 274.25 M0.31 298.4 C5.58 292.34, 10.85 286.28, 21.3 274.25 M0.05 304.8 C5.65 298.35, 11.25 291.91, 21.04 280.64 M0.05 304.8 C4.96 299.14, 9.87 293.49, 21.04 280.64 M-0.21 311.19 C7.95 301.8, 16.11 292.42, 21.44 286.29 M-0.21 311.19 C5.95 304.11, 12.11 297.02, 21.44 286.29 M0.18 316.84 C5.54 310.67, 10.9 304.51, 21.18 292.69 M0.18 316.84 C4.59 311.76, 9 306.69, 21.18 292.69 M-0.08 323.23 C4.31 318.19, 8.69 313.14, 20.91 299.08 M-0.08 323.23 C8.06 313.87, 16.19 304.51, 20.91 299.08 M0.31 328.88 C8.51 319.45, 16.7 310.03, 21.31 304.73 M0.31 328.88 C6.83 321.38, 13.34 313.89, 21.31 304.73 M0.05 335.27 C6.32 328.06, 12.59 320.85, 21.05 311.12 M0.05 335.27 C4.98 329.61, 9.9 323.94, 21.05 311.12 M1.76 339.41 C9.34 330.69, 16.91 321.98, 21.44 316.77 M1.76 339.41 C8.2 332, 14.64 324.6, 21.44 316.77 M6.75 339.77 C11.85 333.89, 16.96 328.02, 21.18 323.16 M6.75 339.77 C11.24 334.6, 15.73 329.44, 21.18 323.16 M12.39 339.37 C15.52 335.77, 18.65 332.17, 20.92 329.56 M12.39 339.37 C14.22 337.27, 16.04 335.17, 20.92 329.56 M17.38 339.73 C18.74 338.17, 20.1 336.6, 21.31 335.21 M17.38 339.73 C18.22 338.77, 19.06 337.8, 21.31 335.21" stroke="#1e1e1e" stroke-width="0.5" fill="none"></path><path d="M0 0 C4.88 0, 9.77 0, 21.07 0 M0 0 C8.38 0, 16.76 0, 21.07 0 M21.07 0 C21.07 71.57, 21.07 143.14, 21.07 339 M21.07 0 C21.07 131.76, 21.07 263.51, 21.07 339 M21.07 339 C16.66 339, 12.26 339, 0 339 M21.07 339 C15.96 339, 10.85 339, 0 339 M0 339 C0 249.55, 0 160.11, 0 0 M0 339 C0 249.23, 0 159.47, 0 0" stroke="#1e1e1e" stroke-width="1" fill="none"></path></g><g stroke-linecap="round" transform="translate(10 297.365234375) rotate(0 58 65.5)"><path d="M0 0 L116 0 L116 131 L0 131" stroke="none" stroke-width="0" fill="#343a40"></path><path d="M0 0 C27.73 0, 55.46 0, 116 0 M0 0 C24.31 0, 48.63 0, 116 0 M116 0 C116 45.65, 116 91.31, 116 131 M116 0 C116 45.41, 116 90.82, 116 131 M116 131 C82.51 131, 49.02 131, 0 131 M116 131 C72.5 131, 29.01 131, 0 131 M0 131 C0 88.66, 0 46.32, 0 0 M0 131 C0 101.44, 0 71.87, 0 0" stroke="#1e1e1e" stroke-width="1" fill="none"></path></g><g stroke-linecap="round" transform="translate(318.5 348.365234375) rotate(0 7.5 7)"><path d="M0 0 L15 0 L15 14 L0 14" stroke="none" stroke-width="0" fill="#ced4da"></path><path d="M0 0 C5.35 0, 10.71 0, 15 0 M0 0 C5.6 0, 11.2 0, 15 0 M15 0 C15 5.24, 15 10.48, 15 14 M15 0 C15 3.63, 15 7.25, 15 14 M15 14 C10.87 14, 6.74 14, 0 14 M15 14 C11.92 14, 8.85 14, 0 14 M0 14 C0 9.67, 0 5.33, 0 0 M0 14 C0 10.9, 0 7.8, 0 0" stroke="#1e1e1e" stroke-width="1" fill="none"></path></g></svg>