<svg version="1.1" xmlns="http://www.w3.org/2000/svg" viewBox="0 0 645.0706751883398 200.19018315741073" width="645.0706751883398" height="200.19018315741073" class="excalidraw-svg">
  <!-- svg-source:excalidraw -->
  
  <defs>
    <style class="style-fonts">
      @font-face {
        font-family: "Virgil";
        src: url("https://excalidraw.com/Virgil.woff2");
      }
      @font-face {
        font-family: "Cascadia";
        src: url("https://excalidraw.com/Cascadia.woff2");
      }
      @font-face {
        font-family: "Assistant";
        src: url("https://excalidraw.com/Assistant-Regular.woff2");
      }
    </style>
    
  </defs>
  <rect x="0" y="0" width="645.0706751883398" height="200.19018315741073" fill="#ffffff"/><g stroke-linecap="round"><g transform="translate(9.80225916728375 186.4691892742863) rotate(0 311.6108319821255 0)"><path d="M1.09 0.6 C104.8 0.49, 519 -0.91, 622.88 -1.06 M0.2 -0.13 C103.66 -0.09, 517.75 -0.25, 621.75 -0.07" stroke="#1e1e1e" stroke-width="2" fill="none"/></g></g><mask/><g stroke-linecap="round" transform="translate(25.057275090212386 145.97429678104015) rotate(0 43.5 16.048052304860732)"><path d="M0 0 C24.76 -0.68, 51.43 -1.54, 87 0 M0 0 C33.82 0.51, 70.03 0.5, 87 0 M87 0 C87.42 11.35, 87.21 19.38, 87 32.1 M87 0 C88.16 13.74, 86.67 25.89, 87 32.1 M87 32.1 C54.68 30.59, 25.47 32.31, 0 32.1 M87 32.1 C53.71 31.4, 19.12 32.34, 0 32.1 M0 32.1 C-1 21.69, -0.05 10.44, 0 0 M0 32.1 C-1.25 21.12, -0.3 11.62, 0 0" stroke="#1e1e1e" stroke-width="2" fill="none"/></g><g stroke-linecap="round"><g transform="translate(96.24946748812738 61.19807488796084) rotate(0 207.1296233717335 0.22159352230846707)"><path d="M-0.84 1.17 C36.4 -7.29, 154.93 -58.55, 224.28 -50.3 C293.63 -42.06, 383.42 33.95, 415.24 50.64" stroke="#2f9e44" stroke-width="2.5" fill="none" stroke-dasharray="8 10"/></g><g transform="translate(96.24946748812738 61.19807488796084) rotate(0 207.1296233717335 0.22159352230846707)"><path d="M386.03 43.78 C398.82 47.05, 408.1 50.69, 415.24 50.64" stroke="#2f9e44" stroke-width="2.5" fill="none"/></g><g transform="translate(96.24946748812738 61.19807488796084) rotate(0 207.1296233717335 0.22159352230846707)"><path d="M397.27 26.61 C405.96 36.15, 411.08 46.15, 415.24 50.64" stroke="#2f9e44" stroke-width="2.5" fill="none"/></g></g><mask/><g stroke-linecap="round" transform="translate(320.42333602899447 54.43600560965314) rotate(0 9.012084617814523 64.47190133374619)"><path d="M1.2 1.04 C1.2 1.04, 1.2 1.04, 1.2 1.04 M1.2 1.04 C1.2 1.04, 1.2 1.04, 1.2 1.04 M5.27 8.56 C6.48 6.91, 7.31 5.91, 9.21 4.03 M5.27 8.56 C6.24 7.31, 6.98 6.13, 9.21 4.03 M4.75 21.35 C6.51 16.62, 13.5 13.4, 18.52 5.5 M4.75 21.35 C9.05 15.88, 14.69 10.6, 18.52 5.5 M4.88 33.39 C8.88 28.4, 13.82 19.99, 18.66 17.54 M4.88 33.39 C9.57 29.22, 13.55 24.93, 18.66 17.54 M5.01 45.43 C11.88 38.1, 13.42 34.25, 18.79 29.58 M5.01 45.43 C7.86 40.55, 12.17 37.03, 18.79 29.58 M5.15 57.47 C8.03 53.73, 11.86 51.59, 18.92 41.62 M5.15 57.47 C10.98 51.67, 16.38 44.61, 18.92 41.62 M5.28 69.51 C11.99 65.65, 16.03 58.75, 19.06 53.67 M5.28 69.51 C9.47 65.51, 12 61.71, 19.06 53.67 M4.76 82.31 C11.12 77.06, 15.85 69.76, 18.53 66.46 M4.76 82.31 C9.5 76.65, 14.4 70.75, 18.53 66.46 M4.89 94.35 C11.21 88.44, 16.17 81.1, 18.67 78.5 M4.89 94.35 C6.67 90.16, 10.12 87.29, 18.67 78.5 M5.02 106.39 C6.98 103.84, 11.23 100.22, 18.8 90.54 M5.02 106.39 C10.34 100.99, 14.16 96.62, 18.8 90.54 M5.16 118.43 C8.52 114.53, 15.8 110.22, 18.93 102.58 M5.16 118.43 C10.81 112.61, 15.01 106.28, 18.93 102.58 M5.29 130.47 C6.56 127.24, 10.01 121.94, 19.07 114.62 M5.29 130.47 C8.98 125.42, 14.95 119.23, 19.07 114.62 M2.29 128.45 C2.29 128.45, 2.29 128.45, 2.29 128.45 M2.29 128.45 C2.29 128.45, 2.29 128.45, 2.29 128.45 M14.33 128.32 C10.94 123.77, 5.19 120.29, -0.01 115.85 M14.33 128.32 C11.08 124.51, 5.83 120.43, -0.01 115.85 M18.83 121.62 C9.77 117.38, 5.63 107.71, -0.04 105.22 M18.83 121.62 C11.51 115.75, 5.86 110.3, -0.04 105.22 M18.79 110.99 C16.13 106.84, 10.12 101.46, 0.68 95.25 M18.79 110.99 C12.56 106.02, 5.6 100.35, 0.68 95.25 M18.76 100.36 C13.29 96.6, 10.29 92.37, 0.64 84.62 M18.76 100.36 C12.7 96.24, 7.9 89.75, 0.64 84.62 M18.72 89.73 C15 86.74, 9.56 82, 0.61 73.99 M18.72 89.73 C14.05 85.12, 8.74 80.16, 0.61 73.99 M18.69 79.1 C16.7 77.15, 12.42 73.9, 0.57 63.36 M18.69 79.1 C13.09 73.25, 7.07 69.47, 0.57 63.36 M18.65 68.47 C15.9 63.54, 11.87 61.13, 0.54 52.73 M18.65 68.47 C11.07 62.96, 4.69 56.57, 0.54 52.73 M18.62 57.84 C11.84 51.08, 5.34 43.78, 0.51 42.1 M18.62 57.84 C13.43 53.12, 9.36 49.95, 0.51 42.1 M18.58 47.21 C11.24 41.46, 6.03 36.74, 0.47 31.47 M18.58 47.21 C13.56 44.37, 9.15 38.94, 0.47 31.47 M18.55 36.58 C12.37 31.9, 5.09 24.79, 0.44 20.84 M18.55 36.58 C10.97 31.41, 4.86 24.49, 0.44 20.84 M18.52 25.95 C13.13 20.58, 8.97 15.89, 0.4 10.21 M18.52 25.95 C10.63 18.94, 4.83 12.52, 0.4 10.21 M18.48 15.32 C13.96 9.81, 7.83 2.45, 1.88 0.89 M18.48 15.32 C14.5 10.84, 9.33 7.05, 1.88 0.89 M18.45 4.69 C16.47 2.64, 15.32 1.59, 12.41 -0.56 M18.45 4.69 C16.81 3.5, 15.13 1.61, 12.41 -0.56" stroke="#a5d8ff" stroke-width="1" fill="none"/><path d="M4.51 0 C6.11 -0.18, 9.12 0.02, 13.52 0 M4.51 0 C7.14 -0.13, 9.4 -0.36, 13.52 0 M13.52 0 C17.18 -1.83, 17.09 2.99, 18.02 4.51 M13.52 0 C15.6 0.11, 17.63 2.46, 18.02 4.51 M18.02 4.51 C18.57 34.41, 16.12 63.93, 18.02 124.44 M18.02 4.51 C17.94 30.26, 18.38 58.53, 18.02 124.44 M18.02 124.44 C17.62 128.45, 14.88 127.15, 13.52 128.94 M18.02 124.44 C15.97 129.19, 15.34 129.72, 13.52 128.94 M13.52 128.94 C9.61 128.86, 6.76 128.46, 4.51 128.94 M13.52 128.94 C10.19 128.6, 6.09 128.59, 4.51 128.94 M4.51 128.94 C1.64 129.51, -0.68 129.22, 0 124.44 M4.51 128.94 C-0.27 129.48, -1.17 127.21, 0 124.44 M0 124.44 C0.64 95.86, 0.08 64.42, 0 4.51 M0 124.44 C-0.62 90.69, -0.17 56.32, 0 4.51 M0 4.51 C-1.05 2.45, 0.55 1.22, 4.51 0 M0 4.51 C0.27 2.72, 1.56 1.91, 4.51 0" stroke="#1971c2" stroke-width="2" fill="none"/></g><g stroke-linecap="round" transform="translate(319.1597002125841 42.662106101273935) rotate(0 10.399191367744251 6.4289458036787295)"><path d="M0.35 1.63 C0.35 1.63, 0.35 1.63, 0.35 1.63 M0.35 1.63 C0.35 1.63, 0.35 1.63, 0.35 1.63 M1.14 12.92 C4.74 8.93, 9.32 4.19, 11.64 0.84 M1.14 12.92 C3.06 10.52, 5.43 8.05, 11.64 0.84 M11.77 12.88 C14.05 10.01, 16.61 8.41, 20.96 2.32 M11.77 12.88 C15.05 8.89, 18.67 4.66, 20.96 2.32 M1.17 12.37 C1.17 12.37, 1.17 12.37, 1.17 12.37 M1.17 12.37 C1.17 12.37, 1.17 12.37, 1.17 12.37 M13.97 12.9 C9.57 8.91, 5.81 7.32, 0.38 1.09 M13.97 12.9 C9.59 9.19, 6.17 5.35, 0.38 1.09 M20.72 8.17 C17.15 4.82, 14.29 2.96, 11.67 0.3 M20.72 8.17 C17.38 5.26, 13.98 2.35, 11.67 0.3" stroke="#ffec99" stroke-width="1" fill="none"/><path d="M3.21 0 C7.42 0.18, 10.44 0.5, 17.58 0 M3.21 0 C8.59 0.04, 13.65 -0.26, 17.58 0 M17.58 0 C20.26 0.33, 21.28 1, 20.8 3.21 M17.58 0 C19.73 -0.05, 20.46 1.86, 20.8 3.21 M20.8 3.21 C20.75 5.53, 20.51 7.17, 20.8 9.64 M20.8 3.21 C20.7 5.52, 20.76 7.77, 20.8 9.64 M20.8 9.64 C21.67 12.22, 19.36 13.23, 17.58 12.86 M20.8 9.64 C21.21 12, 20.06 13.45, 17.58 12.86 M17.58 12.86 C14.14 13.25, 10.6 12.99, 3.21 12.86 M17.58 12.86 C13.22 13.26, 8.4 12.99, 3.21 12.86 M3.21 12.86 C0.2 13.61, -0.26 11.8, 0 9.64 M3.21 12.86 C0.03 11.91, -0.75 12.41, 0 9.64 M0 9.64 C-0.26 8.43, 0.24 6.98, 0 3.21 M0 9.64 C-0.08 8.3, -0.13 6.86, 0 3.21 M0 3.21 C0.24 0.78, 0.54 -0.81, 3.21 0 M0 3.21 C0.09 1.38, 1.44 -0.9, 3.21 0" stroke="#ffd43b" stroke-width="2" fill="none"/></g><g stroke-linecap="round"><g transform="translate(494.9168613998131 142.27491576711208) rotate(0 69.51947695139282 0)"><path d="M-0.05 0.83 C22.99 1.09, 114.62 0.72, 137.99 0.58 M-1.53 0.22 C21.88 0.2, 116.57 -1.42, 140.15 -1.24" stroke="#1971c2" stroke-width="2" fill="none"/></g></g><mask/><g stroke-linecap="round"><g transform="translate(494.11065170444925 144.7933398840848) rotate(0 0 19.68489416803652)"><path d="M0.32 0.21 C0.21 6.79, -0.22 33.36, -0.33 39.82 M-0.18 -0.16 C-0.13 6.24, 0.58 32.49, 0.74 39.08" stroke="#1e1e1e" stroke-width="2" fill="none"/></g></g><mask/><g stroke-linecap="round"><g transform="translate(633.2172371585739 142.1686873283466) rotate(0 0 23.62187300164379)"><path d="M-0.53 -0.17 C-0.65 7.77, -0.48 39.37, -0.32 47.3 M0.2 -0.73 C0.22 7.33, 0.73 39.89, 0.76 48.02" stroke="#1e1e1e" stroke-width="2" fill="none"/></g></g><mask/><g stroke-linecap="round"><g transform="translate(494.9855358896953 143.91845569883873) rotate(0 69.11585063443931 -18.37256789016743)"><path d="M-0.15 -0.3 C23.08 -6.2, 116.2 -30.55, 139.07 -36.45 M-1.68 -1.51 C21.49 -7.69, 115.05 -32.42, 138.55 -38.42" stroke="#1971c2" stroke-width="2" fill="none"/></g></g><mask/><g stroke-linecap="round"><g transform="translate(633.2172371585739 141.29380314310066) rotate(0 -0.43744209262303 -16.622799519675368)"><path d="M-0.02 -0.4 C-0.11 -5.77, -0.41 -27.22, -0.62 -32.7 M-0.69 0.58 C-0.82 -4.89, -1 -27.84, -0.92 -33.38" stroke="#1971c2" stroke-width="2" fill="none"/></g></g><mask/><g stroke-linecap="round" transform="translate(84.64937575177271 161.1881981557508) rotate(0 11.700286749748471 11.700286749748471)"><path d="M13.01 0.47 C15.36 0.57, 18.06 1.83, 19.72 3.55 C21.38 5.27, 22.74 8.24, 22.96 10.79 C23.18 13.35, 22.45 16.84, 21.04 18.88 C19.62 20.92, 16.82 22.52, 14.46 23.02 C12.09 23.52, 9.17 22.99, 6.87 21.87 C4.58 20.76, 1.71 18.54, 0.68 16.33 C-0.34 14.11, 0 11.02, 0.73 8.58 C1.46 6.14, 3.09 3.1, 5.07 1.68 C7.04 0.26, 11.26 0.23, 12.57 0.04 C13.88 -0.15, 12.91 0.24, 12.94 0.52 M9.36 -0.19 C11.64 -0.78, 15.03 0.11, 17.34 1.45 C19.66 2.78, 22.26 5.51, 23.25 7.81 C24.25 10.1, 24.2 12.86, 23.29 15.23 C22.39 17.6, 20.13 20.65, 17.84 22.04 C15.55 23.42, 12.08 23.99, 9.54 23.54 C7.01 23.09, 4.09 21.37, 2.62 19.31 C1.16 17.25, 0.69 13.77, 0.74 11.21 C0.79 8.65, 1.36 5.87, 2.92 3.95 C4.49 2.03, 9.04 0.42, 10.13 -0.3 C11.21 -1.01, 9.35 -0.51, 9.42 -0.36" stroke="#1e1e1e" stroke-width="2" fill="none"/></g><g stroke-linecap="round" transform="translate(27.332781167561905 160.15146388678576) rotate(0 11.700286749748471 11.700286749748471)"><path d="M9 0.18 C11.29 -0.41, 15.04 0.44, 17.33 1.66 C19.61 2.88, 21.88 5.26, 22.74 7.5 C23.61 9.74, 23.3 12.77, 22.52 15.09 C21.74 17.41, 20.11 20.13, 18.05 21.44 C15.99 22.74, 12.7 23.3, 10.16 22.91 C7.62 22.51, 4.56 20.88, 2.8 19.08 C1.03 17.28, -0.46 14.56, -0.43 12.09 C-0.4 9.62, 1.36 6.21, 2.97 4.27 C4.58 2.33, 8.04 1.16, 9.23 0.45 C10.41 -0.26, 9.93 -0.17, 10.08 0.02 M11.28 -0.24 C13.66 -0.46, 16.27 1.37, 18.31 2.89 C20.36 4.4, 22.89 6.57, 23.57 8.83 C24.25 11.08, 23.62 14.17, 22.39 16.43 C21.15 18.69, 18.5 21.23, 16.15 22.37 C13.8 23.52, 10.73 24, 8.29 23.31 C5.86 22.62, 2.95 20.37, 1.54 18.22 C0.14 16.07, -0.55 12.93, -0.12 10.43 C0.3 7.93, 2.3 4.95, 4.09 3.22 C5.88 1.49, 9.53 0.48, 10.61 0.04 C11.68 -0.4, 10.51 0.38, 10.55 0.58" stroke="#1e1e1e" stroke-width="2" fill="none"/></g><g stroke-linecap="round" transform="translate(56.06513090745045 161.04009326018436) rotate(0 11.700286749748471 11.700286749748471)"><path d="M9.58 -0.04 C11.81 -0.46, 15.57 0.36, 17.71 1.66 C19.86 2.95, 21.56 5.38, 22.45 7.72 C23.34 10.05, 23.95 13.29, 23.05 15.67 C22.15 18.05, 19.36 20.84, 17.04 22.01 C14.72 23.18, 11.56 23.23, 9.13 22.69 C6.71 22.14, 4.01 20.64, 2.5 18.72 C0.99 16.8, 0.07 13.71, 0.07 11.18 C0.08 8.64, 0.88 5.44, 2.52 3.53 C4.16 1.62, 8.61 0.23, 9.92 -0.27 C11.23 -0.78, 10.34 0.2, 10.38 0.5 M10.47 0.41 C12.83 0.03, 15.76 0.86, 17.81 2.06 C19.86 3.27, 21.89 5.23, 22.79 7.62 C23.69 10.02, 24.11 13.92, 23.19 16.44 C22.27 18.96, 19.69 21.58, 17.28 22.73 C14.86 23.88, 11.25 24.09, 8.67 23.33 C6.09 22.56, 3.14 20.3, 1.78 18.16 C0.41 16.01, 0.22 12.89, 0.46 10.48 C0.7 8.06, 1.54 5.49, 3.22 3.66 C4.9 1.83, 9.42 0.05, 10.55 -0.52 C11.67 -1.09, 10 -0.01, 9.97 0.25" stroke="#1e1e1e" stroke-width="2" fill="none"/></g><g stroke-linecap="round" transform="translate(100.34222712874057 81.5975366809628) rotate(0 5.277960605839368 32.027624585434296)"><path d="M2.64 0 C4.42 0.07, 6.7 -0.06, 7.92 0 M2.64 0 C4.58 0, 6.85 -0.09, 7.92 0 M7.92 0 C10.3 0.02, 10.71 0.3, 10.56 2.64 M7.92 0 C10.53 -0.46, 10.86 1.51, 10.56 2.64 M10.56 2.64 C11.44 20.05, 10.87 37.38, 10.56 61.42 M10.56 2.64 C10.19 17.51, 10.25 32.89, 10.56 61.42 M10.56 61.42 C10.09 63.11, 10.12 63.13, 7.92 64.06 M10.56 61.42 C9.84 63.31, 8.94 63.61, 7.92 64.06 M7.92 64.06 C5.98 64.23, 4.14 63.83, 2.64 64.06 M7.92 64.06 C6.35 64.15, 4.64 63.95, 2.64 64.06 M2.64 64.06 C1.26 63.82, -0.18 62.95, 0 61.42 M2.64 64.06 C-0.14 63.15, -0.38 63.66, 0 61.42 M0 61.42 C-0.68 39.3, -0.65 16.38, 0 2.64 M0 61.42 C0.39 39.38, -0.39 17.55, 0 2.64 M0 2.64 C-0.67 -0.04, 0.01 -0.47, 2.64 0 M0 2.64 C0.59 0.57, 0.44 0.04, 2.64 0" stroke="#1e1e1e" stroke-width="2" fill="none"/></g><g stroke-linecap="round"><g transform="translate(112.81740674254274 100.55021340193144) rotate(0 -26.98957127986037 -22.311378924684576)"><path d="M0.06 -1.01 C-9.02 -8.56, -44.57 -36.74, -53.58 -44.15 M-1.37 1.07 C-10.65 -6.33, -45.41 -38.41, -54.32 -46.03" stroke="#1e1e1e" stroke-width="2" fill="none"/></g></g><mask/></svg>