<svg version="1.1" xmlns="http://www.w3.org/2000/svg" viewBox="0 0 634 450.78892049612705" width="634" height="450.78892049612705">
  <!-- svg-source:excalidraw -->
  
  <defs>
    <style class="style-fonts">
      @font-face {
        font-family: "Virgil";
        src: url("https://excalidraw.com/Virgil.woff2");
      }
      @font-face {
        font-family: "Cascadia";
        src: url("https://excalidraw.com/Cascadia.woff2");
      }
    </style>
    
  </defs>
  <rect x="0" y="0" width="634" height="450.78892049612705" fill="#ffffff"/><g stroke-linecap="round"><g transform="translate(56 404.3944602480635) rotate(0 266 -182.5)"><path d="M0.89 -0.25 C26 -38.91, 89.35 -201.78, 150.66 -231.23 C211.98 -260.68, 305.26 -154.75, 368.76 -176.97 C432.27 -199.19, 504.38 -333.05, 531.69 -364.56 M-0.1 -1.43 C24.91 -40.49, 88.65 -203.83, 150.06 -232.95 C211.48 -262.07, 304.78 -154.45, 368.4 -176.16 C432.02 -197.87, 504.6 -331.55, 531.77 -363.23" stroke="#1e1e1e" stroke-width="1" fill="none"/></g><g transform="translate(56 404.3944602480635) rotate(0 266 -182.5)"><path d="M523.57 -333.15 C527.44 -341.8, 526.9 -352.36, 532.5 -362.25 M524.01 -334.67 C526.07 -340.57, 527.38 -346.22, 531 -362.44" stroke="#1e1e1e" stroke-width="1" fill="none"/></g><g transform="translate(56 404.3944602480635) rotate(0 266 -182.5)"><path d="M506.77 -344.93 C515.79 -350.14, 520.33 -357.14, 532.5 -362.25 M507.21 -346.45 C512.95 -349.95, 517.84 -353.09, 531 -362.44" stroke="#1e1e1e" stroke-width="1" fill="none"/></g></g><mask/><g stroke-linecap="round" transform="translate(52 155.39446024806352) rotate(0 92.5 92.5)"><path d="M117.58 3.72 C128.81 5.39, 141.02 13.43, 150.48 20.71 C159.94 28, 168.59 37.03, 174.34 47.43 C180.09 57.83, 183.97 71.33, 184.98 83.13 C185.99 94.93, 183.67 107.04, 180.41 118.2 C177.16 129.37, 172.69 140.75, 165.42 150.12 C158.16 159.48, 147.5 168.66, 136.84 174.39 C126.19 180.13, 113.15 183.48, 101.5 184.53 C89.85 185.58, 78.03 183.92, 66.94 180.68 C55.85 177.43, 44.1 172.49, 34.96 165.05 C25.82 157.61, 17.71 146.38, 12.1 136.01 C6.49 125.64, 2.54 114.3, 1.29 102.83 C0.04 91.37, 1.26 78.75, 4.61 67.23 C7.97 55.7, 14.23 43.09, 21.42 33.69 C28.61 24.29, 37.48 16.47, 47.76 10.82 C58.03 5.17, 70.21 0.56, 83.06 -0.24 C95.91 -1.04, 116.9 4.13, 124.87 6.03 C132.85 7.94, 131.33 9.83, 130.92 11.19 M115.12 2.93 C126.39 4.41, 136.42 11.19, 145.82 18.07 C155.22 24.94, 165.36 34.35, 171.52 44.19 C177.68 54.02, 180.88 65.49, 182.78 77.07 C184.67 88.65, 185.7 102.19, 182.9 113.65 C180.09 125.11, 172.94 136.3, 165.95 145.83 C158.97 155.36, 150.91 164.31, 140.98 170.83 C131.05 177.35, 118.13 183.14, 106.38 184.95 C94.64 186.75, 81.97 184.83, 70.51 181.67 C59.06 178.5, 47.17 172.93, 37.65 165.94 C28.14 158.94, 19.74 149.59, 13.41 139.67 C7.08 129.75, 1.36 117.82, -0.33 106.41 C-2.01 95, 0.48 82.47, 3.29 71.22 C6.1 59.96, 9.7 48.48, 16.54 38.9 C23.38 29.31, 33.86 20.09, 44.33 13.71 C54.81 7.32, 67.61 2.52, 79.38 0.59 C91.16 -1.34, 109.15 1.56, 114.98 2.12 C120.81 2.67, 114.81 2.23, 114.37 3.9" stroke="#f08c00" stroke-width="1" fill="none"/></g><g stroke-linecap="round" transform="translate(193.29943414588894 167.66921973278812) rotate(0 8.0054670861469 8.0054670861469)"><path d="M10.37 -0.32 C11.86 0.23, 14.15 2.43, 15.03 4.02 C15.9 5.61, 15.98 7.63, 15.62 9.22 C15.26 10.81, 14.02 12.28, 12.87 13.57 C11.72 14.86, 10.38 17.02, 8.72 16.96 C7.07 16.91, 4.38 14.58, 2.94 13.26 C1.5 11.94, 0.31 10.5, 0.08 9.04 C-0.15 7.58, 0.71 5.88, 1.57 4.5 C2.42 3.13, 3.63 1.49, 5.23 0.78 C6.82 0.08, 10.16 0.36, 11.15 0.28 C12.15 0.2, 11.13 0.12, 11.19 0.3 M6.46 1.26 C7.87 0.38, 9.74 -0.87, 11.02 -0.45 C12.31 -0.04, 13.62 2.24, 14.17 3.76 C14.72 5.27, 14.59 6.72, 14.33 8.64 C14.08 10.56, 13.77 14.04, 12.63 15.27 C11.49 16.5, 9.26 16.27, 7.49 16.01 C5.72 15.74, 3.22 14.91, 2.01 13.67 C0.8 12.44, 0.22 10.16, 0.25 8.62 C0.28 7.08, 1.11 5.93, 2.21 4.43 C3.31 2.92, 6.21 0.12, 6.83 -0.42 C7.45 -0.96, 5.96 1.09, 5.92 1.18" stroke="#f08c00" stroke-width="1" fill="none"/></g><g stroke-linecap="round"><g transform="translate(139.9598200946832 245.66499485681766) rotate(0 29.975949637777546 -35.26582310326771)"><path d="M-0.75 0.9 C9.12 -10.83, 49.52 -58.03, 59.84 -70.06 M1.05 0.33 C10.7 -11.79, 48.84 -60.16, 58.83 -71.93" stroke="#f08c00" stroke-width="1" fill="none"/></g></g><mask/><g stroke-linecap="round" transform="translate(101.02124333586212 207.48064182751895) rotate(46.679251343313 37.37897839328524 37.37897839328523)"><path d="M1.61 -0.12 C27.54 0.42, 58.32 -0.61, 74.08 0.66 M0.94 -0.73 C22.27 0.66, 44.32 -0.02, 74.56 0.15 M72.9 -0.4 C73.52 14.95, 76.03 29.61, 73.36 75.85 M74.59 0.51 C73.38 27.58, 73.54 55.69, 75.58 74.98 M73.22 74.77 C43.77 75.95, 15.06 74.23, 1.96 72.95 M75.59 75.71 C57.33 74.93, 39.15 74.39, -0.86 74.94 M0.8 73.1 C-1.34 54.91, -0.32 34.19, 1.06 1.58 M0.86 75.63 C1.28 48.61, 0.52 20.14, -0.16 -0.57" stroke="#000000" stroke-width="1" fill="none"/></g><g stroke-linecap="round"><g transform="translate(121.61821291874574 189.7859902251539) rotate(46.679251343313 0 36.96056749887611)"><path d="M-0.07 -1.11 C-0.02 11, 0.29 61.2, 0.23 73.64" stroke="#c92a2a" stroke-width="1.5" fill="none" stroke-dasharray="1.5 7"/></g></g><mask/><g stroke-linecap="round"><g transform="translate(157.1999268546226 226.9473363401006) rotate(46.679251343313 0 36.96056749887611)"><path d="M0.23 -0.28 C0.18 12.16, -0.41 61.15, -0.39 73.51" stroke="#5c940d" stroke-width="1.5" fill="none" stroke-dasharray="1.5 7"/></g></g><mask/><g stroke-linecap="round"><g transform="translate(82.10720687995513 261.3277090362145) rotate(46.679251343313 37.239527027278996 0.13948382108647195)"><path d="M-0.39 -0.41 C12.05 -0.31, 62.51 0.24, 74.88 0.28" stroke="#364fc7" stroke-width="1.5" fill="none" stroke-dasharray="1.5 7"/></g></g><mask/><g stroke-linecap="round" transform="translate(118.84961653885952 220.29687774537993) rotate(46.679251343313 1.8131598538031994 6.973679886809928)"><path d="M0 -0.2 C0.85 0.33, 1.68 -0.07, 3.77 -0.21 M-0.18 0.18 C0.92 -0.17, 1.94 -0.18, 3.61 0.05 M4.7 -1.05 C3.07 3.44, 4.23 6.22, 2.81 13.03 M4.32 0.06 C3.3 2.74, 3.75 6.15, 4.21 13.93 M3.42 13.87 C2.67 14.22, 1.82 14.15, -0.03 14.15 M3.56 13.94 C2.78 14.03, 1.74 13.83, -0.03 13.92 M0.87 13.42 C0.07 12.03, 1.15 9.11, 1.33 0.33 M0.31 13.73 C-0.36 10.53, -0.44 6.04, 0.69 -0.21" stroke="#c92a2a" stroke-width="1" fill="none"/></g><g stroke-linecap="round" transform="translate(154.72770844894728 257.6530029919451) rotate(46.679251343313 1.8131598538031994 6.973679886809929)"><path d="M-0.12 0.34 C0.94 -0.04, 2.56 -0.19, 3.53 -0.07 M-0.07 -0.17 C1.11 -0.21, 2.26 0.01, 3.56 -0.13 M3.17 -0.23 C4.44 3.81, 2.92 8.97, 2.72 15.1 M3.18 -0.54 C3.77 4.09, 4.35 8.98, 3.61 14.63 M3.74 14.25 C3.21 14.17, 2.08 14.14, -0.22 13.64 M3.65 14.02 C2.32 13.82, 1.29 13.91, -0.14 14.04 M0.14 15.15 C1.14 10.05, 1.24 3.71, -0.58 -0.23 M-0.38 14.14 C-0.52 9.87, 0.63 6.97, 0.06 -0.46" stroke="#5c940d" stroke-width="0.5" fill="none"/></g><g stroke-linecap="round" transform="translate(120.13090371323429 257.0891149872065) rotate(316.6792513433129 1.8131598538031994 6.973679886809929)"><path d="M-0.27 -0.06 C1.03 -0.24, 1.67 -0.11, 3.68 -0.35 M-0.04 -0.18 C1.42 0.08, 2.82 -0.09, 3.73 0.14 M4.33 -1.13 C2.76 2.22, 2.67 7.43, 3.94 15.33 M3.63 -0.41 C4.12 4.28, 3.52 9.29, 3 13.54 M3.97 14.18 C2.59 14.18, 1.39 13.67, 0.06 13.81 M3.48 13.82 C2.52 13.93, 1.34 14.06, 0.14 14.06 M1.22 15.34 C1.32 10.62, -0.59 6.41, -0.8 0.62 M-0.46 13.26 C0.77 10, 0.14 6.01, 0.29 0.2" stroke="#364fc7" stroke-width="1" fill="none"/></g><g stroke-linecap="round" transform="translate(135.6172941010218 244.90640106363213) rotate(46.679251343313 2.5105302766152136 2.51053027661521)"><path d="M5.02 2.51 C5.02 2.66, 5.01 2.8, 4.98 2.95 C4.96 3.09, 4.92 3.23, 4.87 3.37 C4.82 3.51, 4.76 3.64, 4.68 3.77 C4.61 3.89, 4.53 4.01, 4.43 4.12 C4.34 4.24, 4.24 4.34, 4.12 4.43 C4.01 4.53, 3.89 4.61, 3.77 4.68 C3.64 4.76, 3.51 4.82, 3.37 4.87 C3.23 4.92, 3.09 4.96, 2.95 4.98 C2.8 5.01, 2.66 5.02, 2.51 5.02 C2.37 5.02, 2.22 5.01, 2.07 4.98 C1.93 4.96, 1.79 4.92, 1.65 4.87 C1.52 4.82, 1.38 4.76, 1.26 4.68 C1.13 4.61, 1.01 4.53, 0.9 4.43 C0.79 4.34, 0.68 4.24, 0.59 4.12 C0.49 4.01, 0.41 3.89, 0.34 3.77 C0.26 3.64, 0.2 3.51, 0.15 3.37 C0.1 3.23, 0.06 3.09, 0.04 2.95 C0.01 2.8, 0 2.66, 0 2.51 C0 2.37, 0.01 2.22, 0.04 2.07 C0.06 1.93, 0.1 1.79, 0.15 1.65 C0.2 1.52, 0.26 1.38, 0.34 1.26 C0.41 1.13, 0.49 1.01, 0.59 0.9 C0.68 0.79, 0.79 0.68, 0.9 0.59 C1.01 0.49, 1.13 0.41, 1.26 0.34 C1.38 0.26, 1.52 0.2, 1.65 0.15 C1.79 0.1, 1.93 0.06, 2.07 0.04 C2.22 0.01, 2.37 0, 2.51 0 C2.66 0, 2.8 0.01, 2.95 0.04 C3.09 0.06, 3.23 0.1, 3.37 0.15 C3.51 0.2, 3.64 0.26, 3.77 0.34 C3.89 0.41, 4.01 0.49, 4.12 0.59 C4.24 0.68, 4.34 0.79, 4.43 0.9 C4.53 1.01, 4.61 1.13, 4.68 1.26 C4.76 1.38, 4.82 1.52, 4.87 1.65 C4.92 1.79, 4.96 1.93, 4.98 2.07 C5.01 2.22, 5.01 2.44, 5.02 2.51 C5.03 2.58, 5.03 2.44, 5.02 2.51" stroke="#000000" stroke-width="2" fill="none"/></g><g stroke-linecap="round" transform="translate(122.07711270832993 143.76906315741252) rotate(0 185.89073168140155 185.89073168140152)"><path d="M151.28 3.9 C166.82 -2, 187.11 -0.65, 204.47 0.94 C221.83 2.54, 239.18 6.72, 255.44 13.47 C271.71 20.22, 288.39 30.57, 302.07 41.44 C315.74 52.31, 327.56 64.53, 337.49 78.68 C347.42 92.83, 355.96 109.86, 361.65 126.33 C367.33 142.8, 370.72 160.07, 371.59 177.5 C372.46 194.92, 371.19 213.88, 366.87 230.87 C362.55 247.86, 354.49 264.22, 345.69 279.44 C336.89 294.65, 326.7 309.96, 314.06 322.16 C301.43 334.36, 285.59 344.87, 269.85 352.62 C254.12 360.38, 236.85 365.62, 219.67 368.68 C202.48 371.74, 184.06 372.69, 166.76 370.98 C149.45 369.26, 132.15 365.16, 115.85 358.41 C99.55 351.66, 82.56 341.45, 68.94 330.48 C55.32 319.5, 44.04 306.63, 34.12 292.56 C24.21 278.49, 15.16 262.57, 9.45 246.07 C3.73 229.57, 0.56 211.11, -0.18 193.54 C-0.91 175.98, 0.87 157.71, 5.04 140.67 C9.21 123.64, 15.83 106.52, 24.85 91.32 C33.86 76.13, 46.41 61.33, 59.15 49.52 C71.89 37.71, 82.78 28.68, 101.3 20.46 C119.83 12.24, 155.86 3.01, 170.3 0.2 C184.75 -2.61, 187.61 0.29, 187.98 3.58 M236.85 6.67 C253.18 8.54, 268.99 20.07, 283.82 29.32 C298.66 38.56, 314.07 49.09, 325.89 62.15 C337.71 75.21, 347.33 91.83, 354.75 107.66 C362.16 123.49, 367.63 139.71, 370.37 157.11 C373.11 174.51, 373.8 194.51, 371.19 212.07 C368.58 229.64, 361.83 246.96, 354.73 262.49 C347.63 278.02, 339.89 292.29, 328.59 305.26 C317.29 318.23, 301.81 330.34, 286.91 340.31 C272.01 350.28, 255.91 360.05, 239.17 365.1 C222.43 370.16, 203.79 370.52, 186.46 370.63 C169.12 370.74, 152.04 370.36, 135.16 365.77 C118.27 361.17, 99.93 352.54, 85.15 343.08 C70.36 333.62, 57.56 322.11, 46.44 309 C35.31 295.89, 25.55 280.3, 18.39 264.42 C11.23 248.53, 6.27 231.08, 3.47 213.7 C0.67 196.31, -0.34 177.6, 1.57 160.12 C3.47 142.63, 7.57 124.63, 14.9 108.76 C22.24 92.9, 33.78 77.89, 45.56 64.94 C57.35 51.98, 71.07 40.53, 85.59 31.04 C100.12 21.55, 116.38 12.95, 132.7 8 C149.02 3.05, 166.07 1.39, 183.54 1.32 C201.01 1.26, 228.96 5.88, 237.53 7.63 C246.09 9.38, 235.92 8.76, 234.92 11.82" stroke="#1971c2" stroke-width="1" fill="none"/></g></svg>